<svg id="Layer_1" data-name="Layer 1" xmlns="http://www.w3.org/2000/svg" viewBox="0 0 18 17.19"><defs><style>.cls-1{fill:#fff;}</style></defs><path class="cls-1" d="M6.5,9.22a198.92,198.92,0,0,1,14.55,13.9c1.33,1.41,3.45-.72,2.12-2.12A196.82,196.82,0,0,0,8.62,7.1a1.54,1.54,0,0,0-2.12,0,1.51,1.51,0,0,0,0,2.12Z" transform="translate(-5.59 -6.6)"/><path class="cls-1" d="M20.22,7A81,81,0,0,0,6,21.24a1.55,1.55,0,0,0,0,2.12,1.52,1.52,0,0,0,2.12,0A81,81,0,0,1,22.34,9.15a1.51,1.51,0,0,0,0-2.12,1.54,1.54,0,0,0-2.12,0Z" transform="translate(-5.59 -6.6)"/></svg>