<svg id="_03_Black" data-name="03_Black" xmlns="http://www.w3.org/2000/svg" viewBox="0 0 88.01 88.54"><defs><style>.cls-1{fill:#ff0;}</style></defs><path class="cls-1" d="M15.38,23.12c5-5.21,10.16-10.11,16.85-13,13.17-5.8,28.52-3.85,40.38,4.17A44.9,44.9,0,0,1,90.42,38.77a36.11,36.11,0,0,1-4,29.42A52.88,52.88,0,0,1,67.2,86.94c-4.77,2.7-10.18,5-15.71,5.33a39,39,0,0,1-17.6-3.48A47.18,47.18,0,0,1,14.42,73.37C5.72,61.32,4.79,46.48,10.53,33c.83-1.94,1.72-3.86,2.64-5.76.79-1.65,1.48-3.72,2.94-4.91" transform="translate(-5.93 -5.74)"/><path d="M26,55.18a26.37,26.37,0,0,1,8.09-3.27,59.3,59.3,0,0,1,9.29-1.27l4.83-.35c1.62-.13,3.24-.28,4.86-.37a33.13,33.13,0,0,1,9.48.61A23.5,23.5,0,0,1,66.88,52a4.52,4.52,0,0,1,2.82,2.81,2.49,2.49,0,0,1,0,1c0,.29.39.41.44.12a3.69,3.69,0,0,0-1.63-3.48,8.24,8.24,0,0,0-1.87-1c-.73-.3-1.47-.57-2.22-.8a29.24,29.24,0,0,0-9.57-1.2c-1.68,0-3.36.18-5,.31s-3.31.26-5,.37a75.71,75.71,0,0,0-9.73,1.14,28.6,28.6,0,0,0-8.42,3l-1,.58C25.51,55,25.74,55.34,26,55.18Z" transform="translate(-5.93 -5.74)"/><path d="M25.48,54.37a.74.74,0,0,0-.22,1,.71.71,0,0,0,1,.25l-.54-.85a.34.34,0,0,1,.25,0,.24.24,0,0,1,.15.12.21.21,0,0,1,0,.16.29.29,0,0,1-.1.18Zm1-.6-1,.59.53.85c.31-.2.63-.38.95-.57Zm8.58-3.05a29.26,29.26,0,0,0-8.57,3.05l.49.87a27.94,27.94,0,0,1,8.27-2.93Zm9.79-1.14a77.64,77.64,0,0,0-9.8,1.14l.2,1a74.18,74.18,0,0,1,9.67-1.14Zm5-.37c-1.65.14-3.3.26-5,.37l.07,1c1.66-.11,3.31-.23,5-.37Zm5.07-.31c-1.69,0-3.39.18-5.06.31l.07,1c1.69-.13,3.35-.27,5-.31Zm9.73,1.22a29.47,29.47,0,0,0-9.73-1.22l0,1a29,29,0,0,1,9.41,1.18Zm2.26.81c-.74-.3-1.49-.58-2.26-.81l-.29,1c.73.23,1.46.49,2.17.79Zm2,1.08a8.77,8.77,0,0,0-2-1.08l-.38.93a7.57,7.57,0,0,1,1.76.94Zm1.82,4a4.2,4.2,0,0,0-1.83-4l-.6.8a3.18,3.18,0,0,1,1.44,3Zm-1.43-.29a.73.73,0,0,0,.55.84.65.65,0,0,0,.52-.05.69.69,0,0,0,.36-.5l-1-.17a.29.29,0,0,1,.16-.21.29.29,0,0,1,.21,0,.26.26,0,0,1,.13.09.3.3,0,0,1,0,.2Zm0-.77a2,2,0,0,1,0,.78l1,.15a2.94,2.94,0,0,0,0-1.18Zm-2.54-2.48a4,4,0,0,1,2.54,2.47l1-.23a5,5,0,0,0-3.1-3.15ZM62.43,51a23.8,23.8,0,0,1,4.25,1.41l.41-.91a23.49,23.49,0,0,0-4.43-1.47Zm-9.34-.6a33.13,33.13,0,0,1,9.34.6l.23-1A33.15,33.15,0,0,0,53,49.43Zm-4.85.37c1.63-.13,3.24-.28,4.85-.37l-.05-1c-1.63.09-3.26.24-4.88.37Zm-4.83.35L45.82,51l2.42-.18-.07-1L45.75,50l-2.41.18ZM34.2,52.4a59,59,0,0,1,9.21-1.26l-.07-1A59.62,59.62,0,0,0,34,51.43Zm-7.94,3.21A25.69,25.69,0,0,1,34.2,52.4l-.23-1a26.94,26.94,0,0,0-8.24,3.33Zm-.5-.83-.26-.42h0Zm1-.58-.24-.43h0Zm8.42-3,.1.5h0Zm9.73-1.14,0-.49h0Zm5-.37,0-.49h0Zm5-.31,0,.5h0Zm9.57,1.2-.14.48h0Zm2.22.8-.19.47h0Zm1.87,1-.3.4h0Zm1.63,3.48-.49-.08h0Zm-.44-.12.5.09h0Zm0-1-.48.12h0ZM66.88,52l-.2.46h0Zm-4.34-1.44.12-.48h0Zm-9.48-.61,0,.5h0Zm-4.86.37,0,.5h0Zm-4.83.35,0,.5h0Zm-9.29,1.27.12.49h0ZM26,55.18l-.26-.42h0Z" transform="translate(-5.93 -5.74)"/><path d="M26.09,54.56c-.95,1.14.31,2.47.83,3.48a12.65,12.65,0,0,1,1.18,3.85A29.2,29.2,0,0,1,28.38,66q0,2.36,0,4.71c0,1.78-.12,3.55-.23,5.33,0,.29.44.29.45,0q.3-4.65.27-9.31a21.83,21.83,0,0,0-1.08-7.91,11.32,11.32,0,0,0-1-2c-.34-.53-.8-1.34-.31-1.93C26.6,54.66,26.28,54.34,26.09,54.56Z" transform="translate(-5.93 -5.74)"/><path d="M26.79,55.2A.74.74,0,0,0,26.27,54a.7.7,0,0,0-.55.25l.75.65a.29.29,0,0,1-.24.1.25.25,0,0,1-.18-.07.27.27,0,0,1-.08-.16.29.29,0,0,1,.07-.22Zm.36,1.33a3.25,3.25,0,0,1-.41-.81.56.56,0,0,1,.06-.54L26,54.55A1.52,1.52,0,0,0,25.78,56a4,4,0,0,0,.52,1.08Zm1.08,2.06a12,12,0,0,0-1.09-2.07l-.83.55a11.34,11.34,0,0,1,1,1.89Zm1.11,8.09a22.28,22.28,0,0,0-1.11-8.09L27.3,59a21.38,21.38,0,0,1,1,7.73ZM29.07,76q.3-4.66.27-9.35h-1c0,3.1-.07,6.18-.26,9.27ZM27.63,76a.67.67,0,0,0,.22.57.75.75,0,0,0,.49.18.71.71,0,0,0,.73-.7l-1,0a.33.33,0,0,1,.11-.21.29.29,0,0,1,.16-.06.3.3,0,0,1,.18.08.28.28,0,0,1,.1.24Zm.22-5.31c0,1.78-.12,3.54-.22,5.31l1,.07c.11-1.79.19-3.57.23-5.35Zm0-4.69c0,1.57,0,3.13,0,4.69l1,0c0-1.58,0-3.15,0-4.73Zm-.27-4a29.53,29.53,0,0,1,.27,4h1a30.42,30.42,0,0,0-.28-4.14Zm-1.13-3.7A12,12,0,0,1,27.61,62l1-.15a13.34,13.34,0,0,0-1.23-4Zm-.77-4a1.88,1.88,0,0,0-.46,1.19,2.55,2.55,0,0,0,.25,1.11,7.78,7.78,0,0,0,.52,1c.18.3.34.54.46.77l.89-.45c-.14-.28-.34-.58-.5-.85a5.16,5.16,0,0,1-.45-.82,1.51,1.51,0,0,1-.17-.69.82.82,0,0,1,.23-.57Zm.7.63L26,54.53h0Zm.31,1.93-.42.27h0Zm1,2,.47-.19h0Zm1.08,7.91h0ZM28.57,76l-.49,0h0Zm-.45,0,.5,0h0Zm.23-5.33-.5,0h0Zm0-4.71h0Zm-.28-4.07.5-.08h0ZM26.92,58l-.44.22h0Zm-.83-3.48-.37-.33h0Z" transform="translate(-5.93 -5.74)"/><path d="M28.27,76.17a10.28,10.28,0,0,0,3.55.65c1.29,0,2.59,0,3.88,0,2.68,0,5.36,0,8,0q8.09,0,16.17.15c3,.05,6.07.11,9.1.18a.23.23,0,0,0,0-.45q-8.08-.19-16.17-.28t-16.09,0c-1.45,0-2.9,0-4.35,0a10.54,10.54,0,0,1-4-.65C28.12,75.63,28,76.06,28.27,76.17Z" transform="translate(-5.93 -5.74)"/><path d="M28.58,75.28a.66.66,0,0,0-.61,0,.73.73,0,0,0-.32.43.76.76,0,0,0,.43.89l.39-.93a.26.26,0,0,1,.15.3.32.32,0,0,1-.14.17.34.34,0,0,1-.27,0Zm3.84.62a9.85,9.85,0,0,1-3.83-.62l-.39.93a11.17,11.17,0,0,0,4.21.68Zm4.34,0c-1.46,0-2.9,0-4.34,0v1c1.45,0,2.92,0,4.36,0Zm16.1,0c-5.36,0-10.74-.08-16.1,0v1c5.35,0,10.72,0,16.08,0ZM69,76.2q-8.1-.2-16.18-.28v1q8.09.09,16.16.28Zm0,1.44a.65.65,0,0,0,.55-.23.75.75,0,0,0,.18-.49.78.78,0,0,0-.17-.48.73.73,0,0,0-.55-.25v1a.28.28,0,0,1-.21-.1.22.22,0,0,1-.07-.17.24.24,0,0,1,.07-.17.3.3,0,0,1,.23-.1Zm-9.09-.18q4.55.08,9.09.18l0-1-9.11-.18Zm-16.17-.15q8.09,0,16.17.15v-1q-8.09-.14-16.17-.16Zm-8,0h8v-1c-2.7,0-5.38,0-8.06,0Zm-3.9,0c1.3.05,2.63,0,3.89,0v-1c-1.31,0-2.58,0-3.86,0Zm-3.72-.68a10.72,10.72,0,0,0,3.72.68l0-1a9.79,9.79,0,0,1-3.38-.62Zm.3-.9.2-.46h0Zm4,.65V75.9h0Zm4.35,0v-.49h0Zm16.09,0v-.49h0ZM69,76.69v.5h0Zm0,.45,0-.49h0ZM59.92,77v.5h0Zm-16.17-.15v.5h0Zm-8,0v.5h0Zm-3.88,0v.5h0Zm-3.55-.65-.19.47h0Z" transform="translate(-5.93 -5.74)"/><path d="M69.81,55.85a39.83,39.83,0,0,0-.79,4A18.4,18.4,0,0,0,69,64c.14,1.39.34,2.77.4,4.16s0,2.82,0,4.23c0,.78-.06,1.56-.13,2.33,0,.38-.08.75-.14,1.13,0,.18-.06.36-.1.54s-.07.28-.19.31a.23.23,0,0,0,.12.44.73.73,0,0,0,.48-.53,5.24,5.24,0,0,0,.18-1,20.85,20.85,0,0,0,.18-2.08c.07-1.44.13-2.88.12-4.32a39.24,39.24,0,0,0-.33-4.33,21.65,21.65,0,0,1-.17-4.26A32.78,32.78,0,0,1,70.25,56C70.31,55.69,69.88,55.57,69.81,55.85Z" transform="translate(-5.93 -5.74)"/><path d="M70.74,56.07a.73.73,0,0,0-1-.8.69.69,0,0,0-.37.46l1,.25a.35.35,0,0,1-.16.19.31.31,0,0,1-.18,0,.22.22,0,0,1-.14-.1.28.28,0,0,1,0-.23Zm-.85,4.65a33.09,33.09,0,0,1,.85-4.64l-1-.23a32.5,32.5,0,0,0-.87,4.78Zm.17,4.16a21.6,21.6,0,0,1-.17-4.16l-1-.09A21.72,21.72,0,0,0,69.07,65Zm.33,4.38a39.59,39.59,0,0,0-.33-4.38l-1,.11a38.88,38.88,0,0,1,.32,4.28Zm-.12,4.35c.07-1.44.13-2.89.12-4.35h-1c0,1.42,0,2.85-.12,4.29Zm-.18,2.13c.1-.72.15-1.43.18-2.13l-1,0a19.38,19.38,0,0,1-.17,2Zm-.2,1a5.5,5.5,0,0,0,.2-1l-1-.13a5,5,0,0,1-.16.87Zm-.81.85a1.22,1.22,0,0,0,.81-.85l-1-.31a.56.56,0,0,1-.08.16.18.18,0,0,1-.07.05Zm-.4-1.4a.72.72,0,0,0-.46.39.75.75,0,0,0,.26.93.71.71,0,0,0,.59.09l-.27-1a.28.28,0,0,1,.24,0,.23.23,0,0,1,.11.14.3.3,0,0,1,0,.18.31.31,0,0,1-.18.16Zm-.16,0a.45.45,0,0,1,0,.08v0h0l0,0a.4.4,0,0,1,.16-.09l.25,1a.72.72,0,0,0,.45-.39,1.37,1.37,0,0,0,.1-.27Zm.09-.49-.09.52,1,.21c.05-.19.08-.38.11-.56Zm.14-1.08c0,.36-.08.71-.14,1.09l1,.15c.06-.38.11-.77.14-1.17Zm.12-2.31c0,.78-.06,1.54-.12,2.3l1,.09c.07-.79.1-1.58.13-2.36Zm0-4.19c.06,1.38,0,2.77,0,4.19l1,0c0-1.4.1-2.83,0-4.27Zm-.39-4.13c.14,1.41.34,2.75.39,4.13l1,0c-.06-1.41-.26-2.82-.4-4.19Zm0-4.25a18.31,18.31,0,0,0,0,4.25l1-.11a17.92,17.92,0,0,1,0-4Zm.8-4.08a39.22,39.22,0,0,0-.8,4.08l1,.13a40.5,40.5,0,0,1,.78-4Zm.92.22.49.12h0Zm-.86,4.71.5,0h0Zm.17,4.26-.49.06h0Zm.33,4.33h0Zm-.12,4.32-.5,0h0Zm-.18,2.08-.49-.07h0Zm-.18,1-.47-.15h0Zm-.48.53.14.49h0Zm-.12-.44-.12-.48h0ZM69,76.4l.49.14v0h0Zm.1-.54.5.09h0Zm.14-1.13-.49,0h0Zm.13-2.33.5,0h0Zm0-4.23.5,0h0ZM69,64l.5-.05h0Zm0-4.13-.49-.06h0Zm.79-4-.48-.12h0Z" transform="translate(-5.93 -5.74)"/><path d="M29.67,67a3.6,3.6,0,0,1-.36-2.07,11.68,11.68,0,0,1,.35-2.43c0-.12.05-.32.15-.41s.24.05.3.13a2.39,2.39,0,0,1,.35,1,9.79,9.79,0,0,1,.18,2.29,5.19,5.19,0,0,1-.07,1.25c-.07.27-.35.66-.67.44s-.47.23-.23.39a.83.83,0,0,0,1-.12,1.61,1.61,0,0,0,.4-1.15A13.67,13.67,0,0,0,31,63.41a4.35,4.35,0,0,0-.38-1.32c-.17-.31-.5-.63-.88-.5s-.48.7-.56,1.07a13,13,0,0,0-.24,1.5,4.84,4.84,0,0,0,.37,3C29.43,67.44,29.82,67.21,29.67,67Z" transform="translate(-5.93 -5.74)"/><path d="M28.85,67.45a.72.72,0,0,0,1,.24.7.7,0,0,0,.33-.4.69.69,0,0,0-.07-.59l-.85.51a.28.28,0,0,1,0-.24.25.25,0,0,1,.12-.14.19.19,0,0,1,.17,0,.28.28,0,0,1,.19.12Zm-.44-3.34a5.3,5.3,0,0,0,.44,3.34l.85-.53a4.39,4.39,0,0,1-.3-2.72Zm.25-1.56a12.05,12.05,0,0,0-.25,1.56l1,.09a14.37,14.37,0,0,1,.23-1.44Zm.9-1.44a1.16,1.16,0,0,0-.73.74,4.05,4.05,0,0,0-.17.7l1,.21a4.09,4.09,0,0,1,.13-.55.46.46,0,0,1,.07-.13l0,0Zm1.46.73a1.66,1.66,0,0,0-.52-.58,1,1,0,0,0-1-.15l.33,1s0,0,0,0l.06,0a.77.77,0,0,1,.21.25Zm.44,1.49A4.84,4.84,0,0,0,31,61.85l-.89.47a3.85,3.85,0,0,1,.33,1.16Zm.11,3a14.17,14.17,0,0,0-.11-3l-1,.17a13.18,13.18,0,0,1,.1,2.75ZM31,67.79a2.1,2.1,0,0,0,.56-1.5l-1-.05c0,.41-.08.67-.23.8ZM29.39,68A1.35,1.35,0,0,0,31,67.79L30.34,67a.42.42,0,0,1-.22.11.22.22,0,0,1-.17,0Zm.79-1.22a.68.68,0,0,0-.6-.09.7.7,0,0,0-.4.33.71.71,0,0,0,.22,1l.55-.83a.28.28,0,0,1,.12.19.24.24,0,0,1,0,.16.27.27,0,0,1-.15.12.31.31,0,0,1-.26,0Zm-.09-.15,0,.09-.05.06.07,0h.12l-.57.83a.79.79,0,0,0,.58.14.86.86,0,0,0,.46-.21,1.45,1.45,0,0,0,.4-.66Zm.05-1.12a4.81,4.81,0,0,1-.05,1.12l1,.25a5.56,5.56,0,0,0,.08-1.37ZM30,63.28a9.65,9.65,0,0,1,.16,2.17h1A10,10,0,0,0,31,63.05Zm-.26-.79a.76.76,0,0,1,.14.3,3.09,3.09,0,0,1,.11.48l1-.21c0-.15-.07-.36-.13-.56a1.75,1.75,0,0,0-.32-.64Zm.43-.08a.35.35,0,0,1-.27.1.3.3,0,0,1-.17,0s0,0,0,0,0,0,0,0l.8-.6a1,1,0,0,0-.25-.26.8.8,0,0,0-.34-.11.64.64,0,0,0-.44.17Zm0,.17a1.3,1.3,0,0,1,0-.13s0-.06,0-.08v0l-.05.07-.67-.75a1,1,0,0,0-.25.43,1.31,1.31,0,0,0,0,.15s0,.07,0,.08Zm-.34,2.32a11.3,11.3,0,0,1,.34-2.32l-1-.25a12.76,12.76,0,0,0-.37,2.54Zm.29,1.79a3.12,3.12,0,0,1-.29-1.78l-1,0a4.09,4.09,0,0,0,.44,2.36Zm-.83.5-.42.26h0Zm-.13-4.53.49.1h0Zm.56-1.07.15.47h0Zm.88.5.45-.24h0ZM31,63.41l-.49.07h0Zm.11,2.86.5,0h0Zm-.4,1.15.34.37h0Zm-1,.12.28-.42h0Zm.23-.39.29-.42h0Zm.67-.44.49.12h0Zm.07-1.25h0Zm-.18-2.29-.49.1h0Zm-.35-1-.4.3h0Zm-.3-.13.34.37h0Zm-.15.41.49.12h0Zm-.35,2.43.5,0h-.5ZM29.67,67l.43-.26h0Z" transform="translate(-5.93 -5.74)"/><path d="M33.35,65.11c-.11-.92-.17-1.84-.19-2.76a9.55,9.55,0,0,1,0-1.31c0-.29.21-.75.58-.68s.5.48.62.74a4.8,4.8,0,0,1,.36,1.17,5.37,5.37,0,0,1-.08,2.36,1.88,1.88,0,0,1-.2.56c-.14.22-.38.1-.57,0a.75.75,0,0,0-1,.18c-.17.24.23.47.39.23s.34,0,.43,0a1.11,1.11,0,0,0,.67.11c.41-.11.54-.58.64-.94a5.79,5.79,0,0,0-.34-4A1.57,1.57,0,0,0,34,60a.87.87,0,0,0-1,.32,2.07,2.07,0,0,0-.28,1.29,32,32,0,0,0,.2,3.53C32.93,65.4,33.38,65.4,33.35,65.11Z" transform="translate(-5.93 -5.74)"/><path d="M32.39,65.21a.75.75,0,0,0,.76.62.71.71,0,0,0,.49-.19.66.66,0,0,0,.21-.58l-1,.11a.31.31,0,0,1,.28-.34.25.25,0,0,1,.24.21Zm-.21-3.62a33.09,33.09,0,0,0,.21,3.59l1-.11a31,31,0,0,1-.2-3.48ZM32.57,60a2.54,2.54,0,0,0-.39,1.59h1a1.61,1.61,0,0,1,.18-1Zm1.59-.48a1.37,1.37,0,0,0-1.59.48l.79.61a.37.37,0,0,1,.43-.16Zm1,1.1a2.09,2.09,0,0,0-1-1.1l-.37.93a1.06,1.06,0,0,1,.48.6ZM35.64,62a6.21,6.21,0,0,0-.46-1.42l-.91.43a5,5,0,0,1,.39,1.18ZM35.55,65A6.27,6.27,0,0,0,35.64,62l-1,.19a5.24,5.24,0,0,1-.08,2.46Zm-1,1.29a1.23,1.23,0,0,0,.75-.62,3.35,3.35,0,0,0,.25-.67l-1-.27a1.88,1.88,0,0,1-.16.46c-.06.11-.1.12-.13.13Zm-1-.13a1.52,1.52,0,0,0,1,.13l-.25-1a.23.23,0,0,1-.11,0,1.73,1.73,0,0,1-.26-.08Zm.16-.22a.38.38,0,0,1-.25.17h-.05l.11,0L34,65.2a1.75,1.75,0,0,0-.33-.11.94.94,0,0,0-.3,0,.61.61,0,0,0-.42.27Zm-1.21-.79a.68.68,0,0,0-.11.6.74.74,0,0,0,1.32.19l-.83-.55a.28.28,0,0,1,.19-.12.26.26,0,0,1,.16,0,.3.3,0,0,1,.08.42Zm1.54-.36a1.55,1.55,0,0,0-.76-.11,1.11,1.11,0,0,0-.79.47l.82.57,0,0h0a.51.51,0,0,1,.27.05Zm0,.18,0-.05.07,0,.11,0h0l-.13-.06-.39.93a1.83,1.83,0,0,0,.44.13.7.7,0,0,0,.39,0,.81.81,0,0,0,.36-.3Zm.14-.43c0,.13,0,.18-.07.28a.54.54,0,0,1-.06.13l.83.57a1.43,1.43,0,0,0,.18-.41c0-.1.07-.25.09-.3Zm.07-2.13a4.84,4.84,0,0,1-.07,2.14l1,.25a5.91,5.91,0,0,0,.09-2.58Zm-.32-1.06a4.25,4.25,0,0,1,.32,1l1-.17a5.36,5.36,0,0,0-.4-1.29Zm-.26-.45s0,0,.07.08.12.23.19.37l.91-.41a3.47,3.47,0,0,0-.28-.52,1.11,1.11,0,0,0-.7-.51Zm0,.24a.89.89,0,0,1,0-.14l0-.11s0,0,0,0l0,0h0l.19-1a.92.92,0,0,0-.93.42,1.63,1.63,0,0,0-.24.7Zm0,1.24a10.13,10.13,0,0,1,0-1.24l-1-.11a10.76,10.76,0,0,0,0,1.38Zm.19,2.72c-.11-.91-.17-1.81-.19-2.72l-1,0c0,.93.09,1.87.2,2.8Zm-1,.06-.49.06v0h0ZM33,60.3l-.39-.3h0ZM34,60l.19-.46h0Zm.75.85.46-.21h0Zm.43,1.3-.49.1h0Zm-.09,2.69.49.14h0Zm-.64.94.13.49h0Zm-.67-.11-.2.46h0Zm-.82-.26.41.29h0Zm1-.18.2-.46h0Zm.57,0L34,64.91h0Zm.2-.56.49.14h0Zm.08-2.36-.49.09h0Zm-.36-1.17.46-.2h0Zm-.62-.74-.09.5h0Zm-.58.68.5.06h0Zm0,1.31h0Zm.19,2.76.5,0h0Z" transform="translate(-5.93 -5.74)"/><path d="M41.44,64.69a30.3,30.3,0,0,1-.37-3.55,9.9,9.9,0,0,1,.06-1.72,2.14,2.14,0,0,1,.57-1.32A.79.79,0,0,1,42.87,58a4.32,4.32,0,0,1,.69,1.35,7.48,7.48,0,0,1,.21,3.26q-.06.48-.15,1c0,.17-.06.34-.1.51a.71.71,0,0,1-.12.37c-.08.09-.23.09-.34.1l-.52,0a9.2,9.2,0,0,1-1,0c-.29,0-.29.44,0,.45s.7,0,1,0a3.05,3.05,0,0,0,1-.11.76.76,0,0,0,.44-.57c.08-.33.13-.66.19-1a9.16,9.16,0,0,0,0-3.83,5.39,5.39,0,0,0-.7-1.59,1.39,1.39,0,0,0-.58-.57,1.13,1.13,0,0,0-.77,0c-1.21.35-1.38,1.77-1.42,2.83A26.18,26.18,0,0,0,41,64.81C41.05,65.1,41.49,65,41.44,64.69Z" transform="translate(-5.93 -5.74)"/><path d="M40.52,64.88a.68.68,0,0,0,.35.52.67.67,0,0,0,.53,0,.74.74,0,0,0,.54-.84l-1,.17a.29.29,0,0,1,0-.2.26.26,0,0,1,.13-.09.29.29,0,0,1,.21,0,.33.33,0,0,1,.17.23Zm-.4-4.67a26.79,26.79,0,0,0,.4,4.68l1-.15a26.57,26.57,0,0,1-.39-4.5Zm1.79-3.3a2.23,2.23,0,0,0-1.48,1.46,6,6,0,0,0-.31,1.84l1,0a5,5,0,0,1,.24-1.52,1.23,1.23,0,0,1,.82-.84ZM43,57a1.66,1.66,0,0,0-1.12,0l.31.95a.6.6,0,0,1,.42,0Zm.8.76A1.91,1.91,0,0,0,43,57l-.39.93c.11,0,.2.15.36.38Zm.77,1.74a5.65,5.65,0,0,0-.77-1.74l-.83.55a5.17,5.17,0,0,1,.63,1.44Zm0,4a9.83,9.83,0,0,0,0-4l-1,.25a8.65,8.65,0,0,1,0,3.62Zm-.2,1c.08-.35.14-.7.2-1l-1-.17c-.06.34-.11.65-.18,1Zm-.74.92a1.24,1.24,0,0,0,.74-.92l-1-.23a.49.49,0,0,1-.07.16.13.13,0,0,1-.07.06Zm-1.12.14a3.19,3.19,0,0,0,1.11-.14l-.35-.93a2.79,2.79,0,0,1-.79.07Zm-1.09,0c.36,0,.73,0,1.09,0l0-1c-.34,0-.68,0-1,0Zm.06-1.44a.67.67,0,0,0-.57.22.75.75,0,0,0-.18.49.71.71,0,0,0,.7.73l0-1a.28.28,0,0,1,.21.1.29.29,0,0,1,.06.16.3.3,0,0,1-.08.18.28.28,0,0,1-.24.1Zm1,0c-.33,0-.66,0-1,0l-.05,1a8,8,0,0,0,1.1,0Zm.49,0-.5,0,.06,1,.55,0Zm0,.06a.35.35,0,0,1,.09-.06l0,0H43l.09,1,.24,0a.79.79,0,0,0,.43-.23ZM43,64a.07.07,0,0,1,0,0v0s0,.05,0,.06h0a.5.5,0,0,1,0-.07l.71.71a1,1,0,0,0,.22-.42.78.78,0,0,0,0-.14.45.45,0,0,1,0-.08Zm.1-.51L43,64l1,.23c0-.19.08-.37.11-.54Zm.15-.94q-.06.47-.15.93l1,.19q.09-.5.15-1Zm-.19-3a7,7,0,0,1,.19,3l1,.13A7.93,7.93,0,0,0,44,59.23Zm-.61-1.19a3.94,3.94,0,0,1,.61,1.19l.95-.31a4.91,4.91,0,0,0-.77-1.51Zm-.43.12a.57.57,0,0,1,.31-.17h.08a.12.12,0,0,1,0,0l.79-.63a1.11,1.11,0,0,0-1-.41,1.63,1.63,0,0,0-.87.43Zm-.42,1a1.6,1.6,0,0,1,.42-1l-.69-.73a2.58,2.58,0,0,0-.72,1.62Zm-.06,1.64a9.88,9.88,0,0,1,.06-1.64l-1-.13a10,10,0,0,0-.07,1.8Zm.37,3.49a30,30,0,0,1-.37-3.49l-1,0A30.65,30.65,0,0,0,41,64.77Zm-.93.19.5-.06h0Zm-.39-4.59h0ZM42,57.39l.14.49h0Zm.77,0L43,57h0Zm.58.57-.41.28h0Zm.7,1.59.49-.12h0Zm0,3.83.5.09h0Zm-.19,1-.48-.11h0Zm-.44.57.18.47h0Zm-1,.11,0,.5h0Zm-1,0,0-.49h0Zm0-.45,0,.5h0Zm1,0,0,.5h0Zm.52,0,0-.49h0Zm.34-.1-.35-.35h0Zm.12-.37L43,64h0v0Zm.1-.51-.49-.09h0Zm.15-1-.49-.06h0Zm-.21-3.26-.47.16h0ZM41.7,58.1l-.34-.36h0Zm-.57,1.32.5.07h0Zm-.06,1.72h0Zm.37,3.55-.49.08h0Z" transform="translate(-5.93 -5.74)"/><path d="M47.24,64a12.4,12.4,0,0,1-.61-3.13,10.17,10.17,0,0,1,0-1.56c0-.26.07-.52.11-.78s0-.54.23-.63.39.06.51.15a3.33,3.33,0,0,1,.46.46,4.51,4.51,0,0,1,.69,1.18,7.92,7.92,0,0,1,.47,2.94c0,.29,0,.58,0,.87s0,.32,0,.47,0,.32-.06.38a1.05,1.05,0,0,1-.4.07l-.42,0a4.06,4.06,0,0,1-.92-.11c-.28-.07-.41.37-.12.44a4.55,4.55,0,0,0,1.8.07.57.57,0,0,0,.54-.43,5.86,5.86,0,0,0,0-.94A9.88,9.88,0,0,0,49.23,60a5.28,5.28,0,0,0-.69-1.41,2.56,2.56,0,0,0-1.14-1,.77.77,0,0,0-.66.06.94.94,0,0,0-.35.66,11.17,11.17,0,0,0-.22,1.82,12.16,12.16,0,0,0,.63,4.1C46.89,64.43,47.33,64.31,47.24,64Z" transform="translate(-5.93 -5.74)"/><path d="M46.33,64.31a.73.73,0,0,0,.9.47.78.78,0,0,0,.42-.31.7.7,0,0,0,.07-.6l-.95.31a.29.29,0,0,1,0-.25.22.22,0,0,1,.15-.11.18.18,0,0,1,.16,0,.3.3,0,0,1,.16.17ZM45.67,60a12.7,12.7,0,0,0,.66,4.26l1-.29a11.88,11.88,0,0,1-.61-3.94Zm.23-1.9a13.32,13.32,0,0,0-.23,1.9l1,0a11.48,11.48,0,0,1,.21-1.74Zm.57-1a1.44,1.44,0,0,0-.57,1l1,.19a1,1,0,0,1,.08-.25A.17.17,0,0,1,47,58ZM47.56,57a1.26,1.26,0,0,0-1.09.12L47,58a.28.28,0,0,1,.23,0ZM49,58.25A3.07,3.07,0,0,0,47.57,57l-.33,1a2.15,2.15,0,0,1,.9.83Zm.76,1.54A5.39,5.39,0,0,0,49,58.25l-.82.57a4.92,4.92,0,0,1,.63,1.28Zm.37,3.73a10.36,10.36,0,0,0-.37-3.73l-1,.31a9.4,9.4,0,0,1,.32,3.37Zm-.06,1a4.72,4.72,0,0,0,.06-1l-1,0a5.31,5.31,0,0,1,0,.86Zm-1,.83a1.34,1.34,0,0,0,.56-.21,1,1,0,0,0,.39-.61l-1-.21h0l0,0-.09,0Zm-2-.08a5,5,0,0,0,2,.08l-.17-1a4.11,4.11,0,0,1-1.6-.06Zm.36-1.41a.72.72,0,0,0-.88.52.7.7,0,0,0,0,.51.69.69,0,0,0,.48.38l.23-1a.29.29,0,0,1,.21.35.28.28,0,0,1-.1.14.32.32,0,0,1-.23,0Zm.79.1a3.73,3.73,0,0,1-.8-.1l-.23,1a4.4,4.4,0,0,0,1,.13Zm.39,0-.39,0v1c.17,0,.32,0,.46,0Zm.13,0,.08,0H48.6l.1,1h.22l.18,0a.63.63,0,0,0,.25-.11Zm-.13,0a.28.28,0,0,0,0,.09v.06s0,.06,0,.08h0a0,0,0,0,0,0,0,.37.37,0,0,1,.16-.2l.55.83a.64.64,0,0,0,.25-.34.72.72,0,0,0,0-.23.63.63,0,0,0,0-.14v0Zm0-.46c0,.09,0,.18,0,.26V64l1,.07a2.18,2.18,0,0,0,0-.25,1.7,1.7,0,0,0,0-.22Zm0-.83c0,.28,0,.56,0,.85l1,0c0-.29,0-.58,0-.88Zm-.43-2.76a7.37,7.37,0,0,1,.43,2.76h1a8.49,8.49,0,0,0-.5-3.13Zm-.61-1a4.06,4.06,0,0,1,.61,1l.93-.37a5,5,0,0,0-.77-1.31Zm-.38-.38a4.75,4.75,0,0,1,.39.39l.75-.65a3.31,3.31,0,0,0-.53-.53Zm0-.1a.28.28,0,0,1-.13,0h0l.06,0s0,0,.06,0l.6-.8a1.34,1.34,0,0,0-.35-.21.84.84,0,0,0-.68,0Zm0,.27s0-.06,0-.09v-.09a1.3,1.3,0,0,1,0-.13s0,0,0,0a.37.37,0,0,1-.11.1l-.43-.91a.73.73,0,0,0-.33.32,1.33,1.33,0,0,0-.12.3c0,.09,0,.18,0,.24a.88.88,0,0,1,0,.14Zm-.11.75c0-.25.07-.5.11-.76l-1-.15c0,.26-.08.53-.11.8Zm0,1.49a9.2,9.2,0,0,1,0-1.49l-1-.11a10,10,0,0,0-.06,1.63Zm.59,3a12.25,12.25,0,0,1-.59-3l-1,.05a13,13,0,0,0,.64,3.25Zm-.92.28-.47.14h0Zm-.63-4.1h0Zm.22-1.82-.49-.1Zm.35-.66-.27-.42h0Zm.66-.06.17-.48h0Zm1.14,1,.41-.29h0ZM49.23,60l-.47.15h0Zm.35,3.55-.5,0h0Zm0,.94.49.1h0Zm-.54.43-.07-.5h0Zm-1.8-.07-.11.48h0Zm.12-.44-.12.48h0Zm1.34.09,0,.49h0Zm.4-.07L48.78,64h0Zm.06-.38.5,0h0Zm0-.47.5,0v0Zm-.45-3.81.47-.19h0ZM48,58.54l.39-.32h0Zm-.46-.46.31-.4h0ZM47,57.93l.22.45h0Zm-.23.63-.49-.09h0Zm-.16,2.34h-.5ZM47.24,64l-.47.14h0Z" transform="translate(-5.93 -5.74)"/><path d="M52.94,64.63A13.71,13.71,0,0,1,52.52,61c0-1,.1-2.23,1.11-2.68S55.56,59.13,56,60a4.63,4.63,0,0,1,.47,1.63,5.8,5.8,0,0,1-.19,1.71c-.07.31-.13.63-.17.95a3.15,3.15,0,0,1-.05.43c0,.12-.19.08-.3.07l-2.13-.09c-.29,0-.29.44,0,.45l2.17.09a.61.61,0,0,0,.65-.28,1,1,0,0,0,.08-.37c0-.18,0-.35.07-.52a18.68,18.68,0,0,0,.34-2,4.6,4.6,0,0,0-.34-1.87c-.41-1.06-1.14-2.43-2.46-2.42a1.89,1.89,0,0,0-1.38.72,3.09,3.09,0,0,0-.6,1.63,12.51,12.51,0,0,0,0,2.29,12.82,12.82,0,0,0,.39,2.31C52.57,65,53,64.91,52.94,64.63Z" transform="translate(-5.93 -5.74)"/><path d="M52,64.85a.65.65,0,0,0,.37.48.71.71,0,0,0,.51,0,.73.73,0,0,0,.41-.29.72.72,0,0,0,.11-.59l-1,.25a.28.28,0,0,1,0-.24.23.23,0,0,1,.13-.1.37.37,0,0,1,.2,0,.32.32,0,0,1,.16.21Zm-.4-2.38a12.94,12.94,0,0,0,.4,2.4l1-.25a12.72,12.72,0,0,1-.38-2.22Zm0-2.38a11.82,11.82,0,0,0,0,2.38l1-.07a12.45,12.45,0,0,1,0-2.2Zm.71-1.89a3.54,3.54,0,0,0-.71,1.89l1,.11a2.65,2.65,0,0,1,.49-1.37Zm1.75-.9a2.36,2.36,0,0,0-1.75.9l.77.63a1.42,1.42,0,0,1,1-.54ZM57,60a6.38,6.38,0,0,0-1-1.75,2.51,2.51,0,0,0-2-1v1a1.47,1.47,0,0,1,1.18.63,5.12,5.12,0,0,1,.81,1.47Zm.37,2.08A5,5,0,0,0,57,60l-.93.37a4,4,0,0,1,.3,1.66Zm-.34,2c.05-.32.12-.62.19-1a7,7,0,0,0,.15-1.05l-1-.07a5.09,5.09,0,0,1-.13.92c-.06.31-.14.66-.2,1Zm-.07.49c0-.18,0-.34.07-.49l-1-.17c0,.19-.05.37-.07.55Zm-.13.54A1.45,1.45,0,0,0,57,64.6l-1-.07a.85.85,0,0,1,0,.18Zm-1.12.55a1.08,1.08,0,0,0,1.12-.55L56,64.71s0,0,0,0h-.19Zm-2.17-.09,2.17.09,0-1-2.17-.09Zm0-1.44a.68.68,0,0,0-.55.23.7.7,0,0,0-.18.48.72.72,0,0,0,.7.73l0-1a.25.25,0,0,1,.2.1.27.27,0,0,1,.07.16.29.29,0,0,1-.07.18.27.27,0,0,1-.23.1Zm2.14.09-1.07,0-1.06,0,0,1,1.07,0,1.06,0Zm-.2.27a.38.38,0,0,1,.17-.21.35.35,0,0,1,.15,0h-.1l-.09,1h.25a.67.67,0,0,0,.3-.09.65.65,0,0,0,.27-.34Zm0-.35c0,.1,0,.21,0,.26a.54.54,0,0,1,0,.11l1,.27a1.58,1.58,0,0,0,.06-.32.72.72,0,0,1,0-.17Zm.18-1a8.37,8.37,0,0,0-.18,1l1,.13a8.91,8.91,0,0,1,.16-.9Zm.18-1.55a5.5,5.5,0,0,1-.18,1.56l1,.21a6.11,6.11,0,0,0,.2-1.86Zm-.43-1.46a4.22,4.22,0,0,1,.43,1.45l1-.07a5.06,5.06,0,0,0-.51-1.81Zm-1.67-1.4a.66.66,0,0,1,.45,0,1,1,0,0,1,.45.27,4,4,0,0,1,.77,1.16l.91-.41a4.9,4.9,0,0,0-1-1.48,2.05,2.05,0,0,0-.87-.51,1.67,1.67,0,0,0-1.11.1ZM53,61a4.82,4.82,0,0,1,.16-1.39,1.23,1.23,0,0,1,.66-.84l-.41-.91a2.23,2.23,0,0,0-1.21,1.46A6,6,0,0,0,52,61Zm.41,3.48A13.1,13.1,0,0,1,53,61H52a14.33,14.33,0,0,0,.44,3.74Zm-.92.25.49-.11h0Zm-.39-2.31.5,0h0Zm0-2.29-.49-.06h0Zm.6-1.63-.38-.32h0Zm1.38-.72v-.5h0Zm2.46,2.42-.46.18h0Zm.34,1.87.5,0h0Zm-.34,2,.5.08h0Zm-.07.52L56,64.51h0Zm-.73.65,0,.49h0Zm-2.17-.09,0-.5h0Zm0-.45,0-.5h0Zm2.13.09,0-.5h0Zm.3-.07.48.15h0Zm.05-.43.5.07h0Zm.17-.95.49.11h0Zm.19-1.71-.49,0h0ZM56,60l-.45.2h0Zm-2.32-1.64-.2-.46h0ZM52.52,61h0Zm.42,3.61.49-.13h0Z" transform="translate(-5.93 -5.74)"/><path d="M62.86,65.54A9,9,0,0,1,62.47,63a9.31,9.31,0,0,1,.08-1.29c0-.21.07-.41.11-.62a1.25,1.25,0,0,1,.16-.47c.21-.28.58.2.7.37a3,3,0,0,1,.41,1,7.28,7.28,0,0,1,.15,2.59,1.16,1.16,0,0,1-.15.55.6.6,0,0,1-.44.19,1.25,1.25,0,0,0-.89.34c-.18.23.14.55.32.32s.63-.18.92-.27a1,1,0,0,0,.66-.88,7.62,7.62,0,0,0-.14-3,3.4,3.4,0,0,0-.49-1.14c-.21-.3-.58-.7-1-.65s-.56.43-.65.77a8.48,8.48,0,0,0-.22,1.5,9.34,9.34,0,0,0,.39,3.36C62.51,65.94,63,65.82,62.86,65.54Z" transform="translate(-5.93 -5.74)"/><path d="M61.94,65.81a.74.74,0,0,0,.9.48.73.73,0,0,0,.42-.31.67.67,0,0,0,.08-.6l-1,.31a.29.29,0,0,1,0-.25.24.24,0,0,1,.16-.12.24.24,0,0,1,.16,0,.27.27,0,0,1,.14.14Zm-.41-3.56a9.64,9.64,0,0,0,.41,3.54l1-.29a9,9,0,0,1-.37-3.18Zm.23-1.58a9.54,9.54,0,0,0-.24,1.59l1,.06a8.38,8.38,0,0,1,.21-1.42Zm1.07-1.15a1.19,1.19,0,0,0-.78.48,2,2,0,0,0-.29.66l1,.25a1,1,0,0,1,.14-.33c0-.06.07-.07.09-.07Zm1.45.86a2.66,2.66,0,0,0-.52-.57,1.3,1.3,0,0,0-.93-.29l.13,1a.34.34,0,0,1,.19.09,1.76,1.76,0,0,1,.31.35Zm.57,1.3a3.91,3.91,0,0,0-.57-1.3l-.81.57a2.9,2.9,0,0,1,.41,1ZM65,64.85a8.26,8.26,0,0,0-.15-3.17l-1,.25A7.18,7.18,0,0,1,64,64.7Zm-1,1.28a1.49,1.49,0,0,0,1-1.28l-1-.15c0,.3-.16.43-.32.48Zm-.68.1s0,0,.1,0l.24,0a1.63,1.63,0,0,0,.33-.07l-.29-.95-.15,0-.27,0a1.1,1.1,0,0,0-.75.39Zm-1.11-.93a.74.74,0,0,0,.07,1,.67.67,0,0,0,.48.21.67.67,0,0,0,.56-.27l-.79-.61a.3.3,0,0,1,.25-.12.31.31,0,0,1,.2.08.31.31,0,0,1,.07.14.25.25,0,0,1,0,.19Zm1.21-.53a3.75,3.75,0,0,0-.54.1,1.26,1.26,0,0,0-.67.43l.79.61s.06,0,.15-.08l.18,0h.11l.13,0Zm.11,0,0,0s0,0,0,0l0,0h-.09l.13,1a1,1,0,0,0,.78-.39Zm.06-.31a1.07,1.07,0,0,1,0,.23c0,.07,0,.08,0,.08l.81.59a1.21,1.21,0,0,0,.19-.45,3.11,3.11,0,0,0,0-.34Zm-.14-2.41a6.94,6.94,0,0,1,.14,2.41l1,.11a7.62,7.62,0,0,0-.16-2.77Zm-.34-.84a2.46,2.46,0,0,1,.34.83l1-.23a3.48,3.48,0,0,0-.48-1.15Zm.11-.34a.27.27,0,0,1-.11.08.36.36,0,0,1-.17,0l-.06,0h0l.11.12.11.13.81-.57a2.17,2.17,0,0,0-.41-.46,1,1,0,0,0-.45-.21.7.7,0,0,0-.65.29Zm-.06.26a.66.66,0,0,1,.08-.28l-.83-.57a1.72,1.72,0,0,0-.24.66Zm-.11.6c0-.2.06-.38.11-.6l-1-.19c0,.21-.08.42-.11.64ZM63,63a8.29,8.29,0,0,1,.08-1.23l-1-.13A9,9,0,0,0,62,63Zm.37,2.43A8.78,8.78,0,0,1,63,63H62a9.58,9.58,0,0,0,.41,2.72Zm-.93.26-.47.14h0ZM62,62.29l.5,0h0Zm.22-1.5-.48-.13h0Zm.65-.77-.06-.5h0Zm1,.65-.41.28h0Zm.63,4.11L64,64.7h0Zm-.66.88.15.47h0Zm-.92.27.4.3h0Zm-.32-.32-.39-.31h0Zm.89-.34-.06-.5h0Zm.44-.19-.4-.3h0Zm.15-.55-.49-.06h0Zm-.15-2.59-.48.11h0Zm-.41-1,.42-.28h0Zm-.7-.37-.4-.3h0Zm-.16.47.5.09h0Zm-.11.62-.49-.08h0Zm.31,3.87-.48.14h0Z" transform="translate(-5.93 -5.74)"/><path d="M66.58,65.85a5,5,0,0,0-.07-1.73,2.86,2.86,0,0,1,0-1.64c.09-.18.26-.36.46-.22a1,1,0,0,1,.34.59,5.37,5.37,0,0,1,.18,1.87,4.37,4.37,0,0,1-.19,1c-.1.28-.44.18-.66.12a.23.23,0,0,0-.12.44,1.27,1.27,0,0,0,.86,0c.33-.16.4-.54.47-.87a5.74,5.74,0,0,0,0-2.37c-.11-.52-.36-1.36-1-1.31s-.86,1-.86,1.51a12,12,0,0,1,.18,2.47C66.08,66,66.52,66.14,66.58,65.85Z" transform="translate(-5.93 -5.74)"/><path d="M65.67,65.61a.76.76,0,0,0,.1.59.79.79,0,0,0,.42.29.69.69,0,0,0,.52-.06.68.68,0,0,0,.36-.48l-1-.21a.32.32,0,0,1,.16-.19.25.25,0,0,1,.2,0,.25.25,0,0,1,.14.1.31.31,0,0,1,0,.24Zm-.2-2.34a11.26,11.26,0,0,0,.16,1.3,2.79,2.79,0,0,1,0,1.07l1,.19a4.12,4.12,0,0,0,0-1.41,9.48,9.48,0,0,1-.15-1.16Zm1.33-2a1.32,1.32,0,0,0-1.12.86,3.16,3.16,0,0,0-.21,1.15h1a2.13,2.13,0,0,1,.13-.76c.09-.2.18-.25.27-.26ZM68.37,63a3.1,3.1,0,0,0-.37-1,1.25,1.25,0,0,0-1.2-.68l.07,1c.09,0,.17,0,.28.21a2.48,2.48,0,0,1,.25.71Zm0,2.58a6.07,6.07,0,0,0,0-2.58l-1,.21a5.24,5.24,0,0,1,0,2.16Zm-.74,1.22a1.2,1.2,0,0,0,.58-.63,2.94,2.94,0,0,0,.16-.59l-1-.21a2.85,2.85,0,0,1-.11.41.35.35,0,0,1-.09.12Zm-1.21,0a1.77,1.77,0,0,0,1.2,0l-.41-.91a.82.82,0,0,1-.52,0Zm.39-1.41a.71.71,0,0,0-.59.09.75.75,0,0,0-.26.93.72.72,0,0,0,.46.39l.27-1a.31.31,0,0,1,.18.16.3.3,0,0,1,0,.18.23.23,0,0,1-.11.14.28.28,0,0,1-.24,0Zm.05.2,0-.06s0-.05.07-.06a.17.17,0,0,1,.07,0H67l-.15,0-.27,1a1.88,1.88,0,0,0,.52.08.79.79,0,0,0,.75-.52Zm.17-.9a3.89,3.89,0,0,1-.17.9l.95.33A4.83,4.83,0,0,0,68,64.76ZM66.87,63a4.85,4.85,0,0,1,.17,1.7l1,.07a5.88,5.88,0,0,0-.19-2Zm-.14-.31a.21.21,0,0,1,.06.08,1,1,0,0,1,.08.23l1-.27a1.52,1.52,0,0,0-.53-.87Zm.27,0s0,0,0,0h0a.29.29,0,0,1-.14,0,.21.21,0,0,1-.14-.05l.57-.81a.71.71,0,0,0-.43-.14.82.82,0,0,0-.4.11,1.07,1.07,0,0,0-.36.43ZM67,64c0-.28-.09-.53-.1-.77A1.28,1.28,0,0,1,67,62.7l-.89-.44a2.08,2.08,0,0,0-.2,1c0,.32.07.65.11.89Zm.07,1.9A5.64,5.64,0,0,0,67,64l-1,.15a4.67,4.67,0,0,1,.07,1.56Zm-.93-.2.49.12v0h0ZM66,63.27h0Zm.86-1.51,0,.49h0Zm1,1.31-.48.1h0Zm0,2.37.49.1h0Zm-.47.87.21.45h0Zm-.74-.45-.13.48h0Zm.66-.12.48.16h0Zm.19-1,.5,0h0Zm-.18-1.87.49-.14h0ZM67,62.26l-.28.4h0Zm-.46.22-.44-.23h0Zm0,1.64-.49.07h0Zm.07,1.73.49.1h0Z" transform="translate(-5.93 -5.74)"/><path d="M43.39,76.29A8.12,8.12,0,0,1,43,73.35a9.23,9.23,0,0,1,.34-2.77,1.61,1.61,0,0,1,.73-1c.4-.16.87.23,1.12.51a4.13,4.13,0,0,1,.8,2.56c.08,1.19.14,2.38.21,3.56,0,.29.47.29.45,0-.07-1.18-.13-2.35-.21-3.53a4.73,4.73,0,0,0-.9-2.87,2,2,0,0,0-1.18-.71,1.24,1.24,0,0,0-1.15.71,6.1,6.1,0,0,0-.65,2.92A9.22,9.22,0,0,0,43,76.41C43.05,76.68,43.49,76.56,43.39,76.29Z" transform="translate(-5.93 -5.74)"/><path d="M42.49,76.58a.74.74,0,0,0,1.31.14.66.66,0,0,0,.06-.61l-.93.35a.3.3,0,0,1,0-.27.27.27,0,0,1,.16-.12.16.16,0,0,1,.15,0,.25.25,0,0,1,.15.15Zm-.44-3.89a9.65,9.65,0,0,0,.43,3.89l.94-.35A8.78,8.78,0,0,1,43,72.74Zm.72-3.16a6.46,6.46,0,0,0-.72,3.15l1,.07a5.74,5.74,0,0,1,.58-2.69Zm1.63-.94a1.72,1.72,0,0,0-1.63.94l.85.53c.22-.36.45-.5.67-.48Zm1.5.88a2.45,2.45,0,0,0-1.49-.88l-.13,1a1.48,1.48,0,0,1,.86.54Zm1,3.16a5.19,5.19,0,0,0-1-3.16l-.75.65a4.27,4.27,0,0,1,.78,2.58Zm.21,3.54c-.07-1.18-.13-2.36-.21-3.54l-1,.07c.08,1.18.13,2.34.21,3.52Zm-1.44.06a.72.72,0,0,0,.73.68.75.75,0,0,0,.49-.18.69.69,0,0,0,.22-.57l-1,.07a.28.28,0,0,1,.1-.24.3.3,0,0,1,.18-.08.27.27,0,0,1,.16.06.26.26,0,0,1,.1.19Zm-.21-3.56c.08,1.19.13,2.37.21,3.55l1,0c-.07-1.18-.13-2.38-.21-3.57Zm-.68-2.26a3.75,3.75,0,0,1,.68,2.26l1-.07a4.64,4.64,0,0,0-.92-2.86ZM44.24,70h0a.48.48,0,0,1,.14.06,1.47,1.47,0,0,1,.38.32l.75-.67a2.86,2.86,0,0,0-.63-.52,1.23,1.23,0,0,0-1.05-.12Zm-.44.7a2,2,0,0,1,.21-.47.58.58,0,0,1,.23-.23l-.37-.93a1.53,1.53,0,0,0-.7.62,3.51,3.51,0,0,0-.32.7Zm-.32,2.63a8.76,8.76,0,0,1,.32-2.62l-.95-.33a9.72,9.72,0,0,0-.37,2.92Zm.38,2.76a7.69,7.69,0,0,1-.38-2.76l-1,0a8.83,8.83,0,0,0,.44,3.12Zm-.91.29-.47.17h0Zm-.41-3.69-.49,0h0Zm.65-2.92.43.26h0Zm1.15-.71.07-.5h0Zm1.18.71-.38.32h0Zm.9,2.87.5,0h0Zm.21,3.53-.49,0h0Zm-.45,0-.49,0h0ZM46,72.64l-.49,0h0Zm-.8-2.56-.37.33h0Zm-1.12-.51.19.46h0Zm-.73,1,.48.16h0ZM43,73.35l-.5,0H43Zm.41,2.94-.47.17h0Z" transform="translate(-5.93 -5.74)"/><path d="M51.56,76.26l.27-3.13c.05-.52.09-1,.14-1.57a5.24,5.24,0,0,1,.18-1.25.69.69,0,0,1,.77-.49,1.24,1.24,0,0,1,.86.67,5.6,5.6,0,0,1,.4,1.26c.12.48.26,1,.39,1.42a6.24,6.24,0,0,1,.27,3.2c-.07.28.37.4.44.12a6.44,6.44,0,0,0-.19-3.17c-.14-.54-.31-1.08-.45-1.62a6.78,6.78,0,0,0-.43-1.39c-.37-.72-1.35-1.32-2.09-.72a1.68,1.68,0,0,0-.52,1.12c-.07.53-.1,1.06-.15,1.6-.12,1.32-.23,2.64-.35,4C51.08,76.55,51.54,76.55,51.56,76.26Z" transform="translate(-5.93 -5.74)"/><path d="M50.61,76.24a.65.65,0,0,0,.23.57.68.68,0,0,0,.48.17.72.72,0,0,0,.74-.68l-1-.07a.26.26,0,0,1,.1-.19.24.24,0,0,1,.14-.06.27.27,0,0,1,.18.07.32.32,0,0,1,.11.26Zm.35-4-.18,2c-.06.66-.11,1.32-.17,2l1,.09.18-2c0-.66.11-1.32.17-2Zm.15-1.62c-.07.54-.11,1.1-.15,1.62l1,.09c0-.56.08-1.06.15-1.58Zm.7-1.45a2.18,2.18,0,0,0-.7,1.44l1,.15a1.2,1.2,0,0,1,.34-.8Zm2.85.89A2.43,2.43,0,0,0,53.51,69a1.6,1.6,0,0,0-1.7.21l.63.77a.62.62,0,0,1,.67-.06,1.47,1.47,0,0,1,.66.62Zm.47,1.49a7.24,7.24,0,0,0-.47-1.49l-.89.45a6.36,6.36,0,0,1,.39,1.29Zm.45,1.62c-.07-.28-.15-.55-.23-.82s-.15-.54-.22-.8l-1,.25c.07.28.15.55.23.82s.15.54.22.8Zm.19,3.41a7,7,0,0,0-.19-3.41l-1,.25a5.91,5.91,0,0,1,.19,2.93Zm-1.41-.36a.76.76,0,0,0,.1.59.79.79,0,0,0,.42.29.76.76,0,0,0,.51,0,.7.7,0,0,0,.38-.47l-1-.25a.29.29,0,0,1,.16-.19.31.31,0,0,1,.18,0,.25.25,0,0,1,.14.1.31.31,0,0,1,0,.24Zm-.27-2.94a5.81,5.81,0,0,1,.27,2.94l1,.25A6.78,6.78,0,0,0,55.06,73Zm-.39-1.43c.12.48.27,1,.39,1.43l1-.27c-.14-.48-.27-.93-.39-1.41Zm-.36-1.15a4.73,4.73,0,0,1,.36,1.15l1-.25a6.05,6.05,0,0,0-.45-1.37Zm-.49-.41a.79.79,0,0,1,.5.41l.87-.47A1.72,1.72,0,0,0,53,69.33Zm-.23.17a.33.33,0,0,1,.11-.15s.05,0,.11,0l.17-1a1.18,1.18,0,0,0-1.32.81Zm-.15,1.12a5.34,5.34,0,0,1,.15-1.13l-.94-.33a5.73,5.73,0,0,0-.2,1.37Zm-.14,1.57c.05-.49.1-1.07.14-1.57l-1-.09c-.06.56-.09,1-.14,1.57Zm-.27,3.13c0-.52.09-1,.14-1.57s.09-1,.13-1.56l-1-.09c-.05.52-.09,1-.14,1.57s-.09,1-.13,1.56Zm-1,0-.49,0h0Zm.35-4-.49,0h0Zm.15-1.6-.49-.07h0Zm.52-1.12.32.4h0Zm2.09.72.45-.22h0Zm.43,1.39-.48.13h0Zm.45,1.62-.48.13h0Zm.19,3.17.49.13h0Zm-.44-.12-.48-.12h0Zm-.27-3.2-.48.14h0Zm-.39-1.42.49-.12h0Zm-.4-1.26.44-.23h0Zm-.86-.67-.08.5h0Zm-.77.49-.46-.17h0ZM52,71.56l-.49,0h0Zm-.14,1.57-.49,0h0Zm-.27,3.13-.49,0h0Z" transform="translate(-5.93 -5.74)"/><path d="M27.54,54a31.55,31.55,0,0,1-1-9,29.05,29.05,0,0,1,1.65-8.85,26.61,26.61,0,0,1,3.76-7,25.88,25.88,0,0,1,5.5-5.41,23.78,23.78,0,0,1,3.32-2A16.44,16.44,0,0,1,45,20.32c.38-.07.76-.12,1.15-.16s.29-.48,0-.45A14.61,14.61,0,0,0,41.55,21,23.47,23.47,0,0,0,38,22.86a25.83,25.83,0,0,0-5.84,5.3,26.84,26.84,0,0,0-4,6.8,28.86,28.86,0,0,0-2,8.93,31.72,31.72,0,0,0,.72,9.16c.08.37.18.74.27,1.11A.22.22,0,1,0,27.54,54Z" transform="translate(-5.93 -5.74)"/><path d="M26.63,54.27a.69.69,0,0,0,.89.52A.72.72,0,0,0,28,53.9l-1,.27a.33.33,0,0,1,0-.23.27.27,0,0,1,.35-.09.37.37,0,0,1,.15.19Zm-.27-1.12c.08.38.18.77.27,1.12l1-.23c-.09-.39-.19-.74-.27-1.1Zm-.73-9.3a32,32,0,0,0,.73,9.31l1-.23a31.39,31.39,0,0,1-.71-9Zm2.07-9.08a29.25,29.25,0,0,0-2.07,9.08l1,.07a28.48,28.48,0,0,1,2-8.78Zm4.11-6.93a27.11,27.11,0,0,0-4.11,6.93l.93.37a26.27,26.27,0,0,1,3.95-6.67Zm5.95-5.4a26.36,26.36,0,0,0-5.95,5.4l.77.63a25.31,25.31,0,0,1,5.73-5.2Zm3.6-2a23.15,23.15,0,0,0-3.6,2l.55.83a23.84,23.84,0,0,1,3.44-1.87Zm4.74-1.28a14.74,14.74,0,0,0-4.74,1.28l.39.91a14.51,14.51,0,0,1,4.43-1.2Zm.08,1.44a.74.74,0,0,0,.49-1.23.69.69,0,0,0-.58-.21l.11,1a.32.32,0,0,1-.26-.1.27.27,0,0,1-.08-.19.21.21,0,0,1,.06-.15.26.26,0,0,1,.19-.1Zm-1.1.16c.37-.07.73-.12,1.12-.16l-.11-1c-.4,0-.79.09-1.19.16ZM41,22.27a15.47,15.47,0,0,1,4.12-1.46l-.19-1a17.3,17.3,0,0,0-4.38,1.56Zm-3.26,2a25,25,0,0,1,3.25-2l-.44-.89a23.81,23.81,0,0,0-3.39,2Zm-5.39,5.31a25.18,25.18,0,0,1,5.4-5.31l-.59-.81a26.65,26.65,0,0,0-5.61,5.51Zm-3.68,6.84a26.2,26.2,0,0,1,3.68-6.85l-.8-.59a27.28,27.28,0,0,0-3.83,7.11ZM27,45.08a28.38,28.38,0,0,1,1.63-8.7l-.95-.33a30,30,0,0,0-1.68,9Zm1,8.83a31.33,31.33,0,0,1-1-8.83l-1,0a32.13,32.13,0,0,0,1,9.11Zm-.92.25L27.6,54h0Zm-.27-1.11.49-.11h0ZM28.16,35l.47.18h0Zm4-6.8.39.31h0ZM38,22.86l-.27-.42h0ZM41.55,21l.2.45h0Zm4.59-1.24,0,.49h0Zm0,.45,0-.5h0ZM45,20.32l-.09-.5h0Zm-4.25,1.51.22.44h0Zm-3.32,2-.29-.41h0Zm-5.5,5.41-.4-.31h0Zm-3.76,7-.47-.17h0Zm-1.65,8.85-.5,0h0Zm1,9-.48.12h0Z" transform="translate(-5.93 -5.74)"/><path d="M46.64,19.5a19.78,19.78,0,0,1,0-2.18c0-.37,0-.74.07-1.11a2.15,2.15,0,0,1,.15-.71.49.49,0,0,1,.51-.35,1,1,0,0,1,.63.59,8.33,8.33,0,0,1,.64,1.94,11,11,0,0,1,.17,1.13A3.61,3.61,0,0,0,49,19.88a.23.23,0,0,0,.31.08.23.23,0,0,0,.08-.31,3.75,3.75,0,0,1-.2-1.1A8.6,8.6,0,0,0,49,17.42a8.81,8.81,0,0,0-.34-1.14,4.81,4.81,0,0,0-.44-1,1,1,0,0,0-1.57-.36,2.68,2.68,0,0,0-.49,1.75,20.13,20.13,0,0,0,0,2.8C46.21,19.79,46.66,19.79,46.64,19.5Z" transform="translate(-5.93 -5.74)"/><path d="M45.68,19.56a.75.75,0,0,0,.75.66.76.76,0,0,0,.49-.18.69.69,0,0,0,.22-.57l-1,.07a.28.28,0,0,1,.1-.24.25.25,0,0,1,.19-.08.3.3,0,0,1,.14.05.26.26,0,0,1,.09.16Zm0-2.9a18.33,18.33,0,0,0,0,2.87l1-.07a20.72,20.72,0,0,1,0-2.73Zm.63-2.07a2,2,0,0,0-.53,1.08,6.49,6.49,0,0,0-.1,1l1,.07a7.33,7.33,0,0,1,.09-.86A1.12,1.12,0,0,1,47,15.3Zm2.34.44a1.91,1.91,0,0,0-1-.77,1.33,1.33,0,0,0-1.35.33l.7.71a.34.34,0,0,1,.36-.08.9.9,0,0,1,.45.36Zm.49,1.08A5.06,5.06,0,0,0,48.65,15l-.83.55a4.07,4.07,0,0,1,.38.88Zm.36,1.2a8.68,8.68,0,0,0-.36-1.2l-.93.35a9,9,0,0,1,.32,1.08Zm.2,1.19a8.21,8.21,0,0,0-.2-1.19l-1,.23a9.18,9.18,0,0,1,.18,1.07Zm.16,1a3.59,3.59,0,0,1-.16-1l-1,.11a4.27,4.27,0,0,0,.23,1.24Zm-.28.94a.73.73,0,0,0,.34-.47.83.83,0,0,0-.06-.48l-.91.41a.19.19,0,0,1,0-.14.34.34,0,0,1,.05-.11s.06-.06.08-.08Zm-1-.31a.7.7,0,0,0,.48.39.76.76,0,0,0,.54-.09l-.51-.85a.24.24,0,0,1,.19,0,.31.31,0,0,1,.21.18Zm-.28-1.22a4.09,4.09,0,0,0,.27,1.21l.92-.39a3.46,3.46,0,0,1-.2-.93Zm-.16-1.08c.07.36.12.71.16,1.08l1-.11a9.92,9.92,0,0,0-.18-1.18ZM47.52,16a8.27,8.27,0,0,1,.6,1.82l1-.21a8.44,8.44,0,0,0-.68-2.06Zm-.27-.32s0,0,.1.07a1,1,0,0,1,.17.26l.89-.47a2.3,2.3,0,0,0-.33-.48,1.18,1.18,0,0,0-.67-.37Zm0,0,0,0,0,0,0,0h0l.15-1a1,1,0,0,0-1,.65Zm-.11.56a1.77,1.77,0,0,1,.11-.55l-.91-.41a2.54,2.54,0,0,0-.19.87Zm-.07,1.08c0-.36,0-.71.07-1.08l-1-.09c0,.37-.07.76-.08,1.14Zm0,2.13a18.8,18.8,0,0,1,0-2.12l-1-.05a18.48,18.48,0,0,0,0,2.24Zm-1,0-.49,0h0v0Zm0-2.8.5,0h0Zm.49-1.75.35.36h0Zm1.57.36-.41.28h0Zm.44,1-.47.18h0ZM49,17.42l-.48.12h0Zm.19,1.13-.49.06h0Zm.2,1.1-.46.2h0Zm-.08.31-.25-.43h0ZM49,19.88l-.46.2h0Zm-.24-1.07-.49.06h0Zm-.17-1.13.49-.1h0ZM48,15.74l.45-.22h0Zm-.63-.59.08-.49h0Zm-.51.35.46.21h0Zm-.15.71-.49,0h0Zm-.07,1.11.5,0h0Zm0,2.18.5,0h0Z" transform="translate(-5.93 -5.74)"/><path d="M48.86,20.23a20.69,20.69,0,0,1,8,3.63,58,58,0,0,1,7,5.43,24.78,24.78,0,0,1,5.31,6.86,21.17,21.17,0,0,1,2.33,8.27,19.63,19.63,0,0,1-1.42,8.77c-.14.34-.3.68-.46,1s.26.49.39.23a19.88,19.88,0,0,0,2-8.84A21.29,21.29,0,0,0,70.09,37a24.24,24.24,0,0,0-5-7.22A51.42,51.42,0,0,0,58,24.13,25.22,25.22,0,0,0,50.06,20c-.36-.09-.73-.17-1.09-.23S48.58,20.18,48.86,20.23Z" transform="translate(-5.93 -5.74)"/><path d="M49.07,19.3a.73.73,0,0,0-.84.54.74.74,0,0,0,.05.52.7.7,0,0,0,.5.36l.17-1a.35.35,0,0,1,.22.17.32.32,0,0,1,0,.2.34.34,0,0,1-.09.13.32.32,0,0,1-.23.06Zm1.12.24c-.37-.09-.76-.18-1.13-.24l-.17,1c.35.06.7.13,1,.22Zm8.08,4.17a25.85,25.85,0,0,0-8.08-4.17l-.25,1a24.69,24.69,0,0,1,7.76,4Zm7.13,5.73a52.56,52.56,0,0,0-7.13-5.72l-.57.82a50.67,50.67,0,0,1,7,5.61Zm5.15,7.37a24.79,24.79,0,0,0-5.15-7.37l-.71.71a23.69,23.69,0,0,1,5,7.07Zm2,8.77a21.73,21.73,0,0,0-2-8.77l-.91.41a20.84,20.84,0,0,1,1.86,8.37Zm-2,9.06a20.29,20.29,0,0,0,2-9.06h-1a19.34,19.34,0,0,1-1.94,8.62ZM69.18,54a.74.74,0,0,0,.29,1,.69.69,0,0,0,1-.29l-.89-.45a.29.29,0,0,1,.21-.15.3.3,0,0,1,.2,0,.34.34,0,0,1,.1.13.28.28,0,0,1,0,.22Zm.44-1c-.13.33-.29.66-.45,1l.9.43c.17-.33.33-.68.48-1ZM71,44.45A19.15,19.15,0,0,1,69.62,53l.93.39a20.11,20.11,0,0,0,1.45-9Zm-2.28-8.08A20.82,20.82,0,0,1,71,44.45l1-.07a21.53,21.53,0,0,0-2.38-8.46Zm-5.21-6.72a24.25,24.25,0,0,1,5.21,6.72l.89-.45a25.17,25.17,0,0,0-5.42-7Zm-7-5.38a57.64,57.64,0,0,1,7,5.38l.68-.73a57.75,57.75,0,0,0-7.11-5.48Zm-7.75-3.55a20.14,20.14,0,0,1,7.75,3.55l.56-.83A21.13,21.13,0,0,0,49,19.73ZM49,19.8l-.09.49h0Zm1.09.23.13-.49h0ZM58,24.13l.29-.41h0ZM70.09,37l-.45.2h0ZM72,45.59h0Zm-2,8.84.45.22h0Zm-.39-.23.45.22h0Zm.46-1-.46-.2h0Zm1.42-8.77.5,0h0Zm-2.33-8.27-.44.22h0Zm-5.31-6.86-.34.36h0Zm-7-5.43-.28.41h0Zm-8-3.63-.08.49h0Z" transform="translate(-5.93 -5.74)"/><path d="M47.32,20.13a3.77,3.77,0,0,0-1.16.09.23.23,0,0,0-.16.28.24.24,0,0,0,.28.16l.27-.05h.22a4.86,4.86,0,0,1,.54,0,.23.23,0,0,0,.23-.23A.22.22,0,0,0,47.32,20.13Z" transform="translate(-5.93 -5.74)"/><path d="M48,20.36a.72.72,0,0,0-.2-.52.74.74,0,0,0-.48-.21l-.07,1a.21.21,0,0,1-.16-.08.25.25,0,0,1-.09-.18Zm-.77.72a.7.7,0,0,0,.56-.21.76.76,0,0,0,.21-.51H47a.26.26,0,0,1,.08-.19.27.27,0,0,1,.24-.08Zm-.47,0h.49l.05-1a2.91,2.91,0,0,0-.59,0Zm0,0h0v-1a.86.86,0,0,0-.25,0Zm-.25-1h-.07l-.05,0-.07,0a.41.41,0,0,0-.15.14.49.49,0,0,0-.08.25.48.48,0,0,0,.09.32.51.51,0,0,0,.24.18.36.36,0,0,0,.14,0h.11s0,0,0,0v-1h0a.37.37,0,0,1,.13,0,.49.49,0,0,1,.25.18.61.61,0,0,1,.09.32.49.49,0,0,1-.09.25.41.41,0,0,1-.15.14l-.06,0,0,0h0Zm0,1,.11,0h0v-1h-.06Zm-.16,0,.22,0-.11-1a2,2,0,0,0-.32.06Zm-.86-.49a.74.74,0,0,0,.88.49l-.25-1a.27.27,0,0,1,.32.17Zm.51-.92a.7.7,0,0,0-.45.35.69.69,0,0,0-.06.59l.94-.35a.33.33,0,0,1,0,.25.26.26,0,0,1-.17.13Zm1.32-.1a4.13,4.13,0,0,0-1.31.1l.23,1a3.42,3.42,0,0,1,1-.08Zm.18.73h0Zm-.23.23,0-.5h0Zm-.54,0v.5h0Zm-.13,0v.5h.07l.06,0Zm0,0,.1.49-.1-1Zm-.06,0v-.5h0Zm-.27.05-.1-.49h0ZM46,20.5l.48-.16v0Zm.16-.28-.11-.49h0Z" transform="translate(-5.93 -5.74)"/><path d="M15.87,23.61c5-5.21,10.16-10.11,16.85-13C45.9,4.78,61.25,6.73,73.11,14.75a44.92,44.92,0,0,1,17.8,24.53,36.11,36.11,0,0,1-4,29.42A52.88,52.88,0,0,1,67.69,87.45c-4.77,2.7-10.18,5-15.71,5.33a39,39,0,0,1-17.6-3.48A47.18,47.18,0,0,1,14.91,73.88C6.21,61.83,5.28,47,11,33.47c.83-1.94,1.72-3.86,2.64-5.76.79-1.65,1.48-3.72,2.94-4.91" transform="translate(-5.93 -5.74)"/><path class="cls-1" d="M16.93,24.68c5.91-6.19,12.29-11.78,20.63-14.3a40.37,40.37,0,0,1,24.15.43c15.38,5,27.7,19.49,29.07,35.81C92.23,63.85,80,79.28,65.37,87a33.46,33.46,0,0,1-12.94,4.23A35.27,35.27,0,0,1,38.8,89.38a46.43,46.43,0,0,1-20.56-13.7A38.25,38.25,0,0,1,9,53.23,40.65,40.65,0,0,1,10.1,41,67.76,67.76,0,0,1,15,28.47c.76-1.61,1.34-3.4,2.71-4.61s-.68-3.39-2.12-2.12S13.3,25,12.45,26.8c-1.09,2.34-2.22,4.66-3.18,7.06A46.07,46.07,0,0,0,6.13,46.61,41.08,41.08,0,0,0,11.88,72,47.49,47.49,0,0,0,31.26,89.48c8.68,4.32,18.79,6.41,28.21,3.34A53.12,53.12,0,0,0,82,77.88c6.07-6.75,10.6-15,11.7-24.08C95.8,36.17,84.6,18.48,69.11,10.63A44.74,44.74,0,0,0,43.32,6.1,40.79,40.79,0,0,0,30.79,9.82a46.78,46.78,0,0,0-11.21,8c-1.65,1.53-3.23,3.13-4.78,4.76C13.48,24,15.6,26.07,16.93,24.68Z" transform="translate(-5.93 -5.74)"/><path d="M69,54.77a17.61,17.61,0,0,0,1.55-10.36,20,20,0,0,0-4.29-9.59,37.29,37.29,0,0,0-7.71-6.73c-2.53-1.78-5.21-3.51-8.26-4l.26-.21a3.63,3.63,0,0,1-.21-1.09,8.49,8.49,0,0,0-.64-2.42,1.82,1.82,0,0,0-.37-.61.71.71,0,0,0-.66-.21c-.41.11-.55.62-.59,1a17.15,17.15,0,0,0,0,3l-.25.39a13,13,0,0,0-4.21,1.17A23.12,23.12,0,0,0,31.87,37.49a27.14,27.14,0,0,0-.94,17.08" transform="translate(-5.93 -5.74)"/><path class="cls-1" d="M69.51,55.07A18.11,18.11,0,0,0,71.34,47,19.66,19.66,0,0,0,69.6,39.1,21.88,21.88,0,0,0,65,32.56a46.36,46.36,0,0,0-6.43-5.17,22.74,22.74,0,0,0-7.2-3.72c-.32-.08-.65-.15-1-.21l.27,1,.26-.21a.59.59,0,0,0,.16-.59,2.84,2.84,0,0,1-.19-.89,8.75,8.75,0,0,0-.19-1.14,8.07,8.07,0,0,0-.29-1,5.33,5.33,0,0,0-.44-1,1.34,1.34,0,0,0-2-.44A2.62,2.62,0,0,0,47.4,21a18.37,18.37,0,0,0,0,2.57c0-.1.06-.21.08-.31-.08.13-.16.26-.25.39l.53-.3a13.59,13.59,0,0,0-4.28,1.15,20.94,20.94,0,0,0-3.16,1.71A23.7,23.7,0,0,0,35,31.05a25.15,25.15,0,0,0-3.72,6.27,26.09,26.09,0,0,0-1.84,8.08,28.73,28.73,0,0,0,.65,8.32l.24,1a.61.61,0,0,0,1.18-.32,27.46,27.46,0,0,1-.77-10c.09-.8.21-1.59.38-2.42a24.54,24.54,0,0,1,.63-2.42,22.2,22.2,0,0,1,1.79-4.2c.35-.64.73-1.27,1.14-1.87.2-.3.42-.6.63-.9l.15-.19a.86.86,0,0,0,.07-.1l0,0,.36-.45a23.44,23.44,0,0,1,3-3.09l.4-.33.21-.17c.08-.06-.06.05,0,0l.15-.11.86-.62a19.76,19.76,0,0,1,1.87-1.13A15,15,0,0,1,47,24.67a4.81,4.81,0,0,1,.53-.07,1.16,1.16,0,0,0,.49-.1.82.82,0,0,0,.24-.25,1.32,1.32,0,0,0,.31-.75c0-.47-.05-.93,0-1.4s0-.91.07-1.36c0-.06,0-.13,0-.19s0-.11,0,0a1.55,1.55,0,0,1,0-.21l0-.1s.06-.16,0-.07,0-.06,0-.06,0,0,0,0h0s-.1,0,0,0,0,0,0,0c-.12-.05,0,0,0,0s0,0,0,0l0,0c.07.07,0-.05,0,0a1,1,0,0,1,.1.17,5.61,5.61,0,0,1,.42,1.13,6,6,0,0,1,.15.61c0,.19.08.42.1.57A5,5,0,0,0,49.92,24c0-.2.1-.4.16-.59l-.26.21a.61.61,0,0,0,.27,1,13.47,13.47,0,0,1,3.63,1.2,28.56,28.56,0,0,1,3.41,2,51.18,51.18,0,0,1,6.24,4.8,21.59,21.59,0,0,1,4.69,6.06,18.58,18.58,0,0,1,2,7.21,17,17,0,0,1-1.26,7.71l0,.11-.1.22c-.07.16-.15.32-.22.47a.62.62,0,0,0,.22.83A.64.64,0,0,0,69.51,55.07Z" transform="translate(-5.93 -5.74)"/><path d="M29.63,55.38A25.84,25.84,0,0,1,39.26,52c3.38-.57,6.82-.72,10.24-1a56.1,56.1,0,0,1,10-.29,23.16,23.16,0,0,1,6.3,1.55,6.76,6.76,0,0,1,2.36,1.39,2.9,2.9,0,0,1,.91,2.49l.06.08a25,25,0,0,0-.82,5.08c0,1.76.31,3.51.43,5.27a42,42,0,0,1,0,4.76,19.42,19.42,0,0,1-.31,3.23c0,.2-.13.45-.33.49l.16,0q-15.9-.39-31.79-.27a11.69,11.69,0,0,1-4.64-.59v0c.18-2.88.26-5.78.24-8.67s-.19-5.74-1.67-8.11a5.28,5.28,0,0,1-.6-1.09A1.23,1.23,0,0,1,30,55.12" transform="translate(-5.93 -5.74)"/><path class="cls-1" d="M29.94,55.9A23,23,0,0,1,37.19,53a54.67,54.67,0,0,1,8.37-1.12c1.45-.11,2.91-.2,4.36-.32s2.93-.25,4.39-.33a34.46,34.46,0,0,1,4.43,0,22.86,22.86,0,0,1,4.07.66c.68.17,1.35.38,2,.62q.48.16,1,.36c.21.09.52.22.78.36A4.12,4.12,0,0,1,68,54.32s0,0,0,0a.61.61,0,0,1,.07.1l.12.19.11.19,0,.09s.06.14,0,.06a2.91,2.91,0,0,1,.12.39s0,.22,0,.11c0,.08,0,.16,0,.25a1.7,1.7,0,0,1,0,.22c0,.07,0,0,0,0a.78.78,0,0,0,0,.14.76.76,0,0,0,.23.59c0-.2-.1-.4-.16-.59a34.72,34.72,0,0,0-.73,3.79,16.68,16.68,0,0,0,0,3.67c.12,1.22.3,2.44.35,3.67s0,2.5,0,3.75c0,.68-.05,1.37-.11,2,0,.34-.06.64-.11,1s-.05.33-.09.5a.43.43,0,0,1,0,0c0,.07,0,.07,0,0s0,.06,0,0l.1-.06a.64.64,0,0,0-.43.75.63.63,0,0,0,.75.43l.16,0a.61.61,0,0,0-.16-1.2q-7.21-.18-14.44-.25t-14.36,0c-1.31,0-2.62,0-3.93,0A9.16,9.16,0,0,1,32,73.56a.61.61,0,0,0-.75.75s0,0,0,0a.61.61,0,0,0,1.2-.16q.27-4.16.24-8.31a19.76,19.76,0,0,0-1-7.17,10.2,10.2,0,0,0-.94-1.83,2.65,2.65,0,0,1-.41-.8l0-.12c0-.1,0,.08,0,0v-.21c0,.1,0-.08,0-.13,0,.11.09-.12,0,0a.62.62,0,0,0,0-.86.61.61,0,0,0-.86,0,1.86,1.86,0,0,0-.27,1.91c.24.6.65,1.11.95,1.69a7.59,7.59,0,0,1,.34.73,8.51,8.51,0,0,1,.29.85,13.51,13.51,0,0,1,.39,1.76c0,.16,0,.24.05.34s0,.31.05.47.05.61.07.91c0,.61.05,1.22.06,1.83,0,1.4,0,2.8,0,4.2q-.06,2.4-.21,4.8l1.2-.16s0,0,0,0l-.75.75a9.5,9.5,0,0,0,3.3.6c1.16,0,2.32,0,3.48,0,2.42,0,4.84,0,7.26,0q7.22,0,14.44.13c2.71,0,5.42.1,8.12.16,0-.4-.11-.8-.16-1.2l-.16,0c.11.39.22.78.32,1.18.72-.22.8-1,.88-1.66s.14-1.33.18-2c.06-1.33.12-2.67.1-4,0-2.64-.69-5.25-.41-7.9A19.63,19.63,0,0,1,69.38,58l.24-1.09a4.13,4.13,0,0,0,.13-.61.78.78,0,0,0-.23-.59c0,.2.1.4.16.59A3.75,3.75,0,0,0,68,52.71a8.38,8.38,0,0,0-1.77-1c-.65-.27-1.32-.51-2-.72A26.79,26.79,0,0,0,55.6,50c-1.51,0-3,.16-4.51.28l-4.45.34a68.88,68.88,0,0,0-8.82,1,26.15,26.15,0,0,0-7.63,2.72l-.87.52a.61.61,0,1,0,.62,1Z" transform="translate(-5.93 -5.74)"/><path d="M32.86,66.18a3.12,3.12,0,0,1-.35-1.79,11.25,11.25,0,0,1,.35-2.52.57.57,0,0,1,.22-.38c.27-.15.55.18.66.47a9,9,0,0,1,.35,3.4,1.73,1.73,0,0,1-.18.87.57.57,0,0,1-.77.21Z" transform="translate(-5.93 -5.74)"/><path class="cls-1" d="M33.39,65.87l-.12-.22c-.05-.09,0,.13,0,0l0-.11-.06-.24s0-.07,0-.11,0,0,0,0,0-.06,0-.08a6.73,6.73,0,0,1,0-1.1c0-.19,0-.37,0-.55s0-.11,0-.16,0,.09,0,0,0-.22,0-.32.07-.39.12-.58l.06-.25,0-.13a.64.64,0,0,0,0-.07c0,.07,0,.08,0,0s0,0-.06,0a.33.33,0,0,1-.29,0s.09,0,0,0-.05,0,0,0,0,0,0,0a.61.61,0,0,1,.07.1s.06.13,0,0l.06.17c.05.16.1.33.14.5a2.56,2.56,0,0,1,0,.27s0,.08,0,.12c0,.2,0-.12,0,.08a13.84,13.84,0,0,1,0,2.23s0,.09,0,.14,0-.07,0,.06l0,.11s0,0,0,0,0-.06,0,0-.1.1,0,0,0,0,0,0,0,0,0,0-.08,0-.08,0l0,0c-.05,0,0,0,0,0-.11,0,0,0,0,0h0l.08.07a.27.27,0,0,0-.08-.07l-.2-.18a.62.62,0,0,0-.86,0,.61.61,0,0,0,0,.86,1.9,1.9,0,0,0,.71.48,1.24,1.24,0,0,0,1.36-.66,3.49,3.49,0,0,0,.22-1.51,12.9,12.9,0,0,0,0-1.39,7.1,7.1,0,0,0-.25-1.45,1.6,1.6,0,0,0-.94-1.2.9.9,0,0,0-.87.2,1.35,1.35,0,0,0-.36.69A13.61,13.61,0,0,0,32,63.33a5,5,0,0,0,.36,3.18.62.62,0,0,0,.83.22A.66.66,0,0,0,33.39,65.87Z" transform="translate(-5.93 -5.74)"/><path d="M36.12,64.44a25.81,25.81,0,0,1-.18-3.29,1.85,1.85,0,0,1,.11-.74.67.67,0,0,1,.57-.43c.33,0,.57.31.72.61a5,5,0,0,1,.25,3.8.67.67,0,0,1-.3.41.82.82,0,0,1-.6-.1c-.19-.07-.46-.09-.56.09Z" transform="translate(-5.93 -5.74)"/><path class="cls-1" d="M36.73,64.44c-.09-.82-.15-1.64-.17-2.47a9.14,9.14,0,0,1,0-1.17c0,.11,0,0,0,0s0-.09,0-.14-.06.1,0,0h0l.07-.07c0,.07-.06,0,0,0s-.08,0,0,0h0c-.11-.06.13.07-.06,0,0,0,.09.07,0,0l.07.06s.1.12,0,.05,0,.06,0,.06a.56.56,0,0,0,.05.08l.12.24c.08.16,0-.06,0,0s0,.07,0,.11a2.25,2.25,0,0,1,.08.24,3.53,3.53,0,0,1,.14.56c0,.08,0,.15,0,.23,0-.12,0,0,0,0a.71.71,0,0,1,0,.14,4.47,4.47,0,0,1,0,.52,2.83,2.83,0,0,1,0,.29s0,.24,0,.12a5,5,0,0,1-.11.56c0,.09-.05.18-.08.28l0,.1c.05-.13,0,0,0,0s0,0,0,0,.1,0,.16,0h0l-.11,0-.16-.06a1.06,1.06,0,0,0-1.31.35l1.14.31a2.23,2.23,0,0,1,0-.36.61.61,0,0,0-1.22,0v.35a.62.62,0,0,0,.45.59.65.65,0,0,0,.69-.28l0,.06c-.19.09-.23.12-.13.09-.15,0-.07,0,0,0s-.14-.05,0,0l.13,0a1.28,1.28,0,0,0,.82.09c.53-.14.73-.65.86-1.13a5.7,5.7,0,0,0,.08-2.63,5.51,5.51,0,0,0-.43-1.26,1.76,1.76,0,0,0-.91-1,1.16,1.16,0,0,0-1.33.44,2.2,2.2,0,0,0-.33,1.4,27.76,27.76,0,0,0,.18,3.16.62.62,0,0,0,.61.61A.6.6,0,0,0,36.73,64.44Z" transform="translate(-5.93 -5.74)"/><path d="M43.38,64.12a21.18,21.18,0,0,1-.32-4.42,3.12,3.12,0,0,1,.3-1.28,1.32,1.32,0,0,1,1-.73.66.66,0,0,1,.41.1.89.89,0,0,1,.25.26,5,5,0,0,1,.87,2.74,11.74,11.74,0,0,1-.31,2.89.7.7,0,0,1-.18.39.63.63,0,0,1-.35.11,9,9,0,0,1-1.47,0Z" transform="translate(-5.93 -5.74)"/><path class="cls-1" d="M44,64c-.08-.58-.14-1-.21-1.55s-.11-1.1-.12-1.65c0-.28,0-.55,0-.83s0-.25,0-.38a.88.88,0,0,1,0-.17c0-.07,0,0,0,0s0-.08,0-.11,0-.23.08-.34l.06-.16c0,.09,0-.06,0-.08l.08-.13c0-.06,0,0,0,0l0-.06.11-.11.06-.05s-.06,0,0,0l.13-.07h0l.07,0c.06,0,.13,0,0,0h.13c-.08,0,0,0,0,0h0c.06,0,0,0,0,0l0,0,.05.06s-.05-.08,0,0,.08.11.11.17a2,2,0,0,1,.18.32l.08.15,0,.09a5.39,5.39,0,0,1,.22.68,3.4,3.4,0,0,1,.07.34l0,.17c0,.07,0,0,0,0s0,.08,0,.11a6.45,6.45,0,0,1,0,.76c0,.28,0,.55,0,.82,0,.07,0,.13,0,.2s0,.18,0,.1c0,.14,0,.28-.07.43s-.1.59-.17.88c0,0,0,0,0,.07s0,0,0,0,0,0,.06-.06.1,0,0,0l-.08,0c.07,0,0,0,0,0l-.23,0c-.31,0-.62,0-.94,0h-.1c-.14,0,0,0,0,0l-.07,0-.16,0a.61.61,0,0,0-.32,1.18,3.83,3.83,0,0,0,1.47.1,2.18,2.18,0,0,0,1-.21,1.27,1.27,0,0,0,.5-.89,10.35,10.35,0,0,0,.2-3.88,5.39,5.39,0,0,0-.57-1.65c-.32-.59-.77-1.15-1.51-1.09a1.92,1.92,0,0,0-1.49,1,3.84,3.84,0,0,0-.42,1.8,22.6,22.6,0,0,0,.35,4.42.61.61,0,0,0,.75.43A.67.67,0,0,0,44,64Z" transform="translate(-5.93 -5.74)"/><path d="M48.57,63.5c-.09-.28-.18-.57-.25-.85a9.62,9.62,0,0,1-.1-4.4.7.7,0,0,1,.17-.38c.23-.21.61,0,.85.17a4.55,4.55,0,0,1,1.32,2.62,13.57,13.57,0,0,1,.07,3,.41.41,0,0,1-.06.24.35.35,0,0,1-.23.1,3.78,3.78,0,0,1-1.57-.05Z" transform="translate(-5.93 -5.74)"/><path class="cls-1" d="M49.15,63.34a14,14,0,0,1-.38-1.41l-.06-.31a.78.78,0,0,1,0-.16c0-.12,0,.14,0-.06s0-.5-.06-.76a9.19,9.19,0,0,1,0-1.39,5.73,5.73,0,0,1,.09-.59l.06-.3s0-.16,0-.08,0,0,0,0a.23.23,0,0,1-.08.09s-.21,0-.1,0h0c.14,0-.09-.07,0,0l.13.08c-.1-.06,0,0,0,0l.12.11.22.24,0,.05.09.13a1.76,1.76,0,0,1,.14.23c.05.08.09.16.13.24l.07.15a.42.42,0,0,1,0,.1v0A7,7,0,0,1,50,60.9S50,61,50,61s0,.1,0,.1l0,.32a6.77,6.77,0,0,1,0,.78c0,.26,0,.52,0,.78s0,.28,0,.42,0,.11,0,.16a.49.49,0,0,1,0,.12.35.35,0,0,1,.26-.33l-.1,0-.12,0q.09,0,0,0l-.38,0-.38,0c-.2,0,.11,0-.09,0l-.25,0,.36.28-.2-.44a.62.62,0,0,0-.83-.22.62.62,0,0,0-.22.83l.15.32.05.12a.76.76,0,0,0,.58.33,4.26,4.26,0,0,0,1,.08,2,2,0,0,0,1-.21c.39-.24.4-.68.42-1.09s0-.63,0-.94a10.5,10.5,0,0,0-.14-1.94,4.94,4.94,0,0,0-1.49-2.88,1.63,1.63,0,0,0-.85-.42,1,1,0,0,0-1,.46,2.41,2.41,0,0,0-.25.88,8.69,8.69,0,0,0-.12,1,11.13,11.13,0,0,0,.56,4.13.63.63,0,0,0,.75.43A.61.61,0,0,0,49.15,63.34Z" transform="translate(-5.93 -5.74)"/><path d="M53.67,64.05a12.58,12.58,0,0,1-.38-3.35,4,4,0,0,1,.27-1.64,1.6,1.6,0,0,1,1.25-1,1.58,1.58,0,0,1,1.16.46,3.42,3.42,0,0,1,.71,1,4.62,4.62,0,0,1,.52,1.85,21.54,21.54,0,0,1-.37,2.5.42.42,0,0,1-.12.33.45.45,0,0,1-.26,0l-2-.08Z" transform="translate(-5.93 -5.74)"/><path class="cls-1" d="M54.25,63.89a11.38,11.38,0,0,1-.31-1.72,13.83,13.83,0,0,1,0-1.82l0-.39c0-.1,0,.08,0,0a.28.28,0,0,0,0-.09,1.55,1.55,0,0,1,0-.23l.06-.2,0-.08s0,.08,0,0a2.38,2.38,0,0,1,.18-.3c-.07.11,0,0,.05-.05l.12-.12h0c-.06,0,0,0,0,0s.11-.06.17-.1h0l.09,0,.14,0c-.13,0,0,0,.07,0H55c-.12,0,0,0,0,0a1,1,0,0,1,.18.06c-.1,0,0,0,.08,0a.91.91,0,0,1,.16.11c-.08-.06,0,0,.07.07l.14.15.07.09s0-.06,0,0,.16.24.23.37a3.59,3.59,0,0,1,.17.34l.09.19s0,.11,0,0l.05.11a4.45,4.45,0,0,1,.24.81s0,.08,0,.12,0-.09,0,0,0,.14,0,.21a3.53,3.53,0,0,1,0,.46s0,.21,0,.11l0,.18-.09.46c-.06.29-.13.59-.17.88a4.1,4.1,0,0,0-.06.49c0,.09,0-.11,0,0s0,0,0,0l.11-.09a.18.18,0,0,1,.15-.09H56.4l-1.07,0-.54,0h-.27s-.12,0,0,0h0c-.24-.08-.5-.12-.75-.18a.61.61,0,0,0-.32,1.18l.75.19a5.65,5.65,0,0,0,1,.06l1.07,0a1.33,1.33,0,0,0,.56-.07.84.84,0,0,0,.48-.57,2.84,2.84,0,0,0,.06-.5c0-.1,0,.08,0,0s0-.08,0-.12,0-.18.05-.27a7.9,7.9,0,0,0,.27-2.05,5.71,5.71,0,0,0-.61-2.06,3.28,3.28,0,0,0-1.33-1.54,1.92,1.92,0,0,0-2,.07,2.65,2.65,0,0,0-1.07,1.63,8.5,8.5,0,0,0-.09,2.36A12.64,12.64,0,0,0,53,64.27a.62.62,0,0,0,.75.43A.7.7,0,0,0,54.25,63.89Z" transform="translate(-5.93 -5.74)"/><path d="M62.55,64.86a8.24,8.24,0,0,1-.15-4.24c.06-.25.2-.55.45-.54a.46.46,0,0,1,.25.1A2.38,2.38,0,0,1,64,61.73,6.89,6.89,0,0,1,64,64a.92.92,0,0,1-.24.58c-.31.27-.89.07-1.13.41Z" transform="translate(-5.93 -5.74)"/><path class="cls-1" d="M63.14,64.7a9.1,9.1,0,0,1-.26-1.15s0-.08,0-.12,0,0,0,0l0-.31a5.82,5.82,0,0,1,0-.59c0-.18,0-.35,0-.53s0-.21,0-.31,0-.08,0-.12,0-.2,0-.08c0-.18.06-.37.1-.55a1.6,1.6,0,0,1,0-.21s.05-.14,0-.05,0,0,0-.06-.09.1,0,0a.26.26,0,0,1-.13.08h-.08l-.15,0s.1.06.12.07-.09-.1,0,0l.07.07.07.07c.09.1,0-.07,0,0l.12.19s.11.23.06.11c.06.16.11.32.16.49a4.59,4.59,0,0,1,.1.51,4.47,4.47,0,0,1,.05.48,7.11,7.11,0,0,1,0,1.22s0,.13,0,0l0,.15,0,.1c0,.07,0,.06,0,0l0,0,0,0c-.05,0-.05,0,0,0s0,0,0,0l.05,0c-.06,0-.16.07-.23,0s.15,0,0,0l-.25,0-.2,0a1.12,1.12,0,0,0-.56.34l1,.12-.12-.17a.62.62,0,0,0-.83-.22.61.61,0,0,0-.22.83l.12.17a.65.65,0,0,0,.45.29.57.57,0,0,0,.51-.17c.09-.12,0,0,0,0l0,0,0,0a1,1,0,0,1,.2,0s-.12,0,0,0l.25,0a1.11,1.11,0,0,0,.25,0,1.26,1.26,0,0,0,.87-1.07,7.36,7.36,0,0,0-.12-2.88A3.48,3.48,0,0,0,64,60.26a1.46,1.46,0,0,0-1.29-.77,1.18,1.18,0,0,0-.92,1,7.92,7.92,0,0,0-.21,1.45A8.85,8.85,0,0,0,62,65a.63.63,0,0,0,.75.43A.64.64,0,0,0,63.14,64.7Z" transform="translate(-5.93 -5.74)"/><path d="M65.88,65c.19-1-.34-1.94-.08-2.87.07-.25.23-.51.49-.54s.55.34.65.66A4.9,4.9,0,0,1,67,65a.7.7,0,0,1-.08.2c-.16.23-.51.18-.78.1Z" transform="translate(-5.93 -5.74)"/><path class="cls-1" d="M66.46,65.2a5,5,0,0,0-.07-1.77l0-.17s0-.06,0-.09,0,0,0,0,0-.26,0-.39V62.6s0-.07,0-.11,0,.09,0,0a1,1,0,0,1,0-.17l0-.09c0-.07-.05.08,0,0l0-.06c0-.05.06,0,0,0,.09-.06-.09,0,0,0l0,0c.07,0-.08,0-.09,0s0,0,0,0-.1,0,0,0-.11-.09,0,0,.07.06,0,0,0,0,0,.07.06.15,0,0l.06.19a2.74,2.74,0,0,1,.09.39l0,.18c0,.07,0,0,0,0s0,.1,0,.16a4.71,4.71,0,0,1,0,.84s0,.06,0,.09,0,.15,0,0a2.07,2.07,0,0,1,0,.22s-.1.45-.11.45.06-.08.06-.09,0,0,0,0l0,0c-.07,0,.13,0,0,0h-.07c-.08,0,.1,0,0,0l-.2,0,.27.16-.22-.26a.6.6,0,0,0-.86,0,.62.62,0,0,0,0,.86,1,1,0,0,0,.57.44,1.3,1.3,0,0,0,1.23-.22,2,2,0,0,0,.43-1.17,5.24,5.24,0,0,0,0-1.25c-.06-.72-.2-1.77-.93-2.14a1,1,0,0,0-1.27.27,2,2,0,0,0-.41,1.18,5.59,5.59,0,0,0,.13,1.29.68.68,0,0,1,0,.14s0,.19,0,.07l0,.28a2.62,2.62,0,0,1,0,.28.66.66,0,0,1,0,.14.19.19,0,0,1,0,.08c0-.07,0-.07,0,0a.63.63,0,0,0,.43.75A.59.59,0,0,0,66.46,65.2Z" transform="translate(-5.93 -5.74)"/><path d="M45.12,74.49a8.78,8.78,0,0,1-.32-3.75,4.1,4.1,0,0,1,.61-2.15.93.93,0,0,1,.54-.4.89.89,0,0,1,.53.1,2.29,2.29,0,0,1,1.1,1.37,6.65,6.65,0,0,1,.26,1.77c.06,1,.12,1.94.17,2.91Z" transform="translate(-5.93 -5.74)"/><path class="cls-1" d="M45.71,74.33a4.84,4.84,0,0,1-.19-.65l-.06-.3s0-.08,0-.12,0-.08,0-.12,0,0,0,0a11.38,11.38,0,0,1-.06-1.31c0-.44,0-.87.08-1.31l0-.3s0,.12,0,0l0-.16a5.66,5.66,0,0,1,.15-.59l0-.08c0,.08,0-.08,0-.08s.08-.16.13-.24l.09-.14c-.07.09,0,0,0,0a.63.63,0,0,1,.12-.11c-.1.08.07,0,0,0l0,0h0l.13,0c-.12,0,0,0,.05,0l.09,0s.15.11,0,0l.22.21.07.08c-.09-.1,0,0,0,0l.14.22a2.4,2.4,0,0,1,.11.23c-.06-.13,0,0,0,0a1.09,1.09,0,0,1,0,.17c.06.21.1.42.14.63s0-.14,0,.05,0,.1,0,.15l0,.37c.07,1.06.13,2.13.19,3.19l.61-.61-2.54.12-.36,0a.62.62,0,0,0-.61.61.61.61,0,0,0,.61.61L47.68,75l.36,0a.62.62,0,0,0,.61-.61c-.06-1-.12-2.11-.19-3.16a4.64,4.64,0,0,0-.93-2.86,2.12,2.12,0,0,0-1.34-.75,1.51,1.51,0,0,0-1.38.84,5.83,5.83,0,0,0-.63,2.82,8.73,8.73,0,0,0,.38,3.41.63.63,0,0,0,.75.43A.61.61,0,0,0,45.71,74.33Z" transform="translate(-5.93 -5.74)"/><path d="M52.43,74.41c.14-1.56.27-3.12.41-4.68a1.52,1.52,0,0,1,.47-1.18,1.06,1.06,0,0,1,1.34.35,3.63,3.63,0,0,1,.53,1.42c.34,1.4,1,2.84.59,4.24Z" transform="translate(-5.93 -5.74)"/><path class="cls-1" d="M53,74.41c.08-.94.16-1.87.25-2.81l.12-1.4c0-.2,0-.41.05-.61s0,.13,0,0,0-.06,0-.1.05-.18.07-.28,0,.07,0,0l.06-.1c-.06.11,0,0,0,0s.11-.07,0,0l0,0c-.09,0,0,0,.05,0h0c-.08,0-.1,0,0,0h.07c.07,0,.06,0,0,0s.27.09.12,0a.82.82,0,0,1,.2.12c-.11-.07,0,0,0,0a.6.6,0,0,0,.08.08c.1.1,0-.07,0,0l.1.17s0,.07.05.1,0-.11,0,.06l.09.27c.06.2.1.4.15.61.1.43.23.85.35,1.27.06.22.12.44.17.67s0,.24.08.36l0,.18s0,.2,0,.08a5.85,5.85,0,0,1,0,.73.49.49,0,0,1,0,.12s0,.25,0,.14c0,.12,0,.24-.07.36l.59-.45-2.91-.12-.42,0a.62.62,0,0,0-.61.61.63.63,0,0,0,.61.61l2.91.12.42,0a.63.63,0,0,0,.59-.45,6.08,6.08,0,0,0-.17-3c-.13-.49-.28-1-.4-1.45a5.82,5.82,0,0,0-.43-1.34,1.69,1.69,0,0,0-2.51-.73,1.84,1.84,0,0,0-.57,1.18c-.07.51-.1,1-.15,1.54-.1,1.18-.21,2.36-.31,3.54a.61.61,0,0,0,.61.61A.62.62,0,0,0,53,74.41Z" transform="translate(-5.93 -5.74)"/></svg>