<svg id="_02_Yellow" data-name="02_Yellow" xmlns="http://www.w3.org/2000/svg" viewBox="0 0 88.01 88.59"><defs><style>.cls-1{fill:#ff0;stroke:#ff0;stroke-miterlimit:10;stroke-width:3px;}</style></defs><path class="cls-1" d="M15.59,23.76c5-5.21,10.16-10.11,16.85-13C45.61,4.92,61,6.87,72.82,14.89A44.9,44.9,0,0,1,90.63,39.41a36.11,36.11,0,0,1-4,29.42A52.88,52.88,0,0,1,67.41,87.58c-4.77,2.7-10.18,5-15.71,5.33a39,39,0,0,1-17.6-3.48A47.18,47.18,0,0,1,14.63,74C5.93,62,5,47.12,10.74,33.6c.83-1.94,1.72-3.86,2.64-5.76.79-1.65,1.48-3.72,2.94-4.91" transform="translate(-5.62 -5.87)"/><path d="M43.88,33.92c.19,0,.08.37,0,.45s-.46-.24-.47-.43c0-.36.31-.6.62-.7a1.75,1.75,0,0,1,1.15,0c.85.36.64,1.39,0,1.88a3.07,3.07,0,0,1-1.19.54,3.91,3.91,0,0,1-1.48.14,1.76,1.76,0,0,1-1.63-1.48,2.06,2.06,0,0,1,1.24-1.74A5.59,5.59,0,0,1,44.59,32a5.65,5.65,0,0,1,2.56.49A4.53,4.53,0,0,1,49.8,36.3a5.58,5.58,0,0,1-2.59,4.38c-2.88,2.14-7.2,2.88-10.26.71a5.6,5.6,0,0,1-2.43-4.07,5.1,5.1,0,0,1,.37-2.38A4.66,4.66,0,0,1,36.45,33a12,12,0,0,1,2.31-1.25c.88-.39,1.75-.78,2.64-1.13a12.68,12.68,0,0,1,5.78-1.12,14.69,14.69,0,0,1,3,.63,24.19,24.19,0,0,1,2.74,1,13.36,13.36,0,0,1,4.43,3A12.49,12.49,0,0,1,60.78,43c-.1,3.77-2.05,7.23-4.43,10a51.78,51.78,0,0,1-4.06,4.19,29,29,0,0,0-3.7,3.9,10.7,10.7,0,0,0-1.27,2.23c-.1.24.29.34.38.11a14.5,14.5,0,0,1,3.44-4.6c1.47-1.44,3-2.81,4.4-4.31a25.4,25.4,0,0,0,3.71-5,15.09,15.09,0,0,0,1.86-5.68,12.52,12.52,0,0,0-.59-5.19,13.2,13.2,0,0,0-2.62-4.55,13.5,13.5,0,0,0-4.63-3.27,25.71,25.71,0,0,0-3-1.09,14.82,14.82,0,0,0-3.23-.66,13.72,13.72,0,0,0-6.2,1.3c-.93.39-1.86.79-2.78,1.21a9.31,9.31,0,0,0-2.35,1.45A5.19,5.19,0,0,0,34.19,38a6.2,6.2,0,0,0,3.06,4.1,8.34,8.34,0,0,0,5.69.86,10.5,10.5,0,0,0,5.31-2.62A6.48,6.48,0,0,0,49.88,38,4.29,4.29,0,0,0,50,35.34a5.08,5.08,0,0,0-3.64-3.55,6.38,6.38,0,0,0-2.85-.08,4.66,4.66,0,0,0-2.37,1.09A1.91,1.91,0,0,0,40.63,35a2.4,2.4,0,0,0,2.24,1.26A5,5,0,0,0,44.39,36a3,3,0,0,0,1.19-.66,1.48,1.48,0,0,0,.05-2.22,1.92,1.92,0,0,0-2.33.07,1,1,0,0,0-.27,1,.77.77,0,0,0,.77.57c.6-.07.83-1.09.18-1.26C43.74,33.47,43.63,33.86,43.88,33.92Z" transform="translate(-5.62 -5.87)"/><path d="M44.1,33a.71.71,0,0,0-.57.11.8.8,0,0,0-.27.4.71.71,0,0,0,0,.49.69.69,0,0,0,.46.37l.24-1a.36.36,0,0,1,.21.18.29.29,0,0,1,0,.2.24.24,0,0,1-.11.15.28.28,0,0,1-.26,0Zm-.24,2.25a1.2,1.2,0,0,0,1-1,1.25,1.25,0,0,0-.09-.73,1,1,0,0,0-.65-.51l-.26,1h0a.2.2,0,0,1,0,.1.52.52,0,0,1-.07.15.08.08,0,0,1-.06,0Zm-1.31-.91a1.29,1.29,0,0,0,1.3.91l-.11-1s-.06,0-.11,0a.46.46,0,0,1-.13-.19ZM43,32.81a1.48,1.48,0,0,0-.4,1.58l.94-.34a.47.47,0,0,1,.14-.5Zm3-.09a2.41,2.41,0,0,0-1.5-.47,2.23,2.23,0,0,0-1.49.57l.69.72a1.29,1.29,0,0,1,.82-.29,1.37,1.37,0,0,1,.86.25Zm0,3a2.29,2.29,0,0,0,.68-1.45,1.76,1.76,0,0,0-.68-1.53l-.61.8a.71.71,0,0,1,.29.67,1.26,1.26,0,0,1-.38.79Zm-1.39.78a3.72,3.72,0,0,0,1.39-.78l-.7-.72a2.35,2.35,0,0,1-1,.54Zm-1.67.28a5.47,5.47,0,0,0,1.67-.28l-.31-1a4.33,4.33,0,0,1-1.36.24Zm-2.7-1.55a2.9,2.9,0,0,0,2.7,1.55v-1a1.92,1.92,0,0,1-1.79-1Zm.66-2.76a2.41,2.41,0,0,0-.66,2.76l.91-.42a1.42,1.42,0,0,1,.44-1.62Zm2.63-1.22a5.14,5.14,0,0,0-2.62,1.22l.68.72a4.18,4.18,0,0,1,2.12-1Zm3.07.09a7,7,0,0,0-3.08-.09l.19,1a5.83,5.83,0,0,1,2.63.07Zm4,3.9a5.56,5.56,0,0,0-4-3.9l-.26,1a4.62,4.62,0,0,1,3.29,3.2Zm-.18,3a4.75,4.75,0,0,0,.18-3l-1,.26a3.76,3.76,0,0,1-.15,2.34Zm-1.75,2.49a6.81,6.81,0,0,0,1.75-2.49l-.93-.36a6,6,0,0,1-1.5,2.13ZM43,43.41a10.92,10.92,0,0,0,5.56-2.75l-.68-.72a10.16,10.16,0,0,1-5.06,2.49Zm-6-.92a8.82,8.82,0,0,0,6,.92l-.18-1a7.85,7.85,0,0,1-5.35-.8Zm-3.3-4.44A6.69,6.69,0,0,0,37,42.49l.5-.86a5.7,5.7,0,0,1-2.82-3.76Zm1.7-5.32a5.69,5.69,0,0,0-1.7,5.32l1-.18a4.71,4.71,0,0,1,1.39-4.4Zm2.48-1.53a9.79,9.79,0,0,0-2.48,1.53l.67.74A9.08,9.08,0,0,1,38.3,32.1ZM40.68,30c-.94.39-1.87.79-2.8,1.22l.42.9q1.37-.62,2.76-1.2Zm6.43-1.34A14.18,14.18,0,0,0,40.68,30l.38.92a13.26,13.26,0,0,1,6-1.26Zm3.33.68a15.87,15.87,0,0,0-3.33-.68l-.08,1a13.63,13.63,0,0,1,3.12.64Zm3,1.11a27.32,27.32,0,0,0-3-1.11l-.3,1a23.45,23.45,0,0,1,2.91,1.07Zm4.8,3.4a14.07,14.07,0,0,0-4.8-3.4l-.4.92a13,13,0,0,1,4.46,3.14ZM61,38.55a13.61,13.61,0,0,0-2.72-4.72l-.75.66A12.47,12.47,0,0,1,60,38.87Zm.62,5.4a13.2,13.2,0,0,0-.62-5.4l-1,.32a12,12,0,0,1,.57,5Zm-1.92,5.87A15.74,15.74,0,0,0,61.61,44l-1-.1a14.45,14.45,0,0,1-1.8,5.49ZM55.91,54.9a26.31,26.31,0,0,0,3.78-5.08l-.88-.48a24.51,24.51,0,0,1-3.64,4.88Zm-4.42,4.33c1.45-1.42,3-2.82,4.41-4.33l-.73-.68c-1.39,1.49-2.89,2.83-4.38,4.29Zm-3.33,4.43a14,14,0,0,1,3.33-4.43l-.7-.72a15,15,0,0,0-3.55,4.77Zm-1.3-.49a.64.64,0,0,0,0,.6.66.66,0,0,0,.41.3.7.7,0,0,0,.85-.42l-.93-.36a.31.31,0,0,1,.17-.17.25.25,0,0,1,.17,0,.34.34,0,0,1,.18.14.33.33,0,0,1,0,.3Zm1.33-2.34a10.62,10.62,0,0,0-1.33,2.34l.92.38A9.92,9.92,0,0,1,49,61.43Zm3.76-4a29.45,29.45,0,0,0-3.76,4l.8.59a29.1,29.1,0,0,1,3.64-3.83Zm4-4.15a52.47,52.47,0,0,1-4,4.15l.69.72a52.9,52.9,0,0,0,4.1-4.23ZM60.28,43c-.1,3.6-2,7-4.31,9.74l.76.64c2.41-2.86,4.44-6.42,4.55-10.36ZM57,34.48A12,12,0,0,1,60.28,43l1,0a13,13,0,0,0-3.57-9.21Zm-4.27-2.86A13,13,0,0,1,57,34.48l.72-.68a13.8,13.8,0,0,0-4.59-3.1Zm-2.69-1a22.65,22.65,0,0,1,2.69,1l.4-.92a25.25,25.25,0,0,0-2.8-1ZM47.13,30a13.38,13.38,0,0,1,2.9.61l.3-1A16.05,16.05,0,0,0,47.22,29Zm-5.55,1.08A12.22,12.22,0,0,1,47.14,30l.08-1a13.18,13.18,0,0,0-6,1.16ZM39,32.25c.89-.39,1.74-.78,2.62-1.12l-.36-.94c-.91.36-1.79.75-2.66,1.14Zm-2.22,1.19A12,12,0,0,1,39,32.25l-.4-.92a12.07,12.07,0,0,0-2.41,1.31Zm-1.39,1.7a4.16,4.16,0,0,1,1.39-1.7l-.59-.8a5.13,5.13,0,0,0-1.72,2.1ZM35,37.28a4.43,4.43,0,0,1,.33-2.14l-.92-.4A5.65,5.65,0,0,0,34,37.36ZM37.24,41A5.08,5.08,0,0,1,35,37.28l-1,.08a6.1,6.1,0,0,0,2.64,4.44Zm9.67-.7c-2.77,2.06-6.84,2.71-9.67.7l-.58.82c3.29,2.33,7.85,1.5,10.85-.72Zm2.39-4a5.12,5.12,0,0,1-2.39,4l.6.8c1.42-1,2.86-2.75,2.79-4.8Zm-2.36-3.38a4,4,0,0,1,2.36,3.38l1,0A5,5,0,0,0,47.36,32Zm-2.33-.44a5.15,5.15,0,0,1,2.33.44l.42-.9a6.15,6.15,0,0,0-2.79-.54Zm-2.25.57a5.13,5.13,0,0,1,2.25-.57l0-1a6,6,0,0,0-2.69.69Zm-1,1.27c0-.48.38-.93,1-1.28l-.5-.86a2.54,2.54,0,0,0-1.49,2.2Zm1.19,1a1.62,1.62,0,0,1-.83-.35.9.9,0,0,1-.36-.65l-1,0a1.89,1.89,0,0,0,.73,1.38,2.74,2.74,0,0,0,1.33.58Zm1.29-.12a3.41,3.41,0,0,1-1.29.12l-.12,1a4.43,4.43,0,0,0,1.67-.16Zm1-.45a2.57,2.57,0,0,1-1,.45l.26,1a3.55,3.55,0,0,0,1.38-.63Zm.08-1a.41.41,0,0,1,.22.17.4.4,0,0,1,0,.23.93.93,0,0,1-.34.63l.64.78a2,2,0,0,0,.7-1.35,1.38,1.38,0,0,0-.18-.8,1.42,1.42,0,0,0-.69-.58Zm-.81,0a1.28,1.28,0,0,1,.82,0l.38-.92a2.22,2.22,0,0,0-1.48-.07Zm-.26.19s0,0,0-.06a.56.56,0,0,1,.23-.13l-.3-1a1.65,1.65,0,0,0-.64.38,1.08,1.08,0,0,0-.33.83Zm-.33.06.11,0a.43.43,0,0,1,.16,0,.23.23,0,0,1,.1.06l0-.06s0,0,0,0l-1,.06a1.25,1.25,0,0,0,.25.64.91.91,0,0,0,.4.28.68.68,0,0,0,.62-.12Zm.21.43a.37.37,0,0,1-.15-.08.53.53,0,0,1-.1-.14.3.3,0,0,1,0-.14v0a0,0,0,0,1,0,0l.06,0,.56.84a1,1,0,0,0,.24-.27.83.83,0,0,0,.11-.29.75.75,0,0,0,0-.41.61.61,0,0,0-.43-.38Zm.23-.87.13-.48h0Zm-.18,1.26.05.5h0ZM43,34.22l.47-.16h0Zm.27-1,.34.37h0Zm2.33-.07-.31.39h0Zm-.05,2.22L45.23,35h0ZM44.39,36l-.16-.48h0Zm-3.76-1,.45-.21h0Zm.55-2.19-.34-.36h0Zm2.37-1.09.09.49h0Zm2.85.08-.13.48h0ZM50,35.34l.48-.13h0ZM49.88,38l.46.18h0ZM48.25,40.3l-.34-.36h0Zm-5.31,2.62-.09-.49h0Zm-5.69-.86.25-.43h0ZM34.19,38l.49-.09h0Zm1.55-4.86.33.37h0Zm2.35-1.45-.21-.45h0Zm2.78-1.21L40.68,30h0Zm6.2-1.3,0,.5h0Zm3.23.66.15-.48h0Zm3,1.09-.21.46h0Zm4.63,3.27.37-.33h0Zm2.62,4.55.47-.16h0Zm.59,5.19.5.05h0Zm-1.86,5.68-.44-.24h0Zm-3.71,5,.36.34h0Zm-4.4,4.31.35.36h0Zm-3.44,4.6-.46-.19h0Zm-.38-.11-.46-.19h0Zm1.27-2.23.4.3h0Zm3.7-3.9.34.36h0ZM56.35,53,56,52.72h0Zm4.43-10h0Zm-3.43-8.85-.36.34h0Zm-4.43-3-.2.46h0Zm-2.74-1-.15.48h0Zm-3-.63,0-.5h0ZM41.4,30.66l.18.47h0Zm-2.64,1.13.2.46h0ZM36.45,33l.29.4h0Zm-1.56,1.9-.46-.2h0Zm-.37,2.38-.5,0h0ZM37,41.39l.29-.41h0Zm10.26-.71-.3-.4h0ZM49.8,36.3l.5,0h0Zm-2.65-3.81.21-.45h0ZM44.59,32l0-.5h0Zm-2.47.63-.24-.44h0Zm-1.24,1.74.5,0h0Zm1.63,1.48-.07.5h0ZM44,35.71l-.13-.48h0Zm1.19-.54-.32-.39h0Zm0-1.88.19-.46h0Zm-1.15,0-.14-.48h0Zm-.62.7.5,0h0Zm.47.43L43.56,34h0Zm0-.45.13-.48h0Z" transform="translate(-5.62 -5.87)"/><path d="M50.53,59.64a5.62,5.62,0,0,1,4,.4c.23.12.43-.23.2-.34a6,6,0,0,0-4.3-.44A.2.2,0,0,0,50.53,59.64Z" transform="translate(-5.62 -5.87)"/><path d="M50.28,58.78a.67.67,0,0,0-.43.37.7.7,0,0,0,0,.49.73.73,0,0,0,.29.4.66.66,0,0,0,.56.08l-.27-1a.36.36,0,0,1,.26,0,.3.3,0,0,1,.12.17.24.24,0,0,1,0,.2.29.29,0,0,1-.19.17Zm4.67.47a6.51,6.51,0,0,0-4.67-.47l.27,1a5.49,5.49,0,0,1,3.94.41Zm-.66,1.23a.71.71,0,0,0,1-.77.68.68,0,0,0-.38-.46l-.43.9a.31.31,0,0,1-.17-.23.27.27,0,0,1,0-.21.28.28,0,0,1,.15-.13.29.29,0,0,1,.24,0Zm-3.63-.36a5.07,5.07,0,0,1,3.63.37l.46-.9a6.18,6.18,0,0,0-4.35-.43Zm-.24-.86-.14-.48h0Zm4.3.44-.23.45h0Zm-.2.34.23-.44h0Zm-4-.4-.13-.48h0Z" transform="translate(-5.62 -5.87)"/><path d="M48.77,61.93a4.78,4.78,0,0,1,2.93.66.2.2,0,0,0,.2-.34,5.13,5.13,0,0,0-3.13-.71C48.52,61.55,48.52,62,48.77,61.93Z" transform="translate(-5.62 -5.87)"/><path d="M48.75,61a.7.7,0,0,0-.49,1.17.67.67,0,0,0,.55.22l-.08-1a.35.35,0,0,1,.27.11.31.31,0,0,1,.08.21.25.25,0,0,1-.06.17.33.33,0,0,1-.23.12Zm3.4.78A5.63,5.63,0,0,0,48.72,61l.1,1a4.59,4.59,0,0,1,2.82.64ZM51.44,63a.68.68,0,0,0,.57.06.67.67,0,0,0,.38-.31.68.68,0,0,0-.24-1l-.51.86a.36.36,0,0,1-.14-.21.34.34,0,0,1,0-.21.3.3,0,0,1,.16-.12.29.29,0,0,1,.26,0Zm-2.62-.59a4.24,4.24,0,0,1,2.62.59l.52-.86a5.34,5.34,0,0,0-3.24-.73Zm0-.89,0,.5h0Zm3.13.71-.26.43h0Zm-.2.34-.26.43h0Zm-2.93-.66,0,.5h0Z" transform="translate(-5.62 -5.87)"/><path d="M43.8,65.64c3.55-.73,7.08,1,10.38,2A50.08,50.08,0,0,0,64.44,70a25.08,25.08,0,0,0,10-.77c2.61-.81,5.12-2.43,5.79-5.25a15.49,15.49,0,0,0,.32-2.53c.06-.89.11-1.79.15-2.69a38.91,38.91,0,0,0-.16-5.61,27.31,27.31,0,0,0-2.19-8.18,32.68,32.68,0,0,0-10.2-12.69,35.15,35.15,0,0,0-16.19-6.77A32.47,32.47,0,0,0,33.47,28,27.94,27.94,0,0,0,21.23,39.34a25.52,25.52,0,0,0-2.91,7.74,19.62,19.62,0,0,0,.25,9.36,22.69,22.69,0,0,0,2.06,4.61,44.24,44.24,0,0,0,2.67,4.23,14.05,14.05,0,0,0,3.45,3.43A19.58,19.58,0,0,0,31,70.82c6.22,2.3,13.36,2.59,19.34-.58A17.88,17.88,0,0,0,54,67.68c.19-.17-.09-.45-.28-.28C48.89,71.8,42,73,35.71,71.72a28.65,28.65,0,0,1-4.88-1.41,18.1,18.1,0,0,1-4.23-2.2,14.36,14.36,0,0,1-3.4-3.68,47.12,47.12,0,0,1-2.55-4.18,20.43,20.43,0,0,1-1.87-4.57,17.66,17.66,0,0,1-.47-5.12,23.48,23.48,0,0,1,1.76-7.92A27.41,27.41,0,0,1,30.51,30.11a30.34,30.34,0,0,1,17.41-4.59,34.89,34.89,0,0,1,16.9,5A33.52,33.52,0,0,1,76.29,41.84a28.45,28.45,0,0,1,3.12,7.36,33.27,33.27,0,0,1,.86,9.9c0,.89-.09,1.78-.16,2.67a11.31,11.31,0,0,1-.39,2.51,6,6,0,0,1-2.47,3.18A11.62,11.62,0,0,1,73.54,69a23.7,23.7,0,0,1-5,.68,36.9,36.9,0,0,1-10.24-1.26C56.68,68,55,67.55,53.42,67s-3.24-1.16-4.92-1.55a11.06,11.06,0,0,0-4.79-.19C43.44,65.31,43.55,65.69,43.8,65.64Z" transform="translate(-5.62 -5.87)"/><path d="M43.64,64.78a.65.65,0,0,0-.5.32.71.71,0,0,0,.76,1l-.2-1a.28.28,0,0,1,.23,0,.25.25,0,0,1,.11.16.31.31,0,0,1,0,.24.32.32,0,0,1-.23.16Zm5,.19a11.53,11.53,0,0,0-5-.19l.2,1a10.56,10.56,0,0,1,4.57.19Zm5,1.57c-1.6-.53-3.26-1.17-5-1.57l-.22,1c1.65.38,3.21,1,4.87,1.53ZM58.46,68c-1.64-.42-3.27-.91-4.88-1.44l-.32.94q2.45.83,5,1.46Zm10.1,1.24A36,36,0,0,1,58.46,68l-.24,1A37.3,37.3,0,0,0,68.6,70.22Zm4.86-.66a23.31,23.31,0,0,1-4.86.66l0,1a24.09,24.09,0,0,0,5.06-.7ZM77,67.05a11.31,11.31,0,0,1-3.55,1.5l.24,1a11.7,11.7,0,0,0,3.87-1.65Zm2.27-2.92A5.54,5.54,0,0,1,77,67.05l.56.82a6.55,6.55,0,0,0,2.67-3.44Zm.37-2.4a10.94,10.94,0,0,1-.37,2.4l1,.3a11.68,11.68,0,0,0,.41-2.62Zm.16-2.65c0,.88-.09,1.77-.16,2.65l1,.08c.07-.9.12-1.79.16-2.69Zm-.84-9.75a32.81,32.81,0,0,1,.84,9.75l1,0a33.73,33.73,0,0,0-.88-10ZM75.86,42.1a28,28,0,0,1,3.07,7.23l1-.26a29,29,0,0,0-3.17-7.49ZM64.56,30.91A32.89,32.89,0,0,1,75.86,42.1l.86-.52A34.15,34.15,0,0,0,65.08,30.05ZM47.9,26a34.35,34.35,0,0,1,16.66,4.89l.52-.86a35.44,35.44,0,0,0-17.15-5ZM30.78,30.53A29.79,29.79,0,0,1,47.9,26l0-1a30.86,30.86,0,0,0-17.69,4.67ZM20.53,42.83a26.93,26.93,0,0,1,10.25-12.3l-.54-.84A27.83,27.83,0,0,0,19.61,42.45Zm-1.72,7.75a23,23,0,0,1,1.72-7.75l-.92-.38a24,24,0,0,0-1.8,8.09Zm.45,5a17.3,17.3,0,0,1-.45-5l-1,0a18.37,18.37,0,0,0,.48,5.26ZM21.09,60a20.17,20.17,0,0,1-1.83-4.45l-1,.24a21.21,21.21,0,0,0,1.92,4.69Zm2.52,4.14A46.17,46.17,0,0,1,21.09,60l-.88.48a48.08,48.08,0,0,0,2.58,4.22Zm3.28,3.55a14.09,14.09,0,0,1-3.28-3.55l-.83.56a14.85,14.85,0,0,0,3.53,3.81ZM31,69.84a17.66,17.66,0,0,1-4.12-2.13l-.59.8a18.6,18.6,0,0,0,4.35,2.27Zm4.79,1.39A28.53,28.53,0,0,1,31,69.84l-.36.94a29.31,29.31,0,0,0,5,1.43ZM53.4,67C48.7,71.3,42,72.44,35.81,71.23l-.2,1c6.39,1.25,13.47.09,18.46-4.44Zm1,1a.65.65,0,0,0,.23-.54.72.72,0,0,0-.2-.45.69.69,0,0,0-1,0l.66.74a.36.36,0,0,1-.23.08.29.29,0,0,1-.26-.28.33.33,0,0,1,.11-.26ZM50.6,70.68a18.53,18.53,0,0,0,3.76-2.63l-.68-.74a17.3,17.3,0,0,1-3.55,2.49Zm-19.74.61c6.31,2.33,13.6,2.65,19.74-.61l-.47-.88c-5.82,3.08-12.8,2.82-18.93.55Zm-4.39-2.17a19.71,19.71,0,0,0,4.39,2.17l.34-.94a19.24,19.24,0,0,1-4.17-2ZM22.9,65.57a14.34,14.34,0,0,0,3.57,3.55L27,68.3A13.77,13.77,0,0,1,23.7,65ZM20.19,61.3a47.83,47.83,0,0,0,2.7,4.27L23.7,65a44.85,44.85,0,0,1-2.64-4.19Zm-2.1-4.72a23.56,23.56,0,0,0,2.1,4.72l.87-.5a21.8,21.8,0,0,1-2-4.5ZM17.83,47a20.12,20.12,0,0,0,.26,9.6l1-.28a19.13,19.13,0,0,1-.24-9.12Zm3-7.89a26.23,26.23,0,0,0-3,7.89l1,.2a25.06,25.06,0,0,1,2.85-7.59ZM33.26,27.56A28.43,28.43,0,0,0,20.79,39.09l.87.5a27.52,27.52,0,0,1,12-11.13ZM52,25a32.87,32.87,0,0,0-18.75,2.57l.42.9A32.08,32.08,0,0,1,51.87,26Zm16.42,6.86A35.77,35.77,0,0,0,52,25l-.14,1a34.73,34.73,0,0,1,16,6.68ZM78.79,44.74A33.22,33.22,0,0,0,68.43,31.85l-.6.8a32.14,32.14,0,0,1,10,12.49ZM81,53.07a27.85,27.85,0,0,0-2.23-8.33l-.92.4a26.69,26.69,0,0,1,2.15,8Zm.16,5.68A39.93,39.93,0,0,0,81,53.07l-1,.1a37.91,37.91,0,0,1,.16,5.54ZM81,61.45q.09-1.34.15-2.7l-1,0c0,.89-.09,1.79-.15,2.68Zm-.33,2.62A16.21,16.21,0,0,0,81,61.46l-1-.08a14.78,14.78,0,0,1-.31,2.45Zm-6.13,5.61c2.67-.83,5.39-2.54,6.13-5.61l-1-.24c-.61,2.57-2.9,4.1-5.45,4.89Zm-10.18.79a25.78,25.78,0,0,0,10.18-.79l-.3-1a24.38,24.38,0,0,1-9.78.75ZM54,68.16a51.13,51.13,0,0,0,10.36,2.31l.1-1A48.91,48.91,0,0,1,54.33,67.2Zm-10.13-2a10.87,10.87,0,0,1,5.05.34c1.74.47,3.37,1.14,5.08,1.69l.3-1C52.74,66.69,51,66,49.21,65.51a11.77,11.77,0,0,0-5.51-.36Zm-.19-.86.07.49h0Zm4.79.19-.12.49h0ZM53.42,67l.16-.47h0Zm4.92,1.45-.12.48h0Zm10.24,1.26,0,.5h0Zm5-.68-.12-.49h0Zm3.71-1.58L77,67.05h0Zm2.47-3.18.48.15h0Zm.39-2.51-.5,0h0Zm.16-2.67.5,0h0Zm-.86-9.9-.48.13h0Zm-3.12-7.36.43-.26h0ZM64.82,30.48l-.26.43h0Zm-16.9-5,0,.5h0ZM30.51,30.11l-.27-.42ZM20.07,42.64l.46.19h0Zm-1.76,7.92.5,0h0Zm.47,5.12.48-.12h0Zm1.87,4.57-.44.24h0Zm2.55,4.18.41-.28h0Zm3.4,3.68.29-.4h0Zm4.23,2.2.18-.47h0Zm4.88,1.41.1-.49h0Zm18-4.32L53.41,67h0Zm.28.28-.33-.37h0Zm-3.65,2.56.23.44h0ZM31,70.82l.17-.47h0Zm-4.28-2.11L27,68.3h0ZM23.3,65.28l-.41.29h0Zm-2.67-4.23.43-.25h0Zm-2.06-4.61-.48.14h0Zm-.25-9.36.49.1h0Zm2.91-7.74-.44-.25h0ZM33.47,28l-.21-.45h0Zm18.47-2.53-.07.49h0Zm16.19,6.77.3-.4h0Zm10.2,12.69-.46.2h0Zm2.19,8.18-.5.05h0Zm.16,5.61.5,0h0Zm-.15,2.69.5,0h0ZM80.21,64l-.49-.12h0ZM74.42,69.2l-.15-.48h0Zm-10,.77,0-.5h0ZM54.18,67.68l-.15.48h0Zm-10.38-2,.1.49h0Z" transform="translate(-5.62 -5.87)"/></svg>