<svg id="Layer_7" data-name="Layer 7" xmlns="http://www.w3.org/2000/svg" viewBox="0 0 58.31 58.47"><defs><style>.cls-1{fill:#ff0;}</style></defs><path class="cls-1" d="M12.94,50.78A23.73,23.73,0,0,1,7.78,44,32.21,32.21,0,0,1,4.55,36,25.72,25.72,0,0,1,6,19.45c4.12-9.16,13.39-15.8,23.57-15.84,10.6,0,20.39,8.27,24.64,17.6,4.51,9.9.57,21.47-7.33,28.39a26.23,26.23,0,0,1-16.15,6.47,25.9,25.9,0,0,1-9.37-1.37,32.37,32.37,0,0,1-8.72-4.15C11.08,49.4,9.58,52,11.12,53.14a35,35,0,0,0,8.59,4.15,28.68,28.68,0,0,0,26.11-3.12c9.59-6.47,15.59-18.74,12.52-30.26-1.48-5.58-4.93-10.5-9-14.49S39.87,2,34,1c-11.45-2-23,4.09-29,13.82A28.86,28.86,0,0,0,1.14,34a33.22,33.22,0,0,0,3.41,10.3A29.9,29.9,0,0,0,7.44,49a22.7,22.7,0,0,0,3.38,3.93C12.3,54.12,14.43,52,12.94,50.78Z" transform="translate(-0.84 -0.63)"/><path class="cls-1" d="M18.61,35A174.89,174.89,0,0,0,30.1,21.19l-2.36.31A126.4,126.4,0,0,1,40.58,33.24c1.34,1.4,3.46-.72,2.12-2.12A125.25,125.25,0,0,0,29.86,19.38a1.53,1.53,0,0,0-2.35.3,164,164,0,0,1-11,13.22c-1.31,1.41.8,3.54,2.13,2.13Z" transform="translate(-0.84 -0.63)"/></svg>