<svg id="_02_Black" data-name="02_Black" xmlns="http://www.w3.org/2000/svg" viewBox="0 0 88.01 88.54"><defs><style>.cls-1{fill:#ff0;}</style></defs><path d="M15.64,23.36c5-5.21,10.16-10.11,16.85-13C45.67,4.53,61,6.48,72.88,14.5A44.92,44.92,0,0,1,90.68,39a36.11,36.11,0,0,1-4,29.42A52.88,52.88,0,0,1,67.46,87.2c-4.77,2.7-10.18,5-15.71,5.33a39,39,0,0,1-17.6-3.48A47.18,47.18,0,0,1,14.68,73.63c-8.7-12-9.63-26.89-3.89-40.41.83-1.94,1.72-3.86,2.64-5.76.79-1.65,1.48-3.72,2.94-4.91" transform="translate(-5.7 -5.49)"/><path class="cls-1" d="M16.7,24.43C22.61,18.24,29,12.65,37.33,10.13a40.37,40.37,0,0,1,24.15.43c15.38,5,27.7,19.49,29.07,35.81C92,63.6,79.73,79,65.14,86.76A33.46,33.46,0,0,1,52.2,91a35.27,35.27,0,0,1-13.63-1.86A46.43,46.43,0,0,1,18,75.43,38.25,38.25,0,0,1,8.76,53,40.65,40.65,0,0,1,9.87,40.74a67.76,67.76,0,0,1,4.86-12.52c.76-1.61,1.34-3.4,2.71-4.61s-.68-3.39-2.12-2.12-2.25,3.25-3.1,5.06C11.13,28.89,10,31.21,9,33.61A46.07,46.07,0,0,0,5.9,46.36a41.08,41.08,0,0,0,5.75,25.38A47.49,47.49,0,0,0,31,89.23c8.68,4.32,18.79,6.41,28.21,3.34A53.12,53.12,0,0,0,81.75,77.63c6.07-6.75,10.6-15,11.7-24.08,2.12-17.63-9.08-35.32-24.57-43.17A44.74,44.74,0,0,0,43.09,5.85,40.79,40.79,0,0,0,30.56,9.57a46.78,46.78,0,0,0-11.21,8c-1.65,1.53-3.23,3.13-4.78,4.76C13.25,23.7,15.37,25.82,16.7,24.43Z" transform="translate(-5.7 -5.49)"/><path d="M44.08,66c2.89-.62,5.84.46,8.64,1.42,6.73,2.31,14,4.06,20.93,2.46,2.66-.61,5.45-2,6.5-4.47a10.25,10.25,0,0,0,.6-3.21,44.3,44.3,0,0,0-.15-9.77C79,41.56,70.5,32.37,60.27,28.29c-8.71-3.47-18.92-3.49-27.26.78s-14.44,13-14.68,22.4A17.81,17.81,0,0,0,18.74,56a25.73,25.73,0,0,0,3.57,7.66A20.8,20.8,0,0,0,25.68,68a16.58,16.58,0,0,0,5.57,3.18,26.58,26.58,0,0,0,12,1.7,19.36,19.36,0,0,0,11-4.75l-5.56-1.8a12.83,12.83,0,0,0-4.39-.13" transform="translate(-5.7 -5.49)"/><path class="cls-1" d="M44.18,66.42a11.26,11.26,0,0,1,5.28.4c1.7.47,3.34,1.1,5,1.64a50.33,50.33,0,0,0,10.34,2.3A25.31,25.31,0,0,0,74.88,70c2.68-.84,5.26-2.51,5.94-5.4a16.2,16.2,0,0,0,.32-2.6c.06-.9.12-1.79.15-2.69a39,39,0,0,0-.16-5.62,28.11,28.11,0,0,0-2.22-8.3,32.94,32.94,0,0,0-10.3-12.8,35.48,35.48,0,0,0-16.29-6.81,32.92,32.92,0,0,0-18.68,2.55A28.26,28.26,0,0,0,21.29,39.74a25.47,25.47,0,0,0-2.94,7.81A19.78,19.78,0,0,0,18.6,57a22.71,22.71,0,0,0,2.08,4.67A44.49,44.49,0,0,0,23.36,66a14.4,14.4,0,0,0,3.53,3.52,20.13,20.13,0,0,0,4.34,2.14c6.29,2.32,13.5,2.6,19.55-.6a18,18,0,0,0,3.7-2.6.4.4,0,0,0-.18-.67l-3.37-1.09a17.64,17.64,0,0,0-2.86-.82,11.58,11.58,0,0,0-3.94,0c-.5.1-.29.87.21.77a10.07,10.07,0,0,1,3.42,0,5.55,5.55,0,0,1,1,.21l4,1.29,1.31.42-.18-.67C49.08,72.2,42.23,73.34,36,72.13a29.42,29.42,0,0,1-4.89-1.41,18.34,18.34,0,0,1-4.19-2.18,14.22,14.22,0,0,1-3.34-3.62c-.92-1.35-1.78-2.76-2.56-4.19a20.17,20.17,0,0,1-1.86-4.54,17.77,17.77,0,0,1-.46-5.09,23.54,23.54,0,0,1,1.75-7.89A27.23,27.23,0,0,1,30.83,30.77a30.27,30.27,0,0,1,17.36-4.58A34.8,34.8,0,0,1,65,31.14,33.37,33.37,0,0,1,76.47,42.46a28.38,28.38,0,0,1,3.11,7.33,33.43,33.43,0,0,1,.86,9.87c0,.9-.09,1.79-.16,2.68a10.79,10.79,0,0,1-.39,2.46,5.74,5.74,0,0,1-2.39,3.07,11.46,11.46,0,0,1-3.67,1.56,23.31,23.31,0,0,1-4.92.67,36.76,36.76,0,0,1-10.22-1.26c-1.66-.42-3.31-.92-4.94-1.46s-3.25-1.16-4.93-1.56a11.46,11.46,0,0,0-4.91-.2C43.47,65.75,43.68,66.52,44.18,66.42Z" transform="translate(-5.7 -5.49)"/><path d="M44.26,34.23c.44.1.23.92-.22.88a.72.72,0,0,1-.45-1.06,1.33,1.33,0,0,1,1.17-.58,1.5,1.5,0,0,1,1.33.57,1.32,1.32,0,0,1-.2,1.55,2.93,2.93,0,0,1-1.45.8,3.72,3.72,0,0,1-2.09.06A1.91,1.91,0,0,1,41,35c-.13-1.11,1-2,2-2.32a6.06,6.06,0,0,1,5,.44,4.6,4.6,0,0,1,2.23,4.39,5.5,5.5,0,0,1-1.66,3A10,10,0,0,1,45,42.79a9.43,9.43,0,0,1-5.58.38,6.66,6.66,0,0,1-4.32-3.42,5.19,5.19,0,0,1,.48-5.37,9.37,9.37,0,0,1,3.87-2.47c2.27-1,4.59-2.06,7.07-2.1a14,14,0,0,1,4.6.85,18.14,18.14,0,0,1,5,2.37A12.68,12.68,0,0,1,61.3,44.47,16.26,16.26,0,0,1,58.24,52a40.68,40.68,0,0,1-5.54,6c-1.88,1.77-3.86,3.59-4.85,6" transform="translate(-5.7 -5.49)"/><path class="cls-1" d="M44.16,34.61c.08,0,0,0,0,0h0c-.08-.09,0,0,0,0s0,0,0-.05v.06c0-.11,0,.1,0,0l0,.07c.07-.11-.07.09,0,0s-.1,0,0,0c-.1,0,.08,0,0,0,.05,0,0,0,0,0l0,0a.4.4,0,0,1-.1-.24.33.33,0,0,1,.08-.26.8.8,0,0,1,.39-.24,1.55,1.55,0,0,1,1,0,.71.71,0,0,1,.48.72,1.18,1.18,0,0,1-.48.85,3,3,0,0,1-1.1.49,3.68,3.68,0,0,1-1.44.13,1.59,1.59,0,0,1-1.44-1.28,1.86,1.86,0,0,1,1.14-1.57,5.78,5.78,0,0,1,4.84-.14,4.33,4.33,0,0,1,2.55,3.65A5.38,5.38,0,0,1,47.45,41c-2.83,2.1-7.07,2.85-10.09.72A5.42,5.42,0,0,1,35,37.84a4.8,4.8,0,0,1,.35-2.28,4.46,4.46,0,0,1,1.5-1.83,12,12,0,0,1,2.31-1.25c.86-.38,1.73-.76,2.6-1.11a12.66,12.66,0,0,1,5.74-1.11,15,15,0,0,1,3,.62,26.34,26.34,0,0,1,2.7,1,13.33,13.33,0,0,1,4.41,3A12.4,12.4,0,0,1,61,43.55c-.1,3.73-2,7.15-4.38,9.94a53.79,53.79,0,0,1-4.07,4.2,29.89,29.89,0,0,0-3.75,4,10.7,10.7,0,0,0-1.29,2.28.4.4,0,0,0,.28.49.41.41,0,0,0,.49-.28,14.21,14.21,0,0,1,3.4-4.53c1.48-1.44,3-2.81,4.41-4.33a25.59,25.59,0,0,0,3.75-5,15.3,15.3,0,0,0,1.89-5.8,12.64,12.64,0,0,0-.6-5.25,12.94,12.94,0,0,0-7.36-8,26.8,26.8,0,0,0-3-1.12,15.34,15.34,0,0,0-3.3-.67,13.76,13.76,0,0,0-6.27,1.31c-.95.39-1.9.8-2.84,1.23a9.71,9.71,0,0,0-2.4,1.48,5.41,5.41,0,0,0-1.6,5.07,6.38,6.38,0,0,0,3.16,4.23,8.58,8.58,0,0,0,5.86.88A10.71,10.71,0,0,0,48.74,41a6.65,6.65,0,0,0,1.68-2.41,4.42,4.42,0,0,0,.16-2.76,5.29,5.29,0,0,0-3.79-3.7,6.58,6.58,0,0,0-3-.08,4.87,4.87,0,0,0-2.47,1.15,2.1,2.1,0,0,0-.58,2.44A2.61,2.61,0,0,0,43.2,37a5.23,5.23,0,0,0,1.57-.27A3.19,3.19,0,0,0,46.05,36a1.69,1.69,0,0,0,.05-2.51,2.12,2.12,0,0,0-2.62.07,1.19,1.19,0,0,0-.32,1.24,1,1,0,0,0,1,.71c.8-.1,1.07-1.42.21-1.66A.41.41,0,0,0,44.16,34.61Z" transform="translate(-5.7 -5.49)"/><path d="M50.83,60a5.78,5.78,0,0,1,4.16.43Z" transform="translate(-5.7 -5.49)"/><path class="cls-1" d="M50.94,60.4a5.35,5.35,0,0,1,3.85.39.4.4,0,1,0,.41-.69,6.3,6.3,0,0,0-4.47-.47A.4.4,0,0,0,50.94,60.4Z" transform="translate(-5.7 -5.49)"/><path d="M49.12,62.3a4.91,4.91,0,0,1,3,.69Z" transform="translate(-5.7 -5.49)"/><path class="cls-1" d="M49.12,62.7a4.64,4.64,0,0,1,2.84.63c.44.27.84-.42.4-.69a5.35,5.35,0,0,0-3.24-.74.41.41,0,0,0-.4.4A.4.4,0,0,0,49.12,62.7Z" transform="translate(-5.7 -5.49)"/></svg>