<svg id="Layer_8" data-name="Layer 8" xmlns="http://www.w3.org/2000/svg" viewBox="0 0 58.31 58.47"><defs><style>.cls-1{fill:#ff0;}</style></defs><path class="cls-1" d="M11.88,51.84l-.36-.3a13.35,13.35,0,0,1-1.91-2.2c-.57-.76-1.18-1.48-1.72-2.27a35.67,35.67,0,0,1-3.36-6.35A28.24,28.24,0,0,1,2.48,26.77c0-.1,0-.2,0-.3a26.87,26.87,0,0,1,1-4.83A28.54,28.54,0,0,1,20.7,3.73,25.13,25.13,0,0,1,35,2.71C40.41,4,45.22,7.33,49.12,11.36s7,8.76,8.06,14.16a25.21,25.21,0,0,1-2,15.43,29,29,0,0,1-16.08,15,27.91,27.91,0,0,1-12,1.57c-4.41-.39-8.44-2.05-12.37-4A16.27,16.27,0,0,1,11.88,51.84Z" transform="translate(-0.84 -0.63)"/><path class="cls-1" d="M12.94,50.78A23.73,23.73,0,0,1,7.78,44,32.21,32.21,0,0,1,4.55,36,25.72,25.72,0,0,1,6,19.45c4.12-9.16,13.39-15.8,23.57-15.84,10.6,0,20.39,8.27,24.64,17.6,4.51,9.9.57,21.47-7.33,28.39a26.23,26.23,0,0,1-16.15,6.47,25.9,25.9,0,0,1-9.37-1.37,32.37,32.37,0,0,1-8.72-4.15C11.08,49.4,9.58,52,11.12,53.14a35,35,0,0,0,8.59,4.15,28.68,28.68,0,0,0,26.11-3.12c9.59-6.47,15.59-18.74,12.52-30.26-1.48-5.58-4.93-10.5-9-14.49S39.87,2,34,1c-11.45-2-23,4.09-29,13.82A28.86,28.86,0,0,0,1.14,34a33.22,33.22,0,0,0,3.41,10.3A29.9,29.9,0,0,0,7.44,49a22.7,22.7,0,0,0,3.38,3.93C12.3,54.12,14.43,52,12.94,50.78Z" transform="translate(-0.84 -0.63)"/><path d="M18.61,35A174.89,174.89,0,0,0,30.1,21.19l-2.36.31A126.4,126.4,0,0,1,40.58,33.24c1.34,1.4,3.46-.72,2.12-2.12A125.25,125.25,0,0,0,29.86,19.38a1.53,1.53,0,0,0-2.35.3,164,164,0,0,1-11,13.22c-1.31,1.41.8,3.54,2.13,2.13Z" transform="translate(-0.84 -0.63)"/></svg>