<svg id="_03_Yellow" data-name="03_Yellow" xmlns="http://www.w3.org/2000/svg" viewBox="0 0 88.01 88.59"><defs><style>.cls-1{fill:#ff0;stroke:#ff0;stroke-miterlimit:10;stroke-width:3px;}</style></defs><path class="cls-1" d="M15.59,23.76c5-5.21,10.16-10.11,16.85-13C45.61,4.92,61,6.87,72.82,14.89A44.9,44.9,0,0,1,90.63,39.41a36.11,36.11,0,0,1-4,29.42A52.88,52.88,0,0,1,67.41,87.58c-4.77,2.7-10.18,5-15.71,5.33a39,39,0,0,1-17.6-3.48A47.18,47.18,0,0,1,14.63,74C5.93,62,5,47.12,10.74,33.6c.83-1.94,1.72-3.86,2.64-5.76.79-1.65,1.48-3.72,2.94-4.91" transform="translate(-5.62 -5.87)"/><path d="M26.2,55.82a26.37,26.37,0,0,1,8.09-3.27,59.3,59.3,0,0,1,9.29-1.27l4.83-.35c1.62-.13,3.24-.28,4.86-.37a33.13,33.13,0,0,1,9.48.61,23.5,23.5,0,0,1,4.34,1.44,4.52,4.52,0,0,1,2.82,2.81,2.49,2.49,0,0,1,0,1c0,.29.39.41.44.12A3.69,3.69,0,0,0,68.76,53a8.24,8.24,0,0,0-1.87-1c-.73-.3-1.47-.57-2.22-.8A29.24,29.24,0,0,0,55.1,50c-1.68,0-3.36.18-5,.31s-3.31.26-5,.37a75.71,75.71,0,0,0-9.73,1.14,28.6,28.6,0,0,0-8.42,3l-1,.58C25.72,55.59,26,56,26.2,55.82Z" transform="translate(-5.62 -5.87)"/><path d="M25.69,55a.74.74,0,0,0-.23,1,.81.81,0,0,0,.41.33.71.71,0,0,0,.6-.09l-.54-.84a.27.27,0,0,1,.24,0,.27.27,0,0,1,.16.12.29.29,0,0,1,0,.17.27.27,0,0,1-.11.17Zm1-.6c-.33.19-.66.38-1,.59l.53.84,1-.57Zm8.57-3a29.24,29.24,0,0,0-8.57,3l.49.88a28,28,0,0,1,8.28-2.94Zm9.79-1.15a75.71,75.71,0,0,0-9.79,1.15l.2,1a75.57,75.57,0,0,1,9.66-1.13Zm5-.37c-1.66.14-3.31.26-5,.37l.06,1c1.66-.11,3.32-.23,5-.37Zm5.07-.31c-1.7,0-3.39.18-5.07.31l.08,1c1.68-.13,3.35-.27,5-.31Zm9.73,1.22a29.77,29.77,0,0,0-9.73-1.22l0,1a28.73,28.73,0,0,1,9.41,1.18Zm2.26.82c-.74-.31-1.5-.58-2.26-.82l-.3,1c.74.22,1.46.49,2.18.78Zm2,1.07a8.29,8.29,0,0,0-2-1.07l-.38.92a8.23,8.23,0,0,1,1.76.95Zm1.82,4a4.17,4.17,0,0,0-1.82-4l-.6.8a3.21,3.21,0,0,1,1.44,3Zm-1.42-.29a.73.73,0,0,0,.54.84.77.77,0,0,0,.53,0,.69.69,0,0,0,.35-.5l-1-.17a.32.32,0,0,1,.16-.22.25.25,0,0,1,.2,0,.19.19,0,0,1,.13.09.24.24,0,0,1,0,.2Zm0-.78a1.74,1.74,0,0,1,0,.79l1,.15a2.94,2.94,0,0,0,0-1.18Zm-2.54-2.47a4,4,0,0,1,2.54,2.47l1-.24a5,5,0,0,0-3.11-3.15Zm-4.25-1.41a22.07,22.07,0,0,1,4.25,1.41l.42-.91a24.11,24.11,0,0,0-4.44-1.48Zm-9.33-.6a32.33,32.33,0,0,1,9.33.6l.23-1a33.84,33.84,0,0,0-9.62-.62Zm-4.85.37c1.63-.13,3.24-.28,4.85-.37l-.06-1c-1.63.09-3.26.24-4.87.37Zm-4.83.35L46,51.6l2.42-.17-.08-1L46,50.61l-2.42.17ZM34.4,53a58.94,58.94,0,0,1,9.22-1.26l-.08-1a59.78,59.78,0,0,0-9.37,1.28Zm-7.93,3.2A25.86,25.86,0,0,1,34.4,53l-.23-1a26.81,26.81,0,0,0-8.24,3.34Zm-.5-.82L25.7,55h0Zm1-.58-.25-.44h0Zm8.42-3,.1.49h0Zm9.73-1.14,0-.5h0Zm5-.37,0-.5h0Zm5-.31v.5h0Zm9.57,1.2-.15.48h0Zm2.22.8-.19.46h0Zm1.87,1-.3.4h0Zm1.63,3.48-.49-.08h0ZM70,56.4l.49.09h0Zm0-1-.49.12h0Zm-2.82-2.81-.21.46h0Zm-4.34-1.44.11-.49h0Zm-9.48-.61,0,.5h0Zm-4.86.37,0,.5h0Zm-4.83.35,0,.5h0Zm-9.29,1.27.11.49h0ZM26.2,55.82l-.27-.42h0Z" transform="translate(-5.62 -5.87)"/><path d="M26.3,55.19c-.95,1.14.31,2.47.83,3.48a12.65,12.65,0,0,1,1.18,3.85,29.2,29.2,0,0,1,.28,4.07q0,2.35,0,4.71c0,1.78-.12,3.55-.23,5.33,0,.29.44.29.45,0q.3-4.65.27-9.31A21.83,21.83,0,0,0,28,59.41a11.32,11.32,0,0,0-1-2c-.34-.53-.8-1.34-.31-1.93C26.81,55.29,26.49,55,26.3,55.19Z" transform="translate(-5.62 -5.87)"/><path d="M27,55.84a.72.72,0,0,0,0-1,.71.71,0,0,0-.47-.21.69.69,0,0,0-.56.24l.76.66a.36.36,0,0,1-.25.1.3.3,0,0,1-.18-.08.26.26,0,0,1-.07-.15.3.3,0,0,1,.07-.23Zm.36,1.32a3.25,3.25,0,0,1-.41-.81.54.54,0,0,1,.06-.53l-.77-.64A1.55,1.55,0,0,0,26,56.62a4.35,4.35,0,0,0,.53,1.08Zm1.08,2.06a11.87,11.87,0,0,0-1.08-2.06l-.84.54a10.77,10.77,0,0,1,1,1.9Zm1.12,8.1a22.26,22.26,0,0,0-1.12-8.09l-.93.36a21.23,21.23,0,0,1,1.05,7.73Zm-.27,9.34q.3-4.66.27-9.34h-1q0,4.65-.27,9.28Zm-1.45-.06a.7.7,0,0,0,.23.57.72.72,0,0,0,.48.18.73.73,0,0,0,.74-.7l-1,0a.28.28,0,0,1,.1-.2.26.26,0,0,1,.34,0,.33.33,0,0,1,.11.24Zm.23-5.31c0,1.77-.12,3.53-.23,5.31l1,.06c.11-1.78.19-3.56.23-5.35Zm0-4.69c0,1.56,0,3.12,0,4.69l1,0c0-1.57.05-3.15,0-4.73Zm-.27-4a29.32,29.32,0,0,1,.27,4l1,0a29.12,29.12,0,0,0-.29-4.14Zm-1.14-3.7a12.25,12.25,0,0,1,1.14,3.7l1-.16a12.79,12.79,0,0,0-1.23-4Zm-.76-4a1.9,1.9,0,0,0-.46,1.19,2.78,2.78,0,0,0,.24,1.12,7,7,0,0,0,.52.94,8.14,8.14,0,0,1,.46.78l.89-.46c-.14-.27-.33-.57-.5-.84s-.33-.56-.45-.82a1.82,1.82,0,0,1-.17-.69,1,1,0,0,1,.23-.58Zm.7.63-.37-.34h0Zm.31,1.93-.42.27h0Zm1,2,.46-.18h0Zm1.08,7.91h0Zm-.27,9.31-.5,0h0Zm-.45,0,.5,0h0Zm.23-5.33h0Zm0-4.71h0Zm-.28-4.07.49-.08h0Zm-1.18-3.85-.45.23h0Zm-.83-3.48-.38-.33h0Z" transform="translate(-5.62 -5.87)"/><path d="M28.48,76.81a10.28,10.28,0,0,0,3.55.65c1.29,0,2.59,0,3.88,0,2.68,0,5.36,0,8.05,0q8.09,0,16.17.15c3,.05,6.07.11,9.1.18a.23.23,0,0,0,0-.45q-8.09-.19-16.17-.28T37,77c-1.45,0-2.9,0-4.35,0a10.54,10.54,0,0,1-4-.65C28.33,76.27,28.22,76.7,28.48,76.81Z" transform="translate(-5.62 -5.87)"/><path d="M28.79,75.92a.68.68,0,0,0-.62,0,.66.66,0,0,0-.31.42.74.74,0,0,0,.42.89l.39-.92a.24.24,0,0,1,.15.29.27.27,0,0,1-.13.17.29.29,0,0,1-.28,0Zm3.83.61a10.1,10.1,0,0,1-3.83-.61l-.38.92a11,11,0,0,0,4.21.69Zm4.35,0c-1.46,0-2.9,0-4.34,0l0,1c1.46,0,2.92,0,4.36,0Zm16.09,0q-8-.08-16.09,0v1c5.36,0,10.73,0,16.08,0Zm16.18.28q-8.08-.19-16.18-.28v1q8.09.09,16.17.28Zm0,1.45a.69.69,0,0,0,.56-.24.73.73,0,0,0,0-1,.68.68,0,0,0-.54-.25v1a.28.28,0,0,1-.22-.11.25.25,0,0,1-.06-.16.24.24,0,0,1,.07-.17.28.28,0,0,1,.23-.11Zm-9.09-.18c3,.05,6.07.11,9.1.18l0-1c-3-.07-6.07-.13-9.1-.18ZM44,78q8.09,0,16.16.15l0-1Q52.06,77,44,77Zm-8.05,0c2.68,0,5.36,0,8.05,0V77c-2.69,0-5.37,0-8.05,0ZM32,78c1.3,0,2.63,0,3.9,0V77c-1.31,0-2.58,0-3.87,0Zm-3.72-.69A10.59,10.59,0,0,0,32,78l0-1a9.74,9.74,0,0,1-3.38-.61Zm.31-.89.19-.46h0Zm4,.65v-.5h0ZM37,77v-.5h0Zm16.09,0v-.5h0Zm16.17.28v.5h0Zm0,.45,0-.5h0Zm-9.1-.18v.5h0ZM44,77.45V78h0Zm-8.05,0V78h0Zm-3.88,0,0,.5h0Zm-3.55-.65-.2.46h0Z" transform="translate(-5.62 -5.87)"/><path d="M70,56.49a39.83,39.83,0,0,0-.79,4,18.4,18.4,0,0,0,0,4.13c.14,1.39.34,2.77.4,4.16s0,2.82,0,4.23c0,.78-.06,1.56-.13,2.33,0,.38-.08.75-.14,1.13,0,.18-.06.36-.1.54s-.07.28-.19.31a.23.23,0,0,0,.12.44.73.73,0,0,0,.48-.53,5.24,5.24,0,0,0,.18-1A20.85,20.85,0,0,0,70,74.22c.07-1.44.13-2.88.12-4.32a39.24,39.24,0,0,0-.33-4.33,21.65,21.65,0,0,1-.17-4.26,32.78,32.78,0,0,1,.86-4.71C70.52,56.33,70.09,56.21,70,56.49Z" transform="translate(-5.62 -5.87)"/><path d="M71,56.71a.72.72,0,0,0-.53-.85.76.76,0,0,0-.51,0,.72.72,0,0,0-.38.47l1,.24a.27.27,0,0,1-.16.19.24.24,0,0,1-.18,0,.33.33,0,0,1-.14-.09.3.3,0,0,1,0-.24Zm-.85,4.64A30.43,30.43,0,0,1,71,56.71l-1-.22a32.5,32.5,0,0,0-.87,4.78Zm.17,4.16a20.77,20.77,0,0,1-.17-4.16l-1-.08a22.55,22.55,0,0,0,.17,4.36Zm.33,4.39a39.77,39.77,0,0,0-.33-4.39l-1,.12a38.73,38.73,0,0,1,.33,4.27Zm-.12,4.34c.07-1.44.13-2.89.12-4.34h-1c0,1.43,0,2.86-.12,4.3Zm-.19,2.13a19.36,19.36,0,0,0,.19-2.13l-1,0a19.62,19.62,0,0,1-.18,2Zm-.19,1a6.41,6.41,0,0,0,.2-1l-1-.12a4.22,4.22,0,0,1-.16.87Zm-.81.86a1.25,1.25,0,0,0,.81-.86l-1-.3a.49.49,0,0,1-.07.16.15.15,0,0,1-.08,0Zm-.41-1.4a.69.69,0,0,0-.45.38.76.76,0,0,0,0,.51.74.74,0,0,0,.29.42.71.71,0,0,0,.6.09l-.28-1a.3.3,0,0,1,.24,0,.27.27,0,0,1,.11.15.22.22,0,0,1,0,.17.27.27,0,0,1-.17.16Zm-.15,0a.25.25,0,0,0,0,.07v0l0,0a.23.23,0,0,1,.16-.09l.24,1a.7.7,0,0,0,.46-.4,1.64,1.64,0,0,0,.09-.27Zm.09-.49c0,.18-.06.35-.1.51l1,.22c0-.2.07-.39.1-.57ZM69,75.33c0,.36-.08.72-.13,1.09l1,.16c.06-.39.12-.77.15-1.17ZM69.08,73c0,.78-.06,1.55-.13,2.3l1,.1c.07-.79.1-1.58.13-2.36Zm0-4.19c.06,1.39,0,2.78,0,4.19l1,0c0-1.41.1-2.84,0-4.27Zm-.4-4.13c.14,1.42.34,2.76.4,4.13l1,0c-.06-1.41-.27-2.83-.4-4.19Zm0-4.24a19.39,19.39,0,0,0,0,4.24l1-.1a17.43,17.43,0,0,1,0-4Zm.8-4.08a41.44,41.44,0,0,0-.8,4.08l1,.12a38.27,38.27,0,0,1,.78-4Zm.93.22.49.11h0Zm-.86,4.71.5,0h0Zm.17,4.26-.5.06h0Zm.33,4.33h0ZM70,74.22l-.5,0h0ZM69.8,76.3l-.5-.07h0Zm-.18,1-.48-.15h0Zm-.48.53.14.48h0ZM69,77.35l-.12-.48h0Zm.19-.31.48.13h0Zm.1-.54.49.08h0Zm.14-1.13-.5-.05h0ZM69.58,73l.5,0h0Zm0-4.23.5,0h0Zm-.4-4.16.5-.05h0Zm0-4.13-.5-.06h0Zm.79-4-.49-.12h0Z" transform="translate(-5.62 -5.87)"/><path d="M29.88,67.59a3.6,3.6,0,0,1-.36-2.07,11.68,11.68,0,0,1,.35-2.43c0-.12.05-.32.15-.41s.24,0,.3.13a2.39,2.39,0,0,1,.35,1,9.79,9.79,0,0,1,.18,2.29,5.19,5.19,0,0,1-.07,1.25c-.07.27-.35.66-.67.44s-.47.23-.23.39a.83.83,0,0,0,1-.12,1.61,1.61,0,0,0,.4-1.15A13.67,13.67,0,0,0,31.17,64a4.35,4.35,0,0,0-.38-1.32c-.17-.31-.5-.63-.88-.5s-.48.7-.56,1.07a13,13,0,0,0-.24,1.5,4.84,4.84,0,0,0,.37,3C29.64,68.07,30,67.84,29.88,67.59Z" transform="translate(-5.62 -5.87)"/><path d="M29.06,68.09a.72.72,0,0,0,1,.23.81.81,0,0,0,.33-.39.75.75,0,0,0-.07-.6l-.86.52a.28.28,0,0,1,0-.24.27.27,0,0,1,.11-.15.29.29,0,0,1,.17,0,.3.3,0,0,1,.19.12Zm-.45-3.35a5.29,5.29,0,0,0,.44,3.34l.85-.52a4.4,4.4,0,0,1-.29-2.72Zm.25-1.56a14.05,14.05,0,0,0-.25,1.56l1,.1a10.27,10.27,0,0,1,.23-1.44Zm.9-1.44a1.15,1.15,0,0,0-.73.75,5.59,5.59,0,0,0-.17.69l1,.22a3.93,3.93,0,0,1,.13-.56.46.46,0,0,1,.07-.13h0Zm1.47.74a1.79,1.79,0,0,0-.52-.59,1.05,1.05,0,0,0-1-.14l.32.94h0l.06,0a.72.72,0,0,1,.2.24ZM31.66,64a4.86,4.86,0,0,0-.43-1.47l-.88.46a4,4,0,0,1,.33,1.17Zm.12,3a14.09,14.09,0,0,0-.12-3l-1,.16a13.3,13.3,0,0,1,.1,2.76Zm-.57,1.5a2.07,2.07,0,0,0,.57-1.49l-1-.05a1.12,1.12,0,0,1-.24.8Zm-1.61.16a1.31,1.31,0,0,0,1.61-.16l-.66-.74a.52.52,0,0,1-.23.1.2.2,0,0,1-.16,0Zm.79-1.22a.68.68,0,0,0-.6-.08.75.75,0,0,0-.41.32.74.74,0,0,0,.22,1l.56-.84a.27.27,0,0,1,.11.2.2.2,0,0,1,0,.16.24.24,0,0,1-.15.12.32.32,0,0,1-.26,0Zm-.1-.15a.16.16,0,0,1,0,.09.25.25,0,0,1-.05.07s0,0,.06,0h.08l0,0-.56.82a.8.8,0,0,0,.58.15.9.9,0,0,0,.46-.22,1.28,1.28,0,0,0,.39-.65Zm.06-1.12a4.83,4.83,0,0,1-.06,1.13l1,.24a5.58,5.58,0,0,0,.09-1.37Zm-.17-2.18a9.1,9.1,0,0,1,.17,2.17l1,0a10.49,10.49,0,0,0-.19-2.41Zm-.25-.79a1.06,1.06,0,0,1,.14.3c0,.15.07.3.11.48l1-.2c0-.15-.07-.37-.13-.57a2.09,2.09,0,0,0-.32-.63Zm.43-.07a.43.43,0,0,1-.28.1.49.49,0,0,1-.17,0s0,0,0,0,0,0,0,0l.8-.6a1,1,0,0,0-.26-.25.56.56,0,0,0-.33-.11.61.61,0,0,0-.45.16Zm0,.16,0-.12a.45.45,0,0,1,0-.08s0,0,0,0,0,0-.06.06l-.67-.74a.82.82,0,0,0-.24.43c0,.06,0,.11,0,.15a.45.45,0,0,1,0,.08ZM30,65.54a11.38,11.38,0,0,1,.33-2.33l-1-.24A12.65,12.65,0,0,0,29,65.5Zm.29,1.79A3.09,3.09,0,0,1,30,65.54l-1,0a4.12,4.12,0,0,0,.43,2.35Zm-.83.49-.43.26h0Zm-.13-4.53.49.11h0Zm.56-1.07.15.48h0Zm.88.5.44-.23h0ZM31.17,64l-.49.08h0Zm.11,2.86.5,0h0Zm-.4,1.15.33.37h0Zm-1,.12.28-.41h0Zm.23-.39.28-.41h0Zm.67-.44.48.13h0Zm.07-1.25h0Zm-.18-2.29-.49.1h0Zm-.35-1-.4.3h0Zm-.3-.13.33.37h0Zm-.15.41.48.12h0Zm-.35,2.43.5,0h0Zm.36,2.07.43-.26h0Z" transform="translate(-5.62 -5.87)"/><path d="M33.56,65.75c-.11-.92-.17-1.84-.19-2.76a9.55,9.55,0,0,1,0-1.31c0-.29.21-.75.58-.68s.5.48.62.74a4.8,4.8,0,0,1,.36,1.17,5.37,5.37,0,0,1-.08,2.36,1.88,1.88,0,0,1-.2.56c-.14.22-.38.1-.57,0a.75.75,0,0,0-1,.18c-.17.24.23.47.39.23s.34,0,.43,0a1.11,1.11,0,0,0,.67.11c.41-.11.54-.58.64-.94a5.79,5.79,0,0,0-.34-4,1.57,1.57,0,0,0-.75-.85.87.87,0,0,0-1,.32,2.07,2.07,0,0,0-.28,1.29,32,32,0,0,0,.2,3.53C33.14,66,33.59,66,33.56,65.75Z" transform="translate(-5.62 -5.87)"/><path d="M32.6,65.85a.75.75,0,0,0,.76.62.73.73,0,0,0,.49-.19.72.72,0,0,0,.21-.58l-1,.1a.31.31,0,0,1,.1-.25.27.27,0,0,1,.19-.08.24.24,0,0,1,.23.2Zm-.21-3.62a33.08,33.08,0,0,0,.2,3.59l1-.12a30.92,30.92,0,0,1-.2-3.47Zm.38-1.59a2.53,2.53,0,0,0-.38,1.59h1a1.63,1.63,0,0,1,.18-1Zm1.59-.49a1.38,1.38,0,0,0-1.59.48l.79.62a.37.37,0,0,1,.44-.16Zm1,1.11a2,2,0,0,0-1-1.1l-.38.92a1.15,1.15,0,0,1,.49.6Zm.47,1.41a6.15,6.15,0,0,0-.47-1.41l-.9.42a5.53,5.53,0,0,1,.39,1.19Zm-.1,2.92a6.4,6.4,0,0,0,.1-2.92l-1,.2a5.38,5.38,0,0,1-.08,2.46Zm-1,1.29a1.17,1.17,0,0,0,.74-.62,3.14,3.14,0,0,0,.25-.67l-1-.26a2.8,2.8,0,0,1-.16.45c-.06.11-.1.13-.13.14Zm-1-.12a1.62,1.62,0,0,0,1,.12l-.26-1h-.1a1.35,1.35,0,0,1-.26-.09Zm.17-.22a.38.38,0,0,1-.25.16h-.06l.12,0,.4-.92a1.58,1.58,0,0,0-.32-.11,1.37,1.37,0,0,0-.3,0,.67.67,0,0,0-.43.27Zm-1.22-.8a.7.7,0,0,0-.1.61.73.73,0,0,0,.33.41.74.74,0,0,0,1-.22L33.11,66a.35.35,0,0,1,.19-.12.26.26,0,0,1,.16,0,.27.27,0,0,1,.12.16.3.3,0,0,1,0,.27Zm1.54-.36a1.65,1.65,0,0,0-.75-.11,1.11,1.11,0,0,0-.79.47l.82.58s0,0,0,0l0,0a.73.73,0,0,1,.27.06Zm0,.18s0,0,0,0l.08,0a.19.19,0,0,1,.1,0l0,0-.13,0-.38.92a1.24,1.24,0,0,0,.43.14.85.85,0,0,0,.4,0,.74.74,0,0,0,.35-.3Zm.14-.42-.08.27a.62.62,0,0,1,0,.14l.82.56a1.48,1.48,0,0,0,.19-.41c0-.09.07-.25.08-.3ZM34.45,63a5,5,0,0,1-.07,2.14l1,.26a5.92,5.92,0,0,0,.09-2.58Zm-.33-1a4.14,4.14,0,0,1,.33,1l1-.18a5.5,5.5,0,0,0-.4-1.29Zm-.25-.46s0,0,.06.09a3.09,3.09,0,0,1,.2.37l.9-.42a2.91,2.91,0,0,0-.27-.52,1.16,1.16,0,0,0-.71-.5Zm0,.24a.35.35,0,0,1,0-.13.33.33,0,0,1,.05-.12s0,0,0,0l-.05,0h0l.18-1a.88.88,0,0,0-.92.42,1.49,1.49,0,0,0-.25.7Zm0,1.25a8.44,8.44,0,0,1,0-1.24l-1-.12a10.67,10.67,0,0,0,0,1.38Zm.19,2.71c-.11-.9-.17-1.81-.19-2.71l-1,0c0,.94.08,1.87.19,2.81Zm-1,.07-.5.06h0v0Zm.08-4.82-.4-.31h0Zm1-.32.19-.46h0Zm.75.85.45-.21h0Zm.43,1.3-.49.1h0Zm-.09,2.69.48.13h0Zm-.64.94.13.48h0ZM34,66.29l-.2.46h0ZM33.14,66l.41.29h0Zm1-.18.19-.46h0Zm.57,0-.41-.28h0Zm.2-.56.48.13h0Zm.08-2.36-.49.09h0Zm-.36-1.17.45-.21h0ZM34,61l-.09.49h0Zm-.58.68.5.06h0Zm0,1.31h0Zm.19,2.76.5,0h0Z" transform="translate(-5.62 -5.87)"/><path d="M41.65,65.33a30.3,30.3,0,0,1-.37-3.55,9.9,9.9,0,0,1,.06-1.72,2.14,2.14,0,0,1,.57-1.32.79.79,0,0,1,1.17-.07A4.32,4.32,0,0,1,43.77,60,7.48,7.48,0,0,1,44,63.28q-.06.48-.15,1c0,.17-.06.34-.1.51a.71.71,0,0,1-.12.37c-.08.09-.23.09-.34.1l-.52,0a9.2,9.2,0,0,1-1,0c-.29,0-.29.44,0,.45s.7,0,1,0a3.05,3.05,0,0,0,1-.11.76.76,0,0,0,.44-.57c.08-.33.13-.66.19-1a9.16,9.16,0,0,0,0-3.83,5.39,5.39,0,0,0-.7-1.59,1.39,1.39,0,0,0-.58-.57,1.13,1.13,0,0,0-.77,0c-1.21.35-1.38,1.77-1.42,2.83a26.18,26.18,0,0,0,.39,4.59C41.26,65.74,41.7,65.62,41.65,65.33Z" transform="translate(-5.62 -5.87)"/><path d="M40.72,65.52a.67.67,0,0,0,.35.51.72.72,0,0,0,.53.06.74.74,0,0,0,.54-.85l-1,.17a.23.23,0,0,1,.05-.19.2.2,0,0,1,.12-.09.29.29,0,0,1,.22,0,.31.31,0,0,1,.16.23Zm-.39-4.68a27.62,27.62,0,0,0,.39,4.68l1-.14a25.72,25.72,0,0,1-.38-4.5Zm1.78-3.29A2.26,2.26,0,0,0,40.63,59a5.94,5.94,0,0,0-.3,1.84l1,0a5.05,5.05,0,0,1,.24-1.53,1.23,1.23,0,0,1,.82-.84Zm1.1,0a1.64,1.64,0,0,0-1.11,0l.3,1a.63.63,0,0,1,.43,0Zm.81.76a1.82,1.82,0,0,0-.81-.76l-.39.92a.93.93,0,0,1,.36.38Zm.76,1.73A5.86,5.86,0,0,0,44,58.34l-.83.56a4.69,4.69,0,0,1,.64,1.44Zm0,4a9.5,9.5,0,0,0,0-4l-1,.26a8.82,8.82,0,0,1,0,3.62Zm-.2,1c.09-.35.14-.71.2-1l-1-.18c-.07.35-.11.65-.19,1Zm-.74.91a1.28,1.28,0,0,0,.75-.91l-1-.24a.39.39,0,0,1-.07.17.2.2,0,0,1-.07.06Zm-1.11.15a3.45,3.45,0,0,0,1.11-.14l-.36-.94a2.69,2.69,0,0,1-.79.08Zm-1.1,0c.37,0,.73,0,1.09,0l0-1c-.34,0-.67,0-1,0Zm.06-1.45a.73.73,0,0,0,0,1.45l0-1a.26.26,0,0,1,.2.11.21.21,0,0,1,.06.15.24.24,0,0,1-.07.18.34.34,0,0,1-.25.11Zm1,0a8.22,8.22,0,0,1-1,0l-.06,1a10.23,10.23,0,0,0,1.11,0Zm.49,0-.49,0,.06,1,.55,0Zm0,.07a.23.23,0,0,1,.08-.07h-.1l.09,1,.24,0a.76.76,0,0,0,.43-.24Zm0-.13a.13.13,0,0,0,0,.06v0s0,0,0,.07,0,0,0,0,0,0,0-.06l.7.7a.79.79,0,0,0,.22-.41l0-.14a.32.32,0,0,0,0-.08Zm.1-.51c0,.18-.06.33-.1.49l1,.22c0-.18.07-.37.1-.53Zm.14-.93c0,.31-.08.62-.14.93l1,.18c.06-.33.11-.66.16-1Zm-.19-3a6.93,6.93,0,0,1,.19,3l1,.12a7.73,7.73,0,0,0-.23-3.47ZM42.69,59a3.7,3.7,0,0,1,.6,1.19l1-.3a4.94,4.94,0,0,0-.78-1.51Zm-.44.12a.68.68,0,0,1,.32-.16h.07s0,0,0,0l.78-.62a1.09,1.09,0,0,0-1-.41,1.5,1.5,0,0,0-.87.43Zm-.41,1a1.65,1.65,0,0,1,.41-1l-.68-.72A2.65,2.65,0,0,0,40.84,60Zm-.06,1.64a9.77,9.77,0,0,1,0-1.63l-1-.14a11.06,11.06,0,0,0-.06,1.81Zm.36,3.5a30.38,30.38,0,0,1-.36-3.49l-1,0a30.22,30.22,0,0,0,.37,3.61Zm-.92.19.49-.07h0Zm-.39-4.59-.5,0h0ZM42.25,58l.14.48h0Zm.77,0,.19-.46h0Zm.58.57-.42.27h0Zm.7,1.59.48-.13h0Zm0,3.83.49.09h0Zm-.19,1-.49-.12h0Zm-.44.57.18.47h0Zm-1,.11v.5h0Zm-1,0,0-.5h0Zm0-.45,0,.5h0Zm1,0,0,.5h0Zm.52,0-.05-.5h0Zm.34-.1-.35-.35h0Zm.12-.37-.49-.11h0Zm.1-.51-.49-.09h0Zm.15-1-.5-.06h0ZM43.77,60l-.48.15h0Zm-1.86-1.28-.34-.36h0Zm-.57,1.32.49.07h0Zm-.06,1.72h.5Zm.37,3.55-.5.07h0Z" transform="translate(-5.62 -5.87)"/><path d="M47.45,64.66a12.4,12.4,0,0,1-.61-3.13,10.17,10.17,0,0,1,0-1.56c0-.26.07-.52.11-.78s0-.54.23-.63.39.06.51.15a3.33,3.33,0,0,1,.46.46,4.51,4.51,0,0,1,.69,1.18,7.92,7.92,0,0,1,.47,2.94c0,.29,0,.58,0,.87s0,.32,0,.47,0,.32-.06.38a1.05,1.05,0,0,1-.4.07l-.42,0a4.06,4.06,0,0,1-.92-.11c-.28-.07-.41.37-.12.44a4.55,4.55,0,0,0,1.8.07.57.57,0,0,0,.54-.43,5.86,5.86,0,0,0,0-.94,9.88,9.88,0,0,0-.35-3.55,5.28,5.28,0,0,0-.69-1.41,2.56,2.56,0,0,0-1.14-1,.77.77,0,0,0-.66.06.94.94,0,0,0-.35.66,11.17,11.17,0,0,0-.22,1.82,12.16,12.16,0,0,0,.63,4.1C47.1,65.06,47.54,64.94,47.45,64.66Z" transform="translate(-5.62 -5.87)"/><path d="M46.53,65a.73.73,0,0,0,.9.46.76.76,0,0,0,.42-.3.71.71,0,0,0,.08-.6l-1,.3a.31.31,0,0,1,0-.24.25.25,0,0,1,.15-.12.3.3,0,0,1,.16,0,.29.29,0,0,1,.16.17Zm-.65-4.28a12.72,12.72,0,0,0,.65,4.27l1-.3a11.57,11.57,0,0,1-.61-3.93Zm.23-1.9a11,11,0,0,0-.23,1.9l1,0A10.33,10.33,0,0,1,47.09,59Zm.57-1a1.42,1.42,0,0,0-.57,1l1,.2a.94.94,0,0,1,.07-.26.19.19,0,0,1,.06-.08Zm1.08-.12a1.24,1.24,0,0,0-1.08.12l.54.84a.31.31,0,0,1,.24,0Zm1.4,1.21a3,3,0,0,0-1.39-1.2l-.32.94a2.18,2.18,0,0,1,.89.84Zm.76,1.55a6,6,0,0,0-.76-1.55l-.82.58A4.54,4.54,0,0,1,49,60.73Zm.37,3.72a10.39,10.39,0,0,0-.38-3.73l-.95.32a9.38,9.38,0,0,1,.33,3.37Zm-.06,1a6.54,6.54,0,0,0,.06-1l-1,0a5.25,5.25,0,0,1,0,.86Zm-.95.82a1.18,1.18,0,0,0,.55-.21,1,1,0,0,0,.4-.6l-1-.21s0,0,0,0h0l-.1,0Zm-2-.07a5,5,0,0,0,2,.07l-.16-1a4,4,0,0,1-1.61-.07Zm.36-1.41a.73.73,0,0,0-.88.51.74.74,0,0,0,.05.52.7.7,0,0,0,.47.38l.24-1a.35.35,0,0,1,.19.16.34.34,0,0,1,0,.19.26.26,0,0,1-.1.14.33.33,0,0,1-.23,0Zm.8.09a3.21,3.21,0,0,1-.81-.1l-.22,1a5,5,0,0,0,1,.12Zm.38,0-.38,0v1l.45,0Zm.14,0,.07,0h-.22l.1,1h.21l.18,0a.94.94,0,0,0,.26-.12Zm-.14,0v.24h0a0,0,0,0,1,0,0,.35.35,0,0,1,.15-.21l.56.84a.63.63,0,0,0,.24-.35.74.74,0,0,0,0-.23v-.17Zm0-.45a2.26,2.26,0,0,0,0,.25c0,.08,0,.15,0,.22l1,.06c0-.08,0-.17,0-.25a1.55,1.55,0,0,1,0-.22Zm0-.84c0,.28,0,.56,0,.85l1,0c0-.29,0-.59,0-.89Zm-.44-2.75a7.32,7.32,0,0,1,.44,2.75h1a8.24,8.24,0,0,0-.51-3.12Zm-.61-1a3.93,3.93,0,0,1,.62,1l.92-.38a4.85,4.85,0,0,0-.77-1.31Zm-.37-.38a2.37,2.37,0,0,1,.38.39l.76-.66a4.55,4.55,0,0,0-.54-.53Zm0-.1a.26.26,0,0,1-.13,0h0l0,0,.07,0,.6-.8a1.65,1.65,0,0,0-.36-.2.81.81,0,0,0-.67,0Zm0,.27s0-.07,0-.1V59.1a.52.52,0,0,1,0-.14s0-.05,0,0,0,.06-.11.09l-.42-.9a.76.76,0,0,0-.34.32,1,1,0,0,0-.11.3,1.2,1.2,0,0,0,0,.24c0,.07,0,.1,0,.13Zm-.1.75c0-.25.06-.5.1-.76l-1-.16c0,.26-.08.53-.11.8Zm0,1.48a9.12,9.12,0,0,1,0-1.48l-1-.12a11.28,11.28,0,0,0,0,1.64Zm.59,3a11.73,11.73,0,0,1-.59-3l-1,0A13.08,13.08,0,0,0,47,64.81Zm-.92.28-.48.15h0Zm-.63-4.1.5,0h0Zm.22-1.82-.49-.1Zm.35-.66-.27-.42h0Zm.66-.06.16-.47h0Zm1.14,1,.41-.29h0Zm.69,1.41-.48.15h0Zm.35,3.55-.5,0h0Zm0,.94.49.11h0Zm-.54.43L49.12,65h0Zm-1.8-.07-.12.49h0Zm.12-.44-.12.49h0Zm1.34.09,0,.5h0Zm.4-.07L49,64.59h0Zm.06-.38.5.05h0Zm0-.47.5,0h0Zm-.45-3.81.46-.18h0Zm-.69-1.18.38-.32h0Zm-.46-.46.3-.4h0Zm-.51-.15.21.45h0Zm-.23.63-.49-.09h0Zm-.16,2.34-.5,0h0Zm.61,3.13-.48.15h0Z" transform="translate(-5.62 -5.87)"/><path d="M53.15,65.26a13.71,13.71,0,0,1-.42-3.61c0-1,.1-2.23,1.11-2.68s1.93.79,2.32,1.64a4.63,4.63,0,0,1,.47,1.63A5.8,5.8,0,0,1,56.44,64c-.07.31-.13.63-.17,1a3.15,3.15,0,0,1-.05.43c0,.12-.19.08-.3.07l-2.13-.09c-.29,0-.29.44,0,.45l2.17.09a.61.61,0,0,0,.65-.28,1,1,0,0,0,.08-.37c0-.18,0-.35.07-.52a18.68,18.68,0,0,0,.34-2,4.6,4.6,0,0,0-.34-1.87c-.41-1.06-1.14-2.43-2.46-2.42a1.89,1.89,0,0,0-1.38.72,3.09,3.09,0,0,0-.6,1.63,12.51,12.51,0,0,0,0,2.29,12.82,12.82,0,0,0,.39,2.31C52.78,65.66,53.22,65.54,53.15,65.26Z" transform="translate(-5.62 -5.87)"/><path d="M52.23,65.49a.72.72,0,0,0,.37.48.79.79,0,0,0,.52,0,.72.72,0,0,0,.41-.29.69.69,0,0,0,.1-.58l-1,.24a.33.33,0,0,1,.05-.23.25.25,0,0,1,.14-.1.27.27,0,0,1,.19,0,.31.31,0,0,1,.17.21Zm-.4-2.38a13,13,0,0,0,.41,2.4l1-.26A12.7,12.7,0,0,1,52.83,63Zm0-2.38a13.5,13.5,0,0,0,0,2.38l1-.08a11.56,11.56,0,0,1,0-2.2Zm.71-1.89a3.56,3.56,0,0,0-.71,1.88l1,.12a2.54,2.54,0,0,1,.49-1.38Zm1.76-.91a2.4,2.4,0,0,0-1.76.9l.77.64a1.42,1.42,0,0,1,1-.54Zm2.94,2.74a6.4,6.4,0,0,0-1-1.75,2.48,2.48,0,0,0-2-1v1a1.53,1.53,0,0,1,1.19.63,5.5,5.5,0,0,1,.8,1.47Zm.37,2.07a5.15,5.15,0,0,0-.38-2.07l-.93.36a4.06,4.06,0,0,1,.31,1.67Zm-.35,2c.06-.31.13-.61.2-1a8.29,8.29,0,0,0,.15-1l-1-.06a8,8,0,0,1-.13.91c-.07.31-.15.66-.2,1Zm-.06.5c0-.18,0-.34.06-.49l-1-.18a5.39,5.39,0,0,0-.08.56Zm-.13.53a1.41,1.41,0,0,0,.13-.55l-1-.08a.52.52,0,0,1,0,.19Zm-1.12.56a1.11,1.11,0,0,0,1.12-.56l-.9-.44H56Zm-2.17-.09,2.17.09,0-1-2.17-.09Zm0-1.45a.72.72,0,0,0-.56.23.75.75,0,0,0-.18.49.72.72,0,0,0,.7.73l0-1a.32.32,0,0,1,.2.1.25.25,0,0,1,.06.17.27.27,0,0,1-.07.18.34.34,0,0,1-.23.1Zm2.13.09-1.06,0-1.07,0,0,1,1.06,0,1.07.05Zm-.2.27a.46.46,0,0,1,.17-.2.26.26,0,0,1,.15,0s0,0,0,0H56l-.09,1H56a1.07,1.07,0,0,0,.18,0,.61.61,0,0,0,.3-.09.57.57,0,0,0,.26-.33Zm0-.34c0,.09,0,.2,0,.25a.63.63,0,0,1,0,.11l1,.28a2.55,2.55,0,0,0,0-.32,1.44,1.44,0,0,0,0-.18Zm.18-1c-.07.32-.13.66-.18,1l1,.12a7.08,7.08,0,0,1,.16-.9Zm.18-1.56A5.57,5.57,0,0,1,56,63.85l1,.21a6.48,6.48,0,0,0,.2-1.86Zm-.42-1.46a4.18,4.18,0,0,1,.42,1.46l1-.07a5.07,5.07,0,0,0-.52-1.81ZM54,59.43a.67.67,0,0,1,.45,0,1.12,1.12,0,0,1,.44.27,3.72,3.72,0,0,1,.77,1.17l.91-.42a4.66,4.66,0,0,0-1-1.48,2,2,0,0,0-.86-.5,1.66,1.66,0,0,0-1.11.09Zm-.81,2.22a5.13,5.13,0,0,1,.15-1.38,1.23,1.23,0,0,1,.66-.84l-.4-.92A2.22,2.22,0,0,0,52.43,60a5.66,5.66,0,0,0-.2,1.68Zm.4,3.48a13.47,13.47,0,0,1-.4-3.48h-1a14,14,0,0,0,.44,3.74Zm-.91.25.49-.1v0h0Zm-.39-2.31.5,0h0Zm0-2.29-.5-.06h0Zm.6-1.63-.39-.32h0Zm1.38-.72v-.5h0Zm2.46,2.42-.47.18h0Zm.34,1.87.5,0h0Zm-.34,2,.49.09h0Zm-.07.52-.5,0h0Zm-.73.65,0,.5h0Zm-2.17-.09,0-.5h0Zm0-.45,0-.5h0Zm2.13.09,0-.5h0Zm.3-.07.47.16h0Zm.05-.43.49.07h0Zm.17-1,.49.11h0Zm.19-1.71-.5,0h0Zm-.47-1.63-.46.21h0ZM53.84,59l-.2-.46h0Zm-1.11,2.68h0Zm.42,3.61.48-.12h0Z" transform="translate(-5.62 -5.87)"/><path d="M63.07,66.17a9,9,0,0,1-.39-2.58,9.31,9.31,0,0,1,.08-1.29c0-.21.07-.41.11-.62a1.25,1.25,0,0,1,.16-.47c.21-.28.58.2.7.37a3,3,0,0,1,.41,1,7.28,7.28,0,0,1,.15,2.59,1.16,1.16,0,0,1-.15.55.6.6,0,0,1-.44.19,1.25,1.25,0,0,0-.89.34c-.18.23.14.55.32.32s.63-.18.92-.27a1,1,0,0,0,.66-.88,7.62,7.62,0,0,0-.14-3,3.4,3.4,0,0,0-.49-1.14c-.21-.3-.58-.7-1-.65s-.56.43-.65.77a8.48,8.48,0,0,0-.22,1.5,9.34,9.34,0,0,0,.39,3.36C62.72,66.57,63.16,66.45,63.07,66.17Z" transform="translate(-5.62 -5.87)"/><path d="M62.15,66.44a.74.74,0,0,0,.89.48.7.7,0,0,0,.51-.9l-1,.3a.34.34,0,0,1,0-.25.39.39,0,0,1,.16-.12A.27.27,0,0,1,63,66a.24.24,0,0,1,.13.15Zm-.42-3.56a9.91,9.91,0,0,0,.41,3.55l1-.29A8.62,8.62,0,0,1,62.73,63ZM62,61.3a9.68,9.68,0,0,0-.23,1.59l1,.06a8.4,8.4,0,0,1,.2-1.41ZM63,60.15a1.14,1.14,0,0,0-.77.48,2.08,2.08,0,0,0-.29.66l1,.26a1.16,1.16,0,0,1,.14-.33c0-.06.08-.07.09-.07Zm1.46.86a2.66,2.66,0,0,0-.52-.56,1.3,1.3,0,0,0-.93-.3l.12,1s.07,0,.19.09a1.53,1.53,0,0,1,.32.35Zm.56,1.31A3.74,3.74,0,0,0,64.49,61l-.82.58a2.93,2.93,0,0,1,.41,1Zm.15,3.17a8.05,8.05,0,0,0-.15-3.17l-1,.24a7,7,0,0,1,.13,2.77Zm-1,1.28a1.47,1.47,0,0,0,1-1.29l-1-.14c0,.3-.15.42-.31.47Zm-.67.1s-.05,0,.09,0l.25,0a1.55,1.55,0,0,0,.33-.06l-.3-1-.14,0a1.48,1.48,0,0,0-.27,0,1.08,1.08,0,0,0-.76.39Zm-1.11-.94a.75.75,0,0,0,.06,1,.74.74,0,0,0,.49.21.69.69,0,0,0,.55-.27l-.78-.62a.33.33,0,0,1,.25-.11.29.29,0,0,1,.2.08.2.2,0,0,1,.06.14.25.25,0,0,1,0,.19Zm1.2-.52a3.75,3.75,0,0,0-.54.09,1.2,1.2,0,0,0-.66.43l.78.62a.26.26,0,0,1,.15-.08l.18,0,.12,0,.13,0Zm.11,0,0,0h-.13l.12,1a1.13,1.13,0,0,0,.79-.4Zm.06-.31c0,.1,0,.16,0,.23s0,.08,0,.07l.8.6a1.19,1.19,0,0,0,.2-.46c0-.12,0-.25.05-.33Zm-.14-2.42a6.52,6.52,0,0,1,.14,2.41l1,.12a7.84,7.84,0,0,0-.17-2.77Zm-.34-.83a2.49,2.49,0,0,1,.34.82l1-.22a3.44,3.44,0,0,0-.48-1.16Zm.12-.35a.28.28,0,0,1-.28.11.1.1,0,0,1-.07,0l0,0a.66.66,0,0,1,.12.12.57.57,0,0,1,.1.13l.82-.58a2.28,2.28,0,0,0-.42-.45.9.9,0,0,0-.45-.21.67.67,0,0,0-.64.28Zm-.07.26a1,1,0,0,1,.08-.28l-.82-.56a1.72,1.72,0,0,0-.24.66Zm-.11.6c0-.19.07-.38.11-.6l-1-.18c0,.2-.08.42-.12.64Zm-.07,1.22a9.87,9.87,0,0,1,.07-1.22l-1-.14a10.54,10.54,0,0,0-.08,1.36ZM63.55,66a8.44,8.44,0,0,1-.37-2.44h-1a9.58,9.58,0,0,0,.41,2.72Zm-.93.25-.48.15h0Zm-.39-3.36.5,0h0Zm.22-1.5L62,61.29h0Zm.65-.77-.06-.5h0Zm1,.65-.41.29h0Zm.63,4.11-.5-.08h0Zm-.66.88.15.48h0Zm-.92.27.39.31h0Zm-.32-.32-.39-.31h0Zm.89-.34-.06-.5h0Zm.44-.19-.4-.3h0Zm.15-.55-.5-.06h0Zm-.15-2.59-.49.11h0Zm-.41-1,.42-.28h0Zm-.7-.37-.4-.3h0Zm-.16.47.49.09h0Zm-.11.62-.5-.07h0Zm.31,3.87-.48.14h0Z" transform="translate(-5.62 -5.87)"/><path d="M66.79,66.48a5,5,0,0,0-.07-1.73,2.86,2.86,0,0,1,0-1.64c.09-.18.26-.36.46-.22a1,1,0,0,1,.34.59,5.37,5.37,0,0,1,.18,1.87,4.37,4.37,0,0,1-.19,1c-.1.28-.44.18-.66.12a.23.23,0,0,0-.12.44,1.27,1.27,0,0,0,.86,0c.33-.16.4-.54.47-.87a5.74,5.74,0,0,0,0-2.37c-.11-.52-.36-1.36-1-1.31s-.86,1-.86,1.51a12,12,0,0,1,.18,2.47C66.29,66.65,66.73,66.77,66.79,66.48Z" transform="translate(-5.62 -5.87)"/><path d="M65.87,66.25a.69.69,0,0,0,.11.58.71.71,0,0,0,.42.29.74.74,0,0,0,.52-.05.7.7,0,0,0,.36-.49l-1-.2a.28.28,0,0,1,.16-.2.22.22,0,0,1,.19,0,.26.26,0,0,1,.15.1.28.28,0,0,1,0,.23Zm-.19-2.34a8.4,8.4,0,0,0,.16,1.3,3.25,3.25,0,0,1,0,1.07l1,.18a4.08,4.08,0,0,0,0-1.4,7.81,7.81,0,0,1-.15-1.17Zm1.32-2a1.3,1.3,0,0,0-1.11.87,3,3,0,0,0-.21,1.14h1a2,2,0,0,1,.13-.75c.09-.21.18-.25.26-.26Zm1.58,1.71a3.49,3.49,0,0,0-.37-1A1.3,1.3,0,0,0,67,61.89l.08,1c.08,0,.16,0,.27.2a2.21,2.21,0,0,1,.25.71Zm0,2.57a6.41,6.41,0,0,0,0-2.58l-1,.22a5.08,5.08,0,0,1,0,2.16Zm-.74,1.22a1.25,1.25,0,0,0,.57-.62,3.12,3.12,0,0,0,.17-.6l-1-.2a1.83,1.83,0,0,1-.11.4c0,.09-.07.11-.09.12Zm-1.22,0a1.76,1.76,0,0,0,1.2,0l-.4-.92a.79.79,0,0,1-.52,0ZM67,66a.71.71,0,0,0-.6.09.74.74,0,0,0-.29.42.76.76,0,0,0,0,.51.69.69,0,0,0,.45.38l.28-1a.27.27,0,0,1,.17.16.22.22,0,0,1,0,.17.27.27,0,0,1-.11.15.3.3,0,0,1-.24,0Zm0,.19a.15.15,0,0,1,0-.06l.07-.06.07,0h-.08L67,66l-.26,1a1.67,1.67,0,0,0,.51.09.91.91,0,0,0,.42-.11.78.78,0,0,0,.33-.41Zm.16-.89a4,4,0,0,1-.16.9l.94.32a4.77,4.77,0,0,0,.22-1.14Zm-.16-1.7a4.9,4.9,0,0,1,.16,1.7l1,.08a5.84,5.84,0,0,0-.2-2Zm-.14-.31a.34.34,0,0,1,0,.08,1.54,1.54,0,0,1,.09.24l1-.28a1.52,1.52,0,0,0-.54-.86Zm.27,0,0,0h0a.26.26,0,0,1-.14,0,.3.3,0,0,1-.15,0l.58-.82a.81.81,0,0,0-.43-.14.7.7,0,0,0-.4.12,1.11,1.11,0,0,0-.37.43Zm0,1.34a7.29,7.29,0,0,1-.09-.77,1.18,1.18,0,0,1,.09-.57l-.9-.44a2.22,2.22,0,0,0-.19,1,7,7,0,0,0,.11.89Zm.07,1.9a5.4,5.4,0,0,0-.07-1.9l-1,.16a4.66,4.66,0,0,1,.07,1.56Zm-.92-.2.48.12h0v0Zm-.18-2.47h0ZM67,62.39l0,.5h0Zm1,1.31-.49.1h0Zm0,2.37.49.1h0Zm-.47.87.2.46h0Zm-.74-.45-.14.48h0Zm.66-.12.47.17h0Zm.19-1,.5,0h0Zm-.18-1.87.48-.13h0Zm-.34-.59-.29.41h0Zm-.46.22-.45-.22h0Zm0,1.64-.49.08h0Zm.07,1.73.49.1h0Z" transform="translate(-5.62 -5.87)"/><path d="M43.6,76.92A8.12,8.12,0,0,1,43.19,74a9.23,9.23,0,0,1,.34-2.77,1.61,1.61,0,0,1,.73-1c.4-.16.87.23,1.12.51a4.13,4.13,0,0,1,.8,2.56c.08,1.19.14,2.38.21,3.56,0,.29.47.29.45,0-.07-1.18-.13-2.35-.21-3.53a4.73,4.73,0,0,0-.9-2.87,2,2,0,0,0-1.18-.71,1.24,1.24,0,0,0-1.15.71,6.1,6.1,0,0,0-.65,2.92A9.22,9.22,0,0,0,43.16,77C43.26,77.31,43.7,77.19,43.6,76.92Z" transform="translate(-5.62 -5.87)"/><path d="M42.69,77.21a.75.75,0,0,0,.9.46.78.78,0,0,0,.42-.31.69.69,0,0,0,.06-.61l-.94.34a.28.28,0,0,1,0-.27.25.25,0,0,1,.15-.12.3.3,0,0,1,.16,0,.29.29,0,0,1,.15.16Zm-.44-3.89a9.8,9.8,0,0,0,.44,3.89l.94-.34a8.64,8.64,0,0,1-.38-3.49ZM43,70.16a6.51,6.51,0,0,0-.73,3.16l1,.06a5.58,5.58,0,0,1,.57-2.68Zm1.63-.94a1.73,1.73,0,0,0-1.63,1l.84.53c.23-.37.46-.51.67-.48Zm1.5.89a2.52,2.52,0,0,0-1.5-.89l-.13,1a1.46,1.46,0,0,1,.87.53Zm1,3.16a5.22,5.22,0,0,0-1-3.17l-.76.66a4.24,4.24,0,0,1,.78,2.57Zm.21,3.53c-.07-1.17-.13-2.35-.21-3.53l-1,.06c.08,1.18.14,2.34.21,3.53Zm-1.45.06a.74.74,0,0,0,.74.69.71.71,0,0,0,.49-.19.69.69,0,0,0,.22-.56l-1,.06a.35.35,0,0,1,.1-.24.28.28,0,0,1,.19-.07.23.23,0,0,1,.16.06.3.3,0,0,1,.1.19Zm-.21-3.56c.08,1.19.14,2.37.21,3.56l1-.06c-.07-1.17-.13-2.37-.21-3.56ZM45,71a3.68,3.68,0,0,1,.67,2.26l1-.06a4.59,4.59,0,0,0-.93-2.86Zm-.57-.38h0a.37.37,0,0,1,.15.06A1.84,1.84,0,0,1,45,71l.74-.66a2.24,2.24,0,0,0-.63-.52,1.16,1.16,0,0,0-1-.12Zm-.44.71a3,3,0,0,1,.22-.48c.09-.14.17-.21.22-.22l-.36-.93a1.56,1.56,0,0,0-.71.62,3.22,3.22,0,0,0-.32.69ZM43.69,74A8.81,8.81,0,0,1,44,71.37l-.94-.32A9.68,9.68,0,0,0,42.69,74Zm.38,2.76A7.63,7.63,0,0,1,43.69,74l-1,0a8.61,8.61,0,0,0,.44,3.12Zm-.91.29-.47.17h0Zm-.41-3.69-.5,0h0Zm.65-2.92.42.27h0Zm1.15-.71.06-.5h0Zm1.18.71-.38.32h0Zm.9,2.87.5,0h0Zm.21,3.53-.5,0h0Zm-.45,0-.5,0h0Zm-.21-3.56-.5,0h0Zm-.8-2.56L45,71h0Zm-1.12-.51.18.47h0Zm-.73,1,.47.16h0ZM43.19,74h0Zm.41,2.94-.47.17h0Z" transform="translate(-5.62 -5.87)"/><path d="M51.77,76.9,52,73.77c.05-.52.09-1,.14-1.57A5.24,5.24,0,0,1,52.36,71a.69.69,0,0,1,.77-.49,1.24,1.24,0,0,1,.86.67,5.6,5.6,0,0,1,.4,1.26c.12.48.26,1,.39,1.42a6.24,6.24,0,0,1,.27,3.2c-.07.28.37.4.44.12A6.44,6.44,0,0,0,55.3,74c-.14-.54-.31-1.08-.45-1.62A6.78,6.78,0,0,0,54.42,71c-.37-.72-1.35-1.32-2.09-.72a1.68,1.68,0,0,0-.52,1.12c-.07.53-.1,1.06-.15,1.6-.12,1.32-.23,2.64-.35,4C51.29,77.19,51.75,77.19,51.77,76.9Z" transform="translate(-5.62 -5.87)"/><path d="M50.81,76.87a.68.68,0,0,0,.23.58.75.75,0,0,0,.49.17.73.73,0,0,0,.74-.69l-1-.06a.3.3,0,0,1,.1-.2.26.26,0,0,1,.15,0,.27.27,0,0,1,.18.07.34.34,0,0,1,.11.26Zm.35-4c-.06.67-.12,1.33-.17,2l-.18,2,1,.1c.06-.67.11-1.33.17-2l.18-2Zm.15-1.62c-.07.55-.1,1.11-.15,1.62l1,.1c.05-.57.08-1.07.14-1.58ZM52,69.84a2.22,2.22,0,0,0-.71,1.44l1,.14a1.22,1.22,0,0,1,.34-.8Zm2.84.88a2.33,2.33,0,0,0-1.15-1.08,1.6,1.6,0,0,0-1.7.2l.63.78a.64.64,0,0,1,.68-.07,1.42,1.42,0,0,1,.65.63Zm.47,1.5a7.17,7.17,0,0,0-.46-1.49l-.9.44a6.36,6.36,0,0,1,.39,1.29Zm.45,1.61c-.07-.27-.15-.55-.23-.82s-.15-.53-.22-.8l-1,.26.22.82c.08.27.16.53.23.8ZM56,77.25a6.78,6.78,0,0,0-.19-3.42l-1,.26A6,6,0,0,1,55,77Zm-1.41-.36a.69.69,0,0,0,.11.58.71.71,0,0,0,.42.29.76.76,0,0,0,.51,0,.71.71,0,0,0,.37-.47L55,77a.31.31,0,0,1,.17-.19.24.24,0,0,1,.18,0,.28.28,0,0,1,.14.1.28.28,0,0,1,0,.23Zm-.26-3a5.74,5.74,0,0,1,.26,3l1,.24a6.63,6.63,0,0,0-.27-3.45Zm-.4-1.43c.13.49.27,1,.4,1.43l1-.26c-.13-.49-.27-.94-.39-1.41Zm-.35-1.14a5.6,5.6,0,0,1,.36,1.15l1-.26a5.66,5.66,0,0,0-.44-1.37Zm-.5-.42a.76.76,0,0,1,.5.42l.88-.48A1.73,1.73,0,0,0,53.21,70Zm-.22.18a.31.31,0,0,1,.11-.16.15.15,0,0,1,.11,0l.16-1a1.19,1.19,0,0,0-1.32.8Zm-.15,1.12a4.69,4.69,0,0,1,.15-1.13l-.94-.34a5.38,5.38,0,0,0-.21,1.37Zm-.14,1.57c0-.5.09-1.08.14-1.57l-1-.1c0,.57-.09,1-.14,1.57Zm-.27,3.12c0-.52.09-1,.13-1.56s.09-1,.14-1.57l-1-.08c0,.52-.09,1-.13,1.56s-.09,1-.14,1.57Zm-1,0-.5,0h0Zm.35-4-.5,0h0Zm.15-1.6-.5-.07h0Zm.52-1.12.31.39h0Zm2.09.72.45-.22h0Zm.43,1.39-.49.12h0ZM55.3,74l-.48.13h0Zm.19,3.17.48.12h0ZM55.05,77l-.49-.12h0Zm-.27-3.2-.48.13h0Zm-.39-1.42.48-.12h0ZM54,71.13l.44-.24h0Zm-.86-.67-.08.49h0Zm-.77.49-.47-.18h0Zm-.18,1.25-.5,0h0ZM52,73.77l-.5,0h0Zm-.27,3.13-.5,0h0Z" transform="translate(-5.62 -5.87)"/><path d="M27.75,54.67a31.55,31.55,0,0,1-1-9,29.05,29.05,0,0,1,1.65-8.85,26.61,26.61,0,0,1,3.76-7,25.88,25.88,0,0,1,5.5-5.41,23.78,23.78,0,0,1,3.32-2A16.44,16.44,0,0,1,45.2,21c.38-.07.76-.12,1.15-.16s.29-.48,0-.45a14.61,14.61,0,0,0-4.59,1.24,23.47,23.47,0,0,0-3.52,1.91,25.83,25.83,0,0,0-5.84,5.3,26.84,26.84,0,0,0-4,6.8,28.86,28.86,0,0,0-2,8.93,31.72,31.72,0,0,0,.72,9.16c.08.37.18.74.27,1.11A.22.22,0,1,0,27.75,54.67Z" transform="translate(-5.62 -5.87)"/><path d="M26.83,54.91a.68.68,0,0,0,.37.47.74.74,0,0,0,.52,0,.72.72,0,0,0,.51-.89l-1,.26a.26.26,0,0,1,0-.22.26.26,0,0,1,.34-.09.3.3,0,0,1,.16.18Zm-.27-1.12c.08.37.19.77.27,1.12l1-.24c-.09-.39-.18-.73-.26-1.1Zm-.73-9.3a32.33,32.33,0,0,0,.73,9.3l1-.22a31.1,31.1,0,0,1-.71-9Zm2.08-9.09a29,29,0,0,0-2.08,9.09l1,.06a28.12,28.12,0,0,1,2-8.77ZM32,28.47a27.25,27.25,0,0,0-4.1,6.93l.92.38a26.13,26.13,0,0,1,4-6.67Zm6-5.4a26.4,26.4,0,0,0-6,5.41l.78.62a25.43,25.43,0,0,1,5.72-5.19Zm3.6-1.95A23.92,23.92,0,0,0,38,23.07l.54.84A23,23,0,0,1,42,22Zm4.75-1.28a15.33,15.33,0,0,0-4.75,1.28L42,22a13.9,13.9,0,0,1,4.43-1.2Zm.07,1.45a.73.73,0,0,0,.69-.74.71.71,0,0,0-.19-.49.68.68,0,0,0-.58-.22l.1,1a.29.29,0,0,1-.25-.11.25.25,0,0,1-.08-.18.23.23,0,0,1,0-.15.27.27,0,0,1,.19-.11Zm-1.09.15q.54-.09,1.11-.15l-.1-1c-.4,0-.79.1-1.19.17Zm-4.12,1.47a16,16,0,0,1,4.12-1.47l-.18-1A16.9,16.9,0,0,0,40.73,22Zm-3.25,2a23.37,23.37,0,0,1,3.25-2l-.44-.9a25.18,25.18,0,0,0-3.39,2Zm-5.39,5.3a25.32,25.32,0,0,1,5.39-5.3l-.58-.81a26.17,26.17,0,0,0-5.61,5.51ZM28.84,37a26.08,26.08,0,0,1,3.69-6.85l-.8-.6a27.15,27.15,0,0,0-3.83,7.11Zm-1.62,8.7A28.67,28.67,0,0,1,28.84,37l-.94-.34a29.44,29.44,0,0,0-1.68,9Zm1,8.82a30.86,30.86,0,0,1-1-8.82l-1,0a31.86,31.86,0,0,0,1.05,9.11Zm-.91.25.49-.12h0Zm-.27-1.11.49-.11h0Zm1.32-18.09.46.19h0Zm4-6.8.39.32h0Zm5.84-5.3L38,23.07h0Zm3.52-1.91L42,22h0Zm4.59-1.24,0,.5h0Zm0,.45,0-.5h0ZM45.2,21l-.09-.49h0ZM41,22.46l.22.45h0Zm-3.32,2-.29-.41h0Zm-5.5,5.41-.4-.3h0Zm-3.76,7-.47-.17h0ZM26.72,45.7h0Zm1,9-.48.13h0Z" transform="translate(-5.62 -5.87)"/><path d="M46.85,20.14a19.78,19.78,0,0,1,0-2.18c0-.37,0-.74.07-1.11a2.15,2.15,0,0,1,.15-.71.49.49,0,0,1,.51-.35,1,1,0,0,1,.63.59,8.33,8.33,0,0,1,.64,1.94A11,11,0,0,1,49,19.45a3.61,3.61,0,0,0,.24,1.07.23.23,0,0,0,.31.08.23.23,0,0,0,.08-.31,3.75,3.75,0,0,1-.2-1.1,8.6,8.6,0,0,0-.19-1.13,8.81,8.81,0,0,0-.34-1.14,4.81,4.81,0,0,0-.44-1,1,1,0,0,0-1.57-.36,2.68,2.68,0,0,0-.49,1.75,20.13,20.13,0,0,0,0,2.8C46.42,20.43,46.87,20.43,46.85,20.14Z" transform="translate(-5.62 -5.87)"/><path d="M45.88,20.2a.77.77,0,0,0,.75.66.71.71,0,0,0,.49-.19.67.67,0,0,0,.23-.56l-1,.06a.32.32,0,0,1,.11-.24.27.27,0,0,1,.18-.07.19.19,0,0,1,.14.05.24.24,0,0,1,.1.15Zm0-2.91a21.14,21.14,0,0,0,0,2.87l1-.06a19.13,19.13,0,0,1,0-2.73Zm.64-2.07A2.17,2.17,0,0,0,46,16.3a8.22,8.22,0,0,0-.1,1l1,.07A7.59,7.59,0,0,1,47,16.5a1,1,0,0,1,.26-.56Zm2.34.45a1.88,1.88,0,0,0-1-.77,1.33,1.33,0,0,0-1.34.32l.7.72a.3.3,0,0,1,.35-.08.84.84,0,0,1,.45.35Zm.49,1.08a5.11,5.11,0,0,0-.49-1.08l-.84.54a5.24,5.24,0,0,1,.39.88Zm.36,1.2a10.47,10.47,0,0,0-.36-1.21l-.94.36a7.37,7.37,0,0,1,.32,1.07Zm.2,1.19c0-.4-.11-.8-.2-1.2l-1,.24a7.33,7.33,0,0,1,.18,1.06Zm.16.95a3.21,3.21,0,0,1-.16-.95l-1,.1a4.32,4.32,0,0,0,.24,1.25Zm-.29.94a.71.71,0,0,0,.34-.47.76.76,0,0,0-.06-.48l-.91.42a.45.45,0,0,1,0-.14.37.37,0,0,1,0-.11.22.22,0,0,1,.09-.08Zm-1-.3a.7.7,0,0,0,.48.38.78.78,0,0,0,.55-.08l-.52-.86a.31.31,0,0,1,.2,0,.28.28,0,0,1,.2.17Zm-.28-1.23a4.18,4.18,0,0,0,.28,1.22l.92-.4a3,3,0,0,1-.2-.92Zm-.16-1.08a9.69,9.69,0,0,1,.16,1.08l1-.1c0-.39-.1-.78-.18-1.18Zm-.6-1.82a7.48,7.48,0,0,1,.6,1.82l1-.2a9.21,9.21,0,0,0-.68-2.06Zm-.26-.32a.33.33,0,0,1,.1.07,1.68,1.68,0,0,1,.17.26l.88-.46a2,2,0,0,0-.32-.48,1.13,1.13,0,0,0-.67-.37Zm0,.06a.16.16,0,0,1,0-.06h-.06l.16-1a1,1,0,0,0-1,.64Zm-.11.55a1.67,1.67,0,0,1,.1-.54l-.91-.42a2.64,2.64,0,0,0-.19.88ZM47.31,18c0-.35,0-.71.07-1.08l-1-.08c0,.37-.06.75-.07,1.14Zm0,2.14a18.93,18.93,0,0,1,0-2.13l-1,0a20.65,20.65,0,0,0,0,2.23Zm-1,0-.5,0v0Zm0-2.8.5,0h0Zm.49-1.75.35.36h0Zm1.57.36-.42.27h0Zm.44,1-.47.17h0Zm.34,1.14-.49.11h0Zm.19,1.13-.5,0h0Zm.2,1.1-.46.2h0Zm-.08.31-.25-.43h0Zm-.31-.08-.46.2h0ZM49,19.45l-.5.05h0Zm-.17-1.13.49-.1h0Zm-.64-1.94.45-.22h0Zm-.63-.59.08-.49h0Zm-.51.35.45.21h0Zm-.15.71-.5,0h0ZM46.81,18l.5,0h-.5Zm0,2.18.5,0h0Z" transform="translate(-5.62 -5.87)"/><path d="M49.07,20.86a20.69,20.69,0,0,1,8,3.63,58,58,0,0,1,7,5.43,24.78,24.78,0,0,1,5.31,6.86,21.17,21.17,0,0,1,2.33,8.27,19.63,19.63,0,0,1-1.42,8.77c-.14.34-.3.68-.46,1s.26.49.39.23a19.88,19.88,0,0,0,2-8.84,21.29,21.29,0,0,0-1.91-8.57,24.24,24.24,0,0,0-5-7.22,51.42,51.42,0,0,0-7.06-5.67,25.22,25.22,0,0,0-7.92-4.1c-.36-.09-.73-.17-1.09-.23S48.79,20.81,49.07,20.86Z" transform="translate(-5.62 -5.87)"/><path d="M49.27,19.94a.74.74,0,0,0-.84.54.72.72,0,0,0,.06.51.67.67,0,0,0,.49.36l.18-1a.31.31,0,0,1,.22.17.3.3,0,0,1,0,.2.26.26,0,0,1-.09.13.28.28,0,0,1-.22.05Zm1.12.24a10.8,10.8,0,0,0-1.13-.24l-.16,1c.34.06.7.14,1,.23Zm8.09,4.17a25.69,25.69,0,0,0-8.09-4.17l-.25,1a24.69,24.69,0,0,1,7.76,4Zm7.12,5.73a51.2,51.2,0,0,0-7.12-5.73l-.58.82a51.67,51.67,0,0,1,7,5.61Zm5.16,7.37a24.57,24.57,0,0,0-5.16-7.37l-.7.7a23.92,23.92,0,0,1,4.94,7.07Zm1.95,8.77a21.82,21.82,0,0,0-1.95-8.77l-.92.41a20.67,20.67,0,0,1,1.87,8.36Zm-2,9.06a20.45,20.45,0,0,0,2-9.06h-1a19.45,19.45,0,0,1-1.94,8.62Zm-1.29-.67a.73.73,0,0,0,.29,1,.74.74,0,0,0,.52.09.68.68,0,0,0,.48-.38l-.9-.44a.3.3,0,0,1,.21-.16.29.29,0,0,1,.2,0,.25.25,0,0,1,.11.13.3.3,0,0,1,0,.21Zm.45-1c-.14.33-.29.65-.45,1l.9.44c.16-.33.33-.68.47-1Zm1.38-8.55a19.07,19.07,0,0,1-1.38,8.55l.92.38a20.19,20.19,0,0,0,1.46-9ZM68.93,37a20.6,20.6,0,0,1,2.28,8.07l1-.06a21.8,21.8,0,0,0-2.39-8.47Zm-5.2-6.72A24.07,24.07,0,0,1,68.93,37l.89-.46a25.47,25.47,0,0,0-5.41-7Zm-7-5.39a57.49,57.49,0,0,1,7,5.39l.68-.74a58.44,58.44,0,0,0-7.11-5.47ZM49,21.35a20.18,20.18,0,0,1,7.76,3.55l.56-.82a21.17,21.17,0,0,0-8.15-3.71Zm.2-.92-.09.49h0Zm1.09.23.12-.48h0Zm7.92,4.1.29-.41h0ZM70.3,37.65l-.46.2h0Zm1.91,8.57h0Zm-2,8.84.45.22h0Zm-.39-.23.45.22h0Zm.46-1-.46-.19h0Zm1.42-8.77.5,0h0Zm-2.33-8.27-.45.23h0Zm-5.31-6.86-.34.37h0Zm-7-5.43-.28.41h0Zm-8-3.63-.09.49h0Z" transform="translate(-5.62 -5.87)"/><path d="M47.53,20.76a3.77,3.77,0,0,0-1.16.09.23.23,0,0,0-.16.28.24.24,0,0,0,.28.16l.27-.05h.76a.23.23,0,0,0,.23-.23A.22.22,0,0,0,47.53,20.76Z" transform="translate(-5.62 -5.87)"/><path d="M48.25,21a.72.72,0,0,0-.21-.52.74.74,0,0,0-.47-.21l-.08,1a.29.29,0,0,1-.16-.08.32.32,0,0,1-.08-.19Zm-.77.73A.69.69,0,0,0,48,21.5a.72.72,0,0,0,.21-.51h-1a.25.25,0,0,1,.07-.18.3.3,0,0,1,.24-.09Zm-.47,0h.48l.06-1H47Zm0,0h0v-1a1,1,0,0,0-.25,0Zm-.25-1h-.07l0,0-.06,0a.49.49,0,0,0-.15.15.45.45,0,0,0-.09.25.52.52,0,0,0,.09.31.54.54,0,0,0,.25.19l.13,0h.08v-1h0l.13,0a.51.51,0,0,1,.34.5.56.56,0,0,1-.08.25.64.64,0,0,1-.15.15l-.07,0,0,0h0Zm0,1h.06v-1h-.06Zm-.16,0,.21,0-.11-1-.32.06Zm-.87-.49a.75.75,0,0,0,.88.49l-.24-1a.25.25,0,0,1,.31.16Zm.52-.92a.75.75,0,0,0-.46.34.73.73,0,0,0,0,.59l.94-.34a.29.29,0,0,1,0,.25.27.27,0,0,1-.17.13Zm1.32-.11a4.5,4.5,0,0,0-1.32.1l.23,1a3.12,3.12,0,0,1,1-.08Zm.18.73h0Zm-.23.23,0-.5h0Zm-.54,0v.5h0Zm-.13,0v.5H47Zm0,0,.1.49-.1-1Zm-.06,0v-.5H46.7Zm-.27.05-.11-.49h0Zm-.28-.16.47-.16h0Zm.16-.28-.12-.49h0Z" transform="translate(-5.62 -5.87)"/></svg>