<svg id="_01_Yellow" data-name="01_Yellow" xmlns="http://www.w3.org/2000/svg" viewBox="0 0 88.01 88.59"><defs><style>.cls-1,.cls-2{fill:#ff0;}.cls-1{stroke:#ff0;stroke-miterlimit:10;stroke-width:3px;}</style></defs><path class="cls-1" d="M15.59,23.76c5-5.21,10.16-10.11,16.85-13C45.61,4.92,61,6.87,72.82,14.89A44.9,44.9,0,0,1,90.63,39.41a36.11,36.11,0,0,1-4,29.42A52.88,52.88,0,0,1,67.41,87.58c-4.77,2.7-10.18,5-15.71,5.33a39,39,0,0,1-17.6-3.48A47.18,47.18,0,0,1,14.63,74C5.93,62,5,47.12,10.74,33.6c.83-1.94,1.72-3.86,2.64-5.76.79-1.65,1.48-3.72,2.94-4.91" transform="translate(-5.62 -5.87)"/><path d="M63.22,56.62a18.11,18.11,0,0,0,1.83-8.09,19.66,19.66,0,0,0-1.74-7.88,21.88,21.88,0,0,0-4.56-6.54,46.36,46.36,0,0,0-6.43-5.17,22.74,22.74,0,0,0-7.2-3.72c-.32-.08-.65-.15-1-.21l.27,1,.26-.21a.59.59,0,0,0,.16-.59,2.84,2.84,0,0,1-.19-.89,8.75,8.75,0,0,0-.19-1.14,8.07,8.07,0,0,0-.29-1,5.33,5.33,0,0,0-.44-1,1.34,1.34,0,0,0-2-.44,2.62,2.62,0,0,0-.58,1.82,18.37,18.37,0,0,0,0,2.57c0-.1.06-.21.08-.31-.08.13-.16.26-.25.39l.53-.3a13.59,13.59,0,0,0-4.28,1.15A20.94,20.94,0,0,0,34,27.79,23.7,23.7,0,0,0,28.7,32.6,25.15,25.15,0,0,0,25,38.87,26.09,26.09,0,0,0,23.14,47a28.73,28.73,0,0,0,.65,8.32l.24,1A.61.61,0,0,0,25.21,56a27.46,27.46,0,0,1-.77-10c.09-.8.21-1.59.38-2.42a24.54,24.54,0,0,1,.63-2.42,22.2,22.2,0,0,1,1.79-4.2c.35-.64.73-1.27,1.14-1.87.2-.3.42-.6.63-.9l.15-.19a.86.86,0,0,0,.07-.1l0,0,.36-.45a23.44,23.44,0,0,1,3.05-3.09l.4-.33.21-.17c.08-.06-.06,0,0,0l.15-.11.86-.62a19.76,19.76,0,0,1,1.87-1.13,15,15,0,0,1,4.55-1.68,4.81,4.81,0,0,1,.53-.07,1.16,1.16,0,0,0,.49-.1A.82.82,0,0,0,42,25.8a1.32,1.32,0,0,0,.31-.75c0-.47-.05-.93,0-1.4s0-.91.07-1.36c0-.06,0-.13,0-.19s0-.11,0,0a1.55,1.55,0,0,1,0-.21l0-.1s.06-.16,0-.07,0-.06,0-.06,0,0,0,0h0s-.1,0,0,0,0,0,0,0c-.12-.05,0,0,0,0s0,0,0,0l0,0c.07.07,0,0,0,0a1,1,0,0,1,.1.17,5.61,5.61,0,0,1,.42,1.13,6,6,0,0,1,.15.61c0,.19.08.42.1.57a5,5,0,0,0,.24,1.32c0-.2.1-.4.16-.59l-.26.21a.61.61,0,0,0,.27,1,13.47,13.47,0,0,1,3.63,1.2,28.56,28.56,0,0,1,3.41,2,51.18,51.18,0,0,1,6.24,4.8,21.59,21.59,0,0,1,4.69,6.06,18.58,18.58,0,0,1,2,7.21,17,17,0,0,1-1.26,7.71l-.05.11-.1.22c-.07.16-.15.32-.22.47a.62.62,0,0,0,.22.83A.64.64,0,0,0,63.22,56.62Z" transform="translate(-5.62 -5.87)"/><path d="M23.65,57.44a23,23,0,0,1,7.25-2.91,54.67,54.67,0,0,1,8.37-1.12c1.45-.11,2.91-.2,4.36-.32s2.93-.25,4.39-.33a34.46,34.46,0,0,1,4.43,0,22.86,22.86,0,0,1,4.07.66c.68.17,1.35.38,2,.62l1,.36c.21.09.52.22.78.36a4.12,4.12,0,0,1,1.42,1.09h0a.61.61,0,0,1,.07.1l.12.19.11.19,0,.09s.06.14,0,.06a2.91,2.91,0,0,1,.12.39s0,.22,0,.11c0,.08,0,.16,0,.25a1.7,1.7,0,0,1,0,.22c0,.07,0,0,0,0a.78.78,0,0,0,0,.14.76.76,0,0,0,.23.59c0-.2-.1-.4-.16-.59a34.72,34.72,0,0,0-.73,3.79,16.68,16.68,0,0,0,0,3.67c.12,1.22.3,2.44.35,3.67s0,2.5,0,3.75c0,.68,0,1.37-.11,2,0,.34-.06.64-.11,1,0,.17,0,.33-.09.5,0,0,0,0,0,0s0,.07,0,0,0,.06,0,0l.1-.06a.64.64,0,0,0-.43.75.63.63,0,0,0,.75.43l.16,0a.61.61,0,0,0-.16-1.2q-7.21-.18-14.44-.25t-14.36,0c-1.31,0-2.62,0-3.93,0a9.16,9.16,0,0,1-3.55-.57.61.61,0,0,0-.75.75s0,0,0,0a.61.61,0,0,0,1.2-.16q.27-4.16.24-8.31a19.76,19.76,0,0,0-1-7.17,10.2,10.2,0,0,0-.94-1.83,2.65,2.65,0,0,1-.41-.8l0-.12c0-.1,0,.08,0,0v-.21c0,.1,0-.08,0-.13,0,.11.09-.12,0,0a.62.62,0,0,0,0-.86.61.61,0,0,0-.86,0A1.86,1.86,0,0,0,23,58.15c.24.6.65,1.11.95,1.69a7.59,7.59,0,0,1,.34.73,8.51,8.51,0,0,1,.29.85A13.51,13.51,0,0,1,25,63.18c0,.16,0,.24.05.34s0,.31.05.47.05.61.07.91c0,.61.05,1.22.06,1.83,0,1.4,0,2.8,0,4.2q-.06,2.4-.21,4.8l1.2-.16v0l-.75.75a9.5,9.5,0,0,0,3.3.6c1.16,0,2.32,0,3.48,0,2.42,0,4.84,0,7.26,0q7.22,0,14.44.13c2.71,0,5.42.1,8.12.16-.05-.4-.11-.8-.16-1.2l-.16,0c.11.39.22.78.32,1.18.72-.22.8-1,.88-1.66s.14-1.33.18-2c.06-1.33.12-2.67.1-4,0-2.64-.69-5.25-.41-7.9a19.63,19.63,0,0,1,.35-2.08l.24-1.09a4.13,4.13,0,0,0,.13-.61.78.78,0,0,0-.23-.59c.05.2.1.4.16.59a3.75,3.75,0,0,0-1.64-3.58,8.38,8.38,0,0,0-1.77-1c-.65-.27-1.32-.51-2-.72a26.79,26.79,0,0,0-8.68-1.09c-1.51,0-3,.16-4.51.28l-4.45.34a68.88,68.88,0,0,0-8.82,1,26.15,26.15,0,0,0-7.63,2.72l-.87.52a.61.61,0,1,0,.62,1Z" transform="translate(-5.62 -5.87)"/><path d="M27.1,67.42,27,67.2c-.05-.09,0,.13,0,0l0-.11-.06-.24s0-.07,0-.11,0,0,0,0,0-.06,0-.08a6.73,6.73,0,0,1,0-1.1c0-.19,0-.37,0-.55s0-.11,0-.16,0,.09,0,0,0-.22,0-.32.07-.39.12-.58l.06-.25,0-.13a.64.64,0,0,0,0-.07c0,.07,0,.08,0,0s0,0-.06,0a.33.33,0,0,1-.29.05s.09,0,0,0,0,0,0,0,0,0,0,0a.61.61,0,0,1,.07.1s.06.13,0,0l.06.17c.05.16.1.33.14.5a2.56,2.56,0,0,1,.05.27s0,.08,0,.12c0,.2,0-.12,0,.08a13.84,13.84,0,0,1,0,2.23s0,.09,0,.14,0-.07,0,.06l0,.11s0,0,0,0,0-.06,0,0-.1.1,0,0l-.05,0s0,0,0,0-.08,0-.08,0l0,0s0,0,.05,0c-.11,0,0,0,0,0h0l.08.07a.27.27,0,0,0-.08-.07l-.2-.18a.62.62,0,0,0-.86,0,.61.61,0,0,0,0,.86,1.9,1.9,0,0,0,.71.48A1.24,1.24,0,0,0,28.18,68a3.49,3.49,0,0,0,.22-1.51,12.9,12.9,0,0,0,0-1.39,7.1,7.1,0,0,0-.25-1.45,1.6,1.6,0,0,0-.94-1.2.9.9,0,0,0-.87.2,1.35,1.35,0,0,0-.36.69,13.61,13.61,0,0,0-.28,1.55A5,5,0,0,0,26,68.06a.62.62,0,0,0,.83.22A.66.66,0,0,0,27.1,67.42Z" transform="translate(-5.62 -5.87)"/><path d="M30.44,66c-.09-.82-.15-1.64-.17-2.47a9.14,9.14,0,0,1,0-1.17c0,.11,0,0,0,0s0-.09,0-.14-.06.1,0,0h0l.07-.07c-.05.07-.06,0,0,0s-.08,0,0,0h0c-.11-.06.13.07-.06,0,0,0,.09.07,0,0l.07.06s.1.12.05.05,0,.06,0,.06a.56.56,0,0,0,.05.08l.12.24c.08.16,0-.06,0,0s0,.07,0,.11a2.25,2.25,0,0,1,.08.24,3.53,3.53,0,0,1,.14.56c0,.08,0,.15,0,.23,0-.12,0,0,0,0a.71.71,0,0,1,0,.14,4.47,4.47,0,0,1,0,.52,2.83,2.83,0,0,1,0,.29s0,.24,0,.12a5,5,0,0,1-.11.56c0,.09-.05.18-.08.28l0,.1c0-.13,0,0,0,0s0,0,0,0,.1,0,.16,0h0l-.11,0-.16-.06a1.06,1.06,0,0,0-1.31.35l1.14.31a2.3,2.3,0,0,1,0-.36.61.61,0,0,0-1.22,0v.35a.62.62,0,0,0,.45.59.65.65,0,0,0,.69-.28l-.05.06c-.19.09-.23.12-.13.09-.15,0-.07,0,0,0s-.14,0,0,0l.13,0a1.28,1.28,0,0,0,.82.09c.53-.14.73-.65.86-1.13A5.7,5.7,0,0,0,32,63.18a5.51,5.51,0,0,0-.43-1.26,1.76,1.76,0,0,0-.91-1,1.16,1.16,0,0,0-1.33.44,2.2,2.2,0,0,0-.33,1.4A27.76,27.76,0,0,0,29.22,66a.62.62,0,0,0,.61.61C30.13,66.57,30.48,66.32,30.44,66Z" transform="translate(-5.62 -5.87)"/><path d="M37.68,65.5c-.08-.58-.14-1-.21-1.55s-.11-1.1-.12-1.65c0-.28,0-.55,0-.83,0-.13,0-.25,0-.38a.88.88,0,0,1,0-.17c0-.07,0,0,0,0s0-.08,0-.11,0-.23.08-.34l.06-.16c0,.09,0-.06,0-.08l.08-.13c0-.06,0,0,0,0l0-.06.11-.11.06,0s-.06,0,0,0l.13-.07h0l.07,0c.06,0,.13,0,0,0h.13c-.08,0,0,0,0,0h0c.06,0,0,0,0,0l0,0,0,.06s0-.08,0,0,.08.11.11.17a2,2,0,0,1,.18.32l.08.15,0,.09a5.39,5.39,0,0,1,.22.68,3.4,3.4,0,0,1,.07.34l0,.17c0,.07,0,0,0,0s0,.08,0,.11a6.45,6.45,0,0,1,0,.76c0,.28,0,.55,0,.82,0,.07,0,.13,0,.2s0,.18,0,.1c0,.14,0,.28-.07.43s-.1.59-.17.88c0,0,0,0,0,.07s0,0,0,0l.06-.06s.1,0,.05,0l-.08,0c.07,0,0,0,0,0l-.23,0c-.31,0-.62,0-.94,0h-.1c-.14,0,0,0,0,0l-.07,0-.16,0A.61.61,0,1,0,37,66.26a3.83,3.83,0,0,0,1.47.1,2.18,2.18,0,0,0,1-.21,1.27,1.27,0,0,0,.5-.89,10.35,10.35,0,0,0,.2-3.88,5.39,5.39,0,0,0-.57-1.65c-.32-.59-.77-1.15-1.51-1.09a1.92,1.92,0,0,0-1.49,1,3.84,3.84,0,0,0-.42,1.8,22.6,22.6,0,0,0,.35,4.42.61.61,0,0,0,.75.43A.68.68,0,0,0,37.68,65.5Z" transform="translate(-5.62 -5.87)"/><path d="M42.28,65.05c-.09-.28-.18-.57-.25-.85a9.62,9.62,0,0,1-.1-4.4.7.7,0,0,1,.17-.38c.23-.21.61,0,.85.17a4.55,4.55,0,0,1,1.32,2.62,13.57,13.57,0,0,1,.07,3,.41.41,0,0,1-.06.24.35.35,0,0,1-.23.1,3.78,3.78,0,0,1-1.57-.05Z" transform="translate(-5.62 -5.87)"/><path d="M42.86,64.89a14,14,0,0,1-.38-1.41l-.06-.31a.78.78,0,0,1,0-.16c0-.12,0,.14,0-.06s0-.5-.06-.76a9.19,9.19,0,0,1,0-1.39,5.73,5.73,0,0,1,.09-.59l.06-.3s0-.16,0-.08,0,0,0,0a.23.23,0,0,1-.08.09s-.21,0-.1,0h0c.14,0-.09-.07,0,0l.13.08c-.1-.06,0,0,0,0l.12.11.22.24,0,0,.09.13a1.76,1.76,0,0,1,.14.23c0,.08.09.16.13.24l.07.15a.42.42,0,0,1,0,.1v0a7,7,0,0,1,.33,1.19s0,.09,0,.13,0,.1,0,.1l0,.32a6.77,6.77,0,0,1,0,.78c0,.26,0,.52,0,.78s0,.28,0,.42,0,.11,0,.16a.49.49,0,0,1,0,.12.35.35,0,0,1,.26-.33l-.1,0-.12,0q.09,0,0,0l-.38,0-.38,0c-.2,0,.11,0-.09,0l-.25,0,.36.28-.2-.44a.62.62,0,0,0-.83-.22.62.62,0,0,0-.22.83l.15.32,0,.12a.76.76,0,0,0,.58.33,4.26,4.26,0,0,0,1,.08,2,2,0,0,0,1-.21c.39-.24.4-.68.42-1.09s0-.63,0-.94A10.5,10.5,0,0,0,44.81,62a4.94,4.94,0,0,0-1.49-2.88,1.63,1.63,0,0,0-.85-.42,1,1,0,0,0-1,.46,2.41,2.41,0,0,0-.25.88,8.69,8.69,0,0,0-.12,1,11.13,11.13,0,0,0,.56,4.13.63.63,0,0,0,.75.43A.61.61,0,0,0,42.86,64.89Z" transform="translate(-5.62 -5.87)"/><path d="M47.37,65.59A12.58,12.58,0,0,1,47,62.24a4,4,0,0,1,.27-1.64,1.6,1.6,0,0,1,1.25-1,1.58,1.58,0,0,1,1.16.46,3.42,3.42,0,0,1,.71,1A4.62,4.62,0,0,1,50.9,63a21.54,21.54,0,0,1-.37,2.5.42.42,0,0,1-.12.33.45.45,0,0,1-.26,0l-2-.08Z" transform="translate(-5.62 -5.87)"/><path class="cls-2" d="M48,65.43a11.38,11.38,0,0,1-.31-1.72,13.83,13.83,0,0,1,0-1.82l0-.39c0-.1,0,.08,0,0a.28.28,0,0,0,0-.09,1.55,1.55,0,0,1,0-.23l.06-.2,0-.08s0,.08,0,0a2.38,2.38,0,0,1,.18-.3c-.07.11,0,0,.05,0l.12-.12s.07-.06,0,0,0,0,0,0,.11-.06.17-.1,0,0,0,0l.09,0,.14,0c-.13,0,0,0,.07,0h.08c-.12,0,0,0,0,0a1,1,0,0,1,.18.06c-.1,0,0,0,.08,0a.91.91,0,0,1,.16.11c-.08-.06.05.05.07.07l.14.15.07.09s0-.06,0,0,.16.24.23.37a3.59,3.59,0,0,1,.17.34l.09.19s0,.11,0,0l0,.11a4.45,4.45,0,0,1,.24.81s0,.08,0,.12,0-.09,0,0,0,.14,0,.21a3.53,3.53,0,0,1,0,.46s0,.21,0,.11l0,.18-.09.46c-.06.29-.13.59-.17.88a4.1,4.1,0,0,0-.06.49c0,.09,0-.11,0,0s0,0,0,0l.11-.09a.18.18,0,0,1,.15-.09h-.06l-1.07,0-.54,0h-.27s-.12,0,0,0h0c-.24-.08-.5-.12-.75-.18a.61.61,0,1,0-.32,1.18l.75.19a5.65,5.65,0,0,0,1,.06l1.07,0a1.33,1.33,0,0,0,.56-.07.84.84,0,0,0,.48-.57,2.84,2.84,0,0,0,.06-.5c0-.1,0,.08,0,0s0-.08,0-.12,0-.18.05-.27a7.9,7.9,0,0,0,.27-2,5.71,5.71,0,0,0-.61-2.06,3.28,3.28,0,0,0-1.33-1.54,1.92,1.92,0,0,0-2,.07A2.65,2.65,0,0,0,46.44,61a8.5,8.5,0,0,0-.09,2.36,12.64,12.64,0,0,0,.38,2.44.62.62,0,0,0,.75.43A.7.7,0,0,0,48,65.43Z" transform="translate(-5.62 -5.87)"/><path d="M56.26,66.41a8.24,8.24,0,0,1-.15-4.24c.06-.25.2-.55.45-.54a.46.46,0,0,1,.25.1,2.38,2.38,0,0,1,.85,1.55,6.89,6.89,0,0,1,.08,2.31.92.92,0,0,1-.24.58c-.31.27-.89.07-1.13.41Z" transform="translate(-5.62 -5.87)"/><path class="cls-2" d="M56.85,66.25a9.1,9.1,0,0,1-.26-1.15s0-.08,0-.12,0,0,0,0l0-.31a5.82,5.82,0,0,1,0-.59c0-.18,0-.35,0-.53s0-.21,0-.31,0-.08,0-.12,0-.2,0-.08c0-.18.06-.37.1-.55a1.6,1.6,0,0,1,0-.21s.05-.14,0,0,0-.05,0-.06-.09.1,0,0a.26.26,0,0,1-.13.08h-.08l-.15,0s.1.06.12.07-.09-.1,0,0l.07.07.07.07c.09.1,0-.07,0,0l.12.19s.11.23.06.11c.06.16.11.32.16.49a4.59,4.59,0,0,1,.1.51,4.47,4.47,0,0,1,.05.48,7.11,7.11,0,0,1,0,1.22s0,.13,0,0l0,.15,0,.1c0,.07,0,.06,0,0a.08.08,0,0,0,0,0l0-.05h0s0,0,0,0l0,0c-.06,0-.16.07-.23,0s.15,0,0,0l-.25,0-.2,0a1.12,1.12,0,0,0-.56.34l1,.12-.12-.17a.62.62,0,0,0-.83-.22.61.61,0,0,0-.22.83l.12.17a.65.65,0,0,0,.45.29.57.57,0,0,0,.51-.17c.09-.12,0,0,0,0l0,0,0,0a1,1,0,0,1,.2,0s-.12,0,0,0l.25,0a1.11,1.11,0,0,0,.25-.05,1.26,1.26,0,0,0,.87-1.07,7.36,7.36,0,0,0-.12-2.88,3.48,3.48,0,0,0-.48-1.12A1.46,1.46,0,0,0,56.45,61a1.18,1.18,0,0,0-.92,1,7.92,7.92,0,0,0-.21,1.45,8.85,8.85,0,0,0,.36,3.11.63.63,0,0,0,.75.43A.64.64,0,0,0,56.85,66.25Z" transform="translate(-5.62 -5.87)"/><path d="M59.59,66.58c.19-1-.34-1.94-.08-2.87.07-.25.23-.51.49-.54s.55.34.65.66a4.9,4.9,0,0,1,0,2.71.7.7,0,0,1-.08.2c-.16.23-.51.18-.78.1Z" transform="translate(-5.62 -5.87)"/><path class="cls-2" d="M60.17,66.74A5,5,0,0,0,60.1,65l0-.17s0-.06,0-.09,0,0,0,0,0-.26,0-.39v-.17s0-.07,0-.11,0,.09,0,0a1,1,0,0,1,0-.17l0-.09c0-.07,0,.08,0,0l0-.06s.06,0,0,0c.09-.06-.09,0,0,0l-.05,0c.07,0-.08,0-.09,0s0,0,0,0-.1,0,0,0-.11-.09,0,0,.07.06,0,0,0,0,0,.07.06.15,0,0l.06.19a2.74,2.74,0,0,1,.09.39l0,.18c0,.07,0,0,0,0s0,.1,0,.16a4.71,4.71,0,0,1,0,.84s0,.06,0,.09,0,.15,0,0a2.07,2.07,0,0,1,0,.22s-.1.45-.11.45.06-.08.06-.09,0,0,0,0l0,0c-.07,0,.13,0,0,0h-.07c-.08,0,.1,0,0,0l-.2,0,.27.16L60,66.13a.6.6,0,0,0-.86,0,.62.62,0,0,0,0,.86,1,1,0,0,0,.57.44,1.3,1.3,0,0,0,1.23-.22A2,2,0,0,0,61.36,66a5.24,5.24,0,0,0,0-1.25c-.06-.72-.2-1.77-.93-2.14a1,1,0,0,0-1.27.27,2,2,0,0,0-.41,1.18,5.59,5.59,0,0,0,.13,1.29.68.68,0,0,1,0,.14s0,.19,0,.07l0,.28a2.62,2.62,0,0,1,0,.28.66.66,0,0,1,0,.14.19.19,0,0,1,0,.08c0-.07,0-.07,0,0a.63.63,0,0,0,.43.75A.59.59,0,0,0,60.17,66.74Z" transform="translate(-5.62 -5.87)"/><path d="M39.42,75.87a4.84,4.84,0,0,1-.19-.65l-.06-.3s0-.08,0-.12a.35.35,0,0,1,0-.13c0,.06,0,0,0,0a11.38,11.38,0,0,1-.06-1.31c0-.44,0-.87.08-1.31l0-.3s0,.12,0,0l0-.16a5.66,5.66,0,0,1,.15-.59l0-.08c0,.08,0-.08,0-.08s.08-.16.13-.24l.09-.14c-.07.09,0,0,0,0a.63.63,0,0,1,.12-.11c-.1.08.07,0,0,0l.05,0h0q-.09,0,0,0l.13,0c-.12-.05,0,0,0,0l.09,0s.15.11,0,0l.22.21.07.08c-.09-.1,0,0,0,0l.14.22a2.4,2.4,0,0,1,.11.23c-.06-.13,0,0,0,0a1.09,1.09,0,0,1,.05.17c.06.21.1.42.14.63s0-.14,0,.05,0,.1,0,.15l0,.37c.07,1.06.13,2.13.19,3.19l.61-.61-2.54.12-.36,0a.62.62,0,0,0-.61.61.61.61,0,0,0,.61.61l2.54-.12.36,0a.62.62,0,0,0,.61-.61c-.06-1-.12-2.11-.19-3.16a4.64,4.64,0,0,0-.93-2.86,2.12,2.12,0,0,0-1.34-.75,1.51,1.51,0,0,0-1.38.84,5.83,5.83,0,0,0-.63,2.82,8.73,8.73,0,0,0,.38,3.41.63.63,0,0,0,.75.43A.59.59,0,0,0,39.42,75.87Z" transform="translate(-5.62 -5.87)"/><path d="M46.14,76c.14-1.56.27-3.12.41-4.68A1.52,1.52,0,0,1,47,70.1a1.06,1.06,0,0,1,1.34.35,3.63,3.63,0,0,1,.53,1.42c.34,1.4,1,2.84.59,4.24Z" transform="translate(-5.62 -5.87)"/><path class="cls-2" d="M46.75,76c.08-.94.16-1.87.25-2.81l.12-1.4c0-.2,0-.41.05-.61s0,.13,0,0,0-.06,0-.1.05-.18.07-.28,0,.07,0,0l.06-.1c-.06.11,0,0,0,0s.11-.07,0,0l0,0c-.09,0,0,0,.05,0h0c-.08,0-.1,0-.05,0h.07c.07,0,.06,0,0,0s.27.09.12,0a.82.82,0,0,1,.2.12c-.11-.07,0,0,0,0a.6.6,0,0,0,.08.08c.1.1,0-.07,0,0L48,71s0,.07.05.1,0-.11,0,.06l.09.27c.06.2.1.4.15.61.1.43.23.85.35,1.27.06.22.12.44.17.67s0,.24.08.36l0,.18s0,.2,0,.08a5.85,5.85,0,0,1,0,.73.49.49,0,0,1,0,.12s0,.25,0,.14c0,.12,0,.24-.07.36l.59-.45-2.91-.12-.42,0a.62.62,0,0,0-.61.61.63.63,0,0,0,.61.61l2.91.12.42,0a.63.63,0,0,0,.59-.45,6.08,6.08,0,0,0-.17-3.05c-.13-.49-.28-1-.4-1.45a5.82,5.82,0,0,0-.43-1.34,1.69,1.69,0,0,0-2.51-.73A1.84,1.84,0,0,0,46,70.87c-.07.51-.1,1-.15,1.54-.1,1.18-.21,2.36-.31,3.54a.61.61,0,0,0,.61.61A.62.62,0,0,0,46.75,76Z" transform="translate(-5.62 -5.87)"/><rect class="cls-2" x="36.72" y="13.3" width="30" height="58"/><path d="M82.34,55.47a31.06,31.06,0,0,0-2.45-9.17A36.28,36.28,0,0,0,68.51,32.17a39.2,39.2,0,0,0-18-7.52,38.69,38.69,0,0,0-8.19-.32v.43a39,39,0,0,1,16.95,2.69C70.59,32,79.92,42.1,81.73,54.13a48.66,48.66,0,0,1,.17,10.79,11.56,11.56,0,0,1-.66,3.55c-1.16,2.79-4.24,4.26-7.18,4.94-7,1.6-14.19.16-21-2a.37.37,0,0,1-.11.37l-.05,0h0a55.94,55.94,0,0,0,11.42,2.54,28.14,28.14,0,0,0,11.11-.86c3-.92,5.81-2.77,6.56-6a18.46,18.46,0,0,0,.36-2.87c.07-1,.13-2,.16-3A42.82,42.82,0,0,0,82.34,55.47Z" transform="translate(-5.62 -5.87)"/><path d="M48.87,62.48a6.41,6.41,0,0,1,4.59.47Z" transform="translate(-5.62 -5.87)"/><path d="M49,62.91a5.91,5.91,0,0,1,4.25.43.44.44,0,0,0,.6-.16.45.45,0,0,0-.16-.6,6.91,6.91,0,0,0-4.93-.51A.44.44,0,0,0,49,62.91Z" transform="translate(-5.62 -5.87)"/><path d="M48.68,61.83a.61.61,0,0,0-.43.34.72.72,0,0,0,0,.5.74.74,0,0,0,.28.4.67.67,0,0,0,.56.08l-.14-.48a.15.15,0,0,1-.14,0,.23.23,0,0,1-.08-.12.21.21,0,0,1,0-.14.14.14,0,0,1,.1-.08Zm5.1.53a7.13,7.13,0,0,0-5.11-.53l.14.48a6.69,6.69,0,0,1,4.75.49Zm.27.94a.7.7,0,0,0-.26-.94l-.24.44a.21.21,0,0,1,.06.26Zm-.94.26a.7.7,0,0,0,.94-.26l-.44-.24a.18.18,0,0,1-.26.06Zm-4.06-.41a5.65,5.65,0,0,1,4.06.41l.23-.44a6.13,6.13,0,0,0-4.43-.45Zm-.31-1.08.06.24h0Zm4.93.51.12-.22h0Zm.16.6-.22-.12h0Zm-.6.16.12-.22h0ZM49,62.91l.07.24h0Z" transform="translate(-5.62 -5.87)"/><path d="M47,65a5.43,5.43,0,0,1,3.36.76Z" transform="translate(-5.62 -5.87)"/><path d="M47,65.44a5.05,5.05,0,0,1,3.13.7.44.44,0,0,0,.44-.76A5.92,5.92,0,0,0,47,64.56a.44.44,0,1,0,0,.88Z" transform="translate(-5.62 -5.87)"/><path d="M46.28,65a.78.78,0,0,0,.21.48.62.62,0,0,0,.52.2l-.06-.5a.12.12,0,0,1-.1,0,.26.26,0,0,1-.07-.15Zm.67-.7a.7.7,0,0,0-.67.69h.5a.2.2,0,0,1,.21-.19Zm3.73.86A6.2,6.2,0,0,0,47,64.31l0,.5a5.64,5.64,0,0,1,3.43.78ZM50,66.36a.67.67,0,0,0,.55.06.71.71,0,0,0,.38-.32.72.72,0,0,0,.09-.48.63.63,0,0,0-.32-.45l-.26.43a.16.16,0,0,1,.09.11.19.19,0,0,1,0,.14.21.21,0,0,1-.11.1.17.17,0,0,1-.13,0Zm-3-.67a4.78,4.78,0,0,1,3,.66l.26-.42A5.34,5.34,0,0,0,47,65.19ZM46.53,65h0Zm.44-.44,0,.25h0Zm3.58.82-.13.21h0Zm-.44.76-.13.21h0ZM47,65.44l0-.25h0Z" transform="translate(-5.62 -5.87)"/><path d="M46,25.12a38.54,38.54,0,0,1,18.61,5.46,36.82,36.82,0,0,1,12.62,12.5,31.46,31.46,0,0,1,3.44,8.1,37,37,0,0,1,.95,10.9c0,1-.1,2-.17,3A12.44,12.44,0,0,1,81,67.76a6.44,6.44,0,0,1-2.64,3.39,13,13,0,0,1-4.06,1.73,25.53,25.53,0,0,1-5.43.74,40.52,40.52,0,0,1-11.28-1.39c-1.84-.46-3.65-1-5.45-1.61s-3.59-1.28-5.45-1.72a13.48,13.48,0,0,0-4.38-.36v.21a14.21,14.21,0,0,1,3.51.14A19.22,19.22,0,0,1,49,69.8L52.72,71a.46.46,0,0,1,.31.36c6.84,2.19,14.08,3.63,21,2,2.94-.68,6-2.15,7.18-4.94a11.45,11.45,0,0,0,.66-3.55,48.64,48.64,0,0,0-.17-10.79C79.92,42.1,70.59,32,59.29,27.45a39,39,0,0,0-16.95-2.69v.46C43.56,25.13,44.78,25.09,46,25.12Z" transform="translate(-5.62 -5.87)"/><path d="M42.37,25.59c1.21-.09,2.41-.12,3.63-.1l0-.74a35.21,35.21,0,0,0-3.71.1ZM42,24.76v.46h.75v-.46ZM59.43,27.1a39.28,39.28,0,0,0-17.12-2.71l0,.74A38.7,38.7,0,0,1,59.15,27.8ZM82.1,54.05C80.27,41.89,70.83,31.64,59.43,27.1l-.28.7c11.2,4.46,20.42,14.51,22.21,26.37Zm.17,10.88a48.88,48.88,0,0,0-.17-10.88l-.74.12a49,49,0,0,1,.17,10.7Zm-.68,3.66a12,12,0,0,0,.68-3.66l-.74-.06a11.23,11.23,0,0,1-.64,3.44Zm-7.45,5.17c3-.69,6.21-2.2,7.45-5.17l-.7-.28c-1.08,2.61-4,4-6.92,4.71Zm-21.23-2c6.86,2.19,14.18,3.66,21.23,2L74,73c-6.85,1.58-14,.17-20.84-2Zm-.3-.36,0,0a.08.08,0,0,1,0,.05l.74-.14a.83.83,0,0,0-.57-.65Zm-3.73-1.2,1.86.6,1.86.6.23-.72L51,70l-1.86-.6Zm-3.09-.9a18.55,18.55,0,0,1,3.09.9l.24-.72a19.75,19.75,0,0,0-3.22-.92Zm-3.41-.14a14,14,0,0,1,3.41.14l.11-.74a14.4,14.4,0,0,0-3.6-.14ZM42,68.54v.21h.75v-.21Zm4.85,0a13.68,13.68,0,0,0-4.51-.37l.07.74a13.35,13.35,0,0,1,4.26.35Zm5.48,1.72c-1.79-.59-3.6-1.28-5.48-1.72l-.18.72c1.84.44,3.59,1.11,5.42,1.72Zm5.42,1.61c-1.83-.46-3.63-1-5.42-1.61l-.24.72c1.81.6,3.63,1.15,5.48,1.61Zm11.18,1.38a40.65,40.65,0,0,1-11.18-1.38l-.18.72A40.4,40.4,0,0,0,68.91,74Zm5.35-.73a25.43,25.43,0,0,1-5.35.73l0,.74a25.73,25.73,0,0,0,5.51-.75Zm3.94-1.68a12.78,12.78,0,0,1-3.94,1.68l.18.72a13.29,13.29,0,0,0,4.18-1.78Zm2.49-3.19a6.08,6.08,0,0,1-2.49,3.19l.42.62a6.84,6.84,0,0,0,2.79-3.59ZM81.09,65a11.93,11.93,0,0,1-.42,2.64l.72.22a13,13,0,0,0,.44-2.8Zm.16-3c0,1-.09,2-.16,3l.74.06c.07-1,.13-2,.17-3Zm-.93-10.79a36.86,36.86,0,0,1,.93,10.79l.75,0a37.13,37.13,0,0,0-1-11Zm-3.4-8a31.11,31.11,0,0,1,3.4,8l.72-.2a31.81,31.81,0,0,0-3.48-8.19ZM64.43,30.9A36.51,36.51,0,0,1,76.92,43.27l.64-.38A37.14,37.14,0,0,0,64.81,30.26ZM46,25.49A38.2,38.2,0,0,1,64.43,30.9l.38-.64A38.91,38.91,0,0,0,46,24.75Zm-3.66-.27H42v.4l.41,0Zm0-.46,0-.37-.35,0v.35Zm16.95,2.69.14-.35ZM81.73,54.11l-.37.06h0ZM81.9,64.9l.37,0h0Zm-.66,3.55.35.14h0Zm-7.18,4.94.08.37h0Zm-21-2-.37.07,0,.22.21.07ZM52.72,71l-.12.36h0ZM49,69.8l-.12.36h0Zm-3.15-.91-.06.37h0Zm-3.51-.14H42v.42l.42,0Zm0-.21,0-.37-.34,0v.34Zm4.38.36.09-.36h0Zm5.45,1.72.12-.36h0Zm5.45,1.61.09-.36h0ZM68.9,73.62v-.37h0Zm5.43-.74.09.36h0Zm4.06-1.73-.21-.31h0ZM81,67.76l.36.11h0ZM81.46,65l.37,0h0Zm.17-3-.38,0h0Zm-.95-10.9.36-.09h0Zm-3.44-8.1.32-.19h0ZM64.62,30.58l-.19.32h0ZM46,25.12v-.37h0Z" transform="translate(-5.62 -5.87)"/><path d="M52.72,70.75,49,69.55a19.51,19.51,0,0,0-3.15-.91,14.25,14.25,0,0,0-3.51-.14v.88a12.09,12.09,0,0,1,3.18.09,5.91,5.91,0,0,1,1.11.23l4.42,1.43.68.22a20.48,20.48,0,0,1-9.38,4.32v.91a22.48,22.48,0,0,0,6.49-2.22,19.57,19.57,0,0,0,4-2.83l0,0a.35.35,0,0,0,.11-.37A.48.48,0,0,0,52.72,70.75Z" transform="translate(-5.62 -5.87)"/><path d="M53.28,71.06a.72.72,0,0,0-.49-.55l-.14.48a.26.26,0,0,1,.15.19Zm-.19.62a.6.6,0,0,0,.19-.62l-.48.12v.07a.13.13,0,0,1,0,0Zm-.1.07a.15.15,0,0,0,.06,0l0,0h0l0,0-.22-.44-.07,0,0,0h0l0,0Zm-4,2.83a20,20,0,0,0,4.09-2.87l-.34-.37a19.11,19.11,0,0,1-4,2.8Zm-6.57,2.25A23,23,0,0,0,49,74.58l-.24-.44a21.89,21.89,0,0,1-6.42,2.19Zm-.29-.69v.44h.5v-.44Zm0-.47v.47h.5v-.47Zm9.47-4.51a20.15,20.15,0,0,1-9.27,4.26l.1.5a20.81,20.81,0,0,0,9.49-4.38Zm-.59.21.33.11.35.11.14-.48L51.47,71l-.35-.11Zm-4.43-1.43,2.21.71,2.21.72.16-.48-2.21-.71-2.21-.72Zm-1.06-.22a5.25,5.25,0,0,1,1.06.22l.16-.48a6.14,6.14,0,0,0-1.16-.24Zm-3.12-.09a11.58,11.58,0,0,1,3.11.09l.07-.5a12.53,12.53,0,0,0-3.24-.09Zm-.28-.48v.23h.5v-.23Zm0-.22v.22h.5v-.22Zm0-.21v.21h.5v-.21Zm0-.22v.22h.5V68.5Zm3.8-.11a14.78,14.78,0,0,0-3.58-.14l.06.5a13.73,13.73,0,0,1,3.44.14Zm3.19.92a20.92,20.92,0,0,0-3.19-.92l-.08.5a18.22,18.22,0,0,1,3.11.9Zm3.72,1.2-1.86-.6-1.86-.6-.16.48,1.86.6,1.86.6Zm.24.61.24-.06h0Zm-.11.37.11.22h0l0,0Zm0,0-.11-.22h0l0,0Zm-4,2.83-.12-.22h0Zm-6.49,2.22H42.1v.3l.29,0Zm0-.91-.05-.25-.2,0v.21Zm9.38-4.32.16.19.35-.29-.44-.14Zm-.68-.22-.08.24h0ZM46.63,69.7l-.08.24h0Zm-1.11-.23,0,.25h0Zm-3.18-.09h-.25v.28l.28,0Zm0-.88,0-.25-.22,0v.23Zm3.51.14,0-.25h0Zm3.15.91-.08.24h0Zm3.72,1.2-.08.24h0Z" transform="translate(-5.62 -5.87)"/><path d="M41.5,34.42c.09,0,0,0,0,0h0c-.09-.1,0,0,0,0s0,0,0,0v.07c0-.12,0,.12,0,0s0,0,0,.08c.07-.12-.08.1,0,0s-.11,0,0,0c-.11,0,.09,0,0,0,.06,0,0,0,0,0s-.1-.07-.06,0a.47.47,0,0,1-.11-.27.4.4,0,0,1,.09-.29.84.84,0,0,1,.44-.27,1.72,1.72,0,0,1,1.1,0,.78.78,0,0,1,.53.8,1.36,1.36,0,0,1-.53.94,3.19,3.19,0,0,1-1.22.54,3.89,3.89,0,0,1-1.59.15,1.75,1.75,0,0,1-1.59-1.42A2.06,2.06,0,0,1,39.71,33a5.82,5.82,0,0,1,2.63-.66,6,6,0,0,1,2.72.51,4.79,4.79,0,0,1,2.82,4c.07,1.92-1.29,3.57-2.76,4.66C42,43.84,37.31,44.67,34,42.31A5.94,5.94,0,0,1,31.39,38a5.28,5.28,0,0,1,.38-2.52,4.93,4.93,0,0,1,1.65-2A13.65,13.65,0,0,1,36,32.07c1-.42,1.91-.84,2.87-1.23a13.9,13.9,0,0,1,6.34-1.23,16.45,16.45,0,0,1,3.26.69,28.57,28.57,0,0,1,3,1.07,14.76,14.76,0,0,1,4.87,3.27A13.68,13.68,0,0,1,60,44.29c-.11,4.12-2.24,7.9-4.84,11a56.3,56.3,0,0,1-4.5,4.64,33.56,33.56,0,0,0-4.14,4.37,11.62,11.62,0,0,0-1.43,2.52.44.44,0,0,0,.31.54A.45.45,0,0,0,46,67a15.73,15.73,0,0,1,3.76-5c1.63-1.59,3.32-3.11,4.87-4.78a28.45,28.45,0,0,0,4.15-5.56,16.88,16.88,0,0,0,2.09-6.4,13.91,13.91,0,0,0-.66-5.8,14.72,14.72,0,0,0-3-5.13,15.09,15.09,0,0,0-5.17-3.66,29.11,29.11,0,0,0-3.34-1.23,17.42,17.42,0,0,0-3.64-.74,15.22,15.22,0,0,0-6.92,1.45c-1,.44-2.1.89-3.13,1.36a10.48,10.48,0,0,0-2.65,1.64,6,6,0,0,0-1.77,5.6,7.1,7.1,0,0,0,3.49,4.68,9.49,9.49,0,0,0,6.47,1,11.81,11.81,0,0,0,6-3,7.49,7.49,0,0,0,1.86-2.66,5,5,0,0,0,.18-3.05,5.84,5.84,0,0,0-4.18-4.08,7.37,7.37,0,0,0-3.27-.09,5.31,5.31,0,0,0-2.72,1.27,2.32,2.32,0,0,0-.64,2.69,2.89,2.89,0,0,0,2.67,1.51,5.73,5.73,0,0,0,1.74-.3A3.58,3.58,0,0,0,43.58,36a1.86,1.86,0,0,0,.05-2.77,2.37,2.37,0,0,0-2.9.07,1.32,1.32,0,0,0-.36,1.37,1.07,1.07,0,0,0,1.1.79c.88-.11,1.18-1.57.23-1.83C41.18,33.42,41,34.27,41.5,34.42Z" transform="translate(-5.62 -5.87)"/><path d="M41.74,33.48a.48.48,0,0,0-.44.05.54.54,0,0,0-.22.33.56.56,0,0,0,0,.4.55.55,0,0,0,.36.28l.06-.24a.3.3,0,0,1-.19-.15.3.3,0,0,1,0-.23.27.27,0,0,1,.12-.18.23.23,0,0,1,.22,0Zm-.26,2.07a1.09,1.09,0,0,0,.91-1,1,1,0,0,0-.09-.67.9.9,0,0,0-.57-.44l-.06.24a.65.65,0,0,1,.41.32.92.92,0,0,1-.63,1.27Zm-1.23-.87a1.2,1.2,0,0,0,1.24.87l0-.24a.94.94,0,0,1-1-.71Zm.39-1.5a1.46,1.46,0,0,0-.39,1.5l.24-.08a1.19,1.19,0,0,1,.32-1.24Zm3.07-.08a2.53,2.53,0,0,0-1.55-.49,2.29,2.29,0,0,0-1.52.57l.17.18a2.09,2.09,0,0,1,1.36-.5,2.27,2.27,0,0,1,1.38.44Zm0,3a2.37,2.37,0,0,0,.68-1.48,1.72,1.72,0,0,0-.64-1.48l-.16.2a1.45,1.45,0,0,1,.55,1.27,2,2,0,0,1-.61,1.31Zm-1.46.82a3.65,3.65,0,0,0,1.46-.82l-.18-.18a3.5,3.5,0,0,1-1.36.76Zm-1.78.3a5.93,5.93,0,0,0,1.78-.3l-.08-.24a5.52,5.52,0,0,1-1.7.29ZM37.65,35.6a3,3,0,0,0,2.78,1.58v-.25a2.76,2.76,0,0,1-2.56-1.43Zm.66-2.83a2.43,2.43,0,0,0-.66,2.83l.22-.1A2.2,2.2,0,0,1,38.48,33Zm2.79-1.3a5.46,5.46,0,0,0-2.79,1.3l.18.18a5.17,5.17,0,0,1,2.65-1.24Zm3.32.09a7.31,7.31,0,0,0-3.32-.09l0,.24a7.44,7.44,0,0,1,3.22.09Zm4.27,4.17a6,6,0,0,0-4.27-4.17l-.06.24a5.73,5.73,0,0,1,4.09,4Zm-.18,3.13a5.08,5.08,0,0,0,.18-3.13l-.24.06a4.86,4.86,0,0,1-.18,3Zm-1.89,2.7a7.63,7.63,0,0,0,1.89-2.7l-.24-.1a7.35,7.35,0,0,1-1.83,2.62Zm-6,3a11.92,11.92,0,0,0,6-3l-.18-.18a11.71,11.71,0,0,1-5.9,2.93Zm-6.55-1a9.56,9.56,0,0,0,6.55,1l0-.24a9.43,9.43,0,0,1-6.39-1ZM30.48,38.8A7.19,7.19,0,0,0,34,43.57l.12-.22a7,7,0,0,1-3.43-4.59Zm1.81-5.71a6.07,6.07,0,0,0-1.81,5.71l.24,0a5.87,5.87,0,0,1,1.73-5.49ZM35,31.43a10.17,10.17,0,0,0-2.68,1.66l.16.18a10.83,10.83,0,0,1,2.62-1.62Zm3.13-1.37c-1.05.44-2.1.9-3.13,1.37l.1.22c1-.47,2.08-.91,3.13-1.35Zm7-1.45a15.29,15.29,0,0,0-7,1.45l.1.24a15.16,15.16,0,0,1,6.86-1.45Zm3.67.74a17.7,17.7,0,0,0-3.67-.74l0,.24a17.15,17.15,0,0,1,3.61.74Zm3.35,1.24a28.18,28.18,0,0,0-3.35-1.24l-.08.24A30.89,30.89,0,0,1,52,30.81Zm5.21,3.69a15.06,15.06,0,0,0-5.21-3.69l-.1.22a15.13,15.13,0,0,1,5.13,3.63Zm3,5.17a14.87,14.87,0,0,0-3-5.17l-.18.16a14.72,14.72,0,0,1,2.93,5.09ZM61,45.3a14,14,0,0,0-.66-5.85l-.24.08a13.83,13.83,0,0,1,.66,5.75Zm-2.1,6.45A16.9,16.9,0,0,0,61,45.3l-.25,0a16.67,16.67,0,0,1-2.07,6.35Zm-4.17,5.59a28.75,28.75,0,0,0,4.17-5.59l-.22-.12a28.16,28.16,0,0,1-4.13,5.53Zm-4.87,4.78c1.62-1.59,3.32-3.11,4.87-4.79l-.18-.17c-1.55,1.67-3.23,3.19-4.87,4.78Zm-3.74,5a15.58,15.58,0,0,1,3.74-5l-.18-.18a15.9,15.9,0,0,0-3.79,5Zm-.68.38a.59.59,0,0,0,.69-.38l-.24-.1a.32.32,0,0,1-.39.24Zm-.4-.71a.51.51,0,0,0,.06.45.61.61,0,0,0,.33.26l.07-.24a.36.36,0,0,1-.19-.16.21.21,0,0,1,0-.21Zm1.45-2.54A11.6,11.6,0,0,0,45,66.75l.23.1a12.12,12.12,0,0,1,1.42-2.5Zm4.15-4.39a33.87,33.87,0,0,0-4.15,4.39l.2.14A33.25,33.25,0,0,1,50.78,60Zm4.49-4.63a56,56,0,0,1-4.49,4.63l.18.18a54.89,54.89,0,0,0,4.5-4.65Zm4.81-10.9c-.1,4.08-2.21,7.83-4.81,10.9l.19.16c2.61-3.09,4.76-6.9,4.87-11.06Zm-3.7-9.56a13.52,13.52,0,0,1,3.7,9.56h.25a13.8,13.8,0,0,0-3.77-9.74Zm-4.83-3.25a14.69,14.69,0,0,1,4.83,3.25l.18-.18a14.83,14.83,0,0,0-4.91-3.29Zm-3-1.06a29.89,29.89,0,0,1,3,1.06l.1-.22a27.4,27.4,0,0,0-3-1.08Zm-3.23-.69a16.16,16.16,0,0,1,3.23.69l.08-.24a16.74,16.74,0,0,0-3.29-.69ZM38.89,31a13.83,13.83,0,0,1,6.28-1.23l0-.24a14,14,0,0,0-6.4,1.23ZM36,32.18c.95-.42,1.91-.84,2.87-1.22l-.1-.24c-1,.39-1.92.82-2.87,1.24Zm-2.53,1.37A13.71,13.71,0,0,1,36,32.18l-.1-.22a13.59,13.59,0,0,0-2.57,1.39Zm-1.61,2a4.83,4.83,0,0,1,1.61-2l-.14-.2a5,5,0,0,0-1.7,2.07ZM31.51,38a5.28,5.28,0,0,1,.37-2.46l-.23-.1A5.54,5.54,0,0,0,31.26,38ZM34,42.21A5.83,5.83,0,0,1,31.51,38l-.25,0a6.08,6.08,0,0,0,2.64,4.41Zm11-.79c-3.1,2.3-7.72,3.11-11,.79l-.14.2c3.4,2.4,8.14,1.55,11.29-.79Zm2.71-4.56c.07,1.86-1.25,3.48-2.71,4.56l.15.2c1.48-1.1,2.89-2.78,2.81-4.76ZM45,32.94a4.67,4.67,0,0,1,2.74,3.92H48a4.89,4.89,0,0,0-2.89-4.14Zm-2.67-.5a6.05,6.05,0,0,1,2.67.5l.1-.22a6.14,6.14,0,0,0-2.77-.53Zm-2.57.65a5.69,5.69,0,0,1,2.57-.65v-.25a6.09,6.09,0,0,0-2.69.68Zm-1.2,1.61a1.42,1.42,0,0,1,.34-.92,2.79,2.79,0,0,1,.86-.69l-.12-.22a3.23,3.23,0,0,0-.93.75,1.62,1.62,0,0,0-.4,1.1ZM40.06,36a2.15,2.15,0,0,1-1-.44,1.24,1.24,0,0,1-.49-.87l-.25,0a1.47,1.47,0,0,0,.58,1,2.3,2.3,0,0,0,1.12.49Zm1.54-.15a3.87,3.87,0,0,1-1.54.15l0,.24a3.91,3.91,0,0,0,1.64-.15Zm1.17-.52a3,3,0,0,1-1.17.52l.06.24a3.43,3.43,0,0,0,1.27-.56Zm.48-.85a1.19,1.19,0,0,1-.48.85l.16.2a1.48,1.48,0,0,0,.57-1Zm-.45-.67a.7.7,0,0,1,.35.27.59.59,0,0,1,.1.4l.25,0a.83.83,0,0,0-.14-.56,1.07,1.07,0,0,0-.46-.37Zm-1,0a1.58,1.58,0,0,1,1,0l.1-.24a1.86,1.86,0,0,0-1.19,0Zm-.38.23a.78.78,0,0,1,.37-.23l-.07-.24a.92.92,0,0,0-.5.31Zm-.07.21a1,1,0,0,1,0-.11.64.64,0,0,1,.06-.11l-.2-.14a.46.46,0,0,0-.1.18,1.1,1.1,0,0,0,0,.18Zm.07.17h0l0-.06a.26.26,0,0,1,0-.1h-.25a.73.73,0,0,0,0,.2l0,.09.07.08Zm0,.25h0a.13.13,0,0,0,.06,0,.09.09,0,0,0,0-.08.07.07,0,0,0,0-.05s0,0,0,0h0l0,0,0,0h-.09a.11.11,0,0,0-.07,0,.1.1,0,0,0,0,.1,0,0,0,0,0,0,0s0,0,0,0v0l.18-.18h0v0s0,0,0,0l0,0,0,.05,0,0h-.06v0h0v0a0,0,0,0,1,0,0s0,0,0,0,0,0,.06-.05h0Zm0,0,0,0,0,0a.09.09,0,0,0,0-.05.1.1,0,0,0,0-.09.11.11,0,0,0,0-.05.08.08,0,0,0-.06,0h-.06l-.05,0s0,0,0,.07a.1.1,0,0,0,0,.08l0,0,0,0,.12-.22h0l0,0s0,0,0,.07a.12.12,0,0,1-.09.1h-.09l0,0a.11.11,0,0,1,0-.08s0-.05,0-.05l0,0h0Zm0-.24h0l0,0,0,.05a.08.08,0,0,1,0,0v0l0,0s0,0,0,0h-.1l0,0a.25.25,0,0,1,0-.07s0-.05,0-.06l0,0h0l.06.24h.09s0,0,0,0a.11.11,0,0,0,0-.06.25.25,0,0,0,0-.07l0,0h-.2s0,0,0,0l0,0v0a0,0,0,0,0,0,0,.16.16,0,0,0,0,.06l0,0h.1Zm0,0h.09a.17.17,0,0,1,.06.09.12.12,0,0,1,0,.1l0,0h0l-.06-.24-.07,0,0,0a.2.2,0,0,0,0,.1.11.11,0,0,0,.07.09.1.1,0,0,0,.06,0h0l.06,0,.07,0Zm.18.16v0h0v0h0v0h0v0l0-.06,0,0H41.3l0,0h0v0h0v0a.06.06,0,0,0,0,0,.05.05,0,0,0,0,0l0,0h.14l0,0,0,0-.18-.16h.08a.09.09,0,0,1,.06,0,.09.09,0,0,1,0,0,.08.08,0,0,1,0,0v0h-.13l0,0a.09.09,0,0,1,0-.06.08.08,0,0,1,0,0v0h0v0Zm-.19-.18h0v0l0,.06.24.08h0v0s0,0,0-.06Zm.25.05v0h0v0a0,0,0,0,0,0,0v0l0,0,0,0,0,0h-.09l0,0h0v.08h0v0a0,0,0,0,0,0,0,0,0,0,0,0,0,0l0,0,0,0h.1s0,0,0,0l0,0h0v0l-.22-.1h0l0,0h.09l0,0,0,0a0,0,0,0,1,0,0h0v0h0v0h0l0,0h-.09l0,0,0,0,0,0V34.4h0v0Zm-.25-.11Zm.26,0s0-.06,0-.06h-.25s0,.06,0,.06,0,0,0,0Zm0-.09,0,0h0v0s0,0,0,0a.12.12,0,0,1,0,.09.12.12,0,0,1-.09,0h-.09a.35.35,0,0,1,0-.06s0,0,0,0,0,0,0,0l.12.22s0,0,0,0a.09.09,0,0,0,0-.06.09.09,0,0,0,0-.08.14.14,0,0,0,0-.07l0,0h-.08a.12.12,0,0,0-.09.05.12.12,0,0,0,0,.09v0s0,0,0,0l0,0s0,0,0,0Zm-.18.16v0h.13l0,0,0,0a.13.13,0,0,0,0-.07v-.06h0v0h-.12l-.07,0,0,0s0,0,0,0,0,0,0,0v0h0l.18-.16h0v.09l0,0,0,0-.07,0h-.08v0h0v0a.13.13,0,0,1,0-.07s0,0,0,0l0,0h.09Zm.1.07h.11a.16.16,0,0,0,.06-.06.12.12,0,0,0,0-.1l0,0,0,0,0,0,0,0h0l-.12.22,0,0h0l0,0s0,0,0,0a.19.19,0,0,1,0-.1.12.12,0,0,1,.06,0h.05Zm.23-.94,0,.12h0Zm-.23,1.83,0-.12h0Zm-1.1-.79-.12,0h0Zm.36-1.37.08.09h0Zm2.9-.07-.08.1h0ZM43.58,36l-.09-.09h0Zm-1.41.79,0,.12h0Zm-1.74.3v.12h0Zm-2.67-1.51.11,0h0Zm.64-2.69.08.09h0Zm2.72-1.27,0,.12h0Zm3.27.09,0-.12h0Zm4.18,4.08.12,0h0Zm-.18,3.05.12,0h0Zm-1.86,2.66-.09-.09h0Zm-12.44,2-.06.11h0ZM30.6,38.78l.12,0h0Zm1.77-5.6-.08-.09h0ZM35,31.54,35,31.43h0Zm3.13-1.36,0-.12h0Zm6.92-1.45v-.12h0Zm3.64.74,0,.12h0Zm3.34,1.23.05-.11h0Zm5.17,3.66.09-.08h0Zm3,5.13-.12,0h0Zm.66,5.8h0Zm-2.09,6.4.11.06h0ZM54.6,57.25l-.09-.09h0ZM49.73,62l-.09-.09h0ZM46,67l-.12,0h0Zm-.54.31,0,.12h0Zm-.31-.54-.12,0h0Zm1.43-2.52.1.07h0Zm4.14-4.37-.09-.09h0Zm4.5-4.64-.1-.08h0Zm4.84-11h0Zm-3.74-9.65-.09.09h0Zm-4.87-3.27,0-.11h0Zm-3-1.07,0-.12h0Zm-3.26-.69v-.12h0Zm-6.34,1.23-.05-.12h0ZM36,32.07l0-.11h0Zm-2.55,1.38-.07-.1h0Zm-1.65,2,.11.05h0ZM31.39,38h0ZM34,42.31l.07-.1h0Zm11.15-.79.07.1Zm2.76-4.66h0Zm-2.82-4,0-.11h0Zm-2.72-.51v-.13h0ZM39.71,33l.06.11h0Zm-1.26,1.73h0ZM40,36.13l0-.12h0ZM41.63,36l0-.12h0Zm1.22-.54-.08-.1Zm.53-.94h0Zm-.53-.8,0-.12h0Zm-1.1,0,0,.12h0Zm-.44.27-.1-.08h0Zm0,.56-.08.1.17-.19Zm.06,0-.06.11h.06Zm0,0,0-.12.07.24Zm0,0,0,.12-.05-.24Zm0,0,.09.08-.18-.17Zm0,0-.12,0-.38,1.15.61-1Zm0-.08.12,0-.23-.09Zm0,0h-.13v.77l.25-.73Zm0,0h-.13v.2l.19-.09Zm0,0-.09.08.18-.16Zm0,0,.06-.11-.88-.44.74.64Zm0,0,0,.12h0Z" transform="translate(-5.62 -5.87)"/></svg>