<svg id="_01_Black" data-name="01_Black" xmlns="http://www.w3.org/2000/svg" viewBox="0 0 88.01 88.54"><defs><style>.cls-1{fill:#ff0;}</style></defs><path d="M15.64,23.36c5-5.21,10.16-10.11,16.85-13C45.67,4.53,61,6.48,72.88,14.5A44.92,44.92,0,0,1,90.68,39a36.11,36.11,0,0,1-4,29.42A52.88,52.88,0,0,1,67.46,87.2c-4.77,2.7-10.18,5-15.71,5.33a39,39,0,0,1-17.6-3.48A47.18,47.18,0,0,1,14.68,73.63c-8.7-12-9.63-26.89-3.89-40.41.83-1.94,1.72-3.86,2.64-5.76.79-1.65,1.48-3.72,2.94-4.91" transform="translate(-5.7 -5.49)"/><path class="cls-1" d="M16.7,24.43C22.61,18.24,29,12.65,37.33,10.13a40.37,40.37,0,0,1,24.15.43c15.38,5,27.7,19.49,29.07,35.81C92,63.6,79.73,79,65.14,86.76A33.46,33.46,0,0,1,52.2,91a35.27,35.27,0,0,1-13.63-1.86A46.43,46.43,0,0,1,18,75.43,38.25,38.25,0,0,1,8.76,53,40.65,40.65,0,0,1,9.87,40.74a67.76,67.76,0,0,1,4.86-12.52c.76-1.61,1.34-3.4,2.71-4.61s-.68-3.39-2.12-2.12-2.25,3.25-3.1,5.06C11.13,28.89,10,31.21,9,33.61A46.07,46.07,0,0,0,5.9,46.36a41.08,41.08,0,0,0,5.75,25.38A47.49,47.49,0,0,0,31,89.23c8.68,4.32,18.79,6.41,28.21,3.34A53.12,53.12,0,0,0,81.75,77.63c6.07-6.75,10.6-15,11.7-24.08,2.12-17.63-9.08-35.32-24.57-43.17A44.74,44.74,0,0,0,43.09,5.85,40.79,40.79,0,0,0,30.56,9.57a46.78,46.78,0,0,0-11.21,8c-1.65,1.53-3.23,3.13-4.78,4.76C13.25,23.7,15.37,25.82,16.7,24.43Z" transform="translate(-5.7 -5.49)"/><path d="M61.47,53.6A17.61,17.61,0,0,0,63,43.24a20,20,0,0,0-4.29-9.59A37.29,37.29,0,0,0,51,26.92c-2.53-1.78-5.21-3.51-8.26-4l.26-.21a3.63,3.63,0,0,1-.21-1.09,8.49,8.49,0,0,0-.64-2.42,1.82,1.82,0,0,0-.37-.61.71.71,0,0,0-.66-.21c-.41.11-.55.62-.59,1a17.15,17.15,0,0,0,0,3l-.25.39A13,13,0,0,0,36.05,24,23.12,23.12,0,0,0,24.36,36.32a27.14,27.14,0,0,0-.94,17.08" transform="translate(-5.7 -5.49)"/><path class="cls-1" d="M62,53.91a18.11,18.11,0,0,0,1.83-8.09,19.66,19.66,0,0,0-1.74-7.88,21.88,21.88,0,0,0-4.56-6.54,46.36,46.36,0,0,0-6.43-5.17,22.74,22.74,0,0,0-7.2-3.72c-.32-.08-.65-.15-1-.21l.27,1,.26-.21a.59.59,0,0,0,.16-.59,2.84,2.84,0,0,1-.19-.89,8.75,8.75,0,0,0-.19-1.14,8.07,8.07,0,0,0-.29-1,5.33,5.33,0,0,0-.44-1,1.34,1.34,0,0,0-2-.44,2.62,2.62,0,0,0-.58,1.82,18.37,18.37,0,0,0,0,2.57c0-.1.06-.21.08-.31-.08.13-.16.26-.25.39l.53-.3A13.59,13.59,0,0,0,36,23.37a20.94,20.94,0,0,0-3.16,1.71,23.7,23.7,0,0,0-5.33,4.81,25.15,25.15,0,0,0-3.72,6.27,26.09,26.09,0,0,0-1.84,8.08,28.73,28.73,0,0,0,.65,8.32l.24,1A.61.61,0,0,0,24,53.24a27.46,27.46,0,0,1-.77-10c.09-.8.21-1.59.38-2.42a24.54,24.54,0,0,1,.63-2.42A22.2,22.2,0,0,1,26,34.22c.35-.64.73-1.27,1.14-1.87.2-.3.42-.6.63-.9l.15-.19a.86.86,0,0,0,.07-.1l0-.05.36-.45a23.44,23.44,0,0,1,3.05-3.09l.4-.33.21-.17c.08-.06-.06.05,0,0l.15-.11.86-.62A19.76,19.76,0,0,1,35,25.19a15,15,0,0,1,4.55-1.68,4.81,4.81,0,0,1,.53-.07,1.16,1.16,0,0,0,.49-.1.82.82,0,0,0,.24-.25,1.32,1.32,0,0,0,.31-.75c0-.47-.05-.93,0-1.4s0-.91.07-1.36c0-.06,0-.13,0-.19s0-.11,0,0a1.55,1.55,0,0,1,0-.21l0-.1s.06-.16,0-.07,0-.06,0-.06,0,0,0,0h0s-.1,0,0,0,0,0,0,0c-.12-.05,0,0,0,0s0,0,0,0l0,0c.07.07,0-.05,0,0a1,1,0,0,1,.1.17,5.61,5.61,0,0,1,.42,1.13,6,6,0,0,1,.15.61c0,.19.08.42.1.57a5,5,0,0,0,.24,1.32c.05-.2.1-.4.16-.59l-.26.21a.61.61,0,0,0,.27,1,13.47,13.47,0,0,1,3.63,1.2,28.56,28.56,0,0,1,3.41,2,51.18,51.18,0,0,1,6.24,4.8,21.59,21.59,0,0,1,4.69,6.06,18.58,18.58,0,0,1,2,7.21,17,17,0,0,1-1.26,7.71l-.05.11-.1.22c-.07.16-.15.32-.22.47a.61.61,0,0,0,1.06.61Z" transform="translate(-5.7 -5.49)"/><path d="M22.12,54.21a25.84,25.84,0,0,1,9.63-3.42c3.38-.57,6.82-.72,10.24-1a56.1,56.1,0,0,1,10-.29,23.16,23.16,0,0,1,6.3,1.55,6.76,6.76,0,0,1,2.36,1.39A2.9,2.9,0,0,1,61.59,55l.06.08a25,25,0,0,0-.82,5.08c0,1.76.31,3.51.43,5.27a42,42,0,0,1,0,4.76,19.42,19.42,0,0,1-.31,3.23c0,.2-.13.45-.33.49l.16,0q-15.9-.39-31.79-.27A11.69,11.69,0,0,1,24.33,73v0c.18-2.88.26-5.78.24-8.67s-.19-5.74-1.67-8.11a5.28,5.28,0,0,1-.6-1.09A1.23,1.23,0,0,1,22.47,54" transform="translate(-5.7 -5.49)"/><path class="cls-1" d="M22.43,54.74a23,23,0,0,1,7.25-2.91,54.67,54.67,0,0,1,8.37-1.12c1.45-.11,2.91-.2,4.36-.32s2.93-.25,4.39-.33a34.46,34.46,0,0,1,4.43,0,22.86,22.86,0,0,1,4.07.66c.68.17,1.35.38,2,.62q.48.16,1,.36c.21.09.52.22.78.36a4.12,4.12,0,0,1,1.42,1.09h0a.61.61,0,0,1,.07.1l.12.19.11.19,0,.09s.06.14,0,.06a2.91,2.91,0,0,1,.12.39s0,.22,0,.11c0,.08,0,.16,0,.25a1.7,1.7,0,0,1,0,.22c0,.07,0,0,0,0a.78.78,0,0,0,0,.14.76.76,0,0,0,.23.59c0-.2-.1-.4-.16-.59a34.72,34.72,0,0,0-.73,3.79,16.68,16.68,0,0,0,0,3.67c.12,1.22.3,2.44.35,3.67s0,2.5,0,3.75c0,.68,0,1.37-.11,2,0,.34-.06.64-.11,1,0,.17-.05.33-.09.5,0,0,0,0,0,0s0,.07,0,0,0,.06,0,0l.1-.06A.64.64,0,0,0,60,74a.63.63,0,0,0,.75.43l.16,0a.61.61,0,0,0-.16-1.2q-7.21-.18-14.44-.25T32,73c-1.31,0-2.62,0-3.93,0a9.16,9.16,0,0,1-3.55-.57.61.61,0,0,0-.75.75s0,0,0,0a.61.61,0,0,0,1.2-.16q.27-4.15.24-8.31a19.76,19.76,0,0,0-1-7.17,10.2,10.2,0,0,0-.94-1.83,2.65,2.65,0,0,1-.41-.8l0-.12c0-.1,0,.08,0,0v-.21c0,.1,0-.08,0-.13,0,.11.09-.12,0,0a.62.62,0,0,0,0-.86.61.61,0,0,0-.86,0,1.86,1.86,0,0,0-.27,1.91c.24.6.65,1.11.95,1.69a7.59,7.59,0,0,1,.34.73,8.51,8.51,0,0,1,.29.85,13.51,13.51,0,0,1,.39,1.76c0,.16,0,.24.05.34s0,.31,0,.47.05.61.07.91c0,.61.05,1.22.06,1.83,0,1.4,0,2.8,0,4.2q-.06,2.4-.21,4.8l1.2-.16s0,0,0,0l-.75.75a9.5,9.5,0,0,0,3.3.6c1.16,0,2.32,0,3.48,0,2.42,0,4.84,0,7.26,0q7.22,0,14.44.13c2.71,0,5.42.1,8.12.16-.05-.4-.11-.8-.16-1.2l-.16,0c.11.39.22.78.32,1.18.72-.22.8-1,.88-1.66s.14-1.33.18-2c.06-1.33.12-2.67.1-4,0-2.64-.69-5.25-.41-7.9a19.63,19.63,0,0,1,.35-2.08l.24-1.09a4.13,4.13,0,0,0,.13-.61.78.78,0,0,0-.23-.59c.05.2.1.4.16.59a3.75,3.75,0,0,0-1.64-3.58,8.38,8.38,0,0,0-1.77-.95c-.65-.27-1.32-.51-2-.72a26.52,26.52,0,0,0-8.68-1.09c-1.51,0-3,.16-4.51.28l-4.45.34a68.88,68.88,0,0,0-8.82,1,26.15,26.15,0,0,0-7.63,2.72l-.87.52a.62.62,0,0,0-.22.83A.64.64,0,0,0,22.43,54.74Z" transform="translate(-5.7 -5.49)"/><path d="M25.35,65A3.12,3.12,0,0,1,25,63.23a11.25,11.25,0,0,1,.35-2.52.57.57,0,0,1,.22-.38c.27-.15.55.18.66.47a9,9,0,0,1,.35,3.4,1.73,1.73,0,0,1-.18.87.57.57,0,0,1-.77.21Z" transform="translate(-5.7 -5.49)"/><path class="cls-1" d="M25.88,64.72l-.12-.22c-.05-.09,0,.13,0,0l0-.11-.06-.24s0-.07,0-.11,0,0,0,0,0-.06,0-.08a6.73,6.73,0,0,1,0-1.1c0-.19,0-.37.05-.55s0-.11,0-.16,0,.09,0,0,0-.22.05-.32.07-.39.12-.58l.06-.25,0-.13a.64.64,0,0,0,0-.07c0,.07,0,.08,0,0s0,0-.06.05a.33.33,0,0,1-.29,0s.09,0,0,0-.05,0,0,0,0,0,0,0a.61.61,0,0,1,.07.1s.06.13,0,0l.06.17c.05.16.1.33.14.5a2.56,2.56,0,0,1,0,.27s0,.08,0,.12c0,.2,0-.12,0,.08a13.84,13.84,0,0,1,0,2.23c0,.05,0,.09,0,.14s0-.07,0,.06l0,.11s0,0,0,0,0-.06,0,0-.1.1,0,0,0,0,0,0,0,0,0,0l-.08,0,0,0c-.05,0,0,0,.05,0-.11,0,0,0,0,0h0l.08.07a.27.27,0,0,0-.08-.07l-.2-.18a.62.62,0,0,0-.86,0,.61.61,0,0,0,0,.86,1.9,1.9,0,0,0,.71.48A1.24,1.24,0,0,0,27,65.29a3.49,3.49,0,0,0,.22-1.51,12.9,12.9,0,0,0,0-1.39,7.1,7.1,0,0,0-.25-1.45,1.6,1.6,0,0,0-.94-1.2.9.9,0,0,0-.87.2,1.35,1.35,0,0,0-.36.69,13.61,13.61,0,0,0-.28,1.55,5,5,0,0,0,.36,3.18.62.62,0,0,0,.83.22A.65.65,0,0,0,25.88,64.72Z" transform="translate(-5.7 -5.49)"/><path d="M28.61,63.27A25.81,25.81,0,0,1,28.43,60a1.85,1.85,0,0,1,.11-.74.67.67,0,0,1,.57-.43c.33,0,.57.31.72.61a5,5,0,0,1,.25,3.8.67.67,0,0,1-.3.41.82.82,0,0,1-.6-.1c-.2-.08-.46-.09-.56.09Z" transform="translate(-5.7 -5.49)"/><path class="cls-1" d="M29.22,63.27c-.09-.82-.15-1.64-.17-2.47a9.14,9.14,0,0,1,0-1.17c0,.11,0,0,0,0s0-.09,0-.14-.06.1,0,0h0l.07-.07c-.05.07-.06,0,0,0s-.08,0,0,0h0c-.11-.06.13.07-.06,0,0,0,.09.07,0,0l.07.06s.1.12.05,0,0,.06,0,.06a.56.56,0,0,0,.05.08l.12.24c.08.16,0-.06,0,0s0,.07,0,.11a2.25,2.25,0,0,1,.08.24,3.53,3.53,0,0,1,.14.56c0,.08,0,.15,0,.23,0-.12,0,0,0,0a.71.71,0,0,1,0,.14,4.47,4.47,0,0,1,0,.52,2.83,2.83,0,0,1,0,.29s0,.24,0,.12a5,5,0,0,1-.11.56c0,.09,0,.18-.08.28l0,.1c.05-.13,0,0,0,0s0,0,0,0,.1,0,.16,0h0l-.11,0L29.41,63a1.06,1.06,0,0,0-1.31.35l1.14.31a2.23,2.23,0,0,1,0-.36.61.61,0,0,0-1.22,0v.35a.62.62,0,0,0,.45.59.65.65,0,0,0,.69-.28l-.05.06c-.19.09-.23.12-.13.09-.15,0-.07,0,0,0s-.14,0,0,0l.13,0a1.28,1.28,0,0,0,.82.09c.53-.14.73-.65.86-1.13a5.7,5.7,0,0,0,.08-2.63,5.51,5.51,0,0,0-.43-1.26,1.76,1.76,0,0,0-.91-1,1.16,1.16,0,0,0-1.33.44,2.2,2.2,0,0,0-.33,1.4A27.76,27.76,0,0,0,28,63.26a.62.62,0,0,0,.61.61A.6.6,0,0,0,29.22,63.27Z" transform="translate(-5.7 -5.49)"/><path d="M35.87,63a21.18,21.18,0,0,1-.32-4.42,3.12,3.12,0,0,1,.3-1.28,1.32,1.32,0,0,1,1-.73.66.66,0,0,1,.41.1.89.89,0,0,1,.25.26,5,5,0,0,1,.87,2.74,11.74,11.74,0,0,1-.31,2.89.7.7,0,0,1-.18.39.63.63,0,0,1-.35.11,9,9,0,0,1-1.47,0Z" transform="translate(-5.7 -5.49)"/><path class="cls-1" d="M36.46,62.79c-.08-.58-.14-1-.21-1.55s-.11-1.1-.12-1.65c0-.28,0-.55,0-.83,0-.13,0-.25,0-.38a.88.88,0,0,1,0-.17c0-.07,0,0,0,0s0-.08,0-.11,0-.23.08-.34l.06-.16c0,.09,0-.06,0-.08l.08-.13c0-.06,0,0,0,0l0-.06.11-.11.06,0s-.06,0,0,0l.13-.07h0l.07,0c.06,0,.13,0,0,0H37c-.08,0,0,0,0,0h0c.06,0,0,0,0,0l.05,0,0,.06s0-.08,0,0,.08.11.11.17a2,2,0,0,1,.18.32l.08.15s.08.19,0,.09a5.39,5.39,0,0,1,.22.68,3.4,3.4,0,0,1,.07.34l0,.17c0,.07,0,0,0,0s0,.08,0,.11a6.45,6.45,0,0,1,0,.76c0,.28,0,.55,0,.82,0,.07,0,.13,0,.2s0,.18,0,.1c0,.14,0,.28-.07.43s-.1.59-.17.88c0,0,0,.05,0,.07s0,0,0,0l.06-.06s.1,0,.05,0l-.08,0c.07,0,.05,0,0,0l-.23,0c-.31,0-.62,0-.94,0h-.1c-.14,0,0,0,0,0l-.07,0-.16-.05a.61.61,0,1,0-.32,1.18,3.83,3.83,0,0,0,1.47.1,2.18,2.18,0,0,0,1-.21,1.27,1.27,0,0,0,.5-.89,10.35,10.35,0,0,0,.2-3.88A5.39,5.39,0,0,0,38.38,57c-.32-.59-.77-1.15-1.51-1.09a1.92,1.92,0,0,0-1.49,1,3.84,3.84,0,0,0-.42,1.8,22.6,22.6,0,0,0,.35,4.42.61.61,0,0,0,.75.43A.67.67,0,0,0,36.46,62.79Z" transform="translate(-5.7 -5.49)"/><path d="M41.06,62.35c-.09-.28-.18-.57-.25-.85a9.62,9.62,0,0,1-.1-4.4.7.7,0,0,1,.17-.38c.23-.21.61,0,.85.17a4.55,4.55,0,0,1,1.32,2.62,13.57,13.57,0,0,1,.07,3,.41.41,0,0,1-.06.24.35.35,0,0,1-.23.1,3.78,3.78,0,0,1-1.57-.05Z" transform="translate(-5.7 -5.49)"/><path class="cls-1" d="M41.65,62.19a14,14,0,0,1-.38-1.41l-.06-.31a.78.78,0,0,1,0-.16c0-.12,0,.14,0-.06s0-.5-.06-.76a9.19,9.19,0,0,1,0-1.39,5.73,5.73,0,0,1,.09-.59l.06-.3s0-.16,0-.08,0,0,0,0a.23.23,0,0,1-.08.09s-.21,0-.1,0c-.14,0-.06,0,0,0s-.09-.07,0,0l.13.08c-.1-.06,0,0,0,0l.12.11.22.24,0,0,.09.13a1.76,1.76,0,0,1,.14.23c.05.08.09.16.13.24l.07.15a.42.42,0,0,1,0,.1v0a7,7,0,0,1,.33,1.19s0,.09,0,.13,0,.1,0,.1l0,.32a6.77,6.77,0,0,1,0,.78c0,.26,0,.52,0,.78s0,.28,0,.42,0,.11,0,.16a.49.49,0,0,1,0,.12.35.35,0,0,1,.26-.33l-.1,0-.12,0q.09,0,0,0l-.38,0-.38,0c-.2,0,.11,0-.09,0l-.25,0,.36.28-.2-.44a.62.62,0,0,0-.83-.22.62.62,0,0,0-.22.83l.15.32.05.12a.76.76,0,0,0,.58.33,4.26,4.26,0,0,0,1,.08,2,2,0,0,0,1-.21c.39-.24.4-.68.42-1.09s0-.63,0-.94a10.5,10.5,0,0,0-.14-1.94,4.94,4.94,0,0,0-1.49-2.88,1.63,1.63,0,0,0-.85-.42,1,1,0,0,0-1,.46,2.41,2.41,0,0,0-.25.88,8.69,8.69,0,0,0-.12,1,11.13,11.13,0,0,0,.56,4.13.63.63,0,0,0,.75.43A.62.62,0,0,0,41.65,62.19Z" transform="translate(-5.7 -5.49)"/><path d="M46.16,62.89a12.58,12.58,0,0,1-.38-3.35,4,4,0,0,1,.27-1.64,1.6,1.6,0,0,1,1.25-1,1.58,1.58,0,0,1,1.16.46,3.42,3.42,0,0,1,.71,1.05,4.62,4.62,0,0,1,.52,1.85,21.54,21.54,0,0,1-.37,2.5.42.42,0,0,1-.12.33.45.45,0,0,1-.26,0l-2-.08Z" transform="translate(-5.7 -5.49)"/><path class="cls-1" d="M46.74,62.73A11.38,11.38,0,0,1,46.43,61a13.83,13.83,0,0,1,0-1.82l0-.39c0-.1,0,.08,0,0a.28.28,0,0,0,0-.09,1.55,1.55,0,0,1,0-.23l.06-.2,0-.08s0,.08,0,0a2.38,2.38,0,0,1,.18-.3c-.07.11,0,0,0,0l.12-.12s.07-.06,0,0,0,0,0,0,.11-.06.17-.1,0,0,0,0l.09,0,.14,0c-.13,0,0,0,.07,0h.08c-.12,0,0,0,0,0a1,1,0,0,1,.18.06c-.1,0,0,0,.08,0a.91.91,0,0,1,.16.11c-.08-.06.05,0,.07.07l.14.15.07.09s0-.06,0,0,.16.24.23.37a3.59,3.59,0,0,1,.17.34l.09.19s0,.11,0,0l0,.11a4.45,4.45,0,0,1,.24.81S49,60,49,60s0-.09,0,0,0,.14,0,.21a3.53,3.53,0,0,1,0,.46s0,.21,0,.11L49,61l-.09.46c-.06.29-.13.59-.17.88a4.1,4.1,0,0,0-.06.49c0,.09,0-.11,0,0s0,0,0,0l.11-.09a.18.18,0,0,1,.15-.09h-.06l-1.07,0a3.52,3.52,0,0,0-.5-.05h-.27s-.12,0,0,0h0c-.24-.08-.5-.12-.75-.18A.61.61,0,1,0,46,63.49l.75.19a5.65,5.65,0,0,0,1,.06l1.07,0a1.33,1.33,0,0,0,.56-.07.84.84,0,0,0,.48-.57,2.84,2.84,0,0,0,.06-.5c0-.1,0,.08,0,0s0-.08,0-.12,0-.18.05-.27a7.9,7.9,0,0,0,.27-2,5.71,5.71,0,0,0-.61-2.06,3.28,3.28,0,0,0-1.33-1.54,1.92,1.92,0,0,0-2,.07,2.65,2.65,0,0,0-1.07,1.63,8.5,8.5,0,0,0-.09,2.36,12.64,12.64,0,0,0,.38,2.44.62.62,0,0,0,.75.43A.66.66,0,0,0,46.74,62.73Z" transform="translate(-5.7 -5.49)"/><path d="M55,63.7a8.24,8.24,0,0,1-.15-4.24c.06-.25.2-.55.45-.54a.46.46,0,0,1,.25.1,2.38,2.38,0,0,1,.85,1.55,6.89,6.89,0,0,1,.08,2.31.92.92,0,0,1-.24.58c-.31.27-.89.07-1.13.41Z" transform="translate(-5.7 -5.49)"/><path class="cls-1" d="M55.63,63.54a9.1,9.1,0,0,1-.26-1.15s0-.08,0-.12,0,0,0,0l0-.31a5.82,5.82,0,0,1,0-.59c0-.18,0-.35,0-.53s0-.21,0-.31,0-.08,0-.12,0-.2,0-.08c0-.18.06-.37.1-.55a1.6,1.6,0,0,1,0-.21s0-.14,0,0,0,0,0-.06-.09.1,0,0a.26.26,0,0,1-.13.08h-.08l-.15,0s.1.06.12.07-.09-.1,0,0l.07.07a.46.46,0,0,0,.07.07c.09.1,0-.07,0,0l.12.19s.11.23.06.11c.06.16.11.32.16.49a4.59,4.59,0,0,1,.1.51,4.47,4.47,0,0,1,0,.48,7.11,7.11,0,0,1,0,1.22s0,.13,0,0l0,.15,0,.1c0,.07,0,.06,0,0l0,0,0,0h0s0,0,0,0l0,0c-.06,0-.16.07-.23,0s.15,0,0,0l-.25,0-.2,0a1.12,1.12,0,0,0-.56.34l1,.12-.12-.17a.62.62,0,0,0-.83-.22.61.61,0,0,0-.22.83l.12.17a.65.65,0,0,0,.45.29.57.57,0,0,0,.51-.17c.09-.12,0,0,0,0l0,0,0,0a1,1,0,0,1,.2,0s-.12,0,0,0l.25,0a1.11,1.11,0,0,0,.25,0,1.26,1.26,0,0,0,.87-1.07A7.36,7.36,0,0,0,57,60.22a3.48,3.48,0,0,0-.48-1.12,1.46,1.46,0,0,0-1.29-.77,1.18,1.18,0,0,0-.92,1,7.92,7.92,0,0,0-.21,1.45,8.85,8.85,0,0,0,.36,3.11.63.63,0,0,0,.75.43A.64.64,0,0,0,55.63,63.54Z" transform="translate(-5.7 -5.49)"/><path d="M58.37,63.88c.19-1-.34-1.94-.08-2.87.07-.25.23-.51.49-.54s.55.34.65.66a4.9,4.9,0,0,1,0,2.71.7.7,0,0,1-.08.2c-.16.23-.51.18-.78.1Z" transform="translate(-5.7 -5.49)"/><path class="cls-1" d="M59,64a5,5,0,0,0-.07-1.77l0-.17s0-.06,0-.09,0,0,0,0,0-.26,0-.39v-.17s0-.07,0-.11,0,.09,0,0a1,1,0,0,1,0-.17l0-.09c0-.07,0,.08,0,0l0-.06s.06,0,0,0c.09-.06-.09,0,0,0l0,0c.07,0-.08,0-.09,0s0,0,0,0-.1-.05,0,0-.11-.09,0,0,.07.06,0,0,0,0,0,.07.06.15,0,0l.06.19a2.74,2.74,0,0,1,.09.39l0,.18c0,.07,0,0,0,0s0,.1,0,.16a4.71,4.71,0,0,1,0,.84S59,63,59,63s0,.15,0,.05a2.07,2.07,0,0,1,0,.22s-.1.45-.11.45.06-.08.06-.09,0,0,0,0l.05,0c-.07,0,.13,0,0,0H58.9c-.08,0,.1,0,0,0l-.2,0,.27.16-.22-.26a.6.6,0,0,0-.86,0,.62.62,0,0,0,0,.86,1,1,0,0,0,.57.44,1.3,1.3,0,0,0,1.23-.22,2,2,0,0,0,.43-1.17,5.24,5.24,0,0,0,0-1.25c-.06-.72-.2-1.77-.93-2.14a1,1,0,0,0-1.27.27,2,2,0,0,0-.41,1.18,5.59,5.59,0,0,0,.13,1.29.68.68,0,0,1,0,.14s0,.19,0,.07l0,.28a2.62,2.62,0,0,1,0,.28.66.66,0,0,1,0,.14.19.19,0,0,1,0,.08c0-.07,0-.07,0,0a.63.63,0,0,0,.43.75A.6.6,0,0,0,59,64Z" transform="translate(-5.7 -5.49)"/><path d="M37.61,73.33a8.78,8.78,0,0,1-.32-3.75,4.1,4.1,0,0,1,.61-2.15.93.93,0,0,1,.54-.4.89.89,0,0,1,.53.1,2.29,2.29,0,0,1,1.1,1.37,6.65,6.65,0,0,1,.26,1.77c.06,1,.12,1.94.17,2.91Z" transform="translate(-5.7 -5.49)"/><path class="cls-1" d="M38.2,73.16a4.84,4.84,0,0,1-.19-.65l-.06-.3s0-.08,0-.12,0-.08,0-.12,0,0,0,0a11.38,11.38,0,0,1-.06-1.31c0-.44,0-.87.08-1.31l0-.3s0,.12,0,0l0-.16a5.66,5.66,0,0,1,.15-.59s.06-.16,0-.08,0-.08,0-.08.08-.16.13-.24l.09-.14c-.07.09,0,0,0,0a.63.63,0,0,1,.12-.11c-.1.08.07,0,0,0l0,0h0l.13,0c-.12,0,0,0,.05,0l.09,0s.15.11,0,0l.22.21.07.08c-.09-.1,0,0,0,0l.14.22a2.4,2.4,0,0,1,.11.23c-.06-.13,0,0,0,0a1.09,1.09,0,0,1,.05.17c.06.21.1.42.14.63s0-.14,0,0,0,.1,0,.15l0,.37c.07,1.06.13,2.13.19,3.19l.61-.61L38,72.67l-.36,0a.62.62,0,0,0-.61.61.61.61,0,0,0,.61.61l2.54-.12.36,0a.62.62,0,0,0,.61-.61c-.06-1-.12-2.11-.19-3.16A4.64,4.64,0,0,0,40,67.14a2.12,2.12,0,0,0-1.34-.75,1.51,1.51,0,0,0-1.38.84,5.83,5.83,0,0,0-.63,2.82,8.73,8.73,0,0,0,.38,3.41.63.63,0,0,0,.75.43A.59.59,0,0,0,38.2,73.16Z" transform="translate(-5.7 -5.49)"/><path d="M44.92,73.25c.14-1.56.27-3.12.41-4.68a1.52,1.52,0,0,1,.47-1.18,1.06,1.06,0,0,1,1.34.35,3.63,3.63,0,0,1,.53,1.42c.34,1.4.95,2.84.59,4.24Z" transform="translate(-5.7 -5.49)"/><path class="cls-1" d="M45.53,73.25c.08-.94.16-1.87.25-2.81L45.9,69c0-.2,0-.41.05-.61s0,.13,0,0,0-.06,0-.1S46,68.12,46,68s0,.07,0,0l.06-.1c-.06.11,0,0,0,0s.11-.07,0,0l0,0c-.09,0,0,0,.05,0h0c-.08,0-.1,0-.05,0h.07c.07,0,.06,0,0,0s.27.09.12,0a.82.82,0,0,1,.2.12c-.11-.07,0,0,0,0l.08.08c.1.1,0-.07,0,0l.1.17s0,.07,0,.1,0-.11,0,.06l.09.27c.06.2.1.4.15.61.1.43.23.85.35,1.27.06.22.12.44.17.67s0,.24.08.36l0,.18s0,.2,0,.08a5.85,5.85,0,0,1,0,.73.49.49,0,0,1,0,.12s0,.25,0,.14c0,.12,0,.24-.07.36l.59-.45-2.91-.12-.42,0a.62.62,0,0,0-.61.61.63.63,0,0,0,.61.61l2.91.12.42,0a.63.63,0,0,0,.59-.45,6.08,6.08,0,0,0-.17-3c-.13-.49-.28-1-.4-1.45a5.82,5.82,0,0,0-.43-1.34A1.69,1.69,0,0,0,45.33,67a1.84,1.84,0,0,0-.57,1.18c-.07.51-.1,1-.15,1.54-.1,1.18-.21,2.36-.31,3.54a.62.62,0,0,0,1.23,0Z" transform="translate(-5.7 -5.49)"/><rect x="35.42" y="10.98" width="30" height="58"/><path d="M49.82,68.69,45.4,67.26A5.91,5.91,0,0,0,44.29,67a12.08,12.08,0,0,0-3.18-.09v6.28a20.48,20.48,0,0,0,9.38-4.32Z" transform="translate(-5.7 -5.49)"/><path class="cls-1" d="M81.13,52.77a31.06,31.06,0,0,0-2.45-9.17A36.28,36.28,0,0,0,67.3,29.47a39.2,39.2,0,0,0-18-7.52,38.69,38.69,0,0,0-8.19-.32v.43a39,39,0,0,1,16.95,2.69c11.3,4.5,20.63,14.65,22.44,26.68a48.66,48.66,0,0,1,.17,10.79A11.56,11.56,0,0,1,80,65.77c-1.16,2.79-4.24,4.26-7.18,4.94-6.95,1.6-14.19.16-21-2a.37.37,0,0,1-.11.37l-.05,0h0a55.94,55.94,0,0,0,11.42,2.54,28.14,28.14,0,0,0,11.11-.86c3-.92,5.81-2.77,6.56-6a18.46,18.46,0,0,0,.36-2.87c.07-1,.13-2,.16-3A44.29,44.29,0,0,0,81.13,52.77Z" transform="translate(-5.7 -5.49)"/><path class="cls-1" d="M51.27,69.16,51,69.07a21.1,21.1,0,0,1-9.87,4.63v.44a22.48,22.48,0,0,0,6.49-2.22,19.57,19.57,0,0,0,4-2.83l-.44-.15Z" transform="translate(-5.7 -5.49)"/><path class="cls-1" d="M41.12,73.23v.47A21.06,21.06,0,0,0,51,69.07l-.49-.16A20.48,20.48,0,0,1,41.12,73.23Z" transform="translate(-5.7 -5.49)"/><path d="M47.65,59.78a6.41,6.41,0,0,1,4.59.47Z" transform="translate(-5.7 -5.49)"/><path class="cls-1" d="M47.77,60.2a5.91,5.91,0,0,1,4.25.43.44.44,0,0,0,.6-.16.45.45,0,0,0-.16-.6,6.91,6.91,0,0,0-4.93-.51A.44.44,0,0,0,47.77,60.2Z" transform="translate(-5.7 -5.49)"/><path d="M45.76,62.3a5.43,5.43,0,0,1,3.36.76Z" transform="translate(-5.7 -5.49)"/><path class="cls-1" d="M45.76,62.74a5.05,5.05,0,0,1,3.13.7.44.44,0,0,0,.44-.76,5.92,5.92,0,0,0-3.58-.82.45.45,0,0,0-.44.44A.46.46,0,0,0,45.76,62.74Z" transform="translate(-5.7 -5.49)"/><path d="M45.5,66.21c1.85.44,3.64,1.12,5.45,1.72s3.61,1.14,5.45,1.61a40.56,40.56,0,0,0,11.28,1.39,25.45,25.45,0,0,0,5.43-.74,12.81,12.81,0,0,0,4.06-1.73,6.44,6.44,0,0,0,2.64-3.39,12.44,12.44,0,0,0,.43-2.72c.07-1,.13-2,.17-3a36.66,36.66,0,0,0-1-10.9A31.12,31.12,0,0,0,76,40.39,37,37,0,0,0,63.4,27.89a38.54,38.54,0,0,0-18.61-5.46c-1.22,0-2.45,0-3.67.09V65.87A13,13,0,0,1,45.5,66.21Z" transform="translate(-5.7 -5.49)"/><path class="cls-1" d="M51.21,68.94s0,0,0,0l0,0Z" transform="translate(-5.7 -5.49)"/><path class="cls-1" d="M50.9,68.58l.24.08-.06-.22h0Z" transform="translate(-5.7 -5.49)"/><path class="cls-1" d="M45.24,66.75l5.65,1.82.17-.14L49.72,68c-2.79-1-5.72-2-8.61-1.7v.21A15.67,15.67,0,0,1,45.24,66.75Z" transform="translate(-5.7 -5.49)"/><path class="cls-1" d="M51,69.07l.28.09-.06-.22-.05,0Z" transform="translate(-5.7 -5.49)"/><path class="cls-1" d="M51.81,68.67l-.73-.23.06.22.25.08-.19.16s0,0,0,0l.44.15.05,0A.4.4,0,0,0,51.81,68.67Z" transform="translate(-5.7 -5.49)"/><path class="cls-1" d="M41.12,66.72V67A12.09,12.09,0,0,1,44.3,67a5.91,5.91,0,0,1,1.11.23l4.42,1.43.68.22.18-.15c-1.51-.51-3-1-4.53-1.48A13.51,13.51,0,0,0,41.12,66.72Z" transform="translate(-5.7 -5.49)"/><path class="cls-1" d="M41.12,66.5v.22a13.36,13.36,0,0,1,5,.57c1.53.42,3,1,4.53,1.48l.22-.19-5.65-1.82A14.72,14.72,0,0,0,41.12,66.5Z" transform="translate(-5.7 -5.49)"/><path class="cls-1" d="M50.68,68.76l-.18.15.49.16.17-.14Z" transform="translate(-5.7 -5.49)"/><path class="cls-1" d="M50.68,68.76l.49.16,0,0-.06-.24-.24-.08Z" transform="translate(-5.7 -5.49)"/><path class="cls-1" d="M51.39,68.74l-.25-.08.06.24Z" transform="translate(-5.7 -5.49)"/><path class="cls-1" d="M44.79,22.42A38.54,38.54,0,0,1,63.4,27.88,36.82,36.82,0,0,1,76,40.38a31.46,31.46,0,0,1,3.44,8.1,37,37,0,0,1,1,10.9c0,1-.1,2-.17,3a12.44,12.44,0,0,1-.43,2.72,6.44,6.44,0,0,1-2.64,3.39,13,13,0,0,1-4.06,1.73,25.53,25.53,0,0,1-5.43.74A40.52,40.52,0,0,1,56.4,69.53c-1.84-.46-3.65-1-5.45-1.61s-3.59-1.28-5.45-1.72a13.48,13.48,0,0,0-4.38-.36v.21a14.21,14.21,0,0,1,3.51.14,19.22,19.22,0,0,1,3.15.91l3.72,1.2a.46.46,0,0,1,.31.36c6.84,2.19,14.08,3.63,21,2,2.94-.68,6-2.15,7.18-4.94a11.45,11.45,0,0,0,.66-3.55,48.64,48.64,0,0,0-.17-10.79c-1.81-12-11.14-22.17-22.44-26.67a39,39,0,0,0-17-2.69v.46A34.53,34.53,0,0,1,44.79,22.42Z" transform="translate(-5.7 -5.49)"/><path class="cls-1" d="M51.51,68.31l-3.72-1.2a19.51,19.51,0,0,0-3.15-.91,14.25,14.25,0,0,0-3.51-.14v.22C44,66,47,67,49.74,68l1.34.45h0l.73.23A.5.5,0,0,0,51.51,68.31Z" transform="translate(-5.7 -5.49)"/><path class="cls-1" d="M51.07,68.43h0Z" transform="translate(-5.7 -5.49)"/><path d="M40.4,31.29c.49.11.26,1-.25,1a.79.79,0,0,1-.49-1.17A1.51,1.51,0,0,1,41,30.45a1.65,1.65,0,0,1,1.47.63,1.49,1.49,0,0,1-.22,1.72,3.18,3.18,0,0,1-1.6.89,4.1,4.1,0,0,1-2.3.07,2.1,2.1,0,0,1-1.49-1.64c-.14-1.22,1.08-2.17,2.25-2.57a6.71,6.71,0,0,1,5.56.48,5.08,5.08,0,0,1,2.46,4.85,6.12,6.12,0,0,1-1.83,3.36,10.82,10.82,0,0,1-4,2.5,10.39,10.39,0,0,1-6.16.42,7.38,7.38,0,0,1-4.77-3.77,5.73,5.73,0,0,1,.53-5.93,10.53,10.53,0,0,1,4.27-2.73c2.51-1.09,5.07-2.27,7.81-2.31a15.58,15.58,0,0,1,5.08.94A20.32,20.32,0,0,1,53.53,30,14,14,0,0,1,59.22,42.6a18,18,0,0,1-3.38,8.31,44.94,44.94,0,0,1-6.11,6.68c-2.08,2-4.27,4-5.35,6.6" transform="translate(-5.7 -5.49)"/><path class="cls-1" d="M40.28,31.72c.09,0,0,0-.05,0s-.06-.07,0,0c-.09-.1,0,0,0,0s0,0,0-.05v.07c0-.12,0,.12,0,0s0,.05,0,.08-.08.1,0,0-.11,0,0,0c-.11,0,.09,0,0,0,.06,0,0,0,0,0s-.1-.07-.06,0a.47.47,0,0,1-.11-.27.4.4,0,0,1,.09-.29.84.84,0,0,1,.44-.27,1.72,1.72,0,0,1,1.1,0,.78.78,0,0,1,.53.8,1.36,1.36,0,0,1-.53.94,3.19,3.19,0,0,1-1.22.54,3.89,3.89,0,0,1-1.59.15A1.75,1.75,0,0,1,37.23,32a2.06,2.06,0,0,1,1.26-1.73,5.82,5.82,0,0,1,2.63-.66,6,6,0,0,1,2.72.51,4.79,4.79,0,0,1,2.82,4c.07,1.92-1.29,3.57-2.76,4.66-3.13,2.32-7.81,3.15-11.15.79a5.94,5.94,0,0,1-2.58-4.32,5.28,5.28,0,0,1,.38-2.52,4.93,4.93,0,0,1,1.65-2,13.65,13.65,0,0,1,2.55-1.38c1-.42,1.91-.84,2.87-1.23A13.9,13.9,0,0,1,44,26.91a16.45,16.45,0,0,1,3.26.69,28.57,28.57,0,0,1,3,1.07,14.76,14.76,0,0,1,4.87,3.27,13.68,13.68,0,0,1,3.74,9.65c-.11,4.12-2.24,7.9-4.84,11a56.3,56.3,0,0,1-4.5,4.64,33.56,33.56,0,0,0-4.14,4.37A11.62,11.62,0,0,0,43.9,64.1a.44.44,0,0,0,.31.54.45.45,0,0,0,.54-.31,15.73,15.73,0,0,1,3.76-5c1.63-1.59,3.32-3.11,4.87-4.78A28.45,28.45,0,0,0,57.53,49a16.88,16.88,0,0,0,2.09-6.4,13.91,13.91,0,0,0-.66-5.8,14.72,14.72,0,0,0-3-5.13A15.09,15.09,0,0,0,50.83,28a29.11,29.11,0,0,0-3.34-1.23A17.42,17.42,0,0,0,43.85,26a15.22,15.22,0,0,0-6.92,1.45c-1,.44-2.1.89-3.13,1.36a10.48,10.48,0,0,0-2.65,1.64,6,6,0,0,0-1.77,5.6,7.1,7.1,0,0,0,3.49,4.68,9.49,9.49,0,0,0,6.47,1,11.81,11.81,0,0,0,6-3,7.49,7.49,0,0,0,1.86-2.66,5,5,0,0,0,.18-3A5.84,5.84,0,0,0,43.17,29a7.37,7.37,0,0,0-3.27-.09,5.31,5.31,0,0,0-2.72,1.27,2.32,2.32,0,0,0-.64,2.69,2.89,2.89,0,0,0,2.67,1.51,5.73,5.73,0,0,0,1.74-.3,3.58,3.58,0,0,0,1.41-.79,1.86,1.86,0,0,0,0-2.77,2.37,2.37,0,0,0-2.9.07,1.32,1.32,0,0,0-.36,1.37,1.07,1.07,0,0,0,1.1.79c.88-.11,1.18-1.57.23-1.83C40,30.72,39.73,31.57,40.28,31.72Z" transform="translate(-5.7 -5.49)"/></svg>