<svg id="Layer_7" data-name="Layer 7" xmlns="http://www.w3.org/2000/svg" viewBox="0 0 49.37 47.6"><defs><style>.cls-1{fill:#fff;}.cls-2{fill:#ff0;}</style></defs><path class="cls-1" d="M33.13,40.13l1,21.09c.07,1.36-.19,3.3,1.27,4s3.41.61,4.87.68c3.42.17,6.87,0,10.29-.16q2.73-.09,5.46-.21c1.45-.06,3.55.22,4.88-.46s1.39-2.25,1.51-3.53a35.78,35.78,0,0,0-.1-5.28c-.2-3.63-.38-7.26-.52-10.89-.07-1.58,0-3.19-.19-4.77a2.61,2.61,0,0,0-2.47-2.51,45.49,45.49,0,0,0-5.6,0c-2,0-4,0-6,.06q-6.21.08-12.43.22c-1.92,0-1.93,3,0,3q9.2-.21,18.39-.28,2.12,0,4.23,0c.24,0,.86-.14,1.06,0-.31-.23-.14-.21-.18.35a22.84,22.84,0,0,0,.09,2.48c.12,3,.25,6.1.41,9.15s.29,6,.2,9.05c0,.38-.32.51.16.29a4.19,4.19,0,0,1-1,0l-2.24.1-4.72.19c-3,.1-5.91.24-8.86.24a42.08,42.08,0,0,1-4.35-.19c-.33,0-.7-.13-1-.14l-.48-.08c.33.71.46.82.4.35a8.81,8.81,0,0,0-.12-2.45l-1-20.35c-.1-1.93-3.1-1.94-3,0Z" transform="translate(-24.7 -18.4)"/><path class="cls-2" d="M25.22,45.16A160.65,160.65,0,0,0,45.28,58.61a1.5,1.5,0,0,0,2-.54A125.23,125.23,0,0,1,73.61,21c1.39-1.34-.73-3.46-2.12-2.12A127.53,127.53,0,0,0,44.74,56.56L46.8,56A154.59,154.59,0,0,1,27.34,43c-1.5-1.18-3.64.93-2.12,2.12Z" transform="translate(-24.7 -18.4)"/></svg>