<svg xmlns="http://www.w3.org/2000/svg" viewBox="0 0 290.28 85.44"><defs><style>.cls-1{fill:#ff0;}.cls-2{font-size:40px;fill:blue;font-family:Avenir-Black, Avenir;font-weight:800;}</style></defs><g id="Layer_1" data-name="Layer 1"><path class="cls-1" d="M22.52,55.48a35.14,35.14,0,0,1-5.69-7.93C12,38.2,12.8,25.32,21,18.68c4.7-3.83,10.94-5.07,16.91-6.09C97.15,2.43,158.5.78,218.13,9.11c18.86,2.63,95.09,11.69,81.39,45.7-2.86,7.11-9.74,11.74-16.62,15.1-36.79,17.94-84.54,16.73-124.61,15.92-39.25-.79-82-.12-118-17.93C33.78,64.69,27.43,60.7,22.52,55.48Z" transform="translate(-12.37 -2.28)"/><path class="cls-1" d="M23.58,54.42a29.61,29.61,0,0,1-7.75-14.3A23.34,23.34,0,0,1,17.2,26c5-11,18.77-11.7,29.17-13.34a606.73,606.73,0,0,1,80.4-7.26,569.76,569.76,0,0,1,80.5,3.76c12.54,1.49,25.1,3.21,37.49,5.67,13.22,2.62,26.85,5.92,38.82,12.3,8.83,4.7,18.18,12.52,15.63,23.65-2.29,10-11.45,15.31-20.15,19.24a147,147,0,0,1-32.45,10c-22.9,4.47-46.41,4.9-69.67,4.63-11.37-.13-22.75-.39-34.12-.6-12.06-.23-24.13-.56-36.16-1.51-23.66-1.88-48-6.21-69.08-17.74a56.19,56.19,0,0,1-14-10.39c-1.34-1.4-3.46.72-2.13,2.12,8.43,8.85,20.1,14.22,31.41,18.37a176.65,176.65,0,0,0,36,8.69c24.32,3.46,49,3.33,73.45,3.82,23.88.47,47.89.8,71.62-2.32a182.22,182.22,0,0,0,34.39-7.64A124.14,124.14,0,0,0,284,71c4.88-2.41,9.72-5.44,13.24-9.67,4.25-5.13,6.47-12.27,4.82-18.86-1.32-5.25-5-9.55-9.15-12.83a67,67,0,0,0-17.06-9.26,155.14,155.14,0,0,0-20.58-6.29C243.68,11.31,231.87,9.49,220,7.87a583.37,583.37,0,0,0-77.89-5.58,603.72,603.72,0,0,0-83,5.54Q48.94,9.2,38.82,10.91c-5.8,1-11.9,2-16.93,5.25-8.65,5.61-11.09,16.74-8.6,26.3a33.3,33.3,0,0,0,8.16,14.08C22.77,58,24.89,55.83,23.58,54.42Z" transform="translate(-12.37 -2.28)"/></g><g id="Layer_3" data-name="Layer 3"><text class="cls-2" transform="translate(68.81 50.31)">Sign up</text></g></svg>