<?xml version="1.0" encoding="utf-8"?>
<!-- Generator: Adobe Illustrator 24.1.2, SVG Export Plug-In . SVG Version: 6.00 Build 0)  -->
<svg version="1.1" xmlns="http://www.w3.org/2000/svg" xmlns:xlink="http://www.w3.org/1999/xlink" x="0px" y="0px"
	 viewBox="0 0 315 90" style="enable-background:new 0 0 315 90;" xml:space="preserve">
<style type="text/css">
	.st0{display:none;}
	.st1{display:inline;}
	.st2{fill:#FFFF00;}
	.st3{fill:#0000FF;}
</style>
<g id="Layer_4" class="st0">
	<rect class="st1" width="315" height="90"/>
</g>
<g id="Layer_1">
	<g>
		<path class="st2" d="M22.52,55.48c-2.24-2.38-4.17-5-5.69-7.93c-4.84-9.35-4.03-22.23,4.13-28.87c4.7-3.83,10.94-5.07,16.91-6.09
			C97.15,2.43,158.5,0.78,218.13,9.11c18.86,2.63,95.09,11.7,81.39,45.7c-2.86,7.11-9.74,11.74-16.62,15.1
			c-36.79,17.94-84.53,16.73-124.6,15.92c-39.26-0.79-82.03-0.12-118.03-17.94C33.78,64.69,27.43,60.7,22.52,55.48z"/>
		<g>
			<path class="st2" d="M23.58,54.42c-3.77-4.06-6.65-8.83-7.75-14.3c-0.93-4.64-0.61-9.74,1.37-14.08
				c5.01-10.97,18.77-11.69,29.17-13.33c26.6-4.2,53.48-6.64,80.4-7.26c26.88-0.62,53.8,0.58,80.5,3.76
				c12.53,1.49,25.1,3.21,37.49,5.66c13.22,2.62,26.85,5.92,38.82,12.3c8.83,4.7,18.18,12.52,15.63,23.66
				c-2.29,10-11.45,15.3-20.15,19.24c-10.33,4.67-21.34,7.8-32.45,9.97c-22.9,4.47-46.41,4.9-69.67,4.63
				c-11.38-0.13-22.75-0.39-34.13-0.6c-12.06-0.23-24.13-0.55-36.16-1.51C83,80.67,58.62,76.34,37.58,64.81
				C32.45,62.01,27.62,58.67,23.58,54.42c-1.33-1.4-3.45,0.72-2.12,2.12c8.43,8.85,20.1,14.22,31.41,18.37
				c11.62,4.26,23.76,6.96,36,8.7c24.31,3.45,48.95,3.32,73.45,3.81c23.88,0.48,47.89,0.81,71.62-2.32
				c11.65-1.54,23.23-3.87,34.39-7.63c5.37-1.81,10.65-3.94,15.73-6.45c4.88-2.42,9.72-5.44,13.23-9.67
				c4.25-5.13,6.48-12.27,4.83-18.85c-1.32-5.25-4.98-9.56-9.15-12.84c-5.12-4.02-11.03-6.88-17.06-9.25
				c-6.68-2.63-13.6-4.62-20.58-6.29c-11.63-2.79-23.44-4.61-35.27-6.23c-25.83-3.54-51.81-5.51-77.89-5.58
				C114.38,2.2,86.62,4.1,59.11,7.83c-6.78,0.92-13.55,1.95-20.29,3.09c-5.81,0.98-11.9,1.98-16.93,5.25
				c-8.65,5.61-11.09,16.74-8.6,26.29c1.39,5.35,4.43,10.07,8.17,14.08C22.77,57.96,24.89,55.83,23.58,54.42z"/>
		</g>
	</g>
</g>
<g id="Layer_2" class="st0">
	<g class="st1">
		<g>
			<path class="st2" d="M23.58,54.42c-3.77-4.06-6.65-8.83-7.75-14.3c-0.93-4.64-0.61-9.74,1.37-14.08
				c5.01-10.97,18.77-11.69,29.17-13.33c26.6-4.2,53.48-6.64,80.4-7.26c26.88-0.62,53.8,0.58,80.5,3.76
				c12.53,1.49,25.1,3.21,37.49,5.66c13.22,2.62,26.85,5.92,38.82,12.3c8.83,4.7,18.18,12.52,15.63,23.66
				c-2.29,10-11.45,15.3-20.15,19.24c-10.33,4.67-21.34,7.8-32.45,9.97c-22.9,4.47-46.41,4.9-69.67,4.63
				c-11.38-0.13-22.75-0.39-34.13-0.6c-12.06-0.23-24.13-0.55-36.16-1.51C83,80.67,58.62,76.34,37.58,64.81
				C32.45,62.01,27.62,58.67,23.58,54.42c-1.33-1.4-3.45,0.72-2.12,2.12c8.43,8.85,20.1,14.22,31.41,18.37
				c11.62,4.26,23.76,6.96,36,8.7c24.31,3.45,48.95,3.32,73.45,3.81c23.88,0.48,47.89,0.81,71.62-2.32
				c11.65-1.54,23.23-3.87,34.39-7.63c5.37-1.81,10.65-3.94,15.73-6.45c4.88-2.42,9.72-5.44,13.23-9.67
				c4.25-5.13,6.48-12.27,4.83-18.85c-1.32-5.25-4.98-9.56-9.15-12.84c-5.12-4.02-11.03-6.88-17.06-9.25
				c-6.68-2.63-13.6-4.62-20.58-6.29c-11.63-2.79-23.44-4.61-35.27-6.23c-25.83-3.54-51.81-5.51-77.89-5.58
				C114.38,2.2,86.62,4.1,59.11,7.83c-6.78,0.92-13.55,1.95-20.29,3.09c-5.81,0.98-11.9,1.98-16.93,5.25
				c-8.65,5.61-11.09,16.74-8.6,26.29c1.39,5.35,4.43,10.07,8.17,14.08C22.77,57.96,24.89,55.83,23.58,54.42z"/>
		</g>
	</g>
</g>
<g id="Layer_3_copy" class="st0">
	<g class="st1">
		<path class="st2" d="M98.05,31.2c-0.51-0.64-1.19-1.11-2.06-1.42c-0.87-0.31-1.69-0.46-2.46-0.46c-0.45,0-0.92,0.05-1.4,0.16
			c-0.48,0.11-0.93,0.27-1.36,0.5c-0.43,0.23-0.77,0.53-1.04,0.9c-0.27,0.37-0.4,0.83-0.4,1.36c0,0.85,0.32,1.51,0.96,1.96
			c0.64,0.45,1.45,0.84,2.42,1.16c0.97,0.32,2.02,0.64,3.14,0.96c1.12,0.32,2.17,0.77,3.14,1.36c0.97,0.59,1.78,1.37,2.42,2.36
			c0.64,0.99,0.96,2.31,0.96,3.96c0,1.57-0.29,2.95-0.88,4.12c-0.59,1.17-1.38,2.15-2.38,2.92c-1,0.77-2.16,1.35-3.48,1.72
			s-2.71,0.56-4.18,0.56c-1.84,0-3.55-0.28-5.12-0.84c-1.57-0.56-3.04-1.47-4.4-2.72l4.44-4.88c0.64,0.85,1.45,1.51,2.42,1.98
			c0.97,0.47,1.98,0.7,3.02,0.7c0.51,0,1.02-0.06,1.54-0.18c0.52-0.12,0.99-0.3,1.4-0.54c0.41-0.24,0.75-0.55,1-0.92
			c0.25-0.37,0.38-0.81,0.38-1.32c0-0.85-0.33-1.53-0.98-2.02c-0.65-0.49-1.47-0.91-2.46-1.26c-0.99-0.35-2.05-0.69-3.2-1.04
			c-1.15-0.35-2.21-0.81-3.2-1.4c-0.99-0.59-1.81-1.36-2.46-2.32c-0.65-0.96-0.98-2.23-0.98-3.8c0-1.52,0.3-2.85,0.9-4
			s1.4-2.11,2.4-2.88c1-0.77,2.15-1.35,3.46-1.74c1.31-0.39,2.65-0.58,4.04-0.58c1.6,0,3.15,0.23,4.64,0.68
			c1.49,0.45,2.84,1.21,4.04,2.28L98.05,31.2z"/>
		<path class="st2" d="M105.85,27.04c0-0.96,0.34-1.78,1.02-2.46c0.68-0.68,1.5-1.02,2.46-1.02s1.78,0.34,2.46,1.02
			c0.68,0.68,1.02,1.5,1.02,2.46s-0.34,1.78-1.02,2.46c-0.68,0.68-1.5,1.02-2.46,1.02s-1.78-0.34-2.46-1.02
			C106.19,28.82,105.85,28,105.85,27.04z M106.33,33.16h6V52.6h-6V33.16z"/>
		<path class="st2" d="M137.05,50.96c0,3.68-0.93,6.47-2.78,8.38c-1.85,1.91-4.67,2.86-8.46,2.86c-1.73,0-3.44-0.19-5.12-0.58
			c-1.68-0.39-3.23-1.14-4.64-2.26l3.32-4.96c0.93,0.77,1.91,1.39,2.94,1.84c1.03,0.45,2.15,0.68,3.38,0.68
			c1.84,0,3.19-0.45,4.06-1.34c0.87-0.89,1.3-2.03,1.3-3.42v-1.88h-0.08c-0.69,0.93-1.55,1.59-2.58,1.98
			c-1.03,0.39-1.99,0.58-2.9,0.58c-1.44,0-2.75-0.25-3.92-0.74c-1.17-0.49-2.18-1.19-3.02-2.08s-1.49-1.95-1.94-3.18
			c-0.45-1.23-0.68-2.57-0.68-4.04c0-1.28,0.21-2.53,0.62-3.76c0.41-1.23,1-2.31,1.76-3.24c0.76-0.93,1.69-1.69,2.78-2.26
			c1.09-0.57,2.33-0.86,3.72-0.86c0.85,0,1.63,0.09,2.34,0.28c0.71,0.19,1.34,0.43,1.9,0.72c0.56,0.29,1.04,0.62,1.44,0.98
			s0.72,0.71,0.96,1.06h0.08v-2.56h5.52V50.96z M121.93,42.76c0,0.64,0.12,1.25,0.36,1.82c0.24,0.57,0.58,1.08,1.02,1.52
			c0.44,0.44,0.95,0.79,1.52,1.06c0.57,0.27,1.21,0.4,1.9,0.4c0.67,0,1.29-0.13,1.88-0.4c0.59-0.27,1.1-0.62,1.54-1.06
			c0.44-0.44,0.78-0.95,1.02-1.52c0.24-0.57,0.36-1.18,0.36-1.82c0-0.64-0.12-1.25-0.36-1.82c-0.24-0.57-0.58-1.08-1.02-1.52
			s-0.95-0.79-1.54-1.06c-0.59-0.27-1.21-0.4-1.88-0.4c-0.69,0-1.33,0.13-1.9,0.4c-0.57,0.27-1.08,0.62-1.52,1.06
			c-0.44,0.44-0.78,0.95-1.02,1.52C122.05,41.51,121.93,42.12,121.93,42.76z"/>
		<path class="st2" d="M141.85,33.16h5.76v2.64h0.08c0.19-0.37,0.45-0.75,0.8-1.12c0.35-0.37,0.76-0.71,1.24-1
			c0.48-0.29,1.03-0.53,1.64-0.72c0.61-0.19,1.28-0.28,2-0.28c1.52,0,2.75,0.23,3.68,0.7c0.93,0.47,1.66,1.11,2.18,1.94
			c0.52,0.83,0.87,1.8,1.06,2.92c0.19,1.12,0.28,2.33,0.28,3.64V52.6h-6v-9.52c0-0.56-0.02-1.14-0.06-1.74
			c-0.04-0.6-0.16-1.15-0.36-1.66c-0.2-0.51-0.51-0.92-0.92-1.24c-0.41-0.32-1.01-0.48-1.78-0.48c-0.77,0-1.4,0.14-1.88,0.42
			c-0.48,0.28-0.85,0.65-1.1,1.12c-0.25,0.47-0.42,0.99-0.5,1.58c-0.08,0.59-0.12,1.2-0.12,1.84v9.68h-6V33.16z"/>
		<path class="st2" d="M195.37,52.6h-5.76v-2.64h-0.08c-0.21,0.37-0.49,0.75-0.82,1.12c-0.33,0.37-0.74,0.71-1.22,1
			c-0.48,0.29-1.03,0.53-1.64,0.72c-0.61,0.19-1.28,0.28-2,0.28c-1.52,0-2.75-0.23-3.7-0.7c-0.95-0.47-1.68-1.11-2.2-1.94
			c-0.52-0.83-0.87-1.8-1.04-2.92c-0.17-1.12-0.26-2.33-0.26-3.64V33.16h6v9.52c0,0.56,0.02,1.14,0.06,1.74
			c0.04,0.6,0.16,1.15,0.36,1.66c0.2,0.51,0.51,0.92,0.92,1.24c0.41,0.32,1.01,0.48,1.78,0.48c0.77,0,1.4-0.14,1.88-0.42
			c0.48-0.28,0.85-0.65,1.1-1.12c0.25-0.47,0.42-0.99,0.5-1.58c0.08-0.59,0.12-1.2,0.12-1.84v-9.68h6V52.6z"/>
		<path class="st2" d="M200.17,33.16h5.52v2.56h0.08c0.24-0.35,0.55-0.7,0.94-1.06s0.84-0.69,1.36-0.98
			c0.52-0.29,1.09-0.53,1.7-0.72c0.61-0.19,1.27-0.28,1.96-0.28c1.44,0,2.75,0.25,3.92,0.74c1.17,0.49,2.18,1.19,3.02,2.08
			c0.84,0.89,1.49,1.95,1.94,3.18c0.45,1.23,0.68,2.57,0.68,4.04c0,1.36-0.21,2.66-0.62,3.9c-0.41,1.24-1,2.34-1.76,3.3
			s-1.69,1.73-2.78,2.3s-2.33,0.86-3.72,0.86c-1.25,0-2.42-0.19-3.5-0.58c-1.08-0.39-1.97-1.05-2.66-1.98h-0.08v11.2h-6V33.16z
			 M205.69,42.88c0,1.47,0.42,2.65,1.26,3.56c0.84,0.91,2.02,1.36,3.54,1.36s2.7-0.45,3.54-1.36c0.84-0.91,1.26-2.09,1.26-3.56
			c0-1.47-0.42-2.65-1.26-3.56c-0.84-0.91-2.02-1.36-3.54-1.36s-2.7,0.45-3.54,1.36C206.11,40.22,205.69,41.41,205.69,42.88z"/>
	</g>
	<g class="st1">
		<path class="st2" d="M98.05,31.2c-0.51-0.64-1.19-1.11-2.06-1.42c-0.87-0.31-1.69-0.46-2.46-0.46c-0.45,0-0.92,0.05-1.4,0.16
			c-0.48,0.11-0.93,0.27-1.36,0.5c-0.43,0.23-0.77,0.53-1.04,0.9c-0.27,0.37-0.4,0.83-0.4,1.36c0,0.85,0.32,1.51,0.96,1.96
			c0.64,0.45,1.45,0.84,2.42,1.16c0.97,0.32,2.02,0.64,3.14,0.96c1.12,0.32,2.17,0.77,3.14,1.36c0.97,0.59,1.78,1.37,2.42,2.36
			c0.64,0.99,0.96,2.31,0.96,3.96c0,1.57-0.29,2.95-0.88,4.12c-0.59,1.17-1.38,2.15-2.38,2.92c-1,0.77-2.16,1.35-3.48,1.72
			s-2.71,0.56-4.18,0.56c-1.84,0-3.55-0.28-5.12-0.84c-1.57-0.56-3.04-1.47-4.4-2.72l4.44-4.88c0.64,0.85,1.45,1.51,2.42,1.98
			c0.97,0.47,1.98,0.7,3.02,0.7c0.51,0,1.02-0.06,1.54-0.18c0.52-0.12,0.99-0.3,1.4-0.54c0.41-0.24,0.75-0.55,1-0.92
			c0.25-0.37,0.38-0.81,0.38-1.32c0-0.85-0.33-1.53-0.98-2.02c-0.65-0.49-1.47-0.91-2.46-1.26c-0.99-0.35-2.05-0.69-3.2-1.04
			c-1.15-0.35-2.21-0.81-3.2-1.4c-0.99-0.59-1.81-1.36-2.46-2.32c-0.65-0.96-0.98-2.23-0.98-3.8c0-1.52,0.3-2.85,0.9-4
			s1.4-2.11,2.4-2.88c1-0.77,2.15-1.35,3.46-1.74c1.31-0.39,2.65-0.58,4.04-0.58c1.6,0,3.15,0.23,4.64,0.68
			c1.49,0.45,2.84,1.21,4.04,2.28L98.05,31.2z"/>
		<path class="st2" d="M105.85,27.04c0-0.96,0.34-1.78,1.02-2.46c0.68-0.68,1.5-1.02,2.46-1.02s1.78,0.34,2.46,1.02
			c0.68,0.68,1.02,1.5,1.02,2.46s-0.34,1.78-1.02,2.46c-0.68,0.68-1.5,1.02-2.46,1.02s-1.78-0.34-2.46-1.02
			C106.19,28.82,105.85,28,105.85,27.04z M106.33,33.16h6V52.6h-6V33.16z"/>
		<path class="st2" d="M137.05,50.96c0,3.68-0.93,6.47-2.78,8.38c-1.85,1.91-4.67,2.86-8.46,2.86c-1.73,0-3.44-0.19-5.12-0.58
			c-1.68-0.39-3.23-1.14-4.64-2.26l3.32-4.96c0.93,0.77,1.91,1.39,2.94,1.84c1.03,0.45,2.15,0.68,3.38,0.68
			c1.84,0,3.19-0.45,4.06-1.34c0.87-0.89,1.3-2.03,1.3-3.42v-1.88h-0.08c-0.69,0.93-1.55,1.59-2.58,1.98
			c-1.03,0.39-1.99,0.58-2.9,0.58c-1.44,0-2.75-0.25-3.92-0.74c-1.17-0.49-2.18-1.19-3.02-2.08s-1.49-1.95-1.94-3.18
			c-0.45-1.23-0.68-2.57-0.68-4.04c0-1.28,0.21-2.53,0.62-3.76c0.41-1.23,1-2.31,1.76-3.24c0.76-0.93,1.69-1.69,2.78-2.26
			c1.09-0.57,2.33-0.86,3.72-0.86c0.85,0,1.63,0.09,2.34,0.28c0.71,0.19,1.34,0.43,1.9,0.72c0.56,0.29,1.04,0.62,1.44,0.98
			s0.72,0.71,0.96,1.06h0.08v-2.56h5.52V50.96z M121.93,42.76c0,0.64,0.12,1.25,0.36,1.82c0.24,0.57,0.58,1.08,1.02,1.52
			c0.44,0.44,0.95,0.79,1.52,1.06c0.57,0.27,1.21,0.4,1.9,0.4c0.67,0,1.29-0.13,1.88-0.4c0.59-0.27,1.1-0.62,1.54-1.06
			c0.44-0.44,0.78-0.95,1.02-1.52c0.24-0.57,0.36-1.18,0.36-1.82c0-0.64-0.12-1.25-0.36-1.82c-0.24-0.57-0.58-1.08-1.02-1.52
			s-0.95-0.79-1.54-1.06c-0.59-0.27-1.21-0.4-1.88-0.4c-0.69,0-1.33,0.13-1.9,0.4c-0.57,0.27-1.08,0.62-1.52,1.06
			c-0.44,0.44-0.78,0.95-1.02,1.52C122.05,41.51,121.93,42.12,121.93,42.76z"/>
		<path class="st2" d="M141.85,33.16h5.76v2.64h0.08c0.19-0.37,0.45-0.75,0.8-1.12c0.35-0.37,0.76-0.71,1.24-1
			c0.48-0.29,1.03-0.53,1.64-0.72c0.61-0.19,1.28-0.28,2-0.28c1.52,0,2.75,0.23,3.68,0.7c0.93,0.47,1.66,1.11,2.18,1.94
			c0.52,0.83,0.87,1.8,1.06,2.92c0.19,1.12,0.28,2.33,0.28,3.64V52.6h-6v-9.52c0-0.56-0.02-1.14-0.06-1.74
			c-0.04-0.6-0.16-1.15-0.36-1.66c-0.2-0.51-0.51-0.92-0.92-1.24c-0.41-0.32-1.01-0.48-1.78-0.48c-0.77,0-1.4,0.14-1.88,0.42
			c-0.48,0.28-0.85,0.65-1.1,1.12c-0.25,0.47-0.42,0.99-0.5,1.58c-0.08,0.59-0.12,1.2-0.12,1.84v9.68h-6V33.16z"/>
		<path class="st2" d="M195.37,52.6h-5.76v-2.64h-0.08c-0.21,0.37-0.49,0.75-0.82,1.12c-0.33,0.37-0.74,0.71-1.22,1
			c-0.48,0.29-1.03,0.53-1.64,0.72c-0.61,0.19-1.28,0.28-2,0.28c-1.52,0-2.75-0.23-3.7-0.7c-0.95-0.47-1.68-1.11-2.2-1.94
			c-0.52-0.83-0.87-1.8-1.04-2.92c-0.17-1.12-0.26-2.33-0.26-3.64V33.16h6v9.52c0,0.56,0.02,1.14,0.06,1.74
			c0.04,0.6,0.16,1.15,0.36,1.66c0.2,0.51,0.51,0.92,0.92,1.24c0.41,0.32,1.01,0.48,1.78,0.48c0.77,0,1.4-0.14,1.88-0.42
			c0.48-0.28,0.85-0.65,1.1-1.12c0.25-0.47,0.42-0.99,0.5-1.58c0.08-0.59,0.12-1.2,0.12-1.84v-9.68h6V52.6z"/>
		<path class="st2" d="M200.17,33.16h5.52v2.56h0.08c0.24-0.35,0.55-0.7,0.94-1.06s0.84-0.69,1.36-0.98
			c0.52-0.29,1.09-0.53,1.7-0.72c0.61-0.19,1.27-0.28,1.96-0.28c1.44,0,2.75,0.25,3.92,0.74c1.17,0.49,2.18,1.19,3.02,2.08
			c0.84,0.89,1.49,1.95,1.94,3.18c0.45,1.23,0.68,2.57,0.68,4.04c0,1.36-0.21,2.66-0.62,3.9c-0.41,1.24-1,2.34-1.76,3.3
			s-1.69,1.73-2.78,2.3s-2.33,0.86-3.72,0.86c-1.25,0-2.42-0.19-3.5-0.58c-1.08-0.39-1.97-1.05-2.66-1.98h-0.08v11.2h-6V33.16z
			 M205.69,42.88c0,1.47,0.42,2.65,1.26,3.56c0.84,0.91,2.02,1.36,3.54,1.36s2.7-0.45,3.54-1.36c0.84-0.91,1.26-2.09,1.26-3.56
			c0-1.47-0.42-2.65-1.26-3.56c-0.84-0.91-2.02-1.36-3.54-1.36s-2.7,0.45-3.54,1.36C206.11,40.22,205.69,41.41,205.69,42.88z"/>
	</g>
	<g class="st1">
		<path class="st2" d="M98.05,31.2c-0.51-0.64-1.19-1.11-2.06-1.42c-0.87-0.31-1.69-0.46-2.46-0.46c-0.45,0-0.92,0.05-1.4,0.16
			c-0.48,0.11-0.93,0.27-1.36,0.5c-0.43,0.23-0.77,0.53-1.04,0.9c-0.27,0.37-0.4,0.83-0.4,1.36c0,0.85,0.32,1.51,0.96,1.96
			c0.64,0.45,1.45,0.84,2.42,1.16c0.97,0.32,2.02,0.64,3.14,0.96c1.12,0.32,2.17,0.77,3.14,1.36c0.97,0.59,1.78,1.37,2.42,2.36
			c0.64,0.99,0.96,2.31,0.96,3.96c0,1.57-0.29,2.95-0.88,4.12c-0.59,1.17-1.38,2.15-2.38,2.92c-1,0.77-2.16,1.35-3.48,1.72
			s-2.71,0.56-4.18,0.56c-1.84,0-3.55-0.28-5.12-0.84c-1.57-0.56-3.04-1.47-4.4-2.72l4.44-4.88c0.64,0.85,1.45,1.51,2.42,1.98
			c0.97,0.47,1.98,0.7,3.02,0.7c0.51,0,1.02-0.06,1.54-0.18c0.52-0.12,0.99-0.3,1.4-0.54c0.41-0.24,0.75-0.55,1-0.92
			c0.25-0.37,0.38-0.81,0.38-1.32c0-0.85-0.33-1.53-0.98-2.02c-0.65-0.49-1.47-0.91-2.46-1.26c-0.99-0.35-2.05-0.69-3.2-1.04
			c-1.15-0.35-2.21-0.81-3.2-1.4c-0.99-0.59-1.81-1.36-2.46-2.32c-0.65-0.96-0.98-2.23-0.98-3.8c0-1.52,0.3-2.85,0.9-4
			s1.4-2.11,2.4-2.88c1-0.77,2.15-1.35,3.46-1.74c1.31-0.39,2.65-0.58,4.04-0.58c1.6,0,3.15,0.23,4.64,0.68
			c1.49,0.45,2.84,1.21,4.04,2.28L98.05,31.2z"/>
		<path class="st2" d="M105.85,27.04c0-0.96,0.34-1.78,1.02-2.46c0.68-0.68,1.5-1.02,2.46-1.02s1.78,0.34,2.46,1.02
			c0.68,0.68,1.02,1.5,1.02,2.46s-0.34,1.78-1.02,2.46c-0.68,0.68-1.5,1.02-2.46,1.02s-1.78-0.34-2.46-1.02
			C106.19,28.82,105.85,28,105.85,27.04z M106.33,33.16h6V52.6h-6V33.16z"/>
		<path class="st2" d="M137.05,50.96c0,3.68-0.93,6.47-2.78,8.38c-1.85,1.91-4.67,2.86-8.46,2.86c-1.73,0-3.44-0.19-5.12-0.58
			c-1.68-0.39-3.23-1.14-4.64-2.26l3.32-4.96c0.93,0.77,1.91,1.39,2.94,1.84c1.03,0.45,2.15,0.68,3.38,0.68
			c1.84,0,3.19-0.45,4.06-1.34c0.87-0.89,1.3-2.03,1.3-3.42v-1.88h-0.08c-0.69,0.93-1.55,1.59-2.58,1.98
			c-1.03,0.39-1.99,0.58-2.9,0.58c-1.44,0-2.75-0.25-3.92-0.74c-1.17-0.49-2.18-1.19-3.02-2.08s-1.49-1.95-1.94-3.18
			c-0.45-1.23-0.68-2.57-0.68-4.04c0-1.28,0.21-2.53,0.62-3.76c0.41-1.23,1-2.31,1.76-3.24c0.76-0.93,1.69-1.69,2.78-2.26
			c1.09-0.57,2.33-0.86,3.72-0.86c0.85,0,1.63,0.09,2.34,0.28c0.71,0.19,1.34,0.43,1.9,0.72c0.56,0.29,1.04,0.62,1.44,0.98
			s0.72,0.71,0.96,1.06h0.08v-2.56h5.52V50.96z M121.93,42.76c0,0.64,0.12,1.25,0.36,1.82c0.24,0.57,0.58,1.08,1.02,1.52
			c0.44,0.44,0.95,0.79,1.52,1.06c0.57,0.27,1.21,0.4,1.9,0.4c0.67,0,1.29-0.13,1.88-0.4c0.59-0.27,1.1-0.62,1.54-1.06
			c0.44-0.44,0.78-0.95,1.02-1.52c0.24-0.57,0.36-1.18,0.36-1.82c0-0.64-0.12-1.25-0.36-1.82c-0.24-0.57-0.58-1.08-1.02-1.52
			s-0.95-0.79-1.54-1.06c-0.59-0.27-1.21-0.4-1.88-0.4c-0.69,0-1.33,0.13-1.9,0.4c-0.57,0.27-1.08,0.62-1.52,1.06
			c-0.44,0.44-0.78,0.95-1.02,1.52C122.05,41.51,121.93,42.12,121.93,42.76z"/>
		<path class="st2" d="M141.85,33.16h5.76v2.64h0.08c0.19-0.37,0.45-0.75,0.8-1.12c0.35-0.37,0.76-0.71,1.24-1
			c0.48-0.29,1.03-0.53,1.64-0.72c0.61-0.19,1.28-0.28,2-0.28c1.52,0,2.75,0.23,3.68,0.7c0.93,0.47,1.66,1.11,2.18,1.94
			c0.52,0.83,0.87,1.8,1.06,2.92c0.19,1.12,0.28,2.33,0.28,3.64V52.6h-6v-9.52c0-0.56-0.02-1.14-0.06-1.74
			c-0.04-0.6-0.16-1.15-0.36-1.66c-0.2-0.51-0.51-0.92-0.92-1.24c-0.41-0.32-1.01-0.48-1.78-0.48c-0.77,0-1.4,0.14-1.88,0.42
			c-0.48,0.28-0.85,0.65-1.1,1.12c-0.25,0.47-0.42,0.99-0.5,1.58c-0.08,0.59-0.12,1.2-0.12,1.84v9.68h-6V33.16z"/>
		<path class="st2" d="M195.37,52.6h-5.76v-2.64h-0.08c-0.21,0.37-0.49,0.75-0.82,1.12c-0.33,0.37-0.74,0.71-1.22,1
			c-0.48,0.29-1.03,0.53-1.64,0.72c-0.61,0.19-1.28,0.28-2,0.28c-1.52,0-2.75-0.23-3.7-0.7c-0.95-0.47-1.68-1.11-2.2-1.94
			c-0.52-0.83-0.87-1.8-1.04-2.92c-0.17-1.12-0.26-2.33-0.26-3.64V33.16h6v9.52c0,0.56,0.02,1.14,0.06,1.74
			c0.04,0.6,0.16,1.15,0.36,1.66c0.2,0.51,0.51,0.92,0.92,1.24c0.41,0.32,1.01,0.48,1.78,0.48c0.77,0,1.4-0.14,1.88-0.42
			c0.48-0.28,0.85-0.65,1.1-1.12c0.25-0.47,0.42-0.99,0.5-1.58c0.08-0.59,0.12-1.2,0.12-1.84v-9.68h6V52.6z"/>
		<path class="st2" d="M200.17,33.16h5.52v2.56h0.08c0.24-0.35,0.55-0.7,0.94-1.06s0.84-0.69,1.36-0.98
			c0.52-0.29,1.09-0.53,1.7-0.72c0.61-0.19,1.27-0.28,1.96-0.28c1.44,0,2.75,0.25,3.92,0.74c1.17,0.49,2.18,1.19,3.02,2.08
			c0.84,0.89,1.49,1.95,1.94,3.18c0.45,1.23,0.68,2.57,0.68,4.04c0,1.36-0.21,2.66-0.62,3.9c-0.41,1.24-1,2.34-1.76,3.3
			s-1.69,1.73-2.78,2.3s-2.33,0.86-3.72,0.86c-1.25,0-2.42-0.19-3.5-0.58c-1.08-0.39-1.97-1.05-2.66-1.98h-0.08v11.2h-6V33.16z
			 M205.69,42.88c0,1.47,0.42,2.65,1.26,3.56c0.84,0.91,2.02,1.36,3.54,1.36s2.7-0.45,3.54-1.36c0.84-0.91,1.26-2.09,1.26-3.56
			c0-1.47-0.42-2.65-1.26-3.56c-0.84-0.91-2.02-1.36-3.54-1.36s-2.7,0.45-3.54,1.36C206.11,40.22,205.69,41.41,205.69,42.88z"/>
	</g>
</g>
<g id="Layer_3">
	<g>
		<path class="st3" d="M98.05,31.2c-0.51-0.64-1.19-1.11-2.06-1.42c-0.87-0.31-1.69-0.46-2.46-0.46c-0.45,0-0.92,0.05-1.4,0.16
			c-0.48,0.11-0.93,0.27-1.36,0.5c-0.43,0.23-0.77,0.53-1.04,0.9c-0.27,0.37-0.4,0.83-0.4,1.36c0,0.85,0.32,1.51,0.96,1.96
			c0.64,0.45,1.45,0.84,2.42,1.16c0.97,0.32,2.02,0.64,3.14,0.96c1.12,0.32,2.17,0.77,3.14,1.36c0.97,0.59,1.78,1.37,2.42,2.36
			c0.64,0.99,0.96,2.31,0.96,3.96c0,1.57-0.29,2.95-0.88,4.12c-0.59,1.17-1.38,2.15-2.38,2.92c-1,0.77-2.16,1.35-3.48,1.72
			s-2.71,0.56-4.18,0.56c-1.84,0-3.55-0.28-5.12-0.84c-1.57-0.56-3.04-1.47-4.4-2.72l4.44-4.88c0.64,0.85,1.45,1.51,2.42,1.98
			c0.97,0.47,1.98,0.7,3.02,0.7c0.51,0,1.02-0.06,1.54-0.18c0.52-0.12,0.99-0.3,1.4-0.54c0.41-0.24,0.75-0.55,1-0.92
			c0.25-0.37,0.38-0.81,0.38-1.32c0-0.85-0.33-1.53-0.98-2.02c-0.65-0.49-1.47-0.91-2.46-1.26c-0.99-0.35-2.05-0.69-3.2-1.04
			c-1.15-0.35-2.21-0.81-3.2-1.4c-0.99-0.59-1.81-1.36-2.46-2.32c-0.65-0.96-0.98-2.23-0.98-3.8c0-1.52,0.3-2.85,0.9-4
			s1.4-2.11,2.4-2.88c1-0.77,2.15-1.35,3.46-1.74c1.31-0.39,2.65-0.58,4.04-0.58c1.6,0,3.15,0.23,4.64,0.68
			c1.49,0.45,2.84,1.21,4.04,2.28L98.05,31.2z"/>
		<path class="st3" d="M105.85,27.04c0-0.96,0.34-1.78,1.02-2.46c0.68-0.68,1.5-1.02,2.46-1.02s1.78,0.34,2.46,1.02
			c0.68,0.68,1.02,1.5,1.02,2.46s-0.34,1.78-1.02,2.46c-0.68,0.68-1.5,1.02-2.46,1.02s-1.78-0.34-2.46-1.02
			C106.19,28.82,105.85,28,105.85,27.04z M106.33,33.16h6V52.6h-6V33.16z"/>
		<path class="st3" d="M137.05,50.96c0,3.68-0.93,6.47-2.78,8.38c-1.85,1.91-4.67,2.86-8.46,2.86c-1.73,0-3.44-0.19-5.12-0.58
			c-1.68-0.39-3.23-1.14-4.64-2.26l3.32-4.96c0.93,0.77,1.91,1.39,2.94,1.84c1.03,0.45,2.15,0.68,3.38,0.68
			c1.84,0,3.19-0.45,4.06-1.34c0.87-0.89,1.3-2.03,1.3-3.42v-1.88h-0.08c-0.69,0.93-1.55,1.59-2.58,1.98
			c-1.03,0.39-1.99,0.58-2.9,0.58c-1.44,0-2.75-0.25-3.92-0.74c-1.17-0.49-2.18-1.19-3.02-2.08s-1.49-1.95-1.94-3.18
			c-0.45-1.23-0.68-2.57-0.68-4.04c0-1.28,0.21-2.53,0.62-3.76c0.41-1.23,1-2.31,1.76-3.24c0.76-0.93,1.69-1.69,2.78-2.26
			c1.09-0.57,2.33-0.86,3.72-0.86c0.85,0,1.63,0.09,2.34,0.28c0.71,0.19,1.34,0.43,1.9,0.72c0.56,0.29,1.04,0.62,1.44,0.98
			s0.72,0.71,0.96,1.06h0.08v-2.56h5.52V50.96z M121.93,42.76c0,0.64,0.12,1.25,0.36,1.82c0.24,0.57,0.58,1.08,1.02,1.52
			c0.44,0.44,0.95,0.79,1.52,1.06c0.57,0.27,1.21,0.4,1.9,0.4c0.67,0,1.29-0.13,1.88-0.4c0.59-0.27,1.1-0.62,1.54-1.06
			c0.44-0.44,0.78-0.95,1.02-1.52c0.24-0.57,0.36-1.18,0.36-1.82c0-0.64-0.12-1.25-0.36-1.82c-0.24-0.57-0.58-1.08-1.02-1.52
			s-0.95-0.79-1.54-1.06c-0.59-0.27-1.21-0.4-1.88-0.4c-0.69,0-1.33,0.13-1.9,0.4c-0.57,0.27-1.08,0.62-1.52,1.06
			c-0.44,0.44-0.78,0.95-1.02,1.52C122.05,41.51,121.93,42.12,121.93,42.76z"/>
		<path class="st3" d="M141.85,33.16h5.76v2.64h0.08c0.19-0.37,0.45-0.75,0.8-1.12c0.35-0.37,0.76-0.71,1.24-1
			c0.48-0.29,1.03-0.53,1.64-0.72c0.61-0.19,1.28-0.28,2-0.28c1.52,0,2.75,0.23,3.68,0.7c0.93,0.47,1.66,1.11,2.18,1.94
			c0.52,0.83,0.87,1.8,1.06,2.92c0.19,1.12,0.28,2.33,0.28,3.64V52.6h-6v-9.52c0-0.56-0.02-1.14-0.06-1.74
			c-0.04-0.6-0.16-1.15-0.36-1.66c-0.2-0.51-0.51-0.92-0.92-1.24c-0.41-0.32-1.01-0.48-1.78-0.48c-0.77,0-1.4,0.14-1.88,0.42
			c-0.48,0.28-0.85,0.65-1.1,1.12c-0.25,0.47-0.42,0.99-0.5,1.58c-0.08,0.59-0.12,1.2-0.12,1.84v9.68h-6V33.16z"/>
		<path class="st3" d="M195.37,52.6h-5.76v-2.64h-0.08c-0.21,0.37-0.49,0.75-0.82,1.12c-0.33,0.37-0.74,0.71-1.22,1
			c-0.48,0.29-1.03,0.53-1.64,0.72c-0.61,0.19-1.28,0.28-2,0.28c-1.52,0-2.75-0.23-3.7-0.7c-0.95-0.47-1.68-1.11-2.2-1.94
			c-0.52-0.83-0.87-1.8-1.04-2.92c-0.17-1.12-0.26-2.33-0.26-3.64V33.16h6v9.52c0,0.56,0.02,1.14,0.06,1.74
			c0.04,0.6,0.16,1.15,0.36,1.66c0.2,0.51,0.51,0.92,0.92,1.24c0.41,0.32,1.01,0.48,1.78,0.48c0.77,0,1.4-0.14,1.88-0.42
			c0.48-0.28,0.85-0.65,1.1-1.12c0.25-0.47,0.42-0.99,0.5-1.58c0.08-0.59,0.12-1.2,0.12-1.84v-9.68h6V52.6z"/>
		<path class="st3" d="M200.17,33.16h5.52v2.56h0.08c0.24-0.35,0.55-0.7,0.94-1.06s0.84-0.69,1.36-0.98
			c0.52-0.29,1.09-0.53,1.7-0.72c0.61-0.19,1.27-0.28,1.96-0.28c1.44,0,2.75,0.25,3.92,0.74c1.17,0.49,2.18,1.19,3.02,2.08
			c0.84,0.89,1.49,1.95,1.94,3.18c0.45,1.23,0.68,2.57,0.68,4.04c0,1.36-0.21,2.66-0.62,3.9c-0.41,1.24-1,2.34-1.76,3.3
			s-1.69,1.73-2.78,2.3s-2.33,0.86-3.72,0.86c-1.25,0-2.42-0.19-3.5-0.58c-1.08-0.39-1.97-1.05-2.66-1.98h-0.08v11.2h-6V33.16z
			 M205.69,42.88c0,1.47,0.42,2.65,1.26,3.56c0.84,0.91,2.02,1.36,3.54,1.36s2.7-0.45,3.54-1.36c0.84-0.91,1.26-2.09,1.26-3.56
			c0-1.47-0.42-2.65-1.26-3.56c-0.84-0.91-2.02-1.36-3.54-1.36s-2.7,0.45-3.54,1.36C206.11,40.22,205.69,41.41,205.69,42.88z"/>
	</g>
</g>
</svg>
