<svg id="Layer_16" data-name="Layer 16" xmlns="http://www.w3.org/2000/svg" viewBox="0 0 53.39 18.74"><defs><style>.cls-1{fill:#fff;}</style></defs><path class="cls-1" d="M967.64,615.23c10.44,0,20.87.14,31.3.2l5.13,0a1.5,1.5,0,0,0,0-3c-10.43,0-20.87-.13-31.3-.2l-5.13,0a1.5,1.5,0,0,0,0,3Z" transform="translate(-966.2 -605.38)"/><path class="cls-1" d="M1017.49,613.83a42.11,42.11,0,0,1-14-6.92c-1.66,5-1.77,10.44-1.86,15.74,6.23-1,10.68-6.57,16.5-9" transform="translate(-966.2 -605.38)"/><path class="cls-1" d="M1017.89,612.39a41.67,41.67,0,0,1-13.67-6.78,1.52,1.52,0,0,0-2.21.9c-1.68,5.2-1.81,10.72-1.91,16.14a1.53,1.53,0,0,0,1.9,1.45c6.54-1.12,11-6.64,16.86-9.16a1.51,1.51,0,0,0,.53-2.06,1.53,1.53,0,0,0-2-.53c-5.65,2.41-9.91,7.79-16.14,8.85l1.9,1.45c.09-5.17.2-10.38,1.8-15.34l-2.2.89a43.84,43.84,0,0,0,14.39,7.08,1.5,1.5,0,0,0,.8-2.89Z" transform="translate(-966.2 -605.38)"/></svg>