<svg id="Layer_14" data-name="Layer 14" xmlns="http://www.w3.org/2000/svg" viewBox="0 0 51.32 14.24"><defs><style>.cls-1{fill:#fff;}</style></defs><path class="cls-1" d="M968.68,615.32h37.76a1.5,1.5,0,0,0,0-3H968.68a1.5,1.5,0,0,0,0,3Z" transform="translate(-967.23 -607.63)"/><path class="cls-1" d="M1002,609.13a47.12,47.12,0,0,1,1,11.24,33.51,33.51,0,0,0,12.71-3.15,2.44,2.44,0,0,0,1.23-1c.61-1.11-.57-2.34-1.66-3a30.29,30.29,0,0,0-11.76-4.15" transform="translate(-967.23 -607.63)"/><path class="cls-1" d="M1000.52,609.53a46.37,46.37,0,0,1,.92,10.84,1.52,1.52,0,0,0,1.5,1.5,33.18,33.18,0,0,0,13.78-3.5,3.21,3.21,0,0,0,1.83-2.66,3.9,3.9,0,0,0-1.38-2.84,19.1,19.1,0,0,0-5.87-3.22,31,31,0,0,0-7.44-2,1.54,1.54,0,0,0-1.84,1.05,1.5,1.5,0,0,0,1,1.84,30.86,30.86,0,0,1,7.08,1.83,26.6,26.6,0,0,1,3,1.39,16,16,0,0,1,1.55.9,8.61,8.61,0,0,1,.85.86c.07.05.07.27,0,.17s.1-.2-.25,0a11.69,11.69,0,0,1-1.48.69,32.63,32.63,0,0,1-10.88,2.46l1.5,1.5a50,50,0,0,0-1-11.64,1.5,1.5,0,1,0-2.9.8Z" transform="translate(-967.23 -607.63)"/></svg>