<svg id="Layer_15" data-name="Layer 15" xmlns="http://www.w3.org/2000/svg" viewBox="0 0 54.52 15.58"><defs><style>.cls-1{fill:#fff;}</style></defs><path class="cls-1" d="M967.51,615.64c-.57.09,0,0,.26,0l1,0c1,0,2-.07,3.07-.09q4.51-.09,9-.12,9.95-.09,19.9,0c1.82,0,3.68-.05,5.5.11s1.91-2.83,0-3c-4.55-.4-9.23-.13-13.78-.13-6.64,0-13.27,0-19.9.17a44.43,44.43,0,0,0-5.88.26c-1.91.3-1.1,3.19.79,2.9Z" transform="translate(-965.63 -606.96)"/><path class="cls-1" d="M1017,612.62l-12.44-4.07a1.1,1.1,0,0,0-1.06,0,1.06,1.06,0,0,0-.23.86l.21,7.35a5.22,5.22,0,0,0,.78,3.17c1.21,1.51,3.63,1.22,5.33.28,3.49-1.92,5.63-5.72,9.08-7.74" transform="translate(-965.63 -606.96)"/><path class="cls-1" d="M1017.41,611.18,1007,607.77c-1.51-.49-3.82-1.64-4.9.2a4.35,4.35,0,0,0-.29,2.4l.07,2.75c0,1.7,0,3.43.21,5.12a4.66,4.66,0,0,0,2.35,3.76c2.75,1.38,5.78-.12,8-1.86,2.46-2,4.3-4.69,7-6.33a1.5,1.5,0,0,0-1.51-2.59,25.85,25.85,0,0,0-5.07,4.39c-1.37,1.4-2.9,3.09-4.82,3.7a2.93,2.93,0,0,1-2.25,0c-.76-.44-.75-1.52-.78-2.29-.06-1.4-.08-2.81-.12-4.21l-.06-2a5.12,5.12,0,0,1,0-1.71l-.38.67c-.54.06-.67.12-.4.18l.4.13.87.28,1.45.47,3.32,1.09,6.51,2.13c1.84.6,2.63-2.29.8-2.89Z" transform="translate(-965.63 -606.96)"/></svg>