<svg id="Layer_13" data-name="Layer 13" xmlns="http://www.w3.org/2000/svg" viewBox="0 0 131.55 133.22"><defs><style>.cls-1{fill:#009245;}.cls-2{fill:#fff;}.cls-3{fill:blue;}</style></defs><path class="cls-1" d="M1013.26,615.9a1.5,1.5,0,0,0,0-3,1.5,1.5,0,0,0,0,3Z" transform="translate(-928.78 -553.01)"/><path d="M1031.73,563.7c-37.76-23.27-90.63,0-100.09,43-6.21,28.2,9.32,64.55,37.87,74.21,24.2,8.18,50.48,3.37,68.32-15.73,9.49-10.17,16.71-22.66,19.62-36.26s1.3-28.33-5.5-40.47c-5-9-12.65-16.27-20.15-23.38" transform="translate(-928.78 -553.01)"/><path class="cls-2" d="M1032.49,562.4A64.53,64.53,0,0,0,998.36,553a72.38,72.38,0,0,0-33.68,8.8,70.81,70.81,0,0,0-25.79,23.67,63.12,63.12,0,0,0-10.11,34.26,73.83,73.83,0,0,0,9.77,36.14c6.14,10.72,15.28,20,26.73,25a68.84,68.84,0,0,0,42.08,3.65c14.74-3.43,27.14-12.17,36.42-24,9.88-12.58,16.39-28,16.55-44.1a59.29,59.29,0,0,0-4.57-23.6c-3.26-7.67-8.41-14.27-14.14-20.25-2.83-2.95-5.79-5.76-8.75-8.58-1.4-1.32-3.53.79-2.13,2.13,5.81,5.51,11.7,11.06,16.4,17.58a53.5,53.5,0,0,1,9.22,21.46c2.9,15.39-.89,31.25-8.79,44.59-7.46,12.58-18.23,23.48-31.95,29A65.06,65.06,0,0,1,975,681a51.82,51.82,0,0,1-16.84-7.53,55.46,55.46,0,0,1-12.57-12.32,70.36,70.36,0,0,1-13.25-33.26,60.87,60.87,0,0,1,5.39-34.1,65.75,65.75,0,0,1,21.73-25.18,70.56,70.56,0,0,1,30.87-12A60.93,60.93,0,0,1,1031,565c1.65,1,3.16-1.58,1.52-2.59Z" transform="translate(-928.78 -553.01)"/><path class="cls-3" d="M964.61,596.45c4.36-4.58,8.93-8.89,14.81-11.47,11.59-5.09,25.09-3.38,35.52,3.68a39.47,39.47,0,0,1,15.66,21.56,31.75,31.75,0,0,1-3.53,25.88,46.6,46.6,0,0,1-16.89,16.49c-4.19,2.37-9,4.41-13.82,4.68a34.25,34.25,0,0,1-15.47-3.06,41.37,41.37,0,0,1-17.12-13.56c-7.65-10.59-8.47-23.64-3.43-35.53.73-1.71,1.52-3.39,2.32-5.07.7-1.45,1.3-3.27,2.59-4.32" transform="translate(-928.78 -553.01)"/><path class="cls-1" d="M964.07,623.71c.37,1.19.52,2.52,1.38,3.41a6,6,0,0,0,2.66,1.32c2.24.72,4.71,2,5.11,4.31s-1.29,4.52-.43,6.57c.59,1.43,2.16,2.13,3.48,2.93,4,2.41,6.44,6.7,8.11,11a3.54,3.54,0,0,0,1,1.64,1.16,1.16,0,0,0,1.69-.22,1.79,1.79,0,0,0-.09-1.28,14.58,14.58,0,0,1-.63-8.1c.92-3.56,3.77-6.43,4.46-10.05a3.58,3.58,0,0,0-.15-2.22,3.49,3.49,0,0,0-2.21-1.63c-3.26-1-7.15.15-10-1.76a4.63,4.63,0,0,0-2.22-1.18c-.72,0-1.39.43-2.1.39-1.59-.09-2.29-2.4-3.87-2.56a6.44,6.44,0,0,1-1.46,0c-.72-.25-.94-1.15-1-1.91a5.84,5.84,0,0,1,.07-2.88,2,2,0,0,1,2.25-1.39c.84.24,1.61,1.22,2.39.82,1.16-.59-.26-2.79.77-3.59.41-.32,1.1-.26,1.35-.72s-.34-1.13-.6-1.71a2,2,0,0,1,.82-2.27,6.88,6.88,0,0,1,2.43-.88,27.72,27.72,0,0,0,7.93-3.24,5.88,5.88,0,0,0,2.24-2,2.31,2.31,0,0,0-.32-2.81,2.9,2.9,0,0,0-2.75-.22,8.94,8.94,0,0,1-2.78.73c-1,0-2-.75-1.9-1.71.05-.41.3-.79.25-1.19-.08-.7-.92-1-1.32-1.58-.9-1.32.89-3.07.49-4.62-.19-.74-.86-1.31-1-2.08a2.94,2.94,0,0,1,1-2.1l2.72-3.06c.61-.7,1.61-1.44,2.35-.89a1.62,1.62,0,0,1,.21,1.91,5,5,0,0,0-.68,1.93c0,1.5,2.12,2.57,1.72,4-.22.81-1.1,1.2-1.8,1.67s-1.28,1.46-.72,2.09a1.52,1.52,0,0,0,.68.38c2.43.78,5-.31,7.27-1.56,1.58-.89,3.25-2.1,3.5-3.89.15-1.16-.26-2.56.59-3.35.45-.42,1.13-.53,1.52-1,.68-.84-.06-2-.7-2.92s-1.11-2.32-.17-2.87l-.25-.05a1.29,1.29,0,0,0,.61-1.18A35.43,35.43,0,0,0,979.42,585c-5.88,2.58-10.45,6.89-14.81,11.47l.64-.72c-1.29,1-1.89,2.87-2.59,4.32-.8,1.68-1.59,3.36-2.32,5.07a39.49,39.49,0,0,0-3,11.72c1.08.84,2.37,1.42,3.48,2.24A9.18,9.18,0,0,1,964.07,623.71Z" transform="translate(-928.78 -553.01)"/><path class="cls-1" d="M1030.6,610.22a39.47,39.47,0,0,0-15.66-21.56l-.15-.1a3.45,3.45,0,0,0-.43,2.37,4.9,4.9,0,0,0,.81,1.73,11,11,0,0,0,3.06,3,1.53,1.53,0,0,1,.56.51,1.07,1.07,0,0,1,0,.91,2.71,2.71,0,0,1-2.58,1.41,30,30,0,0,1-3.09-.47,3.34,3.34,0,0,0-2.89.8c-.44.49-.63,1.17-1.1,1.64a6.19,6.19,0,0,1-2.41,1.06c-.84.31-1.68,1.1-1.43,2a1.56,1.56,0,0,0,2.08.75,6.85,6.85,0,0,0,2-1.53,9.13,9.13,0,0,1,1.8-1.27,1.76,1.76,0,0,1,1.29-.26,1.51,1.51,0,0,1,.87,1,4.29,4.29,0,0,1-1.56,4.71,7.13,7.13,0,0,1-5,1.21,2.45,2.45,0,0,0-1.84.25,1.6,1.6,0,0,0,0,2.14,1.21,1.21,0,0,1,.28.49c.06.42-.43.7-.85.77s-.92.11-1.15.47c-.42.67.56,1.33.9,2,.47,1-.28,2-1,2.82s-1.51,1.8-1.14,2.79a1.94,1.94,0,0,0,2.55.83,5.16,5.16,0,0,0,2.12-2,6.54,6.54,0,0,1,2-2.19,2.08,2.08,0,0,1,2.69.41c.19.28.29.65.58.83a1,1,0,0,0,1.2-.21c.33-.29.57-.67.92-.94,1.41-1.1,3.8.11,5.12-1.1.53.58,0,1.54-.72,1.9s-1.54.5-2.06,1.09a.84.84,0,0,0-.24.58,1.2,1.2,0,0,0,.31.6,11.32,11.32,0,0,1,2.11,4.39c.23,1,.44,2.18,1.35,2.63a2.4,2.4,0,0,0,1.3.17,6.86,6.86,0,0,0,3.76-1.54,2.31,2.31,0,0,0,1-1.61c0-.9-.8-1.58-1.61-2a5,5,0,0,1-2.2-1.52.67.67,0,0,1-.11-.62c.15-.34.64-.31,1-.2a13.36,13.36,0,0,1,5.17,2.86,13.11,13.11,0,0,0,2.24,1.85,3.2,3.2,0,0,0,1.12.4A31.76,31.76,0,0,0,1030.6,610.22Z" transform="translate(-928.78 -553.01)"/><path class="cls-1" d="M1021,631.19c-.88.1-2,0-2.3-.83a2.86,2.86,0,0,1-.08-.88c-.08-1.84-1.85-3.23-2.11-5.05a21.06,21.06,0,0,1,.13-2.86,4.64,4.64,0,0,0-.65-2.3.43.43,0,0,0-.23-.23.54.54,0,0,0-.32.09l-3.17,1.82.49-.3a33.36,33.36,0,0,0-7.34,1.51,6,6,0,0,0-2.11,1.05c-1.56,1.35-1.51,3.75-1.13,5.78a4.59,4.59,0,0,0,.89,2.25c.92,1,2.49,1.1,3.87,1.21s3,.5,3.53,1.79a8.76,8.76,0,0,1,.24,2.36c.18,1.64,1.38,3.07,1.4,4.73,0,2.23-2.12,4-2.29,6.23,0,.33,0,.73.34.85a.83.83,0,0,0,.74-.22,24.74,24.74,0,0,0,2.54-2.37,23.6,23.6,0,0,1,4.81-3.62,2.84,2.84,0,0,0,1.26-1.05,3.47,3.47,0,0,0,.26-1.1c.37-2.36,2.1-4.24,3.3-6.31a2,2,0,0,0,.33-1.87C1023,631.08,1021.85,631.09,1021,631.19Z" transform="translate(-928.78 -553.01)"/></svg>