<svg id="Layer_10" data-name="Layer 10" xmlns="http://www.w3.org/2000/svg" viewBox="0 0 129.8 130.05"><defs><style>.cls-1{fill:#009245;}.cls-2{fill:#fff;}.cls-3{fill:#ff0;}</style></defs><path class="cls-1" d="M849.61,616.58a1.5,1.5,0,0,0,0-3,1.5,1.5,0,0,0,0,3Z" transform="translate(-793.09 -549.68)"/><path d="M886,558.12a60.78,60.78,0,0,0-41.53-5.51c-24.8,5.56-44.06,26.31-48.77,51.13a66.63,66.63,0,0,0,8.38,46.48A58.76,58.76,0,0,0,830.83,674c14.56,6.21,31.62,5.41,46.24-.67,28.09-11.69,51.44-42.57,42.47-73.92A67.6,67.6,0,0,0,886,558.12Z" transform="translate(-793.09 -549.68)"/><path class="cls-2" d="M886.77,556.83a63.06,63.06,0,0,0-43.38-5.5,64.8,64.8,0,0,0-31,17.68,66.92,66.92,0,0,0-14.1,72.93c5.22,12.59,14.3,23.67,26.17,30.51,12.73,7.34,28,8.9,42.23,5.72,12.8-2.86,24.64-9.64,34.21-18.52,9.12-8.47,16.41-19.21,19.9-31.21a55.09,55.09,0,0,0-2.49-37.12,69.63,69.63,0,0,0-23.63-29.66,66.75,66.75,0,0,0-7.88-4.83c-1.71-.89-3.23,1.69-1.51,2.59,21.24,11.1,37.26,35.28,34.37,59.79-2.79,23.67-21.86,44-43.36,52.81-13,5.32-27.95,6.45-41.39,1.9-12.27-4.15-22.54-13.16-29.27-24.12a65.31,65.31,0,0,1-9.3-39.34,64,64,0,0,1,12.68-33,62.81,62.81,0,0,1,26.67-20.57,59.55,59.55,0,0,1,40-1.48,61.85,61.85,0,0,1,9.6,4C887,560.3,888.49,557.71,886.77,556.83Z" transform="translate(-793.09 -549.68)"/><path class="cls-3" d="M838.87,612.71l9,12c1.16,1.54,2.4,3.34,4.4,3.83,2.27.56,3.86-1.24,5.37-2.62l22.55-20.52c1.43-1.31-.69-3.42-2.12-2.12l-20,18.19-2.38,2.16c-.56.51-1.59,1.84-2.38,2-1.49.3-3.2-2.86-3.89-3.79l-8-10.66c-1.14-1.53-3.75,0-2.59,1.51Z" transform="translate(-793.09 -549.68)"/></svg>