<svg id="Layer_11" data-name="Layer 11" xmlns="http://www.w3.org/2000/svg" viewBox="0 0 130.33 130.26"><defs><style>.cls-1{fill:#fff;}.cls-2{fill:#f0f;}</style></defs><path d="M859.74,550.83c-20.27,1.13-39.61,11-51.14,27.92a69.46,69.46,0,0,0-11.25,46.18c1.79,16.69,9.85,33.08,23.46,42.91,14,10.1,32.78,12.43,49.47,8,28.54-7.53,52.64-32.16,54-62.44A61.61,61.61,0,0,0,908,569.26C895.33,555.68,877.44,549.85,859.74,550.83Z" transform="translate(-795.45 -549.23)"/><path class="cls-1" d="M859.74,549.33A70.42,70.42,0,0,0,823.09,562a65.34,65.34,0,0,0-23.94,32.59A71.89,71.89,0,0,0,798,636.38c3.6,12.85,11,24.73,21.86,32.64,11.3,8.22,25.81,11.44,39.61,10.22a74.6,74.6,0,0,0,35.24-13,73.71,73.71,0,0,0,24-26.83,62.39,62.39,0,0,0-12.48-74,61.63,61.63,0,0,0-36.54-15.94,69.71,69.71,0,0,0-10-.18c-1.93.1-1.94,3.11,0,3,13-.68,26.07,2.3,37,9.42a58.2,58.2,0,0,1,23.46,31.87,59.17,59.17,0,0,1-.8,36.81,67.43,67.43,0,0,1-19.52,28.1c-18.63,16.21-46.44,23.62-69.64,13.05-24.78-11.29-35.36-40.77-30.72-66.44a64.11,64.11,0,0,1,18.25-34.93,65.45,65.45,0,0,1,32.88-16.76,69.14,69.14,0,0,1,9.07-1.12C861.65,552.22,861.67,549.22,859.74,549.33Z" transform="translate(-795.45 -549.23)"/><path d="M832.35,602.49l25.51-1.65c11.21-.72,22.44-1.44,33.67-1.14-7.31,7.82-16.8,13.39-23.83,21.45a3.84,3.84,0,0,1-2.22,1.59,3.54,3.54,0,0,1-1.74-.36,120.35,120.35,0,0,1-32.52-19.08,31.53,31.53,0,0,0,0,7.52l2.23,29a3.4,3.4,0,0,0,.83,2.37,3.35,3.35,0,0,0,2.1.57,250.36,250.36,0,0,0,50.27-3.09,4,4,0,0,0,2-.72,4.13,4.13,0,0,0,1.12-2.49,138.55,138.55,0,0,0,2.17-35.5" transform="translate(-795.45 -549.23)"/><path class="cls-1" d="M832.35,604q14.73-1,29.47-1.9c9.89-.63,19.79-1.14,29.71-.89l-1.06-2.56c-6.38,6.78-14.28,11.83-20.9,18.35-.81.8-1.6,1.62-2.36,2.46s-1.33,1.95-2.43,1.71a19.08,19.08,0,0,1-3.09-1.22c-1.17-.48-2.32-1-3.47-1.52a120.57,120.57,0,0,1-25.94-16.18c-.76-.63-2.32-.57-2.51.66-.67,4.49,0,9.09.36,13.58l1.07,14,.53,6.89c.14,1.83-.06,4.33,1.33,5.75s3.68,1.17,5.49,1.22c2.37.08,4.73.12,7.1.12A249.45,249.45,0,0,0,873.52,643c4.57-.5,9.16-1,13.68-1.87a4.43,4.43,0,0,0,3.71-3,36.7,36.7,0,0,0,1.2-6.42A141.24,141.24,0,0,0,893.44,601c-.13-1.92-3.13-1.93-3,0a140.35,140.35,0,0,1-.57,25q-.36,3.15-.88,6.29c-.15,1-.32,1.9-.49,2.85a5.93,5.93,0,0,1-.69,2.57c-.46.5-1.44.51-2.07.62l-3.39.52c-2.05.3-4.1.58-6.16.82a248,248,0,0,1-25.4,1.76q-6.36.12-12.73-.09a7.53,7.53,0,0,1-2.6-.17c-.73-.36-.58-1.85-.63-2.56l-.49-6.4L833.24,618q-.27-3.57-.55-7.14a31.39,31.39,0,0,1,0-7.12l-2.51.66a122.94,122.94,0,0,0,25.94,16.37q3.38,1.57,6.83,2.94a4.84,4.84,0,0,0,3.44.38,6.52,6.52,0,0,0,2.67-2.16,91.5,91.5,0,0,1,10.87-9.95,128.16,128.16,0,0,0,12.68-11.18,1.52,1.52,0,0,0-1.06-2.56c-9.92-.25-19.82.26-29.71.89s-19.65,1.26-29.47,1.9c-1.92.12-1.93,3.12,0,3Z" transform="translate(-795.45 -549.23)"/><path class="cls-2" d="M832.33,597.35A4,4,0,0,0,828.5,599a6.72,6.72,0,0,0-1.16,4.17c0,1.78.69,3.75,2.29,4.55a4.81,4.81,0,0,0,1.83.43,5.29,5.29,0,0,0,3.79-1,6.33,6.33,0,0,0,.63-7.84,6.73,6.73,0,0,0-1-.88,3.38,3.38,0,0,0-1.24-.69,1.18,1.18,0,0,0-1.26.43" transform="translate(-795.45 -549.23)"/><path class="cls-2" d="M832.73,595.91a5.93,5.93,0,0,0-6.55,4.53,8.24,8.24,0,0,0,1.36,7.57c1.85,2.08,5.61,2.18,7.92.85,2.53-1.46,3.3-4.83,2.9-7.54a6.09,6.09,0,0,0-2.6-4,4.35,4.35,0,0,0-2.3-1,2.69,2.69,0,0,0-2.42,1.19,1.5,1.5,0,0,0,.54,2,1.53,1.53,0,0,0,2-.53c-.32.43-.18.11-.34.28s-.15-.06,0,0c-.21-.07.1.06.18.1a6.16,6.16,0,0,1,1.11.85,2.94,2.94,0,0,1,.83,1.87,5.94,5.94,0,0,1-.28,2.53,2.87,2.87,0,0,1-1.21,1.68,4,4,0,0,1-2.24.42,3.52,3.52,0,0,1-1.16-.18,4,4,0,0,1-.42-.2c-.22-.11-.13-.07,0,0a2.21,2.21,0,0,1-.32-.29,2,2,0,0,1-.19-.22c0,.06.11.19,0,0s-.2-.33-.29-.51l0-.09c.06.15-.05-.14-.06-.17a5.46,5.46,0,0,1-.19-.66s-.11-.62-.07-.35a6,6,0,0,1,0-.61,6.83,6.83,0,0,1,.06-1.33,4.21,4.21,0,0,1,1.09-2.42,1.5,1.5,0,0,1,.46-.37l.22-.13s.32-.16.15-.09a3,3,0,0,1,.78-.21c-.26,0,.58.05.33,0a1.54,1.54,0,0,0,1.84-1,1.5,1.5,0,0,0-1-1.84Z" transform="translate(-795.45 -549.23)"/></svg>