<svg id="Layer_12" data-name="Layer 12" xmlns="http://www.w3.org/2000/svg" viewBox="0 0 128.97 136.24"><defs><style>.cls-1{fill:blue;}.cls-2{fill:#fff;}.cls-3{fill:#009245;}</style></defs><path class="cls-1" d="M893.92,567.81l.85.85a1.11,1.11,0,0,0,.49.31,1,1,0,0,0,.57.13,1.06,1.06,0,0,0,.58-.13,1,1,0,0,0,.48-.31l.24-.3a1.57,1.57,0,0,0,.2-.76l-.05-.4a1.49,1.49,0,0,0-.39-.66l-.85-.85a1,1,0,0,0-.48-.31,1.15,1.15,0,0,0-.58-.13,1.72,1.72,0,0,0-1.06.44l-.23.3a1.48,1.48,0,0,0-.21.76l.06.4a1.57,1.57,0,0,0,.38.66Z" transform="translate(-793.95 -545.49)"/><path d="M876.29,548.86a57.9,57.9,0,0,0-50.94,10.73c-15.35,12.11-24.82,30.66-28.43,49.87-3.56,19-1.08,40.39,12.24,54.35,20.25,21.22,57.88,20.6,81.27,5.38,25.9-16.85,37.43-52.45,27.39-81.72A59.68,59.68,0,0,0,876.29,548.86Z" transform="translate(-793.95 -545.49)"/><path class="cls-2" d="M876.69,547.41a60.07,60.07,0,0,0-43.18,5C820.22,559.54,810,571.56,803.42,585A91.17,91.17,0,0,0,794,627.46c.46,14,4.87,28.3,15.06,38.37,9.05,8.95,21.26,13.83,33.77,15.36a75.36,75.36,0,0,0,37.56-5.09,66.36,66.36,0,0,0,29.33-23.82,76.06,76.06,0,0,0,12.93-36.39,68.44,68.44,0,0,0-7.76-38.76,61.16,61.16,0,0,0-29.1-26.56,63.48,63.48,0,0,0-9.09-3.16,1.5,1.5,0,0,0-.8,2.89,58.86,58.86,0,0,1,31.16,20.37,62.19,62.19,0,0,1,12.8,35.79,73.07,73.07,0,0,1-7.92,36.23,65,65,0,0,1-24.73,26.73,71.15,71.15,0,0,1-34.63,9.3c-12,.16-24.21-2.61-34.31-9.26A44.51,44.51,0,0,1,805,656.08a52.84,52.84,0,0,1-7-18.72c-2.48-13.63-.58-27.93,3.89-40.94,4.61-13.4,12.43-25.84,23.42-34.9a57.09,57.09,0,0,1,40.6-12.9,57.89,57.89,0,0,1,10,1.68C877.77,550.78,878.56,547.89,876.69,547.41Z" transform="translate(-793.95 -545.49)"/><path class="cls-3" d="M878.64,603.26a10.27,10.27,0,0,0-7.31.71,8.37,8.37,0,0,0-4.39,5.77,7.08,7.08,0,0,0,2.42,6.72,7.34,7.34,0,0,0,2.56,1.28,8.9,8.9,0,0,0,8.1-1.68,8.66,8.66,0,0,0,3-7.7,5.12,5.12,0,0,0-2.32-3.85Z" transform="translate(-793.95 -545.49)"/><path class="cls-3" d="M879,601.81c-4.13-1-8.81,0-11.56,3.4a8.94,8.94,0,0,0-.55,10.84c2.46,3.33,7.15,4.31,11,2.92a10.18,10.18,0,0,0,6.7-9.38,7.41,7.41,0,0,0-2.45-5.89A26.82,26.82,0,0,0,879.4,602c-1.65-1-3.16,1.58-1.52,2.59l1.88,1.16a3.61,3.61,0,0,1,1.68,2.47,7,7,0,0,1-3.17,7.3,7.19,7.19,0,0,1-8-.23,5.73,5.73,0,0,1-1-7.43c1.88-3,5.66-3.94,9-3.11C880.11,605.17,880.91,602.28,879,601.81Z" transform="translate(-793.95 -545.49)"/><path d="M872.77,563.92a9.06,9.06,0,0,0-7.39-2.6,8.13,8.13,0,0,0-6.3,4.55,7.34,7.34,0,0,0,1,7.62,9,9,0,0,0,6.88,2.82c2.71,0,5.63-1.09,6.88-3.49a10.55,10.55,0,0,0,.76-5.21,3.77,3.77,0,0,0-.55-2.28" transform="translate(-793.95 -545.49)"/><path class="cls-2" d="M873.84,562.86a10.47,10.47,0,0,0-10.4-2.63A9.33,9.33,0,0,0,857,568.1a8.63,8.63,0,0,0,5.22,8.74,11.36,11.36,0,0,0,10.35-.55,7.35,7.35,0,0,0,3.36-5.07,17.89,17.89,0,0,0,.19-3.35,5.82,5.82,0,0,0-.77-3.3,1.54,1.54,0,0,0-2.05-.54,1.53,1.53,0,0,0-.54,2.06,2.68,2.68,0,0,1,.35,1.65,18.1,18.1,0,0,1-.05,2.55,4.61,4.61,0,0,1-1.61,3.13,8,8,0,0,1-6.94,1.07,5.81,5.81,0,0,1-4.54-5.24,6.14,6.14,0,0,1,3.61-5.85,7.32,7.32,0,0,1,8.15,1.58c1.39,1.34,3.52-.78,2.13-2.12Z" transform="translate(-793.95 -545.49)"/><path class="cls-2" d="M828.91,635.35l36.43,10.38a1.51,1.51,0,0,0,.8-2.9l-36.43-10.37a1.5,1.5,0,0,0-.8,2.89Z" transform="translate(-793.95 -545.49)"/><path class="cls-2" d="M874.77,609.78c4.5.7,7.42,5.12,11.56,7a10.07,10.07,0,0,1-3.74,3.42c-.28.15-.6.33-.64.64a.92.92,0,0,0,.1.49l3.5,8.58-5.43,2.27a69.32,69.32,0,0,1-3.28-8.72l-.86.22-3.15.25a.87.87,0,0,1-.53-.08c-.31-.2-.23-.65-.12-1a53.61,53.61,0,0,0,2.3-12.17" transform="translate(-793.95 -545.49)"/><path d="M821.6,619.59c-2.9-.41-5,1.89-6,4.39a10.89,10.89,0,0,0,.36,9.41c3.32,5.79,10.34,4.89,13.7-.23,1.4-2.13,2.08-4.91,1.09-7.25C829.67,623.31,825.11,620.1,821.6,619.59Z" transform="translate(-793.95 -545.49)"/><path class="cls-2" d="M821.6,618.09c-4.61-.55-7.53,4.18-8.17,8.14-.7,4.31.74,9.14,4.67,11.47a9.09,9.09,0,0,0,9.74-.56c3.45-2.4,6-7.21,4.47-11.4a11,11,0,0,0-4.1-4.81,14.69,14.69,0,0,0-6.21-2.79,1.56,1.56,0,0,0-1.85,1.05A1.51,1.51,0,0,0,821.2,621a12.57,12.57,0,0,1,7.66,4.56c1.94,2.63.39,6.28-1.74,8.3a7.38,7.38,0,0,1-3.09,1.76,5.74,5.74,0,0,1-3.43-.08c-2.71-.9-4.33-4.06-4.37-7s1.53-8,5.37-7.54a1.51,1.51,0,0,0,1.5-1.5A1.54,1.54,0,0,0,821.6,618.09Z" transform="translate(-793.95 -545.49)"/><path d="M867.45,642.17a4,4,0,0,0-2.21,3.49,6.94,6.94,0,0,0,1.26,4.09,6.73,6.73,0,0,0,2.83,2.59c2.51,1.1,5.68-.32,7-2.74a6,6,0,0,0,.25-5.21,5.08,5.08,0,0,0-4.19-3c-1.67-.1-3.26.71-4.92,1" transform="translate(-793.95 -545.49)"/><path class="cls-2" d="M866.7,640.87c-2.94,1.39-3.52,5.12-2.39,7.88s3.43,5.26,6.57,5.46a7.47,7.47,0,0,0,6.65-3.72,7.3,7.3,0,0,0-.87-8.57,6.49,6.49,0,0,0-4.29-2c-1.83-.11-3.54.72-5.32,1a1.52,1.52,0,0,0-1,1.85,1.54,1.54,0,0,0,1.85,1c1.23-.2,2.4-.7,3.63-.87a3.1,3.1,0,0,1,2.42.55,3.51,3.51,0,0,1,1.41,1.82,4.52,4.52,0,0,1,0,3,4,4,0,0,1-1.52,2.06c.16-.12-.29.19-.33.22-.2.12-.41.23-.62.33s.32-.1-.14.06l-.29.1a6.74,6.74,0,0,1-.75.17c.23,0,0,0-.06,0l-.3,0h-.38c-.07,0-.38-.06-.13,0a3.92,3.92,0,0,1-.59-.15,1.92,1.92,0,0,1-.55-.24,5.81,5.81,0,0,1-2-2.06,6.51,6.51,0,0,1-.76-1.73,4.16,4.16,0,0,1-.14-.77c0-.13,0-.26,0-.39,0,0,0-.52,0-.28a3.66,3.66,0,0,1,.2-.79c.11-.31.06-.14,0-.09.07-.14.15-.28.23-.42a2.42,2.42,0,0,1,.44-.49c.19-.17-.14.09.07-.06a4.67,4.67,0,0,1,.49-.27,1.51,1.51,0,0,0,.54-2.05,1.53,1.53,0,0,0-2-.54Z" transform="translate(-793.95 -545.49)"/></svg>