<svg id="Layer_5" data-name="Layer 5" xmlns="http://www.w3.org/2000/svg" viewBox="0 0 88.01 88.59"><defs><style>.cls-1{fill:blue;stroke:blue;stroke-width:3px;}.cls-1,.cls-2{stroke-miterlimit:10;}.cls-2,.cls-3{fill:#fff;}.cls-2{stroke:#fff;stroke-width:0.5px;}</style></defs><path class="cls-1" d="M16,23.9c5-5.21,10.16-10.11,16.85-13C46,5.06,61.34,7,73.2,15A44.9,44.9,0,0,1,91,39.55,36.11,36.11,0,0,1,87,69,52.88,52.88,0,0,1,67.79,87.72c-4.77,2.7-10.18,5-15.71,5.33a39,39,0,0,1-17.6-3.48A47.18,47.18,0,0,1,15,74.15C6.31,62.1,5.38,47.26,11.12,33.74,12,31.8,12.84,29.88,13.76,28c.79-1.65,1.48-3.72,2.94-4.91" transform="translate(-6 -6.01)"/><path class="cls-2" d="M36.22,41.65" transform="translate(-6 -6.01)"/><path class="cls-2" d="M44.46,14.8a4,4,0,0,0-.79,4.12,2.47,2.47,0,0,0,.75.94c.16.12.38-.11.22-.23a2.56,2.56,0,0,1-1-2.19,4.45,4.45,0,0,1,1-2.42c.12-.16-.11-.38-.23-.22Z" transform="translate(-6 -6.01)"/><path class="cls-2" d="M47.77,35.78a6.9,6.9,0,0,0-1.41,2.39,5.32,5.32,0,0,0,0,2.6c.05.2.35.11.31-.09a5,5,0,0,1,0-2.44A6.47,6.47,0,0,1,48,36c.12-.16-.1-.38-.23-.22Z" transform="translate(-6 -6.01)"/><path class="cls-2" d="M31.44,44a1.06,1.06,0,0,1-.29-1.07,4.16,4.16,0,0,1,.57-1.25,2.92,2.92,0,0,0,.41-1.29,3.19,3.19,0,0,0-.22-1.26c-.36-.93-1.05-1.68-1.47-2.58a1.87,1.87,0,0,1-.16-1.23,2.73,2.73,0,0,1,.51-1c.49-.65,1.14-1.15,1.67-1.77a2.87,2.87,0,0,0,.84-2.13c-.06-.46-.27-.87-.37-1.32A2.29,2.29,0,0,1,33,27.8a9.67,9.67,0,0,1,1.56-2.36,5.52,5.52,0,0,0,.72-1.33,11.83,11.83,0,0,1,.57-1.43,11.06,11.06,0,0,1,1.85-2.4l.53-.53c.14-.15-.09-.37-.23-.22a17.14,17.14,0,0,0-2,2.32,6.53,6.53,0,0,0-.71,1.36,10.87,10.87,0,0,1-.59,1.46c-.48.88-1.25,1.58-1.73,2.47a3.2,3.2,0,0,0-.4,1.21,2.9,2.9,0,0,0,.19,1.3A2.28,2.28,0,0,1,33,30.91,2.64,2.64,0,0,1,32.47,32c-.49.67-1.16,1.18-1.7,1.81A2.86,2.86,0,0,0,29.94,36a3.57,3.57,0,0,0,.55,1.32c.28.45.59.88.85,1.35a3.91,3.91,0,0,1,.45,1.28,2.23,2.23,0,0,1-.2,1.32c-.37.77-1.05,1.59-.7,2.5a1.09,1.09,0,0,0,.34.48c.15.13.37-.1.21-.23Z" transform="translate(-6 -6.01)"/><path class="cls-2" d="M50.85,22a2.87,2.87,0,0,0,0-2.43,6.37,6.37,0,0,0-1.62-2.17A11.06,11.06,0,0,1,47,14.92a3.3,3.3,0,0,0-.91-1.15,2.28,2.28,0,0,0-2.38-.13,4.47,4.47,0,0,0-.93.81,1.31,1.31,0,0,1-1,.53c-.22,0-.41-.14-.63-.17a.77.77,0,0,0-.6.14,3.38,3.38,0,0,0-.84,1.14A14.68,14.68,0,0,0,39,17.57c-.22.49-.4,1-.57,1.49-.06.19.25.27.31.07h0A15.16,15.16,0,0,1,40,16.19c.13-.22.26-.43.4-.64a1,1,0,0,1,.45-.41,1,1,0,0,1,.61.09,1.18,1.18,0,0,0,.59,0c.79-.15,1.16-1,1.83-1.39a2,2,0,0,1,2.24.34A10,10,0,0,1,47,15.57a9.44,9.44,0,0,0,1.09,1.19,13.07,13.07,0,0,1,2,2.1,3.21,3.21,0,0,1,.65,2.23,4,4,0,0,1-.55,1.3" transform="translate(-6 -6.01)"/><path class="cls-2" d="M31.72,43.58c0-.08-.14-.19-.11-.29s.16,0,.22,0,.32.31.5.45a1.31,1.31,0,0,0,1.2.16,11.29,11.29,0,0,0,2.25-1.25c.18-.09,0-.37-.16-.27a20.22,20.22,0,0,1-1.9,1.13,1.35,1.35,0,0,1-1.06.07,2.16,2.16,0,0,1-.46-.39,1.22,1.22,0,0,0-.48-.3.37.37,0,0,0-.41.26.69.69,0,0,0,.13.55.16.16,0,0,0,.28-.16Z" transform="translate(-6 -6.01)"/><path class="cls-2" d="M37.53,41.32a4.65,4.65,0,0,1,2.16-.22.17.17,0,0,0,.19-.12.16.16,0,0,0-.12-.19,5.22,5.22,0,0,0-2.32.22c-.19.07-.1.38.09.31Z" transform="translate(-6 -6.01)"/><path class="cls-2" d="M42.31,43.15l1.54-.26A.15.15,0,0,0,44,42.7c0-.09-.11-.12-.2-.11l-1.54.25a.16.16,0,0,0-.1.2.16.16,0,0,0,.19.11Z" transform="translate(-6 -6.01)"/><path class="cls-2" d="M39.94,47.35A3.75,3.75,0,0,0,40,45.5c-.18-.58-.66-1.15-.55-1.78,0-.2-.27-.28-.31-.08a3.29,3.29,0,0,0,.49,1.77,3.27,3.27,0,0,1,0,1.86c0,.2.27.28.31.08Z" transform="translate(-6 -6.01)"/><path class="cls-2" d="M40,45.32l.26-.47a.16.16,0,0,0-.06-.21.17.17,0,0,0-.22.06l-.26.47a.16.16,0,0,0,.07.21.16.16,0,0,0,.21-.06Z" transform="translate(-6 -6.01)"/><path class="cls-2" d="M38,44.93c.18.09.08.37,0,.5a2.35,2.35,0,0,0-.31.56,1.67,1.67,0,0,0,0,.32c0,.07,0,.15-.08.18a.83.83,0,0,0-.27.12.28.28,0,0,0-.08.32.72.72,0,0,0,.18.25.69.69,0,0,0,.28.2.54.54,0,0,0,.55-.14,1.4,1.4,0,0,0,.3-.53l.31-.8a1,1,0,0,0,.11-.75.94.94,0,0,0-.61-.43c-.19-.06-.27.25-.07.31s.36.12.4.29a.43.43,0,0,1,0,.25c0,.12-.09.23-.13.34s-.18.45-.26.68A1.16,1.16,0,0,1,38,47c-.14.12-.27,0-.37-.08l-.09-.11h0s0,0,0,0,0,0,0,0a.77.77,0,0,0,.25-.1.59.59,0,0,0,.19-.49.81.81,0,0,1,.17-.49,1.26,1.26,0,0,0,.25-.58.52.52,0,0,0-.26-.53c-.19-.09-.34.19-.15.28Z" transform="translate(-6 -6.01)"/><path class="cls-2" d="M37.55,44.55a.9.9,0,0,1,.87-.07,1.13,1.13,0,0,1,.6.7,2.46,2.46,0,0,1-.46,2c-.11.17.17.32.28.15a2.66,2.66,0,0,0,.43-2.44,1.41,1.41,0,0,0-.81-.78,1.19,1.19,0,0,0-1.07.12c-.17.11,0,.39.16.27Z" transform="translate(-6 -6.01)"/><path class="cls-2" d="M37.28,43.64c0,.76-.53,1.38-.78,2.06a1.78,1.78,0,0,0-.08,1.16,1.47,1.47,0,0,0,.79,1,1,1,0,0,0,1.22-.18c.13-.16-.1-.38-.23-.22a.72.72,0,0,1-.91.09,1.26,1.26,0,0,1-.61-.91,3.5,3.5,0,0,1,.66-1.87,2.21,2.21,0,0,0,.25-1.09c0-.21-.33-.2-.31,0Z" transform="translate(-6 -6.01)"/><path class="cls-2" d="M31.19,44.18c-.37.25-.73.51-1.09.78a8.87,8.87,0,0,0-1,.8,1.51,1.51,0,0,0-.37,1.06q0,.63,0,1.26a10.54,10.54,0,0,0,.21,1.37c0,.2.35.11.3-.09A10.06,10.06,0,0,1,29,47.9q0-.37,0-.75a3.94,3.94,0,0,1,0-.69.91.91,0,0,1,.36-.57c.21-.18.43-.34.65-.51q.63-.48,1.29-.93c.17-.11,0-.38-.16-.27Z" transform="translate(-6 -6.01)"/><path class="cls-2" d="M32.13,44.2a8.89,8.89,0,0,0-1.52,2.31,10.42,10.42,0,0,0-.35,1.33,3.44,3.44,0,0,1-.59,1.27,13.84,13.84,0,0,1-1,1.07,14,14,0,0,0-.92,1.12,15.87,15.87,0,0,0-1.47,2.48,30.53,30.53,0,0,0-1.93,5.59c-.25,1-.49,1.93-.74,2.9l-.78,2.89c-.25,1-.49,1.93-.7,2.91a9.06,9.06,0,0,0-.33,2.69,3.12,3.12,0,0,0,.11.61.16.16,0,0,0,.29,0c1.12-2.07,2.15-4.2,3.08-6.37.26-.61.52-1.23.76-1.85.08-.19-.2-.34-.28-.15-.87,2.19-1.84,4.35-2.91,6.45q-.45.9-.93,1.77l.3,0a5.46,5.46,0,0,1,.1-2.57c.19-1,.42-1.93.67-2.89.49-1.91,1-3.81,1.5-5.72a35.09,35.09,0,0,1,1.79-5.57A18.08,18.08,0,0,1,27.68,52c.27-.39.55-.77.86-1.14s.64-.71,1-1.07a4.62,4.62,0,0,0,.81-1.14,6.86,6.86,0,0,0,.37-1.27,4.43,4.43,0,0,1,.47-1.29A8.13,8.13,0,0,1,31.93,45l.43-.53c.13-.16-.1-.38-.23-.22Z" transform="translate(-6 -6.01)"/><path class="cls-2" d="M31.58,49.1a5.89,5.89,0,0,1-1,2.11,24.4,24.4,0,0,0-1.25,2.23,35.42,35.42,0,0,0-1.91,4.75c-.54,1.63-1,3.29-1.42,5s-.88,3.29-1.22,5c-.16.82-.3,1.65-.39,2.48-.05.42-.08.85-.1,1.27a6,6,0,0,0,0,1.2,1.72,1.72,0,0,0,.18.54.16.16,0,0,0,.25,0A6.38,6.38,0,0,0,26,71c.32-1,.63-1.92.94-2.88.61-1.93,1.21-3.85,1.89-5.75.38-1.07.79-2.13,1.24-3.18.08-.18-.2-.33-.28-.14-.79,1.83-1.46,3.71-2.08,5.61s-1.2,3.82-1.84,5.72c-.17.53-.35,1.07-.55,1.6a3.85,3.85,0,0,1-.84,1.42l.26,0a2.19,2.19,0,0,1-.17-1.13c0-.42,0-.84.07-1.26.08-.84.2-1.67.36-2.5.31-1.64.75-3.27,1.17-4.89s.87-3.29,1.38-4.92A36.54,36.54,0,0,1,29.35,54a23.93,23.93,0,0,1,1.2-2.23,12.9,12.9,0,0,0,1.19-2.07,3.41,3.41,0,0,0,.14-.55c0-.2-.27-.27-.3-.07Z" transform="translate(-6 -6.01)"/><path class="cls-2" d="M33.56,49.46a3.31,3.31,0,0,1-.22,2.33,26.92,26.92,0,0,1-1.14,2.64c-.82,1.71-1.59,3.43-2.31,5.18s-1.38,3.51-2,5.29-1.15,3.6-1.62,5.43a18.43,18.43,0,0,0-.85,5.2c0,.22,0,.44,0,.65s.22.23.3.08c.81-1.68,1.63-3.36,2.41-5.05s1.54-3.39,2.24-5.12S31.73,62.72,32.3,61s1.12-3.31,1.82-4.9a17.63,17.63,0,0,1,2.66-4.38l.42-.47c.14-.15-.09-.37-.23-.22a16.58,16.58,0,0,0-2.83,4.28,44.65,44.65,0,0,0-1.89,4.85c-.58,1.72-1.16,3.43-1.82,5.11S29,68.72,28.22,70.42s-1.59,3.37-2.4,5c-.1.21-.21.42-.31.64l.3.07A14.73,14.73,0,0,1,26.46,71c.46-1.83,1-3.64,1.58-5.44s1.25-3.58,2-5.34,1.48-3.49,2.3-5.2c.41-.87.83-1.73,1.17-2.62A5.37,5.37,0,0,0,34,49.93a2,2,0,0,0-.13-.55c-.08-.19-.38-.11-.31.08Z" transform="translate(-6 -6.01)"/><path class="cls-2" d="M37.88,52.64a.33.33,0,0,0-.48-.19A1.66,1.66,0,0,0,37,53a9.41,9.41,0,0,0-.71,1.42c-.4,1-.69,2-1.08,3a40.3,40.3,0,0,1-2.93,5.79c-.64,1.07-1.29,2.11-2,3.16-.11.17.17.32.28.15,1.1-1.75,2.2-3.5,3.18-5.32q.73-1.37,1.35-2.79c.4-.93.73-1.88,1.06-2.84A15.38,15.38,0,0,1,36.78,54a7.33,7.33,0,0,1,.39-.73c.07-.12.15-.24.23-.36s.17-.2.17-.17c0,.2.35.11.31-.09Z" transform="translate(-6 -6.01)"/><path class="cls-2" d="M32.25,61.48a61.46,61.46,0,0,0,3.35-6.57c.27-.63.51-1.28.73-1.93.07-.2-.24-.27-.31-.07a40.21,40.21,0,0,1-3,6.6c-.33.61-.67,1.21-1,1.82a.16.16,0,0,0,.28.15Z" transform="translate(-6 -6.01)"/><path class="cls-2" d="M38.28,51a3.59,3.59,0,0,1,1.25-1.07c.18-.09,0-.36-.17-.27a3.92,3.92,0,0,0-1.31,1.12.16.16,0,0,0,0,.22.15.15,0,0,0,.22,0Z" transform="translate(-6 -6.01)"/><path class="cls-2" d="M36.94,49.27a2.25,2.25,0,0,0,1.46-.6.16.16,0,1,0-.23-.22,1.88,1.88,0,0,1-1.24.5c-.2,0-.19.33,0,.32Z" transform="translate(-6 -6.01)"/><path class="cls-2" d="M35.93,49.61a2.71,2.71,0,0,0,1.73.18.16.16,0,0,0,.11-.2.16.16,0,0,0-.2-.1,2.39,2.39,0,0,1-1.49-.16.15.15,0,0,0-.21.06.16.16,0,0,0,.06.22Z" transform="translate(-6 -6.01)"/><path class="cls-2" d="M34.63,48.24a1.89,1.89,0,0,0,0-1,4.81,4.81,0,0,0-.44-1c-.33-.75.24-1.45.7-2,.13-.16-.1-.38-.23-.22a2.49,2.49,0,0,0-.85,2.06,8.15,8.15,0,0,0,.46,1,1.55,1.55,0,0,1,0,1c-.06.2.25.27.31.08Z" transform="translate(-6 -6.01)"/><path class="cls-2" d="M35.46,45.1a3.18,3.18,0,0,1,.7-1c.14-.15-.09-.37-.23-.22A3.35,3.35,0,0,0,35.18,45a.16.16,0,0,0,.06.22.17.17,0,0,0,.22-.07Z" transform="translate(-6 -6.01)"/><path class="cls-2" d="M32,48.08a4.69,4.69,0,0,0,.5-2.7c0-.21-.34-.2-.32,0a4.33,4.33,0,0,1-.46,2.55c-.09.18.19.33.28.15Z" transform="translate(-6 -6.01)"/><path class="cls-2" d="M22.11,65l-.69,3.59-.34,1.78a13.16,13.16,0,0,0-.24,1.53,2.15,2.15,0,0,0,.33,1.42.16.16,0,0,0,.28,0A4.09,4.09,0,0,0,22,71.44c0-.21-.31-.2-.32,0a3.77,3.77,0,0,1-.5,1.7h.27c-.55-.76-.22-1.83-.06-2.66L22.05,67l.37-2a.16.16,0,0,0-.31-.07Z" transform="translate(-6 -6.01)"/><path class="cls-2" d="M22.22,63.59a10.65,10.65,0,0,0-1.59,6,.16.16,0,0,0,.32,0,10.22,10.22,0,0,1,1.55-5.84c.1-.17-.18-.32-.28-.15Z" transform="translate(-6 -6.01)"/><path class="cls-2" d="M26.21,53.83a12.88,12.88,0,0,0-2.94,4.61,16.94,16.94,0,0,0-.92,5.28c0,1,0,2,0,3a.16.16,0,0,0,.31,0,35.63,35.63,0,0,1,.19-5.27,13.38,13.38,0,0,1,1.72-5,12.16,12.16,0,0,1,1.87-2.41c.14-.15-.09-.37-.23-.22Z" transform="translate(-6 -6.01)"/><path class="cls-2" d="M23.06,70.15c.15.64.32,1.29.51,1.93.09.33.18.65.28,1l.14.44a.52.52,0,0,0,.2.28.26.26,0,0,0,.31,0,.54.54,0,0,0,.15-.38,3.3,3.3,0,0,0,0-.83c-.11-.63-.28-1.26-.42-1.89l-.51-2.25c0-.2-.35-.11-.3.09L24.17,72a6.63,6.63,0,0,1,.15.75,2,2,0,0,1,0,.34.91.91,0,0,1,0,.17,1.66,1.66,0,0,0,0,.22h0s0,0,0,0a.13.13,0,0,1,0,0,1.27,1.27,0,0,1-.06-.18c-.05-.14-.09-.29-.14-.44L23.87,72c-.18-.64-.35-1.28-.51-1.93-.05-.2-.35-.11-.3.09Z" transform="translate(-6 -6.01)"/><path class="cls-2" d="M23,70.49a8.12,8.12,0,0,0-1.48,2.05c-.43.71-.85,1.43-1.21,2.17a4.31,4.31,0,0,0-.4,1c-.07.29-.13.76.17,1s.58,0,.81-.2l1-.77c.76-.58,1.52-1.19,2.25-1.81.16-.13-.08-.35-.23-.22-.59.51-1.2,1-1.82,1.48-.3.23-.61.47-.93.7l-.44.32a1,1,0,0,1-.4.25c-.3.07-.16-.59-.12-.72a4.71,4.71,0,0,1,.39-1c.33-.67.71-1.31,1.09-2a8.13,8.13,0,0,1,1.51-2.11c.16-.14-.07-.35-.23-.22Z" transform="translate(-6 -6.01)"/><path class="cls-2" d="M24.22,70l.38-.4a.16.16,0,0,0,0-.22.17.17,0,0,0-.23,0l-.38.41a.16.16,0,1,0,.23.21Z" transform="translate(-6 -6.01)"/><path class="cls-2" d="M25.85,71.66a43.49,43.49,0,0,0-3,5.3c-.16.36-.54,1-.16,1.32a.15.15,0,0,0,.19,0A9.15,9.15,0,0,0,25.42,76c.12-.16-.11-.38-.23-.22A8.71,8.71,0,0,1,22.68,78l.19,0c-.12-.11,0-.32,0-.45s.19-.43.28-.65c.2-.43.41-.86.64-1.28.46-.85,1-1.67,1.47-2.49.29-.46.58-.91.86-1.37.11-.18-.17-.33-.28-.15Z" transform="translate(-6 -6.01)"/><path class="cls-2" d="M37.65,53.06c.33-.08.55.37.62.62a3.44,3.44,0,0,1,0,1.24,21.48,21.48,0,0,1-.65,2.6c-.26,1-.47,2-.63,3a4.45,4.45,0,0,1-.33,1.35c-.11.21-.29.38-.39.59a1.62,1.62,0,0,0-.12.57,2.73,2.73,0,0,1,0,.57,1.23,1.23,0,0,1-.36.54,1.83,1.83,0,0,0-.42,1.13,4,4,0,0,1-.11.58,2.26,2.26,0,0,1-.37.59,2.19,2.19,0,0,0-.32.58,4,4,0,0,0-.14.6,1.61,1.61,0,0,1-.2.57,3.52,3.52,0,0,1-.52.5A3.76,3.76,0,0,0,33,70a19.74,19.74,0,0,1-1.57,2.62,29.54,29.54,0,0,0-1.63,2.63c-.26.45-.5.92-.72,1.39a5.52,5.52,0,0,0-.49,1.24,1.73,1.73,0,0,0,0,.6.16.16,0,0,0,.28.1q2-1.85,4-3.78l2-2c.15-.15-.08-.37-.23-.22-1.27,1.31-3.51,3.53-4.85,4.77q-.55.54-1.14,1l.28.11a2.21,2.21,0,0,1,.26-1.23c.21-.47.44-.94.69-1.4a28.76,28.76,0,0,1,1.63-2.72,26.08,26.08,0,0,0,1.66-2.65,7.16,7.16,0,0,1,.67-1.36,6.77,6.77,0,0,1,.56-.51,1.46,1.46,0,0,0,.32-.57,4.18,4.18,0,0,1,.37-1.2c.14-.21.3-.39.42-.61a2.1,2.1,0,0,0,.19-.6A2.06,2.06,0,0,1,36,64.45a2.51,2.51,0,0,0,.45-.58,1.64,1.64,0,0,0,.09-.58,2.21,2.21,0,0,1,.06-.57,2.68,2.68,0,0,1,.36-.58,3.39,3.39,0,0,0,.39-1.35c.16-1,.37-2.06.63-3.07A23,23,0,0,0,38.62,55a3.86,3.86,0,0,0,0-1.27,1.36,1.36,0,0,0-.56-.93.7.7,0,0,0-.49-.08c-.2,0-.11.35.09.31Z" transform="translate(-6 -6.01)"/><path class="cls-2" d="M33.66,70.33a.87.87,0,0,0,.4.38.13.13,0,0,0,.12,0,.13.13,0,0,0,.09-.07.16.16,0,0,0-.06-.22l-.13-.07,0,0a.57.57,0,0,1-.14-.13l0,0-.08-.12a.16.16,0,0,0-.22-.06.15.15,0,0,0-.05.22Z" transform="translate(-6 -6.01)"/><path class="cls-2" d="M35.14,68.2a.75.75,0,0,0,.41.24.16.16,0,0,0,.12,0,.16.16,0,0,0,.08-.1.25.25,0,0,0,0-.12.23.23,0,0,0-.1-.07l-.1,0h0a.39.39,0,0,1-.14-.08l0,0a.52.52,0,0,1-.11-.1.15.15,0,0,0-.11,0,.14.14,0,0,0-.11,0,.16.16,0,0,0,0,.11v0a.16.16,0,0,0,0,.07Z" transform="translate(-6 -6.01)"/><path class="cls-2" d="M36.7,64.88l.24.11a.17.17,0,0,0,.12,0,.2.2,0,0,0,.1-.08.25.25,0,0,0,0-.12.16.16,0,0,0-.08-.1l-.24-.11a.13.13,0,0,0-.12,0,.18.18,0,0,0-.1.07.17.17,0,0,0,0,.12.16.16,0,0,0,.08.1Z" transform="translate(-6 -6.01)"/><path class="cls-2" d="M37.68,62.39l.27,0,.06,0a.09.09,0,0,0,.06,0l0,0a.13.13,0,0,0,0-.06.14.14,0,0,0,0-.11l0,0-.07,0-.28,0h-.06l0,0,0,.05a.13.13,0,0,0,0,.06.16.16,0,0,0,0,.11l0,0,.08,0Z" transform="translate(-6 -6.01)"/><path class="cls-2" d="M38.47,58.52l.22.09h.06a.06.06,0,0,0,.06,0l0,0a.1.1,0,0,0,0-.05.13.13,0,0,0,0-.12v0a.17.17,0,0,0-.06-.06l-.22-.09H38.5a.05.05,0,0,0,0,0,.1.1,0,0,0,0,.05.16.16,0,0,0,0,.12l0,0,.06.06Z" transform="translate(-6 -6.01)"/><path class="cls-2" d="M41.66,46.87a5.72,5.72,0,0,1,.4-1.21,3.1,3.1,0,0,1,.3-.57c.09-.12.29-.27.44-.16a.16.16,0,0,0,.22,0,.15.15,0,0,0,0-.22.6.6,0,0,0-.63-.05,1.26,1.26,0,0,0-.5.63,6.41,6.41,0,0,0-.54,1.52.16.16,0,0,0,.31.07Z" transform="translate(-6 -6.01)"/><path class="cls-2" d="M33,33a3.39,3.39,0,0,0,1.55-.45.16.16,0,0,0-.16-.27,3.14,3.14,0,0,1-1.4.4A.16.16,0,0,0,33,33Z" transform="translate(-6 -6.01)"/><path class="cls-3" d="M50.36,22.43c.37.72,1.35.92,2.07,1.13.94.27,1.9.45,2.86.64a14.93,14.93,0,0,1,2.74.63c.51.2,1,.58,1,1.19a3.93,3.93,0,0,1-.62,1.53A7.8,7.8,0,0,1,56.74,30a7.55,7.55,0,0,1-2.81,1.49,8,8,0,0,0-2.52,1c-.88.61-1.7,1.33-2.55,2-.38.3.16.83.53.53a18.37,18.37,0,0,1,3-2.23c.92-.45,2-.52,2.9-1a7.23,7.23,0,0,0,2.58-1.86,12.74,12.74,0,0,0,1.54-2.59,2.19,2.19,0,0,0,.1-2.32,3.38,3.38,0,0,0-2.12-1.14c-1.06-.24-2.14-.42-3.21-.65-.51-.11-1-.23-1.53-.37s-1.37-.29-1.63-.79-.87-.05-.64.38Z" transform="translate(-6 -6.01)"/><path class="cls-2" d="M80.24,35.89c-.47-.87-1-1.69-1.58-2.51S77.55,31.74,76.94,31a22.12,22.12,0,0,0-4.24-4.13,58.29,58.29,0,0,0-5-3.37,18,18,0,0,0-5.55-2.3,32,32,0,0,0-6.1-.52c-1.82,0-3.08,0-4.9,0V21c1.29,0,2,0,3.3,0a53.32,53.32,0,0,1,6.06.27A16.41,16.41,0,0,1,66.14,23,45.76,45.76,0,0,1,71,26.09a26.05,26.05,0,0,1,4.5,3.75,33.22,33.22,0,0,1,3.39,4.62c.26.4.51.8.76,1.2s.61.92.36,1.44a6,6,0,0,1-.87,1.14l-1,1.16C76.86,41,75.5,42.48,74.11,44l-.89.93.15.2-.3,0,.15-.16A32.51,32.51,0,0,0,68,39.4a.2.2,0,0,0-.33.13q-.25,10,.26,20,.25,5,.71,10c.08.81.15,1.63.24,2.44L69,73.18a3.18,3.18,0,0,1,0,1.15c-.19.71-1.19.77-1.79.86a18,18,0,0,1-2.44.19c-1.64,0-3.29-.06-4.94-.13l-5-.22c-3.3-.16-6.59-.36-9.88-.64q-2.49-.23-5-.51c-1.53-.19-4.12-.28-5.55-.92l-.28.29a16.35,16.35,0,0,0,3,.63c1.61.29,3.26.44,4.88.61,6.78.71,13.6,1,20.41,1.24a25.48,25.48,0,0,0,4.94-.19,2.59,2.59,0,0,0,1.73-.68c.45-.55.23-1.37.17-2-.36-3.4-.64-6.82-.86-10.23Q67.88,52.38,68,42.1c0-.72,0-1.44,0-2.15l-.32-.28.33-.14c0,.14,0,.28,0,.42a32.54,32.54,0,0,1,5,5.34.19.19,0,0,0,.3,0c1.47-1.54,2.91-3.12,4.3-4.73.69-.8,1.38-1.6,2-2.42a3.58,3.58,0,0,0,.75-1.1A1.52,1.52,0,0,0,80.24,35.89Z" transform="translate(-6 -6.01)"/><path class="cls-2" d="M73.37,45.1l-.15-.2-.15.16Z" transform="translate(-6 -6.01)"/><path class="cls-2" d="M67.77,39.67l.32.28c0-.14,0-.28,0-.42Z" transform="translate(-6 -6.01)"/></svg>