<svg id="Layer_6" data-name="Layer 6" xmlns="http://www.w3.org/2000/svg" viewBox="0 0 88.01 88.59"><defs><style>.cls-1,.cls-3{stroke:blue;}.cls-1,.cls-2,.cls-3{stroke-miterlimit:10;}.cls-1{stroke-width:3px;}.cls-2{fill:#fff;stroke:#fff;}.cls-2,.cls-3{stroke-width:0.75px;}.cls-3,.cls-4{fill:blue;}</style></defs><path class="cls-1" d="M15.64,23.82c5-5.21,10.16-10.11,16.85-13C45.66,5,61,6.93,72.87,15A44.9,44.9,0,0,1,90.68,39.47a36.11,36.11,0,0,1-4,29.42A52.88,52.88,0,0,1,67.46,87.64c-4.77,2.7-10.18,5-15.71,5.33a39,39,0,0,1-17.6-3.48A47.18,47.18,0,0,1,14.68,74.07C6,62,5.05,47.18,10.79,33.66c.83-1.94,1.72-3.86,2.64-5.76.79-1.65,1.48-3.72,2.94-4.91" transform="translate(-5.67 -5.93)"/><path class="cls-2" d="M36,41.82" transform="translate(-5.67 -5.93)"/><path class="cls-3" d="M44.21,15a4,4,0,0,0-.79,4.12,2.44,2.44,0,0,0,.75.93c.16.12.39-.1.22-.23a2.53,2.53,0,0,1-1-2.18,4.42,4.42,0,0,1,1-2.42c.12-.16-.11-.38-.23-.22Z" transform="translate(-5.67 -5.93)"/><path class="cls-3" d="M47.52,36a7,7,0,0,0-1.41,2.39,5.4,5.4,0,0,0,0,2.59c.05.2.35.11.31-.09a5,5,0,0,1,0-2.43,6.47,6.47,0,0,1,1.33-2.24c.13-.16-.1-.38-.23-.22Z" transform="translate(-5.67 -5.93)"/><path class="cls-3" d="M31.19,44.15a1.08,1.08,0,0,1-.29-1.07,4.16,4.16,0,0,1,.57-1.25,3,3,0,0,0,.41-1.29,3.19,3.19,0,0,0-.22-1.26c-.35-.94-1-1.68-1.47-2.58A1.9,1.9,0,0,1,30,35.46a2.84,2.84,0,0,1,.51-1c.49-.65,1.14-1.15,1.67-1.77a2.88,2.88,0,0,0,.84-2.14,12.16,12.16,0,0,0-.37-1.31A2.28,2.28,0,0,1,32.79,28a10,10,0,0,1,1.56-2.36,5.58,5.58,0,0,0,.72-1.34,11.69,11.69,0,0,1,.57-1.42,11.06,11.06,0,0,1,1.85-2.4c.18-.18.35-.36.53-.53s-.09-.37-.23-.22a17.14,17.14,0,0,0-2,2.32,6.53,6.53,0,0,0-.71,1.36,11.43,11.43,0,0,1-.59,1.46c-.48.88-1.25,1.57-1.73,2.47a3.2,3.2,0,0,0-.4,1.21,3,3,0,0,0,.19,1.3,2.38,2.38,0,0,1,.19,1.26,2.87,2.87,0,0,1-.5,1.06c-.49.67-1.16,1.18-1.7,1.81a2.84,2.84,0,0,0-.83,2.18,3.45,3.45,0,0,0,.55,1.31c.28.45.59.89.85,1.35a4,4,0,0,1,.45,1.29,2.18,2.18,0,0,1-.2,1.31c-.37.78-1.05,1.59-.7,2.51a1.15,1.15,0,0,0,.34.48c.15.13.37-.1.21-.23Z" transform="translate(-5.67 -5.93)"/><path class="cls-3" d="M50.6,22.15a2.86,2.86,0,0,0,0-2.44A6.24,6.24,0,0,0,49,17.55a11.28,11.28,0,0,1-2.27-2.46,3.43,3.43,0,0,0-.91-1.16,2.3,2.3,0,0,0-1.17-.39,2.14,2.14,0,0,0-1.21.27,4.18,4.18,0,0,0-.92.81,1.35,1.35,0,0,1-1,.53c-.22,0-.41-.14-.63-.18a.81.81,0,0,0-.6.15,3.28,3.28,0,0,0-.84,1.14,13.69,13.69,0,0,0-.75,1.48,15.77,15.77,0,0,0-.57,1.49c-.06.19.25.26.31.07h0a14.62,14.62,0,0,1,1.32-2.94,6.82,6.82,0,0,1,.39-.64,1,1,0,0,1,.45-.41.87.87,0,0,1,.61.09,1.18,1.18,0,0,0,.59,0c.79-.16,1.16-1,1.83-1.39a1.94,1.94,0,0,1,2.24.34,9.88,9.88,0,0,1,.88,1.33,8.88,8.88,0,0,0,1.09,1.2,12.67,12.67,0,0,1,2,2.1,3.21,3.21,0,0,1,.65,2.23,3.92,3.92,0,0,1-.55,1.3" transform="translate(-5.67 -5.93)"/><path class="cls-3" d="M31.47,43.74c0-.07-.13-.19-.11-.28s.16,0,.22,0,.32.31.5.44a1.31,1.31,0,0,0,1.2.17,11.52,11.52,0,0,0,2.25-1.25c.19-.1,0-.37-.16-.27-.65.33-1.21.85-1.9,1.12a1.27,1.27,0,0,1-1.06.07A2.07,2.07,0,0,1,32,43.4a1.24,1.24,0,0,0-.48-.31.36.36,0,0,0-.4.27.65.65,0,0,0,.12.55.16.16,0,0,0,.28-.17Z" transform="translate(-5.67 -5.93)"/><path class="cls-3" d="M37.28,41.49a4.65,4.65,0,0,1,2.16-.22.16.16,0,0,0,.19-.12.15.15,0,0,0-.12-.19,5.08,5.08,0,0,0-2.32.22c-.19.07-.1.37.09.31Z" transform="translate(-5.67 -5.93)"/><path class="cls-3" d="M42.06,43.31l1.54-.25c.09,0,.13-.12.11-.2a.15.15,0,0,0-.19-.1L42,43c-.09,0-.13.12-.11.2a.15.15,0,0,0,.19.1Z" transform="translate(-5.67 -5.93)"/><path class="cls-3" d="M39.69,47.51a3.74,3.74,0,0,0,.08-1.85c-.17-.58-.66-1.14-.55-1.78,0-.2-.27-.27-.3-.07a3.21,3.21,0,0,0,.48,1.77,3.19,3.19,0,0,1,0,1.86.16.16,0,0,0,.31.07Z" transform="translate(-5.67 -5.93)"/><path class="cls-3" d="M39.79,45.48l.26-.46a.16.16,0,0,0-.06-.21.16.16,0,0,0-.22.06l-.26.46a.16.16,0,0,0,.07.22.15.15,0,0,0,.21-.07Z" transform="translate(-5.67 -5.93)"/><path class="cls-3" d="M37.71,45.1c.18.09.08.36,0,.49a2.42,2.42,0,0,0-.31.57,1.62,1.62,0,0,0,0,.31c0,.08,0,.16-.08.19a.83.83,0,0,0-.27.12.27.27,0,0,0-.08.31.68.68,0,0,0,.18.26.69.69,0,0,0,.28.2A.52.52,0,0,0,38,47.4a1.33,1.33,0,0,0,.3-.53l.31-.8a1,1,0,0,0,.11-.74.94.94,0,0,0-.61-.43c-.19-.06-.26.25-.07.31s.36.12.4.28a.46.46,0,0,1,0,.26l-.13.33c-.09.23-.17.46-.26.68a1.2,1.2,0,0,1-.25.44c-.14.11-.27,0-.37-.08L37.26,47h0s0,0,0,0,0,0,0,0a.58.58,0,0,0,.25-.09.59.59,0,0,0,.19-.49.81.81,0,0,1,.17-.49,1.19,1.19,0,0,0,.25-.59.5.5,0,0,0-.26-.52c-.19-.09-.34.19-.15.28Z" transform="translate(-5.67 -5.93)"/><path class="cls-3" d="M37.31,44.72a.88.88,0,0,1,.86-.07,1.18,1.18,0,0,1,.61.7,2.47,2.47,0,0,1-.47,2c-.11.18.17.33.28.15A2.63,2.63,0,0,0,39,45.11a1.41,1.41,0,0,0-.81-.78,1.19,1.19,0,0,0-1.07.11c-.17.12,0,.39.17.28Z" transform="translate(-5.67 -5.93)"/><path class="cls-3" d="M37,43.8c0,.76-.53,1.39-.78,2.07A1.75,1.75,0,0,0,36.17,47,1.52,1.52,0,0,0,37,48a1,1,0,0,0,1.22-.18c.13-.16-.1-.38-.23-.22a.74.74,0,0,1-.91.09,1.26,1.26,0,0,1-.61-.92,3.5,3.5,0,0,1,.66-1.87,2.15,2.15,0,0,0,.25-1.08c0-.21-.33-.2-.31,0Z" transform="translate(-5.67 -5.93)"/><path class="cls-3" d="M30.94,44.35c-.37.25-.73.51-1.09.77a11.46,11.46,0,0,0-1,.81A1.51,1.51,0,0,0,28.45,47q0,.63,0,1.26a10.54,10.54,0,0,0,.21,1.37c0,.2.35.11.31-.09a9,9,0,0,1-.21-1.46c0-.25,0-.5,0-.76a4.08,4.08,0,0,1,0-.69.91.91,0,0,1,.35-.57l.65-.5q.63-.48,1.29-.93c.17-.11,0-.39-.16-.27Z" transform="translate(-5.67 -5.93)"/><path class="cls-3" d="M31.88,44.37a8.89,8.89,0,0,0-1.52,2.31A10,10,0,0,0,30,48a3.59,3.59,0,0,1-.59,1.27,13.84,13.84,0,0,1-1,1.07,13.88,13.88,0,0,0-.92,1.11,17.21,17.21,0,0,0-1.47,2.48,30.89,30.89,0,0,0-1.93,5.6c-.25,1-.49,1.93-.74,2.89s-.52,1.93-.77,2.9-.5,1.93-.71,2.91a9,9,0,0,0-.33,2.68,3.22,3.22,0,0,0,.11.62.16.16,0,0,0,.29,0c1.13-2.08,2.15-4.2,3.08-6.37.26-.62.52-1.23.76-1.85.08-.19-.2-.34-.28-.15q-1.31,3.28-2.91,6.45-.45.88-.93,1.77l.3,0a5.59,5.59,0,0,1,.1-2.57c.2-1,.43-1.93.67-2.89.49-1.91,1-3.81,1.5-5.72a35.09,35.09,0,0,1,1.79-5.57,17.15,17.15,0,0,1,1.37-2.53A11.63,11.63,0,0,1,28.29,51c.31-.37.65-.71,1-1.07a4.62,4.62,0,0,0,.81-1.14,6.08,6.08,0,0,0,.37-1.28,5,5,0,0,1,.47-1.29,8.66,8.66,0,0,1,.77-1.13l.43-.54c.13-.15-.1-.37-.23-.21Z" transform="translate(-5.67 -5.93)"/><path class="cls-3" d="M31.33,49.27a5.89,5.89,0,0,1-1,2.11A24.4,24.4,0,0,0,29,53.61a35.42,35.42,0,0,0-1.91,4.75c-.54,1.63-1,3.29-1.42,5s-.88,3.3-1.21,5c-.17.83-.31,1.66-.4,2.49-.05.42-.08.85-.1,1.27a5.92,5.92,0,0,0,0,1.19,1.69,1.69,0,0,0,.18.55.18.18,0,0,0,.26,0,6.46,6.46,0,0,0,1.28-2.63c.33-1,.63-1.91.94-2.88.61-1.92,1.21-3.85,1.89-5.75.38-1.07.79-2.13,1.24-3.17.08-.18-.2-.34-.28-.15-.79,1.84-1.46,3.72-2.08,5.62s-1.2,3.82-1.83,5.71c-.18.54-.36,1.08-.56,1.61a3.91,3.91,0,0,1-.83,1.42l.25,0a2.17,2.17,0,0,1-.17-1.13c0-.42,0-.84.07-1.25.08-.84.2-1.67.36-2.5.31-1.65.75-3.27,1.17-4.89s.87-3.3,1.38-4.92a36,36,0,0,1,1.83-4.72A23.93,23.93,0,0,1,30.3,52a12.9,12.9,0,0,0,1.19-2.07,3.41,3.41,0,0,0,.14-.55c0-.2-.27-.28-.3-.07Z" transform="translate(-5.67 -5.93)"/><path class="cls-3" d="M33.31,49.63A3.31,3.31,0,0,1,33.09,52,28,28,0,0,1,32,54.6c-.82,1.71-1.59,3.43-2.31,5.18s-1.38,3.51-2,5.29-1.15,3.6-1.62,5.42a18.5,18.5,0,0,0-.85,5.21c0,.22,0,.43,0,.65a.16.16,0,0,0,.3.07c.81-1.67,1.63-3.35,2.41-5s1.54-3.4,2.24-5.12,1.29-3.37,1.86-5.08,1.12-3.31,1.82-4.91a17.75,17.75,0,0,1,2.66-4.37l.42-.47c.14-.15-.09-.37-.23-.22a16.53,16.53,0,0,0-2.83,4.27A44.81,44.81,0,0,0,32,60.34c-.58,1.71-1.16,3.42-1.82,5.11S28.75,68.89,28,70.58s-1.59,3.38-2.4,5c-.1.22-.21.43-.31.64l.3.07a14.7,14.7,0,0,1,.65-5.22c.46-1.83,1-3.65,1.58-5.44s1.25-3.58,2-5.34,1.48-3.5,2.3-5.21c.41-.86.83-1.72,1.17-2.62a5.33,5.33,0,0,0,.53-2.41,2.17,2.17,0,0,0-.13-.56c-.08-.19-.38-.1-.31.09Z" transform="translate(-5.67 -5.93)"/><path class="cls-3" d="M37.63,52.81a.33.33,0,0,0-.48-.19,1.56,1.56,0,0,0-.44.54A9,9,0,0,0,36,54.58c-.4,1-.69,2-1.08,3A40.3,40.3,0,0,1,32,63.39c-.63,1.06-1.29,2.11-1.95,3.15-.11.18.17.32.28.15,1.1-1.75,2.2-3.5,3.18-5.32.49-.91.94-1.83,1.35-2.78s.73-1.89,1.06-2.85a15.22,15.22,0,0,1,.62-1.58,6.37,6.37,0,0,1,.39-.73c.07-.12.15-.24.23-.36s.17-.2.17-.17c0,.2.35.11.31-.09Z" transform="translate(-5.67 -5.93)"/><path class="cls-3" d="M32,61.64a64.32,64.32,0,0,0,3.36-6.56c.26-.64.5-1.28.72-1.94.07-.19-.24-.26-.31-.07a40.31,40.31,0,0,1-3,6.61c-.33.61-.67,1.21-1,1.82-.1.17.18.32.28.14Z" transform="translate(-5.67 -5.93)"/><path class="cls-3" d="M38,51.14a3.76,3.76,0,0,1,1.25-1.06c.18-.09,0-.36-.17-.27a4,4,0,0,0-1.31,1.11.17.17,0,0,0,0,.23.16.16,0,0,0,.22,0Z" transform="translate(-5.67 -5.93)"/><path class="cls-3" d="M36.69,49.44a2.26,2.26,0,0,0,1.46-.61.15.15,0,0,0,0-.22.17.17,0,0,0-.23,0,1.88,1.88,0,0,1-1.24.5c-.2,0-.19.33,0,.32Z" transform="translate(-5.67 -5.93)"/><path class="cls-3" d="M35.68,49.78a2.79,2.79,0,0,0,1.73.18.15.15,0,0,0,.11-.2.15.15,0,0,0-.19-.11,2.35,2.35,0,0,1-1.5-.16.16.16,0,0,0-.21.07.17.17,0,0,0,.06.22Z" transform="translate(-5.67 -5.93)"/><path class="cls-3" d="M34.38,48.4a1.85,1.85,0,0,0,0-1,5.42,5.42,0,0,0-.43-.95c-.34-.75.23-1.45.69-2,.13-.16-.1-.38-.23-.22a2.48,2.48,0,0,0-.85,2,9.19,9.19,0,0,0,.46,1,1.55,1.55,0,0,1,0,1c-.06.2.25.27.31.07Z" transform="translate(-5.67 -5.93)"/><path class="cls-3" d="M35.21,45.27a3.22,3.22,0,0,1,.7-1.05c.15-.14-.09-.36-.23-.22a3.39,3.39,0,0,0-.75,1.12.16.16,0,0,0,.06.22.18.18,0,0,0,.22-.07Z" transform="translate(-5.67 -5.93)"/><path class="cls-3" d="M31.74,48.24a4.74,4.74,0,0,0,.49-2.7c0-.2-.34-.19-.32,0a4.38,4.38,0,0,1-.45,2.54.16.16,0,1,0,.28.15Z" transform="translate(-5.67 -5.93)"/><path class="cls-3" d="M21.86,65.14l-.68,3.59-.35,1.78A13.33,13.33,0,0,0,20.59,72a2.16,2.16,0,0,0,.33,1.43.16.16,0,0,0,.28,0,4,4,0,0,0,.54-1.85c0-.2-.31-.19-.32,0a3.69,3.69,0,0,1-.5,1.69h.27c-.54-.76-.22-1.82-.06-2.65l.67-3.47.37-2a.16.16,0,0,0-.31-.07Z" transform="translate(-5.67 -5.93)"/><path class="cls-3" d="M22,63.76a10.65,10.65,0,0,0-1.59,6,.16.16,0,0,0,.32,0,10.22,10.22,0,0,1,1.55-5.84.16.16,0,0,0-.28-.15Z" transform="translate(-5.67 -5.93)"/><path class="cls-3" d="M26,54A13,13,0,0,0,23,58.6a17,17,0,0,0-.92,5.29c0,1,0,2,0,3a.16.16,0,0,0,.31,0,35.63,35.63,0,0,1,.19-5.27,13.32,13.32,0,0,1,1.72-5,12.52,12.52,0,0,1,1.87-2.42c.14-.14-.09-.36-.23-.21Z" transform="translate(-5.67 -5.93)"/><path class="cls-3" d="M22.81,70.31c.16.65.32,1.29.51,1.93.09.33.19.66.29,1,0,.14.08.29.13.44a.56.56,0,0,0,.2.28.27.27,0,0,0,.31,0,.5.5,0,0,0,.15-.38,3.28,3.28,0,0,0,0-.83c-.11-.64-.28-1.27-.42-1.89l-.51-2.25c0-.2-.35-.11-.3.09l.79,3.52a6.63,6.63,0,0,1,.15.75,2,2,0,0,1,0,.34,1,1,0,0,1,0,.17,1.77,1.77,0,0,0,0,.21h0s0,0,0,0a.13.13,0,0,1,0,0,1.27,1.27,0,0,1-.06-.18c-.05-.15-.09-.29-.13-.44s-.17-.55-.25-.83c-.18-.64-.35-1.29-.51-1.93,0-.2-.35-.11-.3.08Z" transform="translate(-5.67 -5.93)"/><path class="cls-3" d="M22.71,70.65a8,8,0,0,0-1.48,2.06c-.43.71-.85,1.42-1.21,2.17a4.7,4.7,0,0,0-.4,1c-.07.3-.13.77.17,1s.58,0,.81-.2l1-.77c.77-.58,1.52-1.19,2.25-1.82.16-.13-.07-.34-.23-.21-.59.5-1.2,1-1.82,1.47-.3.24-.61.48-.93.71l-.44.32a1.36,1.36,0,0,1-.4.25c-.3.06-.16-.59-.12-.73a4.63,4.63,0,0,1,.39-1c.33-.67.71-1.32,1.09-2a8.35,8.35,0,0,1,1.51-2.12c.16-.13-.07-.35-.23-.22Z" transform="translate(-5.67 -5.93)"/><path class="cls-3" d="M24,70.2l.39-.4a.18.18,0,0,0,0-.23.17.17,0,0,0-.23,0l-.38.4a.16.16,0,0,0,0,.23.16.16,0,0,0,.22,0Z" transform="translate(-5.67 -5.93)"/><path class="cls-3" d="M25.61,71.82a42.4,42.4,0,0,0-3.05,5.31c-.16.36-.54,1-.16,1.32a.15.15,0,0,0,.19,0,9.15,9.15,0,0,0,2.58-2.34c.12-.17-.11-.39-.23-.22a8.86,8.86,0,0,1-2.51,2.29l.19,0c-.12-.11,0-.33,0-.46l.28-.64c.2-.43.41-.86.64-1.28.46-.85,1-1.67,1.47-2.49L25.89,72c.1-.17-.18-.32-.28-.15Z" transform="translate(-5.67 -5.93)"/><path class="cls-3" d="M37.4,53.23c.33-.08.55.36.62.62a3.4,3.4,0,0,1,0,1.23,21.18,21.18,0,0,1-.65,2.61c-.26,1-.47,2-.63,3a4.45,4.45,0,0,1-.33,1.35c-.11.21-.29.38-.39.59a1.57,1.57,0,0,0-.12.57,2.19,2.19,0,0,1,0,.57,1.29,1.29,0,0,1-.36.54,1.88,1.88,0,0,0-.42,1.12A3.84,3.84,0,0,1,35,66a2.43,2.43,0,0,1-.37.59,2,2,0,0,0-.32.58,4,4,0,0,0-.14.6,1.61,1.61,0,0,1-.2.57,3,3,0,0,1-.52.49,3.9,3.9,0,0,0-.72,1.27,18.62,18.62,0,0,1-1.57,2.61c-.58.86-1.14,1.73-1.63,2.63-.26.46-.49.93-.72,1.4A5.34,5.34,0,0,0,28.34,78a2,2,0,0,0,0,.6.17.17,0,0,0,.28.1q2-1.84,4-3.79l2-2c.14-.15-.09-.37-.24-.22C33.08,74,30.84,76.2,29.5,77.45l-1.13,1,.27.11a2.19,2.19,0,0,1,.26-1.23c.21-.48.44-.94.69-1.4a28.92,28.92,0,0,1,1.63-2.73,24,24,0,0,0,1.66-2.65,6.83,6.83,0,0,1,.68-1.35,5.35,5.35,0,0,1,.55-.51,1.53,1.53,0,0,0,.32-.57A4.18,4.18,0,0,1,34.8,67c.14-.21.3-.39.42-.61a2.1,2.1,0,0,0,.19-.6,2.21,2.21,0,0,1,.31-1.14,2.51,2.51,0,0,0,.45-.58,1.69,1.69,0,0,0,.09-.59,2.14,2.14,0,0,1,.06-.56,3,3,0,0,1,.36-.59A3.34,3.34,0,0,0,37.07,61c.16-1,.37-2.05.63-3.07a25,25,0,0,0,.68-2.68,4.22,4.22,0,0,0,0-1.28A1.4,1.4,0,0,0,37.8,53a.65.65,0,0,0-.49-.07c-.2,0-.11.35.09.31Z" transform="translate(-5.67 -5.93)"/><path class="cls-3" d="M33.41,70.5a.87.87,0,0,0,.4.38.17.17,0,0,0,.12,0,.12.12,0,0,0,.09-.08A.15.15,0,0,0,34,70.6l-.12-.07,0,0a.86.86,0,0,1-.14-.13l0,0a.83.83,0,0,1-.08-.12.16.16,0,1,0-.27.17Z" transform="translate(-5.67 -5.93)"/><path class="cls-3" d="M34.89,68.37a.78.78,0,0,0,.42.24.14.14,0,0,0,.11,0,.16.16,0,0,0,.08-.1.25.25,0,0,0,0-.12.23.23,0,0,0-.1-.07l-.1,0,0,0-.14-.08,0,0a.52.52,0,0,1-.11-.1.16.16,0,0,0-.11,0s-.09,0-.11,0a.21.21,0,0,0,0,.12v0a.25.25,0,0,0,0,.07Z" transform="translate(-5.67 -5.93)"/><path class="cls-3" d="M36.45,65.05l.24.11a.17.17,0,0,0,.12,0,.18.18,0,0,0,.1-.07.17.17,0,0,0,0-.12.16.16,0,0,0-.08-.1l-.24-.11a.17.17,0,0,0-.12,0,.16.16,0,0,0-.1.08.17.17,0,0,0,0,.12.16.16,0,0,0,.08.1Z" transform="translate(-5.67 -5.93)"/><path class="cls-3" d="M37.43,62.55l.28,0,0,0,.06,0,0-.06a.13.13,0,0,0,0-.06.16.16,0,0,0,0-.11l0,0a.13.13,0,0,0-.08,0l-.28,0h-.06l0,0,0,.05a.13.13,0,0,0,0,.06.16.16,0,0,0,0,.11l0,0a.12.12,0,0,0,.08,0Z" transform="translate(-5.67 -5.93)"/><path class="cls-3" d="M38.22,58.69l.22.08s0,0,.06,0h.06l0,0a.1.1,0,0,0,0,0,.13.13,0,0,0,0-.12v0l-.06-.06-.22-.08-.06,0h-.06a.05.05,0,0,0,0,0,.08.08,0,0,0,0,0,.17.17,0,0,0,0,.12l0,0,.06.06Z" transform="translate(-5.67 -5.93)"/><path class="cls-3" d="M41.41,47a5.72,5.72,0,0,1,.4-1.21,3.19,3.19,0,0,1,.3-.58c.09-.11.29-.27.44-.16a.16.16,0,0,0,.23,0,.17.17,0,0,0,0-.23.6.6,0,0,0-.63,0,1.23,1.23,0,0,0-.5.62A6.33,6.33,0,0,0,41.1,47a.16.16,0,0,0,.31.07Z" transform="translate(-5.67 -5.93)"/><path class="cls-3" d="M32.72,33.18a3.28,3.28,0,0,0,1.55-.45c.18-.1,0-.37-.16-.27a3,3,0,0,1-1.4.41.16.16,0,1,0,0,.31Z" transform="translate(-5.67 -5.93)"/><path class="cls-4" d="M49.78,22.78c.43.83,1.48,1.07,2.3,1.31s1.9.45,2.86.64a14.42,14.42,0,0,1,2.75.63c.35.14.75.4.74.83a3.53,3.53,0,0,1-.57,1.34,7.57,7.57,0,0,1-1.63,2.35,7.28,7.28,0,0,1-2.65,1.4,8.36,8.36,0,0,0-2.61,1c-.91.63-1.75,1.37-2.62,2s.31,1.66,1.06,1.06a17.54,17.54,0,0,1,2.9-2.17c.92-.44,2-.52,2.9-1a7.56,7.56,0,0,0,2.65-1.92,12.88,12.88,0,0,0,1.6-2.66,2.58,2.58,0,0,0,.1-2.7,3.64,3.64,0,0,0-2.34-1.31c-1.06-.25-2.14-.42-3.21-.65-.51-.11-1-.23-1.53-.38s-1.2-.22-1.4-.61c-.44-.86-1.74-.11-1.3.75Z" transform="translate(-5.67 -5.93)"/><path class="cls-3" d="M80,36.06c-.47-.87-1-1.69-1.58-2.51s-1.11-1.64-1.72-2.43A22.37,22.37,0,0,0,72.45,27a58.29,58.29,0,0,0-5-3.37,18,18,0,0,0-5.55-2.3,32,32,0,0,0-6.1-.53c-1.82,0-3.08,0-4.9,0v.38c1.29,0,2,0,3.31,0a51,51,0,0,1,6,.28,16.62,16.62,0,0,1,5.63,1.74,47.51,47.51,0,0,1,4.87,3.08A26.05,26.05,0,0,1,75.26,30a33.22,33.22,0,0,1,3.39,4.62l.76,1.19c.26.43.61.93.37,1.45a6.93,6.93,0,0,1-.88,1.14c-.32.39-.65.77-1,1.15q-2,2.34-4.07,4.57l-.89.94.15.2-.3,0,.15-.16a32.57,32.57,0,0,0-5.18-5.51.19.19,0,0,0-.32.14q-.27,10,.25,20,.25,5,.71,10l.24,2.45.12,1.22a3.13,3.13,0,0,1,0,1.14c-.19.72-1.18.78-1.79.87a19.74,19.74,0,0,1-2.44.19c-1.64,0-3.29-.07-4.94-.13s-3.33-.14-5-.23c-3.3-.15-6.59-.35-9.88-.64q-2.49-.21-5-.51c-1.53-.18-4.12-.27-5.55-.91l-.28.29a17.3,17.3,0,0,0,3.06.63c1.6.29,3.25.44,4.87.61,6.78.71,13.6,1,20.41,1.24a25.48,25.48,0,0,0,4.94-.19A2.68,2.68,0,0,0,69,75c.44-.55.22-1.38.16-2q-.52-5.11-.86-10.23-.65-10.24-.49-20.53c0-.71,0-1.43,0-2.14l-.32-.29.33-.13c0,.14,0,.28,0,.42a32.14,32.14,0,0,1,5,5.34.2.2,0,0,0,.3,0c1.47-1.54,2.91-3.12,4.3-4.73.7-.8,1.38-1.61,2-2.42a3.53,3.53,0,0,0,.75-1.1A1.52,1.52,0,0,0,80,36.06Z" transform="translate(-5.67 -5.93)"/><path class="cls-3" d="M73.12,45.27l-.15-.2-.15.16Z" transform="translate(-5.67 -5.93)"/><path class="cls-3" d="M67.52,39.83l.32.29c0-.14,0-.28,0-.42Z" transform="translate(-5.67 -5.93)"/></svg>