<svg id="Layer_1" data-name="Layer 1" xmlns="http://www.w3.org/2000/svg" viewBox="0 0 88.01 88.59"><defs><style>.cls-1{fill:blue;stroke:blue;stroke-width:3px;}.cls-1,.cls-2{stroke-miterlimit:10;}.cls-2{fill:#fff;stroke:#fff;stroke-width:0.5px;}</style></defs><path class="cls-1" d="M15.77,24.08c5-5.21,10.16-10.11,16.85-13C45.79,5.24,61.14,7.19,73,15.21A44.9,44.9,0,0,1,90.81,39.73a36.11,36.11,0,0,1-4,29.42A52.88,52.88,0,0,1,67.59,87.9c-4.77,2.7-10.18,5-15.71,5.33a39,39,0,0,1-17.6-3.48A47.18,47.18,0,0,1,14.81,74.33c-8.7-12-9.63-26.89-3.89-40.41.83-1.94,1.72-3.86,2.64-5.76.79-1.65,1.48-3.72,2.94-4.91" transform="translate(-5.8 -6.19)"/><path class="cls-2" d="M51.53,43.89A22.19,22.19,0,0,0,57,41.66c.88-.47,1.74-1,2.61-1.45l2.77-1.51c1.82-1,3.6-2,5.36-3.14A29.59,29.59,0,0,1,73,32.74a10.68,10.68,0,0,1,5.72-.68c.24,0,.47.1.71.17a.17.17,0,0,0,.09-.33,10.22,10.22,0,0,0-5.77.22,23.64,23.64,0,0,0-5.34,2.62c-.86.53-1.72,1.08-2.59,1.61S64,37.42,63,37.93l-5.46,3a25.75,25.75,0,0,1-5.41,2.43l-.72.19c-.21,0-.12.37.09.33Z" transform="translate(-5.8 -6.19)"/><path class="cls-2" d="M82.06,33.31a4.29,4.29,0,0,0-3.78,2.42A2.54,2.54,0,0,0,78.11,37c0,.21.36.21.34,0a2.71,2.71,0,0,1,1-2.35,4.69,4.69,0,0,1,2.61-1c.21,0,.22-.36,0-.34Z" transform="translate(-5.8 -6.19)"/><path class="cls-2" d="M77.19,40.88a5.73,5.73,0,0,0-6.42,3.3c-.09.19.21.37.29.17a5.47,5.47,0,0,1,4.32-3.21,5.22,5.22,0,0,1,1.72.07c.21,0,.31-.29.09-.33Z" transform="translate(-5.8 -6.19)"/><path class="cls-2" d="M68.2,47a7.41,7.41,0,0,0-2.9.67,5.77,5.77,0,0,0-2,2c-.12.18.17.35.29.17a5.43,5.43,0,0,1,1.86-1.83,7.3,7.3,0,0,1,2.73-.62c.21,0,.21-.36,0-.34Z" transform="translate(-5.8 -6.19)"/><path class="cls-2" d="M64.93,50.87a37.33,37.33,0,0,1,5.56-1c.22,0,.22-.36,0-.34a37.26,37.26,0,0,0-5.65,1.06.17.17,0,0,0,.09.33Z" transform="translate(-5.8 -6.19)"/><path class="cls-2" d="M49.81,44.7a1.18,1.18,0,0,1,.62-1,4.48,4.48,0,0,1,1.39-.47,3.32,3.32,0,0,0,1.31-.63,3.53,3.53,0,0,0,.81-1.1c.46-1,.53-2,.92-3a2.05,2.05,0,0,1,.84-1A3.07,3.07,0,0,1,56.88,37c.87-.1,1.73,0,2.6,0a3,3,0,0,0,2.28-.91c.31-.38.48-.86.75-1.26a2.42,2.42,0,0,1,1-.83,10.37,10.37,0,0,1,3-.52,6.57,6.57,0,0,0,1.56-.43,12.5,12.5,0,0,1,1.53-.61,11.63,11.63,0,0,1,3.22-.32h.8a.17.17,0,0,0,0-.34,18.13,18.13,0,0,0-3.29.14,7.06,7.06,0,0,0-1.57.45,12.49,12.49,0,0,1-1.57.62c-1,.27-2.15.19-3.19.47a4,4,0,0,0-1.24.58,3.11,3.11,0,0,0-.86,1.11,2.49,2.49,0,0,1-.85,1.07,2.9,2.9,0,0,1-1.19.4c-.88.11-1.77,0-2.65,0a3,3,0,0,0-2.31,1A3.69,3.69,0,0,0,54.32,39c-.14.55-.25,1.11-.43,1.65A4,4,0,0,1,53.23,42a2.44,2.44,0,0,1-1.17.8c-.87.29-2,.36-2.46,1.3a1.23,1.23,0,0,0-.12.62c0,.22.35.22.33,0Z" transform="translate(-5.8 -6.19)"/><path class="cls-2" d="M74.48,32.05a16.28,16.28,0,0,1,3.25-1.14,6.93,6.93,0,0,1,.79-.17,1.11,1.11,0,0,1,.65.05c.21.1.28.34.37.54a1.35,1.35,0,0,0,.4.49c.7.5,1.66.14,2.43.4a2.13,2.13,0,0,1,1.39,2,12.24,12.24,0,0,1-.39,1.67,9,9,0,0,0-.13,1.72,13.66,13.66,0,0,1-.12,3.13,3.48,3.48,0,0,1-1.26,2.15,4.2,4.2,0,0,1-1.42.53,3.31,3.31,0,0,0-1.33.65,5.93,5.93,0,0,0-1.47,2.44,6.12,6.12,0,0,1-1.54,2.56,6,6,0,0,1-2.39,1.14c-.89.23-1.8.36-2.71.51a25.6,25.6,0,0,0-3.34.76,22.33,22.33,0,0,0-3.18,1.25c-1.72.83-3.76,1.85-5.68,1a2.82,2.82,0,0,1-1-.78,3.24,3.24,0,0,1-.59-1.26c-.25-.93-.26-1.9-.56-2.82a4.09,4.09,0,0,0-1.56-2.12,4.25,4.25,0,0,0-1.21-.59c-.5-.15-1-.14-1.52-.27s-.9-.43-.83-.92c0-.22-.31-.22-.34,0a1.15,1.15,0,0,0,.68,1.1,5.3,5.3,0,0,0,1.57.33,3.88,3.88,0,0,1,2.33,1.47,6,6,0,0,1,.89,2.74,4.92,4.92,0,0,0,1,2.67A3.55,3.55,0,0,0,60,54.35a6.48,6.48,0,0,0,3-.57c1.06-.44,2.08-1,3.15-1.43a23.74,23.74,0,0,1,3.4-1c1-.23,2.08-.37,3.12-.56a10.29,10.29,0,0,0,2.67-.8,4.56,4.56,0,0,0,2-2c.5-.93.74-2,1.3-2.87a3.1,3.1,0,0,1,1-1.06,6.35,6.35,0,0,1,1.54-.52,3.08,3.08,0,0,0,1.92-1.75A6.94,6.94,0,0,0,83.61,39a12.26,12.26,0,0,1,.23-3.58,3.62,3.62,0,0,0,.23-1.56,2.38,2.38,0,0,0-.56-1.2,2.34,2.34,0,0,0-1.09-.74,4.89,4.89,0,0,0-1.32-.12A1.4,1.4,0,0,1,80,31.39c-.14-.19-.2-.43-.33-.62a.86.86,0,0,0-.55-.36,3.69,3.69,0,0,0-1.51.18,16.8,16.8,0,0,0-1.71.51c-.53.19-1.05.42-1.56.66-.2.1,0,.39.17.29Z" transform="translate(-5.8 -6.19)"/><path class="cls-2" d="M50.33,44.62c0-.09.05-.25.14-.29s.12.11.13.19c0,.24,0,.48,0,.72a1.42,1.42,0,0,0,.75,1.06,13.37,13.37,0,0,0,2.63.82c.21.07.3-.26.09-.33a20.16,20.16,0,0,1-2.27-.64,1.42,1.42,0,0,1-.84-.77,2.76,2.76,0,0,1,0-.64,1.21,1.21,0,0,0-.11-.6.4.4,0,0,0-.51-.12.73.73,0,0,0-.33.51.17.17,0,0,0,.33.09Z" transform="translate(-5.8 -6.19)"/><path class="cls-2" d="M56.36,47.47A5.06,5.06,0,0,1,58.13,49a.16.16,0,0,0,.23.06.17.17,0,0,0,.06-.23,5.49,5.49,0,0,0-1.88-1.64c-.2-.1-.37.19-.18.3Z" transform="translate(-5.8 -6.19)"/><path class="cls-2" d="M58.47,52.53l1.33,1a.18.18,0,0,0,.23-.06.18.18,0,0,0-.06-.24l-1.33-1a.18.18,0,0,0-.23.06.19.19,0,0,0,.06.24Z" transform="translate(-5.8 -6.19)"/><path class="cls-2" d="M77.07,42.22l.74.69a.17.17,0,1,0,.24-.24L77.31,42a.17.17,0,1,0-.24.24Z" transform="translate(-5.8 -6.19)"/><path class="cls-2" d="M81.41,36.64a9.67,9.67,0,0,0,1.32-1,.17.17,0,0,0,0-.24.18.18,0,0,0-.24,0,9.5,9.5,0,0,1-1.25.94.17.17,0,0,0-.06.23.16.16,0,0,0,.23.06Z" transform="translate(-5.8 -6.19)"/><path class="cls-2" d="M52.33,59.39a13.18,13.18,0,0,0,2.61-2.45l.6-.64c.19-.2.4-.48.69-.49a1.77,1.77,0,0,1,.46.07,2.69,2.69,0,0,0,.4,0,2.54,2.54,0,0,0,.77-.13,2.6,2.6,0,0,0,1.39-1.05c.12-.18-.17-.35-.29-.17a2.32,2.32,0,0,1-1.19.9,2.19,2.19,0,0,1-.76.11,5,5,0,0,0-.86-.09,1.19,1.19,0,0,0-.7.42c-.2.2-.39.41-.59.62-.39.44-.77.88-1.18,1.3a8.4,8.4,0,0,1-1.52,1.27c-.18.12,0,.41.17.3Z" transform="translate(-5.8 -6.19)"/><path class="cls-2" d="M58.64,55.66l2.21-.74a5.2,5.2,0,0,0,1.77-.86c.17-.14-.07-.38-.24-.24a5.33,5.33,0,0,1-1.72.81l-2.11.7c-.2.07-.11.4.09.33Z" transform="translate(-5.8 -6.19)"/><path class="cls-2" d="M53.46,53.78A4,4,0,0,0,55,52.47c.33-.56.4-1.35,1-1.73.18-.12,0-.41-.18-.29-.59.39-.72,1.08-1,1.68a3.41,3.41,0,0,1-1.46,1.35.17.17,0,0,0,.17.3Z" transform="translate(-5.8 -6.19)"/><path class="cls-2" d="M55.11,52.36l.55-.14a.17.17,0,1,0-.09-.32L55,52a.17.17,0,1,0,.09.33Z" transform="translate(-5.8 -6.19)"/><path class="cls-2" d="M53.87,50.46c.07.21-.22.33-.37.37a2.44,2.44,0,0,0-.67.17,1.86,1.86,0,0,0-.27.22c-.06.05-.11.11-.2.07a.74.74,0,0,0-.29-.12.29.29,0,0,0-.3.17.93.93,0,0,0-.07.33.74.74,0,0,0,.06.36.54.54,0,0,0,.51.32,1.58,1.58,0,0,0,.64-.15l.84-.35c.26-.11.55-.19.66-.47a1,1,0,0,0-.11-.78c-.1-.2-.39,0-.3.17s.18.37.08.52a.53.53,0,0,1-.23.16l-.36.14-.72.3a1.16,1.16,0,0,1-.51.12c-.2,0-.23-.17-.22-.34a.77.77,0,0,0,0-.15h0s0,0,0,0,0,0,0,0a.68.68,0,0,0,.27.13.58.58,0,0,0,.51-.22.87.87,0,0,1,.51-.22A1.26,1.26,0,0,0,54,51a.54.54,0,0,0,.21-.59.17.17,0,0,0-.33.09Z" transform="translate(-5.8 -6.19)"/><path class="cls-2" d="M53.88,49.87a.93.93,0,0,1,.68.62,1.2,1.2,0,0,1-.09,1,2.64,2.64,0,0,1-1.93,1.15c-.22,0-.13.37.09.32a2.77,2.77,0,0,0,2.2-1.45,1.5,1.5,0,0,0,0-1.21,1.27,1.27,0,0,0-.87-.74c-.22,0-.31.28-.09.33Z" transform="translate(-5.8 -6.19)"/><path class="cls-2" d="M54.38,49c-.55.6-1.46.61-2.18.91a1.94,1.94,0,0,0-1,.79A1.62,1.62,0,0,0,51.08,52a1.11,1.11,0,0,0,1.05.81c.21,0,.22-.35,0-.34a.77.77,0,0,1-.74-.64,1.31,1.31,0,0,1,.26-1.14c.46-.58,1.28-.66,1.94-.87a2.44,2.44,0,0,0,1-.6c.15-.16-.09-.4-.24-.24Z" transform="translate(-5.8 -6.19)"/><path class="cls-2" d="M49.47,44.65c-.46-.1-.93-.19-1.4-.27a11,11,0,0,0-1.38-.21,1.59,1.59,0,0,0-1.1.5,9.47,9.47,0,0,0-1,.95,11.54,11.54,0,0,0-.92,1.17c-.12.18.17.35.3.17a9.61,9.61,0,0,1,1-1.23,7.8,7.8,0,0,1,.57-.58,3.64,3.64,0,0,1,.56-.48,1,1,0,0,1,.71-.14c.29,0,.58.08.86.13.57.09,1.12.2,1.68.32.21.05.31-.28.09-.33Z" transform="translate(-5.8 -6.19)"/><path class="cls-2" d="M50.15,45.4a9.29,9.29,0,0,0-2.91.52,10.92,10.92,0,0,0-1.3.71,3.52,3.52,0,0,1-1.41.47c-.51.06-1,0-1.54,0a11.54,11.54,0,0,0-1.55.11,17.46,17.46,0,0,0-3,.68,34,34,0,0,0-5.76,2.62l-2.8,1.56-2.81,1.53c-.94.52-1.87,1-2.78,1.6A10.11,10.11,0,0,0,22,57a4.19,4.19,0,0,0-.4.54.18.18,0,0,0,.2.25c2.43-.66,4.84-1.43,7.21-2.31.67-.24,1.34-.5,2-.77.2-.08.11-.41-.09-.33-2.35.94-4.73,1.78-7.15,2.5-.69.2-1.38.4-2.07.58l.2.25a6,6,0,0,1,2.07-1.81c.9-.56,1.81-1.09,2.74-1.61,1.84-1,3.7-2,5.54-3a39.6,39.6,0,0,1,5.65-2.71,18.13,18.13,0,0,1,3-.81,15.17,15.17,0,0,1,1.51-.18c.52,0,1,0,1.55,0a5,5,0,0,0,1.48-.21,6.83,6.83,0,0,0,1.26-.65A5.23,5.23,0,0,1,48,46a8.76,8.76,0,0,1,1.45-.23c.24,0,.49,0,.73-.06s.22-.36,0-.34Z" transform="translate(-5.8 -6.19)"/><path class="cls-2" d="M45.94,48.57a6.17,6.17,0,0,1-2.41.75,26.53,26.53,0,0,0-2.66.67,38.5,38.5,0,0,0-5.09,2c-1.66.78-3.28,1.66-4.9,2.54s-3.2,1.75-4.74,2.72c-.76.47-1.51,1-2.22,1.52-.36.28-.72.56-1.06.86a6,6,0,0,0-.92.89,1.76,1.76,0,0,0-.29.54.18.18,0,0,0,.17.22,6.94,6.94,0,0,0,3-.94c1-.45,1.95-.92,2.93-1.39,1.94-.94,3.88-1.9,5.85-2.77,1.11-.49,2.24-1,3.38-1.37.2-.08.11-.41-.09-.33-2,.74-4,1.61-5.89,2.52s-3.85,1.88-5.79,2.79c-.55.26-1.1.52-1.66.75a4.24,4.24,0,0,1-1.71.4l.16.21a2.35,2.35,0,0,1,.75-1c.34-.3.68-.59,1-.87.71-.56,1.45-1.07,2.21-1.56,1.51-1,3.09-1.83,4.66-2.7s3.19-1.75,4.83-2.55a41.19,41.19,0,0,1,5-2.06,26.69,26.69,0,0,1,2.62-.71,13,13,0,0,0,2.48-.6,3.5,3.5,0,0,0,.54-.29c.18-.12,0-.42-.17-.3Z" transform="translate(-5.8 -6.19)"/><path class="cls-2" d="M47.12,50.39a3.62,3.62,0,0,1-2,1.54A30.33,30.33,0,0,1,42.26,53q-2.9.93-5.73,2c-1.88.73-3.74,1.51-5.57,2.36s-3.63,1.76-5.4,2.74a19.87,19.87,0,0,0-4.66,3.17c-.17.17-.33.34-.48.52a.18.18,0,0,0,.17.29q2.85-.9,5.69-1.84c1.89-.64,3.77-1.31,5.63-2s3.56-1.48,5.32-2.29,3.38-1.58,5.14-2.2a19,19,0,0,1,5.36-1.17h.68a.17.17,0,0,0,0-.34,17.44,17.44,0,0,0-5.41.95,46.15,46.15,0,0,0-5.16,2.11c-1.76.81-3.51,1.62-5.31,2.35S28.8,61,26.92,61.67s-3.79,1.26-5.7,1.86l-.72.23.16.28A15.93,15.93,0,0,1,25.2,60.7c1.76-1,3.56-1.92,5.38-2.78s3.71-1.67,5.6-2.41,3.8-1.43,5.73-2c1-.32,2-.63,2.9-1a5.68,5.68,0,0,0,2.27-1.37,1.94,1.94,0,0,0,.33-.51c.09-.2-.2-.37-.29-.17Z" transform="translate(-5.8 -6.19)"/><path class="cls-2" d="M47.83,56.08a.35.35,0,0,0-.21-.51,1.51,1.51,0,0,0-.73,0,9.3,9.3,0,0,0-1.63.5c-1.07.42-2.08,1-3.14,1.38a42.86,42.86,0,0,1-6.66,2c-1.29.3-2.59.56-3.88.82-.22,0-.13.37.09.32,2.16-.43,4.33-.87,6.47-1.45,1.06-.29,2.12-.62,3.16-1s2-.82,3-1.27A14.45,14.45,0,0,1,46,56.22c.28-.09.57-.17.86-.24l.45-.08s.28,0,.25,0c-.12.18.17.35.3.17Z" transform="translate(-5.8 -6.19)"/><path class="cls-2" d="M36.82,58.22A68.43,68.43,0,0,0,44.39,56c.69-.27,1.37-.55,2-.87.2-.09,0-.38-.17-.29a43.55,43.55,0,0,1-7.37,2.51l-2.16.55c-.21,0-.12.38.09.33Z" transform="translate(-5.8 -6.19)"/><path class="cls-2" d="M48.27,55c.6.71.15,1.81-.18,2.54A11.24,11.24,0,0,1,46.56,60a16.6,16.6,0,0,1-4.76,3.77,36.51,36.51,0,0,1-5.95,2.58A39.19,39.19,0,0,1,29.51,68a5.53,5.53,0,0,0-2.63.85c-.09.07-.18.13-.17.25a.36.36,0,0,0,.13.24.94.94,0,0,0,.59.16c.56,0,1.11,0,1.67,0a40.19,40.19,0,0,0,6.66-.57,39.08,39.08,0,0,0,6.41-1.62,23.11,23.11,0,0,0,5.53-2.66,14.49,14.49,0,0,0,4-4A11.8,11.8,0,0,0,53,58.09a6.08,6.08,0,0,0,.42-2.7,2.37,2.37,0,0,0-.49-1.19c-.14-.17-.38.07-.24.24a3.21,3.21,0,0,1,.21,2.79A10.53,10.53,0,0,1,51.75,60a13.88,13.88,0,0,1-4.2,4.36,23.55,23.55,0,0,1-5.91,2.8,40,40,0,0,1-6.9,1.61,40.34,40.34,0,0,1-7.12.39c-.07,0-.56,0-.57-.1l-.05.12a4.52,4.52,0,0,1,2.33-.82c1-.15,1.94-.34,2.9-.57A38.25,38.25,0,0,0,37.86,66,31.58,31.58,0,0,0,43,63.47a15.1,15.1,0,0,0,4.06-3.58,10.26,10.26,0,0,0,1.35-2.25,3.32,3.32,0,0,0,.37-2.34,1.4,1.4,0,0,0-.29-.5c-.14-.17-.38.07-.24.24Z" transform="translate(-5.8 -6.19)"/><path class="cls-2" d="M49.42,55.16a4,4,0,0,1,1.74.19c.21.07.3-.26.09-.33a4.19,4.19,0,0,0-1.83-.2.18.18,0,0,0-.17.17.17.17,0,0,0,.17.17Z" transform="translate(-5.8 -6.19)"/><path class="cls-2" d="M49.76,52.87a2.41,2.41,0,0,0,1.54.69.18.18,0,0,0,.17-.17.17.17,0,0,0-.17-.17,2.06,2.06,0,0,1-1.3-.59c-.16-.15-.4.09-.24.24Z" transform="translate(-5.8 -6.19)"/><path class="cls-2" d="M48.75,52.33a2.9,2.9,0,0,0,1.14,1.48.17.17,0,0,0,.23-.06.18.18,0,0,0-.06-.23,2.6,2.6,0,0,1-1-1.28.19.19,0,0,0-.21-.12.18.18,0,0,0-.12.21Z" transform="translate(-5.8 -6.19)"/><path class="cls-2" d="M48.86,50.31a2,2,0,0,0,.79-.7,6.76,6.76,0,0,0,.42-1c.34-.8,1.3-.89,2.06-.93.22,0,.22-.35,0-.34a2.7,2.7,0,0,0-2.22.86,7,7,0,0,0-.44,1.1,1.71,1.71,0,0,1-.78.77c-.2.1,0,.39.17.29Z" transform="translate(-5.8 -6.19)"/><path class="cls-2" d="M51.9,48.64a3.35,3.35,0,0,1,1.33-.22c.22,0,.22-.33,0-.34a3.46,3.46,0,0,0-1.42.24.17.17,0,1,0,.09.32Z" transform="translate(-5.8 -6.19)"/><path class="cls-2" d="M47,48.14a5,5,0,0,0,2.46-1.61c.14-.17-.1-.41-.24-.24a4.63,4.63,0,0,1-2.31,1.52.17.17,0,0,0,.09.33Z" transform="translate(-5.8 -6.19)"/><path class="cls-2" d="M26.64,52.92,23.35,55l-1.64,1a14.18,14.18,0,0,0-1.36.93,2.32,2.32,0,0,0-.86,1.31.17.17,0,0,0,.21.21,4.38,4.38,0,0,0,1.83-.94c.17-.14-.07-.38-.24-.24a3.94,3.94,0,0,1-1.68.85l.21.21c.18-1,1.25-1.51,2-2l3.17-2,1.8-1.15c.19-.12,0-.42-.17-.3Z" transform="translate(-5.8 -6.19)"/><path class="cls-2" d="M27.79,52a11.89,11.89,0,0,0-4.72,2.2,13.07,13.07,0,0,0-1.11,1c-.15.16.09.4.24.24a11.31,11.31,0,0,1,4.29-2.71,11.5,11.5,0,0,1,1.39-.39c.21,0,.12-.37-.09-.33Z" transform="translate(-5.8 -6.19)"/><path class="cls-2" d="M38.31,47.89A13.8,13.8,0,0,0,32.57,49a17.8,17.8,0,0,0-4.78,3.18c-.81.71-1.59,1.47-2.36,2.23-.16.15.08.39.24.24a36.61,36.61,0,0,1,4.23-3.74,14.18,14.18,0,0,1,5.16-2.36,13.69,13.69,0,0,1,3.25-.33c.22,0,.22-.33,0-.34Z" transform="translate(-5.8 -6.19)"/><path class="cls-2" d="M23.32,57.47c-.39.6-.76,1.2-1.12,1.81l-.55.95c-.08.14-.17.29-.24.43a.52.52,0,0,0-.08.36.28.28,0,0,0,.25.23.59.59,0,0,0,.4-.16,3.12,3.12,0,0,0,.61-.65c.42-.55.78-1.14,1.17-1.72l1.37-2c.12-.19-.17-.36-.3-.18l-2.15,3.21a6.2,6.2,0,0,1-.47.67,1.55,1.55,0,0,1-.24.27l-.14.13a.64.64,0,0,0-.19.13v0s0,0,0,0a.11.11,0,0,0,0-.06l.1-.17.24-.43c.15-.27.31-.54.47-.8.36-.62.74-1.22,1.12-1.82.12-.18-.17-.35-.29-.17Z" transform="translate(-5.8 -6.19)"/><path class="cls-2" d="M23,57.65A8.44,8.44,0,0,0,20.3,58c-.87.19-1.73.39-2.58.65a4.92,4.92,0,0,0-1.09.45c-.28.17-.69.47-.62.84s.45.43.75.48.91.17,1.36.24c1,.17,2,.31,3.07.42.22,0,.22-.32,0-.34-.83-.09-1.66-.2-2.48-.33l-1.24-.2-.57-.1a1.43,1.43,0,0,1-.49-.13c-.27-.19.34-.56.47-.63a5.21,5.21,0,0,1,1-.4c.76-.23,1.53-.42,2.31-.59A8.9,8.9,0,0,1,23,58c.21,0,.21-.31,0-.33Z" transform="translate(-5.8 -6.19)"/><path class="cls-2" d="M24.27,58.29h.59a.17.17,0,0,0,0-.34h-.59a.17.17,0,1,0,0,.34Z" transform="translate(-5.8 -6.19)"/><path class="cls-2" d="M24.21,60.75a46.07,46.07,0,0,0-6.36,1.55c-.4.14-1.16.3-1.15.85a.2.2,0,0,0,.13.16,9.92,9.92,0,0,0,3.72.28c.21,0,.22-.37,0-.34A9.65,9.65,0,0,1,16.92,63l.12.17c0-.18.23-.27.37-.33l.7-.26c.49-.16,1-.31,1.47-.44,1-.28,2-.49,3-.7l1.71-.34c.21,0,.12-.37-.09-.33Z" transform="translate(-5.8 -6.19)"/><path class="cls-2" d="M47.34,56.21c.3.2.12.69,0,.94a3.78,3.78,0,0,1-.92,1,21.94,21.94,0,0,1-2.5,1.41c-1,.54-1.9,1.12-2.81,1.74a4.71,4.71,0,0,1-1.29.73c-.25.07-.51.06-.75.14a1.63,1.63,0,0,0-.53.33,3.6,3.6,0,0,1-.47.39,1.31,1.31,0,0,1-.68.11,2,2,0,0,0-1.19.5,3,3,0,0,1-.53.35,2.64,2.64,0,0,1-.73.15,2.33,2.33,0,0,0-.69.17,4.76,4.76,0,0,0-.57.34,1.74,1.74,0,0,1-.59.26,2.87,2.87,0,0,1-.77,0,4.2,4.2,0,0,0-1.51.38,20.39,20.39,0,0,1-3.19.7c-1.09.18-2.17.39-3.24.67-.54.15-1.08.3-1.61.47a6.1,6.1,0,0,0-1.32.54,2.16,2.16,0,0,0-.48.42.17.17,0,0,0,.12.29q2.93.22,5.86.3l1.66,0a.17.17,0,0,0,0-.34c-2,0-3.91-.1-5.87-.21l-1.65-.12.12.29a2.41,2.41,0,0,1,1.14-.7c.53-.18,1.06-.35,1.6-.5,1.09-.3,2.2-.55,3.31-.74a26.09,26.09,0,0,0,3.28-.66A7.78,7.78,0,0,1,32.07,65a5.37,5.37,0,0,1,.8,0,1.49,1.49,0,0,0,.68-.17,4.56,4.56,0,0,1,1.21-.6,6.83,6.83,0,0,0,.77-.12,2,2,0,0,0,.61-.3,2.41,2.41,0,0,1,1.12-.6,2.31,2.31,0,0,0,.78-.08,1.64,1.64,0,0,0,.52-.35,2.46,2.46,0,0,1,.48-.37,2.88,2.88,0,0,1,.72-.15,3.62,3.62,0,0,0,1.33-.7q1.39-.95,2.85-1.77a25.22,25.22,0,0,0,2.59-1.45,4.37,4.37,0,0,0,1-1,1.44,1.44,0,0,0,.31-1.12.72.72,0,0,0-.3-.44c-.18-.12-.35.17-.17.3Z" transform="translate(-5.8 -6.19)"/><path class="cls-2" d="M31,65.83a.88.88,0,0,0,0,.6.19.19,0,0,0,.08.1.15.15,0,0,0,.13,0,.15.15,0,0,0,.11-.2l0-.15v0a.74.74,0,0,1,0-.21v0l0-.15a.17.17,0,1,0-.32-.09Z" transform="translate(-5.8 -6.19)"/><path class="cls-2" d="M33.73,65.42a.77.77,0,0,0,.12.49.18.18,0,0,0,.23.07.18.18,0,0,0,.08-.11.2.2,0,0,0,0-.13.41.41,0,0,1,0-.09v0a.94.94,0,0,1,0-.16v-.11a.17.17,0,0,0-.17-.17.15.15,0,0,0-.12,0l0,0a.16.16,0,0,0,0,.09Z" transform="translate(-5.8 -6.19)"/><path class="cls-2" d="M37.46,64.18l.09.27a.18.18,0,0,0,.21.12.16.16,0,0,0,.1-.08.19.19,0,0,0,0-.13l-.09-.27a.23.23,0,0,0-.08-.11.15.15,0,0,0-.13,0,.16.16,0,0,0-.1.08.15.15,0,0,0,0,.13Z" transform="translate(-5.8 -6.19)"/><path class="cls-2" d="M40.12,63.1l.18.23.06,0h.13a.1.1,0,0,0,0,0,.13.13,0,0,0,.05-.12v0a.22.22,0,0,0-.05-.08l-.18-.23,0,0-.07,0-.07,0-.05,0a.21.21,0,0,0,0,.12V63a.1.1,0,0,0,0,.07Z" transform="translate(-5.8 -6.19)"/><path class="cls-2" d="M43.7,60.87l.09.23,0,.06,0,0a.08.08,0,0,0,.07,0H44a.16.16,0,0,0,.1-.08l0,0a.14.14,0,0,0,0-.09L44,60.78l0-.06,0,0-.06,0h-.07a.2.2,0,0,0-.1.08l0,0a.14.14,0,0,0,0,.09Z" transform="translate(-5.8 -6.19)"/><path class="cls-2" d="M55.1,54.76a5.5,5.5,0,0,1,1.23-.57A3.22,3.22,0,0,1,57,54c.15,0,.42,0,.45.23a.17.17,0,1,0,.34,0,.65.65,0,0,0-.43-.53,1.31,1.31,0,0,0-.85.08,6.4,6.4,0,0,0-1.58.7.17.17,0,1,0,.17.29Z" transform="translate(-5.8 -6.19)"/><path class="cls-2" d="M59.45,37.81a3.52,3.52,0,0,0,1.49.87.17.17,0,0,0,.09-.33,3.25,3.25,0,0,1-1.34-.78.17.17,0,0,0-.24.24Z" transform="translate(-5.8 -6.19)"/><path class="cls-2" d="M66.37,34.06l.41.19a.2.2,0,0,0,.13,0,.16.16,0,0,0,.1-.08.15.15,0,0,0,0-.13A.14.14,0,0,0,67,34l-.41-.19a.19.19,0,0,0-.13,0,.16.16,0,0,0-.1.08.2.2,0,0,0,0,.13.14.14,0,0,0,.08.1Z" transform="translate(-5.8 -6.19)"/></svg>