<svg id="Layer_2" data-name="Layer 2" xmlns="http://www.w3.org/2000/svg" viewBox="0 0 88.01 88.59"><defs><style>.cls-1{fill:blue;stroke:blue;stroke-width:3px;}.cls-1,.cls-2{stroke-miterlimit:10;}.cls-2{fill:#fff;stroke:#fff;stroke-width:0.75px;}</style></defs><path class="cls-1" d="M15.77,24.08c5-5.21,10.16-10.11,16.85-13C45.79,5.24,61.14,7.19,73,15.21A44.9,44.9,0,0,1,90.81,39.73a36.11,36.11,0,0,1-4,29.42A52.88,52.88,0,0,1,67.59,87.9c-4.77,2.7-10.18,5-15.71,5.33a39,39,0,0,1-17.6-3.48A47.18,47.18,0,0,1,14.81,74.33c-8.7-12-9.63-26.89-3.89-40.41.83-1.94,1.72-3.86,2.64-5.76.79-1.65,1.48-3.72,2.94-4.91" transform="translate(-5.8 -6.19)"/><path class="cls-2" d="M32.76,22.27,20.55,33.49,19,34.91a1.46,1.46,0,0,0-.63,1.29,4.07,4.07,0,0,0,.83,1.49c.32.47.67.94,1,1.4a31.6,31.6,0,0,0,5,5.18,4.93,4.93,0,0,0,1.58,1,3.05,3.05,0,0,0,1.72,0,7.93,7.93,0,0,0,3.09-2.12l-.34-.2A156.59,156.59,0,0,0,29.6,64.41l-.18,5.51-.08,2.76c0,.9-.12,1.81-.08,2.71s.55,1.19,1.24,1.52a9.41,9.41,0,0,0,2.27.67c1.73.31,3.48.47,5.22.65,7.26.76,14.56,1.08,21.85,1.33a27.53,27.53,0,0,0,5.29-.2A2.82,2.82,0,0,0,67,78.63c.47-.59.25-1.47.18-2.16q-.57-5.46-.92-10.94-.7-11-.53-22l.06-2.75-.35.15a33.93,33.93,0,0,1,5.65,6,.21.21,0,0,0,.32,0C73,45.37,74.5,43.68,76,42c.74-.85,1.47-1.72,2.19-2.59A3.94,3.94,0,0,0,79,38.19a1.66,1.66,0,0,0-.22-1.28c-.5-.92-1.12-1.8-1.69-2.68s-1.19-1.76-1.84-2.59a23.7,23.7,0,0,0-4.53-4.42c-1.72-1.28-3.52-2.5-5.36-3.61a19.09,19.09,0,0,0-5.94-2.45,33.18,33.18,0,0,0-6.53-.57c-2.37,0-4.74,0-7.11,0s-4.71.07-7.07.14c-1.68.05-3.74-.08-5.18.95a3.12,3.12,0,0,0-.8.82c-.14.22.21.43.35.21,1-1.45,3-1.49,4.55-1.54,2.26-.07,4.52-.13,6.78-.15s4.51,0,6.77,0a56.1,56.1,0,0,1,6.48.29,17.79,17.79,0,0,1,6,1.87,49.6,49.6,0,0,1,5.21,3.29,27.24,27.24,0,0,1,4.81,4,35.21,35.21,0,0,1,3.64,4.95l.81,1.28c.28.45.66,1,.39,1.54a6.91,6.91,0,0,1-.94,1.23l-1,1.23q-2.11,2.49-4.35,4.89L71.1,46.73l.32,0a35.11,35.11,0,0,0-5.71-6.1.2.2,0,0,0-.34.14q-.28,10.69.27,21.38c.18,3.57.44,7.15.76,10.72.08.87.16,1.74.25,2.61,0,.44.09.88.14,1.31a3.63,3.63,0,0,1,0,1.23c-.2.76-1.27.83-1.92.92a20.71,20.71,0,0,1-2.61.21c-1.76,0-3.53-.08-5.29-.15l-5.35-.23c-3.53-.17-7.06-.38-10.58-.69-1.78-.15-3.55-.33-5.33-.54a17.27,17.27,0,0,1-4.94-1,2.84,2.84,0,0,1-.9-.54c-.33-.35-.24-.9-.22-1.34l.08-2.64.17-5.4A196.37,196.37,0,0,1,31.3,45.55c.13-.85.26-1.7.41-2.55,0-.2-.19-.36-.34-.2a8.37,8.37,0,0,1-2.65,1.93,2.75,2.75,0,0,1-1.58.15,3.65,3.65,0,0,1-1.47-.8,31.25,31.25,0,0,1-4.76-4.79c-.37-.45-.71-.91-1.05-1.38a12.94,12.94,0,0,1-.93-1.39.82.82,0,0,1,0-.9,3.2,3.2,0,0,1,.6-.62l1.41-1.3,5.71-5.25,6.42-5.89c.19-.18-.1-.47-.29-.29Z" transform="translate(-5.8 -6.19)"/><path class="cls-2" d="M40,24.28c3.2,0,6.41.09,9.61.19l2.37.08c.79,0,1.6,0,2.39.1a1.73,1.73,0,0,1,1.46.91,2.49,2.49,0,0,1,.18,1.8,5.41,5.41,0,0,1-.89,1.82,8.25,8.25,0,0,1-1.2,1.38,8.88,8.88,0,0,1-3.08,1.88,8.72,8.72,0,0,1-7.19-.67c-2.13-1.21-4.06-3.53-3.87-6.12a4.14,4.14,0,0,1,.17-.92c.08-.25-.31-.36-.39-.11-.82,2.67.91,5.4,3,6.93a9.09,9.09,0,0,0,13.44-3,3.12,3.12,0,0,0-.22-3.69,2.73,2.73,0,0,0-1.91-.61l-2.53-.1q-5.06-.16-10.09-.23H40a.21.21,0,0,0,0,.41Z" transform="translate(-5.8 -6.19)"/></svg>