<svg id="_01" data-name="01" xmlns="http://www.w3.org/2000/svg" viewBox="0 0 242.59 572.54"><defs><style>.cls-1{fill:#fff;}.cls-2{fill:blue;}</style></defs><polygon class="cls-1" points="137.58 146.03 139.21 146.03 139.21 156.54 144.73 156.54 144.73 158.07 137.57 158.07 137.57 146.03 137.58 146.03"/><rect class="cls-1" x="148.1" y="146.03" width="1.63" height="12.04"/><path class="cls-1" d="M447.59,264.86v5.93a5.81,5.81,0,0,1-1,.48,10,10,0,0,1-1.17.35,8.65,8.65,0,0,1-1.22.21c-.41,0-.8.07-1.17.07a6.92,6.92,0,0,1-2.73-.51A5.9,5.9,0,0,1,437,268a6.74,6.74,0,0,1-.43-2.42,6.66,6.66,0,0,1,.47-2.5,6.19,6.19,0,0,1,1.29-2,5.8,5.8,0,0,1,2-1.33,6.52,6.52,0,0,1,2.53-.48,7.43,7.43,0,0,1,2.72.42,5.07,5.07,0,0,1,1.77,1.15l-1.16,1.24a4.33,4.33,0,0,0-1.58-1,5.39,5.39,0,0,0-1.75-.28,4.53,4.53,0,0,0-1.87.38,4.37,4.37,0,0,0-1.43,1,4.58,4.58,0,0,0-.92,1.52,5.2,5.2,0,0,0-.32,1.86,5,5,0,0,0,.36,1.9,4.76,4.76,0,0,0,1,1.52,4.48,4.48,0,0,0,1.48,1,4.7,4.7,0,0,0,1.85.37,7.87,7.87,0,0,0,1.64-.16,4.44,4.44,0,0,0,1.32-.47V266.4h-2.67v-1.53h4.3Z" transform="translate(-282.81 -113.53)"/><path class="cls-1" d="M453.68,259.56v7.38a4.8,4.8,0,0,0,.15,1.16,3.3,3.3,0,0,0,.51,1.11,2.76,2.76,0,0,0,.93.83,3.36,3.36,0,0,0,2.86,0,2.77,2.77,0,0,0,.93-.83,3.3,3.3,0,0,0,.51-1.11,4.8,4.8,0,0,0,.15-1.16v-7.38h1.63v7.63a4.89,4.89,0,0,1-.36,1.91,4.62,4.62,0,0,1-1,1.49,4.37,4.37,0,0,1-1.48,1,5.15,5.15,0,0,1-3.68,0,4.37,4.37,0,0,1-1.48-1,4.62,4.62,0,0,1-1-1.49,4.89,4.89,0,0,1-.36-1.91v-7.63Z" transform="translate(-282.81 -113.53)"/><polygon class="cls-1" points="183.13 146.03 184.76 146.03 184.76 156.54 190.29 156.54 190.29 158.07 183.13 158.07 183.13 146.03"/><path class="cls-1" d="M483.16,267.19l-2.24-5.53h0l-2.28,5.53Zm-2.93-7.63h1.48l5.15,12H485l-1.21-3H478l-1.19,3h-1.9Z" transform="translate(-282.81 -113.53)"/><path class="cls-1" d="M443.35,562.09a2.67,2.67,0,0,0,1.13,1,3.37,3.37,0,0,0,1.42.31,2.71,2.71,0,0,0,.83-.13,2.64,2.64,0,0,0,.77-.38,2.15,2.15,0,0,0,.57-.63,1.66,1.66,0,0,0,.22-.87,1.31,1.31,0,0,0-.44-1.06,3.71,3.71,0,0,0-1.1-.61c-.44-.17-.91-.32-1.43-.48a6.17,6.17,0,0,1-1.43-.64,3.5,3.5,0,0,1-1.1-1.1,3.46,3.46,0,0,1-.44-1.86,3.2,3.2,0,0,1,.23-1.12,3,3,0,0,1,.72-1.09,3.92,3.92,0,0,1,1.27-.82,4.76,4.76,0,0,1,1.86-.33,6.54,6.54,0,0,1,1.89.27,3.2,3.2,0,0,1,1.58,1.11l-1.33,1.21a2.26,2.26,0,0,0-.87-.77,2.8,2.8,0,0,0-1.28-.29,3.08,3.08,0,0,0-1.13.18,2,2,0,0,0-.72.46,1.64,1.64,0,0,0-.38.6,2,2,0,0,0-.11.59,1.52,1.52,0,0,0,.44,1.17,3.39,3.39,0,0,0,1.1.66,14.17,14.17,0,0,0,1.43.46,6.47,6.47,0,0,1,1.43.57,3.25,3.25,0,0,1,1.1,1,2.92,2.92,0,0,1,.44,1.71,3.57,3.57,0,0,1-.33,1.56,3.47,3.47,0,0,1-.89,1.17,4,4,0,0,1-1.33.73,5.11,5.11,0,0,1-1.63.25,6,6,0,0,1-2.19-.41,3.59,3.59,0,0,1-1.65-1.26Z" transform="translate(-282.81 -113.53)"/><path class="cls-1" d="M455.56,552.57V560a4.8,4.8,0,0,0,.15,1.16,3.3,3.3,0,0,0,.51,1.11,2.76,2.76,0,0,0,.93.83,3.36,3.36,0,0,0,2.86,0,2.77,2.77,0,0,0,.93-.83,3.3,3.3,0,0,0,.51-1.11,4.8,4.8,0,0,0,.15-1.16v-7.38h1.63v7.63a4.89,4.89,0,0,1-.36,1.91,4.62,4.62,0,0,1-1,1.49,4.37,4.37,0,0,1-1.48,1,5.15,5.15,0,0,1-3.68,0,4.37,4.37,0,0,1-1.48-1,4.62,4.62,0,0,1-1-1.49,4.89,4.89,0,0,1-.36-1.91v-7.63Z" transform="translate(-282.81 -113.53)"/><path class="cls-1" d="M476.2,555.17a3.41,3.41,0,0,0-1.29-1,3.82,3.82,0,0,0-1.62-.36,4.39,4.39,0,0,0-1.84.38,4.07,4.07,0,0,0-1.41,1.05,4.7,4.7,0,0,0-.91,1.55,5.71,5.71,0,0,0-.32,1.91,5.35,5.35,0,0,0,.3,1.8A4.68,4.68,0,0,0,470,562a4.16,4.16,0,0,0,1.41,1,4.59,4.59,0,0,0,1.89.37,3.79,3.79,0,0,0,1.82-.42,4,4,0,0,0,1.33-1.19l1.38,1a6.74,6.74,0,0,1-.48.54,5,5,0,0,1-.9.7,6.52,6.52,0,0,1-1.35.61,6.49,6.49,0,0,1-4.41-.28,6.28,6.28,0,0,1-2-1.43,6.08,6.08,0,0,1-1.23-2,6.31,6.31,0,0,1-.42-2.25,7,7,0,0,1,.46-2.58,6.1,6.1,0,0,1,1.28-2,5.67,5.67,0,0,1,2-1.33,6.58,6.58,0,0,1,2.55-.48,6.21,6.21,0,0,1,2.34.46,4.48,4.48,0,0,1,1.88,1.41Z" transform="translate(-282.81 -113.53)"/><polygon class="cls-1" points="198.67 439.03 200.3 439.03 200.3 444.23 200.44 444.23 205.76 439.03 208.04 439.03 202.23 444.59 208.44 451.07 206.06 451.07 200.45 445.05 200.31 445.05 200.31 451.07 198.68 451.07 198.68 439.03 198.67 439.03"/><polygon class="cls-1" points="211.39 439.03 219.16 439.03 219.16 440.56 213.02 440.56 213.02 444.15 218.73 444.15 218.73 445.68 213.02 445.68 213.02 449.54 219.46 449.54 219.46 451.07 211.38 451.07 211.38 439.03 211.39 439.03"/><path class="cls-1" d="M507.92,557.87h2.14a5.86,5.86,0,0,0,.94-.08,2.39,2.39,0,0,0,.83-.28,1.59,1.59,0,0,0,.59-.59,1.94,1.94,0,0,0,.22-1,2,2,0,0,0-.22-1,1.59,1.59,0,0,0-.59-.59,2.39,2.39,0,0,0-.83-.28,6,6,0,0,0-.94-.08h-2.14Zm-1.64-5.3h4.23a4.9,4.9,0,0,1,1.9.31,3.36,3.36,0,0,1,1.18.8,2.67,2.67,0,0,1,.6,1.09,4.41,4.41,0,0,1,.17,1.17,3,3,0,0,1-.21,1.11,2.94,2.94,0,0,1-.59,1,3.29,3.29,0,0,1-.94.73,3.33,3.33,0,0,1-1.23.37l3.42,5.49h-2l-3.06-5.3h-1.82v5.3h-1.63v-12Z" transform="translate(-282.81 -113.53)"/><path class="cls-1" d="M518.73,562.09a2.67,2.67,0,0,0,1.13,1,3.37,3.37,0,0,0,1.42.31,2.71,2.71,0,0,0,.83-.13,2.64,2.64,0,0,0,.77-.38,2.15,2.15,0,0,0,.57-.63,1.66,1.66,0,0,0,.22-.87,1.31,1.31,0,0,0-.44-1.06,3.71,3.71,0,0,0-1.1-.61c-.44-.17-.91-.32-1.43-.48a6.17,6.17,0,0,1-1.43-.64,3.5,3.5,0,0,1-1.1-1.1,3.46,3.46,0,0,1-.44-1.86,3.2,3.2,0,0,1,.23-1.12,3,3,0,0,1,.72-1.09,3.92,3.92,0,0,1,1.27-.82,4.76,4.76,0,0,1,1.86-.33,6.54,6.54,0,0,1,1.89.27,3.2,3.2,0,0,1,1.58,1.11L524,554.85a2.26,2.26,0,0,0-.87-.77,2.77,2.77,0,0,0-1.28-.29,3.08,3.08,0,0,0-1.13.18,2,2,0,0,0-.72.46,1.64,1.64,0,0,0-.38.6,2,2,0,0,0-.11.59,1.52,1.52,0,0,0,.44,1.17,3.39,3.39,0,0,0,1.1.66,14.17,14.17,0,0,0,1.43.46,6.47,6.47,0,0,1,1.43.57,3.25,3.25,0,0,1,1.1,1,2.92,2.92,0,0,1,.44,1.71,3.57,3.57,0,0,1-.33,1.56,3.47,3.47,0,0,1-.89,1.17,3.89,3.89,0,0,1-1.33.73,5.11,5.11,0,0,1-1.63.25,6,6,0,0,1-2.19-.41,3.59,3.59,0,0,1-1.65-1.26Z" transform="translate(-282.81 -113.53)"/><path class="cls-1" d="M429.92,425.17a3.41,3.41,0,0,0-1.29-1,3.82,3.82,0,0,0-1.62-.36,4.39,4.39,0,0,0-1.84.38,4.07,4.07,0,0,0-1.41,1.05,4.7,4.7,0,0,0-.91,1.55,5.71,5.71,0,0,0-.32,1.91,5.35,5.35,0,0,0,.3,1.8,4.68,4.68,0,0,0,.88,1.5,4.16,4.16,0,0,0,1.41,1,4.59,4.59,0,0,0,1.89.37,3.79,3.79,0,0,0,1.82-.42,4,4,0,0,0,1.33-1.19l1.38,1a6.74,6.74,0,0,1-.48.54,5,5,0,0,1-.9.7,6.52,6.52,0,0,1-1.35.61,6.49,6.49,0,0,1-4.41-.28,6.28,6.28,0,0,1-2-1.43,6.08,6.08,0,0,1-1.23-2,6.31,6.31,0,0,1-.42-2.25,7,7,0,0,1,.46-2.58,6.1,6.1,0,0,1,1.28-2,5.67,5.67,0,0,1,2-1.33,6.58,6.58,0,0,1,2.55-.48,6.21,6.21,0,0,1,2.34.46,4.48,4.48,0,0,1,1.88,1.41Z" transform="translate(-282.81 -113.53)"/><path class="cls-1" d="M441.9,430.2l-2.24-5.53h0l-2.28,5.53ZM439,422.57h1.48l5.15,12h-1.9l-1.21-3h-5.73l-1.19,3h-1.9Z" transform="translate(-282.81 -113.53)"/><polygon class="cls-1" points="166.06 309.03 167.69 309.03 167.69 319.54 173.21 319.54 173.21 321.07 166.05 321.07 166.05 309.03 166.06 309.03"/><path class="cls-1" d="M466.09,430.2l-2.24-5.53h0l-2.28,5.53Zm-2.92-7.63h1.48l5.15,12h-1.9l-1.21-3H461l-1.19,3h-1.9Z" transform="translate(-282.81 -113.53)"/><polygon class="cls-1" points="190.13 309.03 192.56 309.03 196.38 318.14 196.45 318.14 200.24 309.03 202.67 309.03 202.67 321.07 201.04 321.07 201.04 311.18 201.01 311.18 196.95 321.07 195.86 321.07 191.8 311.18 191.77 311.18 191.77 321.07 190.14 321.07 190.14 309.03 190.13 309.03"/><path class="cls-1" d="M491.57,422.57V430a4.8,4.8,0,0,0,.15,1.16,3.3,3.3,0,0,0,.51,1.11,2.76,2.76,0,0,0,.93.83,3.36,3.36,0,0,0,2.86,0,2.77,2.77,0,0,0,.93-.83,3.3,3.3,0,0,0,.51-1.11,4.8,4.8,0,0,0,.15-1.16v-7.38h1.63v7.63a4.89,4.89,0,0,1-.36,1.91,4.62,4.62,0,0,1-1,1.49,4.37,4.37,0,0,1-1.48,1,5.15,5.15,0,0,1-3.68,0,4.37,4.37,0,0,1-1.48-1,4.62,4.62,0,0,1-1-1.49,4.89,4.89,0,0,1-.36-1.91v-7.63Z" transform="translate(-282.81 -113.53)"/><path class="cls-1" d="M504.19,432.09a2.67,2.67,0,0,0,1.13,1,3.37,3.37,0,0,0,1.42.31,2.71,2.71,0,0,0,.83-.13,2.64,2.64,0,0,0,.77-.38,2.15,2.15,0,0,0,.57-.63,1.66,1.66,0,0,0,.22-.87,1.31,1.31,0,0,0-.44-1.06,3.71,3.71,0,0,0-1.1-.61c-.44-.17-.91-.32-1.43-.48a6.17,6.17,0,0,1-1.43-.64,3.5,3.5,0,0,1-1.1-1.1,3.46,3.46,0,0,1-.44-1.86,3.2,3.2,0,0,1,.23-1.12,3,3,0,0,1,.72-1.09,3.92,3.92,0,0,1,1.27-.82,4.72,4.72,0,0,1,1.86-.33,6.54,6.54,0,0,1,1.89.27,3.2,3.2,0,0,1,1.58,1.11l-1.33,1.21a2.19,2.19,0,0,0-.87-.77,2.8,2.8,0,0,0-1.28-.29,3.08,3.08,0,0,0-1.13.18,2,2,0,0,0-.72.46,1.64,1.64,0,0,0-.38.6,2,2,0,0,0-.11.59,1.52,1.52,0,0,0,.44,1.17,3.39,3.39,0,0,0,1.1.66,14.17,14.17,0,0,0,1.43.46,6.47,6.47,0,0,1,1.43.57,3.25,3.25,0,0,1,1.1,1,2.92,2.92,0,0,1,.44,1.71,3.57,3.57,0,0,1-.33,1.56,3.47,3.47,0,0,1-.89,1.17,4,4,0,0,1-1.33.73,5.11,5.11,0,0,1-1.63.25,6,6,0,0,1-2.19-.41,3.59,3.59,0,0,1-1.65-1.26Z" transform="translate(-282.81 -113.53)"/><path class="cls-2" d="M298,680.69c-5.12-18.12-3.31-37,.27-55.17s8.68-36.32,11.2-54.87c2.59-18.95,3.5-38.13,4.79-57.2q2-29.15,3.92-58.31c2.55-38.79,4.09-77.58-.07-116.3-4.05-37.75-12.15-74.91-20.18-112-3.83-17.7-8.1-35.44-10.82-53.34-2.39-15.7-3.32-32.6,2.61-47.66a52.34,52.34,0,0,1,5.74-10.65h-1.94c5.2,8.59.37,19.23-1.11,28.24a88.22,88.22,0,0,0-.21,26.9A89.45,89.45,0,0,0,300,196.24a85.52,85.52,0,0,0,7,12c2.73,3.9,5.9,7.52,8.19,11.72a17.47,17.47,0,0,1,2.38,7.72,15.09,15.09,0,0,0,0,3.43,41,41,0,0,0,1.56,4.07c1.1,2.86,2.91,6.1,3.12,9.17a14.8,14.8,0,0,1-2.53,9.12c-.74,1.14.84,2.12,1.77,1.36l5.24-4.27-1.92-.79c.28,3.13.55,6.26.83,9.4a1.14,1.14,0,0,0,1.92.8c1.32-1.35,2.65-2.68,4-4-.64-.28-1.28-.54-1.92-.8q-.37,7.56-.76,15.12a1.14,1.14,0,0,0,1.92.8l4.85-5.88-1.88-.5a85.55,85.55,0,0,1,1.29,21.07,1.14,1.14,0,0,0,1.92.79c1.59-1.41,3.18-2.84,4.77-4.27-.64-.26-1.28-.52-1.92-.8q-1.31,10.75-2.61,21.49c-.15,1.22,1.54,1.38,2.1.57l5.61-8.19-2.1-.58q-1,11.14-2,22.26c-.09,1,1.27,1.42,1.92.8,2.25-2.16,4.51-4.31,6.76-6.48-.64-.27-1.28-.52-1.92-.8a60,60,0,0,1-2.43,15.95c-.3,1,1.14,2,1.88,1.08l3.59-4.31c-.64-.26-1.28-.52-1.92-.8,1.24,11.6,3.69,23,5.76,34.45,2.14,11.81,4,23.68,5.6,35.58,3.28,23.89,5.78,47.88,8.45,71.83,2.62,23.42,5.4,46.81,9.25,70.05,3.9,23.57,9.61,46.72,14.62,70.06,5.65,26.29,9.88,53.32,6.23,80.21-.19,1.42,2,2,2.17.6,6.39-47.11-10.25-93.15-18.66-138.92-8.74-47.54-12.31-95.8-18.47-143.7-1.69-13.11-3.56-26.18-5.78-39.22-2.33-13.64-5.45-27.18-6.93-40.94-.09-.87-1.23-1.64-1.92-.81L345.47,326l1.88,1.1a62.7,62.7,0,0,0,2.52-16.54,1.14,1.14,0,0,0-1.92-.8l-6.76,6.49,1.92.8q1-11.13,2-22.26c.11-1.21-1.53-1.41-2.1-.57-1.87,2.72-3.74,5.47-5.61,8.2l2.1.56,2.61-21.48c.13-1.06-1.27-1.38-1.92-.81L335.44,285l1.92.79A87.4,87.4,0,0,0,336,264.08a1.13,1.13,0,0,0-1.88-.5l-4.85,5.88c.64.27,1.28.52,1.92.8.25-5,.51-10.09.76-15.12a1.14,1.14,0,0,0-1.92-.8l-4,4c.64.26,1.28.52,1.92.8-.28-3.13-.55-6.26-.83-9.41a1.14,1.14,0,0,0-1.92-.79c-1.75,1.41-3.49,2.84-5.24,4.26l1.77,1.35c2.29-3.52,3.63-8.21,2.56-12.4a75.61,75.61,0,0,0-3.12-8.13,19.14,19.14,0,0,1-1.3-3.7c-.19-1.17,0-2.36-.08-3.55-.8-9.27-9-16.43-13.62-24a86.6,86.6,0,0,1-11.65-58.75c1.59-9.69,6.48-20.71.88-30a1.13,1.13,0,0,0-1.94,0c-18.88,27.34-8.23,64.29-1.93,94,8.06,37.92,16.95,75.73,22.24,114.17a493,493,0,0,1,4.68,58.72c.34,19.69-.46,39.38-1.61,59s-2.57,39.27-3.89,58.9-2.31,39.2-4.25,58.72S302.4,595.9,298.17,615c-3.9,17.57-7.22,35.74-4.93,53.78a86,86,0,0,0,2.56,12.52A1.13,1.13,0,0,0,298,680.69Z" transform="translate(-282.81 -113.53)"/><path class="cls-2" d="M296.84,208a2.09,2.09,0,0,0,.06,1.08,2.18,2.18,0,0,0,.62.93,2.38,2.38,0,0,0,2.14.53,3.44,3.44,0,0,0,2.18-4.71,2.81,2.81,0,0,0-1.15-1.24,2.7,2.7,0,0,0-3.28.31,2.59,2.59,0,0,0-.07,3.58,1.12,1.12,0,1,0,1.59-1.59.46.46,0,0,1-.07-.07l.09.12a.64.64,0,0,0-.08-.14c0-.06.11.31,0,.07a1.16,1.16,0,0,1,0-.18c0,.1,0,.2,0,.3a1.55,1.55,0,0,1,0-.43c0,.1,0,.2,0,.3a1.29,1.29,0,0,1,0-.19l0-.12c0-.11-.12.23-.06.13l.09-.17a.35.35,0,0,0,0-.08c.05-.09-.2.22-.07.1s.13-.14.14-.13-.25.16-.11.09l.08-.05c.13-.08-.13.05-.13.05s.1,0,.12,0l.23,0-.3,0h.42l-.3,0a1.22,1.22,0,0,1,.26.06l.13,0c.13,0-.26-.13-.1,0l.23.13c.15.09-.17-.16-.08-.06l.1.09a.6.6,0,0,1,.08.08c.09.09.08.17,0-.06l.13.2c.1.19,0-.07,0-.08s0,.12,0,.14.05.21.07.32c0-.1,0-.2,0-.3a2.41,2.41,0,0,1,0,.6c0-.1,0-.2,0-.3l-.06.3-.06.17c0,.15.05-.08.05-.1s-.1.2-.14.27l-.1.15c-.11.16.14-.16.05-.06a2.39,2.39,0,0,1-.22.23l-.05,0,.1-.08a.6.6,0,0,0-.13.09l-.14.08c-.17.09.19-.06.06,0l-.34.08.3,0h-.32l.3,0-.16,0c-.05,0-.21-.08,0,0s0,0,0,0-.06,0,0,0,.09.07,0,0l-.1-.1c-.09-.09.15.23.06.07l0-.07c0-.08,0,0,.06.14a.94.94,0,0,0,0-.16c0,.1,0,.2,0,.3a1.55,1.55,0,0,1,0-.22c0,.1,0,.2,0,.3a.43.43,0,0,1,0-.05,1.31,1.31,0,0,0-.11-.87,1.16,1.16,0,0,0-.67-.52,1.15,1.15,0,0,0-.87.11A1.35,1.35,0,0,0,296.84,208Z" transform="translate(-282.81 -113.53)"/><path class="cls-2" d="M303,220.88a5,5,0,0,1,.54-.89l-.18.23a4.55,4.55,0,0,1,.82-.82l-.23.18a3,3,0,0,1,.59-.36l-.27.11a1.78,1.78,0,0,1,.33-.09l-.3,0h.22l-.3,0,.16,0-.27-.11.14.08-.23-.18a.71.71,0,0,1,.15.15L304,219a1.51,1.51,0,0,1,.15.28c0-.09-.08-.18-.11-.27a9.23,9.23,0,0,1,.45,2c0-.1,0-.2,0-.3,0,.32.07.65.09,1a1.12,1.12,0,0,0,2.24,0,16.39,16.39,0,0,0-.25-2A5.32,5.32,0,0,0,306,218a1.9,1.9,0,0,0-2.24-.81,4.14,4.14,0,0,0-1.6,1.07,5.61,5.61,0,0,0-1.1,1.55,1.2,1.2,0,0,0-.11.87,1.12,1.12,0,0,0,.52.67A1.17,1.17,0,0,0,303,220.88Z" transform="translate(-282.81 -113.53)"/><path class="cls-2" d="M306.23,233.33q.13-.26-.27.24c-.19.07-.23.08-.12.05a.44.44,0,0,1-.28,0c-.11,0-.12,0,0,0a.66.66,0,0,1-.29-.17c.08.09.07.06,0-.07a.21.21,0,0,0,0,.06c0,.11,0,.08,0-.07,0,0,.12.48.13.53.05.23,0-.23,0,.08,0,.1,0,.2,0,.29a5.81,5.81,0,0,1,0,.59,1.06,1.06,0,0,0,0,.25c0-.16,0-.18,0-.05l0,.17q-.06.28-.15.57a2.25,2.25,0,0,0-.08.24c-.05.12,0,.1,0,0l-.07.15a1.15,1.15,0,0,0,.18,1.36,1.17,1.17,0,0,0,1.36.18s.13,0,.17-.09c-.16.07-.21.09-.12.06l.09,0,.15,0c.19,0,0,0-.08,0,.1,0,.26,0,.37,0s-.21-.06-.08,0l.18,0,.15.05c.21.06-.23-.12,0,0l.29.18c.11.07-.19-.18-.06,0l.13.13c.15.15-.13-.22,0,0l.1.16a1.13,1.13,0,0,0,1.54.4,1.15,1.15,0,0,0,.4-1.54,3.21,3.21,0,0,0-4.3-1.18l1.54,1.54a6.48,6.48,0,0,0,.56-3.9,2.4,2.4,0,0,0-1-1.76,1.63,1.63,0,0,0-2.25.55,1.15,1.15,0,0,0,.4,1.54A1.13,1.13,0,0,0,306.23,233.33Z" transform="translate(-282.81 -113.53)"/><path class="cls-2" d="M291.39,189.52a4.57,4.57,0,0,0-.1,1,6.18,6.18,0,0,0,.07.62,1.89,1.89,0,0,0,.09.34,2.92,2.92,0,0,0,.25.54,2.61,2.61,0,0,0,.37.44,2,2,0,0,0,.48.33,2.32,2.32,0,0,0,.82.22,2.35,2.35,0,0,0,.59,0,2.06,2.06,0,0,0,.54-.2,1.82,1.82,0,0,0,.48-.34,2.27,2.27,0,0,0,.37-.44.54.54,0,0,0,.07-.13,2.78,2.78,0,0,0,.16-.4,3.21,3.21,0,0,0,.07-.43.54.54,0,0,0,0-.18,2.29,2.29,0,0,0-.23-.85,2.2,2.2,0,0,0-.35-.51.93.93,0,0,0-.14-.14,2.66,2.66,0,0,0-.38-.28,3.17,3.17,0,0,0-.42-.19l-.19-.05a1.56,1.56,0,0,0-1.28.2,3.17,3.17,0,0,0-.46.51.77.77,0,0,0-.23.36.91.91,0,0,0-.1.43,1.13,1.13,0,0,0,1.13,1.13,1.09,1.09,0,0,0,.8-.33l.35-.42-.5.29h0l-.3,0h.23l-.3,0a.92.92,0,0,1,.27.08l-.27-.11a1,1,0,0,1,.24.15l-.23-.18.2.2-.18-.23a1.23,1.23,0,0,1,.14.25c0-.09-.08-.18-.11-.27a2.17,2.17,0,0,1,.07.24c0-.1,0-.2,0-.3a.89.89,0,0,1,0,.23c0-.1,0-.2,0-.3a.79.79,0,0,1-.06.22c0-.09.08-.18.11-.27a.74.74,0,0,1-.13.21l.18-.23a1,1,0,0,1-.18.18l.23-.18a1.35,1.35,0,0,1-.26.15l.27-.11a1,1,0,0,1-.29.08l.3,0a1.22,1.22,0,0,1-.27,0l.3,0a.9.9,0,0,1-.22-.06l.27.11a1,1,0,0,1-.22-.13l.23.18a1,1,0,0,1-.18-.18l.18.23a1.69,1.69,0,0,1-.17-.29c0,.09.08.18.11.27a2.12,2.12,0,0,1-.12-.45c0,.1,0,.2,0,.3a2.55,2.55,0,0,1,0-.73c0,.1,0,.2,0,.3l0-.19a1.2,1.2,0,0,0-.11-.87,1.16,1.16,0,0,0-.67-.52,1.15,1.15,0,0,0-.87.11A1.09,1.09,0,0,0,291.39,189.52Z" transform="translate(-282.81 -113.53)"/><path class="cls-2" d="M289.47,180a3.36,3.36,0,0,0,.54,1.47,2,2,0,0,0,.78.7,2,2,0,0,0,1.33.14,2,2,0,0,0,1.37-1.5,2.81,2.81,0,0,0-.25-2c-.28-.55-.74-1-1-1.57,0,.09.08.18.11.27a1.72,1.72,0,0,1-.07-.21,1.16,1.16,0,0,0-.52-.67,1.25,1.25,0,0,0-.87-.11,2,2,0,0,0-1.42,1.4,2.06,2.06,0,0,0,0,.89,1.09,1.09,0,0,0,.52.67,1.15,1.15,0,0,0,.87.11,1.19,1.19,0,0,0,.67-.53,1.31,1.31,0,0,0,.11-.87.09.09,0,0,0,0,0c0,.1,0,.2,0,.3v-.15c0,.1,0,.2,0,.3a1.05,1.05,0,0,1,.06-.24c0,.09-.08.18-.11.27l.1-.17-.18.23.14-.14-.23.18a.88.88,0,0,1,.21-.12l-.27.11.14,0-1.38-.79a4.1,4.1,0,0,0,.63,1.23,5.45,5.45,0,0,1,.61,1c0-.09-.08-.18-.11-.27a1.56,1.56,0,0,1,.1.37c0-.1,0-.2,0-.3a1.55,1.55,0,0,1,0,.43c0-.1,0-.2,0-.3a1.61,1.61,0,0,1-.1.36c0-.09.08-.18.11-.27a1.49,1.49,0,0,1-.14.24l.18-.23a.8.8,0,0,1-.13.13l.23-.18a.51.51,0,0,1-.16.09l.27-.11-.18,0,.3,0h-.21l.3,0-.16,0,.27.11-.21-.12.23.18a1,1,0,0,1-.17-.18l.18.23a1.87,1.87,0,0,1-.22-.39c0,.09.08.18.11.27a3.22,3.22,0,0,1-.21-.81,1.09,1.09,0,0,0-.52-.67,1.15,1.15,0,0,0-.87-.11,1.16,1.16,0,0,0-.67.52A1.44,1.44,0,0,0,289.47,180Z" transform="translate(-282.81 -113.53)"/><path class="cls-2" d="M313.25,241.67a21.6,21.6,0,0,1,2-5.32,26.08,26.08,0,0,1,1.54-2.43c.27-.37.55-.7.85-1.06-.28,0-.32,0-.12.13l.15.16a2.42,2.42,0,0,1,.38.51c.9,1.55.76,3.65.67,5.37a56.38,56.38,0,0,1-.93,6.71c-.25,1.43,1.91,2,2.17.61a54.13,54.13,0,0,0,1.05-8.3c.05-2.24-.11-4.89-1.82-6.57a2.15,2.15,0,0,0-3.2-.13,19.13,19.13,0,0,0-2.13,2.94,23.54,23.54,0,0,0-2.81,6.77C310.73,242.47,312.9,243.08,313.25,241.67Z" transform="translate(-282.81 -113.53)"/><path class="cls-2" d="M310.74,229.11q2.76-4.16,5.59-8.27l-2.06-.27a16.93,16.93,0,0,1-2.21,11.55,1.13,1.13,0,0,0,1.94,1.14A19.35,19.35,0,0,0,316.44,220c-.18-1-1.56-1-2.06-.27q-2.82,4.11-5.59,8.27C308,229.19,309.94,230.32,310.74,229.11Z" transform="translate(-282.81 -113.53)"/><path class="cls-2" d="M326.38,257.69a62.66,62.66,0,0,0-4,12.67c-.29,1.41,1.88,2,2.17.6a59.92,59.92,0,0,1,3.8-12.13,1.17,1.17,0,0,0-.4-1.54A1.14,1.14,0,0,0,326.38,257.69Z" transform="translate(-282.81 -113.53)"/><path class="cls-2" d="M320.34,253q-1.18,3.81-2,7.69a1.13,1.13,0,0,0,2.17.6c.54-2.6,1.2-5.17,2-7.69a1.13,1.13,0,0,0-2.17-.6Z" transform="translate(-282.81 -113.53)"/><path class="cls-2" d="M327.84,269a129.93,129.93,0,0,0-1.91,13.16,1.12,1.12,0,0,0,1.12,1.12,1.14,1.14,0,0,0,1.12-1.12A126.23,126.23,0,0,1,330,269.62C330.29,268.2,328.12,267.6,327.84,269Z" transform="translate(-282.81 -113.53)"/><path class="cls-2" d="M321.81,279.16a5.84,5.84,0,0,0-1.93-.71,2.3,2.3,0,0,0-1.51.12,1.6,1.6,0,0,0-.77,1.22,4.13,4.13,0,0,0,.08,1.16c.05.33.1.65.17,1a15.34,15.34,0,0,0,.51,1.91,1.12,1.12,0,0,0,2.17-.59,16.94,16.94,0,0,1-.69-3c0,.1,0,.2,0,.3a3.39,3.39,0,0,1-.05-.64c0,.1,0,.2,0,.3,0-.14.12-.26,0,0a.75.75,0,0,1-.46.35l.12,0-.3,0a1.22,1.22,0,0,1,.33,0l-.3,0a4.53,4.53,0,0,1,.9.21l.2.07c.22.08-.2-.1,0,0l.44.23a1.14,1.14,0,0,0,1.54-.4A1.17,1.17,0,0,0,321.81,279.16Z" transform="translate(-282.81 -113.53)"/><path class="cls-2" d="M320.06,269.06a2.43,2.43,0,0,0-2.79-1.07,2.08,2.08,0,0,0-.68.3,2.7,2.7,0,0,0-.72.71,2.6,2.6,0,0,0-.36.75,3.26,3.26,0,0,0,.34,2.6,1.24,1.24,0,0,0,.67.52,1.2,1.2,0,0,0,.87-.11,1.16,1.16,0,0,0,.52-.67,1.2,1.2,0,0,0-.11-.87c-.05-.09-.1-.18-.14-.27,0,.09.08.18.11.27a2.46,2.46,0,0,1-.16-.59c0,.1,0,.2,0,.3a2.18,2.18,0,0,1,0-.57c0,.1,0,.2,0,.3a1.88,1.88,0,0,1,.12-.45c0,.09-.08.18-.11.27a2.22,2.22,0,0,1,.21-.37l-.18.23a1.25,1.25,0,0,1,.23-.23l-.23.18a1.92,1.92,0,0,1,.31-.18l-.27.11a1.7,1.7,0,0,1,.37-.1l-.3,0a1.41,1.41,0,0,1,.41,0l-.3,0a1.89,1.89,0,0,1,.34.09l-.27-.11a.92.92,0,0,1,.27.16l-.23-.18.19.19L318,270a.86.86,0,0,1,.1.16,1.16,1.16,0,0,0,.67.52,1.2,1.2,0,0,0,.87-.11A1.15,1.15,0,0,0,320.06,269.06Z" transform="translate(-282.81 -113.53)"/><path class="cls-2" d="M317.85,260.5a8.34,8.34,0,0,0-1.25-1.2,3.73,3.73,0,0,0-2.14-1.06A1.71,1.71,0,0,0,313,259a3.23,3.23,0,0,0-.4,1,6.7,6.7,0,0,0-.21,2.09,1.2,1.2,0,0,0,.33.8,1.15,1.15,0,0,0,.8.33,1.14,1.14,0,0,0,1.12-1.12,5.65,5.65,0,0,1,0-1.09c0,.1,0,.2,0,.3a5.64,5.64,0,0,1,.3-1.21c0,.09-.08.18-.11.27a.94.94,0,0,1,.12-.22l-.18.23.1-.11-.23.18a.57.57,0,0,1,.13-.08l-.27.11.11,0-.3,0h.17l-.3,0a.9.9,0,0,1,.28.08l-.27-.11a5,5,0,0,1,1,.65l-.23-.18a8.36,8.36,0,0,1,1.25,1.2,1.13,1.13,0,0,0,1.93-.8A1.25,1.25,0,0,0,317.85,260.5Z" transform="translate(-282.81 -113.53)"/><path class="cls-2" d="M314.31,252.14a1,1,0,0,0,0-.3,2.14,2.14,0,0,0-.11-.56,2.84,2.84,0,0,0-.57-1,2.53,2.53,0,0,0-.68-.54,2.75,2.75,0,0,0-1.08-.32,2.31,2.31,0,0,0-1.75.62,2.48,2.48,0,0,0-.5.62,2.54,2.54,0,0,0-.29.75,2.5,2.5,0,0,0,.32,1.94,1.25,1.25,0,0,0,.67.52,1.2,1.2,0,0,0,.87-.11,1.16,1.16,0,0,0,.52-.67,1.15,1.15,0,0,0-.11-.87.92.92,0,0,1-.13-.24c0,.09.08.18.11.27a1.07,1.07,0,0,1-.09-.34c0,.1,0,.2,0,.3a1.7,1.7,0,0,1,0-.39c0,.1,0,.2,0,.3a1.91,1.91,0,0,1,.11-.41c0,.09-.08.18-.11.27a2.71,2.71,0,0,1,.21-.37l-.18.23a1.48,1.48,0,0,1,.25-.25l-.23.18a1.12,1.12,0,0,1,.28-.16l-.27.11a1.29,1.29,0,0,1,.28-.08l-.3,0a1.22,1.22,0,0,1,.33,0l-.3,0a1.61,1.61,0,0,1,.36.1l-.27-.11a1.51,1.51,0,0,1,.35.2l-.23-.18a1.52,1.52,0,0,1,.31.31l-.18-.23a2.07,2.07,0,0,1,.19.32c0-.09-.08-.18-.11-.27a1.68,1.68,0,0,1,.09.32c0-.1,0-.2,0-.3a1.51,1.51,0,0,1,0,.3,1.11,1.11,0,0,0,.33.8,1.13,1.13,0,0,0,1.6,0A1.24,1.24,0,0,0,314.31,252.14Z" transform="translate(-282.81 -113.53)"/><path class="cls-2" d="M313.15,244.26a2.12,2.12,0,0,0-.52-.83,2.49,2.49,0,0,0-.84-.51,2.55,2.55,0,0,0-.73-.14h-.22a3.12,3.12,0,0,0-.52.08,2.3,2.3,0,0,0-1.37,1,2.16,2.16,0,0,0-.29.74,3.07,3.07,0,0,0-.06.52,3.55,3.55,0,0,0,.06.56,2.59,2.59,0,0,0,.83,1.52,1.18,1.18,0,0,0,.8.33,1.13,1.13,0,0,0,1.13-1.13,1.09,1.09,0,0,0-.33-.8,2.39,2.39,0,0,1-.22-.23l.18.23a1.51,1.51,0,0,1-.2-.35c0,.09.08.18.11.27a1.69,1.69,0,0,1-.12-.44c0,.1,0,.2,0,.3a1.55,1.55,0,0,1,0-.43c0,.1,0,.2,0,.3a2,2,0,0,1,.09-.35c0,.09-.08.18-.11.27a1.22,1.22,0,0,1,.17-.29l-.18.23.2-.2-.23.18A1.1,1.1,0,0,1,311,245l-.27.11a2,2,0,0,1,.33-.09l-.3,0h.37l-.3,0a2,2,0,0,1,.33.09l-.27-.11a.92.92,0,0,1,.27.16L311,245l.17.17-.18-.23a.72.72,0,0,1,.12.21c0-.09-.08-.18-.11-.27v0a.78.78,0,0,0,.2.38.82.82,0,0,0,.32.29,1.15,1.15,0,0,0,.87.11,1.16,1.16,0,0,0,.67-.52A1,1,0,0,0,313.15,244.26Z" transform="translate(-282.81 -113.53)"/><path class="cls-2" d="M305.73,227s0-.08,0-.11,0,.2,0,.3a3.66,3.66,0,0,1,0-.81c0,.1,0,.2,0,.3a3,3,0,0,1,.22-.78c0,.09-.08.18-.11.27a3.06,3.06,0,0,1,.37-.63l-.18.23,0,0-1.77-.23a13.67,13.67,0,0,1,1.06,1.91,1.16,1.16,0,0,0,.67.52,1.2,1.2,0,0,0,.87-.11,1.16,1.16,0,0,0,.52-.67c0-.1,0-.2,0-.3a1.16,1.16,0,0,0-.15-.57,14.26,14.26,0,0,0-1.06-1.91,1.14,1.14,0,0,0-.82-.54.86.86,0,0,0-.45,0,1.1,1.1,0,0,0-.5.29,3.77,3.77,0,0,0-.5.75,4,4,0,0,0-.33.87,4.39,4.39,0,0,0-.05,1.84,1.12,1.12,0,0,0,.52.67,1.15,1.15,0,0,0,.87.11,1.16,1.16,0,0,0,.67-.52c0-.09.08-.18.11-.27A1,1,0,0,0,305.73,227Z" transform="translate(-282.81 -113.53)"/><path class="cls-2" d="M301.58,212.12l.35,0-.3,0a2.28,2.28,0,0,1,.63.18l-.27-.11a2.65,2.65,0,0,1,.6.36l-.23-.18a2.9,2.9,0,0,1,.52.53l-.18-.23a3,3,0,0,1,.35.6c0-.09-.08-.18-.11-.27a2.66,2.66,0,0,1,.17.63c0-.1,0-.2,0-.3a2.44,2.44,0,0,1,0,.47,1.13,1.13,0,0,0,1.93.8,1.25,1.25,0,0,0,.33-.8,3.82,3.82,0,0,0-3.76-3.9,1.12,1.12,0,1,0,0,2.24Z" transform="translate(-282.81 -113.53)"/><path class="cls-2" d="M297,198.76a4.86,4.86,0,0,1,.58-.53l-.23.18a4.69,4.69,0,0,1,.86-.52l-1.54-.4.06.14c0-.09-.08-.18-.11-.27a4.25,4.25,0,0,1,.28,1.06c0-.1,0-.2,0-.3a4.58,4.58,0,0,1,0,1,1.13,1.13,0,0,0,1.93.8l.18-.23a1.13,1.13,0,0,0,.15-.57,5.14,5.14,0,0,0-.07-1.41,5.2,5.2,0,0,0-.44-1.33,1.16,1.16,0,0,0-.67-.52l-.3,0a1.16,1.16,0,0,0-.57.15,5.53,5.53,0,0,0-1.66,1.22,1.2,1.2,0,0,0-.33.8,1.13,1.13,0,0,0,1.13,1.13A1.23,1.23,0,0,0,297,198.76Z" transform="translate(-282.81 -113.53)"/><path class="cls-2" d="M289.62,172.22a1.13,1.13,0,0,0,0-2.25A1.13,1.13,0,0,0,289.62,172.22Z" transform="translate(-282.81 -113.53)"/><path class="cls-2" d="M337.33,284.43a46.25,46.25,0,0,0-3.45,5.62c-.94,1.81-1.7,3.71-2.69,5.5a13.56,13.56,0,0,1-1.57,2.35c-.65.75-1.49,1.32-2.1,2.11-1.33,1.69-.92,3.84-.35,5.74a1.13,1.13,0,0,0,2.17-.6,7.19,7.19,0,0,1-.46-2.67c.1-1.07.95-1.6,1.67-2.28a16,16,0,0,0,3.07-4.39,76.88,76.88,0,0,1,5.68-10.24C340.11,284.38,338.16,283.25,337.33,284.43Z" transform="translate(-282.81 -113.53)"/><path class="cls-2" d="M322.86,297.88a11,11,0,0,0,.44-3.94l-2.1.57a8.74,8.74,0,0,0,1.72,2,9,9,0,0,0,2.45,1.44,1.13,1.13,0,0,0,1.28-1.65,1.38,1.38,0,0,0-.67-.52l.07,0-.11,0-.25-.12a4.53,4.53,0,0,1-.48-.27c-.16-.09-.31-.2-.46-.3l-.1-.07s-.19-.14,0,0,0,0,0,0l-.12-.1a6.82,6.82,0,0,1-.77-.75l-.18-.21-.1-.12.06.08q-.18-.24-.33-.48a1.16,1.16,0,0,0-1.27-.52,1.14,1.14,0,0,0-.83,1.08A10.91,10.91,0,0,1,321,296c0-.1,0-.2,0-.3a10.58,10.58,0,0,1-.34,1.58,1.13,1.13,0,0,0,.79,1.38A1.09,1.09,0,0,0,322.86,297.88Z" transform="translate(-282.81 -113.53)"/><path class="cls-2" d="M337.27,300.49a54.06,54.06,0,0,0-4.9,8.68c-1.33,2.82-3.24,6-2.34,9.24a1.13,1.13,0,0,0,2.17-.6,6.54,6.54,0,0,1,.65-4.31c.58-1.36,1.23-2.7,1.86-4a50.35,50.35,0,0,1,4.5-7.84C340.06,300.45,338.11,299.33,337.27,300.49Z" transform="translate(-282.81 -113.53)"/><path class="cls-2" d="M325.57,313.34a16.9,16.9,0,0,1-.09-2.66l0-.28c0-.13,0-.12,0,0l0-.18a6.23,6.23,0,0,1,.15-.62l.09-.26c.07-.21-.08.15.05-.11s.21-.36.32-.55,0-.05,0,0l.12-.15.21-.21c-.1.07-.1.07,0,0s.11-.07,0,0c.11,0,.28,0,.07,0,.13,0,.12,0,0,0l.17,0-.1-.05a.83.83,0,0,1,.16.09l.16.1,0,0c.08.08.17.15.24.23a2,2,0,0,1,.19.22c-.17-.2.08.11.11.15.17.23.34.46.52.68a3.56,3.56,0,0,0,1.13.95,1.13,1.13,0,1,0,1.14-1.94,1.5,1.5,0,0,1-.32-.19c.22.15-.08-.09-.12-.13a3,3,0,0,1-.24-.28c.17.2-.08-.11-.11-.15a6.13,6.13,0,0,0-1.29-1.4,2.54,2.54,0,0,0-3.54.5c-1.45,1.77-1.43,4.06-1.22,6.23a1.15,1.15,0,0,0,1.12,1.12A1.11,1.11,0,0,0,325.57,313.34Z" transform="translate(-282.81 -113.53)"/><path class="cls-2" d="M340.82,315.5a62.83,62.83,0,0,0-8.13,15c-.52,1.35,1.66,1.94,2.17.6a60.73,60.73,0,0,1,7.91-14.44,1.14,1.14,0,0,0-.4-1.54A1.17,1.17,0,0,0,340.82,315.5Z" transform="translate(-282.81 -113.53)"/><path class="cls-2" d="M329.13,326.45c0-.37,0-.75,0-1.12,0-.2,0-.4,0-.6l0-.26c0-.06,0-.11,0-.17,0,.14,0,.17,0,.09a13,13,0,0,1,.53-2.22l-1.65.67a7.92,7.92,0,0,1,.69.42l.31.22c.11.08-.18-.14,0,0l.18.15a8.77,8.77,0,0,1,1.12,1.16,1.13,1.13,0,0,0,1.93-.8,1.27,1.27,0,0,0-.33-.8,9,9,0,0,0-2.74-2.29,1.14,1.14,0,0,0-1.65.67,13.7,13.7,0,0,0-.68,4.88,1.14,1.14,0,0,0,1.12,1.12A1.12,1.12,0,0,0,329.13,326.45Z" transform="translate(-282.81 -113.53)"/><path class="cls-2" d="M344.34,326.07a26.09,26.09,0,0,1-5.11,8.18c-2.17,2.43-4.17,5.08-3.71,8.52a1.13,1.13,0,0,0,1.38.79,1.15,1.15,0,0,0,.79-1.38c-.41-3.07,2.49-5.51,4.25-7.61a27.08,27.08,0,0,0,4.57-7.89C347,325.31,344.84,324.73,344.34,326.07Z" transform="translate(-282.81 -113.53)"/><path class="cls-2" d="M330.08,341.58c0-.16,0-.33,0-.49a4.22,4.22,0,0,0,0-.49c0,.18,0,.21,0,.09a.68.68,0,0,0,0-.14c0-.07,0-.14,0-.21s.08-.32.13-.48l.09-.27a.7.7,0,0,0,.08-.2l0,.07.06-.13a1.74,1.74,0,0,1,.1-.19c.08-.15.16-.29.25-.43l.16-.23c.13-.19-.17.19,0,0s.14-.11.16-.16c-.15.11-.17.13-.07.07a.41.41,0,0,1-.24.08c-.11,0-.11,0,0,0-.19,0-.23,0-.11,0-.3-.1-.09,0,0,0s0,0-.09-.07l.1.09.18.17c.12.12.23.24.34.37l.16.19c.14.17-.15-.2,0,0s.19.27.28.41a7.92,7.92,0,0,1,.5.9,1.13,1.13,0,0,0,1.54.4,1.15,1.15,0,0,0,.4-1.54A9,9,0,0,0,333,337.7a3.79,3.79,0,0,0-1.72-1.4,1.8,1.8,0,0,0-1.45.19,3.23,3.23,0,0,0-.89.95,6.69,6.69,0,0,0-.88,1.85,6.8,6.8,0,0,0-.28,2.29,1.13,1.13,0,0,0,2.26,0Z" transform="translate(-282.81 -113.53)"/><path class="cls-2" d="M348.13,330a52.25,52.25,0,0,0-4.45,17.13c-.08.94,1,1.27,1.69,1a7,7,0,0,0,3.21-3.57c.67-1.32,1.3-3.28,2.79-3.88l-1.38-.79c3.05,7.34-.06,15-3,21.85-.47,1.1.8,2.34,1.77,1.36a24.87,24.87,0,0,0,5.31-8l-1.88.5c1.32,1.18.59,3.6.34,5.09-.37,2.24-.83,4.48-1.35,6.69a100.86,100.86,0,0,1-4,12.81,1.13,1.13,0,0,0,1.88,1.09q3.24-4,6.66-7.78l-1.88-.5a29.35,29.35,0,0,1-1,14.08c-1.66,4.67-5.44,7.78-7.95,11.93a1.13,1.13,0,0,0,1.94,1.14,70.72,70.72,0,0,1,4.78-6.25,22.69,22.69,0,0,0,3.52-6.6,31.93,31.93,0,0,0,.89-14.89,1.13,1.13,0,0,0-1.88-.5q-3.44,3.81-6.66,7.78l1.88,1.09a102.62,102.62,0,0,0,4.38-14.64c.52-2.38,1-4.78,1.29-7.19.22-1.76.14-3.67-1.27-4.93a1.14,1.14,0,0,0-1.88.5,22,22,0,0,1-4.73,7.05l1.77,1.36c3.16-7.34,6.52-15.68,3.23-23.58-.21-.51-.76-1-1.38-.79a6.92,6.92,0,0,0-3.5,3.62c-.77,1.51-1.38,3.33-3,4.05l1.69,1a49.12,49.12,0,0,1,4.15-16C350.66,329.82,348.72,328.68,348.13,330Z" transform="translate(-282.81 -113.53)"/><path class="cls-2" d="M344.09,345.84a49.15,49.15,0,0,0-6.46,13.24c-.44,1.38,1.74,2,2.17.6A46.76,46.76,0,0,1,346,347C346.86,345.78,344.91,344.66,344.09,345.84Z" transform="translate(-282.81 -113.53)"/><path class="cls-2" d="M347.4,360.24a57.63,57.63,0,0,0-6.9,11.67,1.16,1.16,0,0,0,.4,1.54,1.14,1.14,0,0,0,1.54-.4,58.1,58.1,0,0,1,6.9-11.67,1.13,1.13,0,0,0-.4-1.54A1.15,1.15,0,0,0,347.4,360.24Z" transform="translate(-282.81 -113.53)"/><path class="cls-2" d="M332.39,364.56c-.24-1-.47-1.92-.71-2.88a2,2,0,0,1-.05-.24c0-.16,0,.14,0,.14a.41.41,0,0,1,0-.11,1.62,1.62,0,0,1,0-.22.41.41,0,0,1,0-.11c0-.17,0,.15,0,.14s0-.17.05-.2-.12.21-.05.12l.05-.08a.69.69,0,0,1-.22.23c.1-.06-.26.09-.15.06s-.33,0-.14,0l-1-.56a9.64,9.64,0,0,0,3.12,2.91,1.13,1.13,0,1,0,1.14-1.94,8.67,8.67,0,0,1-.81-.53c-.17-.12.15.13,0,0l-.17-.14-.36-.32a7.4,7.4,0,0,1-.66-.71c-.05-.06-.09-.12-.14-.17l.06.08-.07-.09a1.44,1.44,0,0,0-1-.75,1.73,1.73,0,0,0-1.83,1.38,4.24,4.24,0,0,0,.12,2l.63,2.58a1.14,1.14,0,0,0,1.38.79A1.17,1.17,0,0,0,332.39,364.56Z" transform="translate(-282.81 -113.53)"/><path class="cls-2" d="M331.67,352.08l1.25-3.38-1.88.5,1.82,2a1.12,1.12,0,0,0,1.59-1.59l-1.82-2a1.13,1.13,0,0,0-1.09-.29,1.18,1.18,0,0,0-.79.79l-1.25,3.38a1.15,1.15,0,0,0,.11.87,1.16,1.16,0,0,0,.67.52,1.15,1.15,0,0,0,.87-.11A1.46,1.46,0,0,0,331.67,352.08Z" transform="translate(-282.81 -113.53)"/><path class="cls-2" d="M286,178.41c4.51,11.78,8.06,23.9,11.4,36.05,3.42,12.42,6.75,24.86,10.12,37.29,6.59,24.29,13.23,48.6,18,73.33a387.89,387.89,0,0,1,5.95,42.23c.12,1.43,2.37,1.45,2.25,0-2-25.25-7.06-50.13-13.12-74.69-6.13-24.82-13.06-49.44-19.77-74.11-3.73-13.72-7.59-27.42-12.68-40.7C287.66,176.47,285.48,177.05,286,178.41Z" transform="translate(-282.81 -113.53)"/><path class="cls-2" d="M331.52,366.57c-1.29,22.56,2.51,45,1.89,67.59-.31,11.21-1.12,22.46.25,33.63.67,5.46,1.73,10.86,2.42,16.31s.79,11.1,1,16.67A112.28,112.28,0,0,0,339,518.88c1.15,5.92,2.43,12.07.46,18-.46,1.38,1.71,2,2.17.6,1.69-5,1.16-10.33.24-15.47a134.54,134.54,0,0,1-2.31-16.12c-.32-5.64-.27-11.29-.69-16.93-.4-5.43-1.36-10.78-2.19-16.15a121,121,0,0,1-1.47-17.21c-.07-5.58.17-11.16.37-16.73a337.12,337.12,0,0,0-.69-33.94c-.83-12.76-1.79-25.54-1-38.32C333.85,365.12,331.6,365.12,331.52,366.57Z" transform="translate(-282.81 -113.53)"/><path class="cls-2" d="M334.86,377.37l1.62-2.52-2.06-.87a5.16,5.16,0,0,0,.09,2.28,5.27,5.27,0,0,0,1.07,2,1.13,1.13,0,0,0,1.93-.8,1.27,1.27,0,0,0-.33-.8s-.09-.1-.13-.16l.18.23a4.27,4.27,0,0,1-.48-.83c0,.09.08.18.11.27a4.07,4.07,0,0,1-.28-1c0,.1,0,.2,0,.3a3.8,3.8,0,0,1,0-1c0,.1,0,.2,0,.3,0-.05,0-.1,0-.15a1.2,1.2,0,0,0-.11-.87,1.16,1.16,0,0,0-.54-.46,1.12,1.12,0,0,0-1.4.46l-1.62,2.52a1.12,1.12,0,1,0,1.93,1.14Z" transform="translate(-282.81 -113.53)"/><path class="cls-2" d="M336.37,386.81a8.52,8.52,0,0,1,.51-1.7c0,.09-.08.18-.11.27a7.26,7.26,0,0,1,.57-1.11l-1.77.23c.2.21.4.42.58.65l.12.15c-.22-.25-.07-.09,0,0l.25.36a9.23,9.23,0,0,1,.79,1.49c0-.09-.08-.18-.11-.27a9.18,9.18,0,0,1,.31.88,1.12,1.12,0,0,0,2.17-.59,10.31,10.31,0,0,0-2.5-4.22,1.14,1.14,0,0,0-1.77.23,9.23,9.23,0,0,0-1.19,3.09,1.2,1.2,0,0,0,.11.87,1.16,1.16,0,0,0,.67.52A1.19,1.19,0,0,0,336.37,386.81Z" transform="translate(-282.81 -113.53)"/><path class="cls-2" d="M337.48,398.79l.15-.41.08-.2c.08-.19-.07.16,0,0s.23-.51.35-.76a15.88,15.88,0,0,1,.82-1.45l-2.06-.27c.39,1.31.78,2.63,1.18,3.94a1.12,1.12,0,0,0,2.17-.59c-.39-1.31-.78-2.63-1.18-3.94a1.13,1.13,0,0,0-2.06-.27,17.59,17.59,0,0,0-1.62,3.32,1.13,1.13,0,0,0,.79,1.38A1.15,1.15,0,0,0,337.48,398.79Z" transform="translate(-282.81 -113.53)"/><path class="cls-2" d="M339.71,415c.31-1.56.61-3.13.92-4.69l-2.06.27c.59,1.11,1.19,2.22,1.78,3.34a1.13,1.13,0,0,0,1.94-1.14c-.59-1.11-1.19-2.22-1.78-3.34a1.13,1.13,0,0,0-2.06.27c-.31,1.56-.61,3.13-.92,4.69a1.13,1.13,0,0,0,2.18.6Z" transform="translate(-282.81 -113.53)"/><path class="cls-2" d="M338.62,428.74c0-.46.07-.93.12-1.39,0-.21.05-.43.07-.64s0,.12,0-.13,0-.25.05-.37c.14-.9.32-1.8.53-2.69l-1.88.5a3.72,3.72,0,0,1,.55.57c.18.21-.07-.12,0,0l.12.18a3.79,3.79,0,0,1,.2.34,1.31,1.31,0,0,1,.17.36c0-.08-.06-.15,0,0s.05.14.07.21a2.66,2.66,0,0,1,.1.38c0,.06,0,.11,0,.17s.05.33,0,0a1.15,1.15,0,0,0,1.12,1.12c.55,0,1.2-.5,1.12-1.12a6,6,0,0,0-1.93-3.83,1.14,1.14,0,0,0-1.88.5,33.65,33.65,0,0,0-.87,5.82,1.12,1.12,0,0,0,1.12,1.12A1.2,1.2,0,0,0,338.62,428.74Z" transform="translate(-282.81 -113.53)"/><path class="cls-2" d="M351.76,395.6q3.56-4.31,7.45-8.29l-1.88-.5c.72,3.54.15,7.23-.62,10.71a50.39,50.39,0,0,1-13.5,24.73,1.12,1.12,0,0,0,1.59,1.59A53,53,0,0,0,356,407.09a51.54,51.54,0,0,0,3-9.78,27.89,27.89,0,0,0,.45-11.1,1.14,1.14,0,0,0-1.88-.5q-3.9,4-7.45,8.29C349.26,395.12,350.84,396.72,351.76,395.6Z" transform="translate(-282.81 -113.53)"/><path class="cls-2" d="M352.84,414.28l8.34-8.66-1.77-.23c1.47,2.32,1,5.17.47,7.71a34.7,34.7,0,0,1-2.47,7.21,35.8,35.8,0,0,1-9.17,11.93c-1.11.94.49,2.52,1.59,1.59a37.26,37.26,0,0,0,10-13.47,36.29,36.29,0,0,0,2.44-7.83c.52-2.8.65-5.78-.93-8.28a1.14,1.14,0,0,0-1.77-.23l-8.34,8.66C350.24,413.73,351.83,415.33,352.84,414.28Z" transform="translate(-282.81 -113.53)"/><path class="cls-2" d="M356.8,426.54a19.45,19.45,0,0,0,3.51-3,18.23,18.23,0,0,0,1.41-1.77c.19-.27.37-.54.55-.82s.21-.34.31-.51c.31-.21.31-.34,0-.41-.34-.46-.07.87-.06,1,0,.41.07.82.09,1.24a21.46,21.46,0,0,1,0,2.27,20.21,20.21,0,0,1-13.27,17.64c-1.35.49-.77,2.67.6,2.17a22.49,22.49,0,0,0,15-21.87c0-1.29.12-3.88-1.28-4.56-1.74-.86-2.83,1.24-3.6,2.38a16.36,16.36,0,0,1-4.35,4.31C354.47,425.41,355.6,427.36,356.8,426.54Z" transform="translate(-282.81 -113.53)"/><path class="cls-2" d="M354.32,442.85l10.59-10.46-1.88-.5a26.68,26.68,0,0,1,.52,5.92,20.46,20.46,0,0,1-.43,5.3c-.88,3.63-3.59,6-6.36,8.26-1.12.92.48,2.5,1.59,1.59,3.08-2.53,6-5.24,6.94-9.25a23,23,0,0,0,.51-5.9,29.7,29.7,0,0,0-.6-6.52,1.14,1.14,0,0,0-1.88-.5l-10.59,10.46A1.13,1.13,0,0,0,354.32,442.85Z" transform="translate(-282.81 -113.53)"/><path class="cls-2" d="M336.06,435.22a4.58,4.58,0,0,0,5.11,7.35c2-.82,2.9-2.78,3.58-4.66a4.26,4.26,0,0,0,.38-1.71,2.34,2.34,0,0,0-.84-1.66,8.47,8.47,0,0,0-3.14-1.51,5.06,5.06,0,0,0-3.85.38,3.69,3.69,0,0,0-1.9,3,1.12,1.12,0,0,0,1.12,1.12,1.14,1.14,0,0,0,1.12-1.12c0-.31-.08.18,0-.11l.06-.2c.09-.3-.06.1,0-.06l.13-.22c.11-.18,0-.05,0,0l.18-.19.2-.17c-.17.13.11-.06.12-.07l.24-.13c.17-.09-.24.07.08,0a3.07,3.07,0,0,1,.52-.14h.37a2.68,2.68,0,0,1,.56.05,7.72,7.72,0,0,1,2.32.9l.19.11s.26.2.15.1.12.14.12.13c-.14-.18,0,0,0,0s0-.35,0,0c0-.07,0-.06,0,.1s-.15.47-.23.7-.23.62-.35.93c.07-.17,0,.05,0,.09l-.12.25c-.09.18-.18.36-.28.53s-.17.28-.26.41-.21.3-.08.12c0,.06-.09.11-.13.16a4.4,4.4,0,0,1-.37.38l-.16.14c.16-.13-.08,0-.11.07a4.09,4.09,0,0,1-.46.25c.19-.08,0,0-.07,0l-.25.07-.2,0c.25-.05-.07,0-.11,0a4.34,4.34,0,0,1-.51,0c-.32,0,.13,0-.06,0a2.27,2.27,0,0,1-.25-.06l-.2-.06s-.34-.13-.11,0a3.23,3.23,0,0,1-.41-.22l-.21-.14c.18.13-.07-.07-.09-.08l-.18-.18-.1-.12c.07.09.07.08,0,0a4.09,4.09,0,0,1-.25-.46c.08.19,0,0,0-.07s-.07-.23-.1-.35,0-.14,0-.21c0,.24,0-.07,0-.12v-.32c0-.05,0-.35,0-.12a4.7,4.7,0,0,1,.12-.51s.13-.34,0-.12a2.44,2.44,0,0,1,.14-.28,1.74,1.74,0,0,1,.11-.18l.12-.17c-.07.09-.06.09,0,0a1.15,1.15,0,0,0,0-1.59A1.12,1.12,0,0,0,336.06,435.22Z" transform="translate(-282.81 -113.53)"/><path class="cls-2" d="M339.29,439.11a1.13,1.13,0,0,0,0-2.25A1.13,1.13,0,0,0,339.29,439.11Z" transform="translate(-282.81 -113.53)"/><path class="cls-2" d="M338.33,454a2,2,0,0,1,2.26-.52,6.33,6.33,0,0,1,2.69,2.23,14.17,14.17,0,0,1,2.91,6.7c.15,1,.3,2.15-.49,2.91a3.23,3.23,0,0,1-2.29.79c-2.26,0-4.11-2-5.59-3.48,0,0-.16.16,0,.05a4.12,4.12,0,0,0,.4-.33,6.56,6.56,0,0,0,.67-.62,8,8,0,0,0,1.17-1.62,7.91,7.91,0,0,0,.93-4c0-1.44-2.3-1.45-2.25,0a5.53,5.53,0,0,1-1.44,4,11.38,11.38,0,0,0-1.45,1.41,2.09,2.09,0,0,0,.06,2.3,8.33,8.33,0,0,0,1.61,1.64,18.1,18.1,0,0,0,2,1.59,7.19,7.19,0,0,0,4,1.28,5.54,5.54,0,0,0,3.62-1.39,4.76,4.76,0,0,0,1.27-4.13,16.64,16.64,0,0,0-3.7-8.81,7.31,7.31,0,0,0-4.22-2.86,4.13,4.13,0,0,0-4.19,1.7C335.58,454,337.53,455.16,338.33,454Z" transform="translate(-282.81 -113.53)"/><path class="cls-2" d="M338.4,471a10.11,10.11,0,0,0-2.18,8.27,7.52,7.52,0,0,0,6.07,5.9,7.62,7.62,0,0,0,7.73-3.53,5.79,5.79,0,0,0,.63-4.89,20.6,20.6,0,0,0-2.45-4.58c-1-1.45-2.09-3.24-3.77-3.94a3,3,0,0,0-4,1.58,1.13,1.13,0,0,0,.79,1.38,1.15,1.15,0,0,0,1.38-.79c0-.1.44-.22.67-.2a2,2,0,0,1,1.16.7,17.66,17.66,0,0,1,2.22,2.95,17.92,17.92,0,0,1,1.86,3.48,3.65,3.65,0,0,1-.46,3.25,5.26,5.26,0,0,1-9.56-1.62,7.67,7.67,0,0,1,1.54-6.39A1.12,1.12,0,1,0,338.4,471Z" transform="translate(-282.81 -113.53)"/><path class="cls-2" d="M341.5,474.29c-.25.21-.12.08,0,0s.16,0-.06,0c.11,0,.22-.07.33-.08l-.3,0a1.77,1.77,0,0,1,.46,0l-.3,0,.34.08c.19.06-.23-.13-.05,0l.13.07c.2.13-.12-.11,0,0l.11.1a1.59,1.59,0,0,0,.13.13c.15.16-.14-.22,0,0l.18.29c0,.05.05.09.07.14s-.08-.23,0,0a4.35,4.35,0,0,1,.18.71c0-.1,0-.2,0-.3a3.66,3.66,0,0,1,0,.81c0-.1,0-.2,0-.3a5.11,5.11,0,0,1-.13.53c0,.12.13-.27,0-.09l0,.1-.07.12c-.05.08-.14.13.06-.07l-.18.18c-.08.09.24-.15.09-.07l-.08.05s-.19.09,0,0,0,0,0,0l-.23,0,.3,0a1.48,1.48,0,0,1-.42,0l.3,0-.27-.06c-.18,0,.25.13.1,0l-.13-.08c-.09-.05.23.22.09.06s-.15-.17,0,0,0,0,0,0,.11.31,0,.08a1.12,1.12,0,1,0-2.17.59,2.29,2.29,0,0,0,2.16,1.6,2.54,2.54,0,0,0,2.3-1.28,3.84,3.84,0,0,0,.37-2.74,3.72,3.72,0,0,0-1.52-2.39,2.78,2.78,0,0,0-1.56-.47,2.63,2.63,0,0,0-1.75.66,1.13,1.13,0,0,0,0,1.59A1.08,1.08,0,0,0,341.5,474.29Z" transform="translate(-282.81 -113.53)"/><path class="cls-2" d="M354.32,457.77a7.14,7.14,0,0,0-2,8.14c1.19,3,4.32,5.88,7.73,4.76a10.11,10.11,0,0,0,6.05-6.05c1-2.54,1.3-6.73-1.59-8.14-.88-.43-1.82-.76-2.73-1.12s-1.83-.8-2.79-1.08c-1.67-.49-3.7-.2-4.59,1.47-.68,1.28,1.26,2.42,1.94,1.14.5-.93,1.74-.56,2.53-.28,1.36.49,2.7,1.07,4,1.62a2.54,2.54,0,0,1,1.21.75,3.07,3.07,0,0,1,.37,1.46,7.93,7.93,0,0,1-.39,3.09,8,8,0,0,1-3.72,4.54,3.13,3.13,0,0,1-3.41.14,6.73,6.73,0,0,1-2.26-2.45,5,5,0,0,1,1.16-6.4,1.13,1.13,0,0,0,0-1.59A1.15,1.15,0,0,0,354.32,457.77Z" transform="translate(-282.81 -113.53)"/><path class="cls-2" d="M356.77,462.27l.27-.38L357,462l.09-.11.14-.16.31-.29c-.21.2-.07.06,0,0a.91.91,0,0,0,.17-.09l-.09,0,.09,0s.28-.06.07,0,.06,0,.1,0c.2,0-.26-.07-.05,0l.09,0-.13-.06.08,0c.07.05,0,0-.1-.09a.62.62,0,0,0,.14.14c-.11-.14-.13-.16-.06-.07l.05.09s.12.26,0,.08,0,.09,0,.12l.16.46c.11.33.21.67.31,1,.2.69.37,1.38.52,2.08a1.13,1.13,0,0,0,1.38.79,1.15,1.15,0,0,0,.79-1.38c-.17-.82-.38-1.64-.63-2.44a5.72,5.72,0,0,0-1.08-2.39,2.47,2.47,0,0,0-2.81-.37,4.8,4.8,0,0,0-1.79,1.76,1.14,1.14,0,0,0,.4,1.54A1.16,1.16,0,0,0,356.77,462.27Z" transform="translate(-282.81 -113.53)"/><path class="cls-2" d="M338.88,493.26c3.18-2.31,8.23-3.47,11.77-1.24,2,1.28,1.72,3.52.87,5.47a2.4,2.4,0,0,1-2.08,1.43,18.17,18.17,0,0,1-3.21.3,9.41,9.41,0,0,1-3.53-.57c-.92-.36-2.16-1.06-2.15-2.18a1.13,1.13,0,0,0-2.25,0c0,3,3.37,4.51,5.92,4.86a16.87,16.87,0,0,0,4.49,0,6.86,6.86,0,0,0,3.76-1.26,7.19,7.19,0,0,0,1.86-3.91,5.63,5.63,0,0,0-.57-4.12c-1.43-2.31-4.33-3.16-6.89-3.33a14.11,14.11,0,0,0-9.11,2.65,1.16,1.16,0,0,0-.4,1.54A1.12,1.12,0,0,0,338.88,493.26Z" transform="translate(-282.81 -113.53)"/><path class="cls-2" d="M344.31,492a8.13,8.13,0,0,0,1.1,2.18,8.47,8.47,0,0,0,1.89,1.89,1.15,1.15,0,0,0,.87.11,1.12,1.12,0,0,0,.67-.52,1.11,1.11,0,0,0,.11-.87,1.28,1.28,0,0,0-.52-.67l-.13-.1.23.18a7.1,7.1,0,0,1-1.25-1.26l.18.23a6.94,6.94,0,0,1-.89-1.54c0,.09.08.18.11.27-.07-.17-.13-.34-.19-.51a1.15,1.15,0,0,0-1.38-.79A1.16,1.16,0,0,0,344.31,492Z" transform="translate(-282.81 -113.53)"/><path class="cls-2" d="M361.86,492.14c-1.93.14-3.23,1.49-4.15,3.09a15.22,15.22,0,0,0-2.08,5.78c-.47,4.37,3,7.27,6.85,8.32a14.09,14.09,0,0,0,6.07.65,4.82,4.82,0,0,0,3.62-3.65,13.19,13.19,0,0,0,.33-6.18,9.08,9.08,0,0,0-3-4.85,24.29,24.29,0,0,0-5.16-3.35c-2-1-4.55-1.06-5.48,1.32-.53,1.35,1.65,1.93,2.17.59.65-1.68,6,2.29,6.79,2.95a7.42,7.42,0,0,1,2.28,3.11,9.5,9.5,0,0,1,.12,4.88c-.23,1.19-.61,2.55-1.9,2.93s-2.95-.06-4.26-.34c-2.64-.56-5.87-1.91-6.2-5a9.69,9.69,0,0,1,1.34-5.16c.52-1.05,1.31-2.74,2.66-2.84S363.31,492,361.86,492.14Z" transform="translate(-282.81 -113.53)"/><path class="cls-2" d="M363.87,496.89a10.9,10.9,0,0,0-4,4.48,3.93,3.93,0,0,0-.15,3.47,4.13,4.13,0,0,0,2.31,1.83,5.66,5.66,0,0,0,4.93-.62,4.68,4.68,0,0,0-1.43-8.47,1.15,1.15,0,0,0-1.38.79,1.12,1.12,0,0,0,.79,1.38,3.69,3.69,0,0,1,.45.11l.17.06c-.22-.09-.06,0,0,0s.26.15.39.24c0,0-.16-.15,0,0a1.8,1.8,0,0,1,.2.19l.12.14c.2.21-.08-.12,0,0s.16.23.23.35.12.22.17.33c-.1-.21,0,0,0,0l.09.27c0,.14.06.27.09.41-.06-.26,0,.13,0,.21s0,.28,0,.42c0-.22,0-.09,0,0l-.06.27c0,.08-.05.15-.07.22s-.12.24,0,0a3.9,3.9,0,0,1-.19.35s-.18.26-.08.13-.1.12-.1.11-.23.23-.35.34,0,0,0,0l-.2.14-.38.23-.18.09c-.28.14.13,0-.05,0a4.64,4.64,0,0,1-.53.16l-.39.08c.24,0-.18,0-.25,0a3.38,3.38,0,0,1-.45,0l-.2,0c.25,0,0,0-.1,0a2.62,2.62,0,0,1-.48-.13l-.19-.07c.18.07,0,0,0,0a4.76,4.76,0,0,1-.49-.28s.13.12,0,0l-.24-.23c.13.14-.15-.27-.12-.19s-.06-.24-.06-.21,0,.18,0-.08a2.78,2.78,0,0,1,.2-.94,8.35,8.35,0,0,1,3.17-3.67,1.11,1.11,0,1,0-1.13-1.92Z" transform="translate(-282.81 -113.53)"/><path class="cls-2" d="M358.12,474.21a8.84,8.84,0,0,0-3.28,8.07c.55,2.93,3.41,4.47,6,5.23a8.56,8.56,0,0,0,4.2.29,4.59,4.59,0,0,0,3.22-2.8,9.35,9.35,0,0,0-1.11-8.51,8.59,8.59,0,0,0-8.8-3.54c-1.42.3-.82,2.47.6,2.17a6.28,6.28,0,0,1,5.76,1.9,7.33,7.33,0,0,1,1.77,6.07,3,3,0,0,1-1.53,2.4,4.75,4.75,0,0,1-2.89,0c-1.76-.41-4.08-1.22-4.86-3-1-2.36.71-5.22,2.48-6.68a1.13,1.13,0,0,0-1.59-1.6Z" transform="translate(-282.81 -113.53)"/><path class="cls-2" d="M358.49,478.1c-.64,2.1.46,4.86,2.88,5a3.39,3.39,0,0,0,3-1.78,3.67,3.67,0,0,0,0-3.59,5.05,5.05,0,0,0-3.09-2.35,1.12,1.12,0,0,0-.59,2.17l.3.09.11,0c.15.05-.19-.09-.05,0a4.4,4.4,0,0,1,.56.31,1.88,1.88,0,0,1,.23.16s-.19-.16,0,0l.12.11.2.19.08.09s.15.21.06.07l.11.17c.05.08.09.16.13.24s-.06-.19,0,.05a2,2,0,0,1,.09.33.66.66,0,0,0,0,.15s0-.22,0-.11v.27c0,.19,0,0,0-.07a.66.66,0,0,0,0,.15,2.45,2.45,0,0,1-.08.29c-.07.21,0-.06,0-.06s-.07.14-.07.14a1.76,1.76,0,0,1-.14.23c-.15.23.1-.1,0,0a2.72,2.72,0,0,1-.24.24c-.21.18.13-.07,0,0l-.26.15c-.17.09.22-.05,0,0l-.1,0-.11,0,.12,0h-.26c-.12,0,.11,0,.11,0l-.14,0-.13,0c-.12,0,0-.07.09,0a1.24,1.24,0,0,0-.23-.12l-.11-.07s.17.16.1.08l-.18-.18c-.17-.17.1.16,0,0l-.14-.22-.06-.12s-.11-.23,0-.05,0-.13-.05-.19a1.31,1.31,0,0,1-.06-.27.78.78,0,0,0,0-.14c0,.07,0,.26,0,.06a5.81,5.81,0,0,1,0-.59c0-.12.06-.07,0,.09a.34.34,0,0,0,0-.14c0-.11.05-.22.08-.33a1.13,1.13,0,0,0-.79-1.38A1.18,1.18,0,0,0,358.49,478.1Z" transform="translate(-282.81 -113.53)"/><path class="cls-2" d="M349.68,508.42a9.7,9.7,0,0,0-8.54,4.82A8.59,8.59,0,0,0,340,518.6a10.12,10.12,0,0,0,7.56,7.77,8,8,0,0,0,4.95-.87A8.61,8.61,0,0,0,357,517c-.38-3.76-3.4-8.86-7.8-8.33a1.15,1.15,0,0,0-1.12,1.12,1.12,1.12,0,0,0,1.12,1.12c2.93-.35,4.93,3,5.45,5.46a6.5,6.5,0,0,1-2.54,6.77,5.65,5.65,0,0,1-7-.32,8.07,8.07,0,0,1-2.7-3.57,6,6,0,0,1,.34-4.27,7.46,7.46,0,0,1,6.9-4.29C351.13,510.72,351.12,508.47,349.68,508.42Z" transform="translate(-282.81 -113.53)"/><path class="cls-2" d="M344.5,514.92a6,6,0,0,0-.15,5.34,4.68,4.68,0,0,0,3.92,2.54,4.06,4.06,0,0,0,3.85-2.67c.6-1.7-.38-3.59-1.39-4.92a3.14,3.14,0,0,0-2.54-1.47,2.29,2.29,0,0,0-2.22,1.65,1.12,1.12,0,1,0,2.17.59c0-.19,0,0,0,0,.11-.19-.05,0-.05,0s.09-.09.11-.11c-.23.24-.07,0,0,0l.07,0-.12,0a.75.75,0,0,1,.16,0s-.3,0-.05,0c0,0,.28,0,.1,0s0,0,0,0-.16-.1,0,0l.17.1c.15.06-.1-.11,0,0a3.83,3.83,0,0,1,.29.28l.07.08c-.08-.1.08.11.09.13.16.24.31.48.46.73a8.34,8.34,0,0,1,.43.82l.05.14.07.22a1.74,1.74,0,0,1,.05.22c0,.19,0-.15,0,0s0,.27,0,.4,0,.06,0,0c0,.09,0,.18-.07.27s-.08.2,0,0a1.3,1.3,0,0,1-.08.17,3.28,3.28,0,0,1-.2.31c.14-.19-.09.08-.13.13l-.14.13c-.15.14.07,0,0,0s-.19.12-.28.17l-.17.08c.2-.09.05,0,0,0l-.37.1c-.21,0,0,0,0,0h-.47c-.07,0-.19,0,0,0-.12,0-.25,0-.37-.09l-.14,0c-.16,0,.15.08,0,0s-.26-.13-.38-.21-.34-.25-.17-.11l-.29-.26a3.58,3.58,0,0,1-.26-.29c.13.16,0,0,0,0s-.11-.16-.16-.25a3.84,3.84,0,0,1-.18-.35c.07.18,0,0,0,0s-.07-.21-.1-.32,0-.15-.05-.22,0,0,0-.09a2.9,2.9,0,0,1,0-.51,1.77,1.77,0,0,1,0-.23s0-.36,0-.15a3.58,3.58,0,0,1,.09-.45,4,4,0,0,1,.32-.9,1.15,1.15,0,0,0-.4-1.54A1.24,1.24,0,0,0,344.5,514.92Z" transform="translate(-282.81 -113.53)"/><path class="cls-2" d="M365.81,511.93c-2.16,2.51-5.46,4.29-5,8.1a14.55,14.55,0,0,0,2,5.4,12.88,12.88,0,0,0,3.52,4.17c3.39,2.39,7.31,0,8.94-3.32a10.32,10.32,0,0,0-.62-10.1c-2-3.18-6.25-5.88-10-3.8a1.13,1.13,0,0,0,1.14,1.94c2.34-1.31,5.12.59,6.51,2.45a8.23,8.23,0,0,1,1.28,7.67c-.85,2.38-3.47,5.08-6,3.27a10.35,10.35,0,0,1-2.75-3.31,14.19,14.19,0,0,1-1.68-4.11c-.69-3.16,2.51-4.75,4.28-6.8C368.34,512.43,366.75,510.83,365.81,511.93Z" transform="translate(-282.81 -113.53)"/><path class="cls-2" d="M365,515.68a5.1,5.1,0,0,0-.66,4.42,5.19,5.19,0,0,0,3,3.18,3.67,3.67,0,0,0,2.42.22,2.56,2.56,0,0,0,1.63-1.75,5.33,5.33,0,0,0,.11-2.14,10.91,10.91,0,0,0-.53-2.46,5,5,0,0,0-1.35-2.26,2.26,2.26,0,0,0-2.68-.39,1.13,1.13,0,1,0,1.14,1.94c.08,0,.16,0,0,0,0,0-.21,0-.09,0s-.08,0-.09,0l.17.05c-.26-.09.11.09,0,0s0,0,0,0l.14.14.14.16s-.09-.13,0,0a3.14,3.14,0,0,1,.18.31,3.84,3.84,0,0,1,.27.68,9.38,9.38,0,0,1,.42,1.72c0,.21,0-.13,0,.08,0,.06,0,.13,0,.19l0,.44c0,.12,0,.23,0,.35s0,.42,0,.19c0,.11,0,.22-.07.33s0,.09,0,.13.09-.15,0-.06a.83.83,0,0,0-.09.16c-.05.11,0,0,0-.05s0,0,0,0-.13.08,0,0a.86.86,0,0,1-.23.06s.13,0,0,0h-.18c.16,0,0,0-.05,0a4.07,4.07,0,0,1-.68-.2c.2.08-.09,0-.14-.08l-.3-.18-.17-.12s.13.1,0,0l-.3-.28-.24-.26c.12.15-.06-.09-.09-.14a1.74,1.74,0,0,1-.15-.26l-.09-.18c-.08-.14,0,.15,0,0s-.09-.28-.13-.42,0-.14-.05-.21,0,.16,0,0a3.24,3.24,0,0,1,0-.44,1.62,1.62,0,0,1,0-.22s0-.24,0-.12,0-.09,0-.12a1.6,1.6,0,0,1,.05-.21c0-.14.08-.28.13-.42s0,0,0,0l.12-.25c.08-.15.17-.28.26-.42a1.14,1.14,0,0,0-.4-1.54A1.2,1.2,0,0,0,365,515.68Z" transform="translate(-282.81 -113.53)"/><path class="cls-2" d="M351.93,527a8.53,8.53,0,0,0-7.78,6.35,8.86,8.86,0,0,0,3.51,9.54,8.21,8.21,0,0,0,9.79-.53,7.86,7.86,0,0,0,1.75-9.65c-1.93-3.59-6.56-6.5-10.57-4.56-1.3.63-.16,2.57,1.14,1.94,2.56-1.23,5.6.92,7,3a5.63,5.63,0,0,1-.34,7.16,5.82,5.82,0,0,1-6.92,1.15,6.44,6.44,0,0,1-3.36-6.57,6.29,6.29,0,0,1,5.77-5.55C353.37,529.24,353.38,527,351.93,527Z" transform="translate(-282.81 -113.53)"/><path class="cls-2" d="M350.48,530.75a2.81,2.81,0,0,0-.75,3.75A6.26,6.26,0,0,0,350.9,536a5.22,5.22,0,0,0,1.49,1,2.89,2.89,0,0,0,2,.23,2.44,2.44,0,0,0,1.58-1.58,3.5,3.5,0,0,0-1.15-3.56,3.55,3.55,0,0,0-2.11-1.17,1.94,1.94,0,0,0-2,1.39,1.12,1.12,0,1,0,2.17.59c0-.17-.05.1-.06.11.08-.18-.16.17-.06.07s-.21.14-.1.07.16-.07,0,0,0,0,0,0,0,.05-.1,0h.12c-.07,0-.27-.06-.07,0h0l-.07,0,.13.07.12.08c.15.09-.06,0-.05,0s.43.38.49.44.42.38.39.43-.14-.2-.05,0l.08.12.17.32s-.08-.23,0-.07,0,.08,0,.13l0,.15c0,.14,0-.26,0-.11s0,.16,0,.25-.07.12,0-.08a.66.66,0,0,0,0,.15.56.56,0,0,1,0,.12c0,.13.11-.22,0-.1l-.07.13c-.05.1-.08,0,.07-.08a.34.34,0,0,0-.08.09c-.09.09-.05,0,.09-.06a.41.41,0,0,0-.11.07c-.08,0-.08,0,0,0h0l-.12,0c-.13,0,0-.06.12,0a.7.7,0,0,0-.25,0c.17,0,.23,0,.11,0l-.13,0-.13,0-.13,0,.14.06c-.16-.11-.35-.18-.52-.29l-.12-.08,0,0h0l.06,0-.08-.07-.16-.14-.43-.43-.2-.22a.52.52,0,0,0-.1-.11c-.14-.17.12.19,0,0l-.18-.28-.07-.13,0-.1c.06.15.08.18,0,.1s0-.19-.08-.28,0,.12,0,.12a.53.53,0,0,1,0-.18v-.12c0-.21-.07.26,0,.06l0-.12,0-.09c0-.08,0,0-.06.13,0,0,.19-.3.07-.14s0,0,0,0-.22.15,0,0a1.14,1.14,0,0,0,.4-1.54A1,1,0,0,0,350.48,530.75Z" transform="translate(-282.81 -113.53)"/><path class="cls-2" d="M368.31,532c-2.67,2.35-4.8,6.53-3.65,10.12,1.08,3.37,4.71,5.67,7.92,6.67,1.69.53,4,.76,5.42-.61a4.06,4.06,0,0,0,1-2.14c.21-1,.43-2,.56-3,.22-1.72-.15-3.51-1.86-4.3a9.61,9.61,0,0,1-2.09-.87,3.77,3.77,0,0,1-1.1-1.57,8.2,8.2,0,0,1-.54-2.4c-.09-1-.08-2-1.21-2.46-1.58-.6-4.07-.37-5.18,1-.91,1.11.68,2.71,1.59,1.59a1.48,1.48,0,0,1,1.14-.57,6.28,6.28,0,0,1,1,0c.14,0,.29,0,.43,0l.24,0-.27-.27a8.78,8.78,0,0,0,.18,1.77,9.15,9.15,0,0,0,.48,1.85,6.17,6.17,0,0,0,2.13,2.92,5.86,5.86,0,0,0,1.67.75c.6.19,1.1.36,1.22,1a11.7,11.7,0,0,1-.57,4.1c-.13.57-.24,1-.84,1.18a4.19,4.19,0,0,1-2.22-.07c-2.46-.6-5.36-2.28-6.59-4.57-1.56-2.93.56-6.67,2.78-8.61C371,532.68,369.39,531.09,368.31,532Z" transform="translate(-282.81 -113.53)"/><path class="cls-2" d="M350.78,549.06a5,5,0,0,0-3.8,4.06,8.68,8.68,0,0,0,1.72,6.28c2.21,3.31,5.66,6.11,9.77,6.36,3.62.22,7.51-2,8.62-5.51,1.23-4-1-8.73-4.14-11.18a9.25,9.25,0,0,0-12,.33c-1,1,.55,2.6,1.59,1.59a6.89,6.89,0,0,1,8.1-.81,9.46,9.46,0,0,1,4.55,7.84c0,3-2.47,5.05-5.27,5.45-3,.44-5.9-1.33-7.87-3.48a10.71,10.71,0,0,1-2.79-4.84c-.33-1.66.34-3.59,2.16-3.92C352.8,551,352.2,548.8,350.78,549.06Z" transform="translate(-282.81 -113.53)"/><path class="cls-2" d="M352.81,553.81c.12,2,2,2.82,3.7,3a4.59,4.59,0,0,0,2.85-.44,2.64,2.64,0,0,0,1.28-2.85,1.12,1.12,0,0,0-2.17.59c0,.1,0,.11,0,0s0-.09,0,0v.08c0-.15,0-.19,0-.1s0,0,0,0-.11.22-.12.21.16-.18,0,0,0,0,0,0a1.07,1.07,0,0,1-.21.13c-.18.1.09,0,0,0a2.15,2.15,0,0,1-.5.12c.16,0,.09,0,0,0h-.24a4.52,4.52,0,0,1-.52,0h-.3l.12,0c-.05-.05-.29-.05-.36-.07l-.39-.11-.17-.06-.1,0,.1,0-.31-.16a.82.82,0,0,0-.17-.11s.2.18,0,0l-.12-.11-.07-.07.08.1s-.07-.1-.09-.14,0,0,0,.07-.05-.16-.06-.19c-.06-.2,0,.26,0,0a1.14,1.14,0,0,0-2.27,0Z" transform="translate(-282.81 -113.53)"/><path class="cls-2" d="M377.12,553.86c-3.13,1-6.5,2.22-8.53,5-1.79,2.45-2.2,5.95-.14,8.36s5.83,4.14,9,3.36,5-4.14,5.61-7.15a7.65,7.65,0,0,0-.69-5.65,5.26,5.26,0,0,0-4.23-2.58c-1.45-.06-1.45,2.19,0,2.25,2.58.1,3.17,3.26,2.77,5.26-.43,2.16-1.51,5-3.85,5.64s-5-.72-6.6-2.3-1.3-4.11,0-5.89c1.66-2.33,4.73-3.27,7.31-4.12C379.08,555.58,378.5,553.4,377.12,553.86Z" transform="translate(-282.81 -113.53)"/><path class="cls-2" d="M372.11,560.08a6.27,6.27,0,0,0,.4,4.91,4.63,4.63,0,0,0,4,2.33,3.84,3.84,0,0,0,3.67-2.78A4.55,4.55,0,0,0,379,560a3.47,3.47,0,0,0-2.61-1,3.13,3.13,0,0,0-2.49,1.51,1.13,1.13,0,0,0,1.94,1.14,1,1,0,0,1,.12-.2s-.19.19,0,0l.06-.07c-.11.12,0,0,.08-.05l.14-.08c.22-.13-.23,0,0,0l.15,0,.15,0-.14,0c.06,0,.31,0,.39,0,.26,0-.18,0,0,0l.19,0a.44.44,0,0,1,.16.06c-.22-.16,0,0,0,0l.15.09.14.1-.09-.07c.11,0,.23.22.31.3s-.08-.13,0,0l.12.18a1.41,1.41,0,0,1,.21.38c0-.18,0-.11,0,0l.09.28c0,.09.11.27.08.36s0-.09,0-.14,0,.11,0,.16,0,.11,0,.17,0,.27,0,.41,0,0,0-.05-.05.22-.06.28a1,1,0,0,1-.11.35l.05-.12-.07.15a.64.64,0,0,1-.08.14c0,.06-.08.11-.11.17s.18-.2,0,0l-.11.12-.13.13c.12-.12-.06,0-.08,0l-.13.08s-.16.11-.21.1.26-.09.05,0l-.37.1c-.22.05.07,0,.07,0s-.23,0-.27,0h-.35c-.27,0,.25.06,0,0l-.16,0-.38-.11a.47.47,0,0,1-.15-.06c.24.17,0,0-.06,0l-.31-.18-.07,0,0,0a.58.58,0,0,1-.12-.1c-.1-.09-.19-.19-.28-.28s.08.13,0,0-.12-.17-.17-.26-.14-.26-.21-.39.06.22,0-.06a2.41,2.41,0,0,1-.08-.25,4,4,0,0,1-.11-.47c0-.08-.09-.24,0,0a2.23,2.23,0,0,1,0-.27,6.55,6.55,0,0,1,0-1c0-.3-.05.24,0-.06,0-.09,0-.18.05-.27s.09-.35.14-.52a1.13,1.13,0,0,0-2.17-.61Z" transform="translate(-282.81 -113.53)"/><path class="cls-2" d="M358.18,568.37a8.57,8.57,0,0,0-4.39,2.88,13.12,13.12,0,0,0-2.6,4.41,12,12,0,0,0-.68,4.89,2.82,2.82,0,0,0,1,2.29,2.1,2.1,0,0,0,2.46-.26,8.72,8.72,0,0,0,3.3-4.76,1.13,1.13,0,0,0-2.17-.6,6.52,6.52,0,0,1-1,2.13,12,12,0,0,1-1.49,1.45c-.22.1-.22.14,0,.12l.24.16s-.1-.28-.11-.33a6.27,6.27,0,0,1,0-1.06,10,10,0,0,1,.28-2.25,10.75,10.75,0,0,1,1.95-4.09,7.13,7.13,0,0,1,3.83-2.81C360.2,570.27,359.59,568.1,358.18,568.37Z" transform="translate(-282.81 -113.53)"/><path class="cls-2" d="M359.26,571.08c2.21,1.33,5.08,2.1,6.66,4.26,1.74,2.36,0,5.06-1.33,7.16a13.57,13.57,0,0,1-5.29,5.23,3.07,3.07,0,0,1-3.57-.52,6.55,6.55,0,0,1-2.05-3.2,1.13,1.13,0,0,0-2.17.6,8.23,8.23,0,0,0,4.88,5.55c2.47.84,5.07-.82,6.83-2.43a22.53,22.53,0,0,0,4.59-6.27c1.2-2.33,1.63-5,0-7.24-1.82-2.6-4.87-3.51-7.47-5.07C359.15,568.39,358,570.34,359.26,571.08Z" transform="translate(-282.81 -113.53)"/><path class="cls-2" d="M376,572.55c-3,.65-3.9,4.11-3,6.7a10,10,0,0,0,5.6,5.89c2.25.91,5.19.78,6.8-1.24,1.76-2.2,1.32-5.6.07-7.94a5.91,5.91,0,0,0-7.65-2.49,1.13,1.13,0,0,0-.4,1.54,1.15,1.15,0,0,0,1.54.4,3.65,3.65,0,0,1,4.21,1.11A6,6,0,0,1,384,582c-.72,1.54-2.58,1.67-4,1.26a7.5,7.5,0,0,1-4.25-3.47,4.89,4.89,0,0,1-.77-3.17,2.24,2.24,0,0,1,1.69-1.88C378,574.41,377.43,572.24,376,572.55Z" transform="translate(-282.81 -113.53)"/><path class="cls-2" d="M376,578.43a3.52,3.52,0,0,0,2.76,3.54,3.3,3.3,0,0,0,1.4,0,2.29,2.29,0,0,0,1.28-.74,2.18,2.18,0,0,0,.53-1.5,2.7,2.7,0,0,0-.41-1.35,4.53,4.53,0,0,0-2.5-1.63,1.12,1.12,0,0,0-1.38.79,1.15,1.15,0,0,0,.79,1.38l.63.24-.27-.11a3.88,3.88,0,0,1,.77.43l-.23-.18a2.13,2.13,0,0,1,.34.33l-.18-.23a1.79,1.79,0,0,1,.22.38c0-.09-.08-.18-.11-.27a1.64,1.64,0,0,1,.1.38c0-.1,0-.2,0-.3a1.21,1.21,0,0,1,0,.38c0-.1,0-.2,0-.3a2.68,2.68,0,0,1-.07.27c0-.09.08-.18.11-.27a.82.82,0,0,1-.12.2l.18-.23a.77.77,0,0,1-.18.18l.23-.18a1.56,1.56,0,0,1-.28.16l.27-.11a2.54,2.54,0,0,1-.45.13l.3,0a2.18,2.18,0,0,1-.57,0l.3,0a2.64,2.64,0,0,1-.55-.15l.27.11a2.59,2.59,0,0,1-.58-.34l.23.18a2.67,2.67,0,0,1-.47-.48l.18.23a2.61,2.61,0,0,1-.31-.54c0,.09.08.18.11.27a2.64,2.64,0,0,1-.15-.55c0,.1,0,.2,0,.3a2.06,2.06,0,0,1,0-.43,1.13,1.13,0,0,0-1.93-.8A1.42,1.42,0,0,0,376,578.43Z" transform="translate(-282.81 -113.53)"/><path class="cls-2" d="M367.91,585.09c-3.85,1.13-7.31,3.6-8.71,7.48a8.3,8.3,0,0,0,3.22,9.92,10.2,10.2,0,0,0,11.34-1.37,6.07,6.07,0,0,0,1.83-5.06,2.35,2.35,0,0,0-1.33-2.12,2.43,2.43,0,0,0-2.44,1.12c-.37.45-1.25,2.3-2,2-.35-.15-.61-.87-.74-1.18a5.19,5.19,0,0,1,.16-4.07,2.57,2.57,0,0,1,.88-1.17c.48-.25,1.18.13,1.63.31.74.3,1.36-.44,1.42-1.08a5.51,5.51,0,0,0-4-5.7,1.13,1.13,0,0,0-.6,2.17,3.28,3.28,0,0,1,2.36,3.53l1.42-1.08a4.24,4.24,0,0,0-2.73-.37,3.73,3.73,0,0,0-2,1.72,7.24,7.24,0,0,0-1.08,4.6c.16,1.57.84,3.65,2.38,4.39,1.86.89,3.36-.76,4.3-2.14.1-.15.72-.71.73-.84l-.68-.25c0,.09,0,.18.07.28a5.35,5.35,0,0,0,.07.56,3.88,3.88,0,0,1-.75,2.27,6.4,6.4,0,0,1-4.57,2.26,6.61,6.61,0,0,1-5.2-1.18,5.93,5.93,0,0,1-2-4.43c0-4.32,3.79-7.26,7.59-8.37A1.13,1.13,0,0,0,367.91,585.09Z" transform="translate(-282.81 -113.53)"/><path class="cls-2" d="M381.64,590.49c-1.72,2.24-3,5.16-1.95,8,.92,2.39,3.13,4.86,5.68,5.51a5.51,5.51,0,0,0,6.22-3.06,7.27,7.27,0,0,0-1.18-7.63c-1.82-2.31-5-3.76-7.87-2.9a1.13,1.13,0,0,0,.6,2.17c3.65-1.07,7.77,3.17,6.67,6.8a3.42,3.42,0,0,1-3.48,2.53c-1.9-.25-3.51-2.14-4.33-3.74-1.17-2.29.18-4.69,1.59-6.52a1.13,1.13,0,0,0-1.95-1.14Z" transform="translate(-282.81 -113.53)"/><path class="cls-2" d="M382.29,596.8a2.76,2.76,0,0,0,3.35,2.14,2.61,2.61,0,0,0,1.64-1.37,2.44,2.44,0,0,0,.22-1.33,2.24,2.24,0,0,0-.39-1,2.46,2.46,0,0,0-.95-.83,2.41,2.41,0,0,0-1.54-.19,1.09,1.09,0,0,0-.67.52,1.13,1.13,0,0,0,1.27,1.66h.08l-.3,0h.28l-.3,0a1.58,1.58,0,0,1,.31.09l-.27-.11a1.61,1.61,0,0,1,.28.17l-.23-.18a1.28,1.28,0,0,1,.26.26l-.18-.23a1.61,1.61,0,0,1,.17.28c0-.09-.08-.18-.11-.27a1.68,1.68,0,0,1,.09.32c0-.1,0-.2,0-.3a1.41,1.41,0,0,1,0,.29c0-.1,0-.2,0-.3a1.68,1.68,0,0,1-.09.32c0-.09.08-.18.11-.27a1.29,1.29,0,0,1-.19.32l.18-.23a1.72,1.72,0,0,1-.27.27l.23-.18a1.23,1.23,0,0,1-.37.21l.27-.11a1.56,1.56,0,0,1-.37.1l.3,0h-.34l.3,0a1.36,1.36,0,0,1-.36-.1l.27.11a2.3,2.3,0,0,1-.4-.23l.23.18a2.13,2.13,0,0,1-.3-.3l.18.23a2,2,0,0,1-.24-.4c0,.09.08.18.11.27a2.26,2.26,0,0,1-.11-.37,1.12,1.12,0,0,0-.52-.67,1.15,1.15,0,0,0-.87-.11,1.16,1.16,0,0,0-.67.52A1.43,1.43,0,0,0,382.29,596.8Z" transform="translate(-282.81 -113.53)"/><path class="cls-2" d="M365.12,609.19c-2.18,3.28-.62,7.37,2,9.84s6.59,4.18,10.22,2.84a9.66,9.66,0,0,0,6.1-7.74,12.25,12.25,0,0,0-.53-5.67,6.53,6.53,0,0,0-3-3.94c-2-1-4.2-.09-6.09.82-2.18,1-4.31,2.17-6.41,3.36a1.13,1.13,0,0,0,1.14,1.94c1.49-.85,3-1.66,4.52-2.43a16.78,16.78,0,0,1,4.25-1.82c3-.58,3.95,3.58,4,5.82a7.79,7.79,0,0,1-3.66,7c-2.59,1.51-5.49.77-7.82-.89s-4.75-5.1-2.79-8C367.86,609.11,365.92,608,365.12,609.19Z" transform="translate(-282.81 -113.53)"/><path class="cls-2" d="M368.58,611.39a3.34,3.34,0,0,0,1.79,3,4.6,4.6,0,0,0,3.84.13,6.87,6.87,0,0,0,3.22-2.22,3,3,0,0,0-.12-3.69,1.12,1.12,0,0,0-1.59,0,1.15,1.15,0,0,0,0,1.59c-.14-.16,0,.06,0,.1-.11-.19,0,.05,0,.1,0-.15,0-.07,0,.05v.15c0-.11,0-.13,0-.05l-.06.25c-.08.26.1-.13-.05.1s-.11.19-.18.28c.1-.12,0,0-.07.06a1.8,1.8,0,0,1-.2.19l-.12.1a6.65,6.65,0,0,1-.56.36,7.22,7.22,0,0,1-1.05.52,4.84,4.84,0,0,1-.65.19s-.27,0-.12,0a2.17,2.17,0,0,1-.36,0H372c.13,0,0,0-.09,0l-.28-.08c-.12,0,.13.08-.05,0l-.26-.15c-.25-.15.13.13-.09-.06l-.18-.17c-.07-.07-.13-.17,0,0l-.15-.24c-.13-.23,0,.17,0-.08,0-.07,0-.33,0-.07v-.29a1.12,1.12,0,0,0-1.12-1.12A1.07,1.07,0,0,0,368.58,611.39Z" transform="translate(-282.81 -113.53)"/><path class="cls-2" d="M389.36,610.79a5.7,5.7,0,0,0-3.75,4.62,10.3,10.3,0,0,0,1.79,6.85,5,5,0,0,0,2.35,2.48c1.26.42,2.5-.35,3.42-1.16a6.85,6.85,0,0,0,2.23-5.82,6.94,6.94,0,0,0-4.35-5.56,1.13,1.13,0,0,0-1.38.79,1.14,1.14,0,0,0,.79,1.38,4.56,4.56,0,0,1,1.75,7c-.34.43-1,1.17-1.59,1.26s-1-1-1.22-1.38a9,9,0,0,1-1.64-4.85A3.65,3.65,0,0,1,390,613C391.33,612.52,390.74,610.34,389.36,610.79Z" transform="translate(-282.81 -113.53)"/><path class="cls-2" d="M388.08,618.94a.54.54,0,0,0,.11.18,2.69,2.69,0,0,0,.3.37,2,2,0,0,0,.57.39,2.45,2.45,0,0,0,.45.17,2.76,2.76,0,0,0,.49.07,2.06,2.06,0,0,0,.7-.07,2.1,2.1,0,0,0,1.28-1,2.69,2.69,0,0,0,.19-.43.79.79,0,0,0,.05-.22,3.91,3.91,0,0,0,0-.48,2.73,2.73,0,0,0-.06-.5,2,2,0,0,0-.27-.69,2.22,2.22,0,0,0-.71-.72,1.15,1.15,0,0,0-.87-.11,1.12,1.12,0,0,0-.67.52,1.11,1.11,0,0,0-.11.87,1.16,1.16,0,0,0,.52.67l.07,0-.23-.18a.77.77,0,0,1,.18.18l-.18-.23a1,1,0,0,1,.14.24c0-.09-.08-.18-.11-.27a1.09,1.09,0,0,1,.08.31c0-.1,0-.2,0-.3a1.71,1.71,0,0,1,0,.32c0-.1,0-.2,0-.3a1.09,1.09,0,0,1-.08.31c0-.09.08-.18.11-.27a1,1,0,0,1-.13.22l.18-.23a.91.91,0,0,1-.17.17l.23-.18L390,618l.27-.11a1.25,1.25,0,0,1-.26.07l.3,0H390l.3,0-.33-.09.27.11a1.35,1.35,0,0,1-.26-.15l.23.18a1.14,1.14,0,0,1-.19-.19l.18.23a.82.82,0,0,1-.12-.2.89.89,0,0,0-.29-.32.82.82,0,0,0-.38-.2,1.2,1.2,0,0,0-.87.11,1.16,1.16,0,0,0-.52.67c0,.1,0,.2,0,.3A1.06,1.06,0,0,0,388.08,618.94Z" transform="translate(-282.81 -113.53)"/><path class="cls-2" d="M338.67,535.76c-2.29,2.46-.76,5.93-.3,8.79a32.67,32.67,0,0,1-.31,11.87,29.41,29.41,0,0,0-.86,5.27,30.72,30.72,0,0,0,.88,5.87c.69,4,0,8-.69,12-1,6.21-2.18,12.53-4.66,18.36a30.77,30.77,0,0,1-4.83,8.05,15.36,15.36,0,0,1-3.39,3.25c-.85.51-1.78.21-2.71.41a3.63,3.63,0,0,0-1.71.9,7.75,7.75,0,0,0-1.68,2.74,9.2,9.2,0,0,1-2.35,3.54,11.46,11.46,0,0,0-2.81,3,7.54,7.54,0,0,0-.45,5,58.26,58.26,0,0,0,3.14,10,32.59,32.59,0,0,0,4.85,8.7,41.84,41.84,0,0,0,7.64,6.79q4.86,3.68,9.82,7.22c3,2.14,6,4.78,9.54,6a23.47,23.47,0,0,0,5.06.91c2.09.22,4.18.48,6.27.71,7.37.8,15.74.79,21.53-4.59,4.55-4.23,5.84-12.14,1.05-16.72-1.05-1-2.64.59-1.59,1.59,4.16,4,2.43,10.69-1.61,14-5.23,4.33-12.53,4.16-18.89,3.49-1.88-.2-3.76-.44-5.64-.64a29,29,0,0,1-5.17-.82c-3.32-1-6.25-3.61-9-5.59q-4.56-3.25-9-6.62a48.57,48.57,0,0,1-7.83-6.69c-4.14-4.77-6.23-11.43-7.74-17.45-.42-1.67-.64-3.47.54-4.88.87-1,2.06-1.74,2.94-2.76a11.53,11.53,0,0,0,1.76-3.16c.46-1,.89-2.28,2.15-2.46a9.33,9.33,0,0,0,2.46-.32,6.68,6.68,0,0,0,1.68-1.1,24.06,24.06,0,0,0,3-3.1,32.8,32.8,0,0,0,4.48-7.19,68.79,68.79,0,0,0,4.82-16.9A81.24,81.24,0,0,0,340.57,572a24.78,24.78,0,0,0-.52-6,16.43,16.43,0,0,1-.41-6.32c.69-4,1.52-7.71,1.31-11.77a35.56,35.56,0,0,0-.78-5.82c-.32-1.44-1.09-3.53.07-4.77C341.25,536.3,339.66,534.7,338.67,535.76Z" transform="translate(-282.81 -113.53)"/><path class="cls-2" d="M386.26,647.08a34.25,34.25,0,0,0,5.2-7.14,23.35,23.35,0,0,0,1.94-8.66c.13-1.44-2.13-1.43-2.25,0-.23,2.66-.49,5.37-1.75,7.76a32.82,32.82,0,0,1-4.73,6.45C383.7,646.56,385.29,648.16,386.26,647.08Z" transform="translate(-282.81 -113.53)"/><path class="cls-2" d="M375.79,629.47a5.76,5.76,0,0,0-2.93,6,6,6,0,0,0,5.06,4.67,9.34,9.34,0,0,0,7.47-1.67,5.39,5.39,0,0,0,2.05-3.48,6.36,6.36,0,0,0-1.42-4.1,7.79,7.79,0,0,0-3.52-3.08,5.13,5.13,0,0,0-4.64.32c-1.22.78-.09,2.73,1.14,1.94,1.71-1.09,3.67.09,4.76,1.5a10.51,10.51,0,0,1,.86,1.34,4.42,4.42,0,0,1,.61,1.43,2.86,2.86,0,0,1-1.11,2.27,6.79,6.79,0,0,1-5.06,1.44c-1.57-.13-3.41-.91-3.89-2.53a3.54,3.54,0,0,1,1.76-4.12,1.13,1.13,0,0,0-1.14-2Z" transform="translate(-282.81 -113.53)"/><path class="cls-2" d="M378.24,632.31c.05.06.54.66.55.65s-.12-.15,0-.06l0,.06.12.17a3.48,3.48,0,0,1,.22.36l.1.18c0,.08.09.27,0,0,0,.13.09.26.13.39s0,.14,0,.2c-.08-.27,0-.14,0,0v.19c0,.2.07-.28,0-.08a.94.94,0,0,1,0,.16c0,.11-.13.18,0-.06-.06.09-.11.2-.17.29s.18-.2,0-.05l-.12.12s-.08.09-.12.11l.14-.11-.09.06-.14.08c-.16.09.27-.08.08,0l-.12,0c-.22.06.21,0,.1,0h-.15c-.11,0,.32.07.1,0s.17.11.08,0l-.16-.1a1.14,1.14,0,0,0-1.54.4,1.16,1.16,0,0,0,.4,1.54,2.28,2.28,0,0,0,2.39,0,3.09,3.09,0,0,0,1.41-1.76,3.44,3.44,0,0,0-.33-2.49,8.49,8.49,0,0,0-1.38-1.89,1.13,1.13,0,0,0-1.59,0A1.19,1.19,0,0,0,378.24,632.31Z" transform="translate(-282.81 -113.53)"/><path class="cls-2" d="M323.19,621.79c5.27,2.05,11.22,2.36,16.78,3.15,2.9.41,5.8.81,8.69,1.24a27,27,0,0,1,7.76,2,15.6,15.6,0,0,1,5.71,4.64,28.28,28.28,0,0,1,3.36,6.9c1.59,4,4.1,8.52,8.81,9.16,2,.26,4.73-.73,3.79-3.21a12,12,0,0,0-2.34-3.31,22.1,22.1,0,0,0-3.12-2.84c-1.15-.88-2.27,1.07-1.14,1.94A18.67,18.67,0,0,1,374,643.8a16.57,16.57,0,0,1,1.13,1.38c.15.21,1,1.12.87,1.32-.22.58-2.1,0-2.5-.11a7.19,7.19,0,0,1-2.52-1.66c-3.28-3.21-3.81-8.12-6.17-11.91a18,18,0,0,0-9.53-7.49c-4.68-1.58-9.88-1.86-14.74-2.56-5.55-.79-11.51-1.11-16.78-3.15C322.44,619.1,321.85,621.27,323.19,621.79Z" transform="translate(-282.81 -113.53)"/><path class="cls-2" d="M376,649.89a7.54,7.54,0,0,0-2.41,1.53,19.37,19.37,0,0,1-3,2.07,19.84,19.84,0,0,1-6.56,2.27,19.62,19.62,0,0,1-13.79-3.13c-1.21-.8-2.34,1.15-1.14,1.94a21.78,21.78,0,0,0,14.4,3.51,22,22,0,0,0,6.74-1.9,19.68,19.68,0,0,0,3.24-1.86c1-.7,2-1.87,3.12-2.27C378,651.59,377.39,649.41,376,649.89Z" transform="translate(-282.81 -113.53)"/><path class="cls-2" d="M351.08,631.88a4.41,4.41,0,0,0,0,3.61,2.62,2.62,0,0,0,2.76,1.19,1.9,1.9,0,0,0,.78-.38,2,2,0,0,0,.65-.93,1.15,1.15,0,0,0-.11-.87,1.16,1.16,0,0,0-.67-.52,1.15,1.15,0,0,0-.87.11,1.28,1.28,0,0,0-.52.67v0c0-.09.08-.18.11-.27a1.62,1.62,0,0,1-.1.18l.18-.23-.14.14.23-.18a.72.72,0,0,1-.19.11l.27-.11a.89.89,0,0,1-.28.07l.3,0h-.36l.3,0a1.6,1.6,0,0,1-.39-.11l.27.11a1.35,1.35,0,0,1-.33-.19l.23.18a1.36,1.36,0,0,1-.24-.24l.18.23a2.54,2.54,0,0,1-.16-.28c0,.09.08.18.11.27a2.13,2.13,0,0,1-.14-.51c0,.1,0,.2,0,.3a3,3,0,0,1,0-.73c0,.1,0,.2,0,.3a7.18,7.18,0,0,1,.36-1.36,1.15,1.15,0,0,0-.11-.87,1.16,1.16,0,0,0-.67-.52A1.18,1.18,0,0,0,351.08,631.88Z" transform="translate(-282.81 -113.53)"/><path class="cls-2" d="M355.05,641.89a2.88,2.88,0,0,0,.49,1.41,3.24,3.24,0,0,0,2.5,1.42,3,3,0,0,0,1.46-.3,1.16,1.16,0,0,0,.52-.67,1.2,1.2,0,0,0-.11-.87,1.16,1.16,0,0,0-.67-.52l-.3,0a1.16,1.16,0,0,0-.57.15l-.06,0,.27-.11a1.63,1.63,0,0,1-.42.11l.3,0a2.09,2.09,0,0,1-.5,0l.3,0a2.23,2.23,0,0,1-.52-.15l.27.11a2.25,2.25,0,0,1-.5-.29l.23.18a2,2,0,0,1-.38-.39l.18.23a2.75,2.75,0,0,1-.24-.41c0,.09.08.18.11.27a1.6,1.6,0,0,1-.11-.43c0,.1,0,.2,0,.3v0a1.25,1.25,0,0,0-.33-.8,1.13,1.13,0,0,0-1.6,0A1,1,0,0,0,355.05,641.89Z" transform="translate(-282.81 -113.53)"/><path class="cls-2" d="M342.72,633.15c0,.14,0,.29.08.43a1.35,1.35,0,0,1,.07.44s0-.08,0-.12,0,.09,0,.13a1.64,1.64,0,0,1,0,.22l0,.44v.39a1.8,1.8,0,0,1,0,.22c0,.22,0-.14,0,0s-.06.28-.1.42a.7.7,0,0,0-.06.19c0-.08.1-.22,0,0s-.1.18-.16.27-.15.21,0,0,0,0-.05.05-.25.21-.25.24.22-.16,0,0l-.14.09-.15.08c-.11.07.27-.09.06,0l-.31.08s.26,0,.11,0h-.16c-.13,0,.26.06.07,0l-.19,0a1.13,1.13,0,0,0-1.38.79,1.15,1.15,0,0,0,.79,1.38,3.26,3.26,0,0,0,3.65-1.65c.8-1.4.54-3,.26-4.55a1.14,1.14,0,0,0-1.38-.79A1.12,1.12,0,0,0,342.72,633.15Z" transform="translate(-282.81 -113.53)"/><path class="cls-2" d="M335.8,632.56a2.43,2.43,0,0,0-1,1.48,9.22,9.22,0,0,1-.29,1.15c0-.09.08-.18.11-.27a2,2,0,0,1-.18.32l.18-.23-.22.22.23-.18a1.17,1.17,0,0,1-.27.15l.27-.11a1,1,0,0,1-.34.09l.3,0h-.35l.3,0-.26-.07.27.11a.92.92,0,0,1-.27-.16l.23.18a1.52,1.52,0,0,1-.22-.22l.18.23a1.92,1.92,0,0,1-.18-.31c0,.09.08.18.11.27a1.09,1.09,0,0,1-.08-.31c0,.1,0,.2,0,.3a1.22,1.22,0,0,1,0-.27,1.13,1.13,0,0,0-1.93-.8,1.28,1.28,0,0,0-.33.8,2.43,2.43,0,0,0,1.05,2.09,2.28,2.28,0,0,0,2.09.25,2.43,2.43,0,0,0,1-.66,2.85,2.85,0,0,0,.54-1c.13-.41.15-.85.31-1.25,0,.09-.08.18-.11.27a1.64,1.64,0,0,1,.16-.29l-.18.23.15-.16-.23.18.09-.07a1.24,1.24,0,0,0,.52-.67,1.2,1.2,0,0,0-.11-.87A1.13,1.13,0,0,0,335.8,632.56Z" transform="translate(-282.81 -113.53)"/><path class="cls-2" d="M338.39,642.33c0,.22,0,.43-.07.65,0-.1,0-.2,0-.3a5.93,5.93,0,0,1-.24,1.11,2.15,2.15,0,0,1-.1.27c0,.16,0-.06,0-.09s0,.08-.05.12a3.1,3.1,0,0,1-.29.5c-.09.13.06-.09.07-.09s-.06.08-.07.09l-.18.19a1.72,1.72,0,0,0-.19.17s.23-.16.09-.07l-.09.06-.22.13-.1,0c-.12.06.26-.1.09,0l-.48.12.3,0a2,2,0,0,1-.49,0l.3,0a1.16,1.16,0,0,1-.32-.08,1.12,1.12,0,0,0-.59,2.17,3.42,3.42,0,0,0,3.54-1.14,6.57,6.57,0,0,0,1.29-3.81,1.12,1.12,0,0,0-1.12-1.12A1.14,1.14,0,0,0,338.39,642.33Z" transform="translate(-282.81 -113.53)"/><path class="cls-2" d="M341.4,576a56,56,0,0,1-8.75,31.92c-.78,1.22,1.17,2.35,1.94,1.14A58.08,58.08,0,0,0,343.65,576C343.6,574.52,341.35,574.51,341.4,576Z" transform="translate(-282.81 -113.53)"/><path class="cls-2" d="M392.67,639a43.62,43.62,0,0,1,1.27,23.35c-.31,1.41,1.86,2,2.17.6a45.9,45.9,0,0,0-1.27-24.54C394.39,637.05,392.21,637.63,392.67,639Z" transform="translate(-282.81 -113.53)"/><path class="cls-1" d="M351.89,278.62c-.74,1.4-2.83.46-4.14-.43a16.09,16.09,0,0,0-7.71-2.74c-3.47-.29-7.31.46-10.16-1.53a40.66,40.66,0,0,0,17.38-9.48c1.91-1.77,3.76-3.79,6.24-4.58a77,77,0,0,1,2.83,16.64,6.29,6.29,0,0,1-.57,3.7c-.66,1.08-2.27,1.68-3.24.86" transform="translate(-282.81 -113.53)"/><path class="cls-1" d="M350.6,277.87c.16,0,.16,0,0,0a1.79,1.79,0,0,1-.46-.09,4,4,0,0,1-.82-.36c-.79-.42-1.5-1-2.29-1.39a17.54,17.54,0,0,0-5.5-1.86c-3.53-.55-7.75.54-10.89-1.51-.12.91-.24,1.83-.36,2.73a41.74,41.74,0,0,0,18.18-10c1.65-1.52,3.25-3.29,5.43-4.06l-1.85-1a75.41,75.41,0,0,1,2.33,11.33c.23,1.82.42,3.66.47,5.49,0,.72-.17,3.66-1.57,2.69-1.59-1.1-3.09,1.5-1.51,2.59a3.77,3.77,0,0,0,5-1c1.45-1.82,1.13-4.36,1-6.52A80.55,80.55,0,0,0,355,259.48a1.52,1.52,0,0,0-1.85-1.05c-4.3,1.5-7.15,5.57-10.81,8.13a39.91,39.91,0,0,1-12.81,5.93,1.52,1.52,0,0,0-.36,2.74c4,2.62,8.92,1,13.31,2.17a13.56,13.56,0,0,1,3.27,1.31c.91.5,1.74,1.15,2.69,1.57,1.73.78,3.66.86,4.8-.88S351.65,276.27,350.6,277.87Z" transform="translate(-282.81 -113.53)"/><path class="cls-1" d="M357.94,272.09a13.31,13.31,0,0,1,8.84-.74,1.5,1.5,0,1,0,.8-2.9,16.5,16.5,0,0,0-11.15,1,1.5,1.5,0,0,0,1.51,2.6Z" transform="translate(-282.81 -113.53)"/><path class="cls-1" d="M378.91,271.1l7.62-1.46a1.52,1.52,0,0,0,1.05-1.85,1.55,1.55,0,0,0-1.85-1.05l-7.62,1.46a1.52,1.52,0,0,0-1.05,1.85A1.54,1.54,0,0,0,378.91,271.1Z" transform="translate(-282.81 -113.53)"/><path class="cls-1" d="M398.87,269.85l6.38-1.3a1.51,1.51,0,0,0,1.05-1.85,1.53,1.53,0,0,0-1.85-1.05l-6.38,1.3A1.51,1.51,0,0,0,397,268.8,1.54,1.54,0,0,0,398.87,269.85Z" transform="translate(-282.81 -113.53)"/><path class="cls-1" d="M369.65,414q-.86,8.48-1.72,16.94a142.05,142.05,0,0,0-22.47-9.1,215.24,215.24,0,0,1,24.64-8.13" transform="translate(-282.81 -113.53)"/><path class="cls-1" d="M368.15,414q-.86,8.48-1.72,16.94l2.26-1.3a147.05,147.05,0,0,0-22.83-9.25v2.89a219.22,219.22,0,0,1,24.64-8.13,1.5,1.5,0,0,0-.8-2.89,217.87,217.87,0,0,0-24.64,8.13,1.51,1.51,0,0,0,0,2.89,142.61,142.61,0,0,1,22.12,8.95,1.52,1.52,0,0,0,2.26-1.3q.85-8.47,1.72-16.94C371.34,412,368.34,412,368.15,414Z" transform="translate(-282.81 -113.53)"/><path class="cls-1" d="M369.61,424.29l12.28,1.12a1.51,1.51,0,0,0,1.5-1.5,1.53,1.53,0,0,0-1.5-1.5l-12.28-1.12a1.5,1.5,0,0,0,0,3Z" transform="translate(-282.81 -113.53)"/><path class="cls-1" d="M395.82,426.78l10.62.88a1.51,1.51,0,0,0,1.5-1.5,1.53,1.53,0,0,0-1.5-1.5l-10.62-.88a1.51,1.51,0,0,0-1.5,1.5A1.54,1.54,0,0,0,395.82,426.78Z" transform="translate(-282.81 -113.53)"/><path class="cls-1" d="M397.91,551.44q-.24,6.94-.49,13.9a1.38,1.38,0,0,1-.34,1,1.4,1.4,0,0,1-.91.21l-18-.11c-2.14,0-4.47-.09-6.11-1.45a115.2,115.2,0,0,1,24.14-15.14" transform="translate(-282.81 -113.53)"/><path class="cls-1" d="M396.41,551.44c-.12,3.31-.23,6.62-.35,9.93l-.09,2.48a6.27,6.27,0,0,0-.05,1.49c0,.06,0,.12,0,.17l.27-.42c-.18-.24-2.12,0-2.5,0l-2.75,0-10-.06c-2.64,0-5.87.44-8.11-1.27l.3,2.36A115.63,115.63,0,0,1,397,551.17c1.75-.82.23-3.4-1.51-2.59A118.41,118.41,0,0,0,371,564a1.53,1.53,0,0,0,.3,2.36c2.62,2,6.26,1.65,9.37,1.67l12,.07,3,0a3.66,3.66,0,0,0,2.16-.41c1.37-.94,1.1-2.89,1.15-4.33l.42-11.91C399.48,549.51,396.48,549.51,396.41,551.44Z" transform="translate(-282.81 -113.53)"/><path class="cls-1" d="M400.62,561.56a21.94,21.94,0,0,1,3.55-1l.89-.15c.45-.07-.3,0,.15,0l.48,0c.62-.06,1.25-.1,1.87-.11a1.5,1.5,0,0,0,0-3,24.4,24.4,0,0,0-7.75,1.41,1.5,1.5,0,1,0,.81,2.89Z" transform="translate(-282.81 -113.53)"/><path class="cls-1" d="M424.85,559.08h5a1.5,1.5,0,0,0,0-3h-5a1.5,1.5,0,0,0,0,3Z" transform="translate(-282.81 -113.53)"/></svg>