<svg id="_01_Pink" data-name="01_Pink" xmlns="http://www.w3.org/2000/svg" viewBox="0 0 88.01 88.59"><defs><style>.cls-1{fill:#ed1e79;stroke:#ed1e79;stroke-width:3px;}.cls-1,.cls-2{stroke-miterlimit:10;}.cls-2{stroke:#000;stroke-width:0.5px;}</style></defs><path class="cls-1" d="M16.58,24.15c5-5.21,10.16-10.11,16.85-13C46.6,5.31,62,7.26,73.81,15.28A44.9,44.9,0,0,1,91.62,39.8a36.11,36.11,0,0,1-4,29.42A52.88,52.88,0,0,1,68.4,88c-4.77,2.7-10.18,5-15.71,5.33a39,39,0,0,1-17.6-3.48A47.18,47.18,0,0,1,15.62,74.4C6.92,62.35,6,47.51,11.73,34c.83-1.94,1.72-3.86,2.64-5.76.79-1.65,1.48-3.72,2.94-4.91" transform="translate(-6.61 -6.27)"/><path class="cls-2" d="M45,18.19A58,58,0,0,1,51.47,18a2,2,0,0,1,1.26.38,2.31,2.31,0,0,1,.63,1,8.49,8.49,0,0,1,.4,2.92,14.79,14.79,0,0,1-.4,3.1.58.58,0,0,1-.24.41,2.65,2.65,0,0,1-.73.26,10.31,10.31,0,0,1-1.45.2c-1.08.09-2.16.18-3.25.22l-.78,0h-.39a1.36,1.36,0,0,1-.45,0c-.06,0,0,0-.09,0s-.06-.13-.08-.19a1.91,1.91,0,0,1-.1-.34,5,5,0,0,1-.13-.76c-.15-1.2-.28-2.4-.38-3.6,0-.59-.09-1.18-.13-1.77,0-.32,0-.63,0-.95a1.25,1.25,0,0,1,.07-.74.34.34,0,0,0-.59-.34,2.74,2.74,0,0,0-.13,1.53q0,.91.12,1.83c.1,1.22.22,2.44.36,3.65a7.24,7.24,0,0,0,.31,1.67,1.12,1.12,0,0,0,.36.61,1.42,1.42,0,0,0,.79.12c1.24,0,2.47-.08,3.7-.18a8.75,8.75,0,0,0,3.29-.58c.49-.25.58-.66.69-1.16s.21-1.13.28-1.71a11.34,11.34,0,0,0-.11-3.44,3.54,3.54,0,0,0-1.34-2.46,3.15,3.15,0,0,0-1.63-.36c-.69,0-1.37,0-2.06,0-1.41,0-2.81.08-4.21.18-.43,0-.44.71,0,.67Z" transform="translate(-6.61 -6.27)"/><path class="cls-2" d="M45.85,19.28c0,1.27,0,2.54.08,3.81,0,.44.69.44.67,0-.05-1.27-.07-2.54-.07-3.81a.34.34,0,0,0-.68,0Z" transform="translate(-6.61 -6.27)"/><path class="cls-2" d="M47,20.38a16.12,16.12,0,0,0,.18,4.22.34.34,0,0,0,.41.24.35.35,0,0,0,.24-.42,16.07,16.07,0,0,1-.16-4c0-.43-.63-.43-.67,0Z" transform="translate(-6.61 -6.27)"/><path class="cls-2" d="M48.87,19.41a8,8,0,0,0-.14,2.23.35.35,0,0,0,.34.34.34.34,0,0,0,.34-.34,7,7,0,0,1,.12-2.05.34.34,0,0,0-.24-.41.35.35,0,0,0-.42.23Z" transform="translate(-6.61 -6.27)"/><path class="cls-2" d="M50.37,20.79l.39,3a.34.34,0,0,0,.33.33c.17,0,.37-.15.34-.33l-.38-3a.34.34,0,0,0-.68,0Z" transform="translate(-6.61 -6.27)"/><path class="cls-2" d="M51.77,19.38a15.45,15.45,0,0,0,0,4.94.34.34,0,0,0,.41.24.35.35,0,0,0,.24-.42,14.66,14.66,0,0,1,0-4.58c.08-.43-.58-.61-.65-.18Z" transform="translate(-6.61 -6.27)"/><path class="cls-2" d="M45,27.77c-1.31,2.45-2.85,4.76-4.39,7.07-.76,1.14-1.51,2.29-2.24,3.45q-.57.91-1.08,1.86A6.06,6.06,0,0,0,36.53,42,1.94,1.94,0,0,0,37,43.68a1.33,1.33,0,0,0,1.65.18c.36-.25,0-.84-.34-.59a.72.72,0,0,1-1.07-.43,2.08,2.08,0,0,1,.21-1.56A31.19,31.19,0,0,1,39.35,38c1.34-2.11,2.77-4.16,4.1-6.27.75-1.18,1.47-2.39,2.13-3.63.21-.38-.38-.73-.58-.34Z" transform="translate(-6.61 -6.27)"/><path class="cls-2" d="M54,27.72c.92.56,1.39,1.66,2,2.47s1.64,1.8,2.41,2.73a32.29,32.29,0,0,1,2.14,2.93A16.19,16.19,0,0,1,62.36,39c.36,1,.37,2.4-.73,3-.39.2,0,.78.34.58a2.66,2.66,0,0,0,1.29-2.63,8.69,8.69,0,0,0-1.51-3.52,33.24,33.24,0,0,0-2.21-3.21c-.81-1-1.71-2-2.58-3a19.11,19.11,0,0,1-1.27-1.69,4.51,4.51,0,0,0-1.32-1.36.34.34,0,0,0-.34.59Z" transform="translate(-6.61 -6.27)"/><path class="cls-2" d="M59.54,42c-1.16.33-2.32.63-3.5.9-.43.09-.25.74.18.65,1.18-.27,2.34-.57,3.5-.9a.34.34,0,0,0-.18-.65Z" transform="translate(-6.61 -6.27)"/><path class="cls-2" d="M40,44.11a24.66,24.66,0,0,0,9.57.2c.43-.07.25-.73-.18-.65a23.8,23.8,0,0,1-9.21-.2c-.42-.1-.6.55-.18.65Z" transform="translate(-6.61 -6.27)"/><path class="cls-2" d="M40.57,49.93a20.56,20.56,0,0,0,2.93.25.34.34,0,0,0,0-.67,18.13,18.13,0,0,1-2.75-.24.35.35,0,0,0-.41.24.34.34,0,0,0,.23.42Z" transform="translate(-6.61 -6.27)"/><path class="cls-2" d="M60.64,48a33.22,33.22,0,0,1-6.87.87.34.34,0,0,0,0,.68,33.53,33.53,0,0,0,7-.9c.42-.09.24-.75-.18-.65Z" transform="translate(-6.61 -6.27)"/><path class="cls-2" d="M40.44,55.73a31,31,0,0,0,8.82,0c.43-.06.25-.71-.18-.65a30,30,0,0,1-8.46,0c-.42-.06-.61.59-.18.65Z" transform="translate(-6.61 -6.27)"/><path class="cls-2" d="M60.33,54.41a6.14,6.14,0,0,1-2.12.32.34.34,0,0,0-.34.33.34.34,0,0,0,.34.34,6.42,6.42,0,0,0,2.3-.34.35.35,0,0,0,.23-.42.33.33,0,0,0-.41-.23Z" transform="translate(-6.61 -6.27)"/><path class="cls-2" d="M38.45,43.32a4.67,4.67,0,0,0-1.9,3.6,2.94,2.94,0,0,0,.57,2,2,2,0,0,0,1.74.78c.43,0,.43-.72,0-.68a1.4,1.4,0,0,1-1.28-.61,2.45,2.45,0,0,1-.33-1.72,3.88,3.88,0,0,1,1.54-2.81c.37-.24,0-.83-.34-.59Z" transform="translate(-6.61 -6.27)"/><path class="cls-2" d="M61.81,42.79a3.51,3.51,0,0,1,2.08,2.71c.18,1.39-1,2.16-2,2.76a.34.34,0,0,0,.34.58,6.05,6.05,0,0,0,1.75-1.3,2.7,2.7,0,0,0,.62-2.13A4.22,4.22,0,0,0,62,42.14a.34.34,0,1,0-.18.65Z" transform="translate(-6.61 -6.27)"/><path class="cls-2" d="M38.59,49.19a5.39,5.39,0,0,0-1.78,3.55,2.89,2.89,0,0,0,.46,2,1.73,1.73,0,0,0,1.66.69c.43-.07.24-.72-.18-.65a1.13,1.13,0,0,1-1.11-.73,3,3,0,0,1-.1-1.67,4.75,4.75,0,0,1,1.53-2.71c.33-.29-.15-.77-.48-.48Z" transform="translate(-6.61 -6.27)"/><path class="cls-2" d="M61.94,49a3.29,3.29,0,0,1,1.59.77,2.14,2.14,0,0,1,.85,1.55A3.18,3.18,0,0,1,63.46,53,6.42,6.42,0,0,1,62,54.21a.34.34,0,0,0,.34.59,7.23,7.23,0,0,0,1.74-1.47,3.42,3.42,0,0,0,1-2.07,2.81,2.81,0,0,0-1-1.91,4,4,0,0,0-1.92-1c-.43-.08-.61.58-.18.66Z" transform="translate(-6.61 -6.27)"/><path class="cls-2" d="M62.37,54.92A2.41,2.41,0,0,1,64.06,57c.11,1.1-.77,1.83-1.56,2.44a.34.34,0,0,0-.12.46.32.32,0,0,0,.46.12c1-.77,2-1.71,1.88-3.11a3.06,3.06,0,0,0-2.17-2.65.34.34,0,0,0-.18.65Z" transform="translate(-6.61 -6.27)"/><path class="cls-2" d="M38.71,55a5.75,5.75,0,0,0-1.55,3.71c0,1.25.47,2.9,2,2.9a.34.34,0,0,0,0-.67c-1.22,0-1.37-1.61-1.29-2.51a5,5,0,0,1,1.33-2.95c.3-.32-.18-.8-.48-.48Z" transform="translate(-6.61 -6.27)"/><path class="cls-2" d="M39.23,61.2a4.94,4.94,0,0,0-1.5,3.58,2.87,2.87,0,0,0,2,2.74.34.34,0,0,0,.18-.66,2.2,2.2,0,0,1-1.51-2.28,4.22,4.22,0,0,1,1.3-2.9.34.34,0,0,0-.48-.48Z" transform="translate(-6.61 -6.27)"/><path class="cls-2" d="M62.41,60.36a4,4,0,0,1,2.38,3,2.44,2.44,0,0,1-1.51,2.74.34.34,0,0,0,.18.65,3.12,3.12,0,0,0,2-3.39,4.67,4.67,0,0,0-2.88-3.61c-.41-.16-.59.5-.18.65Z" transform="translate(-6.61 -6.27)"/><path class="cls-2" d="M39.57,67.05a5.28,5.28,0,0,0-1.47,2,11.52,11.52,0,0,0-.87,2.47,1.93,1.93,0,0,0,.07,1.32,4.61,4.61,0,0,0,.78,1c.53.56,1.26,1.23,2.08.85.39-.19.05-.77-.34-.59s-.61-.13-.8-.29a7.29,7.29,0,0,1-.73-.74,1.55,1.55,0,0,1-.48-.86A3.64,3.64,0,0,1,38,71.14a11,11,0,0,1,.74-1.9,4.38,4.38,0,0,1,1.14-1.6c.35-.26,0-.84-.34-.59Z" transform="translate(-6.61 -6.27)"/><path class="cls-2" d="M62.69,67.09c.65.16,1.05,1,1.37,1.48a3.23,3.23,0,0,1,.56,2.25,4.05,4.05,0,0,1-2.42,3c-.4.17-.23.83.18.66a4.75,4.75,0,0,0,2.92-3.71,3.93,3.93,0,0,0-.71-2.67c-.42-.66-.9-1.5-1.72-1.7-.42-.1-.6.55-.18.65Z" transform="translate(-6.61 -6.27)"/><path class="cls-2" d="M39.82,74.55A5,5,0,0,0,38.27,78a3.42,3.42,0,0,0,2,2.58A13.51,13.51,0,0,0,44,81.8c1.32.26,2.66.44,4,.57a35.43,35.43,0,0,0,8-.15,27.27,27.27,0,0,0,3.9-.81,15,15,0,0,0,3.43-1.31,3.22,3.22,0,0,0,1.83-3c-.08-1.22-.7-3.08-2.26-2.77-.43.08-.25.73.18.65s1,.44,1.13.9a3.88,3.88,0,0,1,.27,1.68,2.81,2.81,0,0,1-1.74,2.06,16.16,16.16,0,0,1-3.12,1.14,29.82,29.82,0,0,1-3.5.74,33.8,33.8,0,0,1-7.18.24c-1.21-.09-2.4-.22-3.6-.41a20.66,20.66,0,0,1-3.46-.8,4.6,4.6,0,0,1-2.83-2c-.59-1.29.43-2.6,1.2-3.55.27-.34-.21-.82-.48-.48Z" transform="translate(-6.61 -6.27)"/><path class="cls-2" d="M42.08,75.13a8.4,8.4,0,0,0,3,.29.36.36,0,0,0,.34-.34.34.34,0,0,0-.34-.34,7.84,7.84,0,0,1-2.81-.26.34.34,0,0,0-.18.65Z" transform="translate(-6.61 -6.27)"/><path class="cls-2" d="M48.14,75.45a23.61,23.61,0,0,0,12.27-1.53c.4-.16.22-.82-.18-.65a22.89,22.89,0,0,1-11.91,1.52.37.37,0,0,0-.42.24.35.35,0,0,0,.24.42Z" transform="translate(-6.61 -6.27)"/><path class="cls-2" d="M60.82,66.33l-.17.09-.1,0h0l-.38.13-.39.08s-.12,0,0,0h-.1l-.21,0a.34.34,0,0,0-.34.34.34.34,0,0,0,.34.33,4,4,0,0,0,1.75-.48.34.34,0,1,0-.34-.59Z" transform="translate(-6.61 -6.27)"/><path class="cls-2" d="M41.48,68a28.11,28.11,0,0,0,8.19.19c.43,0,.43-.73,0-.67a28.29,28.29,0,0,1-8-.17c-.42-.07-.61.58-.18.65Z" transform="translate(-6.61 -6.27)"/><path class="cls-2" d="M41.3,61.72a9.2,9.2,0,0,0,3.05.27.34.34,0,0,0,.34-.34.34.34,0,0,0-.34-.33,8.94,8.94,0,0,1-2.87-.25c-.43-.11-.61.55-.18.65Z" transform="translate(-6.61 -6.27)"/><path class="cls-2" d="M53.71,61.43a20.48,20.48,0,0,0,7.9-.71c.41-.12.24-.78-.18-.65a20,20,0,0,1-7.72.68c-.44,0-.43.63,0,.68Z" transform="translate(-6.61 -6.27)"/></svg>