<svg id="_01_Black" data-name="01_Black" xmlns="http://www.w3.org/2000/svg" viewBox="0 0 88.01 88.59"><defs><style>.cls-1,.cls-2{stroke:#ed1e79;stroke-miterlimit:10;}.cls-1{stroke-width:3px;}.cls-2{fill:#ed1e79;stroke-width:0.5px;}</style></defs><path class="cls-1" d="M16.22,23.63c5-5.21,10.16-10.11,16.85-13,13.17-5.8,28.52-3.85,40.38,4.17A44.9,44.9,0,0,1,91.26,39.28a36.11,36.11,0,0,1-4,29.42A52.88,52.88,0,0,1,68,87.45c-4.77,2.7-10.18,5-15.71,5.33a39,39,0,0,1-17.6-3.48A47.18,47.18,0,0,1,15.26,73.88c-8.7-12-9.63-26.89-3.89-40.41.83-1.94,1.72-3.86,2.64-5.76C14.8,26.06,15.49,24,17,22.8" transform="translate(-6.24 -5.75)"/><path class="cls-2" d="M44.65,17.67a58,58,0,0,1,6.46-.16,2,2,0,0,1,1.26.38,2.4,2.4,0,0,1,.63,1,8.49,8.49,0,0,1,.4,2.92,14.81,14.81,0,0,1-.41,3.1.54.54,0,0,1-.23.41,2.77,2.77,0,0,1-.73.26,10.31,10.31,0,0,1-1.45.2c-1.08.09-2.17.18-3.25.22l-.78,0h-.4a1.36,1.36,0,0,1-.45,0c-.06,0,0,0-.08,0s-.06-.13-.08-.19a3.38,3.38,0,0,1-.11-.34c-.06-.25-.09-.51-.13-.76-.15-1.2-.27-2.4-.37-3.6,0-.59-.09-1.18-.13-1.78,0-.31,0-.62,0-.94a1.33,1.33,0,0,1,.06-.74.34.34,0,0,0-.58-.34,2.62,2.62,0,0,0-.14,1.52c0,.62.08,1.23.13,1.84.09,1.22.21,2.44.36,3.65a7.8,7.8,0,0,0,.3,1.67,1.2,1.2,0,0,0,.37.61,1.42,1.42,0,0,0,.79.12c1.24,0,2.47-.08,3.7-.18A8.78,8.78,0,0,0,53,26a1.41,1.41,0,0,0,.68-1.16A13.85,13.85,0,0,0,54,23.09a11.34,11.34,0,0,0-.1-3.44,3.54,3.54,0,0,0-1.34-2.46,3.19,3.19,0,0,0-1.63-.36c-.69,0-1.38,0-2.06,0-1.41,0-2.81.08-4.21.18-.44,0-.44.71,0,.67Z" transform="translate(-6.24 -5.75)"/><path class="cls-2" d="M45.49,18.76c0,1.27,0,2.54.07,3.81,0,.44.7.44.68,0-.05-1.27-.07-2.54-.07-3.81a.34.34,0,0,0-.68,0Z" transform="translate(-6.24 -5.75)"/><path class="cls-2" d="M46.63,19.86a16.56,16.56,0,0,0,.17,4.22.34.34,0,1,0,.66-.18,15.61,15.61,0,0,1-.16-4c0-.43-.64-.43-.67,0Z" transform="translate(-6.24 -5.75)"/><path class="cls-2" d="M48.51,18.89a8,8,0,0,0-.14,2.23.35.35,0,0,0,.34.34.34.34,0,0,0,.34-.34,7.4,7.4,0,0,1,.11-2.05.34.34,0,0,0-.23-.41.35.35,0,0,0-.42.23Z" transform="translate(-6.24 -5.75)"/><path class="cls-2" d="M50,20.27l.38,3a.35.35,0,0,0,.34.33.34.34,0,0,0,.34-.33l-.38-3a.34.34,0,0,0-.68,0Z" transform="translate(-6.24 -5.75)"/><path class="cls-2" d="M51.41,18.86a15.17,15.17,0,0,0,0,4.94.34.34,0,0,0,.41.24.35.35,0,0,0,.24-.42,14.36,14.36,0,0,1,0-4.58c.07-.43-.58-.61-.65-.18Z" transform="translate(-6.24 -5.75)"/><path class="cls-2" d="M44.64,27.25c-1.31,2.45-2.85,4.76-4.39,7.07-.76,1.14-1.52,2.29-2.24,3.45-.38.61-.75,1.23-1.09,1.86a5.79,5.79,0,0,0-.75,1.82,1.9,1.9,0,0,0,.47,1.71,1.35,1.35,0,0,0,1.66.18c.35-.25,0-.84-.34-.59a.72.72,0,0,1-1.07-.43,2.08,2.08,0,0,1,.21-1.56A31.19,31.19,0,0,1,39,37.49c1.34-2.11,2.76-4.16,4.1-6.27.75-1.18,1.47-2.39,2.13-3.63.21-.38-.38-.73-.58-.34Z" transform="translate(-6.24 -5.75)"/><path class="cls-2" d="M53.66,27.2c.92.56,1.4,1.66,2.06,2.47s1.64,1.8,2.41,2.73a32.29,32.29,0,0,1,2.14,2.93A16.19,16.19,0,0,1,62,38.46c.36,1,.36,2.4-.73,3-.39.2-.05.78.34.58a2.66,2.66,0,0,0,1.29-2.63,8.69,8.69,0,0,0-1.51-3.52,33.24,33.24,0,0,0-2.21-3.21c-.81-1-1.71-2-2.58-3A17.34,17.34,0,0,1,55.33,28,4.63,4.63,0,0,0,54,26.61a.34.34,0,0,0-.35.59Z" transform="translate(-6.24 -5.75)"/><path class="cls-2" d="M59.18,41.45c-1.16.33-2.33.63-3.5.89-.43.1-.25.75.18.66,1.17-.27,2.34-.57,3.5-.9a.34.34,0,0,0-.18-.65Z" transform="translate(-6.24 -5.75)"/><path class="cls-2" d="M39.61,43.59a24.66,24.66,0,0,0,9.57.2c.43-.07.25-.73-.18-.65a23.79,23.79,0,0,1-9.21-.2c-.42-.1-.6.55-.18.65Z" transform="translate(-6.24 -5.75)"/><path class="cls-2" d="M40.21,49.41a20.55,20.55,0,0,0,2.92.25.34.34,0,0,0,0-.67,18.11,18.11,0,0,1-2.74-.24A.35.35,0,0,0,40,49a.34.34,0,0,0,.23.42Z" transform="translate(-6.24 -5.75)"/><path class="cls-2" d="M60.28,47.47a33.22,33.22,0,0,1-6.87.87.34.34,0,0,0,0,.68,33.61,33.61,0,0,0,7.05-.9c.42-.09.24-.75-.18-.65Z" transform="translate(-6.24 -5.75)"/><path class="cls-2" d="M40.08,55.21a31,31,0,0,0,8.82,0c.43-.06.24-.72-.18-.65a30,30,0,0,1-8.46,0c-.43-.06-.61.59-.18.65Z" transform="translate(-6.24 -5.75)"/><path class="cls-2" d="M60,53.88a5.92,5.92,0,0,1-2.12.33.34.34,0,0,0-.34.33.34.34,0,0,0,.34.34,6.42,6.42,0,0,0,2.3-.34.35.35,0,0,0,.23-.42.34.34,0,0,0-.41-.24Z" transform="translate(-6.24 -5.75)"/><path class="cls-2" d="M38.09,42.8a4.67,4.67,0,0,0-1.9,3.6,2.89,2.89,0,0,0,.57,2,2,2,0,0,0,1.74.78c.43,0,.43-.72,0-.68a1.39,1.39,0,0,1-1.28-.61,2.45,2.45,0,0,1-.33-1.72,3.88,3.88,0,0,1,1.54-2.81c.36-.24,0-.83-.34-.59Z" transform="translate(-6.24 -5.75)"/><path class="cls-2" d="M61.45,42.27A3.53,3.53,0,0,1,63.53,45c.18,1.39-1,2.16-2,2.76a.34.34,0,0,0,.34.58A6.05,6.05,0,0,0,63.58,47a2.66,2.66,0,0,0,.61-2.13,4.19,4.19,0,0,0-2.56-3.27.34.34,0,0,0-.42.24.34.34,0,0,0,.24.41Z" transform="translate(-6.24 -5.75)"/><path class="cls-2" d="M38.23,48.67a5.39,5.39,0,0,0-1.78,3.55,2.89,2.89,0,0,0,.46,2,1.71,1.71,0,0,0,1.65.69c.43-.07.25-.72-.18-.65a1.13,1.13,0,0,1-1.1-.73,3.06,3.06,0,0,1-.11-1.67,4.83,4.83,0,0,1,1.54-2.71c.32-.29-.16-.77-.48-.48Z" transform="translate(-6.24 -5.75)"/><path class="cls-2" d="M61.58,48.51a3.29,3.29,0,0,1,1.59.77A2.13,2.13,0,0,1,64,50.83a3.09,3.09,0,0,1-.91,1.64,6.27,6.27,0,0,1-1.49,1.22.34.34,0,0,0,.35.59,7.23,7.23,0,0,0,1.74-1.47,3.42,3.42,0,0,0,1-2.07,2.85,2.85,0,0,0-1-1.91,4,4,0,0,0-1.92-1c-.43-.08-.61.58-.18.66Z" transform="translate(-6.24 -5.75)"/><path class="cls-2" d="M62,54.4a2.41,2.41,0,0,1,1.69,2.09c.11,1.1-.77,1.83-1.56,2.44a.35.35,0,0,0-.13.46.34.34,0,0,0,.47.12c1-.77,2.05-1.71,1.88-3.11a3.06,3.06,0,0,0-2.17-2.65.34.34,0,0,0-.18.65Z" transform="translate(-6.24 -5.75)"/><path class="cls-2" d="M38.35,54.49A5.75,5.75,0,0,0,36.8,58.2c0,1.25.47,2.9,2,2.9a.34.34,0,0,0,0-.67c-1.22,0-1.37-1.61-1.3-2.51a5,5,0,0,1,1.34-3c.3-.32-.18-.8-.48-.48Z" transform="translate(-6.24 -5.75)"/><path class="cls-2" d="M38.87,60.68a4.94,4.94,0,0,0-1.5,3.58,2.87,2.87,0,0,0,2,2.74.34.34,0,0,0,.18-.66,2.2,2.2,0,0,1-1.51-2.28,4.22,4.22,0,0,1,1.3-2.9.34.34,0,0,0-.48-.48Z" transform="translate(-6.24 -5.75)"/><path class="cls-2" d="M62.05,59.84a4,4,0,0,1,2.38,3,2.46,2.46,0,0,1-1.51,2.74.34.34,0,0,0,.18.65,3.12,3.12,0,0,0,2-3.39,4.67,4.67,0,0,0-2.88-3.61c-.41-.16-.59.5-.18.65Z" transform="translate(-6.24 -5.75)"/><path class="cls-2" d="M39.21,66.53a5.28,5.28,0,0,0-1.47,2A11.52,11.52,0,0,0,36.87,71a1.88,1.88,0,0,0,.07,1.32,4.61,4.61,0,0,0,.78,1c.53.56,1.26,1.23,2.08.85.39-.19.05-.77-.35-.59s-.6-.13-.79-.29a6.38,6.38,0,0,1-.73-.74,1.49,1.49,0,0,1-.48-.86,3.64,3.64,0,0,1,.22-1.07,10.24,10.24,0,0,1,.74-1.9,4.38,4.38,0,0,1,1.14-1.6c.35-.26,0-.84-.34-.59Z" transform="translate(-6.24 -5.75)"/><path class="cls-2" d="M62.33,66.57c.64.16,1.05,1,1.36,1.48a3.18,3.18,0,0,1,.57,2.25,4,4,0,0,1-2.43,3c-.39.17-.22.82.18.66a4.74,4.74,0,0,0,2.93-3.71,4,4,0,0,0-.71-2.67c-.42-.66-.9-1.5-1.72-1.7-.42-.1-.6.55-.18.65Z" transform="translate(-6.24 -5.75)"/><path class="cls-2" d="M39.45,74c-.79,1-1.67,2.12-1.54,3.46a3.4,3.4,0,0,0,2,2.58,13.51,13.51,0,0,0,3.72,1.21c1.32.26,2.66.44,4,.57a35.46,35.46,0,0,0,8-.15,27.27,27.27,0,0,0,3.9-.81A15,15,0,0,0,63,79.58a3.22,3.22,0,0,0,1.83-3c-.08-1.22-.7-3.08-2.27-2.77-.42.08-.24.73.18.65.57-.11,1,.44,1.14.9a3.88,3.88,0,0,1,.27,1.68,2.83,2.83,0,0,1-1.74,2.06,16.41,16.41,0,0,1-3.12,1.14,29.82,29.82,0,0,1-3.5.74,33.87,33.87,0,0,1-7.19.24c-1.2-.09-2.4-.22-3.59-.41a20.43,20.43,0,0,1-3.46-.8,4.57,4.57,0,0,1-2.83-2c-.59-1.29.43-2.6,1.19-3.55.27-.34-.2-.82-.48-.48Z" transform="translate(-6.24 -5.75)"/><path class="cls-2" d="M41.72,74.61a8.4,8.4,0,0,0,3,.29.36.36,0,0,0,.34-.34.34.34,0,0,0-.34-.34A7.82,7.82,0,0,1,41.9,74a.34.34,0,0,0-.18.65Z" transform="translate(-6.24 -5.75)"/><path class="cls-2" d="M47.78,74.93A23.61,23.61,0,0,0,60.05,73.4c.4-.16.22-.82-.18-.65A22.89,22.89,0,0,1,48,74.27a.37.37,0,0,0-.42.24.35.35,0,0,0,.24.42Z" transform="translate(-6.24 -5.75)"/><path class="cls-2" d="M60.46,65.81l-.17.09-.11,0h0l-.39.13-.38.08a.29.29,0,1,0,0,0h-.09l-.22,0a.33.33,0,0,0-.33.33.33.33,0,0,0,.33.34,4,4,0,0,0,1.76-.48.34.34,0,0,0,.12-.47.34.34,0,0,0-.46-.12Z" transform="translate(-6.24 -5.75)"/><path class="cls-2" d="M41.12,67.45a28.1,28.1,0,0,0,8.19.19c.43,0,.43-.73,0-.67a28.29,28.29,0,0,1-8-.17c-.42-.07-.61.58-.18.65Z" transform="translate(-6.24 -5.75)"/><path class="cls-2" d="M40.94,61.2a9.2,9.2,0,0,0,3.05.27.34.34,0,0,0,.33-.34A.33.33,0,0,0,44,60.8a8.92,8.92,0,0,1-2.87-.25c-.43-.11-.61.55-.18.65Z" transform="translate(-6.24 -5.75)"/><path class="cls-2" d="M53.35,60.91a20.41,20.41,0,0,0,7.89-.71.34.34,0,0,0-.18-.65,19.88,19.88,0,0,1-7.71.68c-.44,0-.43.63,0,.68Z" transform="translate(-6.24 -5.75)"/></svg>