<svg id="_03_Pink" data-name="03_Pink" xmlns="http://www.w3.org/2000/svg" viewBox="0 0 88.01 88.59"><defs><style>.cls-1{fill:#ed1e79;stroke:#ed1e79;stroke-width:3px;}.cls-1,.cls-2{stroke-miterlimit:10;}.cls-2{stroke:#000;stroke-width:0.5px;}</style></defs><path class="cls-1" d="M16.58,24.15c5-5.21,10.16-10.11,16.85-13C46.6,5.31,62,7.26,73.81,15.28A44.9,44.9,0,0,1,91.62,39.8a36.11,36.11,0,0,1-4,29.42A52.88,52.88,0,0,1,68.4,88c-4.77,2.7-10.18,5-15.71,5.33a39,39,0,0,1-17.6-3.48A47.18,47.18,0,0,1,15.62,74.4C6.92,62.35,6,47.51,11.73,34c.83-1.94,1.72-3.86,2.64-5.76.79-1.65,1.48-3.72,2.94-4.91" transform="translate(-6.61 -6.27)"/><path class="cls-2" d="M33.74,16.83a55.69,55.69,0,0,1,6.46-.17,2,2,0,0,1,1.26.39,2.31,2.31,0,0,1,.63,1,8.49,8.49,0,0,1,.4,2.92,14.72,14.72,0,0,1-.41,3.1.54.54,0,0,1-.23.41,2.9,2.9,0,0,1-.73.26,9,9,0,0,1-1.45.2c-1.08.09-2.17.18-3.25.22l-.78,0h-.4a1.36,1.36,0,0,1-.45,0c-.06,0,0,0-.08,0s-.06-.13-.08-.19a3.38,3.38,0,0,1-.11-.34c-.06-.25-.09-.51-.13-.76-.15-1.2-.27-2.4-.37-3.6-.05-.59-.09-1.18-.13-1.77,0-.32,0-.63,0-.95a1.33,1.33,0,0,1,.06-.74.34.34,0,0,0-.58-.34A2.65,2.65,0,0,0,33.18,18c0,.61.08,1.22.13,1.83q.13,1.83.36,3.66a7.82,7.82,0,0,0,.3,1.66,1.2,1.2,0,0,0,.37.61,1.41,1.41,0,0,0,.79.12c1.24,0,2.47-.07,3.7-.17a9,9,0,0,0,3.29-.59A1.41,1.41,0,0,0,42.8,24a16,16,0,0,0,.28-1.71A11.34,11.34,0,0,0,43,18.8a3.54,3.54,0,0,0-1.34-2.46A3.19,3.19,0,0,0,40,16c-.69,0-1.38,0-2.06,0-1.41,0-2.81.08-4.21.18-.44,0-.44.71,0,.68Z" transform="translate(-6.61 -6.27)"/><path class="cls-2" d="M34.58,17.91c0,1.27,0,2.54.07,3.81,0,.44.7.44.68,0,0-1.27-.07-2.54-.07-3.81a.34.34,0,0,0-.68,0Z" transform="translate(-6.61 -6.27)"/><path class="cls-2" d="M35.72,19a16.56,16.56,0,0,0,.17,4.22.34.34,0,0,0,.42.24.35.35,0,0,0,.24-.42,15.61,15.61,0,0,1-.16-4c0-.43-.64-.43-.67,0Z" transform="translate(-6.61 -6.27)"/><path class="cls-2" d="M37.6,18a8,8,0,0,0-.14,2.24.35.35,0,0,0,.34.33.33.33,0,0,0,.34-.33,7.45,7.45,0,0,1,.11-2.06.34.34,0,0,0-.23-.41.35.35,0,0,0-.42.23Z" transform="translate(-6.61 -6.27)"/><path class="cls-2" d="M39.1,19.43l.38,3a.36.36,0,0,0,.34.34.34.34,0,0,0,.34-.34l-.38-3a.34.34,0,0,0-.68,0Z" transform="translate(-6.61 -6.27)"/><path class="cls-2" d="M40.5,18a15.45,15.45,0,0,0,0,4.94.35.35,0,0,0,.42.24.34.34,0,0,0,.24-.42,14.36,14.36,0,0,1,0-4.58c.07-.42-.58-.61-.65-.18Z" transform="translate(-6.61 -6.27)"/><path class="cls-2" d="M33.73,26.4c-1.31,2.45-2.85,4.76-4.39,7.07-.76,1.15-1.52,2.29-2.24,3.46-.38.61-.75,1.22-1.09,1.85a5.79,5.79,0,0,0-.75,1.82,1.9,1.9,0,0,0,.47,1.71,1.33,1.33,0,0,0,1.66.18c.35-.25,0-.83-.34-.58A.72.72,0,0,1,26,41.47a2.05,2.05,0,0,1,.21-1.55,31.34,31.34,0,0,1,1.89-3.28c1.34-2.11,2.76-4.16,4.1-6.26.75-1.19,1.47-2.4,2.13-3.64.21-.38-.38-.72-.58-.34Z" transform="translate(-6.61 -6.27)"/><path class="cls-2" d="M28.7,42.74a24.47,24.47,0,0,0,9.57.2c.43-.07.25-.72-.18-.65a23.6,23.6,0,0,1-9.21-.2c-.42-.1-.6.56-.18.65Z" transform="translate(-6.61 -6.27)"/><path class="cls-2" d="M29.3,48.56a20.57,20.57,0,0,0,2.92.26.34.34,0,0,0,0-.68,19.48,19.48,0,0,1-2.74-.23.34.34,0,0,0-.18.65Z" transform="translate(-6.61 -6.27)"/><path class="cls-2" d="M29.17,54.36a31,31,0,0,0,8.82,0c.43-.06.24-.71-.18-.65a30,30,0,0,1-8.46,0c-.43-.06-.61.59-.18.65Z" transform="translate(-6.61 -6.27)"/><path class="cls-2" d="M49.06,53a6.14,6.14,0,0,1-2.12.32.34.34,0,0,0-.34.34.36.36,0,0,0,.34.34,6.66,6.66,0,0,0,2.3-.35.35.35,0,0,0,.23-.42.33.33,0,0,0-.41-.23Z" transform="translate(-6.61 -6.27)"/><path class="cls-2" d="M27.18,42a4.67,4.67,0,0,0-1.9,3.6,2.89,2.89,0,0,0,.57,2,2,2,0,0,0,1.74.78c.43,0,.43-.72,0-.67a1.42,1.42,0,0,1-1.28-.62A2.45,2.45,0,0,1,26,45.35a3.9,3.9,0,0,1,1.54-2.81c.36-.24,0-.83-.34-.59Z" transform="translate(-6.61 -6.27)"/><path class="cls-2" d="M27.32,47.82a5.41,5.41,0,0,0-1.78,3.55,2.88,2.88,0,0,0,.46,2,1.69,1.69,0,0,0,1.65.69c.43-.07.25-.72-.18-.65a1.11,1.11,0,0,1-1.1-.73A3,3,0,0,1,26.26,51,4.82,4.82,0,0,1,27.8,48.3c.32-.29-.16-.77-.48-.48Z" transform="translate(-6.61 -6.27)"/><path class="cls-2" d="M27.44,53.64a5.77,5.77,0,0,0-1.55,3.71c0,1.25.47,2.9,2,2.91a.34.34,0,0,0,0-.68c-1.22,0-1.37-1.61-1.3-2.5a5,5,0,0,1,1.34-3c.3-.32-.18-.8-.48-.48Z" transform="translate(-6.61 -6.27)"/><path class="cls-2" d="M28,59.83a4.94,4.94,0,0,0-1.5,3.58,2.85,2.85,0,0,0,2,2.74.34.34,0,0,0,.18-.66,2.2,2.2,0,0,1-1.51-2.28,4.22,4.22,0,0,1,1.3-2.9c.31-.3-.17-.78-.48-.48Z" transform="translate(-6.61 -6.27)"/><path class="cls-2" d="M28.3,65.69a5.2,5.2,0,0,0-1.47,2A11.25,11.25,0,0,0,26,70.17,1.88,1.88,0,0,0,26,71.49a4.67,4.67,0,0,0,.78,1c.53.56,1.26,1.22,2.08.84.39-.18.05-.77-.35-.59s-.6-.12-.79-.29A6.38,6.38,0,0,1,27,71.7a1.49,1.49,0,0,1-.48-.86,3.64,3.64,0,0,1,.22-1.07,10.24,10.24,0,0,1,.74-1.9,4.55,4.55,0,0,1,1.14-1.6c.35-.25,0-.84-.34-.58Z" transform="translate(-6.61 -6.27)"/><path class="cls-2" d="M30.81,73.77a8.39,8.39,0,0,0,3,.28.36.36,0,0,0,.34-.34.34.34,0,0,0-.34-.34A7.82,7.82,0,0,1,31,73.11a.34.34,0,0,0-.18.66Z" transform="translate(-6.61 -6.27)"/><path class="cls-2" d="M30.21,66.6a28.46,28.46,0,0,0,8.19.2c.43-.06.43-.73,0-.68a28.29,28.29,0,0,1-8-.17c-.42-.07-.61.58-.18.65Z" transform="translate(-6.61 -6.27)"/><path class="cls-2" d="M30,60.36a9.46,9.46,0,0,0,3,.26.33.33,0,0,0,.33-.33.33.33,0,0,0-.33-.34,8.92,8.92,0,0,1-2.87-.25.34.34,0,0,0-.18.66Z" transform="translate(-6.61 -6.27)"/><path class="cls-2" d="M66.79,58.58c.41.15.46.79.55,1.14a8.11,8.11,0,0,0,.56,1.44A4.75,4.75,0,0,0,70,63.3a4.59,4.59,0,0,0,.81.29,1.84,1.84,0,0,0,.84.07.68.68,0,0,0,.33-1c-.2-.46-.72-.57-1.16-.67a2.11,2.11,0,0,1-.36-.09c-.15-.06-.11-.17-.09-.3a.69.69,0,0,0-.19-.63,1.38,1.38,0,0,0-.69-.35,1.72,1.72,0,0,1-.77-.26,1,1,0,0,1-.27-.69,2.38,2.38,0,0,0-.21-.78l-.14.25.93,0h.4a.25.25,0,0,1,.26.19,9.93,9.93,0,0,0,.43,1.19c.19.34.62.73,1,.54a.78.78,0,0,0,.28-1c-.24-.48-.85-.7-1-1.23l0,.16.32-.28a.15.15,0,0,0,0-.23,1.63,1.63,0,0,1-.61-1.07l-.16.21c.22,0,.35.24.46.41a1.09,1.09,0,0,0,.47.48.49.49,0,0,0,.56-.1.39.39,0,0,0,.08-.52l-.14.25c.16,0,.25.2.28.34a1.83,1.83,0,0,1,0,.66.9.9,0,0,0,.47,1,.5.5,0,0,0,.7-.52,2.36,2.36,0,0,0-.53-1.26,2.2,2.2,0,0,1-.45-.6c-.05-.15,0-.41.21-.39l-.14-.09.75,1.49c.23.46.44.93.7,1.38a1.56,1.56,0,0,0,.88.81.44.44,0,0,0,.52-.21,1,1,0,0,0,.06-.55,3.73,3.73,0,0,0-1-2.22,3.9,3.9,0,0,0-1-.75,2.63,2.63,0,0,1-.58-.35,1.18,1.18,0,0,1-.31-.53c-.08-.23-.14-.46-.24-.68a1.76,1.76,0,0,0-.45-.6,16.07,16.07,0,0,0-1.4-1.06c-.17-.13-.33.16-.16.28l1,.72a2.41,2.41,0,0,1,.68.67,5.44,5.44,0,0,1,.32.88,1.51,1.51,0,0,0,.56.71c.26.18.56.29.82.47a3.17,3.17,0,0,1,.68.59,3.36,3.36,0,0,1,.83,2c0,.08,0,.25-.07.31s-.32-.09-.4-.16a1.43,1.43,0,0,1-.28-.32,7.63,7.63,0,0,1-.48-.89l-.54-1.08-.26-.51-.13-.27a2.64,2.64,0,0,0-.15-.29c-.18-.25-.54,0-.63.23a.76.76,0,0,0,.12.79,6.74,6.74,0,0,1,.57.75,2.14,2.14,0,0,1,.2.53c0,.12.1.34,0,.41a.31.31,0,0,1-.28,0,.49.49,0,0,1-.19-.38,4.88,4.88,0,0,0,0-1.08.74.74,0,0,0-.6-.57c-.12,0-.22.16-.15.25s-.07.18-.16.17-.27-.2-.35-.32c-.18-.29-.39-.61-.77-.62a.17.17,0,0,0-.16.21,1.88,1.88,0,0,0,.7,1.21v-.23l-.32.28a.14.14,0,0,0,0,.16c.11.44.49.69.79,1a.8.8,0,0,1,.27.51c0,.14-.06.33-.21.37s-.37-.12-.48-.25a1.49,1.49,0,0,1-.24-.47c-.07-.19-.12-.38-.18-.57a1.2,1.2,0,0,0-.26-.53c-.2-.19-.52-.15-.77-.15l-1,0a.17.17,0,0,0-.14.25c.21.39.12.87.32,1.27s.74.51,1.19.62a.93.93,0,0,1,.53.31c.13.2,0,.44,0,.65s.32.31.54.36a4.49,4.49,0,0,1,.72.19.65.65,0,0,1,.4.39.4.4,0,0,1,0,.41c-.16.15-.52,0-.71,0a4.36,4.36,0,0,1-.77-.26,4.48,4.48,0,0,1-2-2.07,7.7,7.7,0,0,1-.57-1.54c-.11-.45-.24-1-.72-1.15-.2-.07-.29.25-.09.32Z" transform="translate(-6.61 -6.27)"/><path class="cls-2" d="M69.61,55.6c.06-.05.16-.17.25-.16a.1.1,0,0,1,.07,0s0,0,0,0a.69.69,0,0,0-.24.21c-.08.15,0,.29,0,.44a.69.69,0,0,1-.2.57s0,0,0,0,.08,0,.08,0,0-.06,0-.08v-.13a2,2,0,0,1,0-.42,3.12,3.12,0,0,1,.29-.91c.1-.19-.19-.36-.28-.17a3.36,3.36,0,0,0-.35,1.1,2.92,2.92,0,0,0,0,.59c0,.18.13.38.35.31a.81.81,0,0,0,.36-.35,1,1,0,0,0,.12-.49A1.64,1.64,0,0,0,70,56s0-.09,0-.13,0,0,0,0l0,0c.12-.1.27-.16.28-.34a.37.37,0,0,0-.32-.38.67.67,0,0,0-.55.25.16.16,0,0,0,.23.23Z" transform="translate(-6.61 -6.27)"/><path class="cls-2" d="M68.45,52.33a26.78,26.78,0,0,1,4.17-2.12,18.45,18.45,0,0,1,4.58-1.1c.81-.09,1.63-.16,2.44-.27s1.5-.24,2.24-.41A27.4,27.4,0,0,0,86.19,47a25.93,25.93,0,0,0,4.46-2.41c.18-.12,0-.4-.16-.28A26.14,26.14,0,0,1,82.23,48a20.6,20.6,0,0,1-2.21.45c-.8.13-1.62.21-2.43.29a20.22,20.22,0,0,0-2.44.36,16.92,16.92,0,0,0-2.21.64,25.5,25.5,0,0,0-4.65,2.31c-.18.11,0,.39.16.28Z" transform="translate(-6.61 -6.27)"/><path class="cls-2" d="M63.61,49.61l1.17-.7.59-.35a2.93,2.93,0,0,1,.58-.31c.73-.25,1.36.49,1.8,1a24.66,24.66,0,0,0,3.2,3.1,8.44,8.44,0,0,0,2.18,1.2l.09-.32a1.08,1.08,0,0,1-.74-.64c-.19-.33-.34-.67-.55-1A7.59,7.59,0,0,0,70.29,50c-.64-.47-1.3-.89-1.92-1.38a9.94,9.94,0,0,1-.89-.82,2.94,2.94,0,0,0-1-.75,2.4,2.4,0,0,0-1.56.12c-.57.16-1.13.35-1.68.55-.2.08-.11.39.09.32.48-.18,1-.34,1.45-.49a2.85,2.85,0,0,1,1.46-.23,2.19,2.19,0,0,1,1,.7,8.05,8.05,0,0,0,.86.79c1.18.95,2.64,1.67,3.53,2.94a11.91,11.91,0,0,1,.62,1.1,1.35,1.35,0,0,0,.89.71.17.17,0,0,0,.09-.32,10.21,10.21,0,0,1-3.69-2.57C69,50.08,68.47,49.51,68,49s-1.08-1.16-1.85-1.07a3.62,3.62,0,0,0-1.28.62l-1.38.83a.16.16,0,0,0,.17.28Z" transform="translate(-6.61 -6.27)"/><path class="cls-2" d="M72.46,52.54a16.37,16.37,0,0,0,3.27.59,14.92,14.92,0,0,0,1.64,0,2.61,2.61,0,0,0,1.39-.4c.37-.25.74-.62,1.22-.61a.17.17,0,0,0,0-.33,1.93,1.93,0,0,0-1.11.46,5.65,5.65,0,0,1-.51.34,1.9,1.9,0,0,1-.74.2,10.82,10.82,0,0,1-1.61,0,13.24,13.24,0,0,1-1.65-.19,15.81,15.81,0,0,1-1.81-.41.17.17,0,0,0-.09.32Z" transform="translate(-6.61 -6.27)"/><path class="cls-2" d="M78.5,53c.79-.18,2-.41,2.46.46a.17.17,0,0,0,.29-.17,1.64,1.64,0,0,0-1.14-.75,4.24,4.24,0,0,0-1.7.14c-.21,0-.12.37.09.32Z" transform="translate(-6.61 -6.27)"/><path class="cls-2" d="M59.94,55a2.52,2.52,0,0,1,1.53.17,3.57,3.57,0,0,1,1.13.91,3.41,3.41,0,0,0,1.09.87,8.06,8.06,0,0,0,.84.24,3.75,3.75,0,0,1,.71.25,4.28,4.28,0,0,1,1.37,1c.14.16.38-.08.23-.23a4.41,4.41,0,0,0-1.25-1,4.87,4.87,0,0,0-.71-.3c-.28-.09-.57-.13-.85-.22a2.71,2.71,0,0,1-1.19-.87,3.86,3.86,0,0,0-1.18-1,2.82,2.82,0,0,0-1.81-.21c-.2,0-.12.36.09.31Z" transform="translate(-6.61 -6.27)"/><path class="cls-2" d="M62.08,53.78l0,0s0,0,0,0h0l0,0h0s0,0,0,0l.09,0s.06,0,0,0h.15s0,0,0,0h.07l.05,0h0l.09,0h0s0,0,0,0a.08.08,0,0,1,0,0l0,0s0,0,0,0l0,0,0,.05s0,0,0,0v0l0,.06v0s0,0,0,0,0,.06,0,.1v0s0,0,0,0,0,.05,0,.07l0,.05v0s0,0,0,0a.6.6,0,0,1-.06.11v0s0,0,0,0l0,0-.05.05h0a.05.05,0,0,1,0,0l0,0s0,0,0,0l-.06,0h0a.16.16,0,0,0-.16.17.16.16,0,0,0,.16.16.85.85,0,0,0,.76-.84.79.79,0,0,0-.79-.76.83.83,0,0,0-.6.22.17.17,0,0,0,0,.23.15.15,0,0,0,.23,0Z" transform="translate(-6.61 -6.27)"/><path class="cls-2" d="M65.89,50.86a.32.32,0,0,1,.3-.14.34.34,0,0,1,.3.25,1.51,1.51,0,0,0,.22.44,1,1,0,0,0,.44.24,1.87,1.87,0,0,1,.51.2,4.25,4.25,0,0,1,.47.37,2.47,2.47,0,0,1,.72.89,1.88,1.88,0,0,0,.2.62.6.6,0,0,0,.47.28c.21,0,.21-.32,0-.33s-.26-.25-.29-.4A1.7,1.7,0,0,0,69,52.7a4,4,0,0,0-.86-.89,2.56,2.56,0,0,0-.48-.33c-.18-.09-.37-.12-.55-.19s-.24-.22-.31-.39a.76.76,0,0,0-.29-.41.67.67,0,0,0-.92.21c-.11.18.17.34.29.16Z" transform="translate(-6.61 -6.27)"/><path class="cls-2" d="M65.78,50.54,64.56,50a3.86,3.86,0,0,1-1-.6c-.15-.14-.39.1-.23.24a4.57,4.57,0,0,0,1.06.63l1.26.56a.19.19,0,0,0,.23-.06.18.18,0,0,0-.06-.23Z" transform="translate(-6.61 -6.27)"/><path class="cls-2" d="M60,54.33a7.53,7.53,0,0,1-4,1,10.23,10.23,0,0,0-2.28-.05,3.65,3.65,0,0,0-1.65.89,10.87,10.87,0,0,0-1.36,1.52c-.23.28-.45.55-.7.81a4.35,4.35,0,0,1-.38.36c-.09.08-.21.18-.34.13s-.27-.36-.28-.54a1.8,1.8,0,0,1,.18-.75,4.18,4.18,0,0,1,1-1.28c.48-.44,1-.82,1.48-1.26a1.54,1.54,0,0,0,.6-.82.61.61,0,0,0-.43-.71c-.21,0-.3.27-.09.32a.26.26,0,0,1,.2.24.59.59,0,0,1-.2.44,6.16,6.16,0,0,1-.65.6c-.45.37-.91.72-1.33,1.13a4,4,0,0,0-.94,1.35A1.31,1.31,0,0,0,49,59.2a.57.57,0,0,0,.7,0,3.61,3.61,0,0,0,.75-.71c.48-.53.88-1.11,1.36-1.64a4.41,4.41,0,0,1,1.58-1.16,5.15,5.15,0,0,1,2.21-.09,7.92,7.92,0,0,0,4.62-1,.17.17,0,0,0-.17-.29Z" transform="translate(-6.61 -6.27)"/><path class="cls-2" d="M49,59.07c-.09,1.42-.16,2.83-.2,4.25s0,2.75-.09,4.12a4.75,4.75,0,0,1-.42,2,.17.17,0,0,0,.18.25c.59-.11,1.05.45,1.29.91a6.27,6.27,0,0,0,.88,1.58.17.17,0,0,0,.27-.08c.09-.38-.16-.68-.37-1a2.45,2.45,0,0,1-.38-1.11c-.06-.43-.07-.87-.1-1.3L50,67.31c-.06-1-.13-1.89-.19-2.84a11.92,11.92,0,0,1,.07-2.8,5.82,5.82,0,0,0,.1-2.87c-.07-.2-.39-.11-.32.09a5,5,0,0,1-.06,2.52,9.93,9.93,0,0,0-.17,1.32,13.27,13.27,0,0,0,0,1.41c.11,1.85.23,3.7.37,5.54A4,4,0,0,0,50.06,71a2.65,2.65,0,0,0,.32.54.71.71,0,0,1,.21.56l.28-.08a9.65,9.65,0,0,1-.95-1.73,1.55,1.55,0,0,0-1.53-.84l.18.24a8.66,8.66,0,0,0,.49-3.82c0-1.43.07-2.87.14-4.31,0-.81.08-1.63.13-2.45,0-.21-.32-.21-.33,0Z" transform="translate(-6.61 -6.27)"/><path class="cls-2" d="M49,69.73a12.71,12.71,0,0,0-.7,2.71c0,.22-.06.45-.09.68s-.06.39.08.53c.3.31.63-.34.21-.38a.16.16,0,0,0-.16.16c0,1.86-1.16,3.45-1.79,5.13a7,7,0,0,0-.4,1.49.17.17,0,0,0,.3.13,5.1,5.1,0,0,1,.62-.77c.09-.1.22-.27.36-.3s.23.18.29.27L49,81.21c.12.18.4,0,.29-.16a5.76,5.76,0,0,1-.81-4.37c.18-.79.58-1.5.82-2.27a3.27,3.27,0,0,0,.18-1.16,5.4,5.4,0,0,1-.08-.58c0-.2.17-.24.3-.36.32-.3.15-.86.07-1.23a1.77,1.77,0,0,1,0-1.28.17.17,0,0,0-.29-.17,1.7,1.7,0,0,0-.13,1.13c0,.21.09.41.12.62a1.32,1.32,0,0,1,.05.59c-.05.16-.28.22-.38.37a.81.81,0,0,0-.07.53,3.15,3.15,0,0,1,.06.61,2.9,2.9,0,0,1-.09.59c-.21.81-.65,1.54-.85,2.35a5.9,5.9,0,0,0-.13,2.33A6.08,6.08,0,0,0,49,81.21l.29-.16L48.53,80l-.36-.54a4,4,0,0,0-.35-.49.47.47,0,0,0-.44-.14,1,1,0,0,0-.43.3,5.55,5.55,0,0,0-.76.92l.3.13c.26-1.86,1.43-3.41,1.95-5.18a5.31,5.31,0,0,0,.24-1.53l-.16.17-.12-.15c.11,0,.16,0,.14,0a.21.21,0,0,0,0-.08l0-.24c0-.15,0-.31,0-.46a9.6,9.6,0,0,1,.17-1,13.11,13.11,0,0,1,.55-1.85c.07-.2-.25-.29-.32-.09Z" transform="translate(-6.61 -6.27)"/><path class="cls-2" d="M46.12,53.41c.11.07.05.25,0,.34a2.14,2.14,0,0,1-.28.39,9.11,9.11,0,0,1-.73.79c-.51.51-1,1-1.59,1.46A18.06,18.06,0,0,0,42,57.87a7.15,7.15,0,0,0-1.23,1.71.77.77,0,0,0,0,.89c.27.25.7.12,1,0a5.47,5.47,0,0,0,1.87-1,14.64,14.64,0,0,0,1.59-1.56c.6-.63,1.2-1.27,1.82-1.88l1-.94a6.3,6.3,0,0,1,1-.82,3,3,0,0,1,2.26-.07l.58.17c.2.06.29-.25.09-.32a5.33,5.33,0,0,0-2.3-.34,2.26,2.26,0,0,0-1,.44,11,11,0,0,0-1,.86c-.65.62-1.28,1.25-1.9,1.9s-1.06,1.15-1.62,1.7a7.33,7.33,0,0,1-1.73,1.3,3.69,3.69,0,0,1-1,.36c-.13,0-.36.07-.43-.1a.59.59,0,0,1,.07-.41A7,7,0,0,1,42.27,58c.48-.52,1-1,1.54-1.46s1.08-.95,1.59-1.46c.25-.26.49-.52.72-.8a1.23,1.23,0,0,0,.39-.84.46.46,0,0,0-.22-.35c-.18-.12-.34.17-.17.28Z" transform="translate(-6.61 -6.27)"/><path class="cls-2" d="M62.55,46.4c.17.22.35.44.51.67a1.7,1.7,0,0,1,.34.67.17.17,0,0,0,.2.12.17.17,0,0,0,.12-.2,2.15,2.15,0,0,0-.37-.76c-.18-.25-.38-.49-.57-.73a.16.16,0,0,0-.23,0,.17.17,0,0,0,0,.23Z" transform="translate(-6.61 -6.27)"/><path class="cls-2" d="M62.66,46.59c.78-.53,1.55-1.09,2.29-1.68a.94.94,0,0,0,.38-.41.39.39,0,0,0-.15-.47,1.6,1.6,0,0,0-.51-.2l-.73-.2.1.24a1.67,1.67,0,0,1,.88-.51A12.32,12.32,0,0,1,66.15,43a12.79,12.79,0,0,1,2.54-.25.17.17,0,0,0,.15-.25A1.89,1.89,0,0,0,67.19,42a6.9,6.9,0,0,0-1.86.26,4.55,4.55,0,0,0-1.6.84,3.24,3.24,0,0,0-.61.67,1.92,1.92,0,0,1-.61.66c-.5.26-1.18.31-1.45.87-.09.19.19.36.28.17.21-.43.78-.51,1.18-.69a1.53,1.53,0,0,0,.64-.48,5.08,5.08,0,0,1,.52-.7,4.64,4.64,0,0,1,3.09-1.26c.55,0,1.41-.11,1.78.41l.14-.25a13.25,13.25,0,0,0-2.73.28c-.43.1-.86.21-1.27.35a1.9,1.9,0,0,0-.93.61.16.16,0,0,0,.09.24l.6.17a4,4,0,0,1,.49.15c.17.09,0,.21-.06.3l-.46.36c-.63.48-1.27.95-1.93,1.39-.17.12,0,.4.17.28Z" transform="translate(-6.61 -6.27)"/><path class="cls-2" d="M61,45.52a.25.25,0,0,0,.12-.41.82.82,0,0,0-.57-.26c-.55-.12-1.11-.22-1.66-.3s-1.09-.13-1.64-.17a9.44,9.44,0,0,1-1.51-.18C54.93,44,54,43.43,54,42.49a2.39,2.39,0,0,1,.2-.74,5.82,5.82,0,0,0,.24-.74,1.49,1.49,0,0,0,.08-.72.42.42,0,0,0-.46-.3,12.31,12.31,0,0,0-3.62.49.17.17,0,0,0,.09.32,12.53,12.53,0,0,1,3-.48h.36c.07,0,.25,0,.31,0s0,.2,0,.26a2.21,2.21,0,0,1-.08.37,13.68,13.68,0,0,0-.42,1.38,2,2,0,0,0,1.15,1.9,7.58,7.58,0,0,0,2.76.49c.58,0,1.16.13,1.73.22l.85.16.44.09a.39.39,0,0,1,.14,0s0,0,0,0v0s0,0,.06-.1c-.2.06-.11.38.09.31Z" transform="translate(-6.61 -6.27)"/><path class="cls-2" d="M30.82,65.83a27.12,27.12,0,0,0-5.14,3.1,46.31,46.31,0,0,0-4.54,4c-.82.8-1.61,1.62-2.4,2.44a.17.17,0,0,0,.24.24,4.53,4.53,0,0,1,1.48-1l-.21-.2-.67,2.07c-.06.18.2.27.3.13A17.7,17.7,0,0,1,24,71.81c.89-.64,1.85-1.17,2.7-1.87s1.4-1.3,2.09-2a9.57,9.57,0,0,1,2.58-1.9c.2-.09,0-.38-.16-.29-1.78.81-3,2.41-4.45,3.67a28.45,28.45,0,0,1-2.7,1.9,12.39,12.39,0,0,0-2.36,2.16,27.5,27.5,0,0,0-2.12,2.89l.3.13.67-2.07c0-.11-.09-.25-.2-.2a5,5,0,0,0-1.63,1.06l.24.24c1.38-1.46,2.79-2.89,4.28-4.22A34.26,34.26,0,0,1,28,67.71a24.08,24.08,0,0,1,3-1.59c.2-.09,0-.38-.16-.29Z" transform="translate(-6.61 -6.27)"/><path class="cls-2" d="M40.89,60a43.07,43.07,0,0,0-4.68,1.74c-.75.34-1.49.69-2.22,1.07A13.45,13.45,0,0,0,32.08,64a6.37,6.37,0,0,0-.82.74c-.23.25-.54.57-.45.94a.73.73,0,0,0,.68.52,2.53,2.53,0,0,0,1.12-.35,46.59,46.59,0,0,0,4.3-2.15,51.52,51.52,0,0,0,4.54-2.92c.17-.13,0-.41-.16-.29a49,49,0,0,1-7.87,4.64l-1,.46c-.3.13-.71.38-1,.24a.34.34,0,0,1-.23-.28c0-.18.17-.35.28-.48a5.66,5.66,0,0,1,.76-.71A10.44,10.44,0,0,1,34,63.21c.68-.37,1.37-.7,2.07-1a38.52,38.52,0,0,1,5-1.87.17.17,0,0,0-.09-.32Z" transform="translate(-6.61 -6.27)"/><path class="cls-2" d="M40.61,51.3a12.22,12.22,0,0,0,4.59.28,8.34,8.34,0,0,0,2.15-.46,6,6,0,0,0,1.74-1.06,15.5,15.5,0,0,0,1.65-1.69c.13-.16-.1-.39-.24-.23a9.12,9.12,0,0,1-3,2.58,7.32,7.32,0,0,1-2.06.51,14.54,14.54,0,0,1-2.19.11A9.69,9.69,0,0,1,40.69,51a.17.17,0,0,0-.08.32Z" transform="translate(-6.61 -6.27)"/><path class="cls-2" d="M50.32,49.4a2.67,2.67,0,0,0-.11,2.09,2.69,2.69,0,0,0,1.24,1.42.16.16,0,0,0,.16-.28,2.36,2.36,0,0,1-1-3.06c.09-.19-.19-.36-.28-.17Z" transform="translate(-6.61 -6.27)"/><path class="cls-2" d="M54.3,52.15a6.75,6.75,0,0,0,3.46.52,2,2,0,0,0,1.37-.78c.15-.23.25-.49.38-.72a4,4,0,0,1,.42-.65,5,5,0,0,1,1.29-1.22c.17-.12,0-.4-.17-.28a5.66,5.66,0,0,0-2,2.24,2.3,2.3,0,0,1-.42.67,1.64,1.64,0,0,1-.68.35,4,4,0,0,1-1.72.07,10.38,10.38,0,0,1-1.89-.52c-.2-.07-.28.25-.08.32Z" transform="translate(-6.61 -6.27)"/><path class="cls-2" d="M65.69,51.47a.94.94,0,0,0,.66.66.17.17,0,0,0,.21-.11.16.16,0,0,0-.12-.2l-.1,0,0,0-.13-.07,0,0h0l0-.05,0,0v0l0,0a.83.83,0,0,1-.07-.13v0l0-.11a.16.16,0,0,0-.2-.11.17.17,0,0,0-.12.2Z" transform="translate(-6.61 -6.27)"/><path d="M38.5,26.1a8.37,8.37,0,0,1,5.22,1.6,10.66,10.66,0,0,1,3.37,4.72,26.73,26.73,0,0,1,1.34,5c.26,1.31.6,2.81,1.77,3.62.64.44,1.24-.6.6-1-1.14-.79-1.19-2.91-1.45-4.15a20.2,20.2,0,0,0-1.92-5.5A9.81,9.81,0,0,0,38.5,24.9a.6.6,0,0,0,0,1.2Z" transform="translate(-6.61 -6.27)"/><path d="M38.74,74.56a8,8,0,0,0,4.56-.78.6.6,0,0,0,.21-.82.61.61,0,0,0-.82-.22,6.78,6.78,0,0,1-3.95.62.61.61,0,0,0-.6.6.62.62,0,0,0,.6.6Z" transform="translate(-6.61 -6.27)"/><path d="M42.74,66.45a19.1,19.1,0,0,0,3.73-1,.62.62,0,0,0,.42-.74.61.61,0,0,0-.74-.42,17.89,17.89,0,0,1-3.72,1,.6.6,0,0,0,.31,1.16Z" transform="translate(-6.61 -6.27)"/><path d="M42.24,47.59a7.42,7.42,0,0,0,3.94-.92.61.61,0,0,0,.21-.82.6.6,0,0,0-.82-.21,5.65,5.65,0,0,1-1.61.61l-.44.09h-.13l-.22,0c-.31,0-.62,0-.93,0a.6.6,0,0,0-.6.6.61.61,0,0,0,.6.6Z" transform="translate(-6.61 -6.27)"/><path d="M27.8,73.23c-1.63,1.28-2.68,3-1.37,5s3.93,2.47,6,2.89A35.41,35.41,0,0,0,40,81.7a11.74,11.74,0,0,0,6.44-1.6c.64-.43,0-1.47-.6-1a9.92,9.92,0,0,1-5.35,1.42,38.36,38.36,0,0,1-5.77-.22,17.51,17.51,0,0,1-5.74-1.49A3.06,3.06,0,0,1,27,76.5c-.09-1.1.84-1.81,1.62-2.42.61-.48-.25-1.32-.85-.85Z" transform="translate(-6.61 -6.27)"/></svg>