<svg id="_02_Black" data-name="02_Black" xmlns="http://www.w3.org/2000/svg" viewBox="0 0 88.01 88.59"><defs><style>.cls-1,.cls-2{stroke:#ed1e79;stroke-miterlimit:10;}.cls-1{stroke-width:3px;}.cls-2{fill:#ed1e79;stroke-width:0.5px;}</style></defs><path class="cls-1" d="M16.05,23.63c5-5.21,10.16-10.11,16.85-13,13.17-5.8,28.52-3.85,40.38,4.17A44.9,44.9,0,0,1,91.09,39.28a36.11,36.11,0,0,1-4,29.42A52.88,52.88,0,0,1,67.87,87.45c-4.77,2.7-10.18,5-15.71,5.33a39,39,0,0,1-17.6-3.48A47.18,47.18,0,0,1,15.09,73.88C6.39,61.83,5.46,47,11.2,33.47c.83-1.94,1.72-3.86,2.64-5.76.79-1.65,1.48-3.72,2.94-4.91" transform="translate(-6.08 -5.75)"/><path class="cls-2" d="M65.87,52.55c.41.15.46.79.55,1.14A7.72,7.72,0,0,0,67,55.12a4.72,4.72,0,0,0,2.11,2.15,4.59,4.59,0,0,0,.81.29,1.84,1.84,0,0,0,.84.07.69.69,0,0,0,.33-1c-.2-.46-.72-.57-1.16-.67-.12,0-.25-.05-.36-.09s-.11-.17-.09-.3a.69.69,0,0,0-.19-.63,1.42,1.42,0,0,0-.69-.35,1.72,1.72,0,0,1-.77-.26,1,1,0,0,1-.27-.69,2.31,2.31,0,0,0-.21-.78l-.14.25.93,0h.4a.27.27,0,0,1,.26.2c.16.39.22.81.42,1.19s.63.73,1,.54a.76.76,0,0,0,.27-1c-.23-.48-.84-.7-1-1.23l0,.16.32-.28a.17.17,0,0,0,0-.24,1.58,1.58,0,0,1-.61-1.06l-.16.21c.22,0,.35.24.46.41a1.09,1.09,0,0,0,.47.48.49.49,0,0,0,.56-.1.39.39,0,0,0,.08-.52l-.14.25c.16,0,.25.2.28.34a1.83,1.83,0,0,1,0,.66c-.05.43,0,.88.47,1a.49.49,0,0,0,.7-.51,2.4,2.4,0,0,0-.53-1.27,2.31,2.31,0,0,1-.45-.59c0-.15,0-.41.21-.4L71,51.33l.75,1.49c.23.46.44.93.7,1.38a1.56,1.56,0,0,0,.88.81.44.44,0,0,0,.52-.22,1,1,0,0,0,.06-.54,3.78,3.78,0,0,0-1-2.23,4.11,4.11,0,0,0-1-.74,2.63,2.63,0,0,1-.58-.35A1.3,1.3,0,0,1,71,50.4a5.44,5.44,0,0,0-.23-.68,1.67,1.67,0,0,0-.45-.6,16.07,16.07,0,0,0-1.4-1.06c-.17-.13-.33.16-.16.28l1,.72a2.41,2.41,0,0,1,.68.67,5.69,5.69,0,0,1,.32.87,1.54,1.54,0,0,0,.56.72c.26.18.56.29.82.47a3.17,3.17,0,0,1,.68.59,3.49,3.49,0,0,1,.77,1.55,3.56,3.56,0,0,1,.06.44c0,.09,0,.26-.07.32s-.32-.09-.4-.16a1.29,1.29,0,0,1-.28-.33,6.78,6.78,0,0,1-.48-.88l-.54-1.08-.26-.51-.13-.27a2.64,2.64,0,0,0-.15-.29c-.18-.25-.54,0-.63.23a.76.76,0,0,0,.12.79,6.74,6.74,0,0,1,.57.75,2.14,2.14,0,0,1,.2.53c0,.11.1.34,0,.41a.31.31,0,0,1-.28,0,.46.46,0,0,1-.19-.38,4.88,4.88,0,0,0,0-1.08.74.74,0,0,0-.6-.57.17.17,0,0,0-.15.25c.07.09-.07.18-.16.17s-.27-.2-.35-.32c-.18-.29-.39-.61-.77-.62a.17.17,0,0,0-.16.21,1.91,1.91,0,0,0,.7,1.21v-.24l-.32.29a.16.16,0,0,0,0,.16c.12.44.5.69.8,1a.8.8,0,0,1,.27.51c0,.14-.06.33-.21.37s-.37-.12-.48-.25a1.61,1.61,0,0,1-.24-.47c-.07-.19-.12-.38-.18-.57a1.2,1.2,0,0,0-.26-.53c-.2-.19-.52-.15-.77-.15l-1,0a.17.17,0,0,0-.14.25c.21.39.12.87.32,1.27s.74.51,1.19.62a.93.93,0,0,1,.53.31c.13.2,0,.43,0,.65s.32.31.54.36a4.49,4.49,0,0,1,.72.19.62.62,0,0,1,.4.39.4.4,0,0,1-.05.41c-.16.15-.52,0-.71,0a3.71,3.71,0,0,1-.77-.27,4.41,4.41,0,0,1-2-2.06,7.13,7.13,0,0,1-.57-1.54c-.11-.45-.24-1-.72-1.15-.2-.07-.29.25-.09.32Z" transform="translate(-6.08 -5.75)"/><path class="cls-2" d="M68.69,49.57c.06-.06.16-.17.25-.16a.1.1,0,0,1,.07,0s0,0,0,0a.69.69,0,0,0-.24.21c-.08.14,0,.28,0,.43a.7.7,0,0,1-.2.58l0,0s.08.06.08,0,0-.06,0-.09v-.12a3.11,3.11,0,0,1,0-.43,3.53,3.53,0,0,1,.3-.9c.1-.19-.19-.36-.28-.17a3.36,3.36,0,0,0-.35,1.1,2.88,2.88,0,0,0,0,.59c0,.18.13.37.35.3a.7.7,0,0,0,.35-.35.89.89,0,0,0,.13-.48,1.64,1.64,0,0,0,0-.23s0-.09,0-.13,0,0,0,0,0,0,0,0,.27-.15.28-.34a.37.37,0,0,0-.32-.37.67.67,0,0,0-.55.25c-.15.14.08.38.23.23Z" transform="translate(-6.08 -5.75)"/><path class="cls-2" d="M67.53,46.3a25.94,25.94,0,0,1,4.17-2.12,18,18,0,0,1,4.57-1.1c.82-.09,1.64-.16,2.45-.27s1.5-.24,2.24-.41A26.44,26.44,0,0,0,85.27,41a25.88,25.88,0,0,0,4.46-2.4c.18-.12,0-.4-.16-.28A26.37,26.37,0,0,1,81.31,42c-.73.18-1.46.33-2.21.45s-1.62.2-2.43.29a20.22,20.22,0,0,0-2.44.36,16.92,16.92,0,0,0-2.21.64A25.5,25.5,0,0,0,67.37,46c-.18.11,0,.39.16.28Z" transform="translate(-6.08 -5.75)"/><path class="cls-2" d="M62.69,43.58l1.17-.7.59-.35a2.93,2.93,0,0,1,.58-.31c.73-.25,1.36.49,1.8,1A24.74,24.74,0,0,0,70,46.29a8.75,8.75,0,0,0,2.18,1.2l.09-.32a1.1,1.1,0,0,1-.74-.64c-.19-.33-.34-.68-.55-1a7.37,7.37,0,0,0-1.64-1.61c-.64-.47-1.3-.89-1.92-1.39a8.55,8.55,0,0,1-.89-.81,2.94,2.94,0,0,0-1-.75,2.4,2.4,0,0,0-1.56.11c-.57.17-1.13.35-1.68.56-.2.07-.11.39.09.32.47-.18,1-.34,1.45-.49a2.75,2.75,0,0,1,1.46-.23,2.19,2.19,0,0,1,1,.7,9.26,9.26,0,0,0,.86.79c1.18.95,2.64,1.67,3.53,2.94a11.75,11.75,0,0,1,.62,1.09,1.31,1.31,0,0,0,.89.72.17.17,0,0,0,.09-.32,10.23,10.23,0,0,1-3.69-2.58c-.55-.54-1.06-1.11-1.58-1.67S66,41.76,65.18,41.85a3.46,3.46,0,0,0-1.28.62l-1.38.83a.16.16,0,0,0,.17.28Z" transform="translate(-6.08 -5.75)"/><path class="cls-2" d="M71.54,46.51a17.12,17.12,0,0,0,3.27.59,14.92,14.92,0,0,0,1.64,0,2.54,2.54,0,0,0,1.39-.41c.37-.24.74-.61,1.22-.6a.17.17,0,0,0,0-.33,1.91,1.91,0,0,0-1.11.45,3.58,3.58,0,0,1-.52.34,1.81,1.81,0,0,1-.73.21,14.41,14.41,0,0,1-1.61,0c-.55,0-1.1-.1-1.65-.19a15.81,15.81,0,0,1-1.81-.41.17.17,0,0,0-.09.32Z" transform="translate(-6.08 -5.75)"/><path class="cls-2" d="M77.58,46.92c.79-.18,2-.41,2.46.45a.17.17,0,0,0,.29-.16,1.68,1.68,0,0,0-1.14-.76,4.25,4.25,0,0,0-1.7.15c-.21,0-.12.37.09.32Z" transform="translate(-6.08 -5.75)"/><path class="cls-2" d="M59,49a2.45,2.45,0,0,1,1.53.17,3.57,3.57,0,0,1,1.13.91,3.41,3.41,0,0,0,1.09.87,6.14,6.14,0,0,0,.84.23,4.66,4.66,0,0,1,.71.26,4.14,4.14,0,0,1,1.37,1c.14.15.38-.08.23-.23a4.41,4.41,0,0,0-1.25-1A4.55,4.55,0,0,0,64,51c-.27-.09-.56-.13-.84-.22a2.74,2.74,0,0,1-1.19-.88,4,4,0,0,0-1.18-.94,2.82,2.82,0,0,0-1.81-.22A.17.17,0,0,0,59,49Z" transform="translate(-6.08 -5.75)"/><path class="cls-2" d="M61.16,47.75l0,0h0l0,0,.05,0h0s0,0,0,0l.09,0h.2l.07,0,.05,0s0,0,0,0l0,0,.09,0h0s0,0,0,0l0,0,0,0h0l0,0,0,0s0,0,0,0v0s0,0,0,.05v0s0,0,0,0,0,.07,0,.11v0s0,0,0,0,0,0,0,.07,0,0,0,.05v0h0a.33.33,0,0,1-.06.1v0s0,0,0,0l0,0,0,0s0,0,0,0l0,0-.05,0,0,0h0l-.06,0h0a.16.16,0,0,0-.16.17.16.16,0,0,0,.16.16.86.86,0,0,0,.76-.85.83.83,0,0,0-1.39-.53.17.17,0,0,0,0,.23.15.15,0,0,0,.23,0Z" transform="translate(-6.08 -5.75)"/><path class="cls-2" d="M65,44.83a.32.32,0,0,1,.3-.14.34.34,0,0,1,.3.25,1.51,1.51,0,0,0,.22.44.85.85,0,0,0,.44.23,2.28,2.28,0,0,1,.51.21,4.25,4.25,0,0,1,.47.37,2.39,2.39,0,0,1,.72.89,1.88,1.88,0,0,0,.2.62.6.6,0,0,0,.47.28c.21,0,.21-.32,0-.33s-.26-.25-.29-.4a1.7,1.7,0,0,0-.22-.58,4,4,0,0,0-.86-.89,2.16,2.16,0,0,0-.48-.33c-.18-.09-.37-.12-.55-.19s-.24-.22-.31-.39a.76.76,0,0,0-.29-.41.67.67,0,0,0-.92.2c-.11.18.17.35.29.17Z" transform="translate(-6.08 -5.75)"/><path class="cls-2" d="M64.86,44.51,63.64,44a4.14,4.14,0,0,1-1-.6c-.15-.14-.39.09-.23.23a4.11,4.11,0,0,0,1.06.64l1.26.55a.17.17,0,0,0,.23-.06.16.16,0,0,0-.06-.22Z" transform="translate(-6.08 -5.75)"/><path class="cls-2" d="M59.08,48.3a7.44,7.44,0,0,1-4,1,10.23,10.23,0,0,0-2.28,0,3.63,3.63,0,0,0-1.65.88,11.54,11.54,0,0,0-1.36,1.53c-.23.28-.45.55-.7.8a4.44,4.44,0,0,1-.38.37c-.09.08-.21.18-.34.13s-.27-.36-.28-.54a1.8,1.8,0,0,1,.18-.75,4,4,0,0,1,1-1.28c.48-.44,1-.83,1.48-1.26a1.54,1.54,0,0,0,.6-.82.61.61,0,0,0-.43-.71c-.21,0-.3.27-.09.31a.28.28,0,0,1,.2.25.59.59,0,0,1-.2.44,6.16,6.16,0,0,1-.65.6c-.45.37-.91.72-1.33,1.13a3.87,3.87,0,0,0-.94,1.35A1.31,1.31,0,0,0,48,53.17a.57.57,0,0,0,.7,0,3.66,3.66,0,0,0,.75-.72c.48-.52.88-1.11,1.36-1.63a4.3,4.3,0,0,1,1.58-1.16,5,5,0,0,1,2.21-.09,7.92,7.92,0,0,0,4.62-1,.17.17,0,0,0-.17-.29Z" transform="translate(-6.08 -5.75)"/><path class="cls-2" d="M48.08,53c-.09,1.42-.16,2.83-.2,4.25s0,2.74-.09,4.11a4.8,4.8,0,0,1-.42,2.05.16.16,0,0,0,.18.24c.59-.1,1.05.46,1.29.91a6.1,6.1,0,0,0,.88,1.58.16.16,0,0,0,.27-.07c.09-.39-.16-.68-.37-1A2.45,2.45,0,0,1,49.24,64c-.06-.42-.07-.86-.1-1.29L49,61.28c-.06-1-.13-1.9-.19-2.85a11.83,11.83,0,0,1,.07-2.79,5.82,5.82,0,0,0,.1-2.87c-.07-.2-.39-.12-.32.09a5.13,5.13,0,0,1-.06,2.52,9.93,9.93,0,0,0-.17,1.32,13.27,13.27,0,0,0,0,1.41c.11,1.85.22,3.7.37,5.54a4.35,4.35,0,0,0,.26,1.28,3.24,3.24,0,0,0,.33.54.7.7,0,0,1,.21.55L50,66a10,10,0,0,1-1-1.73,1.55,1.55,0,0,0-1.53-.84l.18.24a8.66,8.66,0,0,0,.49-3.82c0-1.44.07-2.87.14-4.31,0-.82.08-1.63.13-2.45,0-.21-.32-.21-.33,0Z" transform="translate(-6.08 -5.75)"/><path class="cls-2" d="M48.1,63.7a12.55,12.55,0,0,0-.7,2.71c0,.22-.06.45-.09.68s-.06.39.08.53c.3.31.63-.34.21-.38a.16.16,0,0,0-.16.16c0,1.86-1.16,3.44-1.79,5.13a7,7,0,0,0-.4,1.49.17.17,0,0,0,.3.13,4.65,4.65,0,0,1,.62-.77c.09-.1.22-.27.36-.3s.23.18.29.27l1.24,1.83c.12.17.4,0,.29-.17a5.75,5.75,0,0,1-.81-4.37c.18-.79.58-1.49.82-2.26a3.27,3.27,0,0,0,.18-1.16,5.4,5.4,0,0,1-.08-.58c0-.2.17-.24.3-.37.32-.29.14-.86.07-1.22a1.77,1.77,0,0,1,0-1.28.17.17,0,0,0-.29-.17,1.69,1.69,0,0,0-.13,1.13c0,.21.09.41.12.62a1.19,1.19,0,0,1,0,.59c0,.16-.27.22-.37.36a.84.84,0,0,0-.07.54,3.08,3.08,0,0,1,.06.61,2.9,2.9,0,0,1-.09.59c-.21.81-.65,1.54-.85,2.34a5.91,5.91,0,0,0-.13,2.33,6.07,6.07,0,0,0,.92,2.47l.29-.17-.74-1.08-.36-.54a3.36,3.36,0,0,0-.35-.49.45.45,0,0,0-.44-.14.91.91,0,0,0-.43.3,5.55,5.55,0,0,0-.76.92l.3.13c.26-1.86,1.43-3.41,2-5.18a5.31,5.31,0,0,0,.24-1.53l-.16.17-.12-.15c.11,0,.16,0,.14,0s0-.06,0-.08a1.64,1.64,0,0,0,0-.23l.06-.46c0-.33.1-.65.17-1a14.89,14.89,0,0,1,.54-1.84c.08-.2-.24-.29-.31-.09Z" transform="translate(-6.08 -5.75)"/><path class="cls-2" d="M45.2,47.38c.11.07,0,.24,0,.33a1.91,1.91,0,0,1-.28.4c-.23.27-.47.54-.73.79-.51.51-1.05,1-1.59,1.46a18.06,18.06,0,0,0-1.55,1.48,6.88,6.88,0,0,0-1.23,1.71.77.77,0,0,0,0,.89c.27.25.7.12,1,0a5.5,5.5,0,0,0,1.87-1,13.69,13.69,0,0,0,1.59-1.55c.6-.64,1.2-1.27,1.82-1.88l1-.94a5.78,5.78,0,0,1,1-.82,3,3,0,0,1,2.26-.07l.58.17c.2.06.29-.26.09-.32a5.33,5.33,0,0,0-2.3-.34,2.26,2.26,0,0,0-1,.44,11,11,0,0,0-1,.86c-.65.61-1.28,1.25-1.9,1.9s-1.06,1.15-1.62,1.7a7.33,7.33,0,0,1-1.73,1.3,4.06,4.06,0,0,1-1,.36c-.13,0-.36.07-.43-.1a.62.62,0,0,1,.07-.42A6.94,6.94,0,0,1,41.35,52c.48-.52,1-1,1.54-1.46s1.08-.95,1.59-1.46c.25-.26.49-.52.72-.8a1.25,1.25,0,0,0,.39-.84.46.46,0,0,0-.22-.35c-.18-.12-.34.16-.17.28Z" transform="translate(-6.08 -5.75)"/><path class="cls-2" d="M45.11,46.82c-1.19-.16-2.38-.32-3.58-.46a4.74,4.74,0,0,0-1.72,0,7.83,7.83,0,0,0-1.53.63,23.24,23.24,0,0,1-10,2.4l.16.21a1.82,1.82,0,0,1,1.3-.87c.73-.22,1.47-.42,2.2-.62l4.5-1.27A10.19,10.19,0,0,0,38.71,46a.17.17,0,0,0,0-.26.61.61,0,0,0-.6-.2c-.2.05-.12.36.09.32a.29.29,0,0,1,.28.11l0-.25a9.92,9.92,0,0,1-2.06.81l-2.29.65c-1.52.42-3,.82-4.56,1.28a2.15,2.15,0,0,0-1.5,1.09.17.17,0,0,0,.16.21,23.79,23.79,0,0,0,6.54-1,24.37,24.37,0,0,0,3.08-1.17c.5-.23,1-.51,1.49-.71a3.85,3.85,0,0,1,1.68-.23c.67,0,1.34.16,2,.25l2,.26c.21,0,.21-.31,0-.33Z" transform="translate(-6.08 -5.75)"/><path class="cls-2" d="M61.63,40.37c.17.22.35.44.51.66a1.82,1.82,0,0,1,.34.68.17.17,0,0,0,.2.12.18.18,0,0,0,.12-.21,2.19,2.19,0,0,0-.37-.75c-.18-.25-.38-.49-.57-.73a.16.16,0,0,0-.23,0,.17.17,0,0,0,0,.23Z" transform="translate(-6.08 -5.75)"/><path class="cls-2" d="M61.74,40.56c.78-.53,1.55-1.09,2.29-1.68a.94.94,0,0,0,.38-.41.39.39,0,0,0-.15-.47,1.6,1.6,0,0,0-.51-.2L63,37.6l.1.24a1.67,1.67,0,0,1,.88-.51A10.09,10.09,0,0,1,65.23,37a12.09,12.09,0,0,1,2.54-.25.17.17,0,0,0,.15-.25,1.89,1.89,0,0,0-1.65-.58,6.53,6.53,0,0,0-1.86.26,4.24,4.24,0,0,0-1.6.84,3.47,3.47,0,0,0-.61.66,1.76,1.76,0,0,1-.61.66c-.5.27-1.18.32-1.45.88-.09.19.19.36.28.17.21-.43.78-.51,1.18-.69a1.53,1.53,0,0,0,.64-.48,5.08,5.08,0,0,1,.52-.7,4.64,4.64,0,0,1,3.09-1.26c.55,0,1.41-.11,1.78.41l.14-.25a12.59,12.59,0,0,0-2.73.28c-.43.1-.86.21-1.27.35a1.83,1.83,0,0,0-.93.61.16.16,0,0,0,.09.24l.6.17a2.77,2.77,0,0,1,.49.15c.17.09,0,.21-.06.3l-.46.35c-.63.49-1.27.95-1.93,1.4-.17.12,0,.4.17.28Z" transform="translate(-6.08 -5.75)"/><path class="cls-2" d="M60.07,39.49a.25.25,0,0,0,.12-.41.82.82,0,0,0-.57-.26c-.55-.12-1.11-.22-1.66-.3s-1.09-.13-1.64-.18a8.41,8.41,0,0,1-1.51-.17c-.8-.19-1.74-.77-1.69-1.71a2.39,2.39,0,0,1,.2-.74,6.39,6.39,0,0,0,.24-.74,1.52,1.52,0,0,0,.08-.73c0-.22-.26-.29-.46-.3a12.32,12.32,0,0,0-3.62.5.17.17,0,0,0,.09.32,12.53,12.53,0,0,1,3-.48H53c.07,0,.25,0,.31,0s0,.21,0,.27a2.21,2.21,0,0,1-.08.37,13.68,13.68,0,0,0-.42,1.38A1.93,1.93,0,0,0,54,38.21a7.38,7.38,0,0,0,2.76.5c.58,0,1.16.12,1.73.22l.85.15.44.1a.37.37,0,0,1,.14,0l0,0v0s0,0,.06-.1c-.2.07-.11.39.09.32Z" transform="translate(-6.08 -5.75)"/><path class="cls-2" d="M49.93,34.63A12.66,12.66,0,0,0,43.36,32a28.91,28.91,0,0,0-3.72-.23,20.83,20.83,0,0,0-3.86.34,13,13,0,0,0-3.62,1.23,7.24,7.24,0,0,0-2.62,2.2,4.32,4.32,0,0,0-.7,1.63,3.24,3.24,0,0,0,.22,1.94,7,7,0,0,0,1,1.53,11.83,11.83,0,0,0,1.18,1.27,17.9,17.9,0,0,0,6.07,3.43l.82.28c.2.06.29-.25.09-.32a19.27,19.27,0,0,1-6-3,10.92,10.92,0,0,1-2.31-2.44,3.91,3.91,0,0,1-.72-1.69,3.35,3.35,0,0,1,.36-1.84A5.83,5.83,0,0,1,31.75,34a11.36,11.36,0,0,1,3.37-1.36,18.25,18.25,0,0,1,3.75-.48,29.52,29.52,0,0,1,3.64.12A13.68,13.68,0,0,1,49,34.35c.23.16.46.33.67.51s.4-.09.23-.23Z" transform="translate(-6.08 -5.75)"/><path class="cls-2" d="M28.41,49.51a.51.51,0,0,0-.28-.43,6.18,6.18,0,0,0-.53-.36,10.12,10.12,0,0,0-1.13-.59A9,9,0,0,0,24,47.42c-.16,0-.44,0-.46-.22a.89.89,0,0,1,.15-.5c.08-.13-.09-.33-.22-.23l-.82.63-.38.29a.64.64,0,0,0-.22.29c-.07.27.15.5.36.64a3.28,3.28,0,0,0,.78.37c.61.22,1.25.39,1.87.57l1.93.58a6.7,6.7,0,0,0,1,.28.64.64,0,0,0,.66-.24c.11-.18-.18-.35-.29-.17s-.33.09-.46,0-.53-.15-.79-.23L25.47,49l-1.64-.49a5.93,5.93,0,0,1-.71-.24,1.65,1.65,0,0,1-.64-.38c-.1-.11-.07-.19,0-.27s.25-.2.38-.3l.77-.59-.22-.23a1,1,0,0,0-.13.93.6.6,0,0,0,.49.25l.66.11a9.35,9.35,0,0,1,2.45.89c.21.12.43.24.63.37l.32.21c.07.05.22.12.21.22s.31.21.33,0Z" transform="translate(-6.08 -5.75)"/><path class="cls-2" d="M22.56,47.49a8.72,8.72,0,0,0-4.46-.94c-.77,0-1.54.08-2.3.15a11.66,11.66,0,0,0-2.05.31,3.65,3.65,0,0,0-1.9,1.11c-.14.16.09.39.23.23.86-1,2.29-1.19,3.54-1.31a17.76,17.76,0,0,1,4.43,0,6.67,6.67,0,0,1,2.34.78.17.17,0,0,0,.17-.29Z" transform="translate(-6.08 -5.75)"/><path class="cls-2" d="M29.9,59.8a27.12,27.12,0,0,0-5.14,3.1,45,45,0,0,0-4.54,4c-.82.8-1.61,1.62-2.4,2.44a.17.17,0,0,0,.24.24,4.53,4.53,0,0,1,1.48-1l-.21-.2-.67,2.07c-.06.18.2.27.3.12a17.81,17.81,0,0,1,4.14-4.76c.89-.65,1.85-1.18,2.7-1.87s1.4-1.3,2.09-2A9.63,9.63,0,0,1,30.47,60c.2-.08,0-.37-.16-.28-1.78.81-3,2.41-4.45,3.67a30.39,30.39,0,0,1-2.7,1.9,12.68,12.68,0,0,0-2.36,2.15,28.71,28.71,0,0,0-2.12,2.9l.3.12.67-2.06c0-.11-.09-.26-.2-.21a5.24,5.24,0,0,0-1.63,1.07l.24.24c1.38-1.46,2.79-2.89,4.28-4.23a35,35,0,0,1,4.76-3.63,25.59,25.59,0,0,1,3-1.6c.2-.08,0-.37-.16-.28Z" transform="translate(-6.08 -5.75)"/><path class="cls-2" d="M40,54a41.08,41.08,0,0,0-4.68,1.74c-.75.34-1.49.69-2.22,1.07A14.36,14.36,0,0,0,31.16,58a7.29,7.29,0,0,0-.82.75c-.23.25-.54.57-.45.94a.74.74,0,0,0,.68.52,2.53,2.53,0,0,0,1.12-.35A46.59,46.59,0,0,0,36,57.66a51.52,51.52,0,0,0,4.54-2.92c.17-.13,0-.41-.16-.29a48.19,48.19,0,0,1-7.87,4.63l-1,.47c-.3.13-.71.38-1.05.24a.35.35,0,0,1-.23-.28c0-.18.17-.35.28-.48a6.47,6.47,0,0,1,.76-.72A11.81,11.81,0,0,1,33,57.17c.68-.36,1.37-.7,2.07-1a38.52,38.52,0,0,1,5-1.87A.17.17,0,0,0,40,54Z" transform="translate(-6.08 -5.75)"/><path class="cls-2" d="M39.69,45.27a12.22,12.22,0,0,0,4.59.28,8.35,8.35,0,0,0,2.15-.47,6,6,0,0,0,1.74-1,16.46,16.46,0,0,0,1.65-1.69c.13-.16-.1-.39-.24-.23a9.12,9.12,0,0,1-3,2.58,7.32,7.32,0,0,1-2.06.51,16,16,0,0,1-2.19.11A10.14,10.14,0,0,1,39.77,45a.17.17,0,0,0-.08.32Z" transform="translate(-6.08 -5.75)"/><path class="cls-2" d="M49.4,43.37a2.64,2.64,0,0,0-.11,2.08,2.68,2.68,0,0,0,1.24,1.43c.18.1.35-.18.16-.28a2.36,2.36,0,0,1-1-3.06c.09-.2-.19-.36-.28-.17Z" transform="translate(-6.08 -5.75)"/><path class="cls-2" d="M53.38,46.12a6.75,6.75,0,0,0,3.46.52,2,2,0,0,0,1.37-.79c.15-.22.25-.48.38-.71a4.59,4.59,0,0,1,.42-.66,5.13,5.13,0,0,1,1.29-1.21c.17-.12,0-.4-.17-.28a5.66,5.66,0,0,0-2,2.24,2.3,2.3,0,0,1-.42.67,1.64,1.64,0,0,1-.68.35,4,4,0,0,1-1.72.07,10.38,10.38,0,0,1-1.89-.52c-.2-.07-.28.25-.08.32Z" transform="translate(-6.08 -5.75)"/><path class="cls-2" d="M64.77,45.44a.94.94,0,0,0,.66.66.18.18,0,0,0,.21-.11.18.18,0,0,0-.12-.21l-.1,0,0,0-.13-.07,0,0h0l0,0,0-.06h0s0,0,0,0l0,0a.75.75,0,0,1-.07-.12v0l0-.11a.17.17,0,0,0-.32.09Z" transform="translate(-6.08 -5.75)"/></svg>