<svg id="_02_Pink" data-name="02_Pink" xmlns="http://www.w3.org/2000/svg" viewBox="0 0 88.01 88.59"><defs><style>.cls-1{fill:#ed1e79;stroke:#ed1e79;stroke-width:3px;}.cls-1,.cls-2{stroke-miterlimit:10;}.cls-2{stroke:#000;stroke-width:0.5px;}</style></defs><path class="cls-1" d="M16.58,24.15c5-5.21,10.16-10.11,16.85-13C46.6,5.31,62,7.26,73.81,15.28A44.9,44.9,0,0,1,91.62,39.8a36.11,36.11,0,0,1-4,29.42A52.88,52.88,0,0,1,68.4,88c-4.77,2.7-10.18,5-15.71,5.33a39,39,0,0,1-17.6-3.48A47.18,47.18,0,0,1,15.62,74.4C6.92,62.35,6,47.51,11.73,34c.83-1.94,1.72-3.86,2.64-5.76.79-1.65,1.48-3.72,2.94-4.91" transform="translate(-6.61 -6.27)"/><path class="cls-2" d="M66.4,53.07c.4.15.45.79.55,1.14a7.08,7.08,0,0,0,.56,1.43,4.72,4.72,0,0,0,2.11,2.15,4.8,4.8,0,0,0,.8.29,1.85,1.85,0,0,0,.84.07.67.67,0,0,0,.33-1c-.2-.46-.71-.57-1.16-.67l-.36-.09c-.14-.06-.1-.17-.08-.3a.73.73,0,0,0-.2-.63,1.35,1.35,0,0,0-.68-.35,1.76,1.76,0,0,1-.78-.26,1.08,1.08,0,0,1-.27-.69,2.3,2.3,0,0,0-.2-.78l-.14.25.92,0H69a.29.29,0,0,1,.27.2,10.53,10.53,0,0,0,.42,1.19c.19.34.62.73,1,.54a.76.76,0,0,0,.28-1c-.23-.48-.85-.7-1-1.23l0,.16.33-.28a.17.17,0,0,0,0-.24,1.6,1.6,0,0,1-.62-1.06l-.16.21c.23,0,.36.24.46.41a1.15,1.15,0,0,0,.47.48.49.49,0,0,0,.56-.1.39.39,0,0,0,.08-.52l-.14.25c.16,0,.25.2.29.34a1.83,1.83,0,0,1,0,.66c0,.43,0,.88.48,1a.5.5,0,0,0,.7-.51,2.49,2.49,0,0,0-.54-1.27,2.12,2.12,0,0,1-.44-.59c-.06-.15,0-.41.2-.4l-.14-.08.75,1.49c.23.46.44.93.7,1.38a1.57,1.57,0,0,0,.89.81.43.43,0,0,0,.51-.22.9.9,0,0,0,.06-.54,3.78,3.78,0,0,0-1-2.23,3.93,3.93,0,0,0-1-.74,2.57,2.57,0,0,1-.57-.35,1.2,1.2,0,0,1-.32-.53c-.08-.23-.13-.46-.23-.68a1.79,1.79,0,0,0-.45-.6c-.44-.39-.94-.72-1.4-1.06-.17-.13-.34.16-.17.28l1,.72a2.32,2.32,0,0,1,.69.67,7,7,0,0,1,.32.87,1.42,1.42,0,0,0,.56.72c.26.18.56.29.82.47a3.12,3.12,0,0,1,.67.59,3.29,3.29,0,0,1,.77,1.55,1.72,1.72,0,0,1,.06.44c0,.09,0,.26-.06.32s-.33-.09-.4-.16a1.15,1.15,0,0,1-.29-.33,8.18,8.18,0,0,1-.47-.88l-.54-1.08-.26-.51L72,52a1.55,1.55,0,0,0-.14-.29c-.19-.25-.54,0-.63.23a.76.76,0,0,0,.11.79,8.34,8.34,0,0,1,.58.75,2.62,2.62,0,0,1,.2.53c0,.11.1.34,0,.41s-.2,0-.27,0A.44.44,0,0,1,71.6,54a4.87,4.87,0,0,0,0-1.08.71.71,0,0,0-.6-.57.17.17,0,0,0-.14.25c.07.09-.08.18-.16.17s-.28-.2-.35-.32c-.19-.29-.39-.61-.78-.62a.18.18,0,0,0-.16.21,1.92,1.92,0,0,0,.71,1.21V53l-.33.29a.18.18,0,0,0,0,.16c.11.44.49.69.79,1a.87.87,0,0,1,.28.51.38.38,0,0,1-.22.37c-.17,0-.37-.12-.47-.25a1.42,1.42,0,0,1-.25-.47c-.07-.19-.12-.38-.18-.57a1.18,1.18,0,0,0-.25-.53,1.11,1.11,0,0,0-.78-.15l-1,0a.17.17,0,0,0-.15.25c.22.39.13.87.33,1.27s.74.51,1.18.62a.9.9,0,0,1,.53.31c.14.2,0,.43,0,.65s.32.31.54.36a4.61,4.61,0,0,1,.73.19.67.67,0,0,1,.4.39.4.4,0,0,1,0,.41c-.17.15-.53,0-.71,0a3.6,3.6,0,0,1-.78-.27,4.46,4.46,0,0,1-2-2.06,7.1,7.1,0,0,1-.56-1.54c-.12-.45-.24-1-.73-1.15-.2-.07-.28.25-.08.32Z" transform="translate(-6.61 -6.27)"/><path class="cls-2" d="M69.22,50.09c.06-.06.15-.17.25-.16s.06,0,.06,0,0,0,0,0a.61.61,0,0,0-.24.21c-.09.14,0,.28,0,.43a.64.64,0,0,1-.2.58l0,0s.07.06.08,0,0-.06,0-.09v-.12c0-.14,0-.29,0-.43a2.89,2.89,0,0,1,.3-.9c.09-.19-.19-.36-.29-.17a3.6,3.6,0,0,0-.34,1.1,2.32,2.32,0,0,0,0,.59c0,.18.13.37.34.3a.79.79,0,0,0,.36-.34,1.05,1.05,0,0,0,.13-.49.85.85,0,0,0,0-.23.61.61,0,0,1,0-.13h0l0,0c.13-.11.27-.16.29-.35a.38.38,0,0,0-.33-.37.67.67,0,0,0-.55.25c-.15.14.08.38.24.23Z" transform="translate(-6.61 -6.27)"/><path class="cls-2" d="M68.06,46.82a26.26,26.26,0,0,1,4.16-2.12,18,18,0,0,1,4.58-1.1c.81-.09,1.63-.16,2.44-.27s1.5-.24,2.24-.41a25.83,25.83,0,0,0,4.31-1.4,26.34,26.34,0,0,0,4.47-2.4c.17-.12,0-.4-.17-.28a26.21,26.21,0,0,1-8.25,3.65c-.73.18-1.47.33-2.21.45s-1.62.2-2.43.29a19.93,19.93,0,0,0-2.44.36,16.92,16.92,0,0,0-2.21.64,25.59,25.59,0,0,0-4.66,2.31.16.16,0,0,0,.17.28Z" transform="translate(-6.61 -6.27)"/><path class="cls-2" d="M63.21,44.1l1.17-.7.59-.35a3.23,3.23,0,0,1,.58-.31c.74-.25,1.36.49,1.8,1a23.58,23.58,0,0,0,3.21,3.11A8.41,8.41,0,0,0,72.74,48l.08-.32a1.1,1.1,0,0,1-.74-.64,9.58,9.58,0,0,0-.55-1,7.16,7.16,0,0,0-1.64-1.61c-.63-.47-1.3-.89-1.92-1.39a9.71,9.71,0,0,1-.89-.81,3,3,0,0,0-1-.75,2.37,2.37,0,0,0-1.57.12c-.56.16-1.12.34-1.68.55-.19.07-.11.39.09.32.48-.18,1-.34,1.45-.49a2.77,2.77,0,0,1,1.47-.23,2.19,2.19,0,0,1,1,.7,10.59,10.59,0,0,0,.85.79c1.19,1,2.65,1.67,3.54,2.94.24.34.4.73.62,1.09a1.31,1.31,0,0,0,.89.72.17.17,0,0,0,.08-.32,10.41,10.41,0,0,1-3.69-2.58c-.54-.54-1.06-1.11-1.58-1.67s-1.07-1.16-1.84-1.07a3.31,3.31,0,0,0-1.28.62L63,43.82a.16.16,0,0,0,.17.28Z" transform="translate(-6.61 -6.27)"/><path class="cls-2" d="M72.07,47a17.15,17.15,0,0,0,3.26.59,15,15,0,0,0,1.64,0,2.51,2.51,0,0,0,1.39-.41c.37-.24.75-.61,1.22-.6a.16.16,0,0,0,0-.33,1.89,1.89,0,0,0-1.1.45,5.91,5.91,0,0,1-.52.35,2.09,2.09,0,0,1-.73.2,12.36,12.36,0,0,1-1.61,0c-.55,0-1.11-.1-1.65-.19a16.47,16.47,0,0,1-1.82-.41c-.2-.06-.29.26-.08.32Z" transform="translate(-6.61 -6.27)"/><path class="cls-2" d="M78.1,47.44c.8-.18,2-.41,2.47.45a.16.16,0,0,0,.28-.16A1.66,1.66,0,0,0,79.72,47a4.31,4.31,0,0,0-1.71.15.17.17,0,0,0,.09.32Z" transform="translate(-6.61 -6.27)"/><path class="cls-2" d="M59.54,49.53a2.47,2.47,0,0,1,1.54.17,3.81,3.81,0,0,1,1.13.91,3.48,3.48,0,0,0,1.08.87,6.14,6.14,0,0,0,.84.23,4.41,4.41,0,0,1,.72.26,4.24,4.24,0,0,1,1.37,1c.14.15.37-.08.23-.23a4.6,4.6,0,0,0-1.26-1,4.09,4.09,0,0,0-.71-.3c-.28-.09-.57-.13-.85-.22a2.92,2.92,0,0,1-1.19-.87,3.86,3.86,0,0,0-1.18-1,2.87,2.87,0,0,0-1.8-.22.17.17,0,0,0,.08.32Z" transform="translate(-6.61 -6.27)"/><path class="cls-2" d="M61.69,48.27l0,0s0,0,0,0l0,0,0,0h0s0,0,0,0l.09,0h.21l.06,0,0,0s0,0,0,0l0,0,.09,0h0s0,0,0,0l0,0,0,0h0l0,0,0,0h0v0a.43.43,0,0,0,0,0v0s0,0,0,0v.13h0a.64.64,0,0,0,0,.07.43.43,0,0,0,0,0v0h0l-.06.11,0,0h0l0,.05,0,0s0,0,0,0l0,0-.05,0,0,0h0l-.07,0h0a.17.17,0,0,0-.16.17.16.16,0,0,0,.16.16.86.86,0,0,0,.76-.85A.82.82,0,0,0,61.46,48a.16.16,0,0,0,.23.23Z" transform="translate(-6.61 -6.27)"/><path class="cls-2" d="M65.49,45.35a.34.34,0,0,1,.31-.14c.15,0,.23.11.29.25a1.54,1.54,0,0,0,.23.44.82.82,0,0,0,.44.23,2.21,2.21,0,0,1,.5.21,3.49,3.49,0,0,1,.47.37,2.29,2.29,0,0,1,.72.89,2.16,2.16,0,0,0,.21.62.59.59,0,0,0,.46.28c.21,0,.21-.32,0-.33s-.25-.25-.29-.4a1.7,1.7,0,0,0-.22-.58,3.78,3.78,0,0,0-.85-.89,2,2,0,0,0-.49-.33,4.93,4.93,0,0,0-.54-.19c-.19-.07-.24-.22-.31-.39a.83.83,0,0,0-.3-.41.65.65,0,0,0-.91.21c-.12.17.17.34.28.16Z" transform="translate(-6.61 -6.27)"/><path class="cls-2" d="M65.38,45l-1.22-.54a4.08,4.08,0,0,1-1-.6c-.16-.14-.39.09-.23.23a4,4,0,0,0,1.06.64l1.26.55a.15.15,0,0,0,.22-.06.16.16,0,0,0-.06-.22Z" transform="translate(-6.61 -6.27)"/><path class="cls-2" d="M59.61,48.82a7.45,7.45,0,0,1-4,1,10.15,10.15,0,0,0-2.27,0,3.71,3.71,0,0,0-1.66.88,13.16,13.16,0,0,0-1.36,1.53c-.22.28-.45.55-.69.8s-.25.25-.38.37-.22.18-.34.13-.27-.36-.28-.54a1.54,1.54,0,0,1,.18-.75,3.93,3.93,0,0,1,1-1.28c.48-.44,1-.83,1.49-1.26a1.47,1.47,0,0,0,.59-.82.6.6,0,0,0-.43-.71c-.2,0-.29.27-.08.31a.26.26,0,0,1,.19.25.61.61,0,0,1-.19.44,6.27,6.27,0,0,1-.66.6c-.44.37-.91.72-1.32,1.13a3.77,3.77,0,0,0-1,1.35,1.33,1.33,0,0,0,.15,1.47.59.59,0,0,0,.71.05A4.25,4.25,0,0,0,50,53c.47-.52.88-1.11,1.36-1.63a4.26,4.26,0,0,1,1.57-1.16,5,5,0,0,1,2.22-.09,7.9,7.9,0,0,0,4.61-1,.17.17,0,0,0-.16-.29Z" transform="translate(-6.61 -6.27)"/><path class="cls-2" d="M48.6,53.56c-.08,1.42-.15,2.83-.2,4.25s0,2.74-.08,4.11a5,5,0,0,1-.43,2,.17.17,0,0,0,.19.24c.58-.1,1.05.46,1.28.92a6.45,6.45,0,0,0,.88,1.58.18.18,0,0,0,.28-.08c.09-.39-.17-.68-.37-1a2.47,2.47,0,0,1-.39-1.12c0-.42-.07-.86-.1-1.29l-.09-1.44c-.07-.95-.13-1.9-.2-2.85a11.32,11.32,0,0,1,.08-2.79,5.82,5.82,0,0,0,.09-2.87.17.17,0,0,0-.32.09,5,5,0,0,1-.06,2.52A9.91,9.91,0,0,0,49,57.22c0,.47,0,.94,0,1.41.12,1.85.23,3.7.38,5.54a4.05,4.05,0,0,0,.26,1.28A2.69,2.69,0,0,0,50,66c.11.16.26.35.21.56l.27-.08a10.72,10.72,0,0,1-.95-1.73A1.55,1.55,0,0,0,48,63.9l.19.24a8.66,8.66,0,0,0,.49-3.82c0-1.44.06-2.87.13-4.31,0-.82.08-1.63.13-2.45,0-.21-.31-.21-.33,0Z" transform="translate(-6.61 -6.27)"/><path class="cls-2" d="M48.62,64.22a13.16,13.16,0,0,0-.7,2.71c0,.22-.06.45-.08.68s-.06.39.07.53c.3.31.64-.34.21-.38a.16.16,0,0,0-.16.16c0,1.86-1.16,3.44-1.79,5.13a7,7,0,0,0-.39,1.49.17.17,0,0,0,.3.13,4.65,4.65,0,0,1,.62-.77c.09-.1.22-.27.35-.3s.24.18.3.27l1.24,1.83c.12.17.4,0,.28-.17a5.71,5.71,0,0,1-.8-4.37,23.5,23.5,0,0,1,.82-2.26,3.27,3.27,0,0,0,.17-1.16c0-.19-.07-.38-.07-.58s.17-.24.3-.37c.31-.29.14-.86.06-1.22a1.88,1.88,0,0,1,0-1.28c.1-.19-.18-.35-.28-.17A1.63,1.63,0,0,0,49,65.25c0,.21.08.41.12.62a1.48,1.48,0,0,1,0,.59c0,.16-.28.22-.37.37a.69.69,0,0,0-.07.53,3.08,3.08,0,0,1,0,.61,2.34,2.34,0,0,1-.09.59c-.21.81-.64,1.54-.85,2.35a6,6,0,0,0-.12,2.32,5.93,5.93,0,0,0,.92,2.47l.28-.17-.73-1.08-.37-.54a3.36,3.36,0,0,0-.35-.49.44.44,0,0,0-.43-.14.94.94,0,0,0-.44.3,6.09,6.09,0,0,0-.76.92l.3.13c.27-1.86,1.43-3.41,1.95-5.18a5.69,5.69,0,0,0,.25-1.53l-.17.17L48,67.94c.11,0,.16,0,.15,0v-.09a2,2,0,0,1,0-.23c0-.15,0-.31,0-.46.05-.33.11-.65.17-1a13.39,13.39,0,0,1,.55-1.84c.07-.2-.24-.29-.32-.09Z" transform="translate(-6.61 -6.27)"/><path class="cls-2" d="M45.73,47.9c.1.07,0,.24,0,.33a1.6,1.6,0,0,1-.28.4c-.23.27-.47.54-.72.79-.51.51-1.06,1-1.6,1.46s-1.06.95-1.55,1.48a7.15,7.15,0,0,0-1.23,1.71.78.78,0,0,0,0,.89c.27.25.69.12,1,0a5.45,5.45,0,0,0,1.88-1.05,14.53,14.53,0,0,0,1.59-1.55c.59-.64,1.19-1.27,1.81-1.88l1-.94a5.47,5.47,0,0,1,1-.82,2.92,2.92,0,0,1,2.25-.07l.58.17a.17.17,0,0,0,.09-.32,5.33,5.33,0,0,0-2.3-.34,2.36,2.36,0,0,0-1,.44,10.88,10.88,0,0,0-.94.86c-.65.61-1.29,1.25-1.91,1.9s-1.06,1.15-1.62,1.7A7.49,7.49,0,0,1,42,54.39a4.06,4.06,0,0,1-1,.36c-.14,0-.37.07-.43-.1a.57.57,0,0,1,.07-.42,6.65,6.65,0,0,1,1.23-1.7c.48-.52,1-1,1.54-1.46s1.09-1,1.59-1.46c.26-.26.5-.52.73-.8a1.22,1.22,0,0,0,.38-.84.44.44,0,0,0-.22-.35c-.17-.12-.34.16-.16.28Z" transform="translate(-6.61 -6.27)"/><path class="cls-2" d="M45.64,47.34c-1.2-.16-2.39-.32-3.58-.46a4.79,4.79,0,0,0-1.73,0,7.74,7.74,0,0,0-1.52.63,23.23,23.23,0,0,1-10,2.4l.16.21a1.84,1.84,0,0,1,1.3-.87c.74-.22,1.48-.42,2.21-.62L37,47.4a10.11,10.11,0,0,0,2.25-.88.17.17,0,0,0,0-.26.62.62,0,0,0-.6-.2c-.21,0-.12.36.09.32a.28.28,0,0,1,.27.11l0-.25a10.14,10.14,0,0,1-2.06.81l-2.3.65c-1.52.42-3.05.82-4.56,1.28a2.11,2.11,0,0,0-1.49,1.09c-.05.1.06.21.15.21a23.54,23.54,0,0,0,9.62-2.18c.5-.23,1-.51,1.5-.71a3.79,3.79,0,0,1,1.67-.23c.68.05,1.35.16,2,.25l2,.26c.2,0,.2-.31,0-.33Z" transform="translate(-6.61 -6.27)"/><path class="cls-2" d="M62.16,40.89c.17.22.35.44.51.66a2,2,0,0,1,.34.68.17.17,0,0,0,.2.12.17.17,0,0,0,.11-.21,2,2,0,0,0-.37-.75c-.18-.25-.37-.49-.56-.73a.16.16,0,0,0-.23.23Z" transform="translate(-6.61 -6.27)"/><path class="cls-2" d="M62.26,41.08c.79-.53,1.55-1.09,2.3-1.68a1.07,1.07,0,0,0,.38-.41.41.41,0,0,0-.15-.47,1.56,1.56,0,0,0-.52-.2l-.72-.2.09.24a1.67,1.67,0,0,1,.88-.51,11.14,11.14,0,0,1,1.23-.32,12.12,12.12,0,0,1,2.55-.25c.11,0,.22-.15.14-.25a1.87,1.87,0,0,0-1.64-.58,6.48,6.48,0,0,0-1.86.26,4.29,4.29,0,0,0-1.61.84,3.41,3.41,0,0,0-.6.66,1.85,1.85,0,0,1-.61.66c-.5.27-1.18.32-1.46.88-.09.19.19.36.29.17.21-.43.78-.51,1.18-.69a1.56,1.56,0,0,0,.63-.48,7.47,7.47,0,0,1,.52-.7,4.66,4.66,0,0,1,3.09-1.26c.56,0,1.42-.11,1.79.41L68.3,37a13.27,13.27,0,0,0-2.74.28c-.42.1-.85.21-1.27.35a1.88,1.88,0,0,0-.93.61.17.17,0,0,0,.1.24l.6.17a2.77,2.77,0,0,1,.49.15c.16.09,0,.21-.07.3s-.3.24-.46.35c-.62.49-1.27,1-1.93,1.4-.17.12,0,.4.17.28Z" transform="translate(-6.61 -6.27)"/><path class="cls-2" d="M60.6,40a.25.25,0,0,0,.11-.41.78.78,0,0,0-.57-.26c-.55-.12-1.1-.22-1.66-.3s-1.09-.13-1.64-.17a9.72,9.72,0,0,1-1.51-.18c-.8-.19-1.73-.77-1.69-1.71a2.41,2.41,0,0,1,.21-.74,6.39,6.39,0,0,0,.24-.74,1.65,1.65,0,0,0,.08-.73.45.45,0,0,0-.47-.3,12.25,12.25,0,0,0-3.61.5c-.21.06-.12.38.08.32a12.69,12.69,0,0,1,3-.48h.37c.07,0,.24,0,.3,0s0,.21,0,.27-.05.25-.08.37a11.57,11.57,0,0,0-.43,1.38,1.94,1.94,0,0,0,1.15,1.89,7.38,7.38,0,0,0,2.76.5c.58.05,1.16.12,1.74.22l.84.15.45.1a.33.33,0,0,1,.13,0l0,0,0,0s0,0,.06-.1c-.2.07-.12.39.09.32Z" transform="translate(-6.61 -6.27)"/><path class="cls-2" d="M50.46,35.15a12.66,12.66,0,0,0-6.58-2.6,28.76,28.76,0,0,0-3.71-.23,20.83,20.83,0,0,0-3.86.34,12.8,12.8,0,0,0-3.62,1.23,7.08,7.08,0,0,0-2.62,2.2,4.34,4.34,0,0,0-.71,1.63,3.24,3.24,0,0,0,.23,1.94,7,7,0,0,0,1,1.53,10.89,10.89,0,0,0,1.18,1.27,17.85,17.85,0,0,0,6.06,3.43l.83.28c.2.06.28-.25.08-.32a19.27,19.27,0,0,1-6-3,10.88,10.88,0,0,1-2.3-2.44,3.91,3.91,0,0,1-.72-1.69A3.36,3.36,0,0,1,30,36.85a6,6,0,0,1,2.27-2.35,11.53,11.53,0,0,1,3.38-1.36,18.07,18.07,0,0,1,3.74-.48,29.62,29.62,0,0,1,3.65.12,13.68,13.68,0,0,1,6.52,2.09c.23.16.45.33.67.51s.39-.09.23-.23Z" transform="translate(-6.61 -6.27)"/><path class="cls-2" d="M28.93,50a.5.5,0,0,0-.27-.43q-.27-.2-.54-.36A9.32,9.32,0,0,0,27,48.65a9,9,0,0,0-2.42-.71c-.17,0-.45,0-.47-.22a.83.83,0,0,1,.16-.5c.07-.13-.09-.33-.23-.23l-.81.63-.38.29a.53.53,0,0,0-.22.29c-.08.27.15.5.36.64a3.21,3.21,0,0,0,.77.37c.62.22,1.25.39,1.88.57l1.92.58a6.82,6.82,0,0,0,1,.28.63.63,0,0,0,.65-.24c.11-.18-.17-.34-.28-.17s-.33.09-.46.05-.54-.15-.8-.23L26,49.55l-1.64-.49a6.75,6.75,0,0,1-.72-.24,1.81,1.81,0,0,1-.64-.38c-.1-.11-.07-.19,0-.27l.38-.3.78-.59L24,47.05a1,1,0,0,0-.12.93.58.58,0,0,0,.48.25q.33,0,.66.12a8.86,8.86,0,0,1,2.45.88l.64.37.31.21c.07,0,.22.12.21.22s.31.21.33,0Z" transform="translate(-6.61 -6.27)"/><path class="cls-2" d="M23.08,48a8.68,8.68,0,0,0-4.46-.94c-.77,0-1.53.08-2.3.15a11.8,11.8,0,0,0-2.05.31,3.65,3.65,0,0,0-1.9,1.11c-.13.16.1.39.24.23.86-1,2.29-1.19,3.54-1.31a17.75,17.75,0,0,1,4.43,0,6.67,6.67,0,0,1,2.34.78.17.17,0,0,0,.16-.29Z" transform="translate(-6.61 -6.27)"/><path class="cls-2" d="M30.42,60.32a27.12,27.12,0,0,0-5.14,3.1,47.32,47.32,0,0,0-4.54,4c-.81.8-1.61,1.62-2.39,2.44a.17.17,0,0,0,.23.24,4.75,4.75,0,0,1,1.48-1l-.2-.2-.68,2.07c-.06.18.2.27.3.12a17.85,17.85,0,0,1,4.15-4.76c.88-.65,1.84-1.18,2.69-1.87s1.4-1.3,2.1-2A9.47,9.47,0,0,1,31,60.56c.19-.08,0-.37-.17-.28-1.78.81-3,2.41-4.44,3.67-.84.72-1.8,1.27-2.7,1.9A12.43,12.43,0,0,0,21.32,68a28.71,28.71,0,0,0-2.12,2.9l.3.12L20.18,69c0-.11-.09-.26-.21-.21a5.31,5.31,0,0,0-1.62,1.07l.23.24c1.38-1.46,2.79-2.89,4.29-4.23a35.52,35.52,0,0,1,4.75-3.63,24.92,24.92,0,0,1,3-1.6c.19-.08,0-.37-.17-.28Z" transform="translate(-6.61 -6.27)"/><path class="cls-2" d="M40.5,54.49a40.38,40.38,0,0,0-4.68,1.74c-.76.34-1.5.69-2.22,1.07a12.41,12.41,0,0,0-1.91,1.18,6.37,6.37,0,0,0-.82.74c-.23.25-.54.57-.46.94a.74.74,0,0,0,.69.52,2.45,2.45,0,0,0,1.11-.35,45.37,45.37,0,0,0,4.3-2.15,50.24,50.24,0,0,0,4.55-2.92c.17-.13,0-.41-.17-.29A48.1,48.1,0,0,1,33,59.6l-1,.47c-.3.13-.71.38-1,.24a.32.32,0,0,1-.23-.28.82.82,0,0,1,.28-.48,6.38,6.38,0,0,1,.75-.72,12.33,12.33,0,0,1,1.79-1.14c.68-.36,1.38-.7,2.08-1a38,38,0,0,1,5-1.87c.2-.06.11-.38-.09-.32Z" transform="translate(-6.61 -6.27)"/><path class="cls-2" d="M40.21,45.79a12.23,12.23,0,0,0,4.59.28A8.35,8.35,0,0,0,47,45.6a5.91,5.91,0,0,0,1.75-1.05,16.36,16.36,0,0,0,1.64-1.69c.14-.16-.09-.39-.23-.23a9.16,9.16,0,0,1-3.06,2.58,7.25,7.25,0,0,1-2,.51,16.07,16.07,0,0,1-2.19.11,10.14,10.14,0,0,1-2.51-.36.17.17,0,0,0-.09.32Z" transform="translate(-6.61 -6.27)"/><path class="cls-2" d="M49.92,43.89A2.69,2.69,0,0,0,49.81,46a2.72,2.72,0,0,0,1.24,1.43c.19.1.35-.18.17-.28a2.35,2.35,0,0,1-1-3.06c.09-.19-.19-.36-.28-.17Z" transform="translate(-6.61 -6.27)"/><path class="cls-2" d="M53.9,46.64a6.76,6.76,0,0,0,3.46.52,2,2,0,0,0,1.38-.79c.14-.22.24-.48.37-.71a7.39,7.39,0,0,1,.42-.66,5.49,5.49,0,0,1,1.29-1.21c.18-.12,0-.4-.16-.28a5.68,5.68,0,0,0-2,2.24,2,2,0,0,1-.42.67,1.58,1.58,0,0,1-.68.35,4,4,0,0,1-1.71.07A10.16,10.16,0,0,1,54,46.32c-.2-.07-.29.25-.09.32Z" transform="translate(-6.61 -6.27)"/><path class="cls-2" d="M65.3,46a.92.92,0,0,0,.66.66.17.17,0,0,0,.2-.11.17.17,0,0,0-.11-.21.45.45,0,0,1-.11,0l0,0-.12-.07,0,0h0l-.06-.05,0-.06h0l0,0a.75.75,0,0,1-.07-.12l0,0a.49.49,0,0,1,0-.11.16.16,0,0,0-.2-.11.16.16,0,0,0-.11.2Z" transform="translate(-6.61 -6.27)"/></svg>