<svg id="Layer_1" data-name="Layer 1" xmlns="http://www.w3.org/2000/svg" viewBox="0 0 228.47 559.18"><defs><style>.cls-1{fill:#ff0;}.cls-2{fill:#fff;}</style></defs><path class="cls-1" d="M324,649.77c-19.23-.17-38.45-.24-57.68-.34s-38.29-.18-57.43-.34c-7.2-.06-14.65,0-21.39,2.86a17,17,0,0,0-7.55,5.73c-1.88,2.73-2.52,6.24-2.76,9.48a15.39,15.39,0,0,0,2.06,9.55,18.07,18.07,0,0,0,6.82,5.83,33.82,33.82,0,0,0,9.67,3.65,45.17,45.17,0,0,0,10,.19c19.87-.83,39.82-.29,59.7,0,20.4.27,40.83.78,61.22.21,2.29-.06,4.57-.16,6.86-.27,1.92-.09,1.93-3.09,0-3-19.35.9-38.77.43-58.14.18-20.63-.27-41.28-.73-61.92-.32-4.39.09-8.8.44-13.19.42A25.35,25.35,0,0,1,189.62,681a19.73,19.73,0,0,1-7.16-4.88c-2.2-2.63-2.57-6.05-2.27-9.35s1.07-6.45,3.35-8.76c4.8-4.86,12.8-5.66,19.26-5.86,8.82-.26,17.69.06,26.51.11l30.72.16q29.5.15,59,.33l4.91,0A1.49,1.49,0,0,0,324,649.77Z" transform="translate(-142 -131)"/><path class="cls-1" d="M312.27,652.14q-1.11,15.92-1.1,31.88a1.5,1.5,0,0,0,3,0q0-16,1.1-31.88C315.4,650.22,312.4,650.23,312.27,652.14Z" transform="translate(-142 -131)"/><path class="cls-1" d="M313.29,675l8.89.44a1.51,1.51,0,0,0,1.5-1.5,1.53,1.53,0,0,0-1.5-1.5l-8.89-.44a1.5,1.5,0,1,0,0,3Z" transform="translate(-142 -131)"/><path class="cls-1" d="M313.79,664l8.26-.16a1.5,1.5,0,0,0,0-3l-8.26.16a1.5,1.5,0,1,0,0,3Z" transform="translate(-142 -131)"/><path class="cls-1" d="M198.31,649.33a21.23,21.23,0,0,1-14.63-10.88,19.68,19.68,0,0,1-.12-18.19A21.07,21.07,0,0,1,199,608.88c5.67-1,11.58-.5,17.31-.42q15.08.19,30.17.23,17.79.07,35.57.07c9.53,0,19.06,0,28.58-.09l2.53,0a1.5,1.5,0,0,0,0-3c-9.42.09-18.84.1-28.26.11q-18.39,0-36.78-.06-15.84-.06-31.69-.23c-6-.08-12.07-.52-18,.49a23.87,23.87,0,0,0-16.77,11.53,22.88,22.88,0,0,0-2,19.22,24.51,24.51,0,0,0,13.12,14,22.62,22.62,0,0,0,4.76,1.47C199.4,652.58,200.21,649.68,198.31,649.33Z" transform="translate(-142 -131)"/><path class="cls-1" d="M312.38,607.28l-.27,21.45c-.05,3.58-.12,7.16-.08,10.74s.36,7.34.46,11c.05,1.93,3.05,1.93,3,0-.1-3.59-.41-7.17-.46-10.77s0-7.33.07-11l.27-21.45C315.41,605.35,312.41,605.35,312.38,607.28Z" transform="translate(-142 -131)"/><path class="cls-1" d="M313.92,641.28a48.32,48.32,0,0,0,8.5.31,1.5,1.5,0,0,0,0-3,47.34,47.34,0,0,1-8.5-.31,1.5,1.5,0,0,0-1.5,1.5A1.57,1.57,0,0,0,313.92,641.28Z" transform="translate(-142 -131)"/><path class="cls-1" d="M313.54,630.22c3,.14,5.93.18,8.89.12a1.5,1.5,0,0,0,0-3q-4.46.09-8.89-.12a1.51,1.51,0,0,0-1.5,1.5A1.54,1.54,0,0,0,313.54,630.22Z" transform="translate(-142 -131)"/><path class="cls-1" d="M314.05,619.29a57.42,57.42,0,0,0,7.87,0,1.5,1.5,0,1,0,0-3,57.42,57.42,0,0,1-7.87,0,1.51,1.51,0,0,0-1.5,1.5A1.53,1.53,0,0,0,314.05,619.29Z" transform="translate(-142 -131)"/><path class="cls-1" d="M321.91,605.06a37.81,37.81,0,0,1-8.37.72,1.51,1.51,0,0,0-1.5,1.5,1.53,1.53,0,0,0,1.5,1.5,41.44,41.44,0,0,0,9.16-.83,1.5,1.5,0,1,0-.79-2.89Z" transform="translate(-142 -131)"/><path class="cls-1" d="M311.5,529c0,20.2.29,40.4.06,60.6q-.09,8.6-.53,17.17c-.1,1.93,2.9,1.92,3,0,1-20.1.55-40.28.51-60.4q0-8.68,0-17.37A1.5,1.5,0,0,0,311.5,529Z" transform="translate(-142 -131)"/><path class="cls-1" d="M312.53,528.85c-24.67.28-88.34.56-113,.84a58.88,58.88,0,0,0-12.52,1,33.25,33.25,0,0,0-17.91,11.43,44.11,44.11,0,0,0-8.9,19.47,35.5,35.5,0,0,0-.67,10.53c1,10.11,7.77,18.75,15.26,25.62,3.23,3,6.75,5.76,10.91,7.13a36,36,0,0,0,10,1.34c26,1,91,1.38,117,1" transform="translate(-142 -131)"/><path class="cls-1" d="M312.53,527.35q-13.66.15-27.32.23l-35.06.23q-16.83.11-33.67.23l-13.23.11c-6.4.06-13-.18-19.16,1.83-14.11,4.6-23,18.07-25.53,32.2a33.08,33.08,0,0,0,3.07,21.66c3.24,6.21,8.12,11.56,13.36,16.14a32.54,32.54,0,0,0,9.12,5.95c3.67,1.47,7.67,1.68,11.57,1.83q6.19.24,12.39.38,16.37.39,32.73.53,17.93.2,35.86.24,15.21,0,30.43,0c1.85,0,3.71,0,5.56-.06a1.5,1.5,0,0,0,0-3c-9,.12-17.95.13-26.92.12q-17.26,0-34.54-.16-16.92-.13-33.84-.44-7-.14-14.06-.32c-5.08-.14-10.48.1-15.43-1-6.92-1.61-12.57-7.27-17.14-12.41s-8.26-11-9.47-17.81c-1.31-7.35.64-15.55,3.76-22.23a36.08,36.08,0,0,1,13.55-15.68,29.56,29.56,0,0,1,9.52-3.8,60.42,60.42,0,0,1,11.64-.84l11.82-.11q15.79-.14,31.59-.22l34.84-.22q14.63-.11,29.25-.22l5.31,0C314.46,530.32,314.46,527.32,312.53,527.35Z" transform="translate(-142 -131)"/><path class="cls-1" d="M322.69,593.77q-4.26.15-8.51,0a1.5,1.5,0,0,0-1.5,1.5,1.53,1.53,0,0,0,1.5,1.5c2.84.1,5.68.11,8.51,0a1.5,1.5,0,1,0,0-3Z" transform="translate(-142 -131)"/><path class="cls-1" d="M322.81,583.13a37.54,37.54,0,0,1-4.24.14c-.69,0-1.39-.06-2.08-.12s-1.36-.14-1.91-.22a1.5,1.5,0,0,0-.8,2.9,37.92,37.92,0,0,0,9,.32,1.53,1.53,0,0,0,1.5-1.5A1.51,1.51,0,0,0,322.81,583.13Z" transform="translate(-142 -131)"/><path class="cls-1" d="M321.93,560.75c-.16.08-.18.09,0,0l-.21.07c-.06,0-.54.1-.25.07a6.65,6.65,0,0,1-.89,0c-.7,0-1.38-.15-2.08-.21a29,29,0,0,0-4.66.13,1.5,1.5,0,0,0,0,3,26.94,26.94,0,0,1,5-.1c1.62.17,3.14.36,4.65-.41a1.51,1.51,0,0,0,.54-2.05A1.53,1.53,0,0,0,321.93,560.75Z" transform="translate(-142 -131)"/><path class="cls-1" d="M322.56,549.81q-4.38-.27-8.76-.65a1.51,1.51,0,0,0-1.5,1.5,1.54,1.54,0,0,0,1.5,1.5c2.92.25,5.84.46,8.76.65a1.5,1.5,0,0,0,0-3Z" transform="translate(-142 -131)"/><path class="cls-1" d="M322.81,538.53a39,39,0,0,1-8.9.12,1.51,1.51,0,0,0-1.5,1.5,1.54,1.54,0,0,0,1.5,1.5,39,39,0,0,0,8.9-.12,1.54,1.54,0,0,0,1.5-1.5C324.28,539.3,323.65,538.42,322.81,538.53Z" transform="translate(-142 -131)"/><path class="cls-1" d="M322.43,527.49c-3.18.09-6.35,0-9.53-.14a1.51,1.51,0,0,0-1.5,1.5,1.54,1.54,0,0,0,1.5,1.5q4.75.28,9.53.14a1.5,1.5,0,1,0,0-3Z" transform="translate(-142 -131)"/><path class="cls-1" d="M331.75,572.49a4.2,4.2,0,0,1-1.73.1l-2.14,0c-1.48,0-3-.08-4.45-.14-3-.11-5.93-.27-8.89-.47-1.93-.13-1.92,2.87,0,3,3.2.22,6.4.38,9.6.5,1.54,0,3.08.1,4.63.13a9.87,9.87,0,0,0,4.49-.49,1.51,1.51,0,0,0,.54-2.05A1.54,1.54,0,0,0,331.75,572.49Z" transform="translate(-142 -131)"/><path class="cls-1" d="M332,483.32c-4.61-.59-9.23-.17-13.85.19a98.61,98.61,0,0,1-14.07.05c-5.53-.37-11-.85-16.57-1-11.06-.28-22.13-.19-33.19-.07q-17.68.19-35.36.73c-4.16.13-8.31.27-12.46.48-7.43.37-15.56.77-21.38,6a17.29,17.29,0,0,0-5.14,10.54c-.62,4.15-1,8.62.22,12.71,2.27,7.73,9.06,12.87,16.29,15.67a51.24,51.24,0,0,0,6,1.87c1.87.47,2.67-2.42.8-2.89-7.47-1.88-15.16-5.31-19-12.41-2-3.67-2.09-7.67-1.74-11.74.33-3.85,1.06-7.9,3.81-10.81,5.14-5.46,13.36-5.63,20.33-6,4-.2,8-.33,12-.46q17-.53,34-.71c10.88-.13,21.76-.22,32.63,0,4.39.09,8.76.28,13.13.62s8.94.73,13.42.69,9-.65,13.44-.79a42.5,42.5,0,0,1,6.67.28C333.87,486.56,333.85,483.56,332,483.32Z" transform="translate(-142 -131)"/><path class="cls-1" d="M312.09,485.56c-.24,3.46-.57,6.94-.62,10.41s.41,7.18.57,10.78c.33,7.27,0,14.59,0,21.86a1.5,1.5,0,0,0,3,0c.05-7.27.35-14.59,0-21.86-.16-3.52-.61-7-.58-10.54s.37-7.11.62-10.65C315.23,483.63,312.22,483.64,312.09,485.56Z" transform="translate(-142 -131)"/><path class="cls-1" d="M314.18,519.44l8.51.26a1.51,1.51,0,0,0,1.5-1.5,1.54,1.54,0,0,0-1.5-1.5l-8.51-.26a1.5,1.5,0,0,0,0,3Z" transform="translate(-142 -131)"/><path class="cls-1" d="M322.81,505.47l-8.38.26a1.5,1.5,0,0,0,0,3l8.38-.26a1.5,1.5,0,0,0,0-3Z" transform="translate(-142 -131)"/><path class="cls-1" d="M322.43,493.92c-2.79.15-5.59.26-8.38.32a1.5,1.5,0,1,0,0,3q4.2-.09,8.38-.32a1.5,1.5,0,0,0,0-3Z" transform="translate(-142 -131)"/><path class="cls-1" d="M313.66,438.36c-9.69.11-19.37.17-29.06.23l-37.26.23q-16.84.1-33.7.23c-5.14,0-10.49-.27-15.58.44a23,23,0,0,0-16.09,11C178,457,176.86,465,180.68,471.78c3.44,6.08,9.15,11.88,15.92,14.05a18.06,18.06,0,0,0,5.26.83,1.5,1.5,0,0,0,0-3c-7-.08-12.82-5.17-16.74-10.56-2.31-3.17-4-6.59-3.85-10.59a21.52,21.52,0,0,1,2.84-9.7,20.05,20.05,0,0,1,15.31-10.47c4.77-.46,9.68-.24,14.47-.28q16.05-.13,32.1-.22l35.89-.22q14.61-.09,29.21-.22l2.58,0A1.51,1.51,0,0,0,313.66,438.36Z" transform="translate(-142 -131)"/><path class="cls-1" d="M311.84,439.93c-.35,15.08-.28,30.16-.32,45.24a1.5,1.5,0,0,0,3,0c.05-15.08,0-30.16.32-45.24C314.88,438,311.88,438,311.84,439.93Z" transform="translate(-142 -131)"/><path class="cls-1" d="M322.69,471.86a58.78,58.78,0,0,1-8.9.44,1.5,1.5,0,0,0,0,3,57.57,57.57,0,0,0,8.9-.44,1.54,1.54,0,0,0,1.5-1.5C324.16,472.63,323.52,471.75,322.69,471.86Z" transform="translate(-142 -131)"/><path class="cls-1" d="M322.57,460.87a67.83,67.83,0,0,1-8.9.29,1.5,1.5,0,0,0-1.5,1.5,1.54,1.54,0,0,0,1.5,1.5,67.83,67.83,0,0,0,8.9-.29,1.54,1.54,0,0,0,1.5-1.5A1.52,1.52,0,0,0,322.57,460.87Z" transform="translate(-142 -131)"/><path class="cls-1" d="M322.94,449.83l-8.89.17a1.5,1.5,0,1,0,0,3l8.89-.17a1.5,1.5,0,0,0,0-3Z" transform="translate(-142 -131)"/><path class="cls-1" d="M322.94,438.82a57.81,57.81,0,0,1-8-.43,1.5,1.5,0,0,0-1.5,1.5,1.54,1.54,0,0,0,1.5,1.5,57.81,57.81,0,0,0,8,.43,1.5,1.5,0,0,0,0-3Z" transform="translate(-142 -131)"/><path class="cls-1" d="M332.37,394.23l-32.06.06-40.28.06-37.35.06c-4.87,0-9.75,0-14.62,0-7.23.06-15.09.56-20.92,5.35a21.66,21.66,0,0,0-6.31,9.72c-1.43,4-2.33,8.52-1.48,12.78.81,4,3.39,7.42,6,10.48,2.47,2.87,5.22,5.73,8.63,7.46a15.39,15.39,0,0,0,5.34,1.58c1.92.21,1.9-2.79,0-3-3.69-.4-6.76-2.8-9.29-5.36a33.42,33.42,0,0,1-6.88-9.08c-1.83-4-1.17-8.43.05-12.5a20.25,20.25,0,0,1,5.62-9.59c5.44-4.8,13.55-4.82,20.39-4.84l13.6,0,35.63-.06,38.88-.06,32-.06h3.06A1.5,1.5,0,0,0,332.37,394.23Z" transform="translate(-142 -131)"/><path class="cls-1" d="M311.88,395.85c.11,7.52.22,15,.19,22.56q0,5.58-.16,11.15c-.1,3.68-.49,7.42.21,11.05.37,1.89,3.26,1.09,2.89-.8-.67-3.49-.18-7.22-.09-10.75q.13-5.58.15-11.15c0-7.36-.08-14.71-.19-22.06C314.85,393.92,311.85,393.91,311.88,395.85Z" transform="translate(-142 -131)"/><path class="cls-1" d="M322.69,405.92l-8,.16a1.5,1.5,0,0,0,0,3l8-.16a1.5,1.5,0,0,0,0-3Z" transform="translate(-142 -131)"/><path class="cls-1" d="M322.8,416.75l-.88.12-1,.11c-.71.07-1.43.12-2.15.15-1.44.06-2.87.05-4.31,0a1.52,1.52,0,0,0-1.5,1.5,1.54,1.54,0,0,0,1.5,1.5,44.54,44.54,0,0,0,9.16-.47,1.51,1.51,0,0,0,1.05-1.85A1.53,1.53,0,0,0,322.8,416.75Z" transform="translate(-142 -131)"/><path class="cls-1" d="M322.56,427.93l-8.77-.12a1.5,1.5,0,0,0,0,3l8.77.12a1.5,1.5,0,0,0,0-3Z" transform="translate(-142 -131)"/><path class="cls-1" d="M322.68,339.57c-10.6-.68-21.24-.77-31.86-.86-13.5-.12-27-.07-40.49.06-11.43.11-22.87.27-34.3.55-7,.18-14.4,0-21.09,2.44a25.51,25.51,0,0,0-15.32,15.89c-5.17,15,4.21,33.43,19.24,38.39a23.31,23.31,0,0,0,5.67,1.09c1.93.14,1.92-2.86,0-3C189,393,178.15,374.68,182,360.24a22.55,22.55,0,0,1,13.77-15.59c6.45-2.34,13.52-2.16,20.29-2.33,10.88-.27,21.76-.43,32.64-.54q19.53-.19,39.05-.1c10.72.07,21.45.17,32.15.72l2.81.16C324.61,342.69,324.6,339.69,322.68,339.57Z" transform="translate(-142 -131)"/><path class="cls-1" d="M312,341c.39,18.18.79,36.34-.2,54.51-.1,1.93,2.9,1.92,3,0,1-18.16.59-36.33.2-54.51C315,339,312,339,312,341Z" transform="translate(-142 -131)"/><path class="cls-1" d="M322.82,383.54l-7.5-.08a1.5,1.5,0,0,0,0,3l7.5.08a1.5,1.5,0,0,0,0-3Z" transform="translate(-142 -131)"/><path class="cls-1" d="M322.68,372.48l-.11,0-.17,0-.59.07-1,.1c-.71.06-1.41.1-2.12.12a40.21,40.21,0,0,1-4.25-.11,1.51,1.51,0,0,0-1.5,1.5,1.54,1.54,0,0,0,1.5,1.5,40.8,40.8,0,0,0,9-.33,1.5,1.5,0,0,0,1-1.85A1.53,1.53,0,0,0,322.68,372.48Z" transform="translate(-142 -131)"/><path class="cls-1" d="M323.07,361.53c-2.63,0-5.25-.09-7.88-.25a1.51,1.51,0,0,0-1.5,1.5,1.54,1.54,0,0,0,1.5,1.5q3.93.24,7.88.25a1.5,1.5,0,0,0,0-3Z" transform="translate(-142 -131)"/><path class="cls-1" d="M322.69,350.33a76,76,0,0,0-8.13.1,1.5,1.5,0,0,0,0,3,73.51,73.51,0,0,1,8.13-.1,1.51,1.51,0,0,0,1.5-1.5A1.53,1.53,0,0,0,322.69,350.33Z" transform="translate(-142 -131)"/><path class="cls-1" d="M322.81,284c-10.71-.33-21.43-.51-32.15-.65q-20.25-.27-40.5-.26c-11.83,0-23.67.09-35.49.53-6.33.23-13.15.07-19.06,2.61-7.28,3.13-12.62,9.88-15.15,17.26a28.55,28.55,0,0,0,2.17,23.62,26.91,26.91,0,0,0,8.2,8.62,56,56,0,0,0,11.33,6,16.35,16.35,0,0,0,6.3,1.13c1.93-.06,1.93-3.06,0-3-4.24.14-8-2.09-11.62-4.06s-7-4.1-9.56-7.26a25,25,0,0,1-4.59-22c1.89-7.37,6.86-14.29,13.91-17.47,5.51-2.49,12.12-2.21,18.08-2.43,11.32-.42,22.65-.5,34-.53q19.53,0,39.07.22c10.73.13,21.47.31,32.2.61l2.9.08C324.74,287,324.74,284,322.81,284Z" transform="translate(-142 -131)"/><path class="cls-1" d="M311.6,285.55a39.21,39.21,0,0,1,.08,6.68l-.21,7-.42,13.94a81.89,81.89,0,0,0,.29,13.29,48.86,48.86,0,0,1,.21,13.23,1.57,1.57,0,0,0,1.05,1.85,1.52,1.52,0,0,0,1.85-1.05,49.84,49.84,0,0,0,0-13.53,83.7,83.7,0,0,1-.36-13.8q.22-7.22.44-14.44c.14-4.6.66-9.38,0-14C314.22,282.85,311.33,283.66,311.6,285.55Z" transform="translate(-142 -131)"/><path class="cls-1" d="M332.35,294.6H313.8a1.5,1.5,0,0,0,0,3h18.55A1.5,1.5,0,0,0,332.35,294.6Z" transform="translate(-142 -131)"/><path class="cls-1" d="M323.33,305.73l-10.17-.31a1.5,1.5,0,0,0,0,3l10.17.31a1.5,1.5,0,0,0,0-3Z" transform="translate(-142 -131)"/><path class="cls-1" d="M322.78,317c-3,.6-6.37.26-9.5.14a1.51,1.51,0,0,0-1.5,1.5,1.53,1.53,0,0,0,1.5,1.5c3.43.13,6.91.43,10.3-.25a1.5,1.5,0,1,0-.8-2.89Z" transform="translate(-142 -131)"/><path class="cls-1" d="M322.56,328.17a47.59,47.59,0,0,0-8.27,0,1.53,1.53,0,0,0-1.5,1.5,1.51,1.51,0,0,0,1.5,1.5,48.59,48.59,0,0,1,8.27,0,1.51,1.51,0,0,0,1.5-1.5A1.54,1.54,0,0,0,322.56,328.17Z" transform="translate(-142 -131)"/><path class="cls-1" d="M323.33,250.7q-15.33.17-30.67.26l-38.58.26q-18.5.12-37,.26l-14.94.13c-6.28.06-13.44-.53-18.14,4.44a21.14,21.14,0,0,0-4.84,9.68,14.57,14.57,0,0,0,1.15,10.59c3.73,6.88,11.54,9.53,18.9,10.07,2.11.16,4.23.16,6.34.13,1.93,0,1.93-3,0-3-7.34.11-15.61-.35-20.87-6.19a11.31,11.31,0,0,1-2.9-9.49,18.8,18.8,0,0,1,4.22-9.53c4.2-4.58,11.2-3.65,16.87-3.71l14.37-.13,35.43-.25,37.2-.25q15.3-.1,30.59-.25l2.87,0A1.5,1.5,0,0,0,323.33,250.7Z" transform="translate(-142 -131)"/><path class="cls-1" d="M312.11,253.05c.7,2.41.08,5,0,7.49-.1,2.64,0,5.27.11,7.91.24,5.27.64,10.6-.17,15.83-.29,1.89,2.6,2.7,2.89.8.85-5.53.53-11.07.28-16.63-.12-2.71-.22-5.43-.1-8.15s.67-5.4-.1-8.05A1.5,1.5,0,0,0,312.11,253.05Z" transform="translate(-142 -131)"/><path class="cls-1" d="M322.82,261.31a69.18,69.18,0,0,0-8.64.12,1.5,1.5,0,0,0,0,3,69.21,69.21,0,0,1,8.64-.12,1.51,1.51,0,0,0,1.5-1.5A1.54,1.54,0,0,0,322.82,261.31Z" transform="translate(-142 -131)"/><path class="cls-1" d="M323.2,272.23a71.2,71.2,0,0,1-8.39.26,1.51,1.51,0,0,0-1.5,1.5,1.53,1.53,0,0,0,1.5,1.5,71.2,71.2,0,0,0,8.39-.26,1.5,1.5,0,1,0,0-3Z" transform="translate(-142 -131)"/><path class="cls-1" d="M322.43,206.09q-14.37.1-28.74.15l-37.21.15q-16.38.06-32.77.15c-6,0-12,0-17.92.27-4.22.2-8.71.35-12.71,1.87a28.16,28.16,0,0,0-9.67,6.78c-3,3-4,6.43-4.16,10.55a42.26,42.26,0,0,0,1.16,12.78c1.12,3.86,4.17,6,7.27,8.24A39.64,39.64,0,0,0,198,252.82a19.65,19.65,0,0,0,5.69,1c1.93.07,1.93-2.93,0-3-3.85-.14-7.35-1.75-10.56-3.76-1.57-1-3.08-2.06-4.57-3.16a17.3,17.3,0,0,1-4.15-3.66,12.22,12.22,0,0,1-1.66-5.45,52.08,52.08,0,0,1-.46-6.24,26,26,0,0,1,.38-6,9.91,9.91,0,0,1,2.77-4.9c2.62-2.69,5.72-5.28,9.34-6.45,4-1.3,8.38-1.37,12.54-1.53,5.56-.2,11.12-.18,16.68-.21q15.6-.09,31.21-.14l35.83-.14q14.43-.06,28.85-.14l2.6,0A1.5,1.5,0,0,0,322.43,206.09Z" transform="translate(-142 -131)"/><path class="cls-1" d="M311.59,208.18q.07,21.91.14,43.84a1.5,1.5,0,0,0,3,0q-.08-21.92-.14-43.84A1.5,1.5,0,0,0,311.59,208.18Z" transform="translate(-142 -131)"/><path class="cls-1" d="M323.94,218.46a1.76,1.76,0,0,0-1.27-1.26,2.88,2.88,0,0,0-1.17,0c-.81.1-1.62.17-2.44.21a38,38,0,0,1-4.89,0,1.51,1.51,0,0,0-1.5,1.5,1.54,1.54,0,0,0,1.5,1.5,38.46,38.46,0,0,0,4.16.08q1,0,2-.12l1-.1.49-.06.25,0a1.16,1.16,0,0,1-.67-.29l-.39-.66s0,0,0,.08a1.5,1.5,0,1,0,2.9-.8Z" transform="translate(-142 -131)"/><path class="cls-1" d="M322.82,228.07q-4.4-.15-8.77.14a1.5,1.5,0,0,0,0,3c2.92-.19,5.85-.24,8.77-.14a1.5,1.5,0,0,0,1.5-1.5A1.54,1.54,0,0,0,322.82,228.07Z" transform="translate(-142 -131)"/><path class="cls-1" d="M322.94,239.19a73.35,73.35,0,0,1-8.51.4,1.5,1.5,0,0,0,0,3,73.35,73.35,0,0,0,8.51-.4,1.53,1.53,0,0,0,1.5-1.5A1.51,1.51,0,0,0,322.94,239.19Z" transform="translate(-142 -131)"/><path class="cls-1" d="M323.17,161.7q-15.33.15-30.67.22l-38.81.22q-17.79.11-35.57.22c-4.88,0-9.76,0-14.64.16a35.82,35.82,0,0,0-11.21,1.83,19.59,19.59,0,0,0-8.86,6.67,30.72,30.72,0,0,0-5.24,10.63c-1.09,4.3-.19,8.34,1.63,12.29,3.27,7.06,9,13.44,16.85,15.25a18.38,18.38,0,0,0,5.82.41c1.91-.18,1.92-3.18,0-3-8,.73-14.62-4.51-18.47-11.08-2-3.45-3.86-7.48-3.25-11.58a26.08,26.08,0,0,1,4.54-10.44A16.64,16.64,0,0,1,193.8,167a36.7,36.7,0,0,1,10.68-1.49c4.58-.12,9.17-.1,13.76-.13q16.95-.12,33.89-.21l37.59-.21q15.31-.09,30.62-.21l2.81,0A1.5,1.5,0,0,0,323.17,161.7Z" transform="translate(-142 -131)"/><path class="cls-1" d="M312.68,163.32q.09,22.05-.64,44.08c-.06,1.93,2.94,1.93,3,0q.72-22,.64-44.08A1.5,1.5,0,0,0,312.68,163.32Z" transform="translate(-142 -131)"/><path class="cls-1" d="M322.94,172.58c-2.75.22-5.5.3-8.25.26a1.5,1.5,0,0,0,0,3c2.75,0,5.51,0,8.25-.26a1.5,1.5,0,0,0,0-3Z" transform="translate(-142 -131)"/><path class="cls-1" d="M323.58,183.89l-8.64,0a1.5,1.5,0,0,0,0,3l8.64,0a1.5,1.5,0,0,0,0-3Z" transform="translate(-142 -131)"/><path class="cls-1" d="M332.86,195.32a118.71,118.71,0,0,1-17.79-.24c-1.92-.17-1.91,2.83,0,3a117.4,117.4,0,0,0,17.79.24C334.78,198.21,334.79,195.21,332.86,195.32Z" transform="translate(-142 -131)"/><path class="cls-2" d="M352.79,192h-3.73l0,2.3a1.65,1.65,0,0,1,.26-.08,2,2,0,0,1,.34-.06l.34,0h.29a3,3,0,0,1,1.18.22,2.73,2.73,0,0,1,.9.62,2.8,2.8,0,0,1,.58,1,3.45,3.45,0,0,1,.2,1.23,3,3,0,0,1-.25,1.25,2.9,2.9,0,0,1-.7,1,3.15,3.15,0,0,1-1,.62,3.7,3.7,0,0,1-1.26.21,3.08,3.08,0,0,1-1.69-.48,2.68,2.68,0,0,1-1.08-1.38l1.25-.43a2,2,0,0,0,.67.92,1.82,1.82,0,0,0,1,.28,1.85,1.85,0,0,0,.7-.13,1.65,1.65,0,0,0,.95-1,2.18,2.18,0,0,0,.14-.79,1.82,1.82,0,0,0-.62-1.51,2.5,2.5,0,0,0-1.61-.5,4.3,4.3,0,0,0-.89.12,4.18,4.18,0,0,0-1,.36l.1-4.85h4.94V192Z" transform="translate(-142 -131)"/><path class="cls-2" d="M356.87,195.42q0,.45.06,1.08a5.22,5.22,0,0,0,.25,1.2,2.53,2.53,0,0,0,.58,1,1.36,1.36,0,0,0,1,.4,1.34,1.34,0,0,0,1-.4,2.74,2.74,0,0,0,.58-1,5.33,5.33,0,0,0,.25-1.2c0-.41.06-.78.06-1.08s0-.44,0-.71a5.9,5.9,0,0,0-.09-.81,6.52,6.52,0,0,0-.2-.79,3.17,3.17,0,0,0-.34-.69,1.55,1.55,0,0,0-.53-.49,1.47,1.47,0,0,0-.74-.18,1.45,1.45,0,0,0-.74.18,1.65,1.65,0,0,0-.53.49,2.34,2.34,0,0,0-.34.69,5.38,5.38,0,0,0-.2.79,5.58,5.58,0,0,0-.09.81C356.88,195,356.87,195.22,356.87,195.42Zm-1.25,0c0-.34,0-.69.05-1a6.48,6.48,0,0,1,.19-1.07,5.77,5.77,0,0,1,.36-1,3.14,3.14,0,0,1,.58-.84,2.65,2.65,0,0,1,.85-.57,2.83,2.83,0,0,1,1.14-.21,2.86,2.86,0,0,1,1.14.21,2.5,2.5,0,0,1,.84.57,3.17,3.17,0,0,1,.59.84,5.77,5.77,0,0,1,.36,1,7.73,7.73,0,0,1,.19,1.07,9.45,9.45,0,0,1,0,1,9.65,9.65,0,0,1-.13,1.56,5.71,5.71,0,0,1-.48,1.55,3.19,3.19,0,0,1-1,1.18,2.92,2.92,0,0,1-3.18,0,3.38,3.38,0,0,1-1-1.18,5.2,5.2,0,0,1-.48-1.55A9.74,9.74,0,0,1,355.62,195.42Z" transform="translate(-142 -131)"/><path class="cls-2" d="M365.38,195.42q0,.45.06,1.08a5.22,5.22,0,0,0,.25,1.2,2.53,2.53,0,0,0,.58,1,1.53,1.53,0,0,0,2.06,0,2.74,2.74,0,0,0,.58-1,5.33,5.33,0,0,0,.25-1.2c0-.41.06-.78.06-1.08s0-.44,0-.71a5.9,5.9,0,0,0-.09-.81,6.52,6.52,0,0,0-.2-.79,3.17,3.17,0,0,0-.34-.69,1.55,1.55,0,0,0-.53-.49,1.61,1.61,0,0,0-1.48,0,1.65,1.65,0,0,0-.53.49,2.79,2.79,0,0,0-.35.69,5.38,5.38,0,0,0-.2.79,5.58,5.58,0,0,0-.09.81C365.38,195,365.38,195.22,365.38,195.42Zm-1.24,0c0-.34,0-.69.05-1a7.73,7.73,0,0,1,.19-1.07,5.77,5.77,0,0,1,.36-1,3.14,3.14,0,0,1,.58-.84,2.71,2.71,0,0,1,.84-.57,3.2,3.2,0,0,1,2.28,0,2.65,2.65,0,0,1,.85.57,2.93,2.93,0,0,1,.58.84,5.77,5.77,0,0,1,.36,1,7.73,7.73,0,0,1,.19,1.07,9.45,9.45,0,0,1,.05,1,9.65,9.65,0,0,1-.13,1.56,5.71,5.71,0,0,1-.48,1.55,3.19,3.19,0,0,1-1,1.18,2.92,2.92,0,0,1-3.18,0,3.38,3.38,0,0,1-1-1.18,5.6,5.6,0,0,1-.48-1.55A10.86,10.86,0,0,1,364.14,195.42Z" transform="translate(-142 -131)"/><path class="cls-2" d="M351,293.3h0l-2.81,4.6H351v-4.6Zm0,5.7H347.1v-1.27l3.67-5.9h1.51v6.08h1.3V299h-1.3v2H351Z" transform="translate(-142 -131)"/><path class="cls-2" d="M356.87,296.42q0,.45.06,1.08a5.22,5.22,0,0,0,.25,1.2,2.53,2.53,0,0,0,.58,1,1.36,1.36,0,0,0,1,.4,1.34,1.34,0,0,0,1-.4,2.74,2.74,0,0,0,.58-1,5.33,5.33,0,0,0,.25-1.2c0-.41.06-.78.06-1.08s0-.44,0-.71a5.9,5.9,0,0,0-.09-.81,6.52,6.52,0,0,0-.2-.79,3.17,3.17,0,0,0-.34-.69,1.55,1.55,0,0,0-.53-.49,1.47,1.47,0,0,0-.74-.18,1.45,1.45,0,0,0-.74.18,1.65,1.65,0,0,0-.53.49,2.34,2.34,0,0,0-.34.69,5.38,5.38,0,0,0-.2.79,5.58,5.58,0,0,0-.09.81C356.88,296,356.87,296.22,356.87,296.42Zm-1.25,0c0-.34,0-.69.05-1.05a6.48,6.48,0,0,1,.19-1.07,5.77,5.77,0,0,1,.36-1,3.14,3.14,0,0,1,.58-.84,2.65,2.65,0,0,1,.85-.57,2.83,2.83,0,0,1,1.14-.21,2.86,2.86,0,0,1,1.14.21,2.5,2.5,0,0,1,.84.57,3.17,3.17,0,0,1,.59.84,5.77,5.77,0,0,1,.36,1,7.73,7.73,0,0,1,.19,1.07,9.45,9.45,0,0,1,0,1.05,9.65,9.65,0,0,1-.13,1.56,5.71,5.71,0,0,1-.48,1.55,3.19,3.19,0,0,1-1,1.18,2.92,2.92,0,0,1-3.18,0,3.38,3.38,0,0,1-1-1.18,5.2,5.2,0,0,1-.48-1.55A9.74,9.74,0,0,1,355.62,296.42Z" transform="translate(-142 -131)"/><path class="cls-2" d="M365.38,296.42q0,.45.06,1.08a5.22,5.22,0,0,0,.25,1.2,2.53,2.53,0,0,0,.58,1,1.53,1.53,0,0,0,2.06,0,2.74,2.74,0,0,0,.58-1,5.33,5.33,0,0,0,.25-1.2c0-.41.06-.78.06-1.08s0-.44,0-.71a5.9,5.9,0,0,0-.09-.81,6.52,6.52,0,0,0-.2-.79,3.17,3.17,0,0,0-.34-.69,1.55,1.55,0,0,0-.53-.49,1.61,1.61,0,0,0-1.48,0,1.65,1.65,0,0,0-.53.49,2.79,2.79,0,0,0-.35.69,5.38,5.38,0,0,0-.2.79,5.58,5.58,0,0,0-.09.81C365.38,296,365.38,296.22,365.38,296.42Zm-1.24,0c0-.34,0-.69.05-1.05a7.73,7.73,0,0,1,.19-1.07,5.77,5.77,0,0,1,.36-1,3.14,3.14,0,0,1,.58-.84,2.71,2.71,0,0,1,.84-.57,3.2,3.2,0,0,1,2.28,0,2.65,2.65,0,0,1,.85.57,2.93,2.93,0,0,1,.58.84,5.77,5.77,0,0,1,.36,1,7.73,7.73,0,0,1,.19,1.07,9.45,9.45,0,0,1,.05,1.05,9.65,9.65,0,0,1-.13,1.56,5.71,5.71,0,0,1-.48,1.55,3.19,3.19,0,0,1-1,1.18,2.92,2.92,0,0,1-3.18,0,3.38,3.38,0,0,1-1-1.18,5.6,5.6,0,0,1-.48-1.55A10.86,10.86,0,0,1,364.14,296.42Z" transform="translate(-142 -131)"/><path class="cls-2" d="M348.59,396.78a2.25,2.25,0,0,0,.59,1,1.6,1.6,0,0,0,1.09.33A1.91,1.91,0,0,0,351,398a1.87,1.87,0,0,0,.56-.34,1.55,1.55,0,0,0,.39-.52,1.65,1.65,0,0,0,.14-.68,1.59,1.59,0,0,0-.24-.92,1.56,1.56,0,0,0-.62-.52,2.75,2.75,0,0,0-.83-.23c-.3,0-.6,0-.9,0v-1.09a5.35,5.35,0,0,0,1.17-.1,1.88,1.88,0,0,0,.71-.28,1,1,0,0,0,.36-.46,1.74,1.74,0,0,0,.1-.61,1.41,1.41,0,0,0-.44-1.12,1.63,1.63,0,0,0-1.1-.38,1.59,1.59,0,0,0-.92.29,1.74,1.74,0,0,0-.62.77l-1.27-.43a2.54,2.54,0,0,1,1.11-1.31,3.34,3.34,0,0,1,1.67-.42,3.79,3.79,0,0,1,1.07.15,2.56,2.56,0,0,1,.9.46,2.21,2.21,0,0,1,.62.79,2.59,2.59,0,0,1,.23,1.11,2.08,2.08,0,0,1-.44,1.3,2.18,2.18,0,0,1-1.14.78v0a2.16,2.16,0,0,1,.77.29,1.9,1.9,0,0,1,.57.52,2.42,2.42,0,0,1,.35.7,2.69,2.69,0,0,1,.12.81,2.51,2.51,0,0,1-.25,1.16,2.39,2.39,0,0,1-.68.83,2.93,2.93,0,0,1-1,.5,4.07,4.07,0,0,1-1.16.17,3.52,3.52,0,0,1-1.85-.48,2.56,2.56,0,0,1-1.11-1.52Z" transform="translate(-142 -131)"/><path class="cls-2" d="M356.87,394.42q0,.45.06,1.08a5.22,5.22,0,0,0,.25,1.2,2.53,2.53,0,0,0,.58,1,1.36,1.36,0,0,0,1,.4,1.34,1.34,0,0,0,1-.4,2.74,2.74,0,0,0,.58-1,5.33,5.33,0,0,0,.25-1.2c0-.41.06-.78.06-1.08s0-.44,0-.71a5.9,5.9,0,0,0-.09-.81,6.52,6.52,0,0,0-.2-.79,3.17,3.17,0,0,0-.34-.69,1.55,1.55,0,0,0-.53-.49,1.47,1.47,0,0,0-.74-.18,1.45,1.45,0,0,0-.74.18,1.65,1.65,0,0,0-.53.49,2.34,2.34,0,0,0-.34.69,5.38,5.38,0,0,0-.2.79,5.58,5.58,0,0,0-.09.81C356.88,394,356.87,394.22,356.87,394.42Zm-1.25,0c0-.34,0-.69.05-1.05a6.48,6.48,0,0,1,.19-1.07,5.77,5.77,0,0,1,.36-1,3.14,3.14,0,0,1,.58-.84,2.65,2.65,0,0,1,.85-.57,2.83,2.83,0,0,1,1.14-.21,2.86,2.86,0,0,1,1.14.21,2.5,2.5,0,0,1,.84.57,3.17,3.17,0,0,1,.59.84,5.77,5.77,0,0,1,.36,1,7.73,7.73,0,0,1,.19,1.07,9.45,9.45,0,0,1,0,1.05,9.65,9.65,0,0,1-.13,1.56,5.71,5.71,0,0,1-.48,1.55,3.19,3.19,0,0,1-1,1.18,2.92,2.92,0,0,1-3.18,0,3.38,3.38,0,0,1-1-1.18,5.2,5.2,0,0,1-.48-1.55A9.74,9.74,0,0,1,355.62,394.42Z" transform="translate(-142 -131)"/><path class="cls-2" d="M365.38,394.42q0,.45.06,1.08a5.22,5.22,0,0,0,.25,1.2,2.53,2.53,0,0,0,.58,1,1.53,1.53,0,0,0,2.06,0,2.74,2.74,0,0,0,.58-1,5.33,5.33,0,0,0,.25-1.2c0-.41.06-.78.06-1.08s0-.44,0-.71a5.9,5.9,0,0,0-.09-.81,6.52,6.52,0,0,0-.2-.79,3.17,3.17,0,0,0-.34-.69,1.55,1.55,0,0,0-.53-.49,1.61,1.61,0,0,0-1.48,0,1.65,1.65,0,0,0-.53.49,2.79,2.79,0,0,0-.35.69,5.38,5.38,0,0,0-.2.79,5.58,5.58,0,0,0-.09.81C365.38,394,365.38,394.22,365.38,394.42Zm-1.24,0c0-.34,0-.69.05-1.05a7.73,7.73,0,0,1,.19-1.07,5.77,5.77,0,0,1,.36-1,3.14,3.14,0,0,1,.58-.84,2.71,2.71,0,0,1,.84-.57,3.2,3.2,0,0,1,2.28,0,2.65,2.65,0,0,1,.85.57,2.93,2.93,0,0,1,.58.84,5.77,5.77,0,0,1,.36,1,7.73,7.73,0,0,1,.19,1.07,9.45,9.45,0,0,1,.05,1.05,9.65,9.65,0,0,1-.13,1.56,5.71,5.71,0,0,1-.48,1.55,3.19,3.19,0,0,1-1,1.18,2.92,2.92,0,0,1-3.18,0,3.38,3.38,0,0,1-1-1.18,5.6,5.6,0,0,1-.48-1.55A10.86,10.86,0,0,1,364.14,394.42Z" transform="translate(-142 -131)"/><path class="cls-2" d="M347.26,487.7,351,484a4.91,4.91,0,0,0,.38-.4,3.72,3.72,0,0,0,.33-.45,2.42,2.42,0,0,0,.23-.49,1.67,1.67,0,0,0,.08-.55,1.48,1.48,0,0,0-.12-.61,1.32,1.32,0,0,0-.34-.46,1.58,1.58,0,0,0-.51-.29,1.83,1.83,0,0,0-.62-.1,1.69,1.69,0,0,0-1.12.38,1.74,1.74,0,0,0-.56,1l-1.35-.12a2.83,2.83,0,0,1,.36-1.06,2.66,2.66,0,0,1,.66-.75,2.57,2.57,0,0,1,.91-.44,3.93,3.93,0,0,1,1.11-.14,3.7,3.7,0,0,1,1.12.16,2.78,2.78,0,0,1,.92.48,2.29,2.29,0,0,1,.62.79,2.73,2.73,0,0,1,.09,2,3.69,3.69,0,0,1-.36.75,4.65,4.65,0,0,1-.51.66c-.19.2-.39.41-.6.61l-3,2.93h4.63V489h-6V487.7Z" transform="translate(-142 -131)"/><path class="cls-2" d="M356.87,484.42q0,.45.06,1.08a5.22,5.22,0,0,0,.25,1.2,2.53,2.53,0,0,0,.58,1,1.36,1.36,0,0,0,1,.4,1.34,1.34,0,0,0,1-.4,2.74,2.74,0,0,0,.58-1,5.33,5.33,0,0,0,.25-1.2c0-.41.06-.78.06-1.08s0-.44,0-.71a5.9,5.9,0,0,0-.09-.81,6.52,6.52,0,0,0-.2-.79,3.17,3.17,0,0,0-.34-.69,1.55,1.55,0,0,0-.53-.49,1.47,1.47,0,0,0-.74-.18,1.45,1.45,0,0,0-.74.18,1.65,1.65,0,0,0-.53.49,2.34,2.34,0,0,0-.34.69,5.38,5.38,0,0,0-.2.79,5.58,5.58,0,0,0-.09.81C356.88,484,356.87,484.22,356.87,484.42Zm-1.25,0c0-.34,0-.69.05-1.05a6.48,6.48,0,0,1,.19-1.07,5.77,5.77,0,0,1,.36-1,3.14,3.14,0,0,1,.58-.84,2.65,2.65,0,0,1,.85-.57,2.83,2.83,0,0,1,1.14-.21,2.86,2.86,0,0,1,1.14.21,2.5,2.5,0,0,1,.84.57,3.17,3.17,0,0,1,.59.84,5.77,5.77,0,0,1,.36,1,7.73,7.73,0,0,1,.19,1.07,9.45,9.45,0,0,1,0,1.05,9.65,9.65,0,0,1-.13,1.56,5.71,5.71,0,0,1-.48,1.55,3.19,3.19,0,0,1-1,1.18,2.92,2.92,0,0,1-3.18,0,3.38,3.38,0,0,1-1-1.18,5.2,5.2,0,0,1-.48-1.55A9.74,9.74,0,0,1,355.62,484.42Z" transform="translate(-142 -131)"/><path class="cls-2" d="M365.38,484.42q0,.45.06,1.08a5.22,5.22,0,0,0,.25,1.2,2.53,2.53,0,0,0,.58,1,1.53,1.53,0,0,0,2.06,0,2.74,2.74,0,0,0,.58-1,5.33,5.33,0,0,0,.25-1.2c0-.41.06-.78.06-1.08s0-.44,0-.71a5.9,5.9,0,0,0-.09-.81,6.52,6.52,0,0,0-.2-.79,3.17,3.17,0,0,0-.34-.69,1.55,1.55,0,0,0-.53-.49,1.61,1.61,0,0,0-1.48,0,1.65,1.65,0,0,0-.53.49,2.79,2.79,0,0,0-.35.69,5.38,5.38,0,0,0-.2.79,5.58,5.58,0,0,0-.09.81C365.38,484,365.38,484.22,365.38,484.42Zm-1.24,0c0-.34,0-.69.05-1.05a7.73,7.73,0,0,1,.19-1.07,5.77,5.77,0,0,1,.36-1,3.14,3.14,0,0,1,.58-.84,2.71,2.71,0,0,1,.84-.57,3.2,3.2,0,0,1,2.28,0,2.65,2.65,0,0,1,.85.57,2.93,2.93,0,0,1,.58.84,5.77,5.77,0,0,1,.36,1,7.73,7.73,0,0,1,.19,1.07,9.45,9.45,0,0,1,.05,1.05,9.65,9.65,0,0,1-.13,1.56,5.71,5.71,0,0,1-.48,1.55,3.19,3.19,0,0,1-1,1.18,2.92,2.92,0,0,1-3.18,0,3.38,3.38,0,0,1-1-1.18,5.6,5.6,0,0,1-.48-1.55A10.86,10.86,0,0,1,364.14,484.42Z" transform="translate(-142 -131)"/><polygon class="cls-2" points="208.17 437.25 206.48 438.81 205.75 437.94 208.31 435.82 209.42 435.82 209.42 445.02 208.17 445.02 208.17 437.25"/><path class="cls-2" d="M356.87,571.42q0,.45.06,1.08a5.22,5.22,0,0,0,.25,1.2,2.53,2.53,0,0,0,.58,1,1.36,1.36,0,0,0,1,.4,1.34,1.34,0,0,0,1-.4,2.74,2.74,0,0,0,.58-1,5.33,5.33,0,0,0,.25-1.2c0-.41.06-.78.06-1.08s0-.44,0-.71a5.9,5.9,0,0,0-.09-.81,6.52,6.52,0,0,0-.2-.79,3.17,3.17,0,0,0-.34-.69,1.55,1.55,0,0,0-.53-.49,1.47,1.47,0,0,0-.74-.18,1.45,1.45,0,0,0-.74.18,1.65,1.65,0,0,0-.53.49,2.34,2.34,0,0,0-.34.69,5.38,5.38,0,0,0-.2.79,5.58,5.58,0,0,0-.09.81C356.88,571,356.87,571.22,356.87,571.42Zm-1.25,0c0-.34,0-.69.05-1a6.48,6.48,0,0,1,.19-1.07,5.77,5.77,0,0,1,.36-1,3.14,3.14,0,0,1,.58-.84,2.65,2.65,0,0,1,.85-.57,2.83,2.83,0,0,1,1.14-.21,2.86,2.86,0,0,1,1.14.21,2.5,2.5,0,0,1,.84.57,3.17,3.17,0,0,1,.59.84,5.77,5.77,0,0,1,.36,1,7.73,7.73,0,0,1,.19,1.07,9.45,9.45,0,0,1,0,1,9.65,9.65,0,0,1-.13,1.56,5.71,5.71,0,0,1-.48,1.55,3.19,3.19,0,0,1-1,1.18,2.92,2.92,0,0,1-3.18,0,3.38,3.38,0,0,1-1-1.18,5.2,5.2,0,0,1-.48-1.55A9.74,9.74,0,0,1,355.62,571.42Z" transform="translate(-142 -131)"/><path class="cls-2" d="M365.38,571.42q0,.45.06,1.08a5.22,5.22,0,0,0,.25,1.2,2.53,2.53,0,0,0,.58,1,1.53,1.53,0,0,0,2.06,0,2.74,2.74,0,0,0,.58-1,5.33,5.33,0,0,0,.25-1.2c0-.41.06-.78.06-1.08s0-.44,0-.71a5.9,5.9,0,0,0-.09-.81,6.52,6.52,0,0,0-.2-.79,3.17,3.17,0,0,0-.34-.69,1.55,1.55,0,0,0-.53-.49,1.61,1.61,0,0,0-1.48,0,1.65,1.65,0,0,0-.53.49,2.79,2.79,0,0,0-.35.69,5.38,5.38,0,0,0-.2.79,5.58,5.58,0,0,0-.09.81C365.38,571,365.38,571.22,365.38,571.42Zm-1.24,0c0-.34,0-.69.05-1a7.73,7.73,0,0,1,.19-1.07,5.77,5.77,0,0,1,.36-1,3.14,3.14,0,0,1,.58-.84,2.71,2.71,0,0,1,.84-.57,3.2,3.2,0,0,1,2.28,0,2.65,2.65,0,0,1,.85.57,2.93,2.93,0,0,1,.58.84,5.77,5.77,0,0,1,.36,1,7.73,7.73,0,0,1,.19,1.07,9.45,9.45,0,0,1,.05,1,9.65,9.65,0,0,1-.13,1.56,5.71,5.71,0,0,1-.48,1.55,3.19,3.19,0,0,1-1,1.18,2.92,2.92,0,0,1-3.18,0,3.38,3.38,0,0,1-1-1.18,5.6,5.6,0,0,1-.48-1.55A10.86,10.86,0,0,1,364.14,571.42Z" transform="translate(-142 -131)"/><path class="cls-2" d="M350.87,685.42q0,.45.06,1.08a5.22,5.22,0,0,0,.25,1.2,2.53,2.53,0,0,0,.58,1,1.36,1.36,0,0,0,1,.4,1.34,1.34,0,0,0,1-.4,2.74,2.74,0,0,0,.58-1,5.33,5.33,0,0,0,.25-1.2c0-.41.06-.78.06-1.08s0-.44,0-.71a5.9,5.9,0,0,0-.09-.81,6.52,6.52,0,0,0-.2-.79,3.17,3.17,0,0,0-.34-.69,1.55,1.55,0,0,0-.53-.49,1.47,1.47,0,0,0-.74-.18,1.45,1.45,0,0,0-.74.18,1.65,1.65,0,0,0-.53.49,2.34,2.34,0,0,0-.34.69,5.38,5.38,0,0,0-.2.79,5.58,5.58,0,0,0-.09.81C350.88,685,350.87,685.22,350.87,685.42Zm-1.25,0c0-.34,0-.69.05-1a6.48,6.48,0,0,1,.19-1.07,5.77,5.77,0,0,1,.36-1,3.14,3.14,0,0,1,.58-.84,2.65,2.65,0,0,1,.85-.57,2.83,2.83,0,0,1,1.14-.21,2.86,2.86,0,0,1,1.14.21,2.5,2.5,0,0,1,.84.57,3.17,3.17,0,0,1,.59.84,5.77,5.77,0,0,1,.36,1,7.73,7.73,0,0,1,.19,1.07,9.45,9.45,0,0,1,0,1,9.65,9.65,0,0,1-.13,1.56,5.71,5.71,0,0,1-.48,1.55,3.19,3.19,0,0,1-1,1.18,2.92,2.92,0,0,1-3.18,0,3.38,3.38,0,0,1-1-1.18,5.2,5.2,0,0,1-.48-1.55A9.74,9.74,0,0,1,349.62,685.42Z" transform="translate(-142 -131)"/><path class="cls-1" d="M151.71,136v5.24a4.89,4.89,0,0,1-.89.42,10.32,10.32,0,0,1-1,.31,9.36,9.36,0,0,1-1.08.18,9.58,9.58,0,0,1-1,.06,6.13,6.13,0,0,1-2.41-.45,5.13,5.13,0,0,1-1.78-1.22,5.29,5.29,0,0,1-1.11-1.78,6,6,0,0,1-.38-2.13,6,6,0,0,1,.41-2.21,5.68,5.68,0,0,1,1.14-1.76,5.35,5.35,0,0,1,1.75-1.18,5.66,5.66,0,0,1,2.24-.43,6.51,6.51,0,0,1,2.4.37,4.34,4.34,0,0,1,1.56,1l-1,1.1a3.73,3.73,0,0,0-1.4-.88,4.65,4.65,0,0,0-1.54-.25,3.86,3.86,0,0,0-2.91,1.25,3.94,3.94,0,0,0-.81,1.34,4.68,4.68,0,0,0-.29,1.64,4.36,4.36,0,0,0,.32,1.67,4.19,4.19,0,0,0,.87,1.34,3.91,3.91,0,0,0,1.3.89,4.17,4.17,0,0,0,1.64.32,7.51,7.51,0,0,0,1.45-.14,3.85,3.85,0,0,0,1.16-.41V137.3h-2.36V136Z" transform="translate(-142 -131)"/><polygon class="cls-1" points="13.83 0.27 20.69 0.27 20.69 1.62 15.27 1.62 15.27 4.79 20.31 4.79 20.31 6.14 15.27 6.14 15.27 9.55 20.96 9.55 20.96 10.9 13.83 10.9 13.83 0.27"/><path class="cls-1" d="M171.37,140.81a3.86,3.86,0,0,0,2.91-1.25,4,4,0,0,0,.81-1.34,4.78,4.78,0,0,0,0-3.28,3.94,3.94,0,0,0-.81-1.34,3.86,3.86,0,0,0-2.91-1.25,3.84,3.84,0,0,0-1.65.34,4,4,0,0,0-1.26.91,4,4,0,0,0-.81,1.34,4.94,4.94,0,0,0,0,3.28,3.94,3.94,0,0,0,.81,1.34,4,4,0,0,0,1.26.91A3.84,3.84,0,0,0,171.37,140.81Zm0,1.35a5.58,5.58,0,0,1-2.23-.43,5.2,5.2,0,0,1-1.75-1.18,5.28,5.28,0,0,1-1.14-1.77,6.16,6.16,0,0,1,0-4.42,5.44,5.44,0,0,1,1.14-1.77,5.25,5.25,0,0,1,1.75-1.18,6,6,0,0,1,2.23-.41,5.66,5.66,0,0,1,2.24.43,5.35,5.35,0,0,1,1.75,1.18,5.44,5.44,0,0,1,1.14,1.77,6.16,6.16,0,0,1,0,4.42,5.44,5.44,0,0,1-1.14,1.77,5.35,5.35,0,0,1-1.75,1.18A6,6,0,0,1,171.37,142.16Z" transform="translate(-142 -131)"/><polygon class="cls-1" points="38.48 0.27 39.92 0.27 39.92 9.54 44.8 9.54 44.8 10.89 38.48 10.89 38.48 0.27"/><path class="cls-1" d="M194.64,140.81a3.86,3.86,0,0,0,2.91-1.25,4,4,0,0,0,.81-1.34,4.94,4.94,0,0,0,0-3.28,3.94,3.94,0,0,0-.81-1.34,3.86,3.86,0,0,0-2.91-1.25,3.84,3.84,0,0,0-1.65.34,4,4,0,0,0-1.26.91,4,4,0,0,0-.81,1.34,4.67,4.67,0,0,0-.28,1.64,4.46,4.46,0,0,0,.29,1.64,3.94,3.94,0,0,0,.81,1.34,4,4,0,0,0,1.26.91A3.76,3.76,0,0,0,194.64,140.81Zm0,1.35a5.61,5.61,0,0,1-2.23-.43,5.2,5.2,0,0,1-1.75-1.18,5.28,5.28,0,0,1-1.14-1.77,5.75,5.75,0,0,1-.41-2.21,6,6,0,0,1,.41-2.21,5.28,5.28,0,0,1,1.14-1.77,5.35,5.35,0,0,1,1.75-1.18,6.16,6.16,0,0,1,4.47,0,5.35,5.35,0,0,1,1.75,1.18,5.28,5.28,0,0,1,1.14,1.77,6.16,6.16,0,0,1,0,4.42,5.44,5.44,0,0,1-1.14,1.77,5.25,5.25,0,0,1-1.75,1.18A6,6,0,0,1,194.64,142.16Z" transform="translate(-142 -131)"/><path class="cls-1" d="M212.8,136v5.24a4.89,4.89,0,0,1-.89.42,10.32,10.32,0,0,1-1,.31,7.87,7.87,0,0,1-1.08.19,9.58,9.58,0,0,1-1,.06,6.13,6.13,0,0,1-2.41-.45,5.2,5.2,0,0,1-2.89-3,5.88,5.88,0,0,1-.38-2.14,6,6,0,0,1,.41-2.21,5.28,5.28,0,0,1,1.14-1.77,5.35,5.35,0,0,1,1.75-1.18,5.79,5.79,0,0,1,2.23-.42,6.51,6.51,0,0,1,2.4.37,4.34,4.34,0,0,1,1.56,1l-1,1.09a3.83,3.83,0,0,0-1.39-.88,4.94,4.94,0,0,0-1.55-.25,3.84,3.84,0,0,0-1.65.34,4,4,0,0,0-1.26.91,4,4,0,0,0-.81,1.34,4.77,4.77,0,0,0-.28,1.65,4.35,4.35,0,0,0,.31,1.67,4.19,4.19,0,0,0,.87,1.34,3.91,3.91,0,0,0,1.3.89,4.21,4.21,0,0,0,1.64.32,7.51,7.51,0,0,0,1.45-.14,3.85,3.85,0,0,0,1.16-.41V137.3H209V136Z" transform="translate(-142 -131)"/><rect class="cls-1" x="74.92" y="0.27" width="1.44" height="10.62"/><path class="cls-1" d="M230,133.57a3,3,0,0,0-1.14-.9,3.41,3.41,0,0,0-1.43-.31,3.78,3.78,0,0,0-1.63.34,3.69,3.69,0,0,0-1.24.92,4.16,4.16,0,0,0-.8,1.37,4.91,4.91,0,0,0-.28,1.69,4.66,4.66,0,0,0,.27,1.59,4,4,0,0,0,.78,1.32,3.64,3.64,0,0,0,1.24.9,4,4,0,0,0,1.67.33,3.33,3.33,0,0,0,1.61-.37,3.44,3.44,0,0,0,1.17-1l1.22.92a4.36,4.36,0,0,1-.42.47,4.53,4.53,0,0,1-.79.62A5.26,5.26,0,0,1,229,142a5,5,0,0,1-1.61.23,5.21,5.21,0,0,1-2.27-.48,5.48,5.48,0,0,1-2.82-3,5.37,5.37,0,0,1-.4-2,6,6,0,0,1,.41-2.27,5.35,5.35,0,0,1,1.13-1.8,5.1,5.1,0,0,1,1.75-1.18,5.85,5.85,0,0,1,2.25-.42,5.48,5.48,0,0,1,2.06.41,3.9,3.9,0,0,1,1.66,1.25Z" transform="translate(-142 -131)"/><path class="cls-1" d="M240.56,138l-2-4.88h0l-2,4.88ZM238,131.27h1.3l4.55,10.62h-1.68l-1.07-2.63H236L235,141.89H233.3Z" transform="translate(-142 -131)"/><polygon class="cls-1" points="104.72 0.27 106.16 0.27 106.16 9.54 111.04 9.54 111.04 10.89 104.72 10.89 104.72 0.27"/><path class="cls-1" d="M263.11,136H265a4.57,4.57,0,0,0,.83-.07,2.23,2.23,0,0,0,.74-.25,1.37,1.37,0,0,0,.52-.52,1.77,1.77,0,0,0,.19-.88,1.88,1.88,0,0,0-.19-.88,1.37,1.37,0,0,0-.52-.52,2.39,2.39,0,0,0-.74-.25,5.81,5.81,0,0,0-.83-.07h-1.89Zm-1.44-4.68h3.74a4.27,4.27,0,0,1,1.68.28,2.81,2.81,0,0,1,1,.71,2.39,2.39,0,0,1,.53,1,3.61,3.61,0,0,1,0,2.06,2.46,2.46,0,0,1-.53,1,2.88,2.88,0,0,1-1,.7,4.27,4.27,0,0,1-1.68.28h-2.3v4.68h-1.44Z" transform="translate(-142 -131)"/><polygon class="cls-1" points="130.07 0.27 136.93 0.27 136.93 1.62 131.51 1.62 131.51 4.79 136.55 4.79 136.55 6.14 131.51 6.14 131.51 9.55 137.2 9.55 137.2 10.9 130.07 10.9 130.07 0.27"/><path class="cls-1" d="M284.18,136h1.89a4.57,4.57,0,0,0,.83-.07,2.16,2.16,0,0,0,.74-.25,1.37,1.37,0,0,0,.52-.52,1.77,1.77,0,0,0,.19-.88,1.88,1.88,0,0,0-.19-.88,1.37,1.37,0,0,0-.52-.52,2.39,2.39,0,0,0-.74-.25,5.69,5.69,0,0,0-.83-.07h-1.89Zm-1.44-4.68h3.74a4.27,4.27,0,0,1,1.68.28,2.81,2.81,0,0,1,1,.71,2.28,2.28,0,0,1,.53,1,3.83,3.83,0,0,1,.15,1,2.78,2.78,0,0,1-.7,1.84,2.75,2.75,0,0,1-.82.64,3,3,0,0,1-1.09.32l3,4.85h-1.8l-2.7-4.68h-1.61v4.68h-1.44Z" transform="translate(-142 -131)"/><rect class="cls-1" x="151.4" y="0.27" width="1.44" height="10.62"/><path class="cls-1" d="M304,140.81a3.86,3.86,0,0,0,2.91-1.25,4,4,0,0,0,.81-1.34,4.94,4.94,0,0,0,0-3.28,3.94,3.94,0,0,0-.81-1.34,3.86,3.86,0,0,0-2.91-1.25,3.84,3.84,0,0,0-1.65.34,4,4,0,0,0-1.26.91,4,4,0,0,0-.81,1.34,4.68,4.68,0,0,0-.29,1.64,4.46,4.46,0,0,0,.29,1.64,3.94,3.94,0,0,0,.81,1.34,4,4,0,0,0,1.26.91A3.84,3.84,0,0,0,304,140.81Zm0,1.35a5.61,5.61,0,0,1-2.23-.43,5.2,5.2,0,0,1-1.75-1.18,5.28,5.28,0,0,1-1.14-1.77,5.75,5.75,0,0,1-.41-2.21,6,6,0,0,1,.41-2.21,5.28,5.28,0,0,1,1.14-1.77,5.35,5.35,0,0,1,1.75-1.18,6.16,6.16,0,0,1,4.47,0,5.35,5.35,0,0,1,1.75,1.18,5.28,5.28,0,0,1,1.14,1.77,6.16,6.16,0,0,1,0,4.42,5.44,5.44,0,0,1-1.14,1.77,5.25,5.25,0,0,1-1.75,1.18A6.07,6.07,0,0,1,304,142.16Z" transform="translate(-142 -131)"/><path class="cls-1" d="M314.26,140.54h1.81a5.74,5.74,0,0,0,1.73-.25,4.14,4.14,0,0,0,1.43-.74,3.4,3.4,0,0,0,1-1.24,3.9,3.9,0,0,0,.36-1.73,5.67,5.67,0,0,0-.16-1.19,3.62,3.62,0,0,0-.62-1.3,3.69,3.69,0,0,0-1.27-1,4.43,4.43,0,0,0-2.1-.43h-2.16v7.92Zm-1.44-9.27h3.71a6.82,6.82,0,0,1,2,.26,5.54,5.54,0,0,1,1.47.68,4.39,4.39,0,0,1,1,1,5,5,0,0,1,.65,1.14,5.74,5.74,0,0,1,.34,1.17,6.18,6.18,0,0,1,.11,1.08,5.3,5.3,0,0,1-.37,2,5,5,0,0,1-1.11,1.7,5.43,5.43,0,0,1-1.82,1.19,6.54,6.54,0,0,1-2.51.45h-3.47Z" transform="translate(-142 -131)"/><path d="M191.67,560.5a5,5,0,0,0-1.93-1.52,5.67,5.67,0,0,0-2.41-.53,6.33,6.33,0,0,0-4.86,2.13,7.14,7.14,0,0,0-1.36,2.32,8.36,8.36,0,0,0-.48,2.85,7.76,7.76,0,0,0,.46,2.69,6.5,6.5,0,0,0,1.32,2.23,6.2,6.2,0,0,0,2.1,1.52,6.82,6.82,0,0,0,2.82.56,5.59,5.59,0,0,0,2.71-.63,5.78,5.78,0,0,0,2-1.78l2,1.55a7.26,7.26,0,0,1-.71.8,7.43,7.43,0,0,1-1.34,1,9.27,9.27,0,0,1-2,.91,8.73,8.73,0,0,1-2.73.39,8.86,8.86,0,0,1-3.84-.81,9.24,9.24,0,0,1-4.76-5.11,9.43,9.43,0,0,1-.63-3.36,10.41,10.41,0,0,1,.69-3.84,9,9,0,0,1,1.91-3,8.49,8.49,0,0,1,3-2,10,10,0,0,1,3.8-.71,9.28,9.28,0,0,1,3.49.69,6.48,6.48,0,0,1,2.8,2.11Z" transform="translate(-142 -131)"/><path d="M196.44,562.55h2.28v1.85h.05a3.24,3.24,0,0,1,.61-.88,3.92,3.92,0,0,1,.85-.67,4.79,4.79,0,0,1,1-.45,3.89,3.89,0,0,1,1.12-.16,3.2,3.2,0,0,1,1,.15l-.1,2.46-.56-.13a3.53,3.53,0,0,0-.56-.05,3.33,3.33,0,0,0-2.56.94,4.15,4.15,0,0,0-.89,2.92v6h-2.28Z" transform="translate(-142 -131)"/><path d="M214.3,567.58a5,5,0,0,0-.24-1.39,3,3,0,0,0-.65-1.1,3.1,3.1,0,0,0-1.08-.74,3.88,3.88,0,0,0-1.51-.27,3.64,3.64,0,0,0-1.53.32,3.77,3.77,0,0,0-1.18.82,3.84,3.84,0,0,0-.75,1.13,3.07,3.07,0,0,0-.27,1.23Zm-7.21,1.82a3.11,3.11,0,0,0,.34,1.43,3.57,3.57,0,0,0,.9,1.1,4.24,4.24,0,0,0,1.29.71,4.61,4.61,0,0,0,1.52.25,3.38,3.38,0,0,0,1.85-.49,6.11,6.11,0,0,0,1.45-1.31l1.73,1.32a6.35,6.35,0,0,1-5.33,2.46,6.61,6.61,0,0,1-2.57-.48,5.5,5.5,0,0,1-2-1.33,6,6,0,0,1-1.23-2,7,7,0,0,1-.43-2.5,6.62,6.62,0,0,1,.47-2.5,6,6,0,0,1,1.29-2,5.86,5.86,0,0,1,2-1.33,6.34,6.34,0,0,1,2.48-.48,5.93,5.93,0,0,1,2.7.56,5.23,5.23,0,0,1,1.81,1.46,5.82,5.82,0,0,1,1,2,8.51,8.51,0,0,1,.32,2.3v.81h-9.64Z" transform="translate(-142 -131)"/><path d="M225.91,564.53h-3.27V570c0,.34,0,.67,0,1a2.76,2.76,0,0,0,.19.89,1.43,1.43,0,0,0,.51.63,1.74,1.74,0,0,0,1,.24,5,5,0,0,0,.84-.08,2.32,2.32,0,0,0,.79-.28v2.08a3,3,0,0,1-1.05.32,7.85,7.85,0,0,1-1,.09,4.5,4.5,0,0,1-2-.37,2.57,2.57,0,0,1-1.07-1,3.15,3.15,0,0,1-.41-1.31,14.26,14.26,0,0,1-.06-1.46v-6.26h-2.64v-2h2.64v-3.37h2.28v3.37h3.27v2Z" transform="translate(-142 -131)"/><path d="M235.35,568.79a15.67,15.67,0,0,0-1.66.09,6.53,6.53,0,0,0-1.55.34,3,3,0,0,0-1.14.71,1.58,1.58,0,0,0-.44,1.17,1.66,1.66,0,0,0,.7,1.5,3.43,3.43,0,0,0,1.89.46,3.71,3.71,0,0,0,1.6-.32,3,3,0,0,0,1.65-2,4.36,4.36,0,0,0,.18-1.23v-.76h-1.23ZM228.9,564a6.31,6.31,0,0,1,2.23-1.33,7.8,7.8,0,0,1,2.54-.44,7,7,0,0,1,2.27.33,4.53,4.53,0,0,1,1.56.89,3.4,3.4,0,0,1,.9,1.28,4.1,4.1,0,0,1,.29,1.51v6.14q0,.63,0,1.17c0,.35,0,.69.08,1h-2c-.05-.61-.08-1.22-.08-1.83h-.05a4.39,4.39,0,0,1-1.8,1.65,5.7,5.7,0,0,1-2.41.48,5.63,5.63,0,0,1-1.6-.23,3.89,3.89,0,0,1-1.33-.68,3.22,3.22,0,0,1-.9-1.13,3.51,3.51,0,0,1-.33-1.56,3.42,3.42,0,0,1,.52-1.95,4,4,0,0,1,1.42-1.28,6.72,6.72,0,0,1,2.11-.71,14.91,14.91,0,0,1,2.57-.22h1.67v-.51a2.46,2.46,0,0,0-.18-.91,2.41,2.41,0,0,0-.53-.82,2.54,2.54,0,0,0-.89-.58,3.48,3.48,0,0,0-1.27-.21,4.34,4.34,0,0,0-1.15.13,4.53,4.53,0,0,0-.9.32,4.82,4.82,0,0,0-.74.44l-.63.48Z" transform="translate(-142 -131)"/><path d="M250.62,565.75a4.84,4.84,0,0,0-1.33-1,4.17,4.17,0,0,0-3.3,0,3.36,3.36,0,0,0-1.17.94,4.06,4.06,0,0,0-.71,1.37,5.41,5.41,0,0,0-.24,1.61,4.34,4.34,0,0,0,.28,1.58,4.13,4.13,0,0,0,.79,1.31,3.74,3.74,0,0,0,1.22.88,3.91,3.91,0,0,0,1.6.32,3.65,3.65,0,0,0,1.65-.34,4.22,4.22,0,0,0,1.27-1L252.3,573a5.1,5.1,0,0,1-2.07,1.42,7.18,7.18,0,0,1-2.5.43,6.77,6.77,0,0,1-2.55-.46,5.82,5.82,0,0,1-2-1.28,5.57,5.57,0,0,1-1.29-2,7,7,0,0,1-.46-2.55,6.86,6.86,0,0,1,.46-2.56,5.82,5.82,0,0,1,1.28-2,5.9,5.9,0,0,1,2-1.31,6.84,6.84,0,0,1,2.57-.47,6.92,6.92,0,0,1,2.52.47,5.54,5.54,0,0,1,2.09,1.43Z" transform="translate(-142 -131)"/><path d="M263.17,567.58a5,5,0,0,0-.24-1.39,3,3,0,0,0-.65-1.1,3.1,3.1,0,0,0-1.08-.74,3.88,3.88,0,0,0-1.51-.27,3.64,3.64,0,0,0-1.53.32,3.77,3.77,0,0,0-1.18.82,3.84,3.84,0,0,0-.75,1.13,3.07,3.07,0,0,0-.27,1.23ZM256,569.4a3.11,3.11,0,0,0,.34,1.43,3.57,3.57,0,0,0,.9,1.1,4.24,4.24,0,0,0,1.29.71,4.61,4.61,0,0,0,1.52.25,3.38,3.38,0,0,0,1.85-.49,6.11,6.11,0,0,0,1.45-1.31l1.73,1.32a6.35,6.35,0,0,1-5.33,2.46,6.61,6.61,0,0,1-2.57-.48,5.5,5.5,0,0,1-1.95-1.33,6,6,0,0,1-1.23-2,7,7,0,0,1-.43-2.5,6.62,6.62,0,0,1,.47-2.5,6,6,0,0,1,1.29-2,5.86,5.86,0,0,1,2-1.33,6.34,6.34,0,0,1,2.48-.48,5.93,5.93,0,0,1,2.7.56,5.23,5.23,0,0,1,1.81,1.46,5.82,5.82,0,0,1,1,2,8.51,8.51,0,0,1,.32,2.3v.81H256Z" transform="translate(-142 -131)"/><path d="M270.2,568.57a4.87,4.87,0,0,0,.28,1.69,3.78,3.78,0,0,0,.79,1.32,3.67,3.67,0,0,0,1.24.86,4.41,4.41,0,0,0,3.3,0,3.67,3.67,0,0,0,1.24-.86,3.78,3.78,0,0,0,.79-1.32,5.24,5.24,0,0,0,0-3.38,3.78,3.78,0,0,0-.79-1.32,3.67,3.67,0,0,0-1.24-.86,4.41,4.41,0,0,0-3.3,0,3.58,3.58,0,0,0-1.24.86,3.78,3.78,0,0,0-.79,1.32A4.83,4.83,0,0,0,270.2,568.57Zm-2.44,0a6.19,6.19,0,0,1,1.85-4.46,6.55,6.55,0,0,1,7.05-1.36,6.19,6.19,0,0,1,2,1.36,6.39,6.39,0,0,1,1.36,2,6.11,6.11,0,0,1,.49,2.46,6.19,6.19,0,0,1-.49,2.47,6.06,6.06,0,0,1-1.36,2,6.59,6.59,0,0,1-7.05,1.34,6.47,6.47,0,0,1-2-1.34,6.19,6.19,0,0,1-1.85-4.47Z" transform="translate(-142 -131)"/><path d="M294.06,574.58h-2.28v-1.85h0a3.41,3.41,0,0,1-1.5,1.56,4.93,4.93,0,0,1-2.46.6,5.08,5.08,0,0,1-1.67-.27,3.87,3.87,0,0,1-1.38-.82,4,4,0,0,1-1-1.43,5.41,5.41,0,0,1-.35-2.07v-7.74h2.28v7.1a4,4,0,0,0,.23,1.43,2.56,2.56,0,0,0,.61,1,2.15,2.15,0,0,0,.88.53,3.26,3.26,0,0,0,1,.16,3.81,3.81,0,0,0,1.32-.23,2.74,2.74,0,0,0,1.07-.72,3.53,3.53,0,0,0,.71-1.25,5.67,5.67,0,0,0,.25-1.8v-6.19h2.28v12Z" transform="translate(-142 -131)"/><path d="M303.9,565.57a3.45,3.45,0,0,0-1-.85,2.87,2.87,0,0,0-1.46-.34,2.78,2.78,0,0,0-1.41.34,1.09,1.09,0,0,0-.6,1,1.12,1.12,0,0,0,.34.86,2.64,2.64,0,0,0,.81.53,4.14,4.14,0,0,0,1,.3l.91.18a10.63,10.63,0,0,1,1.38.43,4,4,0,0,1,1.12.66,2.8,2.8,0,0,1,.74,1,3.36,3.36,0,0,1,.27,1.42,3.3,3.3,0,0,1-.43,1.74,3.61,3.61,0,0,1-1.12,1.18,5,5,0,0,1-1.56.66,7.48,7.48,0,0,1-1.76.2,6.81,6.81,0,0,1-2.62-.46,4.7,4.7,0,0,1-2-1.67l1.73-1.42a7.49,7.49,0,0,0,1.24,1,3.05,3.05,0,0,0,1.67.43,4.46,4.46,0,0,0,.88-.09,2.74,2.74,0,0,0,.79-.28,1.87,1.87,0,0,0,.56-.48,1.12,1.12,0,0,0,.22-.67,1.17,1.17,0,0,0-.32-.84,2.28,2.28,0,0,0-.76-.52,4.91,4.91,0,0,0-.94-.3l-.88-.19a12.65,12.65,0,0,1-1.39-.41,4.06,4.06,0,0,1-1.17-.61,2.79,2.79,0,0,1-.81-1,3.15,3.15,0,0,1-.3-1.45,3.34,3.34,0,0,1,.39-1.64,3.48,3.48,0,0,1,1-1.15,4.72,4.72,0,0,1,1.47-.68,6.27,6.27,0,0,1,1.66-.23,6,6,0,0,1,2.33.46,3.7,3.7,0,0,1,1.78,1.52Z" transform="translate(-142 -131)"/><path class="cls-2" d="M219.63,627h2a5.08,5.08,0,0,0,1.39-.17,2.5,2.5,0,0,0,.91-.45,1.63,1.63,0,0,0,.49-.66,2.32,2.32,0,0,0,0-1.64,1.69,1.69,0,0,0-.49-.67A2.42,2.42,0,0,0,223,623a5.06,5.06,0,0,0-1.39-.16h-2Zm-1.22-5.33h3.5a4.75,4.75,0,0,1,2.9.8,3.28,3.28,0,0,1,0,4.83,4.67,4.67,0,0,1-2.9.81h-2.28v5.59h-1.22Z" transform="translate(-142 -131)"/><path class="cls-2" d="M232.28,629.79c-.28,0-.64,0-1.06,0a6.9,6.9,0,0,0-1.22.2,2.61,2.61,0,0,0-1,.5,1.15,1.15,0,0,0-.42.94,1.3,1.3,0,0,0,.16.67,1.35,1.35,0,0,0,.43.46,1.78,1.78,0,0,0,.6.25,3.07,3.07,0,0,0,.67.08,2.64,2.64,0,0,0,1.06-.2,2.36,2.36,0,0,0,.76-.55,2.25,2.25,0,0,0,.45-.82,3.2,3.2,0,0,0,.14-1v-.58Zm.58-.92v-.2a1.81,1.81,0,0,0-2-2.06,3.52,3.52,0,0,0-2.43.93l-.68-.8a4.5,4.5,0,0,1,3.37-1.16,3.73,3.73,0,0,1,1.11.17,2.46,2.46,0,0,1,1.56,1.4,3,3,0,0,1,.24,1.26V632c0,.31,0,.63,0,1s.06.61.09.82H233c0-.19-.06-.4-.08-.63s0-.45,0-.66h0a3.06,3.06,0,0,1-1.17,1.15,3.55,3.55,0,0,1-1.64.35,3.86,3.86,0,0,1-1-.14,2.69,2.69,0,0,1-.88-.44,2.15,2.15,0,0,1-.61-.73,2.47,2.47,0,0,1,.27-2.53,3,3,0,0,1,1.26-.82,6.38,6.38,0,0,1,1.62-.34c.58-.05,1.1-.07,1.57-.07h.57Z" transform="translate(-142 -131)"/><rect class="cls-2" x="94.84" y="489.9" width="1.12" height="12.85"/><path class="cls-2" d="M246.85,629.16a2.55,2.55,0,0,0-.68-1.84,2.52,2.52,0,0,0-1.9-.71,2.73,2.73,0,0,0-1.05.21,2.83,2.83,0,0,0-.89.57,2.88,2.88,0,0,0-.61.82,2.14,2.14,0,0,0-.23.95Zm-5.41.92a3.25,3.25,0,0,0,.29,1.12,3.08,3.08,0,0,0,.63.91,2.73,2.73,0,0,0,.9.6,2.7,2.7,0,0,0,1.1.22,2.84,2.84,0,0,0,1.56-.42,3.18,3.18,0,0,0,1-1l.87.71a4.35,4.35,0,0,1-1.57,1.29,4.52,4.52,0,0,1-3.48.08,3.79,3.79,0,0,1-1.3-.88,4.18,4.18,0,0,1-.86-1.33,4.65,4.65,0,0,1,0-3.34,4.26,4.26,0,0,1,.85-1.33,3.9,3.9,0,0,1,2.86-1.19,4,4,0,0,1,1.62.32,3.55,3.55,0,0,1,1.2.86,3.78,3.78,0,0,1,.74,1.26,4.61,4.61,0,0,1,.25,1.54v.51h-6.66Z" transform="translate(-142 -131)"/><path class="cls-2" d="M256.93,629.77a3.59,3.59,0,0,0-.21-1.24,3,3,0,0,0-.6-1,2.88,2.88,0,0,0-.94-.67,3.13,3.13,0,0,0-1.25-.25,3,3,0,0,0-1.25.25,2.78,2.78,0,0,0-.93.67,3.11,3.11,0,0,0-.59,1,3.63,3.63,0,0,0-.21,1.24,3.59,3.59,0,0,0,.21,1.24,3.11,3.11,0,0,0,.59,1,2.74,2.74,0,0,0,.93.67,3.25,3.25,0,0,0,2.5,0,2.78,2.78,0,0,0,.94-.67,3,3,0,0,0,.6-1A3.59,3.59,0,0,0,256.93,629.77Zm1.22,0a4.35,4.35,0,0,1-.31,1.67,4,4,0,0,1-2.21,2.21,4.49,4.49,0,0,1-1.71.31,4.62,4.62,0,0,1-1.69-.31,3.82,3.82,0,0,1-1.33-.88,4.17,4.17,0,0,1-.88-1.33,4.65,4.65,0,0,1,0-3.34,4,4,0,0,1,2.21-2.21,4.46,4.46,0,0,1,1.69-.31,4.73,4.73,0,0,1,1.71.31,3.82,3.82,0,0,1,1.33.88,4.17,4.17,0,0,1,.88,1.33A4.35,4.35,0,0,1,258.15,629.77Z" transform="translate(-142 -131)"/><path class="cls-2" d="M261,629.67a3.1,3.1,0,0,0,.23,1.18,3,3,0,0,0,.63,1,3,3,0,0,0,.94.66,2.66,2.66,0,0,0,1.16.25,3,3,0,0,0,1.16-.22,3.14,3.14,0,0,0,1-.62,2.94,2.94,0,0,0,.66-1,3.15,3.15,0,0,0,.21-1.26,3.52,3.52,0,0,0-.2-1.18,2.91,2.91,0,0,0-.59-1,2.79,2.79,0,0,0-.95-.66,3.15,3.15,0,0,0-1.26-.25,2.63,2.63,0,0,0-1.16.25,3.32,3.32,0,0,0-.94.66,3,3,0,0,0-.63,1A2.93,2.93,0,0,0,261,629.67Zm-.2,5.68a3.59,3.59,0,0,0,1.28,1.06,3.8,3.8,0,0,0,1.76.4,3.69,3.69,0,0,0,1.45-.25,2.44,2.44,0,0,0,1-.67,2.63,2.63,0,0,0,.53-1,4.37,4.37,0,0,0,.16-1.21v-1.43h0a3.12,3.12,0,0,1-1.33,1.16,4,4,0,0,1-1.65.34,4.28,4.28,0,0,1-2.94-1.15,3.85,3.85,0,0,1-.88-1.28,4.32,4.32,0,0,1,0-3.24,4.08,4.08,0,0,1,.84-1.31,3.91,3.91,0,0,1,1.27-.88,4.07,4.07,0,0,1,1.62-.31,4.13,4.13,0,0,1,.76.07,3.48,3.48,0,0,1,.8.24,3.43,3.43,0,0,1,.79.47,3.8,3.8,0,0,1,.73.76h0V625.8h1.12v7.89a6.29,6.29,0,0,1-.16,1.38,3.37,3.37,0,0,1-.63,1.34,3.56,3.56,0,0,1-1.3,1,5,5,0,0,1-2.18.41,5.45,5.45,0,0,1-2.12-.39,4.89,4.89,0,0,1-1.7-1.21Z" transform="translate(-142 -131)"/><path class="cls-2" d="M276.77,629.16a2.55,2.55,0,0,0-.68-1.84,2.52,2.52,0,0,0-1.9-.71,2.73,2.73,0,0,0-1.05.21,2.83,2.83,0,0,0-.89.57,2.88,2.88,0,0,0-.61.82,2.14,2.14,0,0,0-.23.95Zm-5.41.92a3.25,3.25,0,0,0,.29,1.12,3.08,3.08,0,0,0,.63.91,2.73,2.73,0,0,0,.9.6,2.7,2.7,0,0,0,1.1.22,2.84,2.84,0,0,0,1.56-.42,3.18,3.18,0,0,0,1-1l.87.71a4.35,4.35,0,0,1-1.57,1.29,4.52,4.52,0,0,1-3.48.08,3.79,3.79,0,0,1-1.3-.88,4.18,4.18,0,0,1-.86-1.33,4.65,4.65,0,0,1,0-3.34,4.26,4.26,0,0,1,.85-1.33,3.9,3.9,0,0,1,2.86-1.19,4,4,0,0,1,1.62.32,3.55,3.55,0,0,1,1.2.86,3.78,3.78,0,0,1,.74,1.26,4.61,4.61,0,0,1,.25,1.54v.51h-6.66Z" transform="translate(-142 -131)"/><path class="cls-2" d="M281.1,625.79c0,.22,0,.43,0,.64s0,.42,0,.64h0a2.39,2.39,0,0,1,.48-.59,3.08,3.08,0,0,1,.65-.47,3.91,3.91,0,0,1,.76-.31,3.13,3.13,0,0,1,.79-.11,2.9,2.9,0,0,1,2.26.81,3.31,3.31,0,0,1,.73,2.3v5h-1.12v-4.4a3.7,3.7,0,0,0-.46-2,1.88,1.88,0,0,0-1.7-.71,3.64,3.64,0,0,0-.48.07,2,2,0,0,0-.82.37,2.57,2.57,0,0,0-.77.92,3.48,3.48,0,0,0-.34,1.7v4.08H280v-6.21c0-.21,0-.49,0-.82s0-.64-.06-.94h1.15Z" transform="translate(-142 -131)"/><path class="cls-2" d="M295.67,629.16a2.55,2.55,0,0,0-.68-1.84,2.52,2.52,0,0,0-1.9-.71,2.73,2.73,0,0,0-1,.21,2.83,2.83,0,0,0-.89.57,2.88,2.88,0,0,0-.61.82,2.14,2.14,0,0,0-.23.95Zm-5.4.92a3.25,3.25,0,0,0,.29,1.12,3.08,3.08,0,0,0,.63.91,2.73,2.73,0,0,0,.9.6,2.7,2.7,0,0,0,1.1.22,2.84,2.84,0,0,0,1.56-.42,3.18,3.18,0,0,0,1-1l.87.71a4.35,4.35,0,0,1-1.57,1.29,4.52,4.52,0,0,1-3.48.08,3.79,3.79,0,0,1-1.3-.88,4.18,4.18,0,0,1-.86-1.33,4.65,4.65,0,0,1,0-3.34,4.26,4.26,0,0,1,.85-1.33,3.9,3.9,0,0,1,2.86-1.19,4,4,0,0,1,1.62.32,3.55,3.55,0,0,1,1.2.86,3.78,3.78,0,0,1,.74,1.26,4.61,4.61,0,0,1,.25,1.54v.51h-6.66Z" transform="translate(-142 -131)"/><polygon class="cls-2" points="89.83 537.91 89.86 537.91 89.86 527.71 91.08 527.71 91.08 539.75 89.55 539.75 82.38 529.45 82.35 529.45 82.35 539.75 81.13 539.75 81.13 527.71 82.66 527.71 89.83 537.91"/><path class="cls-2" d="M242.13,666.16a2.55,2.55,0,0,0-.68-1.84,2.52,2.52,0,0,0-1.9-.71,2.73,2.73,0,0,0-1.05.21,2.83,2.83,0,0,0-.89.57,2.88,2.88,0,0,0-.61.82,2.14,2.14,0,0,0-.23.95Zm-5.4.92a3.25,3.25,0,0,0,.29,1.12,3.08,3.08,0,0,0,.63.91,2.73,2.73,0,0,0,.9.6,2.7,2.7,0,0,0,1.1.22,2.84,2.84,0,0,0,1.56-.42,3.18,3.18,0,0,0,1-1l.87.71a4.35,4.35,0,0,1-1.57,1.29,4.52,4.52,0,0,1-3.48.08,3.79,3.79,0,0,1-1.3-.88,4.18,4.18,0,0,1-.86-1.33,4.65,4.65,0,0,1,0-3.34,4.26,4.26,0,0,1,.85-1.33,3.9,3.9,0,0,1,2.86-1.19,4,4,0,0,1,1.62.32,3.55,3.55,0,0,1,1.2.86,3.78,3.78,0,0,1,.74,1.26,4.61,4.61,0,0,1,.25,1.54v.51h-6.66Z" transform="translate(-142 -131)"/><path class="cls-2" d="M252.21,666.77a3.59,3.59,0,0,0-.21-1.24,3,3,0,0,0-.6-1,2.88,2.88,0,0,0-.94-.67,3.13,3.13,0,0,0-1.25-.25,3,3,0,0,0-1.25.25,2.78,2.78,0,0,0-.93.67,3.11,3.11,0,0,0-.59,1,3.63,3.63,0,0,0-.21,1.24,3.59,3.59,0,0,0,.21,1.24,3.11,3.11,0,0,0,.59,1,2.74,2.74,0,0,0,.93.67,3.25,3.25,0,0,0,2.5,0,2.78,2.78,0,0,0,.94-.67,3,3,0,0,0,.6-1A3.59,3.59,0,0,0,252.21,666.77Zm1.23,0a4.35,4.35,0,0,1-.31,1.67,4,4,0,0,1-2.21,2.21,4.49,4.49,0,0,1-1.71.31,4.62,4.62,0,0,1-1.69-.31,3.82,3.82,0,0,1-1.33-.88,4.17,4.17,0,0,1-.88-1.33,4.65,4.65,0,0,1,0-3.34,4,4,0,0,1,2.21-2.21,4.46,4.46,0,0,1,1.69-.31,4.73,4.73,0,0,1,1.71.31,3.82,3.82,0,0,1,1.33.88,4.17,4.17,0,0,1,.88,1.33A4.35,4.35,0,0,1,253.44,666.77Z" transform="translate(-142 -131)"/><path class="cls-2" d="M256.29,666.67a3.1,3.1,0,0,0,.23,1.18,3,3,0,0,0,.63,1,3,3,0,0,0,.94.66,2.66,2.66,0,0,0,1.16.25,3,3,0,0,0,1.16-.22,3.14,3.14,0,0,0,1-.62,2.94,2.94,0,0,0,.66-1,3.15,3.15,0,0,0,.21-1.26,3.52,3.52,0,0,0-.2-1.18,2.91,2.91,0,0,0-.59-1,2.79,2.79,0,0,0-1-.66,3.15,3.15,0,0,0-1.26-.25,2.63,2.63,0,0,0-1.16.25,3.32,3.32,0,0,0-.94.66,3,3,0,0,0-.63,1A2.93,2.93,0,0,0,256.29,666.67Zm-.2,5.68a3.59,3.59,0,0,0,1.28,1.06,3.8,3.8,0,0,0,1.76.4,3.69,3.69,0,0,0,1.45-.25,2.44,2.44,0,0,0,1-.67,2.63,2.63,0,0,0,.53-1,4.37,4.37,0,0,0,.16-1.21v-1.43h0a3.12,3.12,0,0,1-1.33,1.16,4,4,0,0,1-1.65.34,4.28,4.28,0,0,1-2.94-1.15,3.85,3.85,0,0,1-.88-1.28,4.32,4.32,0,0,1,0-3.24,4.08,4.08,0,0,1,.84-1.31,3.91,3.91,0,0,1,1.27-.88,4.07,4.07,0,0,1,1.62-.31,4.13,4.13,0,0,1,.76.07,3.48,3.48,0,0,1,.8.24,3.43,3.43,0,0,1,.79.47,3.8,3.8,0,0,1,.73.76h0V662.8h1.12v7.89a6.29,6.29,0,0,1-.16,1.38,3.37,3.37,0,0,1-.63,1.34,3.56,3.56,0,0,1-1.3,1,5,5,0,0,1-2.18.41,5.45,5.45,0,0,1-2.12-.39,4.89,4.89,0,0,1-1.7-1.21Z" transform="translate(-142 -131)"/><path class="cls-2" d="M272.05,666.16a2.55,2.55,0,0,0-.68-1.84,2.52,2.52,0,0,0-1.9-.71,2.73,2.73,0,0,0-1.05.21,2.83,2.83,0,0,0-.89.57,2.88,2.88,0,0,0-.61.82,2.14,2.14,0,0,0-.23.95Zm-5.4.92a3.25,3.25,0,0,0,.29,1.12,3.08,3.08,0,0,0,.63.91,2.73,2.73,0,0,0,.9.6,2.7,2.7,0,0,0,1.1.22,2.84,2.84,0,0,0,1.56-.42,3.18,3.18,0,0,0,1-1l.87.71a4.35,4.35,0,0,1-1.57,1.29,4.52,4.52,0,0,1-3.48.08,3.79,3.79,0,0,1-1.3-.88,4.18,4.18,0,0,1-.86-1.33,4.65,4.65,0,0,1,0-3.34,4.26,4.26,0,0,1,.85-1.33,3.9,3.9,0,0,1,2.86-1.19,4,4,0,0,1,1.62.32,3.55,3.55,0,0,1,1.2.86,3.78,3.78,0,0,1,.74,1.26,4.61,4.61,0,0,1,.25,1.54v.51h-6.66Z" transform="translate(-142 -131)"/><path class="cls-2" d="M276.39,662.79c0,.22,0,.43,0,.64s0,.42,0,.64h0a2.39,2.39,0,0,1,.48-.59,3.08,3.08,0,0,1,.65-.47,3.91,3.91,0,0,1,.76-.31,3.13,3.13,0,0,1,.79-.11,2.9,2.9,0,0,1,2.26.81,3.31,3.31,0,0,1,.73,2.3v5H281v-4.4a3.7,3.7,0,0,0-.46-2,1.88,1.88,0,0,0-1.7-.71,3.64,3.64,0,0,0-.48.07,2,2,0,0,0-.82.37,2.57,2.57,0,0,0-.77.92,3.48,3.48,0,0,0-.34,1.7v4.08h-1.12v-6.21c0-.21,0-.49,0-.82s0-.64-.06-.94h1.15Z" transform="translate(-142 -131)"/><path class="cls-2" d="M291,666.16a2.55,2.55,0,0,0-.68-1.84,2.52,2.52,0,0,0-1.9-.71,2.73,2.73,0,0,0-1.05.21,2.83,2.83,0,0,0-.89.57,2.88,2.88,0,0,0-.61.82,2.14,2.14,0,0,0-.23.95Zm-5.41.92a3.25,3.25,0,0,0,.29,1.12,3.08,3.08,0,0,0,.63.91,2.73,2.73,0,0,0,.9.6,2.7,2.7,0,0,0,1.1.22,2.84,2.84,0,0,0,1.56-.42,3.18,3.18,0,0,0,1-1l.87.71a4.35,4.35,0,0,1-1.57,1.29,4.52,4.52,0,0,1-3.48.08,3.79,3.79,0,0,1-1.3-.88,4.18,4.18,0,0,1-.86-1.33,4.65,4.65,0,0,1,0-3.34,4.26,4.26,0,0,1,.85-1.33,3.9,3.9,0,0,1,2.86-1.19,4,4,0,0,1,1.62.32,3.55,3.55,0,0,1,1.2.86A3.78,3.78,0,0,1,292,665a4.61,4.61,0,0,1,.25,1.54v.51h-6.66Z" transform="translate(-142 -131)"/><path class="cls-2" d="M225.7,188a5.1,5.1,0,0,1-.76.87,4.82,4.82,0,0,1-1,.71,6.21,6.21,0,0,1-1.25.47,5.47,5.47,0,0,1-1.42.17,6.42,6.42,0,0,1-2.49-.48,6.18,6.18,0,0,1-2-1.32,6.12,6.12,0,0,1-1.32-2,6.55,6.55,0,0,1-.47-2.53,6.74,6.74,0,0,1,.47-2.53,6,6,0,0,1,3.31-3.32,6.42,6.42,0,0,1,2.49-.48,6.12,6.12,0,0,1,2.24.44,4.45,4.45,0,0,1,1.92,1.46l-1.07.8a2.9,2.9,0,0,0-.51-.58,3.59,3.59,0,0,0-.74-.51,4.61,4.61,0,0,0-.89-.36,3.47,3.47,0,0,0-.95-.14,4.76,4.76,0,0,0-2.07.43,4.56,4.56,0,0,0-1.55,1.14,5,5,0,0,0-1,1.66,5.94,5.94,0,0,0,0,4,5,5,0,0,0,1,1.66,4.66,4.66,0,0,0,1.55,1.14,4.91,4.91,0,0,0,2.07.43,5.86,5.86,0,0,0,.94-.08,3.93,3.93,0,0,0,.92-.29,3.74,3.74,0,0,0,.85-.55,3.87,3.87,0,0,0,.74-.88Z" transform="translate(-142 -131)"/><path class="cls-2" d="M231.87,186c-.28,0-.64,0-1.06,0a6.9,6.9,0,0,0-1.22.2,2.61,2.61,0,0,0-1,.5,1.18,1.18,0,0,0-.42.94,1.3,1.3,0,0,0,.16.67,1.35,1.35,0,0,0,.43.46,1.78,1.78,0,0,0,.6.25,3.07,3.07,0,0,0,.67.08,2.64,2.64,0,0,0,1.06-.2,2.36,2.36,0,0,0,.76-.55,2,2,0,0,0,.45-.82,3.2,3.2,0,0,0,.14-1V186Zm.58-.92v-.2a1.81,1.81,0,0,0-2-2.06,3.48,3.48,0,0,0-2.43.94l-.68-.8a4.5,4.5,0,0,1,3.37-1.16,3.73,3.73,0,0,1,1.11.17,2.46,2.46,0,0,1,1.56,1.4,3,3,0,0,1,.24,1.26v3.55c0,.31,0,.63,0,1s.06.61.09.82h-1.09c0-.19-.06-.4-.08-.63s0-.45,0-.66h0a3.06,3.06,0,0,1-1.17,1.15,3.55,3.55,0,0,1-1.64.35,3.86,3.86,0,0,1-1-.14,2.69,2.69,0,0,1-.88-.44,2.15,2.15,0,0,1-.61-.73,2.47,2.47,0,0,1,.27-2.53,3,3,0,0,1,1.26-.82,6.38,6.38,0,0,1,1.62-.34c.57,0,1.1-.07,1.57-.07h.57Z" transform="translate(-142 -131)"/><path class="cls-2" d="M236.17,183.72c0-.29,0-.59,0-.88l-.06-.88h1.21v1.21h0a2.61,2.61,0,0,1,1.13-1,3.2,3.2,0,0,1,1.44-.36,3.51,3.51,0,0,1,.69.07,2.61,2.61,0,0,1,.71.25,2.47,2.47,0,0,1,.64.5,2.58,2.58,0,0,1,.5.83,2.69,2.69,0,0,1,1.08-1.21,3,3,0,0,1,1.54-.44,2.9,2.9,0,0,1,2.26.81,3.31,3.31,0,0,1,.73,2.3v5h-1.12v-4.64a3.4,3.4,0,0,0-.42-1.85,1.75,1.75,0,0,0-1.58-.65,2,2,0,0,0-1,.25,2,2,0,0,0-.69.65,2.76,2.76,0,0,0-.38.93,4.83,4.83,0,0,0-.12,1.08v4.23h-1.12v-4.64a3.31,3.31,0,0,0-.43-1.85,1.75,1.75,0,0,0-1.58-.65,3,3,0,0,0-.47.07,2,2,0,0,0-.76.37,2.69,2.69,0,0,0-.71.92,3.77,3.77,0,0,0-.31,1.7v4.08h-1.12v-6.2Z" transform="translate(-142 -131)"/><path class="cls-2" d="M257.92,185.93a3.59,3.59,0,0,0-.21-1.24,3,3,0,0,0-.6-1,2.88,2.88,0,0,0-.94-.67,3.13,3.13,0,0,0-1.25-.25,3.18,3.18,0,0,0-1.28.25,3.14,3.14,0,0,0-1,.67,2.82,2.82,0,0,0-.66,1,3.22,3.22,0,0,0-.24,1.24,3.19,3.19,0,0,0,.24,1.24,3,3,0,0,0,1.66,1.67,3.28,3.28,0,0,0,1.28.25,2.94,2.94,0,0,0,1.25-.25,2.78,2.78,0,0,0,.94-.67,3,3,0,0,0,.6-1A3.84,3.84,0,0,0,257.92,185.93Zm-7.26-8.87h1.12v6.22h0a3.09,3.09,0,0,1,.65-.7,4.55,4.55,0,0,1,.78-.48,4.12,4.12,0,0,1,.84-.27,4,4,0,0,1,.82-.08,4.52,4.52,0,0,1,1.71.31,3.82,3.82,0,0,1,1.33.88,4.06,4.06,0,0,1,.88,1.33,4.65,4.65,0,0,1,0,3.34,4,4,0,0,1-.88,1.33,4.17,4.17,0,0,1-1.33.88,4.52,4.52,0,0,1-1.71.31,4.74,4.74,0,0,1-.82-.08,3.74,3.74,0,0,1-.84-.27,3.57,3.57,0,0,1-.78-.48,3.11,3.11,0,0,1-.65-.7h0v1.33h-1.12Z" transform="translate(-142 -131)"/><path class="cls-2" d="M261.16,184.43c0-.35,0-.71,0-1.07s0-.83,0-1.41h1.11v1.48h0a2.36,2.36,0,0,1,.34-.62,2.76,2.76,0,0,1,.54-.54,2.41,2.41,0,0,1,.73-.38,2.77,2.77,0,0,1,.94-.14,3,3,0,0,1,.83.1l-.22,1.1a1.84,1.84,0,0,0-.65-.08,2.21,2.21,0,0,0-1.1.25,2.37,2.37,0,0,0-.77.63,2.65,2.65,0,0,0-.45.82,2.61,2.61,0,0,0-.14.85v4.49h-1.12Z" transform="translate(-142 -131)"/><path class="cls-2" d="M268.06,189.91h-1.12v-8h1.12Zm.26-11a.77.77,0,0,1-.26.59.84.84,0,0,1-.56.23.82.82,0,0,1-.56-.23.75.75,0,0,1-.25-.59.76.76,0,0,1,.25-.59.8.8,0,0,1,1.12,0A.76.76,0,0,1,268.32,178.89Z" transform="translate(-142 -131)"/><path class="cls-2" d="M275.29,186c-.28,0-.64,0-1.06,0a6.76,6.76,0,0,0-1.22.2,2.55,2.55,0,0,0-1,.5,1.15,1.15,0,0,0-.42.94,1.3,1.3,0,0,0,.16.67,1.35,1.35,0,0,0,.43.46,1.78,1.78,0,0,0,.6.25,3.07,3.07,0,0,0,.67.08,2.64,2.64,0,0,0,1.06-.2,2.36,2.36,0,0,0,.76-.55,2.11,2.11,0,0,0,.45-.82,3.2,3.2,0,0,0,.14-1V186Zm.58-.92v-.2a1.81,1.81,0,0,0-2-2.06,3.48,3.48,0,0,0-2.43.94l-.68-.8a4.5,4.5,0,0,1,3.37-1.16,3.73,3.73,0,0,1,1.11.17,2.46,2.46,0,0,1,1.56,1.4,3,3,0,0,1,.24,1.26v3.55c0,.31,0,.63,0,1s.06.61.09.82H276a5.4,5.4,0,0,1-.08-.63q0-.34,0-.66h0a3.11,3.11,0,0,1-1.16,1.15,3.55,3.55,0,0,1-1.64.35,3.86,3.86,0,0,1-1-.14,2.69,2.69,0,0,1-.88-.44,2.27,2.27,0,0,1-.61-.73,2.47,2.47,0,0,1,.27-2.53,3,3,0,0,1,1.26-.82,6.47,6.47,0,0,1,1.62-.34c.57,0,1.1-.07,1.57-.07h.56Z" transform="translate(-142 -131)"/><path class="cls-2" d="M280.66,182c0,.22,0,.43,0,.64s0,.42,0,.64h0a2.39,2.39,0,0,1,.48-.59,3.3,3.3,0,0,1,.64-.47,3.91,3.91,0,0,1,.76-.31,3.13,3.13,0,0,1,.79-.11,2.9,2.9,0,0,1,2.26.81,3.31,3.31,0,0,1,.73,2.3v5h-1.12v-4.4a3.7,3.7,0,0,0-.46-2,1.88,1.88,0,0,0-1.7-.71,3.37,3.37,0,0,0-.47.07,2.11,2.11,0,0,0-.82.37,2.69,2.69,0,0,0-.78.92,3.48,3.48,0,0,0-.34,1.7v4.08H279.6V183.7c0-.21,0-.49,0-.82s0-.64-.06-.94h1.15Z" transform="translate(-142 -131)"/><path class="cls-2" d="M221.62,229.89a5.72,5.72,0,0,0-.34-2,5,5,0,0,0-1-1.66,4.5,4.5,0,0,0-1.56-1.14,4.94,4.94,0,0,0-2.07-.43,4.76,4.76,0,0,0-2.07.43,4.56,4.56,0,0,0-1.55,1.14,5,5,0,0,0-1,1.66,5.94,5.94,0,0,0,0,4,5,5,0,0,0,1,1.66,4.56,4.56,0,0,0,1.55,1.14,4.91,4.91,0,0,0,2.07.43,4.76,4.76,0,0,0,2.07-.43,4.7,4.7,0,0,0,1.56-1.14,5,5,0,0,0,1-1.66A5.72,5.72,0,0,0,221.62,229.89Zm1.33,0a6.52,6.52,0,0,1-.48,2.53,6,6,0,0,1-3.31,3.32,6.7,6.7,0,0,1-5,0,6.18,6.18,0,0,1-2-1.32,6.12,6.12,0,0,1-1.32-2,6.91,6.91,0,0,1,0-5.06,6,6,0,0,1,3.31-3.32,6.7,6.7,0,0,1,5,0,6,6,0,0,1,3.31,3.32A6.52,6.52,0,0,1,223,229.89Z" transform="translate(-142 -131)"/><path class="cls-2" d="M225.11,230.43c0-.35,0-.71,0-1.07s0-.83,0-1.41h1.1v1.48h0a2.36,2.36,0,0,1,.34-.62,2.76,2.76,0,0,1,.54-.54,2.41,2.41,0,0,1,.73-.38,2.77,2.77,0,0,1,.94-.14,3,3,0,0,1,.83.1l-.22,1.1a1.84,1.84,0,0,0-.65-.08,2.21,2.21,0,0,0-1.1.25,2.37,2.37,0,0,0-.77.63,2.75,2.75,0,0,0-.45.82,2.61,2.61,0,0,0-.14.85v4.49H225.1v-5.48Z" transform="translate(-142 -131)"/><path class="cls-2" d="M231,231.93a3.59,3.59,0,0,0,.21,1.24,3,3,0,0,0,.6,1,2.88,2.88,0,0,0,.94.67,3.3,3.3,0,0,0,2.52,0,3.07,3.07,0,0,0,1-.67,3.11,3.11,0,0,0,.66-1,3.22,3.22,0,0,0,.24-1.24,3.19,3.19,0,0,0-.24-1.24,3.11,3.11,0,0,0-.66-1,3.07,3.07,0,0,0-1-.67,3.31,3.31,0,0,0-1.27-.25,3,3,0,0,0-1.25.25,2.78,2.78,0,0,0-.94.67,3,3,0,0,0-.6,1A3.59,3.59,0,0,0,231,231.93Zm7.25,4h-1.12v-1.33h0a3.09,3.09,0,0,1-.65.7,4.55,4.55,0,0,1-.78.48,3.58,3.58,0,0,1-.84.27,4.83,4.83,0,0,1-.82.08,4.73,4.73,0,0,1-1.71-.31,3.82,3.82,0,0,1-1.33-.88,4.17,4.17,0,0,1-.88-1.33,4.65,4.65,0,0,1,0-3.34,4,4,0,0,1,2.21-2.21,4.52,4.52,0,0,1,1.71-.31,4.74,4.74,0,0,1,.82.08,4.12,4.12,0,0,1,.84.27,3.57,3.57,0,0,1,.78.48,3.11,3.11,0,0,1,.65.7h0V223h1.12Z" transform="translate(-142 -131)"/><path class="cls-2" d="M247.53,231.93a3.59,3.59,0,0,0-.21-1.24,3,3,0,0,0-.6-1,2.88,2.88,0,0,0-.94-.67,3.13,3.13,0,0,0-1.25-.25,3,3,0,0,0-1.25.25,2.64,2.64,0,0,0-.93.67,3.11,3.11,0,0,0-.59,1,3.63,3.63,0,0,0-.21,1.24,3.59,3.59,0,0,0,.21,1.24,3,3,0,0,0,.59,1,2.74,2.74,0,0,0,.93.67,3.13,3.13,0,0,0,1.25.25,3,3,0,0,0,1.25-.25,2.78,2.78,0,0,0,.94-.67,3,3,0,0,0,.6-1A3.59,3.59,0,0,0,247.53,231.93Zm1.22,0a4.35,4.35,0,0,1-.31,1.67,4,4,0,0,1-2.21,2.21,4.49,4.49,0,0,1-1.71.31,4.62,4.62,0,0,1-1.69-.31,3.82,3.82,0,0,1-1.33-.88,4.17,4.17,0,0,1-.88-1.33,4.65,4.65,0,0,1,0-3.34,4,4,0,0,1,2.21-2.21,4.46,4.46,0,0,1,1.69-.31,4.52,4.52,0,0,1,1.71.31,3.82,3.82,0,0,1,1.33.88,4.17,4.17,0,0,1,.88,1.33A4.35,4.35,0,0,1,248.75,231.93Z" transform="translate(-142 -131)"/><polygon class="cls-2" points="112.29 104.91 111.03 104.91 107.8 96.95 109.13 96.95 111.68 103.65 111.71 103.65 114.24 96.95 115.52 96.95 112.29 104.91"/><path class="cls-2" d="M260.36,235.91h-1.12v-8h1.12Zm.26-11a.74.74,0,0,1-.26.59.8.8,0,0,1-1.12,0,.75.75,0,0,1-.25-.59.76.76,0,0,1,.25-.59.8.8,0,0,1,1.12,0A.77.77,0,0,1,260.62,224.89Z" transform="translate(-142 -131)"/><path class="cls-2" d="M268.86,229.82a2.45,2.45,0,0,0-.81-.75,2.33,2.33,0,0,0-1.18-.31,3,3,0,0,0-1.25.22,2.72,2.72,0,0,0-1.53,1.67,4,4,0,0,0-.2,1.27,4,4,0,0,0,.2,1.27,2.75,2.75,0,0,0,.59,1,2.85,2.85,0,0,0,.94.66,3,3,0,0,0,1.25.22,2.24,2.24,0,0,0,1.18-.31,2.44,2.44,0,0,0,.81-.75l.92.7a3.83,3.83,0,0,1-1.34,1,4,4,0,0,1-1.56.35,4.44,4.44,0,0,1-1.75-.3,3.73,3.73,0,0,1-1.33-.88,3.68,3.68,0,0,1-.84-1.33,5,5,0,0,1,0-3.34,3.59,3.59,0,0,1,.84-1.33,4,4,0,0,1,1.33-.88,4.44,4.44,0,0,1,1.75-.3,4,4,0,0,1,1.56.35,3.64,3.64,0,0,1,1.34,1Z" transform="translate(-142 -131)"/><path class="cls-2" d="M272.64,235.91h-1.12v-8h1.12Zm.25-11a.74.74,0,0,1-.26.59.8.8,0,0,1-1.12,0,.75.75,0,0,1-.25-.59.76.76,0,0,1,.25-.59.8.8,0,0,1,1.12,0A.74.74,0,0,1,272.89,224.89Z" transform="translate(-142 -131)"/><path class="cls-2" d="M279.86,232c-.28,0-.64,0-1.06,0a6.9,6.9,0,0,0-1.22.2,2.61,2.61,0,0,0-1,.5,1.15,1.15,0,0,0-.42.94,1.3,1.3,0,0,0,.16.67,1.35,1.35,0,0,0,.43.46,1.78,1.78,0,0,0,.6.25,3.07,3.07,0,0,0,.67.08,2.64,2.64,0,0,0,1.06-.2,2.36,2.36,0,0,0,.76-.55,2.25,2.25,0,0,0,.45-.82,3.2,3.2,0,0,0,.14-1V232Zm.58-.92v-.2a1.81,1.81,0,0,0-2-2.06,3.48,3.48,0,0,0-2.43.94l-.68-.8a4.5,4.5,0,0,1,3.37-1.16,3.73,3.73,0,0,1,1.11.17,2.46,2.46,0,0,1,1.56,1.4,3,3,0,0,1,.24,1.26v3.55c0,.31,0,.63,0,1s.06.61.09.82h-1.09c0-.19-.06-.4-.08-.63s0-.45,0-.66h0a3.06,3.06,0,0,1-1.17,1.15,3.55,3.55,0,0,1-1.64.35,3.86,3.86,0,0,1-1-.14,2.69,2.69,0,0,1-.88-.44,2.15,2.15,0,0,1-.61-.73,2.47,2.47,0,0,1,.27-2.53,3,3,0,0,1,1.26-.82,6.38,6.38,0,0,1,1.62-.34c.57,0,1.1-.07,1.57-.07h.57Z" transform="translate(-142 -131)"/><path class="cls-2" d="M285.23,228c0,.22,0,.43,0,.64s0,.42,0,.64h0a2.39,2.39,0,0,1,.48-.59,3.08,3.08,0,0,1,.65-.47,3.91,3.91,0,0,1,.76-.31,3.13,3.13,0,0,1,.79-.11,2.9,2.9,0,0,1,2.26.81,3.31,3.31,0,0,1,.73,2.3v5h-1.12v-4.4a3.7,3.7,0,0,0-.46-2,1.88,1.88,0,0,0-1.7-.71,3.64,3.64,0,0,0-.48.07,2.05,2.05,0,0,0-.82.37,2.57,2.57,0,0,0-.77.92,3.48,3.48,0,0,0-.34,1.7v4.08h-1.12V229.7c0-.21,0-.49,0-.82s0-.64-.06-.94h1.15Z" transform="translate(-142 -131)"/><path class="cls-2" d="M230.78,263.86a2.64,2.64,0,0,0-2.33-1.17,3.33,3.33,0,0,0-.94.13,2.49,2.49,0,0,0-.82.39,2,2,0,0,0-.59.68,2,2,0,0,0-.22,1,1.69,1.69,0,0,0,.46,1.27,3.68,3.68,0,0,0,1.14.74,12.31,12.31,0,0,0,1.49.52,6.84,6.84,0,0,1,1.49.61,3.68,3.68,0,0,1,1.14,1,2.83,2.83,0,0,1,.46,1.72,3.13,3.13,0,0,1-.35,1.47,3.38,3.38,0,0,1-.92,1.1,4.49,4.49,0,0,1-1.28.68,4.37,4.37,0,0,1-1.42.24,5.32,5.32,0,0,1-2.1-.42,4,4,0,0,1-1.69-1.37l1.12-.8a2.85,2.85,0,0,0,1.09,1.06,3.38,3.38,0,0,0,2.56.26,2.38,2.38,0,0,0,.82-.43,2.49,2.49,0,0,0,.6-.69,1.79,1.79,0,0,0,.24-.93,2,2,0,0,0-.26-1.05,2.34,2.34,0,0,0-.7-.7,4.53,4.53,0,0,0-1-.47l-1.14-.37a11.13,11.13,0,0,1-1.14-.43,4.08,4.08,0,0,1-1-.6,2.71,2.71,0,0,1-.7-.92,3.17,3.17,0,0,1-.26-1.39,3.26,3.26,0,0,1,.33-1.51,3.18,3.18,0,0,1,.88-1.07,4,4,0,0,1,1.25-.63,4.89,4.89,0,0,1,1.43-.2,5.17,5.17,0,0,1,1.85.32,4.09,4.09,0,0,1,1.55,1.14Z" transform="translate(-142 -131)"/><path class="cls-2" d="M235.51,273.91h-1.12v-8h1.12Zm.26-11a.77.77,0,0,1-.26.59.84.84,0,0,1-.56.23.82.82,0,0,1-.56-.23.75.75,0,0,1-.25-.59.76.76,0,0,1,.25-.59.8.8,0,0,1,1.12,0A.76.76,0,0,1,235.77,262.89Z" transform="translate(-142 -131)"/><rect class="cls-2" x="96.47" y="130.06" width="1.12" height="12.85"/><path class="cls-2" d="M248,273.91c0-.22,0-.43,0-.64s0-.42,0-.64h0a2.22,2.22,0,0,1-.48.59,3.08,3.08,0,0,1-.65.47,3.91,3.91,0,0,1-.76.31,3.13,3.13,0,0,1-.79.11,2.9,2.9,0,0,1-2.26-.81,3.31,3.31,0,0,1-.73-2.3V266h1.12v4.4a5.87,5.87,0,0,0,.1,1.17,2.16,2.16,0,0,0,.35.86,1.51,1.51,0,0,0,.66.53,2.66,2.66,0,0,0,1,.18A3.64,3.64,0,0,0,246,273a2.11,2.11,0,0,0,.82-.37,2.57,2.57,0,0,0,.77-.92A3.48,3.48,0,0,0,248,270V266h1.12v6.21c0,.22,0,.49,0,.82s0,.64.06.94H248Z" transform="translate(-142 -131)"/><path class="cls-2" d="M251.86,268.43c0-.35,0-.71,0-1.07s0-.83,0-1.41h1.11v1.48h0a2.36,2.36,0,0,1,.34-.62,2.76,2.76,0,0,1,.54-.54,2.41,2.41,0,0,1,.73-.38,2.77,2.77,0,0,1,.94-.14,3,3,0,0,1,.83.1l-.22,1.1a1.84,1.84,0,0,0-.65-.08,2.21,2.21,0,0,0-1.1.25,2.37,2.37,0,0,0-.77.63,2.65,2.65,0,0,0-.45.82,2.61,2.61,0,0,0-.14.85v4.49h-1.12Z" transform="translate(-142 -131)"/><path class="cls-2" d="M258.76,273.91h-1.12v-8h1.12Zm.26-11a.74.74,0,0,1-.26.59.8.8,0,0,1-1.12,0,.76.76,0,0,1-.26-.59.77.77,0,0,1,.26-.59.8.8,0,0,1,.56-.23.82.82,0,0,1,.56.23A.74.74,0,0,1,259,262.89Z" transform="translate(-142 -131)"/><path class="cls-2" d="M266,270c-.28,0-.64,0-1.06,0a6.76,6.76,0,0,0-1.22.2,2.55,2.55,0,0,0-1,.5,1.15,1.15,0,0,0-.42.94,1.3,1.3,0,0,0,.16.67,1.35,1.35,0,0,0,.43.46,1.78,1.78,0,0,0,.6.25,3.07,3.07,0,0,0,.67.08,2.64,2.64,0,0,0,1.06-.2,2.36,2.36,0,0,0,.76-.55,2.11,2.11,0,0,0,.45-.82,3.2,3.2,0,0,0,.14-1V270Zm.58-.92v-.2a1.81,1.81,0,0,0-2-2.06,3.48,3.48,0,0,0-2.43.94l-.68-.8a4.5,4.5,0,0,1,3.37-1.16,3.73,3.73,0,0,1,1.11.17,2.46,2.46,0,0,1,1.56,1.4,3,3,0,0,1,.24,1.26v3.55c0,.31,0,.63,0,1s.06.61.09.82h-1.09a5.4,5.4,0,0,1-.08-.63q0-.34,0-.66h0a3.11,3.11,0,0,1-1.16,1.15,3.55,3.55,0,0,1-1.64.35,3.86,3.86,0,0,1-1-.14,2.69,2.69,0,0,1-.88-.44,2.27,2.27,0,0,1-.61-.73,2.47,2.47,0,0,1,.27-2.53,3,3,0,0,1,1.26-.82,6.47,6.47,0,0,1,1.62-.34c.57,0,1.1-.07,1.57-.07h.56Z" transform="translate(-142 -131)"/><path class="cls-2" d="M271.36,266c0,.22,0,.43,0,.64s0,.42,0,.64h0a2.39,2.39,0,0,1,.48-.59,3.3,3.3,0,0,1,.64-.47,3.91,3.91,0,0,1,.76-.31,3.13,3.13,0,0,1,.79-.11,2.9,2.9,0,0,1,2.26.81,3.31,3.31,0,0,1,.73,2.3v5.05H276v-4.4a3.7,3.7,0,0,0-.46-2,1.88,1.88,0,0,0-1.7-.71,3.37,3.37,0,0,0-.47.07,2.11,2.11,0,0,0-.82.37,2.69,2.69,0,0,0-.78.92,3.48,3.48,0,0,0-.34,1.7v4.08H270.3V267.7c0-.21,0-.49,0-.82s0-.64-.06-.94h1.15Z" transform="translate(-142 -131)"/><path class="cls-2" d="M217.61,315.79H220a6.22,6.22,0,0,0,2.39-.42,5.16,5.16,0,0,0,1.68-1.1,4.31,4.31,0,0,0,1-1.56,5.28,5.28,0,0,0,0-3.62,4.45,4.45,0,0,0-1-1.56,4.86,4.86,0,0,0-1.68-1.1A6.19,6.19,0,0,0,220,306h-2.38Zm-1.22-10.92h4a7.07,7.07,0,0,1,2.25.37,6.38,6.38,0,0,1,2,1.13,5.54,5.54,0,0,1,1.47,1.89,6.48,6.48,0,0,1,0,5.27,6,6,0,0,1-1.47,1.88,6.1,6.1,0,0,1-2,1.13,7.12,7.12,0,0,1-2.25.37h-4Z" transform="translate(-142 -131)"/><path class="cls-2" d="M234.93,312.32a2.4,2.4,0,0,0-2.58-2.55,2.73,2.73,0,0,0-1,.21,2.83,2.83,0,0,0-.89.57,2.88,2.88,0,0,0-.61.82,2.14,2.14,0,0,0-.23.95Zm-5.4.92a3.25,3.25,0,0,0,.29,1.12,3.08,3.08,0,0,0,.63.91,2.9,2.9,0,0,0,.9.6,2.72,2.72,0,0,0,1.11.22,2.79,2.79,0,0,0,1.55-.42,3.18,3.18,0,0,0,1-1l.87.71a4.27,4.27,0,0,1-1.57,1.29,4.52,4.52,0,0,1-3.48.08,3.79,3.79,0,0,1-1.3-.88,4.23,4.23,0,0,1-1.17-3,4.55,4.55,0,0,1,.3-1.67,4.26,4.26,0,0,1,.85-1.33,3.9,3.9,0,0,1,2.86-1.19A4,4,0,0,1,234,309a3.65,3.65,0,0,1,1.2.86,3.78,3.78,0,0,1,.74,1.26,4.56,4.56,0,0,1,.25,1.54v.51h-6.65Z" transform="translate(-142 -131)"/><polygon class="cls-2" points="99.7 185.91 98.44 185.91 95.21 177.95 96.54 177.95 99.09 184.65 99.12 184.65 101.65 177.95 102.93 177.95 99.7 185.91"/><path class="cls-2" d="M253.21,312.93a3.59,3.59,0,0,0-.21-1.24,3,3,0,0,0-.6-1,2.88,2.88,0,0,0-.94-.67,3.13,3.13,0,0,0-1.25-.25A3,3,0,0,0,249,310a2.64,2.64,0,0,0-.93.67,3.14,3.14,0,0,0-.6,1,3.63,3.63,0,0,0-.21,1.24,3.59,3.59,0,0,0,.21,1.24,3,3,0,0,0,.6,1,2.74,2.74,0,0,0,.93.67,3.13,3.13,0,0,0,1.25.25,3,3,0,0,0,1.25-.25,2.78,2.78,0,0,0,.94-.67,3,3,0,0,0,.6-1A3.59,3.59,0,0,0,253.21,312.93Zm1.22,0a4.35,4.35,0,0,1-.31,1.67,4,4,0,0,1-.88,1.33,4.06,4.06,0,0,1-1.33.88,4.52,4.52,0,0,1-1.71.31,4.62,4.62,0,0,1-1.69-.31,3.82,3.82,0,0,1-1.33-.88,3.91,3.91,0,0,1-.88-1.33,4.65,4.65,0,0,1,0-3.34,4,4,0,0,1,.88-1.33,4.06,4.06,0,0,1,1.33-.88,4.46,4.46,0,0,1,1.69-.31,4.52,4.52,0,0,1,1.71.31,3.82,3.82,0,0,1,1.33.88,3.91,3.91,0,0,1,.88,1.33A4.35,4.35,0,0,1,254.43,312.93Z" transform="translate(-142 -131)"/><path class="cls-2" d="M257.54,309c0,.22,0,.43,0,.64s0,.42,0,.64h0a2.39,2.39,0,0,1,.48-.59,3.37,3.37,0,0,1,.65-.47,3.91,3.91,0,0,1,.76-.31,2.74,2.74,0,0,1,.79-.11,2.9,2.9,0,0,1,2.26.81,3.31,3.31,0,0,1,.73,2.3v5.05h-1.12v-4.4a3.7,3.7,0,0,0-.46-2,1.87,1.87,0,0,0-1.7-.71,3.64,3.64,0,0,0-.48.07,2.11,2.11,0,0,0-.82.37,2.57,2.57,0,0,0-.77.92,3.48,3.48,0,0,0-.34,1.7v4.08h-1.12V310.7c0-.21,0-.49,0-.82s0-.64-.06-.94h1.15Z" transform="translate(-142 -131)"/><path class="cls-2" d="M267.3,316.91h-1.12v-8h1.12Zm.26-11a.77.77,0,0,1-.26.59.84.84,0,0,1-.56.23.82.82,0,0,1-.56-.23.75.75,0,0,1-.25-.59.76.76,0,0,1,.25-.59.8.8,0,0,1,1.12,0A.76.76,0,0,1,267.56,305.89Z" transform="translate(-142 -131)"/><path class="cls-2" d="M274.52,313c-.28,0-.64,0-1.06,0a6.9,6.9,0,0,0-1.22.2,2.61,2.61,0,0,0-1,.5,1.18,1.18,0,0,0-.42.94,1.3,1.3,0,0,0,.16.67,1.35,1.35,0,0,0,.43.46,1.78,1.78,0,0,0,.6.25,3.07,3.07,0,0,0,.67.08,2.64,2.64,0,0,0,1.06-.2,2.36,2.36,0,0,0,.76-.55,2,2,0,0,0,.45-.82,3.2,3.2,0,0,0,.14-1V313Zm.58-.92v-.2a1.81,1.81,0,0,0-2-2.06,3.48,3.48,0,0,0-2.43.94l-.68-.8a4.5,4.5,0,0,1,3.37-1.16,3.73,3.73,0,0,1,1.11.17,2.46,2.46,0,0,1,1.56,1.4,3,3,0,0,1,.24,1.26v3.55c0,.31,0,.63,0,1s.06.61.09.82h-1.09c0-.19-.06-.4-.08-.63s0-.45,0-.66h0a3.06,3.06,0,0,1-1.17,1.15,3.55,3.55,0,0,1-1.64.35,3.86,3.86,0,0,1-1-.14,2.69,2.69,0,0,1-.88-.44,2.15,2.15,0,0,1-.61-.73,2.47,2.47,0,0,1,.27-2.53,3,3,0,0,1,1.26-.82,6.38,6.38,0,0,1,1.62-.34c.57,0,1.1-.07,1.57-.07h.57Z" transform="translate(-142 -131)"/><path class="cls-2" d="M279.9,309c0,.22,0,.43,0,.64s0,.42,0,.64h0a2.39,2.39,0,0,1,.48-.59,3.37,3.37,0,0,1,.65-.47,3.91,3.91,0,0,1,.76-.31,2.74,2.74,0,0,1,.79-.11,2.9,2.9,0,0,1,2.26.81,3.31,3.31,0,0,1,.73,2.3v5.05h-1.12v-4.4a3.7,3.7,0,0,0-.46-2,1.87,1.87,0,0,0-1.7-.71,3.64,3.64,0,0,0-.48.07,2.11,2.11,0,0,0-.82.37,2.57,2.57,0,0,0-.77.92,3.48,3.48,0,0,0-.34,1.7v4.08h-1.12V310.7c0-.21,0-.49,0-.82s0-.64-.06-.94h1.15Z" transform="translate(-142 -131)"/><path class="cls-2" d="M209,370a4.69,4.69,0,0,1-.76.87,4.82,4.82,0,0,1-1,.71,5.76,5.76,0,0,1-2.67.64,6.35,6.35,0,0,1-2.49-.48,6.18,6.18,0,0,1-2-1.32,6.12,6.12,0,0,1-1.32-2,6.91,6.91,0,0,1,0-5.06,6,6,0,0,1,3.31-3.32,6.35,6.35,0,0,1,2.49-.48,6.12,6.12,0,0,1,2.24.44,4.51,4.51,0,0,1,1.92,1.46l-1.07.8a2.9,2.9,0,0,0-.51-.58,3.72,3.72,0,0,0-.74-.51,4.61,4.61,0,0,0-.89-.36,3.41,3.41,0,0,0-.95-.14,4.91,4.91,0,0,0-2.07.42,4.56,4.56,0,0,0-1.55,1.14,5,5,0,0,0-1,1.66,5.94,5.94,0,0,0,0,4,5,5,0,0,0,1,1.66,4.56,4.56,0,0,0,1.55,1.14,4.91,4.91,0,0,0,2.07.43,5.86,5.86,0,0,0,.94-.08,3.51,3.51,0,0,0,.92-.29,3.74,3.74,0,0,0,.85-.55,3.87,3.87,0,0,0,.74-.88Z" transform="translate(-142 -131)"/><path class="cls-2" d="M215.19,368c-.28,0-.64,0-1.06,0a6.9,6.9,0,0,0-1.22.2,2.61,2.61,0,0,0-1,.5,1.15,1.15,0,0,0-.42.94,1.3,1.3,0,0,0,.16.67,1.35,1.35,0,0,0,.43.46,1.78,1.78,0,0,0,.6.25,3.07,3.07,0,0,0,.67.08,2.64,2.64,0,0,0,1.06-.2,2.36,2.36,0,0,0,.76-.55,2.25,2.25,0,0,0,.45-.82,3.2,3.2,0,0,0,.14-1V368Zm.57-.92v-.2a1.81,1.81,0,0,0-2-2.06,3.52,3.52,0,0,0-2.43.93l-.68-.8a4.5,4.5,0,0,1,3.37-1.16,3.73,3.73,0,0,1,1.11.17,2.46,2.46,0,0,1,1.56,1.4,3,3,0,0,1,.24,1.26v3.55c0,.31,0,.63,0,1s.06.61.09.82h-1.09c0-.19-.06-.4-.08-.63s0-.45,0-.66h0a3.06,3.06,0,0,1-1.17,1.15,3.55,3.55,0,0,1-1.64.35,3.86,3.86,0,0,1-1-.14,2.69,2.69,0,0,1-.88-.44,2.15,2.15,0,0,1-.61-.73,2.47,2.47,0,0,1,.27-2.53,3,3,0,0,1,1.26-.82,6.38,6.38,0,0,1,1.62-.34c.58-.05,1.1-.07,1.57-.07h.56Z" transform="translate(-142 -131)"/><path class="cls-2" d="M219.61,366.43c0-.35,0-.71,0-1.07s0-.83,0-1.41h1.1v1.48h0a2.36,2.36,0,0,1,.34-.62,2.76,2.76,0,0,1,.54-.54,2.41,2.41,0,0,1,.73-.38,2.77,2.77,0,0,1,.94-.14,3,3,0,0,1,.83.1l-.22,1.1a1.84,1.84,0,0,0-.65-.08,2.21,2.21,0,0,0-1.1.25,2.37,2.37,0,0,0-.77.63,2.75,2.75,0,0,0-.45.82,2.61,2.61,0,0,0-.14.85v4.49H219.6v-5.48Z" transform="translate(-142 -131)"/><path class="cls-2" d="M232.39,367.93a3.59,3.59,0,0,0-.21-1.24,3,3,0,0,0-.6-1,2.88,2.88,0,0,0-.94-.67,3.13,3.13,0,0,0-1.25-.25,3.1,3.1,0,0,0-1.27.25,3.19,3.19,0,0,0-1,.67,3.11,3.11,0,0,0-.66,1,3.22,3.22,0,0,0-.24,1.24,3.19,3.19,0,0,0,.24,1.24,3.13,3.13,0,0,0,2.93,1.92,3,3,0,0,0,1.25-.25,2.78,2.78,0,0,0,.94-.67,3,3,0,0,0,.6-1A3.59,3.59,0,0,0,232.39,367.93Zm-7.26-8.87h1.12v6.22h0a3.09,3.09,0,0,1,.65-.7,4.55,4.55,0,0,1,.78-.48,4.12,4.12,0,0,1,.84-.27,4,4,0,0,1,.82-.08,4.73,4.73,0,0,1,1.71.31,3.82,3.82,0,0,1,1.33.88,4.17,4.17,0,0,1,.88,1.33,4.65,4.65,0,0,1,0,3.34,4,4,0,0,1-2.21,2.21,4.52,4.52,0,0,1-1.71.31,4.74,4.74,0,0,1-.82-.08,3.74,3.74,0,0,1-.84-.27,3.57,3.57,0,0,1-.78-.48,2.91,2.91,0,0,1-.65-.7h0v1.33h-1.12Z" transform="translate(-142 -131)"/><path class="cls-2" d="M242.34,367.93a3.59,3.59,0,0,0-.21-1.24,3,3,0,0,0-.6-1,2.88,2.88,0,0,0-.94-.67,3.13,3.13,0,0,0-1.25-.25,3,3,0,0,0-1.25.25,2.78,2.78,0,0,0-.93.67,3.11,3.11,0,0,0-.59,1,3.63,3.63,0,0,0-.21,1.24,3.59,3.59,0,0,0,.21,1.24,3.11,3.11,0,0,0,.59,1,2.74,2.74,0,0,0,.93.67,3.25,3.25,0,0,0,2.5,0,2.78,2.78,0,0,0,.94-.67,3,3,0,0,0,.6-1A3.84,3.84,0,0,0,242.34,367.93Zm1.22,0a4.35,4.35,0,0,1-.31,1.67,4,4,0,0,1-2.21,2.21,4.49,4.49,0,0,1-1.71.31,4.62,4.62,0,0,1-1.69-.31,3.82,3.82,0,0,1-1.33-.88,4.17,4.17,0,0,1-.88-1.33,4.65,4.65,0,0,1,0-3.34,4,4,0,0,1,2.21-2.21,4.46,4.46,0,0,1,1.69-.31,4.73,4.73,0,0,1,1.71.31,3.82,3.82,0,0,1,1.33.88,4.17,4.17,0,0,1,.88,1.33A4.35,4.35,0,0,1,243.56,367.93Z" transform="translate(-142 -131)"/><path class="cls-2" d="M246.67,364c0,.22,0,.43,0,.64s0,.42,0,.64h0a2.39,2.39,0,0,1,.48-.59,3.08,3.08,0,0,1,.65-.47,3.91,3.91,0,0,1,.76-.31,3.13,3.13,0,0,1,.79-.11,2.9,2.9,0,0,1,2.26.81,3.31,3.31,0,0,1,.73,2.3v5.05H251.3v-4.4a3.7,3.7,0,0,0-.46-2,1.88,1.88,0,0,0-1.7-.71,3.64,3.64,0,0,0-.48.07,2,2,0,0,0-.82.37,2.57,2.57,0,0,0-.77.92,3.48,3.48,0,0,0-.34,1.7v4.08h-1.12V365.7c0-.21,0-.49,0-.82s0-.64-.06-.94h1.15Z" transform="translate(-142 -131)"/><path class="cls-2" d="M256.43,371.91h-1.12v-8h1.12Zm.25-11a.74.74,0,0,1-.26.59.8.8,0,0,1-1.12,0,.75.75,0,0,1-.25-.59.76.76,0,0,1,.25-.59.8.8,0,0,1,1.12,0A.74.74,0,0,1,256.68,360.89Z" transform="translate(-142 -131)"/><path class="cls-2" d="M262.84,365H261v6.94h-1.12V365h-1.68v-1h1.68v-2.18a2.94,2.94,0,0,1,.73-2.25,2.74,2.74,0,0,1,1.94-.67l.48,0,.48.08-.2,1-.43-.08a3.25,3.25,0,0,0-.44,0,1.61,1.61,0,0,0-.75.15,1.07,1.07,0,0,0-.44.43,1.9,1.9,0,0,0-.2.65,6.73,6.73,0,0,0-.05.8v2h1.89Z" transform="translate(-142 -131)"/><path class="cls-2" d="M270.35,367.32a2.55,2.55,0,0,0-.68-1.84,2.52,2.52,0,0,0-1.9-.71,2.73,2.73,0,0,0-1,.21,2.83,2.83,0,0,0-.89.57,2.88,2.88,0,0,0-.61.82,2.14,2.14,0,0,0-.23.95Zm-5.41.92a3.25,3.25,0,0,0,.29,1.12,3.08,3.08,0,0,0,.63.91,2.73,2.73,0,0,0,.9.6,2.7,2.7,0,0,0,1.1.22,2.84,2.84,0,0,0,1.56-.42,3.18,3.18,0,0,0,1-1l.87.71a4.35,4.35,0,0,1-1.57,1.29,4.52,4.52,0,0,1-3.48.08,3.79,3.79,0,0,1-1.3-.88,4.18,4.18,0,0,1-.86-1.33,4.65,4.65,0,0,1,0-3.34,4.26,4.26,0,0,1,.85-1.33,3.9,3.9,0,0,1,2.86-1.19,4,4,0,0,1,1.62.32,3.55,3.55,0,0,1,1.2.86,3.78,3.78,0,0,1,.74,1.26,4.61,4.61,0,0,1,.25,1.54v.51h-6.66Z" transform="translate(-142 -131)"/><path class="cls-2" d="M273.73,366.43c0-.35,0-.71,0-1.07s0-.83,0-1.41h1.1v1.48h0a2.36,2.36,0,0,1,.34-.62,2.76,2.76,0,0,1,.54-.54,2.41,2.41,0,0,1,.73-.38,2.77,2.77,0,0,1,.94-.14,3,3,0,0,1,.83.1L278,365a1.84,1.84,0,0,0-.65-.08,2.21,2.21,0,0,0-1.1.25,2.37,2.37,0,0,0-.77.63,2.75,2.75,0,0,0-.45.82,2.61,2.61,0,0,0-.14.85v4.49h-1.12v-5.48Z" transform="translate(-142 -131)"/><path class="cls-2" d="M285.77,367.93a3.59,3.59,0,0,0-.21-1.24,3,3,0,0,0-.6-1A2.88,2.88,0,0,0,284,365a3.13,3.13,0,0,0-1.25-.25,3,3,0,0,0-1.25.25,2.78,2.78,0,0,0-.93.67,3.11,3.11,0,0,0-.59,1,3.63,3.63,0,0,0-.21,1.24,3.59,3.59,0,0,0,.21,1.24,3.11,3.11,0,0,0,.59,1,2.74,2.74,0,0,0,.93.67,3.25,3.25,0,0,0,2.5,0,2.78,2.78,0,0,0,.94-.67,3,3,0,0,0,.6-1A3.59,3.59,0,0,0,285.77,367.93Zm1.22,0a4.35,4.35,0,0,1-.31,1.67,4,4,0,0,1-2.21,2.21,4.49,4.49,0,0,1-1.71.31,4.62,4.62,0,0,1-1.69-.31,3.82,3.82,0,0,1-1.33-.88,4.17,4.17,0,0,1-.88-1.33,4.65,4.65,0,0,1,0-3.34,4,4,0,0,1,2.21-2.21,4.46,4.46,0,0,1,1.69-.31,4.73,4.73,0,0,1,1.71.31,3.82,3.82,0,0,1,1.33.88,4.17,4.17,0,0,1,.88,1.33A4.35,4.35,0,0,1,287,367.93Z" transform="translate(-142 -131)"/><path class="cls-2" d="M294.78,371.91c0-.21,0-.43,0-.64s0-.42,0-.64h0a2.39,2.39,0,0,1-.48.59,3.08,3.08,0,0,1-.65.47,3.91,3.91,0,0,1-.76.31,3.13,3.13,0,0,1-.79.11,2.9,2.9,0,0,1-2.26-.81A3.31,3.31,0,0,1,289,369V364h1.12v4.4a5.87,5.87,0,0,0,.1,1.17,2.16,2.16,0,0,0,.35.86,1.51,1.51,0,0,0,.66.53,2.66,2.66,0,0,0,1,.18,3.64,3.64,0,0,0,.48-.07,2,2,0,0,0,.82-.37,2.67,2.67,0,0,0,.77-.92,3.6,3.6,0,0,0,.34-1.7V364h1.12v6.21c0,.22,0,.49,0,.82s0,.64.06.93Z" transform="translate(-142 -131)"/><path class="cls-2" d="M302.7,365.84a2.07,2.07,0,0,0-.68-.78,1.82,1.82,0,0,0-1-.29,2.44,2.44,0,0,0-.59.07,1.84,1.84,0,0,0-.54.21,1.12,1.12,0,0,0-.38.37,1,1,0,0,0-.14.54.91.91,0,0,0,.39.82,3.72,3.72,0,0,0,1.17.44l1.14.27a2.65,2.65,0,0,1,1.38.76,2,2,0,0,1,.55,1.42,2.28,2.28,0,0,1-.26,1.11,2.13,2.13,0,0,1-.7.76,3.12,3.12,0,0,1-1,.43,4.81,4.81,0,0,1-1.14.14,4.25,4.25,0,0,1-1.71-.35,3.08,3.08,0,0,1-1.35-1.2l1-.66a2.75,2.75,0,0,0,.86.87,2.26,2.26,0,0,0,1.23.32,3.16,3.16,0,0,0,.68-.08,1.8,1.8,0,0,0,.6-.24,1.21,1.21,0,0,0,.42-.42,1.07,1.07,0,0,0,.16-.59.93.93,0,0,0-.44-.86,3.92,3.92,0,0,0-1.07-.42l-1.09-.25a5.13,5.13,0,0,1-.55-.17,2.63,2.63,0,0,1-.68-.36,2.27,2.27,0,0,1-.57-.62,1.73,1.73,0,0,1-.24-.94,2.17,2.17,0,0,1,.25-1.07,2.07,2.07,0,0,1,.66-.75,3,3,0,0,1,.94-.43,3.93,3.93,0,0,1,1.09-.14,3.84,3.84,0,0,1,1.55.32,2.3,2.3,0,0,1,1.11,1.11Z" transform="translate(-142 -131)"/><path class="cls-2" d="M222.85,416.19h2a5.08,5.08,0,0,0,1.39-.17,2.5,2.5,0,0,0,.91-.45,1.63,1.63,0,0,0,.49-.66,2.32,2.32,0,0,0,0-1.64,1.69,1.69,0,0,0-.49-.67,2.42,2.42,0,0,0-.91-.45,5.06,5.06,0,0,0-1.39-.16h-2Zm-1.23-5.32h3.5a4.75,4.75,0,0,1,2.9.8,2.82,2.82,0,0,1,1.06,2.41A2.86,2.86,0,0,1,228,416.5a4.67,4.67,0,0,1-2.9.81h-2.28v5.59h-1.22Z" transform="translate(-142 -131)"/><path class="cls-2" d="M237.16,418.32a2.55,2.55,0,0,0-.68-1.84,2.52,2.52,0,0,0-1.9-.71,2.73,2.73,0,0,0-1.05.21,2.83,2.83,0,0,0-.89.57,2.7,2.7,0,0,0-.61.82,2.14,2.14,0,0,0-.23.95Zm-5.41.92a3.49,3.49,0,0,0,.29,1.12,3.08,3.08,0,0,0,.63.91,2.9,2.9,0,0,0,.9.6,2.7,2.7,0,0,0,1.1.22,2.84,2.84,0,0,0,1.56-.42,3,3,0,0,0,1-1l.87.71a4.35,4.35,0,0,1-1.57,1.29,4.54,4.54,0,0,1-3.49.08,3.79,3.79,0,0,1-1.3-.88,4.18,4.18,0,0,1-.86-1.33,4.65,4.65,0,0,1,0-3.34,4.09,4.09,0,0,1,.85-1.33A3.8,3.8,0,0,1,233,415a3.94,3.94,0,0,1,1.58-.31,4,4,0,0,1,1.62.32,3.55,3.55,0,0,1,1.2.86,3.78,3.78,0,0,1,.74,1.26,4.61,4.61,0,0,1,.26,1.54v.51h-6.65Z" transform="translate(-142 -131)"/><path class="cls-2" d="M240.54,417.43c0-.35,0-.71,0-1.07s0-.83,0-1.41h1.1v1.48h0a2.36,2.36,0,0,1,.34-.62,2.76,2.76,0,0,1,.54-.54,2.41,2.41,0,0,1,.73-.38,2.77,2.77,0,0,1,.94-.14,2.9,2.9,0,0,1,.83.1l-.22,1.1a1.84,1.84,0,0,0-.65-.08,2.28,2.28,0,0,0-1.11.25,2.51,2.51,0,0,0-.77.63,2.75,2.75,0,0,0-.45.82,2.61,2.61,0,0,0-.14.85v4.49h-1.12v-5.48Z" transform="translate(-142 -131)"/><path class="cls-2" d="M246.37,416.72c0-.29,0-.59,0-.88l-.06-.88h1.21v1.21h0a2.61,2.61,0,0,1,1.13-1.05,3.33,3.33,0,0,1,1.44-.36,3.51,3.51,0,0,1,.69.07,2.74,2.74,0,0,1,.71.25,2.47,2.47,0,0,1,.64.5,2.58,2.58,0,0,1,.5.83,2.69,2.69,0,0,1,1.08-1.21,3,3,0,0,1,1.54-.44,2.9,2.9,0,0,1,2.26.81,3.31,3.31,0,0,1,.73,2.3v5.05h-1.12v-4.64a3.4,3.4,0,0,0-.42-1.85,1.75,1.75,0,0,0-1.58-.65,2,2,0,0,0-1.05.25,2.07,2.07,0,0,0-.69.66,2.76,2.76,0,0,0-.38.93,4.83,4.83,0,0,0-.12,1.08v4.23h-1.12v-4.64a3.31,3.31,0,0,0-.43-1.85,1.75,1.75,0,0,0-1.58-.65,3,3,0,0,0-.47.07,1.83,1.83,0,0,0-.76.37,2.69,2.69,0,0,0-.71.92,3.77,3.77,0,0,0-.31,1.7v4.08h-1.12v-6.21Z" transform="translate(-142 -131)"/><path class="cls-2" d="M262.23,422.91h-1.12v-8h1.12Zm.26-11a.74.74,0,0,1-.26.59.8.8,0,0,1-1.12,0,.76.76,0,0,1-.26-.59.77.77,0,0,1,.26-.59.84.84,0,0,1,.56-.23.82.82,0,0,1,.56.23A.77.77,0,0,1,262.49,411.89Z" transform="translate(-142 -131)"/><path class="cls-2" d="M269.46,419c-.28,0-.64,0-1.06,0a6.9,6.9,0,0,0-1.22.2,2.61,2.61,0,0,0-1,.5,1.18,1.18,0,0,0-.42.94,1.3,1.3,0,0,0,.16.67,1.35,1.35,0,0,0,.43.46,1.78,1.78,0,0,0,.6.25,3.07,3.07,0,0,0,.67.08,2.64,2.64,0,0,0,1.06-.2,2.22,2.22,0,0,0,.76-.55,2,2,0,0,0,.45-.82,3.2,3.2,0,0,0,.14-1V419ZM270,418v-.2a1.81,1.81,0,0,0-2-2.06,3.52,3.52,0,0,0-2.43.93l-.68-.8a4.5,4.5,0,0,1,3.37-1.16,3.73,3.73,0,0,1,1.11.17,2.46,2.46,0,0,1,1.56,1.4,3,3,0,0,1,.24,1.26v3.55c0,.31,0,.63,0,1s.06.61.09.82h-1.09c0-.19-.06-.4-.08-.63s0-.45,0-.66h0a3.06,3.06,0,0,1-1.17,1.15,3.55,3.55,0,0,1-1.64.35,3.86,3.86,0,0,1-1-.14,2.51,2.51,0,0,1-.88-.44,2.15,2.15,0,0,1-.61-.73,2.47,2.47,0,0,1,.27-2.53,3,3,0,0,1,1.26-.82,6.47,6.47,0,0,1,1.62-.34c.58-.05,1.1-.07,1.57-.07H270Z" transform="translate(-142 -131)"/><path class="cls-2" d="M274.83,415c0,.22,0,.43,0,.64s0,.42,0,.64h0a2.39,2.39,0,0,1,.48-.59,3.08,3.08,0,0,1,.65-.47,3.91,3.91,0,0,1,.76-.31,3.13,3.13,0,0,1,.79-.11,2.9,2.9,0,0,1,2.26.81,3.31,3.31,0,0,1,.73,2.3v5.05h-1.12v-4.4a3.7,3.7,0,0,0-.46-2,1.87,1.87,0,0,0-1.7-.71,3.64,3.64,0,0,0-.48.07,2,2,0,0,0-.82.37,2.57,2.57,0,0,0-.77.92,3.48,3.48,0,0,0-.34,1.7v4.08h-1.12V416.7c0-.21,0-.49,0-.82s0-.64-.06-.94h1.15Z" transform="translate(-142 -131)"/><polygon class="cls-2" points="87.73 336.91 86.51 336.91 86.51 326 82.48 326 82.48 324.88 91.76 324.88 91.76 326 87.73 326 87.73 336.91"/><path class="cls-2" d="M233.78,462.43c0-.35,0-.71,0-1.07s0-.83,0-1.41h1.1v1.48h0a2.36,2.36,0,0,1,.34-.62,2.76,2.76,0,0,1,.54-.54,2.41,2.41,0,0,1,.73-.38,2.77,2.77,0,0,1,.94-.14,2.9,2.9,0,0,1,.83.1L238,461a1.84,1.84,0,0,0-.65-.08,2.28,2.28,0,0,0-1.11.25,2.51,2.51,0,0,0-.77.63,2.75,2.75,0,0,0-.45.82,2.61,2.61,0,0,0-.14.85v4.49h-1.12v-5.48Z" transform="translate(-142 -131)"/><path class="cls-2" d="M240.68,467.91h-1.12v-8h1.12Zm.25-11a.77.77,0,0,1-.26.59.84.84,0,0,1-.56.23.82.82,0,0,1-.56-.23.75.75,0,0,1-.25-.59.76.76,0,0,1,.25-.59.8.8,0,0,1,1.12,0A.74.74,0,0,1,240.93,456.89Z" transform="translate(-142 -131)"/><path class="cls-2" d="M247.9,464c-.28,0-.64,0-1.06,0a6.9,6.9,0,0,0-1.22.2,2.61,2.61,0,0,0-1,.5,1.18,1.18,0,0,0-.42.94,1.3,1.3,0,0,0,.16.67,1.35,1.35,0,0,0,.43.46,1.78,1.78,0,0,0,.6.25,3.07,3.07,0,0,0,.67.08,2.64,2.64,0,0,0,1.06-.2,2.22,2.22,0,0,0,.76-.55,2,2,0,0,0,.45-.82,3.2,3.2,0,0,0,.14-1V464Zm.58-.92v-.2a1.81,1.81,0,0,0-2-2.06,3.52,3.52,0,0,0-2.43.93l-.68-.8a4.5,4.5,0,0,1,3.37-1.16,3.73,3.73,0,0,1,1.11.17,2.46,2.46,0,0,1,1.56,1.4,3,3,0,0,1,.24,1.26v3.55c0,.31,0,.63,0,1s.06.61.09.82h-1.09c0-.19-.06-.4-.08-.63s0-.45,0-.66h0a3.06,3.06,0,0,1-1.17,1.15,3.55,3.55,0,0,1-1.64.35,3.86,3.86,0,0,1-1-.14,2.51,2.51,0,0,1-.88-.44,2.15,2.15,0,0,1-.61-.73,2.47,2.47,0,0,1,.27-2.53,3,3,0,0,1,1.26-.82,6.47,6.47,0,0,1,1.62-.34c.58-.05,1.1-.07,1.57-.07h.57Z" transform="translate(-142 -131)"/><path class="cls-2" d="M256.42,461.84a2.07,2.07,0,0,0-.68-.78,1.82,1.82,0,0,0-1-.29,2.44,2.44,0,0,0-.59.07,1.84,1.84,0,0,0-.54.21,1.12,1.12,0,0,0-.38.37,1,1,0,0,0-.14.54.91.91,0,0,0,.39.82,3.72,3.72,0,0,0,1.17.44l1.14.27a2.65,2.65,0,0,1,1.38.76,2,2,0,0,1,.55,1.42,2.28,2.28,0,0,1-.26,1.11,2.13,2.13,0,0,1-.7.76,3.12,3.12,0,0,1-1,.43,4.81,4.81,0,0,1-1.14.14,4.25,4.25,0,0,1-1.71-.35,3.08,3.08,0,0,1-1.35-1.2l1-.66a2.75,2.75,0,0,0,.86.87,2.26,2.26,0,0,0,1.23.32,3.16,3.16,0,0,0,.68-.08,1.8,1.8,0,0,0,.6-.24,1.33,1.33,0,0,0,.43-.42,1.07,1.07,0,0,0,.16-.59.93.93,0,0,0-.44-.86,3.92,3.92,0,0,0-1.07-.42l-1.09-.25a5.13,5.13,0,0,1-.55-.17,2.63,2.63,0,0,1-.68-.36,2.27,2.27,0,0,1-.57-.62,1.73,1.73,0,0,1-.24-.94,2.17,2.17,0,0,1,.25-1.07,2.07,2.07,0,0,1,.66-.75,3,3,0,0,1,.94-.43,3.93,3.93,0,0,1,1.09-.14,3.84,3.84,0,0,1,1.55.32,2.26,2.26,0,0,1,1.11,1.11Z" transform="translate(-142 -131)"/><path class="cls-2" d="M263.66,461.84a2.07,2.07,0,0,0-.68-.78,1.82,1.82,0,0,0-1-.29,2.44,2.44,0,0,0-.59.07,1.84,1.84,0,0,0-.54.21,1.12,1.12,0,0,0-.38.37,1,1,0,0,0-.14.54.91.91,0,0,0,.39.82,3.72,3.72,0,0,0,1.17.44l1.14.27a2.65,2.65,0,0,1,1.38.76,2,2,0,0,1,.55,1.42,2.28,2.28,0,0,1-.26,1.11,2.13,2.13,0,0,1-.7.76,3.12,3.12,0,0,1-1,.43,4.81,4.81,0,0,1-1.14.14,4.25,4.25,0,0,1-1.71-.35,3.08,3.08,0,0,1-1.35-1.2l1-.66a2.75,2.75,0,0,0,.86.87,2.26,2.26,0,0,0,1.23.32,3.16,3.16,0,0,0,.68-.08,1.8,1.8,0,0,0,.6-.24,1.33,1.33,0,0,0,.43-.42,1.07,1.07,0,0,0,.16-.59.93.93,0,0,0-.44-.86,3.92,3.92,0,0,0-1.07-.42l-1.09-.25a5.13,5.13,0,0,1-.55-.17,2.63,2.63,0,0,1-.68-.36,2.27,2.27,0,0,1-.57-.62,1.73,1.73,0,0,1-.24-.94,2.17,2.17,0,0,1,.25-1.07,2.07,2.07,0,0,1,.66-.75,3,3,0,0,1,.94-.43,3.93,3.93,0,0,1,1.09-.14,3.84,3.84,0,0,1,1.55.32,2.26,2.26,0,0,1,1.11,1.11Z" transform="translate(-142 -131)"/><path class="cls-2" d="M268.06,467.91h-1.12v-8h1.12Zm.26-11a.77.77,0,0,1-.26.59.84.84,0,0,1-.56.23.82.82,0,0,1-.56-.23.75.75,0,0,1-.25-.59.76.76,0,0,1,.25-.59.8.8,0,0,1,1.12,0A.77.77,0,0,1,268.32,456.89Z" transform="translate(-142 -131)"/><path class="cls-2" d="M276.56,461.82a2.45,2.45,0,0,0-.81-.75,2.24,2.24,0,0,0-1.18-.31,3,3,0,0,0-1.25.22,2.72,2.72,0,0,0-1.53,1.67,3.95,3.95,0,0,0,0,2.54,2.75,2.75,0,0,0,.59,1,2.85,2.85,0,0,0,.94.66,3,3,0,0,0,1.25.22,2.21,2.21,0,0,0,1.18-.31,2.45,2.45,0,0,0,.81-.75l.92.7a3.93,3.93,0,0,1-1.34,1,4,4,0,0,1-1.56.35,4.44,4.44,0,0,1-1.75-.3,3.86,3.86,0,0,1-1.34-.88,3.68,3.68,0,0,1-.84-1.33,5,5,0,0,1,0-3.34,3.59,3.59,0,0,1,.84-1.33,3.91,3.91,0,0,1,1.34-.88,4.44,4.44,0,0,1,1.75-.3,4,4,0,0,1,1.56.35,3.64,3.64,0,0,1,1.34,1Z" transform="translate(-142 -131)"/><path class="cls-2" d="M223,507.44a2.31,2.31,0,0,0,.63,1.21,1.79,1.79,0,0,0,1.28.44,2.06,2.06,0,0,0,1.08-.26,1.77,1.77,0,0,0,.65-.68,3.13,3.13,0,0,0,.32-.95,6.63,6.63,0,0,0,.08-1.1v-8.23h1.22v8.74a5,5,0,0,1-.16,1.25,3.07,3.07,0,0,1-1.61,2,3.41,3.41,0,0,1-1.62.34,3.26,3.26,0,0,1-2.07-.64,2.82,2.82,0,0,1-1-1.88Z" transform="translate(-142 -131)"/><path class="cls-2" d="M236.72,509.91c0-.21,0-.43,0-.64s0-.42,0-.64h0a2.39,2.39,0,0,1-.48.59,3.08,3.08,0,0,1-.65.47,3.91,3.91,0,0,1-.76.31,3.13,3.13,0,0,1-.79.11,2.9,2.9,0,0,1-2.26-.81A3.31,3.31,0,0,1,231,507V502h1.12v4.4a5.87,5.87,0,0,0,.1,1.17,2.16,2.16,0,0,0,.35.86,1.51,1.51,0,0,0,.66.53,2.66,2.66,0,0,0,1,.18,3.64,3.64,0,0,0,.48-.07,2,2,0,0,0,.82-.37,2.67,2.67,0,0,0,.77-.92,3.6,3.6,0,0,0,.34-1.7V502h1.12v6.21c0,.22,0,.49,0,.82s0,.64.06.93Z" transform="translate(-142 -131)"/><path class="cls-2" d="M240.54,504.43c0-.35,0-.71,0-1.07s0-.83,0-1.41h1.1v1.48h0a2.36,2.36,0,0,1,.34-.62,2.76,2.76,0,0,1,.54-.54,2.41,2.41,0,0,1,.73-.38,2.77,2.77,0,0,1,.94-.14,3,3,0,0,1,.83.1l-.22,1.1a1.84,1.84,0,0,0-.65-.08,2.21,2.21,0,0,0-1.1.25,2.37,2.37,0,0,0-.77.63,2.75,2.75,0,0,0-.45.82,2.61,2.61,0,0,0-.14.85v4.49h-1.12v-5.48Z" transform="translate(-142 -131)"/><path class="cls-2" d="M250.59,506c-.28,0-.64,0-1.06,0a6.9,6.9,0,0,0-1.22.2,2.61,2.61,0,0,0-1,.5,1.15,1.15,0,0,0-.42.94,1.3,1.3,0,0,0,.16.67,1.35,1.35,0,0,0,.43.46,1.78,1.78,0,0,0,.6.25,3.07,3.07,0,0,0,.67.08,2.64,2.64,0,0,0,1.06-.2,2.36,2.36,0,0,0,.76-.55,2.25,2.25,0,0,0,.45-.82,3.2,3.2,0,0,0,.14-1V506Zm.58-.92v-.2a1.81,1.81,0,0,0-2-2.06,3.52,3.52,0,0,0-2.43.93l-.68-.8a4.5,4.5,0,0,1,3.37-1.16,3.73,3.73,0,0,1,1.11.17,2.46,2.46,0,0,1,1.56,1.4,3,3,0,0,1,.24,1.26v3.55c0,.31,0,.63,0,1s.06.61.09.82h-1.09c0-.19-.06-.4-.08-.63s0-.45,0-.66h0a3.06,3.06,0,0,1-1.17,1.15,3.55,3.55,0,0,1-1.64.35,3.86,3.86,0,0,1-1-.14,2.69,2.69,0,0,1-.88-.44,2.15,2.15,0,0,1-.61-.73,2.47,2.47,0,0,1,.27-2.53,3,3,0,0,1,1.26-.82,6.38,6.38,0,0,1,1.62-.34c.58-.05,1.1-.07,1.57-.07h.57Z" transform="translate(-142 -131)"/><path class="cls-2" d="M259.11,503.84a2.07,2.07,0,0,0-.68-.78,1.82,1.82,0,0,0-1-.29,2.44,2.44,0,0,0-.59.07,1.84,1.84,0,0,0-.54.21,1.12,1.12,0,0,0-.38.37,1,1,0,0,0-.14.54.91.91,0,0,0,.39.82,3.72,3.72,0,0,0,1.17.44l1.14.27a2.65,2.65,0,0,1,1.38.76,2,2,0,0,1,.55,1.42,2.28,2.28,0,0,1-.26,1.11,2.13,2.13,0,0,1-.7.76,3.12,3.12,0,0,1-1,.43,4.81,4.81,0,0,1-1.14.14,4.25,4.25,0,0,1-1.71-.35,3.08,3.08,0,0,1-1.35-1.2l1-.66a2.75,2.75,0,0,0,.86.87,2.26,2.26,0,0,0,1.23.32A3.16,3.16,0,0,0,258,509a1.8,1.8,0,0,0,.6-.24,1.21,1.21,0,0,0,.42-.42,1.07,1.07,0,0,0,.16-.59.93.93,0,0,0-.44-.86,3.92,3.92,0,0,0-1.07-.42l-1.09-.25a5.13,5.13,0,0,1-.55-.17,2.63,2.63,0,0,1-.68-.36,2.27,2.27,0,0,1-.57-.62,1.73,1.73,0,0,1-.24-.94,2.17,2.17,0,0,1,.25-1.07,2.07,2.07,0,0,1,.66-.75,3,3,0,0,1,.94-.43,3.93,3.93,0,0,1,1.09-.14,3.84,3.84,0,0,1,1.55.32,2.3,2.3,0,0,1,1.11,1.11Z" transform="translate(-142 -131)"/><path class="cls-2" d="M266.35,503.84a2.07,2.07,0,0,0-.68-.78,1.82,1.82,0,0,0-1-.29,2.44,2.44,0,0,0-.59.07,1.84,1.84,0,0,0-.54.21,1.12,1.12,0,0,0-.38.37,1,1,0,0,0-.14.54.91.91,0,0,0,.39.82,3.72,3.72,0,0,0,1.17.44l1.14.27a2.65,2.65,0,0,1,1.38.76,2,2,0,0,1,.55,1.42,2.28,2.28,0,0,1-.26,1.11,2.13,2.13,0,0,1-.7.76,3.12,3.12,0,0,1-1,.43,4.81,4.81,0,0,1-1.14.14,4.25,4.25,0,0,1-1.71-.35,3.08,3.08,0,0,1-1.35-1.2l1-.66a2.75,2.75,0,0,0,.86.87,2.26,2.26,0,0,0,1.23.32,3.16,3.16,0,0,0,.68-.08,1.8,1.8,0,0,0,.6-.24,1.21,1.21,0,0,0,.42-.42,1.07,1.07,0,0,0,.16-.59.93.93,0,0,0-.44-.86,3.92,3.92,0,0,0-1.07-.42l-1.09-.25a5.13,5.13,0,0,1-.55-.17,2.63,2.63,0,0,1-.68-.36,2.27,2.27,0,0,1-.57-.62,1.73,1.73,0,0,1-.24-.94,2.17,2.17,0,0,1,.25-1.07,2.07,2.07,0,0,1,.66-.75,3,3,0,0,1,.94-.43,3.93,3.93,0,0,1,1.09-.14,3.84,3.84,0,0,1,1.55.32,2.3,2.3,0,0,1,1.11,1.11Z" transform="translate(-142 -131)"/><path class="cls-2" d="M270.75,509.91h-1.12v-8h1.12Zm.26-11a.74.74,0,0,1-.26.59.8.8,0,0,1-1.12,0,.75.75,0,0,1-.25-.59.76.76,0,0,1,.25-.59.8.8,0,0,1,1.12,0A.77.77,0,0,1,271,498.89Z" transform="translate(-142 -131)"/><path class="cls-2" d="M279.25,503.82a2.45,2.45,0,0,0-.81-.75,2.33,2.33,0,0,0-1.18-.31A3,3,0,0,0,276,503a2.72,2.72,0,0,0-1.53,1.67,3.72,3.72,0,0,0-.2,1.27,4,4,0,0,0,.2,1.27,2.89,2.89,0,0,0,.59,1,2.85,2.85,0,0,0,.94.66,3,3,0,0,0,1.25.22,2.24,2.24,0,0,0,1.18-.31,2.44,2.44,0,0,0,.81-.75l.92.7a3.83,3.83,0,0,1-1.34,1,4,4,0,0,1-1.56.35,4.44,4.44,0,0,1-1.75-.3,3.73,3.73,0,0,1-1.33-.88,3.91,3.91,0,0,1-.84-1.33,5,5,0,0,1,0-3.34,3.59,3.59,0,0,1,.84-1.33,4,4,0,0,1,1.33-.88,4.44,4.44,0,0,1,1.75-.3,4,4,0,0,1,1.56.35,3.64,3.64,0,0,1,1.34,1Z" transform="translate(-142 -131)"/></svg>