<svg id="Layer_1" data-name="Layer 1" xmlns="http://www.w3.org/2000/svg" viewBox="0 0 535.46 61.28"><defs><style>.cls-1{fill:#fff;}.cls-2{fill:#ff0;}</style></defs><path class="cls-1" d="M331.91,6.81h2.15a5.74,5.74,0,0,0,.93-.07,2.46,2.46,0,0,0,.83-.29,1.52,1.52,0,0,0,.6-.58,2,2,0,0,0,.22-1,1.91,1.91,0,0,0-.22-1,1.55,1.55,0,0,0-.6-.59A2.08,2.08,0,0,0,335,3a4.81,4.81,0,0,0-.93-.09h-2.15ZM330.28,1.5h4.24a4.73,4.73,0,0,1,1.9.33,2.93,2.93,0,0,1,1.17.8,2.48,2.48,0,0,1,.61,1.08,4,4,0,0,1,.17,1.16,3,3,0,0,1-.2,1.12,3.24,3.24,0,0,1-.59,1,3.29,3.29,0,0,1-.94.73,3.21,3.21,0,0,1-1.22.36l3.41,5.49h-2l-3.06-5.3h-1.82v5.3h-1.63Zm-10.39,0h7.77V3h-6.14V6.62h5.71V8.15h-5.71V12H328v1.53h-8.07ZM312.64,3h-3.87V1.5h9.38V3h-3.87V13.54h-1.64ZM299.74,1.5h7.76V3h-6.13V6.62h5.71V8.15h-5.71V12h6.44v1.53h-8.07Zm-15.53,0h2.43l3.83,9.12h.06l3.8-9.12h2.43v12h-1.64V3.65h0L291,13.54h-1.09l-4.06-9.89h0v9.89h-1.63Zm-5.15,7.64-2.25-5.53h0L274.5,9.14ZM276.13,1.5h1.48l5.15,12h-1.9l-1.21-3h-5.73l-1.19,3h-1.9Zm-8.5,0h1.63v12h-1.63ZM256.39,12h2.05a6.88,6.88,0,0,0,2-.27,4.86,4.86,0,0,0,1.63-.85,4.13,4.13,0,0,0,1.11-1.4,4.5,4.5,0,0,0,.4-2,6,6,0,0,0-.18-1.34,4.15,4.15,0,0,0-.72-1.48,4.08,4.08,0,0,0-1.42-1.17,5,5,0,0,0-2.38-.5h-2.45ZM254.76,1.5H259a7.78,7.78,0,0,1,2.23.29,5.88,5.88,0,0,1,1.67.79A4.56,4.56,0,0,1,264,3.68,5.68,5.68,0,0,1,264.77,5a6.69,6.69,0,0,1,.39,1.33,6.88,6.88,0,0,1,.12,1.22,6,6,0,0,1-.43,2.25,5.84,5.84,0,0,1-1.25,1.92A6.38,6.38,0,0,1,261.52,13a7.31,7.31,0,0,1-2.84.51h-3.92Z" transform="translate(-32.48 -1.5)"/><path class="cls-1" d="M311.66,53.06h1.68v1.48h0a1.67,1.67,0,0,1,.3-.5,3.52,3.52,0,0,1,.64-.56,3.77,3.77,0,0,1,.92-.46,3.48,3.48,0,0,1,1.18-.2,3.38,3.38,0,0,1,1.78.44,3.18,3.18,0,0,1,1.18,1.32,3,3,0,0,1,1.3-1.32,3.68,3.68,0,0,1,1.7-.44,3.89,3.89,0,0,1,1.8.36,2.79,2.79,0,0,1,1.1,1,3.32,3.32,0,0,1,.54,1.34A7.06,7.06,0,0,1,326,57v5.52h-1.8V57.26a5.85,5.85,0,0,0-.08-1,2.22,2.22,0,0,0-.28-.88,1.56,1.56,0,0,0-.62-.6,2,2,0,0,0-1.06-.24,2.13,2.13,0,0,0-1.86.8,3.53,3.53,0,0,0-.56,2.06v5.18h-1.8v-5a7.91,7.91,0,0,0-.08-1.24,2.51,2.51,0,0,0-.28-1,1.38,1.38,0,0,0-.6-.64,1.93,1.93,0,0,0-1-.24,2.41,2.41,0,0,0-.94.2,2.21,2.21,0,0,0-.78.56,3,3,0,0,0-.54,1,4.37,4.37,0,0,0-.2,1.38v4.92h-1.8Zm-17,0h1.68v1.48h0a1.67,1.67,0,0,1,.3-.5,3.52,3.52,0,0,1,.64-.56,3.77,3.77,0,0,1,.92-.46,3.48,3.48,0,0,1,1.18-.2,3.38,3.38,0,0,1,1.78.44,3.18,3.18,0,0,1,1.18,1.32,3,3,0,0,1,1.3-1.32,3.68,3.68,0,0,1,1.7-.44,3.89,3.89,0,0,1,1.8.36,2.79,2.79,0,0,1,1.1,1,3.32,3.32,0,0,1,.54,1.34A7.06,7.06,0,0,1,309,57v5.52h-1.8V57.26a5.85,5.85,0,0,0-.08-1,2.22,2.22,0,0,0-.28-.88,1.56,1.56,0,0,0-.62-.6,2,2,0,0,0-1.06-.24,2.13,2.13,0,0,0-1.86.8,3.53,3.53,0,0,0-.56,2.06v5.18h-1.8v-5a7.91,7.91,0,0,0-.08-1.24,2.51,2.51,0,0,0-.28-1,1.38,1.38,0,0,0-.6-.64,1.93,1.93,0,0,0-1-.24,2.41,2.41,0,0,0-.94.2,2.21,2.21,0,0,0-.78.56,3,3,0,0,0-.54,1,4.37,4.37,0,0,0-.2,1.38v4.92h-1.8ZM286,50.18h-5.74l-.06,3.54a2.85,2.85,0,0,1,.4-.12l.52-.1.54-.06.44,0a4.48,4.48,0,0,1,1.8.34,4,4,0,0,1,1.4,1,4.08,4.08,0,0,1,.88,1.48,5.26,5.26,0,0,1,.32,1.9,4.43,4.43,0,0,1-.4,1.92,4.24,4.24,0,0,1-1.06,1.48,5,5,0,0,1-1.58,1,5.8,5.8,0,0,1-1.94.32,4.78,4.78,0,0,1-2.6-.74,4.11,4.11,0,0,1-1.66-2.12l1.94-.66a3,3,0,0,0,1,1.42,3.11,3.11,0,0,0,2.66.22,2.42,2.42,0,0,0,.88-.56,2.53,2.53,0,0,0,.6-.92,3.16,3.16,0,0,0,.22-1.22,2.78,2.78,0,0,0-1-2.32,3.7,3.7,0,0,0-2.46-.78,6.41,6.41,0,0,0-1.38.2,6.69,6.69,0,0,0-1.54.54l.16-7.46H286ZM266.4,60.5l5.68-5.64c.2-.19.39-.39.58-.6a6.44,6.44,0,0,0,.5-.7,3,3,0,0,0,.34-.76,2.64,2.64,0,0,0,.14-.84,2.2,2.2,0,0,0-.2-.94,1.81,1.81,0,0,0-.52-.7,2.15,2.15,0,0,0-.78-.46,2.65,2.65,0,0,0-.94-.16,2.54,2.54,0,0,0-1.72.58,2.65,2.65,0,0,0-.86,1.6l-2.08-.18a4.3,4.3,0,0,1,.54-1.62,4.1,4.1,0,0,1,1-1.16,4.24,4.24,0,0,1,1.4-.68,6.33,6.33,0,0,1,1.72-.22,5.63,5.63,0,0,1,1.72.26,3.92,3.92,0,0,1,1.42.74,3.3,3.3,0,0,1,1,1.22,3.77,3.77,0,0,1,.36,1.7,3.81,3.81,0,0,1-.22,1.32,5,5,0,0,1-.54,1.14,7.65,7.65,0,0,1-.78,1c-.29.32-.6.63-.92.94l-4.66,4.5h7.12v1.68H266.4Z" transform="translate(-32.48 -1.5)"/><path class="cls-2" d="M160.12,35.69a1.5,1.5,0,0,0,0-3A1.5,1.5,0,0,0,160.12,35.69Z" transform="translate(-32.48 -1.5)"/><path class="cls-2" d="M160.7,35.89q55.2-1.71,110.45-1.78c36.51,0,73,.94,109.54.72,20.44-.12,40.88-.71,61.26-2.29,1.91-.15,1.93-3.15,0-3-36.53,2.84-73.19,2.45-109.79,2S259,31,222.37,31.48q-30.84.43-61.67,1.4C158.78,33,158.77,36,160.7,35.89Z" transform="translate(-32.48 -1.5)"/><path class="cls-2" d="M453.14,33.46h9.49a1.5,1.5,0,0,0,0-3h-9.49a1.5,1.5,0,0,0,0,3Z" transform="translate(-32.48 -1.5)"/><path class="cls-2" d="M475.47,34a65.87,65.87,0,0,0,13.24-.56,1.52,1.52,0,0,0,1.05-1.85,1.55,1.55,0,0,0-1.85-1.05,61.64,61.64,0,0,1-12.44.45,1.52,1.52,0,0,0-1.5,1.5A1.53,1.53,0,0,0,475.47,34Z" transform="translate(-32.48 -1.5)"/><path class="cls-2" d="M502.26,33.44a54.72,54.72,0,0,0,12.13-.55A1.52,1.52,0,0,0,515.44,31,1.54,1.54,0,0,0,513.59,30a51.12,51.12,0,0,1-11.33.44,1.52,1.52,0,0,0-1.5,1.5A1.53,1.53,0,0,0,502.26,33.44Z" transform="translate(-32.48 -1.5)"/><path class="cls-2" d="M531.84,34h10.6a1.5,1.5,0,1,0,0-3h-10.6a1.5,1.5,0,0,0,0,3Z" transform="translate(-32.48 -1.5)"/><path class="cls-2" d="M556.23,34.49A43.09,43.09,0,0,1,566.44,34a1.51,1.51,0,0,0,1.5-1.5,1.53,1.53,0,0,0-1.5-1.5,46.68,46.68,0,0,0-11,.56,1.51,1.51,0,0,0-1,1.85A1.55,1.55,0,0,0,556.23,34.49Z" transform="translate(-32.48 -1.5)"/><path class="cls-2" d="M146.87,32.63a50,50,0,0,1-13,.14,1.51,1.51,0,0,0-1.5,1.5,1.53,1.53,0,0,0,1.5,1.5,53.06,53.06,0,0,0,13.79-.25,1.52,1.52,0,0,0,1.05-1.85A1.55,1.55,0,0,0,146.87,32.63Z" transform="translate(-32.48 -1.5)"/><path class="cls-2" d="M119.78,32.71a56.54,56.54,0,0,0-12.12-.56,1.5,1.5,0,0,0,0,3A52.38,52.38,0,0,1,119,35.6a1.56,1.56,0,0,0,1.85-1.05A1.52,1.52,0,0,0,119.78,32.71Z" transform="translate(-32.48 -1.5)"/><path class="cls-2" d="M92.59,32.09,80.31,32a1.5,1.5,0,0,0,0,3l12.28.08A1.5,1.5,0,0,0,92.59,32.09Z" transform="translate(-32.48 -1.5)"/><path class="cls-2" d="M66.35,32.13H55.19a1.5,1.5,0,0,0,0,3H66.35A1.5,1.5,0,0,0,66.35,32.13Z" transform="translate(-32.48 -1.5)"/><path class="cls-2" d="M44,31H34a1.5,1.5,0,1,0,0,3H44a1.5,1.5,0,1,0,0-3Z" transform="translate(-32.48 -1.5)"/></svg>