<svg id="Layer_3" data-name="Layer 3" xmlns="http://www.w3.org/2000/svg" viewBox="0 0 332.24 345.29"><defs><style>.cls-1{fill:#2b2b2b;}.cls-2{fill:#fff;}.cls-3{fill:#ff0;}</style></defs><path class="cls-1" d="M208.56,148.75c-2.83,2.82-7.43,1.44-10.92,1.21-4.21-.27-8,1.27-12,2.42-3,.88-6.4,1.4-9.35,0a6,6,0,0,1-1.59-1.09,5.23,5.23,0,0,1-.64-.77c-.09-.13-.15-.28-.24-.4-.3-.39,0-.2-.07.16.11-.87.09-1.77.14-2.64a5.86,5.86,0,0,1,.06-1.11,16.91,16.91,0,0,1,1-2.11A15.25,15.25,0,0,1,178,139.7a6.48,6.48,0,0,1,4.55-2c.88.05.69.68.77,1.42a5.24,5.24,0,0,0,.64,2.19c1.58,2.63,5.35,2.85,7.8,1.47,3.12-1.76,4.3-5.4,7.14-7.42,1.23-.88,3.43-1.36,4.27.35.36.73-.23,1.35-.58,2a4.45,4.45,0,0,0-.69,2.53c.12,1.85,1.66,3.07,3.08,4a19.58,19.58,0,0,1,2.62,2c.76.72,1.85,1.52,1,2.54-1.25,1.46.86,3.59,2.12,2.12,3.63-4.25-1.74-7.31-4.76-9.65-.61-.47-1.23-.95-.93-1.76a15.92,15.92,0,0,0,1.22-2.57,4.47,4.47,0,0,0-2.19-4.51c-3.85-2.51-7.69.72-10,3.72-1.15,1.51-2.32,3.39-4.11,4.21-1.08.5-3.09.48-3.57-.88-.26-.75-.1-1.61-.33-2.38a3.18,3.18,0,0,0-1.91-2.1c-1.85-.71-4.12-.07-5.8.82a12.53,12.53,0,0,0-4.49,4.31,22.82,22.82,0,0,0-1.52,2.79,16,16,0,0,0-1.35,3.3,22.65,22.65,0,0,0-.17,3,4.56,4.56,0,0,0,1,3.39c2.19,2.84,6,3.84,9.45,3.7,5.16-.22,9.77-3.25,14.93-3.31,4.94-.06,10.44,2,14.46-2A1.5,1.5,0,0,0,208.56,148.75Z" transform="translate(-34.41 -27.15)"/><path class="cls-1" d="M218.28,240c-1-1.71-1.06-3.92-2.21-5.56-1-1.47-2.8-2.22-4.33-3.17-4.47-2.76-7.28-7.48-9.92-12l-14.44-24.82c-1.51-2.59-3.06-5.23-5.35-7.16-2.9-2.44-6.68-3.49-10.33-4.47l-14.92-4c-2-.53-4.24-1-5.95.1-1.92,1.26-2.31,4-4.14,5.44-2.09,1.59-5.15.73-7.36-.68s-4.21-3.35-6.78-3.93c-2.89-.64-6.54.36-8.4-1.94-1.37-1.69-.85-4.14-.91-6.32s-1.73-4.83-3.78-4.11L115.7,166A125,125,0,0,1,76,169.16c-2.18-.18-4.58-.35-6.35.94s-2.4,3.85-3.77,5.69c-2.32,3.1-6.9,4.16-8.59,7.64-1,2.11-.73,4.65-1.58,6.83-1.4,3.59-5.39,5.27-8.43,7.64-7.51,5.81-9.47,16.11-10.91,25.48-.43,2.78-.85,5.65-.12,8.36s2.68,5.19,4.57,7.43C49.08,249,59.17,259.23,72,259.46c8.83.16,17.7-4.63,26.18-2.18,3.66,1.06,7.26,3.46,11,2.58,2.08-.49,5.14-1.49,5.68.58a4,4,0,0,1-.5,2.34c-1.59,4.18.61,8.87,3.48,12.3s6.52,6.29,8.62,10.23c6.85,12.87-5.74,29.18-.71,42.86,2.84,7.71,10.94,13.27,11.56,21.46.27,3.57-.92,7.41.71,10.59a13,13,0,0,0,4.36,4.31c4.3,3.08,8.94,6.28,14.22,6.46,6.58.22,12.38-4.33,16.56-9.41s7.48-11,12.52-15.22c3.72-3.14,8.9-6.78,7.52-11.45-.52-1.76-2-3.2-2.18-5-.44-3.95,4.56-5.79,8.06-7.66a17,17,0,0,0,8.66-16.65c-.66-5.4-3.95-10.67-2.57-15.93.95-3.62,3.9-6.3,6.62-8.87A138.46,138.46,0,0,0,238.9,245C233.57,239.86,222.11,246.3,218.28,240Z" transform="translate(-34.41 -27.15)"/><path class="cls-1" d="M219.57,239.2a26.64,26.64,0,0,1-1.34-3.79,7.51,7.51,0,0,0-2.45-3.42,38.55,38.55,0,0,0-3.29-2.06,17.33,17.33,0,0,1-3.25-2.66c-4.18-4.3-6.87-10.1-9.86-15.24q-5.1-8.78-10.21-17.55a37.56,37.56,0,0,0-5-7.3,18.81,18.81,0,0,0-7.22-4.41c-3-1.1-6.12-1.81-9.19-2.64l-9.62-2.6c-2.58-.69-5.62-1.59-8.07,0a7.37,7.37,0,0,0-2.23,2.48,11.91,11.91,0,0,1-1.84,2.87c-2,1.84-5.1,0-6.9-1.26-2.27-1.59-4.4-3.23-7.23-3.59-1.87-.24-5,.37-6.44-1.13-.88-.91-.76-2.38-.73-3.54a11.17,11.17,0,0,0-.32-3.95,6.33,6.33,0,0,0-1.76-2.75c-.7-.6-2.12-1.35-3.08-.93-.42.19.59.26,0,0-.29-.13-.61-.22-.91-.32-.76-.27-1.52-.57-2.29-.81a5.67,5.67,0,0,0-2.95.35q-2.58.59-5.19,1.07c-3.18.59-6.39,1-9.61,1.38a124.35,124.35,0,0,1-20,.43c-2.74-.16-5.76-.77-8.4.25s-3.61,3.4-4.88,5.7c-2.31,4.15-7.9,5-9.69,9.6-1,2.47-.5,5.36-2.07,7.6-1.4,2-3.69,3.21-5.65,4.55-8.78,6-11.27,16.39-12.84,26.33-.49,3.08-1.06,6.23-.49,9.35a17.25,17.25,0,0,0,4,7.54,99,99,0,0,0,11.26,12.08,42.75,42.75,0,0,0,13.23,8.4c5.29,2,10.72,2,16.23,1,5.73-1,11.75-3.09,17.6-1.72,2.93.69,5.56,2.3,8.53,2.83a10.14,10.14,0,0,0,4.07,0,19.47,19.47,0,0,1,3-.61c1.15-.06.85.29.47,1.31a10.63,10.63,0,0,0-.73,4.18,15.5,15.5,0,0,0,2.77,7.74c3,4.59,8,7.75,10.38,12.78,2,4.23,1.78,9.14,1,13.65-.83,4.91-2.25,9.71-3,14.64s-.79,9.83,1.12,14.42,5.35,8.27,8,12.41A19.39,19.39,0,0,1,135.5,348c.64,2.76,0,5.55.1,8.33a9.9,9.9,0,0,0,3.08,7.23,44.6,44.6,0,0,0,6.73,4.91c4.74,3,10.14,5,15.77,3.48,5.31-1.43,9.72-5.29,13.14-9.46,3.68-4.49,6.65-9.58,10.83-13.65,3.31-3.22,8.62-6,9.59-11,.51-2.59-.63-4.48-1.76-6.69s-.13-3.65,1.7-4.88,4.11-2.1,6.06-3.33a18.52,18.52,0,0,0,8.12-19.5c-.62-3-1.82-5.82-2.35-8.82a10.11,10.11,0,0,1,1.63-7.85,40.44,40.44,0,0,1,5.62-5.86q3.28-3.17,6.35-6.54a141.8,141.8,0,0,0,11.08-13.85,139.16,139.16,0,0,0,9.06-14.8,1.54,1.54,0,0,0-.23-1.82c-3-2.74-7.07-2.72-10.88-2.56-3.08.16-7.65.87-9.57-2.15-1-1.63-3.63-.12-2.59,1.51,2.21,3.48,6.21,3.87,10,3.76,3.44-.1,8.1-1,10.89,1.59-.08-.61-.16-1.21-.23-1.82a137.66,137.66,0,0,1-20.26,28.69q-2.94,3.19-6.08,6.2a46.5,46.5,0,0,0-5.44,5.7,12.69,12.69,0,0,0-2.59,7.32,27.71,27.71,0,0,0,1.65,8.33,22.5,22.5,0,0,1,1.33,8,15.34,15.34,0,0,1-2.14,6.77,15,15,0,0,1-5.07,5.24c-1.87,1.15-3.94,1.93-5.78,3.14s-3.33,2.62-3.73,4.71c-.51,2.64,1.16,4.34,2,6.63,1.7,4.48-4.57,8.21-7.34,10.61-8.08,7-12.12,19.55-22.95,23.19-5.62,1.89-10.79-.47-15.44-3.59-2.11-1.41-4.75-2.9-6.2-5-1.57-2.33-1-5.37-.89-8,.23-5-1.68-9.25-4.54-13.3-2.7-3.83-6-7.49-7.42-12.06s-.82-9.43.08-14c1-4.82,2.28-9.57,2.86-14.46.54-4.57.22-9.26-1.89-13.42-2.48-4.9-7.22-8-10.22-12.47-1.43-2.14-2.6-4.73-2.34-7.37.22-2.25,2.26-4.95-.23-6.71-1.72-1.21-4.07-.45-5.92,0-2.88.68-5.52-.6-8.16-1.62-5.58-2.17-11.08-1.67-16.84-.49-5.52,1.13-11,2.48-16.67,1.23-10.26-2.27-18.09-10.58-24.66-18.27C41,237.07,39,234.93,38,232.33c-1.14-3-.56-6.23-.09-9.29a66.59,66.59,0,0,1,3.52-14.55,23,23,0,0,1,8.89-10.94,21.68,21.68,0,0,0,5.4-4.45c1.72-2.22,1.8-4.68,2.34-7.32s2.22-3.85,4.28-5.2a16.59,16.59,0,0,0,5.1-4.47c1.33-2,1.9-4.89,4.64-5.43a12.82,12.82,0,0,1,3.5,0c1.73.13,3.46.25,5.19.32a126.2,126.2,0,0,0,19.24-.69c3.16-.36,6.32-.83,9.45-1.42,1.58-.3,3.15-.63,4.71-1,.33-.08,1.86-.33,1.12-.43a4,4,0,0,1,.73.26l2.21.78c.23.08.46.19.7.25a5.19,5.19,0,0,0,1,0c.87,0,1.35,1.12,1.56,1.86a12.91,12.91,0,0,1,.1,3.62c0,2.58.9,5,3.43,6,2.26.93,4.71.37,7,.89,2.6.58,4.52,2.66,6.74,4s4.85,2.07,7.25,1.18,3.2-3,4.47-5c1.58-2.47,4.4-1.44,6.74-.81l9.62,2.6c2.94.79,5.92,1.49,8.79,2.49a15.56,15.56,0,0,1,7,4.57,52.89,52.89,0,0,1,4.93,7.83l10.08,17.33c2.84,4.88,5.46,10.22,9.47,14.27a33.93,33.93,0,0,0,6.07,4.38c2.45,1.59,2.34,4.44,3.65,6.81C217.92,242.4,220.51,240.89,219.57,239.2Z" transform="translate(-34.41 -27.15)"/><path class="cls-1" d="M86.55,104.23c-1.37-2.17-3.82-3.36-6.14-4.45l-.72.22c1.06-2.07,2.15-4.37,1.62-6.64s-3.56-4-5.26-2.36c-.54.5-.87,1.25-1.54,1.53a3.55,3.55,0,0,1-2.17-.16,4.86,4.86,0,0,0-4,.57,3,3,0,0,0-1,3.63c.64,1.2,2.12,1.62,3.26,2.37a5.85,5.85,0,0,1,2,7,25.84,25.84,0,0,1-2.5,3.61c-.81,1.22-1.36,2.82-.72,4.13,1,2,4,2,6,1s3.7-2.72,5.9-3.16c1.32-.26,2.76-.05,4-.62C87.62,109.83,87.93,106.4,86.55,104.23Z" transform="translate(-34.41 -27.15)"/><path class="cls-1" d="M87.85,103.47a12.17,12.17,0,0,0-4.2-3.74,18,18,0,0,0-2.48-1.25,2.59,2.59,0,0,0-1.88.06l1.69,2.2c1.35-2.66,2.87-6,1.33-8.94-1.08-2-3.7-3.54-6-2.7a3.89,3.89,0,0,0-1.54,1.05c-.45.48-.59,1-1.3.94-1.59-.21-2.89-.64-4.49-.11-2.67.87-4.38,4.07-2.76,6.6a7.87,7.87,0,0,0,3.09,2.31,4.31,4.31,0,0,1,2.16,2.74c.82,3.1-2.23,4.94-3.3,7.51s-.17,5.67,2.77,6.5c2.77.77,5.23-.6,7.46-2.06a9,9,0,0,1,4.52-1.74c1.68-.12,3.32-.4,4.51-1.7,1.9-2.07,1.79-5.36.42-7.67A1.5,1.5,0,0,0,85.26,105c.72,1.22,1,3.33-.24,4.34-.83.65-2.12.49-3.11.6A9.13,9.13,0,0,0,78.49,111c-1.84,1-3.51,2.75-5.7,2.85a2.21,2.21,0,0,1-1.85-.58c-.69-.86,0-2.17.52-2.94,1.34-2,3-3.61,3.15-6.2a7.54,7.54,0,0,0-2-5.43A8.73,8.73,0,0,0,70.26,97c-.71-.38-1.76-.79-1.66-1.75.3-2.68,4.08-1,5.57-1.13s1.88-1.11,2.84-2a1.5,1.5,0,0,1,2,.22c2.15,1.67.36,5-.57,6.85a1.51,1.51,0,0,0,1.69,2.2l.72-.22-1.16-.15c2,1,4.3,2,5.6,3.91C86.33,106.58,88.93,105.08,87.85,103.47Z" transform="translate(-34.41 -27.15)"/><path class="cls-1" d="M61.8,104.61c-1.5-.76-2.91,1.22-3.3,2.85a22.33,22.33,0,0,0-.56,6.67c.05.77.25,1.69,1,2s1.63-.36,2.15-1a10.69,10.69,0,0,0,.65-11.6Z" transform="translate(-34.41 -27.15)"/><path class="cls-1" d="M62.56,103.32c-2.53-1.14-4.5.92-5.33,3.17a16,16,0,0,0-.71,3.82,20.56,20.56,0,0,0-.06,4,3.64,3.64,0,0,0,1.62,3.07,3.16,3.16,0,0,0,3.78-.93,11.39,11.39,0,0,0,2.67-6.31A12,12,0,0,0,63,102.72c-.71-1.22-2.92-.77-2.8.76,0,.38.06.76.1,1.15a1.54,1.54,0,0,0,1.5,1.5,1.51,1.51,0,0,0,1.5-1.5c0-.38-.06-.76-.1-1.15l-2.8.76a9.18,9.18,0,0,1,1.16,5.52,9.59,9.59,0,0,1-.65,2.58,5.59,5.59,0,0,1-1.49,2.29c-.24.17-.14.1-.15.08a.39.39,0,0,1,.3.09c.07.1.06.07,0-.09s-.1-.62-.12-1a20.44,20.44,0,0,1,.16-3.83,9.21,9.21,0,0,1,.73-2.93A2.94,2.94,0,0,1,61,106c-.09.08-.06.07.08,0-.13.05-.11,0,0,0-.16,0-.15,0,0,0a.18.18,0,0,1-.16,0,1.55,1.55,0,0,0,2-.54A1.49,1.49,0,0,0,62.56,103.32Z" transform="translate(-34.41 -27.15)"/><path class="cls-1" d="M237,306l-2.28,0c-.09-.54-.88-.68-1.33-.37a2.81,2.81,0,0,0-.85,1.38,13.68,13.68,0,0,1-7.37,7.48c-2.93,1.22-6.91,2.07-7.38,5.2-.31,2.05,1.21,3.9,1.65,5.92.54,2.48-.58,5-1.66,7.29s-2.16,4.84-1.54,7.3,3.81,4.33,5.78,2.72a5.89,5.89,0,0,0,1.31-1.83l10.71-20.19A21.14,21.14,0,0,0,237,306Z" transform="translate(-34.41 -27.15)"/><path class="cls-1" d="M237,304.49l-2.28,0,1.45,1.1a2.37,2.37,0,0,0-3.29-1.39c-1.43.66-1.73,2.45-2.45,3.71a12.79,12.79,0,0,1-6.84,5.58c-2.38.9-5.22,1.76-6.62,4.08a5.5,5.5,0,0,0-.57,4c.37,1.69,1.49,3.16,1.66,4.9s-.65,3.64-1.39,5.25a21.75,21.75,0,0,0-2,5.44c-.47,2.92.51,5.9,3.3,7.27a4.86,4.86,0,0,0,3.66.35c1.61-.53,2.44-2,3.19-3.39l5.82-11c2.12-4,4.48-7.95,6.31-12.1s1.79-8.07,1.52-12.37c-.12-1.92-3.12-1.93-3,0,.2,3.18.42,6.42-.59,9.49s-2.78,5.83-4.26,8.63l-4.89,9.22-2.33,4.39c-.39.73-.78,1.46-1.16,2.19a5.67,5.67,0,0,1-1.14,1.81,1.75,1.75,0,0,1-2.14-.14,3.37,3.37,0,0,1-1.42-3.11c.13-3.11,2.27-5.8,3.09-8.73a9.35,9.35,0,0,0,.3-4.07,27.64,27.64,0,0,0-1.46-4.12c-.79-2.42.91-3.55,2.93-4.4,2.52-1.06,5-1.83,7.12-3.59a15.38,15.38,0,0,0,2.87-3.16,14.19,14.19,0,0,0,1.11-1.93c.11-.23.2-.46.3-.7l.25-.6q.57-.69-.81-.75a1.58,1.58,0,0,0,1.45,1.1l2.28,0A1.5,1.5,0,0,0,237,304.49Z" transform="translate(-34.41 -27.15)"/><path class="cls-1" d="M246.59,154.65c-1.53,1.07-4.14,1.06-4.55,2.89-.52,2.33,3.65,4.22,2.47,6.3a2.82,2.82,0,0,1-1.94,1.12,9.86,9.86,0,0,1-6.79-.71,6.18,6.18,0,0,1-3.34-5.69c.21-2.51,2.26-4.88,1.52-7.29-.64-2.08-3-3-4.94-4s-4-2.9-3.31-5a5.13,5.13,0,0,1,1.39-1.89c3.53-3.49,7.54-7.2,12.5-7.42,1.93-.08,4.12.58,5,2.32s-.79,4.35-2.62,3.73l-1.21.92a6.9,6.9,0,0,0-1.26,6.19,3.49,3.49,0,0,0,1.05,1.76c1.42,1.17,3.62.35,5.34,1A3.43,3.43,0,0,1,246.59,154.65Zm-37-4.84c-1.62,1.73-4.18,2.23-6.55,2.15s-4.71-.61-7.08-.54c-4.32.12-8.32,2.23-12.56,3.06s-9.54-.22-11.19-4.22l.21-3.89a25.89,25.89,0,0,1,3.56-6.74,8.67,8.67,0,0,1,6.53-3.47,2.37,2.37,0,0,1,1.6.49c.79.74.51,2,.78,3.08.55,2.18,3.53,2.9,5.58,2s3.39-2.9,4.75-4.7,3-3.61,5.25-4,4.84,1.62,4.22,3.78c-.3,1-1.22,1.84-1.32,2.9-.15,1.61,1.55,2.68,2.9,3.57a16.26,16.26,0,0,1,3.27,2.81,3.23,3.23,0,0,1,.93,1.65A2.84,2.84,0,0,1,209.62,149.81Zm155.51,40.48c-.32-8.74-3.1-17.23-3.86-25.94-.85-9.66.81-19.43-.21-29.08s-5.62-19.89-14.62-23.5c-6.37-2.55-14.79-1.9-18.64-7.59-1.71-2.52-2-5.7-2.53-8.69a48.2,48.2,0,0,0-25.86-34.33A37.84,37.84,0,0,0,299.7,32,5.57,5.57,0,0,0,297.42,29c-3.25-1.68-6.09,3.21-5.77,6.85s1.44,8-1.36,10.41c-5.58,4.7-13.89-7.63-20.12-3.83-2,1.24-2.88,3.86-4.88,5.15s-4.86.9-7.36.59a45,45,0,0,0-30.75,7.57,6.23,6.23,0,0,1-.65-5.56c-.77-2.89-5.3-2.69-7.33-.49S216.6,55,215,57.57c-4.73,7.73-16.51,7.2-24.39,2.73,2.11-3.28,7.52.22,11.09-1.37,4.29-1.91,1.82-9-2.56-10.72s-9.39-.59-13.91-1.89c-4.8-1.38-8.5-5.31-13.23-6.9-9.6-3.23-19.26,3.86-27.45,9.82a175.27,175.27,0,0,1-29.25,17.23c-3.94,1.83-8.13,3.66-10.69,7.17s-2.56,9.28,1.17,11.5c2,1.16,4.39,1.08,6.59,1.68,5.77,1.59,10,8,16,7.42s8.78-7.18,10.12-12.88,3-12.42,8.47-14.53c2.76,3.13,7.61,3.19,11.7,2.35s8.24-2.34,12.32-1.48,7.72,5.48,5.7,9.13c-1.64,3-5.62,3.35-9,3.85s-7.35,2.36-7.24,5.74c.07,2,1.6,3.58,2.13,5.48s-1.18,4.6-2.88,3.6l-1,.81c-.51-3.39-5.93-2.83-8.12-.2s-3.24,6.39-6.27,8c-3.81,2-8.51-.53-12.74.28-2.89.55-5.26,2.6-8.06,3.49s-6.75-.24-7-3.17c-.12-1.77,1.23-3.56.57-5.2-.77-1.9-3.68-1.86-5.22-.52s-2.17,3.42-3.1,5.25C103.85,114.06,91,116,80.78,120c-1.76.69-3.65,1.65-4.3,3.43-1.68,4.64,6.46,8.19,5.5,13-1,5.17-9,3.1-13.84,5.29-4.26,2-5.51,7.9-3.47,12.11s6.45,6.81,10.94,8.14,9.52,1.45,13-1.5c1.9-1.62,3-3.95,4.49-6,7.29-10,24.53-10.3,32.12-.48,2.12,2.74,3.6,6.1,6.45,8.08s7.82,1.42,8.58-2c1.34-5.94-10.37-6.77-11.47-12.75-.78-4.22,5.09-7.13,9-5.34s5.86,6.14,7.24,10.2,2.67,8.47,6,11.18c1.32,1.07,3.23,1.8,4.69.94,1.95-1.16,1.61-4,1.6-6.26S159.1,153,161.1,154c.73,6.4,8.87,8.54,15.3,8.88s14.51,1.68,16.15,7.91c-1.31,5.54-13.68,3.2-12.85,8.82a5.8,5.8,0,0,0,1.21,2.43Q200,208.8,221.39,233.8c2,2.35,5.68,4.78,7.76,2.49,1.21-1.32.87-3.45,1.7-5s2.36-2.26,3.9-2.86c5-1.94,10.34-2.88,15.2-5.13s9.37-6.28,10.15-11.58-3.91-11.27-9.15-10.18c-1.6.33-3,1.23-4.64,1.53-4.92.91-8.85-3.85-11.57-8.05-1.85-2.85-3-7.79.28-8.66,2.09-.56,3.9,1.38,5.36,3a30.48,30.48,0,0,0,15.11,9c10.31,2.54,22.59,0,30.56,7a15.84,15.84,0,0,1,4.39,6.43A14.4,14.4,0,0,0,292.3,216c1.07,1.31,2.72,2,4.18,2.81,10.63,6.09,12,21.84,22,28.85,3.43-.83,4.4-5.3,3.94-8.8s-1.59-7.29.11-10.38c1.08-2,3.11-3.21,5-4.35l28.6-16.93a22.15,22.15,0,0,0,5.37-4C364.64,199.8,365.3,194.87,365.13,190.29Z" transform="translate(-34.41 -27.15)"/><path class="cls-1" d="M366.63,190.29c-.26-6.24-1.67-12.31-2.78-18.43a88.92,88.92,0,0,1-1.22-19.14c.36-10.89,1-22.18-4.48-32a23.28,23.28,0,0,0-9.43-9.51c-4.11-2.11-8.75-2.47-13.13-3.73a12.68,12.68,0,0,1-5.47-2.82c-2-1.9-2.55-4.55-3-7.14a55.68,55.68,0,0,0-4.22-14.29,49.67,49.67,0,0,0-22.73-23.32l.54,2.05a39.57,39.57,0,0,0,.64-29.82c-.74-1.88-1.66-3.85-3.66-4.65a4.51,4.51,0,0,0-4.72,1,9.07,9.07,0,0,0-2.63,4.91c-.41,2,0,4,.21,6.06.17,1.86.38,4.26-1.16,5.63a3.36,3.36,0,0,1-3.11.65c-3-.68-5.57-2.79-8.31-4.1s-5.82-2.14-8.54-.48c-1.85,1.14-2.71,3.12-4.22,4.59-1.75,1.72-4.33,1.31-6.55,1a46.91,46.91,0,0,0-32.21,7.68l2.05.54a5,5,0,0,1-.82-2.91c.06-1.12.57-1.86.07-3a4.43,4.43,0,0,0-3-2.41c-3.24-.81-6.26,1-7.9,3.74-1.9,3.15-2.49,6.9-5.61,9.21a14.35,14.35,0,0,1-8.9,2.43,23.51,23.51,0,0,1-10.88-3l.54,2.05c.75-1.05,2.43-.73,3.52-.6a23.94,23.94,0,0,0,4.54.39A5.5,5.5,0,0,0,205.45,56a9.27,9.27,0,0,0-2.8-7.22c-2.5-2.53-6.18-2.93-9.56-3.1a40,40,0,0,1-6.38-.53,18,18,0,0,1-5.44-2.31c-3.3-2-6.42-4.36-10.24-5.24-7.81-1.81-15.37,2.23-21.65,6.46-7,4.75-13.76,9.82-21.14,14.07q-5.7,3.28-11.64,6.14c-3.43,1.65-7,3.07-10.06,5.42a12.46,12.46,0,0,0-5,7.75c-.47,2.87.12,6.11,2.36,8.14,2.8,2.55,6.81,1.87,10,3.45,2.88,1.41,5.27,3.61,8.09,5.14,3.14,1.7,6.71,2.25,10,.58,3-1.53,4.94-4.59,6.22-7.59,1.45-3.4,2-7,3.11-10.54,1-3.28,2.67-6.91,6.06-8.31L146,67.9c3.05,3.26,7.69,3.6,11.87,3,4.63-.7,10.48-3.56,14.92-.86,1.6,1,3.22,2.83,3.06,4.83s-2.26,3.15-4.1,3.64c-3.76,1-7.95.78-10.9,3.75a5.75,5.75,0,0,0-1.46,5.91,33.14,33.14,0,0,0,1.53,3.25,2.57,2.57,0,0,1,.31,1.81c0,.16-.42,1.11-.64,1a1.6,1.6,0,0,0-1.82.23l-1,.81,2.51.66c-.47-2.33-2.62-3.51-4.88-3.46a8.06,8.06,0,0,0-6.24,3.22c-1.65,2.17-2.62,5.25-5,6.82-2.76,1.87-6.59.45-9.63.26-3.61-.23-6.32,1.31-9.44,2.87-1.7.85-6,2.12-6.88-.66-.4-1.28.63-2.9.68-4.21a3.92,3.92,0,0,0-1.56-3.42c-2.07-1.49-5-.82-6.74.91-2.17,2.21-2.79,5.5-4.71,7.92a20.94,20.94,0,0,1-6.35,5.14c-5,2.78-10.63,4.24-16,6.12-2.65.92-5.93,1.79-7.67,4.16a5.72,5.72,0,0,0-.13,6.33c1.24,2.25,7.84,7.87,3.38,10.11-2,1-4.66.93-6.87,1.22-2.45.32-4.91.87-6.8,2.58-4.13,3.75-4,10.44-.85,14.73,3.61,4.94,10.3,7.67,16.3,7.84a13,13,0,0,0,8.47-2.52c2.52-2,3.7-5,5.77-7.41,6.65-7.65,20-8.22,27.35-1.24,4,3.83,5.79,10.77,12.1,11.5a6.77,6.77,0,0,0,6.34-2.36,5.27,5.27,0,0,0,.25-5.72c-2-3.48-6.57-4.4-9.38-7-1.44-1.36-2.17-3.29-.64-4.91a5.57,5.57,0,0,1,6.65-.89c5.33,3.1,5.92,10.73,8.41,15.78,1.32,2.68,3.48,5.62,6.5,6.49a4.61,4.61,0,0,0,6-4,29.37,29.37,0,0,0,.12-3.75c0-.47.51-3.47,1.56-3l-.69-.9c.85,6.18,7.49,8.74,12.9,9.58s12.53,0,16.81,4.24a6.41,6.41,0,0,1,1,1.33,6.69,6.69,0,0,1,.46.93c.24.62.24,0,.08.38a3.57,3.57,0,0,1-1.84,1.56c-1.91.92-4.07,1.2-6.08,1.82-1.76.55-3.67,1.34-4.5,3.11-1.43,3.05,1.45,6,3.09,8.26q15.61,21.66,32.75,42.18c1.35,1.62,2.72,3.24,4.08,4.85a26,26,0,0,0,4.12,4.27c2.41,1.79,6.17,2.81,8.11-.21.86-1.34.77-2.87,1.29-4.31.68-1.89,2.94-2.53,4.67-3.13,3.87-1.36,7.9-2.25,11.73-3.74,6.22-2.43,13-7.33,13.29-14.66.26-6-5.27-12.4-11.6-10.72-1.68.45-3.22,1.48-5,1.47a7.25,7.25,0,0,1-4.47-1.92A19,19,0,0,1,235,192c-.33-1-.83-2.53-.32-3.54.81-1.57,2.64-.16,3.47.62,2.67,2.54,5,5.07,8.23,7,6.45,3.91,13.63,4.64,21,5.17,6.73.48,14.32,1.08,19.08,6.5a14.81,14.81,0,0,1,2.78,4.82c.6,1.72,1.09,3.48,2.4,4.82a17.7,17.7,0,0,0,4.18,2.7,17.78,17.78,0,0,1,3.59,2.76c4.25,4.23,6.57,10,9.43,15.16a41.44,41.44,0,0,0,5,7.37,22.43,22.43,0,0,0,3.36,3.1c1.37,1,2.74.5,4-.51,2.23-1.78,3-4.91,2.93-7.64,0-3.55-2-7.75-.2-11.12a9.65,9.65,0,0,1,3.73-3.35c1.94-1.19,3.92-2.33,5.88-3.49l11.75-7,11.75-7c3.27-1.94,6.29-4.07,7.93-7.62a23.69,23.69,0,0,0,1.71-10.52c-.06-1.93-3.06-1.93-3,0,.15,5.13-.71,10.44-5.13,13.64-2.25,1.63-4.76,2.94-7.14,4.35L343.44,213l-15.83,9.37c-2,1.2-4.16,2.39-5.63,4.29a9.67,9.67,0,0,0-1.8,6.6c.14,2.63,1,5.21.86,7.85-.1,2-.77,4.48-2.93,5.1l1.16.15c-8.39-6-10.3-17.38-17-24.8a22.22,22.22,0,0,0-6-4.6,6.82,6.82,0,0,1-3.36-2.9c-.69-1.43-1-3-1.7-4.44-2.61-5.45-7.87-8.73-13.61-10.07s-11.76-1.16-17.61-1.94a30.19,30.19,0,0,1-16.63-7.48c-2-1.84-3.81-4.73-6.68-5.29a4.28,4.28,0,0,0-5,3.11c-1.23,4.83,2.94,10.25,6.19,13.34a10.85,10.85,0,0,0,7.24,3.38c2.82,0,5.35-2.27,8.16-1.66,2.53.55,4.41,2.93,5.12,5.32a9.09,9.09,0,0,1-1.68,7.84c-3.85,5.43-10.69,7.17-16.71,9-2.9.86-6.3,1.61-8.73,3.5A6.22,6.22,0,0,0,229,232c-.28,1.09-.19,3.19-1.5,3.63-1.14.38-2.61-.69-3.44-1.35a26.72,26.72,0,0,1-3.46-3.75q-3.73-4.39-7.39-8.84-7.05-8.56-13.85-17.34t-13.43-17.9c-1.13-1.55-2.26-3.11-3.37-4.67-.55-.78-1.71-2-1.32-3.06s2.18-1.44,3.14-1.72c3.18-.91,7.6-1.41,9.25-4.74,1-2.1-.52-4.5-2-6a14.47,14.47,0,0,0-6.22-3.47c-4.94-1.5-10.17-1-15.13-2.31a12.77,12.77,0,0,1-6.08-3.21,5.94,5.94,0,0,1-1.52-2.91,2.25,2.25,0,0,0-2.54-2c-2.51.08-4,2.88-4.28,5.07-.22,1.79.79,7-2.64,5.68-2.82-1.11-4.39-4.57-5.39-7.21s-1.8-5.54-3.05-8.17c-2.18-4.57-6.41-8.75-11.87-7.33-4.34,1.12-7.35,5.69-4.59,9.8,2.22,3.31,6.26,4.32,9.16,6.81,1.09.93,2,2.37.92,3.71-1.26,1.6-4.14,1.29-5.68.35-2.63-1.62-4-4.74-5.77-7.15a19.79,19.79,0,0,0-5.27-5.05A22.87,22.87,0,0,0,108,145.39a22.44,22.44,0,0,0-13,5A26.87,26.87,0,0,0,90,156.53c-1.78,2.69-4,4.48-7.31,4.8-5.54.54-12.54-2-15.79-6.66-2.83-4.07-2-10.59,3.27-12,3.85-1,9.42-.05,12.22-3.49,3.2-3.94-.56-8-3-11.11-1.11-1.42-2.44-3.32-.94-5A9.64,9.64,0,0,1,82.36,121c1.31-.49,2.62-.94,4-1.38,5.11-1.71,10.38-3.25,15.09-5.94a24.09,24.09,0,0,0,5.85-4.53c1.93-2.1,3-4.48,4.27-7,.59-1.15,1.35-2.44,2.75-2.64,1.56-.23,1.76.82,1.43,2.11-.65,2.55-.86,5,1.51,6.7a8,8,0,0,0,6.79,1c3-.9,5.46-3.24,8.61-3.56s6.37,1,9.59.55a9,9,0,0,0,6.38-4.19c1.34-1.92,2.25-4.74,4.36-6,1.24-.72,4-1.41,4.4.55a1.52,1.52,0,0,0,2.51.66l1-.81-1.82.23c2.1,1,4-.19,4.85-2.25,1-2.56-.51-4.45-1.46-6.72-2.21-5.25,6.43-5.61,9.48-6.31a9.34,9.34,0,0,0,5.7-3.25,6.41,6.41,0,0,0,.69-6.22c-2.08-5.21-7.67-6.57-12.74-5.84-5.35.77-13,4.37-17.48-.42a1.47,1.47,0,0,0-1.46-.39c-5.75,2.37-7.77,8.41-9.15,14-1.16,4.74-2.89,12.32-8.69,13.3-2.91.5-5.56-1.21-7.85-2.78-2.45-1.68-4.85-3.51-7.72-4.42s-7-.38-8.38-3.71a7.85,7.85,0,0,1,1.3-7.59c2.1-2.67,5.28-4.22,8.28-5.63,3.54-1.67,7.07-3.35,10.53-5.2a174.87,174.87,0,0,0,20-12.5c5.87-4.24,12.07-9.22,19.39-10.51a15.44,15.44,0,0,1,10.48,2c3,1.7,5.72,3.82,9,5,4.05,1.54,8.38.82,12.55,1.59,3,.55,5.61,2.32,6.13,5.55s-2.56,3.51-5.05,3.19c-3-.38-6-.94-8,1.83a1.5,1.5,0,0,0,.54,2.05c6.8,3.78,16.64,5.35,23.24.28a13.51,13.51,0,0,0,3.88-4.8c1-2.13,1.65-5,3.49-6.6.88-.77,3.57-1.76,4.41-.36q.19.33,0,.09a6.15,6.15,0,0,0-.19.95,7.63,7.63,0,0,0-.05,1.85,8,8,0,0,0,1.19,3.46A1.52,1.52,0,0,0,228,57a43.92,43.92,0,0,1,27-7.63c4.11.21,8.87,1.77,12.25-1.42,1.39-1.31,2.19-3.37,3.89-4.34a4.31,4.31,0,0,1,3.36-.23c4.89,1.34,10.19,7.46,15.6,4.79,3.44-1.69,3.84-5.61,3.51-9-.18-1.86-.66-3.78-.17-5.62.31-1.18,1.25-3.5,2.8-3.44,2.07.09,2.94,4.43,3.38,5.94A35.88,35.88,0,0,1,301,44.29a36.44,36.44,0,0,1-2.81,16.11,1.53,1.53,0,0,0,.54,2.05,47,47,0,0,1,20.54,20,45.74,45.74,0,0,1,4.67,13.64c.84,4.84,1.75,9.47,6.24,12.24,3.72,2.3,8.25,2.7,12.4,3.74a19.42,19.42,0,0,1,11,6.91c6.63,8.49,6.66,19.67,6.29,29.91-.25,6.93-.41,13.76.66,20.63s2.91,13.71,3.2,20.73C363.72,192.21,366.72,192.22,366.63,190.29Z" transform="translate(-34.41 -27.15)"/><path class="cls-1" d="M245.83,153.35c-1.1.71-2.45.89-3.56,1.59a3.52,3.52,0,0,0-1.72,3.5,7,7,0,0,0,1.83,3.29c.69.86,1.32,1.39,0,1.74-3.19.8-8-.21-8.4-4.19-.16-1.7.92-3.33,1.37-4.91a5.79,5.79,0,0,0-.47-4.76,9,9,0,0,0-3.79-3c-1.35-.67-3.21-1.35-3.83-2.87s1.73-3,2.66-3.89a28,28,0,0,1,4.36-3.47,11.74,11.74,0,0,1,4.8-1.81c1.3-.15,3.31-.05,4.08,1.24a1.29,1.29,0,0,1-.07,1.41c-.41.62-.66.3-1.3.39a4.75,4.75,0,0,0-2.43,1.79c-2,2.76-2.61,8.43,1.06,10.22a6.59,6.59,0,0,0,2.71.53,4.65,4.65,0,0,1,2.51.35,2,2,0,0,1-.08,3.07c-1.52,1.19.62,3.3,2.12,2.12a4.79,4.79,0,0,0,1.49-4.9,4.64,4.64,0,0,0-4.15-3.55c-1-.12-2.35.17-3.26-.31s-1-1.92-1-2.84a5.13,5.13,0,0,1,.34-1.68,6.29,6.29,0,0,1,.32-.7s.58-1,.28-.55.28-.21.44-.33l.61-.46-1.16.15c2.8.7,5.09-2.07,4.69-4.75-.46-3-3.91-4.36-6.63-4.25a15.67,15.67,0,0,0-8.83,3.62,43.15,43.15,0,0,0-3.75,3.28c-1.14,1.1-2.49,2.24-2.86,3.86-.75,3.32,2.49,5.53,5,6.77,1.16.57,2.86,1.25,3.3,2.6s-.56,3.13-1,4.45a7.49,7.49,0,0,0,2.17,8.47,10.73,10.73,0,0,0,9.48,1.79,3.67,3.67,0,0,0,3.06-3,4.82,4.82,0,0,0-1.44-3.47c-.4-.51-1.59-1.58-1.13-2.28.28-.42,1.21-.6,1.64-.75a10.56,10.56,0,0,0,2.08-.95C249,154.9,247.46,152.3,245.83,153.35Z" transform="translate(-34.41 -27.15)"/><path class="cls-2" d="M196.64,174.92a14.16,14.16,0,0,0-14.23-5.7,15.4,15.4,0,0,0-11.36,10.5,12.77,12.77,0,0,0-.35,6.43,16,16,0,0,0,2.93,5.95,14.07,14.07,0,0,0,4.75,4.4,12.81,12.81,0,0,0,9,.55,16.83,16.83,0,0,0,10.57-7.64c2.19-3.89,2.24-9.08-.42-12.67" transform="translate(-34.41 -27.15)"/><path class="cls-2" d="M197.93,174.17a15.79,15.79,0,0,0-15.75-6.42,16.84,16.84,0,0,0-12.58,11.59,14.2,14.2,0,0,0,.76,10.33,18.78,18.78,0,0,0,6.54,7.74c5.63,3.5,13.49,1.24,18.33-2.63,5.51-4.41,7.84-12.72,3.53-18.78-1.11-1.56-3.71-.06-2.59,1.51,3.09,4.35,2,10.21-1.64,13.87s-9.73,6-14.62,4.17c-2.54-.93-4.4-3.19-5.83-5.4a11.54,11.54,0,0,1-2-8.21,14,14,0,0,1,9-10.8,12.67,12.67,0,0,1,14.27,4.54C196.44,177.25,199,175.75,197.93,174.17Z" transform="translate(-34.41 -27.15)"/><path class="cls-2" d="M314.85,253.23h-2.58v4.3c0,.26,0,.53,0,.8a2.64,2.64,0,0,0,.14.7,1.1,1.1,0,0,0,1.2.68,3.68,3.68,0,0,0,.66-.06,2,2,0,0,0,.62-.22v1.64a2.21,2.21,0,0,1-.84.24,5.68,5.68,0,0,1-.78.08,3.93,3.93,0,0,1-1.62-.28,2.23,2.23,0,0,1-.84-.76,2.71,2.71,0,0,1-.32-1c0-.39,0-.78,0-1.16v-4.94h-2.08v-1.56h2.08V249h1.8v2.66h2.58Zm-12.48-1.56h1.8v1.46h0a2.33,2.33,0,0,1,.48-.68,2.79,2.79,0,0,1,.66-.54,3.46,3.46,0,0,1,.82-.34,2.74,2.74,0,0,1,.88-.14,2.49,2.49,0,0,1,.8.12l-.08,1.94a3.13,3.13,0,0,0-.44-.1,2.12,2.12,0,0,0-.44,0,2.63,2.63,0,0,0-2,.74,3.28,3.28,0,0,0-.7,2.3v4.76h-1.8Zm-4.07,4a3.47,3.47,0,0,0-.2-1.1,2.17,2.17,0,0,0-.5-.86,2.08,2.08,0,0,0-.86-.58,2.86,2.86,0,0,0-1.18-.22,3,3,0,0,0-2.14.9,3.08,3.08,0,0,0-.6.9,2.54,2.54,0,0,0-.2,1Zm-5.68,1.44a2.58,2.58,0,0,0,.26,1.14,3.14,3.14,0,0,0,.72.86,3.35,3.35,0,0,0,1,.56,3.78,3.78,0,0,0,1.2.2,2.76,2.76,0,0,0,1.46-.38,5.27,5.27,0,0,0,1.14-1l1.36,1a5,5,0,0,1-4.2,1.94,5.33,5.33,0,0,1-2-.38,4.76,4.76,0,0,1-1.54-1,5.07,5.07,0,0,1-1-1.58,5.64,5.64,0,0,1-.34-2,5.22,5.22,0,0,1,.36-2,4.78,4.78,0,0,1,1-1.58,4.55,4.55,0,0,1,1.56-1.06,4.86,4.86,0,0,1,2-.38,4.53,4.53,0,0,1,2.12.44,4,4,0,0,1,1.44,1.16,4.31,4.31,0,0,1,.8,1.6,6.37,6.37,0,0,1,.26,1.8v.64Zm-5.21-3a2.46,2.46,0,0,0-.8-.66,2.09,2.09,0,0,0-1.14-.28,2.17,2.17,0,0,0-1.12.28.85.85,0,0,0-.46.78.94.94,0,0,0,.26.68,2.53,2.53,0,0,0,.64.42,5.29,5.29,0,0,0,.8.24l.72.14a6.51,6.51,0,0,1,1.08.34,2.63,2.63,0,0,1,.88.52,2,2,0,0,1,.58.78,2.51,2.51,0,0,1,.22,1.12,2.67,2.67,0,0,1-.34,1.38,2.86,2.86,0,0,1-.88.92,3.74,3.74,0,0,1-1.24.52,6.35,6.35,0,0,1-1.38.16,5.6,5.6,0,0,1-2.08-.36,3.8,3.8,0,0,1-1.58-1.32l1.36-1.12a6.22,6.22,0,0,0,1,.78,2.49,2.49,0,0,0,1.32.34,3.82,3.82,0,0,0,.68-.06,2.79,2.79,0,0,0,.62-.22,1.39,1.39,0,0,0,.44-.38.88.88,0,0,0,.18-.54.86.86,0,0,0-.26-.66,1.48,1.48,0,0,0-.6-.4,2.79,2.79,0,0,0-.74-.24c-.25-.07-.48-.12-.68-.16-.38-.1-.75-.2-1.1-.32a3.49,3.49,0,0,1-.92-.48,2.36,2.36,0,0,1-.64-.76,2.46,2.46,0,0,1-.24-1.14,2.58,2.58,0,0,1,.3-1.28,2.92,2.92,0,0,1,.82-.92,4,4,0,0,1,1.16-.54,5,5,0,0,1,1.32-.18,4.79,4.79,0,0,1,1.84.36,2.87,2.87,0,0,1,1.4,1.2Zm-9.11,1.58a3.47,3.47,0,0,0-.2-1.1,2.17,2.17,0,0,0-.5-.86,2.08,2.08,0,0,0-.86-.58,2.86,2.86,0,0,0-1.18-.22,3,3,0,0,0-2.14.9,3.08,3.08,0,0,0-.6.9,2.54,2.54,0,0,0-.2,1Zm-5.68,1.44a2.58,2.58,0,0,0,.26,1.14,3.14,3.14,0,0,0,.72.86,3.35,3.35,0,0,0,1,.56,3.78,3.78,0,0,0,1.2.2,2.76,2.76,0,0,0,1.46-.38,5.27,5.27,0,0,0,1.14-1l1.36,1a5,5,0,0,1-4.2,1.94,5.33,5.33,0,0,1-2-.38,4.76,4.76,0,0,1-1.54-1,5.07,5.07,0,0,1-1-1.58,5.64,5.64,0,0,1-.34-2,5.22,5.22,0,0,1,.36-2,4.78,4.78,0,0,1,1-1.58,4.55,4.55,0,0,1,1.56-1.06,4.86,4.86,0,0,1,2-.38,4.53,4.53,0,0,1,2.12.44,4,4,0,0,1,1.44,1.16,4.31,4.31,0,0,1,.8,1.6,6.37,6.37,0,0,1,.26,1.8v.64Zm-9,2.64a3.35,3.35,0,0,0,1.3-.24,3.06,3.06,0,0,0,1-.68,3,3,0,0,0,.62-1,3.92,3.92,0,0,0,.22-1.34,3.73,3.73,0,0,0-.22-1.32,2.7,2.7,0,0,0-.62-1,2.54,2.54,0,0,0-1-.68,3,3,0,0,0-1.3-.26,3.05,3.05,0,0,0-1.3.26,2.7,2.7,0,0,0-1,.68,3,3,0,0,0-.62,1,4,4,0,0,0-.22,1.32,4.18,4.18,0,0,0,.22,1.34,3.38,3.38,0,0,0,.62,1,3.3,3.3,0,0,0,1,.68A3.38,3.38,0,0,0,263.61,259.71Zm4.92,1.44h-1.8v-1.36h0a3.39,3.39,0,0,1-1.44,1.18,4.35,4.35,0,0,1-1.86.42,5.17,5.17,0,0,1-2-.38,4.78,4.78,0,0,1-1.52-1.06,5.07,5.07,0,0,1-1-1.58,5.82,5.82,0,0,1,0-3.92,4.65,4.65,0,0,1,1-1.58,4.48,4.48,0,0,1,1.52-1.06,5,5,0,0,1,2-.38,4.23,4.23,0,0,1,1.92.44,3.17,3.17,0,0,1,1.38,1.16h0v-7h1.8Zm-20.15-12.88a1.26,1.26,0,0,1,.38-.92,1.28,1.28,0,0,1,.94-.4,1.37,1.37,0,0,1,1.32,1.32,1.28,1.28,0,0,1-.4.94,1.26,1.26,0,0,1-.92.38,1.3,1.3,0,0,1-1.32-1.32Zm.42,3.4h1.8v9.48h-1.8Zm-5.39,4.92a9.94,9.94,0,0,0-1.32.08,4.63,4.63,0,0,0-1.22.26,2.42,2.42,0,0,0-.9.56,1.26,1.26,0,0,0-.34.92,1.32,1.32,0,0,0,.54,1.18,2.73,2.73,0,0,0,1.5.36,3,3,0,0,0,1.26-.24,2.45,2.45,0,0,0,1.3-1.54,3.8,3.8,0,0,0,.14-1v-.6Zm-5.08-3.76a4.75,4.75,0,0,1,1.76-1,5.87,5.87,0,0,1,2-.36,5.22,5.22,0,0,1,1.78.26,3.3,3.3,0,0,1,1.24.7,2.63,2.63,0,0,1,.7,1,2.93,2.93,0,0,1,.24,1.18v4.84c0,.33,0,.64,0,.92s0,.54.06.8h-1.6q-.06-.72-.06-1.44h0A3.5,3.5,0,0,1,243,261a4.54,4.54,0,0,1-1.9.38,4.36,4.36,0,0,1-1.26-.18,3.22,3.22,0,0,1-1.06-.54,2.73,2.73,0,0,1-.7-.88,2.89,2.89,0,0,1-.26-1.24,2.73,2.73,0,0,1,.4-1.54,3,3,0,0,1,1.12-1,4.93,4.93,0,0,1,1.66-.56,11.06,11.06,0,0,1,2-.18h1.32v-.4a2,2,0,0,0-.14-.72,1.7,1.7,0,0,0-.42-.64,1.78,1.78,0,0,0-.7-.46,2.52,2.52,0,0,0-1-.18,3.65,3.65,0,0,0-.92.1,3.07,3.07,0,0,0-.7.26,2.39,2.39,0,0,0-.58.34l-.5.38Zm-11.15-1.16H229v1.46h0a2.53,2.53,0,0,1,1.18-1.22,4.08,4.08,0,0,1,3.24-.26,2.71,2.71,0,0,1,1.1.64,3,3,0,0,1,.76,1.14,4.35,4.35,0,0,1,.28,1.62v6.1h-1.8v-5.6a3.06,3.06,0,0,0-.18-1.12,1.91,1.91,0,0,0-.48-.76,1.69,1.69,0,0,0-.7-.42,2.18,2.18,0,0,0-.8-.14,2.91,2.91,0,0,0-1,.18,2.09,2.09,0,0,0-.84.58,2.52,2.52,0,0,0-.56,1,4.31,4.31,0,0,0-.2,1.42v4.88h-1.8Zm-5.09-3.4a1.26,1.26,0,0,1,.38-.92,1.28,1.28,0,0,1,.94-.4,1.37,1.37,0,0,1,1.32,1.32,1.28,1.28,0,0,1-.4.94,1.26,1.26,0,0,1-.92.38,1.3,1.3,0,0,1-1.32-1.32Zm.42,3.4h1.8v9.48h-1.8Zm-10.37,6.52a3.33,3.33,0,0,0,1.32,1.16,4.16,4.16,0,0,0,1.68.36,3.74,3.74,0,0,0,1-.14,3.19,3.19,0,0,0,.9-.46,2.4,2.4,0,0,0,.68-.74,2,2,0,0,0,.26-1,1.49,1.49,0,0,0-.52-1.24,4,4,0,0,0-1.3-.72,17.39,17.39,0,0,0-1.68-.56,7.51,7.51,0,0,1-1.68-.76,4.22,4.22,0,0,1-1.28-1.28,4,4,0,0,1-.52-2.2,3.82,3.82,0,0,1,.26-1.32,3.71,3.71,0,0,1,.86-1.28,4.51,4.51,0,0,1,1.48-1,5.44,5.44,0,0,1,2.2-.4A7.45,7.45,0,0,1,218,247a3.72,3.72,0,0,1,1.86,1.3l-1.56,1.42a2.49,2.49,0,0,0-1-.9,3.19,3.19,0,0,0-1.5-.34,3.51,3.51,0,0,0-1.34.22,2.11,2.11,0,0,0-.84.54,1.85,1.85,0,0,0-.46.7,2.29,2.29,0,0,0-.12.7,1.77,1.77,0,0,0,.52,1.38,4.06,4.06,0,0,0,1.28.78,16.59,16.59,0,0,0,1.68.54,6.57,6.57,0,0,1,1.68.68,3.7,3.7,0,0,1,1.3,1.16,3.33,3.33,0,0,1,.52,2,4.11,4.11,0,0,1-.4,1.84,4.06,4.06,0,0,1-1,1.38,4.72,4.72,0,0,1-1.56.86,6,6,0,0,1-1.92.3,7,7,0,0,1-2.58-.48,4.31,4.31,0,0,1-1.94-1.48Zm114.92-33h-2.58v4.3c0,.26,0,.53,0,.8a2.64,2.64,0,0,0,.14.7,1.1,1.1,0,0,0,1.2.68,3.77,3.77,0,0,0,.66-.06,2.08,2.08,0,0,0,.62-.22v1.64a2.21,2.21,0,0,1-.84.24,5.68,5.68,0,0,1-.78.08,3.93,3.93,0,0,1-1.62-.28,2.23,2.23,0,0,1-.84-.76,2.71,2.71,0,0,1-.32-1c0-.39,0-.78,0-1.16v-4.94H320.6v-1.56h2.08V221h1.8v2.66h2.58Zm-12.48-1.56h1.8v1.46h0a2.33,2.33,0,0,1,.48-.68,2.79,2.79,0,0,1,.66-.54,3.3,3.3,0,0,1,.82-.34,2.7,2.7,0,0,1,.88-.14,2.53,2.53,0,0,1,.8.12l-.08,1.94a3.48,3.48,0,0,0-.44-.1,2.18,2.18,0,0,0-.44,0,2.63,2.63,0,0,0-2,.74,3.23,3.23,0,0,0-.7,2.3v4.76h-1.8Zm-4.07,4a3.77,3.77,0,0,0-.2-1.1,2.3,2.3,0,0,0-.5-.86,2.15,2.15,0,0,0-.86-.58,2.89,2.89,0,0,0-1.18-.22,3,3,0,0,0-2.74,1.8,2.36,2.36,0,0,0-.2,1Zm-5.68,1.44a2.45,2.45,0,0,0,.26,1.14,2.83,2.83,0,0,0,.72.86,3.35,3.35,0,0,0,1,.56,3.68,3.68,0,0,0,1.2.2,2.79,2.79,0,0,0,1.46-.38,5.27,5.27,0,0,0,1.14-1l1.36,1a5,5,0,0,1-4.2,1.94,5.33,5.33,0,0,1-2-.38,4.65,4.65,0,0,1-1.54-1,4.72,4.72,0,0,1-1-1.58,5.64,5.64,0,0,1-.34-2,5.22,5.22,0,0,1,.36-2,4.78,4.78,0,0,1,1-1.58,4.55,4.55,0,0,1,1.56-1.06,4.86,4.86,0,0,1,2-.38,4.55,4.55,0,0,1,2.12.44,4.22,4.22,0,0,1,1.44,1.16,4.31,4.31,0,0,1,.8,1.6,6.37,6.37,0,0,1,.26,1.8v.64Zm-5.21-3a2.46,2.46,0,0,0-.8-.66,2.42,2.42,0,0,0-2.26,0,.83.83,0,0,0-.46.78.94.94,0,0,0,.26.68,2.53,2.53,0,0,0,.64.42,5,5,0,0,0,.8.24l.72.14a6.51,6.51,0,0,1,1.08.34,2.63,2.63,0,0,1,.88.52,2,2,0,0,1,.58.78,2.51,2.51,0,0,1,.22,1.12,2.67,2.67,0,0,1-.34,1.38,3,3,0,0,1-.88.92,3.74,3.74,0,0,1-1.24.52,6.35,6.35,0,0,1-1.38.16,5.56,5.56,0,0,1-2.08-.36,3.74,3.74,0,0,1-1.58-1.32l1.36-1.12a5.79,5.79,0,0,0,1,.78,2.49,2.49,0,0,0,1.32.34,3.91,3.91,0,0,0,.68-.06,2.79,2.79,0,0,0,.62-.22,1.51,1.51,0,0,0,.44-.38.88.88,0,0,0,.18-.54.9.9,0,0,0-.26-.66,1.48,1.48,0,0,0-.6-.4,2.92,2.92,0,0,0-.74-.24c-.25-.07-.48-.12-.68-.16-.39-.1-.75-.2-1.1-.32a3.34,3.34,0,0,1-.92-.48,2.24,2.24,0,0,1-.64-.76,2.46,2.46,0,0,1-.24-1.14,2.58,2.58,0,0,1,.3-1.28,2.8,2.8,0,0,1,.82-.92,3.85,3.85,0,0,1,1.16-.54,5,5,0,0,1,1.32-.18,4.83,4.83,0,0,1,1.84.36A2.91,2.91,0,0,1,301,225Zm-9.11,1.58a3.77,3.77,0,0,0-.2-1.1,2.3,2.3,0,0,0-.5-.86,2.15,2.15,0,0,0-.86-.58,2.89,2.89,0,0,0-1.18-.22,3,3,0,0,0-2.74,1.8,2.36,2.36,0,0,0-.2,1Zm-5.68,1.44a2.45,2.45,0,0,0,.26,1.14,2.83,2.83,0,0,0,.72.86,3.35,3.35,0,0,0,1,.56,3.68,3.68,0,0,0,1.2.2,2.79,2.79,0,0,0,1.46-.38,5.27,5.27,0,0,0,1.14-1l1.36,1a5,5,0,0,1-4.2,1.94,5.33,5.33,0,0,1-2-.38,4.65,4.65,0,0,1-1.54-1,4.72,4.72,0,0,1-1-1.58,5.64,5.64,0,0,1-.34-2,5.22,5.22,0,0,1,.36-2,4.78,4.78,0,0,1,1-1.58,4.55,4.55,0,0,1,1.56-1.06,4.86,4.86,0,0,1,2-.38,4.55,4.55,0,0,1,2.12.44,4.22,4.22,0,0,1,1.44,1.16,4.31,4.31,0,0,1,.8,1.6,6.37,6.37,0,0,1,.26,1.8v.64Zm-9,2.64a3.38,3.38,0,0,0,1.3-.24,2.84,2.84,0,0,0,1.6-1.72,3.92,3.92,0,0,0,.22-1.34,3.73,3.73,0,0,0-.22-1.32,2.83,2.83,0,0,0-.62-1,2.62,2.62,0,0,0-1-.68,3.38,3.38,0,0,0-2.6,0,2.62,2.62,0,0,0-1,.68,2.83,2.83,0,0,0-.62,1,3.73,3.73,0,0,0-.22,1.32,3.92,3.92,0,0,0,.22,1.34,2.84,2.84,0,0,0,1.6,1.72A3.38,3.38,0,0,0,275.82,231.71Zm4.92,1.44h-1.8v-1.36h0a3.51,3.51,0,0,1-1.44,1.18,4.35,4.35,0,0,1-1.86.42,5.17,5.17,0,0,1-2-.38,4.67,4.67,0,0,1-1.52-1.06,5.07,5.07,0,0,1-1-1.58,5.82,5.82,0,0,1,0-3.92,4.65,4.65,0,0,1,1-1.58,4.39,4.39,0,0,1,1.52-1.06,5,5,0,0,1,2-.38,4.23,4.23,0,0,1,1.92.44A3.17,3.17,0,0,1,278.9,225h0v-7h1.8Zm-26.21-9.48h2.08l2.84,7.26,2.72-7.26h1.92l-3.72,9.48h-2Zm-2.93,4a3.47,3.47,0,0,0-.2-1.1,2.17,2.17,0,0,0-.5-.86,2.08,2.08,0,0,0-.86-.58,2.86,2.86,0,0,0-1.18-.22,3,3,0,0,0-2.14.9,3.08,3.08,0,0,0-.6.9,2.54,2.54,0,0,0-.2,1Zm-5.68,1.44a2.58,2.58,0,0,0,.26,1.14,3.14,3.14,0,0,0,.72.86,3.35,3.35,0,0,0,1,.56,3.78,3.78,0,0,0,1.2.2,2.76,2.76,0,0,0,1.46-.38,5.27,5.27,0,0,0,1.14-1l1.36,1a5,5,0,0,1-4.2,1.94,5.33,5.33,0,0,1-2-.38,4.76,4.76,0,0,1-1.54-1,5.07,5.07,0,0,1-1-1.58,5.64,5.64,0,0,1-.34-2,5.22,5.22,0,0,1,.36-2,4.78,4.78,0,0,1,1-1.58,4.55,4.55,0,0,1,1.56-1.06,4.86,4.86,0,0,1,2-.38,4.53,4.53,0,0,1,2.12.44,4,4,0,0,1,1.44,1.16,4.31,4.31,0,0,1,.8,1.6,6.37,6.37,0,0,1,.26,1.8v.64Zm-9-4a3.05,3.05,0,0,0-1.3.26,2.7,2.7,0,0,0-1,.68,3,3,0,0,0-.62,1,4,4,0,0,0-.22,1.32,3.23,3.23,0,0,0,.84,2.32,3.45,3.45,0,0,0,4.56,0,3.23,3.23,0,0,0,.84-2.32,3.73,3.73,0,0,0-.22-1.32,2.7,2.7,0,0,0-.62-1,2.54,2.54,0,0,0-1-.68A3,3,0,0,0,236.91,225.11Zm4.92,8a4.79,4.79,0,0,1-.38,2,4.2,4.2,0,0,1-1,1.54,4.65,4.65,0,0,1-1.64,1,6,6,0,0,1-2.12.36,8,8,0,0,1-2.5-.38,6.29,6.29,0,0,1-2.14-1.32l1.22-1.52a5.18,5.18,0,0,0,1.52,1.14,4.3,4.3,0,0,0,1.86.4,4,4,0,0,0,1.66-.3,2.75,2.75,0,0,0,1-.74,2.53,2.53,0,0,0,.56-1.06A4.3,4.3,0,0,0,240,233v-1.4H240a3.2,3.2,0,0,1-1.42,1.28,4.5,4.5,0,0,1-1.86.4,4.7,4.7,0,0,1-3.46-1.38,5,5,0,0,1-1-1.54,5.19,5.19,0,0,1-.36-1.94,5.57,5.57,0,0,1,.34-1.94,4.84,4.84,0,0,1,1-1.6,4.48,4.48,0,0,1,1.52-1.06,5,5,0,0,1,2-.38,4.35,4.35,0,0,1,1.86.42A3.32,3.32,0,0,1,240,225h0v-1.36h1.8Zm-13.57-5.44a3.47,3.47,0,0,0-.2-1.1,2.17,2.17,0,0,0-.5-.86,2.08,2.08,0,0,0-.86-.58,2.86,2.86,0,0,0-1.18-.22,3,3,0,0,0-2.14.9,3.08,3.08,0,0,0-.6.9,2.54,2.54,0,0,0-.2,1Zm-5.68,1.44a2.58,2.58,0,0,0,.26,1.14,3.14,3.14,0,0,0,.72.86,3.35,3.35,0,0,0,1,.56,3.78,3.78,0,0,0,1.2.2,2.76,2.76,0,0,0,1.46-.38,5.27,5.27,0,0,0,1.14-1l1.36,1a5,5,0,0,1-4.2,1.94,5.33,5.33,0,0,1-2-.38,4.76,4.76,0,0,1-1.54-1,5.07,5.07,0,0,1-1-1.58,5.64,5.64,0,0,1-.34-2,5.22,5.22,0,0,1,.36-2,4.78,4.78,0,0,1,1-1.58,4.55,4.55,0,0,1,1.56-1.06,4.86,4.86,0,0,1,2-.38,4.53,4.53,0,0,1,2.12.44,4,4,0,0,1,1.44,1.16,4.31,4.31,0,0,1,.8,1.6,6.37,6.37,0,0,1,.26,1.8v.64ZM205.76,219h2.52l7.8,11.64h0V219H218v14.16H215.6l-7.88-11.64h0v11.64h-1.92Z" transform="translate(-34.41 -27.15)"/><path class="cls-3" d="M203.62,257.15H198.7v-1.68h4.92ZM192,253.83h-2.64v3.24c0,.26,0,.51,0,.74a1.6,1.6,0,0,0,.18.56,1.11,1.11,0,0,0,.42.38,2.13,2.13,0,0,0,.78.12c.16,0,.37,0,.62,0a1.11,1.11,0,0,0,.6-.24v2.5a4.5,4.5,0,0,1-1,.24,9.55,9.55,0,0,1-1.06.06,6.18,6.18,0,0,1-1.4-.16,3.57,3.57,0,0,1-1.12-.5,2.63,2.63,0,0,1-.76-.92,3.3,3.3,0,0,1-.26-1.36v-4.62h-1.92v-2.4h1.92v-2.88h3v2.88H192Zm-16.17,2.46a2.53,2.53,0,0,0,.62,1.78,2.33,2.33,0,0,0,1.78.68,2.28,2.28,0,0,0,1.76-.68,2.54,2.54,0,0,0,.64-1.78,2.5,2.5,0,0,0-.64-1.78,2.25,2.25,0,0,0-1.76-.68,2.29,2.29,0,0,0-1.78.68A2.49,2.49,0,0,0,175.8,256.29ZM173,251.43h2.76v1.28h0a2.73,2.73,0,0,1,.46-.52,3.15,3.15,0,0,1,.68-.5,3.89,3.89,0,0,1,.86-.36,3.1,3.1,0,0,1,1-.14,4.79,4.79,0,0,1,2,.38,4.13,4.13,0,0,1,1.5,1,4.54,4.54,0,0,1,1,1.58,5.9,5.9,0,0,1,.34,2,6.15,6.15,0,0,1-.32,2,5.29,5.29,0,0,1-.88,1.64A4.55,4.55,0,0,1,181,261a4,4,0,0,1-1.86.42,5.55,5.55,0,0,1-1.76-.28,2.85,2.85,0,0,1-1.32-1h0v5.6h-3Zm-5.8,11.3c-.2.52-.39,1-.58,1.38a3,3,0,0,1-.72,1,2.6,2.6,0,0,1-1.08.62,5.85,5.85,0,0,1-1.74.22,7.05,7.05,0,0,1-2.24-.36l.4-2.46a3.46,3.46,0,0,0,1.4.3,2.33,2.33,0,0,0,.82-.12A1.18,1.18,0,0,0,164,263a1.53,1.53,0,0,0,.36-.5c.1-.2.2-.44.3-.7l.22-.56-4.26-9.8h3.24l2.5,6.42h0l2.14-6.42h3.08Zm-15.56-6.5a2.43,2.43,0,0,0,.18.92,2.94,2.94,0,0,0,.5.76,3.53,3.53,0,0,0,.76.52,2.4,2.4,0,0,0,1,.2,2.25,2.25,0,0,0,.93-.2,2.62,2.62,0,0,0,.76-.52,2.4,2.4,0,0,0,.52-.76,2.44,2.44,0,0,0,.19-.92,2.27,2.27,0,0,0-.19-.9,2,2,0,0,0-.52-.76A2.19,2.19,0,0,0,155,254a2.1,2.1,0,0,0-.93-.2,2.25,2.25,0,0,0-1,.2,2.79,2.79,0,0,0-.76.54,2.39,2.39,0,0,0-.5.76A2.26,2.26,0,0,0,151.68,256.23Zm7.56,4.1a5.73,5.73,0,0,1-1.39,4.18,5.63,5.63,0,0,1-4.23,1.44,10.91,10.91,0,0,1-2.55-.3,5.79,5.79,0,0,1-2.33-1.12l1.66-2.48a7,7,0,0,0,1.46.92,4.35,4.35,0,0,0,1.71.34,2.68,2.68,0,0,0,2-.68,2.34,2.34,0,0,0,.65-1.7V260h0a3,3,0,0,1-1.31,1,4.26,4.26,0,0,1-1.43.28,5.16,5.16,0,0,1-2-.36,4.73,4.73,0,0,1-1.51-1,4.9,4.9,0,0,1-1-1.6,6,6,0,0,1-.34-2,5.75,5.75,0,0,1,.31-1.88,5.24,5.24,0,0,1,.87-1.62,4.47,4.47,0,0,1,1.4-1.12,3.81,3.81,0,0,1,1.86-.44,4.15,4.15,0,0,1,1.16.14,4,4,0,0,1,1,.36,3.24,3.24,0,0,1,.73.5,2.87,2.87,0,0,1,.48.52h0v-1.28h2.75ZM137,247h9.62v2.88h-6.5v2.64h6.14v2.88h-6.14v2.88h6.86v2.88H137Zm60.72-17.84h-4.92v-1.68h4.92ZM182,218h3v15.12h-3Zm-4.86,9.16a1.73,1.73,0,0,0-.5-1.3,1.78,1.78,0,0,0-1.34-.54,2.19,2.19,0,0,0-.88.16,2.06,2.06,0,0,0-.66.42,1.8,1.8,0,0,0-.58,1.26Zm2.54,4.28a4.91,4.91,0,0,1-1.82,1.42,5.48,5.48,0,0,1-2.28.5,6.21,6.21,0,0,1-2.12-.36,5.3,5.3,0,0,1-1.72-1,5,5,0,0,1-1.56-3.72,5,5,0,0,1,.42-2.1,4.76,4.76,0,0,1,1.14-1.6,5,5,0,0,1,1.72-1,6.21,6.21,0,0,1,2.12-.36,4.74,4.74,0,0,1,1.88.36,3.76,3.76,0,0,1,1.44,1,4.42,4.42,0,0,1,.92,1.6,6.52,6.52,0,0,1,.32,2.1v.94h-7a2.44,2.44,0,0,0,.78,1.38,2.25,2.25,0,0,0,1.48.5,2.28,2.28,0,0,0,1.24-.32,3.5,3.5,0,0,0,.9-.86Zm-14.58-2.58c-.23,0-.52,0-.86,0a3.59,3.59,0,0,0-1,.16,2.11,2.11,0,0,0-.8.42.94.94,0,0,0-.32.78.86.86,0,0,0,.46.8,1.92,1.92,0,0,0,1,.26,2.94,2.94,0,0,0,.84-.12,2.79,2.79,0,0,0,.74-.34,1.67,1.67,0,0,0,.5-.56,1.61,1.61,0,0,0,.2-.8v-.64Zm.74,3h0a2.86,2.86,0,0,1-1.34,1.12,4.65,4.65,0,0,1-1.74.34,4.44,4.44,0,0,1-1.32-.2,3.18,3.18,0,0,1-1.1-.56,2.77,2.77,0,0,1-.76-.94,2.86,2.86,0,0,1-.28-1.3,3,3,0,0,1,.3-1.42,2.78,2.78,0,0,1,.84-1,3.82,3.82,0,0,1,1.22-.58,7.3,7.3,0,0,1,1.4-.32,12.14,12.14,0,0,1,1.46-.12c.49,0,.94,0,1.36,0a1.52,1.52,0,0,0-.58-1.26,2,2,0,0,0-1.34-.48,2.81,2.81,0,0,0-1.36.32,3.59,3.59,0,0,0-1.08.84l-1.6-1.64a5.31,5.31,0,0,1,2-1.16,6.74,6.74,0,0,1,2.32-.4,5.75,5.75,0,0,1,2.16.34,3,3,0,0,1,1.36,1,3.78,3.78,0,0,1,.72,1.58,10.32,10.32,0,0,1,.2,2.14v4.94h-2.76Zm-14.25-8.5h3V225h0a3.57,3.57,0,0,1,1.14-1.34,2.83,2.83,0,0,1,1.66-.46,4.43,4.43,0,0,1,.52,0,2.18,2.18,0,0,1,.48.08V226a2.82,2.82,0,0,0-.64-.14,3.79,3.79,0,0,0-2,.18,1.84,1.84,0,0,0-.78.68,2.73,2.73,0,0,0-.34,1,10.64,10.64,0,0,0-.08,1.32v4.06h-3Zm-3.75,2.86a2.11,2.11,0,0,0-1.74-.82,1.62,1.62,0,0,0-.74.18.63.63,0,0,0-.36.62.58.58,0,0,0,.36.54,8.15,8.15,0,0,0,.94.3c.38.08.79.17,1.22.28a4,4,0,0,1,1.22.46,2.56,2.56,0,0,1,.94.88,2.5,2.5,0,0,1,.38,1.46,2.75,2.75,0,0,1-.42,1.56,3.36,3.36,0,0,1-1,1,4.72,4.72,0,0,1-1.44.5,8.64,8.64,0,0,1-1.58.16,8.17,8.17,0,0,1-2.06-.28,3.92,3.92,0,0,1-1.76-1l1.82-2a3.27,3.27,0,0,0,.92.8,2.65,2.65,0,0,0,1.2.26,3.09,3.09,0,0,0,.94-.14.58.58,0,0,0,.42-.56.59.59,0,0,0-.38-.56,3.22,3.22,0,0,0-.94-.32c-.38-.1-.78-.19-1.22-.28a5.58,5.58,0,0,1-1.22-.46,2.61,2.61,0,0,1-.94-.84,2.73,2.73,0,0,1-.36-1.48,3,3,0,0,1,.34-1.48,3,3,0,0,1,.92-1,3.77,3.77,0,0,1,1.32-.58,5.42,5.42,0,0,1,1.5-.2,7,7,0,0,1,1.94.28,3.59,3.59,0,0,1,1.66,1ZM136.79,219h3.12v14.16h-3.12Z" transform="translate(-34.41 -27.15)"/></svg>