<svg id="Layer_2" data-name="Layer 2" xmlns="http://www.w3.org/2000/svg" viewBox="0 0 600.65 573.65"><defs><style>.cls-1{fill:#fff;}.cls-2{fill:#020202;}.cls-3{fill:#1e00ff;}</style></defs><path class="cls-1" d="M504.87,430.06c0-4.55,5.21-6.12,8.81-6.79a71.83,71.83,0,0,0,14-4c9.1-3.71,18-8.07,26.73-12.5,17.77-9,35.05-18.92,52.07-29.25s33.77-21.11,50.63-31.7a279.84,279.84,0,0,1,25.45-14.59,131.73,131.73,0,0,1,27.91-10A179.46,179.46,0,0,1,739.75,317c4.89-.32,9.81-.58,14.71-.55,4.43,0,9.16.56,12.77,3.39a10.06,10.06,0,0,1,3.42,4.69c.6,1.82,3.5,1,2.89-.8a14.28,14.28,0,0,0-8.27-8.45c-4.49-1.91-9.47-1.9-14.26-1.78a224.94,224.94,0,0,0-30.56,2.66,137.83,137.83,0,0,0-29.32,8A192.87,192.87,0,0,0,664.07,338c-17.66,10.63-34.86,22-52.43,32.85s-35.3,21.21-53.59,30.69c-9.16,4.75-18.44,9.27-27.89,13.43a66.45,66.45,0,0,1-14.31,4.83c-4.31.83-9.07,1.37-12.05,5a8.1,8.1,0,0,0-1.93,5.21,1.5,1.5,0,0,0,3,0Z" transform="translate(-200.01 -72.16)"/><path class="cls-1" d="M509.5,423.58C506,431,509,439.36,516,443.47c6.31,3.72,13.8,4,20.91,4.55s16,1.74,20.1,8.47c2.15,3.49,2.64,7.66,2.86,11.68a108.43,108.43,0,0,0,.9,12.47,42,42,0,0,0,31.62,33.46,42.88,42.88,0,0,0,25.19-1.92c8.12-3.15,15.36-8.07,23.07-12.06A69.51,69.51,0,0,1,667,492.74c9.45-.8,18.94-.4,28.41-.47,9-.07,18.41-.34,27-3.23a33.34,33.34,0,0,0,18-14c3.94-6.3,6-13.63,7.49-20.85,1.54-7.43,2.22-15.11,4.29-22.42a25.82,25.82,0,0,1,4.87-10,15.31,15.31,0,0,1,10.24-5c4.3-.52,8.77-.31,12.9-1.81a22,22,0,0,0,9.56-7.2,42.07,42.07,0,0,0,8.93-23.81,54.67,54.67,0,0,0-1.36-13.67c-.93-4.66-2-9.56-.86-14.28a59.08,59.08,0,0,1,2.29-6.42,28.58,28.58,0,0,0,1.63-6.95,49.42,49.42,0,0,0-.91-14.09c-.7-3.85-.9-9.05-5-10.85s-9.24-2.28-13.69-2.43a52.06,52.06,0,0,0-13.9,1.47c-1.88.45-1.08,3.34.8,2.89a49,49,0,0,1,14.17-1.31,47.18,47.18,0,0,1,7,.91c1.75.37,4.47.62,5.66,2.11s1.3,4.11,1.66,5.91c.47,2.4.9,4.81,1.15,7.25A31.22,31.22,0,0,1,796.2,348c-.75,2.14-1.74,4.21-2.36,6.4a22.6,22.6,0,0,0-.77,6.55c.12,4.56,1.3,9,2.09,13.46a40,40,0,0,1-3.75,25.36,30.56,30.56,0,0,1-7.27,9.49c-3.33,2.77-7.28,3.67-11.51,4-4,.32-8.18.42-12,2.08a17.67,17.67,0,0,0-7.66,6.94c-3.88,6.16-4.86,13.62-6,20.65-1.23,7.23-2.43,14.53-4.84,21.49-2.28,6.59-5.88,12.9-11.56,17.14-6.84,5.11-15.59,6.66-23.92,7.27-18.09,1.34-36.68-1.51-54.4,3.38-8.29,2.28-15.64,6.59-23,10.8-7.24,4.12-14.83,8.12-23.26,9a39.66,39.66,0,0,1-23.69-5.06,39.06,39.06,0,0,1-15.54-17.16,38.25,38.25,0,0,1-3.3-11.27c-.51-4-.39-8-.69-11.95s-1-7.8-2.94-11.2a17.67,17.67,0,0,0-7.64-7c-6.6-3.2-14-3.13-21.15-3.81-6.38-.61-14.29-2.13-18.09-7.9a11.84,11.84,0,0,1-.81-11.59c.83-1.74-1.76-3.26-2.59-1.52Z" transform="translate(-200.01 -72.16)"/><path class="cls-1" d="M782.66,326.16c-4.15,1.64-8.3,3.26-12.43,4.93A32,32,0,0,0,760.07,337c-5.26,4.88-8.2,11.9-9.27,18.9-.29,1.89,2.6,2.7,2.9.8,1-6.52,3.57-13,8.49-17.57,2.78-2.57,6.2-4.09,9.68-5.47l11.59-4.58c1.77-.7,1-3.61-.8-2.9Z" transform="translate(-200.01 -72.16)"/><path class="cls-1" d="M737.13,395.63c-7.81-1.59-15.76-2.9-23.45-.05-6.86,2.55-12.56,7.27-17.67,12.39-3.16,3.16-6.16,6.48-9.33,9.63a1.5,1.5,0,0,0,2.12,2.12c6.48-6.44,12.34-13.8,20.25-18.57a28.3,28.3,0,0,1,12.35-4.25c5-.38,10,.63,14.93,1.63,1.89.38,2.7-2.51.8-2.9Z" transform="translate(-200.01 -72.16)"/><path class="cls-1" d="M659.45,447c-6.78,3.31-14.78,2-21.75,4.84-6.33,2.54-11.45,7.19-15.8,12.35-2.52,3-4.82,6.15-7.09,9.32-1.13,1.57,1.47,3.07,2.59,1.52,3.87-5.42,7.87-10.87,13-15.22a30.08,30.08,0,0,1,8.13-5.07,39.6,39.6,0,0,1,10.38-2.24c4.16-.49,8.28-1.05,12.09-2.91,1.73-.84.21-3.43-1.52-2.59Z" transform="translate(-200.01 -72.16)"/><path class="cls-1" d="M769,316.75c1.85-4.91-1.18-10.37-5.52-12.8-5.4-3-12.08-2.19-17.9-1.11-12.57,2.34-24.2,8-36.52,11.22-12.78,3.4-26.09,3.46-39,5.91a90.65,90.65,0,0,0-18.18,5.69c-5.65,2.36-11.5,4.8-17.75,4.64-3.38-.09-6.72-.78-10.11-.76a18,18,0,0,0-8,1.83c-4.28,2.14-7.46,5.93-10.48,9.53s-6.27,7.56-10.59,10-9,3.43-13.68,4.14c-9.69,1.46-20.23,1.22-29,6.2-9.72,5.53-12.92,16.32-15.5,26.47-2.35,9.17-5.46,20.87-15,25.08-5.64,2.48-12.06.91-17.89,2.59-4.76,1.38-8.94,5.08-8.62,10.4a7.27,7.27,0,0,0,3,5.58c1.56,1.14,3.06-1.46,1.52-2.59s-1.79-3.6-1.23-5.43a7.78,7.78,0,0,1,5-4.68c5.6-2.14,11.83-.64,17.52-2.41,9.47-3,14.34-12.72,17-21.56,2.9-9.64,4-21,12-28.13,7.08-6.39,17.4-6.88,26.4-7.9,9.4-1.05,18.84-2.72,25.88-9.58,6.63-6.46,11.5-16.6,22-16.54,3.22,0,6.4.64,9.61.75a30.21,30.21,0,0,0,8.72-1.06c5.82-1.54,11.18-4.36,16.84-6.37,11.87-4.2,24.57-4.61,36.94-6.3a112.75,112.75,0,0,0,18.17-3.95c5.87-1.82,11.62-4,17.45-6a93.64,93.64,0,0,1,17.83-4.46c5.24-.67,11.91-.68,15.28,4.15a7,7,0,0,1,1,6.61c-.68,1.81,2.22,2.59,2.89.8Z" transform="translate(-200.01 -72.16)"/><path class="cls-1" d="M586.19,365.94a53.75,53.75,0,0,0,18.09,8.43c1.87.47,2.67-2.42.79-2.9a51.13,51.13,0,0,1-17.36-8.12,1.5,1.5,0,0,0-2.05.54,1.52,1.52,0,0,0,.53,2.05Z" transform="translate(-200.01 -72.16)"/><path class="cls-1" d="M597.64,493.51a58.69,58.69,0,0,0,7.53-8.82,1.51,1.51,0,0,0-.54-2.05,1.54,1.54,0,0,0-2,.54,48.39,48.39,0,0,1-3.25,4.19q-1.82,2.1-3.81,4a1.51,1.51,0,0,0,0,2.12,1.53,1.53,0,0,0,2.12,0Z" transform="translate(-200.01 -72.16)"/><path class="cls-1" d="M581.64,496.17q5.9,3.75,12.15,6.9a1.54,1.54,0,0,0,2.05-.54,1.51,1.51,0,0,0-.54-2q-6.24-3.15-12.15-6.9a1.51,1.51,0,0,0-2,.53,1.53,1.53,0,0,0,.54,2.06Z" transform="translate(-200.01 -72.16)"/><path class="cls-1" d="M556,451.72c4.5,2.57,9.24,5.29,12.19,9.7s4.26,9.59,7.22,13.95c1.08,1.58,3.68.08,2.59-1.52-3.11-4.58-4.42-10.12-7.67-14.61s-8.06-7.4-12.82-10.11a1.5,1.5,0,0,0-1.51,2.59Z" transform="translate(-200.01 -72.16)"/><path class="cls-1" d="M601.92,513.18,582.82,519,573,522c-2.49.76-5,1.72-7.67,1.77a5.93,5.93,0,0,1-2.94-.56c-1-.56-1.48-1.63-2.29-2.43-2.3-2.28-4.79-.13-6.71,1.43q-7.39,6-14.46,12.38-7.85,7.1-15.26,14.66c-1.35,1.38.77,3.5,2.12,2.12a352.8,352.8,0,0,1,27.35-25.1c1.09-.9,2.17-1.81,3.28-2.68.31-.24,1-1,1.45-.8s.82,1,1.08,1.36a7.56,7.56,0,0,0,5.86,2.62,22.84,22.84,0,0,0,7.31-1.36l9.31-2.86,21.25-6.51c1.84-.56,1-3.46-.8-2.89Z" transform="translate(-200.01 -72.16)"/><path class="cls-1" d="M547.53,511.72a34.25,34.25,0,0,1,9.74-2.36,1.54,1.54,0,0,0,1.5-1.5,1.51,1.51,0,0,0-1.5-1.5,36.71,36.71,0,0,0-10.54,2.46,1.55,1.55,0,0,0-1.05,1.85,1.52,1.52,0,0,0,1.85,1.05Z" transform="translate(-200.01 -72.16)"/><path class="cls-1" d="M547.13,498l6.89-2a1.5,1.5,0,0,0-.8-2.89l-6.89,2a1.5,1.5,0,1,0,.8,2.9Z" transform="translate(-200.01 -72.16)"/><path class="cls-1" d="M552,477.27c-5.12,3.64-7.78,9.3-10.39,14.82a54.71,54.71,0,0,1-4.47,8.16,19.4,19.4,0,0,1-2.81,3.19,23.21,23.21,0,0,1-4.09,2.71,7.1,7.1,0,0,0-3.69,4.23,4.25,4.25,0,0,0,1.68,4.68c1.6,1.09,3.11-1.51,1.52-2.59-1.1-.75.2-2.46.85-3,1.21-1,2.71-1.54,4-2.44a21.89,21.89,0,0,0,5.5-5.81c3.08-4.58,4.87-9.87,7.64-14.62a21.21,21.21,0,0,1,5.79-6.77c1.56-1.11.07-3.71-1.51-2.59Z" transform="translate(-200.01 -72.16)"/><path class="cls-1" d="M537.66,478.23a3.93,3.93,0,0,1-3.7,3.4c-2.22.16-4.14,0-6,1.53-.71.59-1.28,1.32-2,1.91a3.82,3.82,0,0,1-3,.76c-1.9-.16-4.44-1.39-6.1,0s-1.5,3.84-.77,5.59a6.56,6.56,0,0,0,4.06,3.8c2.44.75,5.07-.14,7.41-.86a54.33,54.33,0,0,0,6.9-2.55,10,10,0,0,0,5.19-4.69,6.14,6.14,0,0,0-.72-6.49,1.51,1.51,0,0,0-2.12,0,1.54,1.54,0,0,0,0,2.12c.93,1.17.4,3-.44,4.07a10.29,10.29,0,0,1-4.34,2.79c-1.92.78-3.89,1.45-5.87,2-1.75.52-4.09,1.44-5.8.4-1.07-.64-2.14-2.23-1.72-3.55.12-.36,0-.26.27-.34a4,4,0,0,1,1.31.21,23.61,23.61,0,0,0,2.92.43,6.63,6.63,0,0,0,4.93-1.64c1.18-1,2-2.33,3.65-2.51,2-.21,3.87.06,5.65-1.08a6.89,6.89,0,0,0,3.1-4.58c.32-1.89-2.57-2.7-2.89-.8Z" transform="translate(-200.01 -72.16)"/><path class="cls-1" d="M537.29,473.66a11.55,11.55,0,0,1,3.58,15.73c-3.17,5.14-9.73,6.57-15.27,7.44-1.9.3-1.09,3.19.8,2.89,6.74-1.06,14.35-3.23,17.64-9.85a14.62,14.62,0,0,0-5.23-18.8c-1.63-1.05-3.14,1.54-1.52,2.59Z" transform="translate(-200.01 -72.16)"/><path class="cls-1" d="M540.07,466c-1,4.34-5.83,5.87-9.7,6.35-4.83.59-9.64.69-13.87,3.42a16.64,16.64,0,0,0-7.33,10.12A15.06,15.06,0,0,0,512,498.64a13.72,13.72,0,0,0,12.83,4.81c1.9-.32,1.1-3.21-.79-2.9a10.67,10.67,0,0,1-10-4.17,12.25,12.25,0,0,1-1.35-11.56,14.23,14.23,0,0,1,8-7.81c4.32-1.71,9.11-1.12,13.56-2.31,3.93-1.06,7.85-3.69,8.77-7.88.41-1.89-2.48-2.69-2.9-.8Z" transform="translate(-200.01 -72.16)"/><path class="cls-1" d="M542.84,467.6q1,.56,2,1.2c.33.21.65.43,1,.66l.53.38.2.16c-.17-.13,0,0,.06,0a29.57,29.57,0,0,1,3.46,3.25,1.51,1.51,0,0,0,2.12,0,1.53,1.53,0,0,0,0-2.12,29.92,29.92,0,0,0-7.84-6.17,1.5,1.5,0,0,0-1.51,2.6Z" transform="translate(-200.01 -72.16)"/><path class="cls-1" d="M559.5,463.28c-.63-3.3-4.79-4.74-7.46-6A51.67,51.67,0,0,0,540.87,454c-6.16-1.29-14.17-3.11-16.74-9.73-.69-1.78-3.59-1-2.89.8,2.48,6.4,8.92,9.49,15.21,11,3.75.91,7.59,1.46,11.25,2.7a44,44,0,0,1,5.49,2.42c1.28.65,3.12,1.31,3.42,2.88.36,1.89,3.25,1.09,2.89-.8Z" transform="translate(-200.01 -72.16)"/><path class="cls-1" d="M542.74,463c-6.08-3.38-11.65-8.48-18.76-9.5-7.77-1.12-14.51,3.4-20.47,7.78-1.54,1.14-.05,3.74,1.51,2.59,5.4-4,11.81-8.65,18.92-7.36,6.5,1.18,11.67,6,17.29,9.08,1.69.94,3.2-1.65,1.51-2.59Z" transform="translate(-200.01 -72.16)"/><path class="cls-1" d="M520.81,445.85c-14.53,1.66-22.83,14.65-31.48,24.86a55.38,55.38,0,0,1-8.82,8.63c-1.53,1.14,0,3.75,1.51,2.59,7.25-5.42,12.25-12.92,18.08-19.7,5.36-6.23,12.2-12.41,20.71-13.38,1.9-.22,1.92-3.22,0-3Z" transform="translate(-200.01 -72.16)"/><path class="cls-1" d="M511.09,439.5c-11.94-4.13-22.82,4.26-31.39,11.5-1.48,1.24.66,3.36,2.12,2.12,7.75-6.55,17.64-14.48,28.47-10.73,1.83.64,2.61-2.26.8-2.89Z" transform="translate(-200.01 -72.16)"/><path class="cls-1" d="M500.13,432.28a95.34,95.34,0,0,0-20.63,6.58,1.5,1.5,0,1,0,1.51,2.59,92.25,92.25,0,0,1,19.92-6.28c1.89-.37,1.09-3.26-.8-2.89Z" transform="translate(-200.01 -72.16)"/><path class="cls-1" d="M497.62,427.92A48.11,48.11,0,0,0,486.17,424a107.63,107.63,0,0,0-11.95-2c-3.9-.41-7.81,0-11,2.47s-5.68,6.17-8.25,9.32l-9.74,11.89c-1.22,1.48.9,3.61,2.12,2.12l8-9.78c2.55-3.11,5-6.37,7.71-9.33a11.67,11.67,0,0,1,4.15-3.12,13,13,0,0,1,5.47-.7,77.71,77.71,0,0,1,11.14,1.73,47.9,47.9,0,0,1,12.27,3.93c1.72.87,3.24-1.71,1.51-2.59Z" transform="translate(-200.01 -72.16)"/><path class="cls-1" d="M472.13,443.4c-5.43,4.48-12.74,5.59-19.52,6.26-8,.79-16,1.42-24,2.46a195.61,195.61,0,0,0-24.36,4.54,173.68,173.68,0,0,0-23.12,8c-15.43,6.49-30.33,14.2-45.15,21.95q-22.8,11.92-45.57,23.91l-23,12.06c-5.77,3-11.95,6.07-15.93,11.42a18.51,18.51,0,0,0-2.28,4.16,1.5,1.5,0,0,0,.69,1.69c1.88,1.3,4.17.85,6.22.2,2.69-.85,5.37-1.75,8.06-2.62l16.14-5.25,32-10.42,18.27-5.94c1.83-.59,1.05-3.49-.8-2.89l-62.16,20.22L259.08,536c-1.44.47-2.88,1-4.34,1.4-1.14.34-2.32.65-3.36-.07l.69,1.69c2.43-6,8.59-9.42,14-12.3,7.48-4,15-7.87,22.49-11.8l45.22-23.73c14.73-7.72,29.5-15.44,44.74-22.12a185.3,185.3,0,0,1,23-8.52,175,175,0,0,1,24.1-5c8.15-1.16,16.34-1.9,24.54-2.63,6.73-.59,13.73-1.3,19.81-4.5a24.82,24.82,0,0,0,4.24-2.86c1.49-1.23-.64-3.34-2.12-2.12Z" transform="translate(-200.01 -72.16)"/><path class="cls-1" d="M466.32,459.66c-16.29,3.27-32.49,6.5-48.4,11.33a346.67,346.67,0,0,0-45.45,17.36A457.46,457.46,0,0,0,329,511.83c-13.15,7.93-26.23,16.1-38.63,25.19-11.95,8.75-23.29,18.47-32.84,29.83-1.2,1.42-2.36,2.87-3.5,4.33a1.52,1.52,0,0,0,1.46,2.51c17.8-4.13,32.92-14.86,49.16-22.69,16.72-8.07,34.47-13.67,51.71-20.47a219.3,219.3,0,0,0,28.27-13.18,1.5,1.5,0,0,0-1.51-2.59c-16.07,9.15-33.59,15.2-50.86,21.61-8.59,3.2-17.15,6.5-25.48,10.32S290.68,555,282.7,559.25c-8.92,4.8-18.1,9.25-28,11.55l1.46,2.51c9-11.65,19.92-21.7,31.6-30.61,12-9.17,24.81-17.29,37.68-25.19,13.92-8.54,28.1-16.67,42.79-23.82a340.94,340.94,0,0,1,45.13-18.13,417.48,417.48,0,0,1,47.53-11.77l6.24-1.24c1.89-.38,1.09-3.27-.79-2.89Z" transform="translate(-200.01 -72.16)"/><path class="cls-1" d="M473.42,481.31c-7.6,4.18-15.77,7.14-24,9.88s-16.47,5.38-24.7,8.12c-16.61,5.52-33.15,11.29-49.29,18.1A430.81,430.81,0,0,0,329,540.92c-15.07,8.65-30,17.6-45.54,25.32-13.46,6.68-27.59,12.82-38.74,23.16q-2.05,1.92-3.94,4a1.52,1.52,0,0,0,.31,2.35c3.11,2,6.85,1,10.06-.19l12.7-4.62L289,581.8l50.55-18.36,50.55-18.37,50.8-18.45c15.76-5.73,32.27-12.47,49.37-11.31a49.85,49.85,0,0,1,6.2.81c1.89.37,2.69-2.52.8-2.89-16.72-3.24-33.35,1.92-49,7.52-16.81,6-33.58,12.2-50.37,18.3l-50.31,18.27L297.26,575.6l-25.39,9.23-12.46,4.53c-4,1.43-8,3.23-12,4.24a5.91,5.91,0,0,1-4.82-.44l.3,2.36c10.24-11.33,24.24-18,37.74-24.56,15.28-7.46,30-15.94,44.67-24.45,15.07-8.71,30.26-17.13,46.21-24.14S403.79,509.5,420.26,504c8.31-2.8,16.65-5.51,25-8.24a216.23,216.23,0,0,0,24-8.92c1.94-.91,3.85-1.87,5.72-2.9,1.69-.93.18-3.52-1.52-2.59Z" transform="translate(-200.01 -72.16)"/><path class="cls-1" d="M489.05,495.65a19.57,19.57,0,0,0,12.27,12.91,1.5,1.5,0,0,0,.79-2.9A16.46,16.46,0,0,1,492,494.85a1.51,1.51,0,0,0-2.9.8Z" transform="translate(-200.01 -72.16)"/><path class="cls-1" d="M501.48,490.42a8.89,8.89,0,0,0,1,6.42,1.5,1.5,0,1,0,2.59-1.52,6.08,6.08,0,0,1-.33-.62.77.77,0,0,1-.07-.16c.09.23.11.27,0,.12l-.12-.33a8.28,8.28,0,0,1-.33-1.37l.06.4a7.34,7.34,0,0,1,0-1.93l-.06.39c0-.2.07-.4.11-.6a1.54,1.54,0,0,0-1.05-1.85,1.52,1.52,0,0,0-1.84,1.05Z" transform="translate(-200.01 -72.16)"/><path class="cls-1" d="M522.43,510.38,511.9,507.1a1.5,1.5,0,0,0-.8,2.89l10.53,3.29a1.5,1.5,0,0,0,.8-2.9Z" transform="translate(-200.01 -72.16)"/><path class="cls-1" d="M524.33,519.64a32.85,32.85,0,0,0-19.75-1.9c-1.88.41-1.09,3.3.8,2.9a29.27,29.27,0,0,1,17.44,1.59,1.56,1.56,0,0,0,2-.54,1.51,1.51,0,0,0-.54-2.05Z" transform="translate(-200.01 -72.16)"/><path class="cls-1" d="M530.23,523.65A35.6,35.6,0,0,1,526,539.11c-.92,1.69,1.67,3.21,2.59,1.51a38.94,38.94,0,0,0,4.66-17c.08-1.93-2.92-1.92-3,0Z" transform="translate(-200.01 -72.16)"/><path class="cls-1" d="M485.09,519.24c4.63,5,2,12.89-.2,18.41a160.93,160.93,0,0,1-10.32,21.41,71,71,0,0,1-14.74,17.61,118.45,118.45,0,0,1-18.57,12.83A421.28,421.28,0,0,1,397.64,611a334.52,334.52,0,0,1-46.75,16.36c-7.84,2.07-15.76,3.74-23.75,5.16-6.88,1.22-14.06,2.55-20.07,6.34a27.13,27.13,0,0,0-4.11,3.2,1.52,1.52,0,0,0,1.06,2.56,297.68,297.68,0,0,0,56.4-.38,301.88,301.88,0,0,0,55.08-10.83,288.91,288.91,0,0,0,51.55-20.67c15.62-8.14,30.6-18.26,42.15-31.71,11.14-13,19.08-29.13,20.37-46.33q.24-3.18.16-6.38c-.05-1.93-3.05-1.94-3,0,.4,17-6.33,33.49-16.62,46.87-10.6,13.78-25,24.21-40.06,32.54a274.84,274.84,0,0,1-49.94,21.14,297,297,0,0,1-109.33,13.27c-2.25-.15-4.51-.32-6.76-.52l1.06,2.56c5.31-5,12.57-6.83,19.54-8.16,8-1.54,16-3,24-5a331,331,0,0,0,47.82-16.29A437.25,437.25,0,0,0,441.13,593c13.52-7.62,26.19-16.9,34.64-30.17,4.39-6.91,7.7-14.44,11-21.93,2.56-5.89,5.45-13.23,3.06-19.63a12.68,12.68,0,0,0-2.58-4.17c-1.31-1.42-3.43.7-2.12,2.12Z" transform="translate(-200.01 -72.16)"/><path class="cls-1" d="M439,541.86l41.8-9.16-1.69-.69c.94,1.46-.59,3.13-1.61,4.13A59.32,59.32,0,0,1,472.9,540q-5,4.05-10.25,7.88-10.26,7.56-21.12,14.28c-15.13,9.36-31.23,16.61-47.52,23.67-8.14,3.53-16.24,7.19-24.45,10.55a102.33,102.33,0,0,1-12.4,4.23,74.29,74.29,0,0,0-12,3.81c-3.83,1.75-7.29,3.69-11.6,3.81s-8.17-.28-12.17,1.3a37.25,37.25,0,0,1-11.85,3.33c-4.4.67-8.79,1.36-13.18,2.13q-13.11,2.31-26.08,5.32c-4.22,1-8.44,2-12.62,3.11-3,.83-6.11,2-8.45,4.11a9.85,9.85,0,0,0-2.48,3.72c-.39,1,.57,1.85,1.44,1.9L312.09,637c1.93.11,1.92-2.89,0-3l-63.88-3.86,1.45,1.9c1.14-2.86,4.27-4.29,7-5.19,3.93-1.3,8-2.15,12.07-3.1q13.06-3.1,26.3-5.49,6.72-1.21,13.49-2.24a49.7,49.7,0,0,0,12.08-2.93,20.4,20.4,0,0,1,6-1.81c2.09-.2,4.2,0,6.29,0a21.19,21.19,0,0,0,6.24-.87,42.3,42.3,0,0,0,5.58-2.41,61.54,61.54,0,0,1,11.9-4.1,104.37,104.37,0,0,0,12.4-4.05c8.32-3.31,16.49-7,24.71-10.61,16.43-7.12,32.76-14.32,48.07-23.69q11.1-6.79,21.61-14.49,5.16-3.76,10.15-7.74,2.56-2,5.09-4.11a11.83,11.83,0,0,0,3.27-4,4.77,4.77,0,0,0-.18-4.7,1.55,1.55,0,0,0-1.7-.69L438.24,539c-1.89.42-1.09,3.31.8,2.9Z" transform="translate(-200.01 -72.16)"/><path class="cls-1" d="M474.94,522.28a75,75,0,0,0-14.59,4.32,140.93,140.93,0,0,0-13.51,6.79,86.9,86.9,0,0,1-14,6.26c-4.91,1.63-9.94,2.87-14.95,4.17l-63.85,16.5-35.79,9.26a1.5,1.5,0,0,0,.8,2.89L382.94,556l31.92-8.25c10-2.59,20.14-4.89,29.42-9.58,5-2.53,9.79-5.47,14.89-7.78a73.42,73.42,0,0,1,16.57-5.17c1.89-.37,1.09-3.26-.8-2.9Z" transform="translate(-200.01 -72.16)"/><path class="cls-1" d="M268.16,568.76a93.63,93.63,0,0,1-13.25,3.59c-4.59.76-9.26.81-13.89,1.15-9.1.67-17.62,3.31-26.12,6.49-3.67,1.38-8.41,2.56-9.84,6.7a1.51,1.51,0,0,0,1.05,1.84,76.24,76.24,0,0,0,38.21,1.15c1.88-.42,1.08-3.32-.8-2.89a73,73,0,0,1-36.61-1.15l1.05,1.85c.5-1.45,1.93-2.24,3.25-2.86,1.8-.84,3.72-1.46,5.59-2.16,3.95-1.46,7.94-2.85,12-3.93a68.1,68.1,0,0,1,12.93-2.09c4.33-.3,8.68-.42,13-1.06A88.31,88.31,0,0,0,269,571.65c1.83-.59,1.05-3.49-.8-2.89Z" transform="translate(-200.01 -72.16)"/><path class="cls-1" d="M281.26,531.85q-7.25,10.35-15,20.36-3.81,4.93-7.74,9.79-1.95,2.41-3.93,4.8c-.71.86-1.42,1.71-2.14,2.56-.3.36-.59.75-.92,1.1a3,3,0,0,1-.44.43c-.38.13-.39.22,0,.27l.38,1.45A131.08,131.08,0,0,1,267,539.3c1.05-1.63-1.54-3.13-2.59-1.52A133.78,133.78,0,0,0,249,570.53c-.4,1.28-.76,2.6.72,3.32a3.17,3.17,0,0,0,3.35-.69,21.25,21.25,0,0,0,2.77-3.14q1.68-2,3.34-4,6-7.34,11.74-14.9,6.65-8.72,12.93-17.71c1.11-1.59-1.49-3.09-2.59-1.51Z" transform="translate(-200.01 -72.16)"/><path class="cls-1" d="M293.9,501.34a132.5,132.5,0,0,0-51.22,30.45,128.8,128.8,0,0,0-11.43,12.5,1.52,1.52,0,0,0,.3,2.35c3.93,2.26,8.66-1.41,12-3.24q6.48-3.52,12.89-7.17a1.5,1.5,0,0,0-1.52-2.59q-5.56,3.17-11.19,6.24-2.76,1.51-5.53,3c-1.45.79-3.51,2.12-5.15,1.17l.3,2.36a129.69,129.69,0,0,1,45.92-36.15,127.14,127.14,0,0,1,15.41-6c1.83-.58,1.05-3.48-.8-2.89Z" transform="translate(-200.01 -72.16)"/><path class="cls-1" d="M412.56,453.5c-19.14.94-38,5.1-56.19,10.91-8.93,2.86-17.82,6-26.45,9.65a91,91,0,0,0-23.6,14.33c-8.35,7.1-16.09,15-24,22.52-1.4,1.33.72,3.45,2.12,2.12,7-6.68,13.92-13.5,21.12-20a88.87,88.87,0,0,1,22.56-14.94A253.87,253.87,0,0,1,354,468.33a271.85,271.85,0,0,1,27-7.51,190,190,0,0,1,31.5-4.32c1.92-.09,1.93-3.1,0-3Z" transform="translate(-200.01 -72.16)"/><path class="cls-1" d="M302,491.83a27.52,27.52,0,0,0-12.05,2.86c-3.67,1.82-6.8,4.35-10.82,5.45s-7.9,1.49-11.7,2.9a36.53,36.53,0,0,0-17.79,14.18c-1.07,1.62,1.53,3.12,2.59,1.51a33.27,33.27,0,0,1,15.64-12.65c3.55-1.38,7.3-1.87,11-2.77s7-2.75,10.31-4.75A25.1,25.1,0,0,1,302,494.83a1.5,1.5,0,0,0,0-3Z" transform="translate(-200.01 -72.16)"/><path class="cls-1" d="M231.14,544.92a152.3,152.3,0,0,0-16.49,5.72,58.66,58.66,0,0,0-7.87,4.08,41.34,41.34,0,0,0-3.48,2.4,9.48,9.48,0,0,0-2.86,2.78c-1.19,2.23.25,4.43,2.25,5.52,2.49,1.35,5.63,1.68,8.37,2.22a150.59,150.59,0,0,0,19.51,2.48,146.58,146.58,0,0,0,22.37-.4c1.91-.18,1.93-3.18,0-3a144,144,0,0,1-35.62-1q-4.29-.66-8.52-1.59a29.55,29.55,0,0,1-3.74-.91c-.6-.21-1.85-.68-2-1.4s1.42-1.81,2-2.22c1.06-.81,2.17-1.56,3.3-2.27a56.63,56.63,0,0,1,6.71-3.56,137,137,0,0,1,16.93-5.94c1.85-.56,1.06-3.45-.79-2.89Z" transform="translate(-200.01 -72.16)"/><path class="cls-1" d="M278.22,545.75a.94.94,0,0,1,.12-.18l-.24.3a1.34,1.34,0,0,1,.2-.21l-.3.24a1.22,1.22,0,0,1,.29-.17l-.35.15a1.27,1.27,0,0,1,.38-.11l-.4.05a1.85,1.85,0,0,1,.47,0l-.4-.05a2.17,2.17,0,0,1,.42.11l-.36-.15a1.5,1.5,0,0,1,.32.19l-.3-.24.22.22-.24-.3a1.09,1.09,0,0,1,.14.23l-.15-.36a.42.42,0,0,0,0,.1,1.58,1.58,0,0,0,.68.9,1.52,1.52,0,0,0,1.16.15,1.55,1.55,0,0,0,.9-.69,1.51,1.51,0,0,0,.15-1.16,3,3,0,0,0-.29-.63,2.44,2.44,0,0,0-.43-.53,3.12,3.12,0,0,0-1.2-.68,4.24,4.24,0,0,0-.7-.11,1.45,1.45,0,0,0-.36,0,3,3,0,0,0-1.34.38l-.15.1a3.57,3.57,0,0,0-.43.34,4.35,4.35,0,0,0-.33.42,1.74,1.74,0,0,0-.11.18,1.59,1.59,0,0,0-.15,1.15,1.56,1.56,0,0,0,.69.9,1.52,1.52,0,0,0,1.16.15,1.47,1.47,0,0,0,.89-.69Z" transform="translate(-200.01 -72.16)"/><path class="cls-1" d="M568.25,515.4a2.7,2.7,0,0,1,.35.59l-.15-.36a3.46,3.46,0,0,1,.21.78l-.06-.4a3.1,3.1,0,0,1,0,.86l0-.4a3.52,3.52,0,0,1-.24.9l.16-.36a3.51,3.51,0,0,1-.44.75l.24-.3a3.3,3.3,0,0,1-.56.56l.3-.23a2.73,2.73,0,0,1-.6.34l.36-.15-.11,0a1.67,1.67,0,0,0-.9.69,1.61,1.61,0,0,0-.15,1.16,1.53,1.53,0,0,0,1.85,1,4.32,4.32,0,0,0,1.82-1.21,5.07,5.07,0,0,0,1-1.9,4.52,4.52,0,0,0-.59-3.93,1.66,1.66,0,0,0-.9-.68,1.49,1.49,0,0,0-1.15.15,1.47,1.47,0,0,0-.69.89,1.42,1.42,0,0,0,.15,1.16Z" transform="translate(-200.01 -72.16)"/><path class="cls-2" d="M707.19,240.25c-71.76-30.95-152.73,12.28-162.07,91-2.92,24.68,1.81,51.06,17.19,70.58,14.43,18.3,37,29,60,32.6,32.08,5,69.76.45,97.28-17.66,16.53-10.89,28.91-27.52,36.17-45.95,9-22.76,10.28-48.62,2.83-71.93A98.35,98.35,0,0,0,707.19,240.25Z" transform="translate(-200.01 -72.16)"/><path class="cls-3" d="M708,239A123.21,123.21,0,0,0,650.23,229a118,118,0,0,0-52.75,17,113.91,113.91,0,0,0-38.78,39.55,118.7,118.7,0,0,0-15.89,59.54c0,24,7.73,48.44,25.3,65.41,17.29,16.7,40.79,24.59,64.33,26.72,24.09,2.18,49.16-.78,71.48-10.34a96.72,96.72,0,0,0,29.7-19.5,101.52,101.52,0,0,0,20.58-29.17c11.27-23.82,14-51.75,6.61-77.13a100.11,100.11,0,0,0-38.56-53.72A101.8,101.8,0,0,0,708,239c-1.73-.83-3.25,1.75-1.51,2.59a98.22,98.22,0,0,1,45.73,45.3c11.07,22.83,12.47,49.66,5.45,73.9-6.56,22.63-20.62,43.43-40.78,56s-44.12,17.75-67.54,18.07c-23.09.32-46.75-3.9-66.44-16.53A77.25,77.25,0,0,1,558.65,394,88,88,0,0,1,547,360.89a114.8,114.8,0,0,1,8.53-62.46,111.15,111.15,0,0,1,33.23-42.76,113.91,113.91,0,0,1,48.57-21.93,117.78,117.78,0,0,1,55.61,2.9,125.88,125.88,0,0,1,13.55,4.9C708.19,242.3,709.72,239.71,708,239Z" transform="translate(-200.01 -72.16)"/><path class="cls-1" d="M592.87,265.06c-.18,4.56,3.44,8.65,7.81,9.58,4.73,1,9.44-1.53,12.18-5.3,3-4.17,3.44-9.92,2.27-14.81a8.87,8.87,0,0,0-3.33-5.45c-2.21-1.45-4.76-.75-7,.32-5.11,2.49-8.68,7.14-12.05,11.55a1.5,1.5,0,0,0,.54,2.05,1.54,1.54,0,0,0,2-.54c2.37-3.09,4.83-6.3,8-8.64,1.45-1.07,3.33-2.36,5.16-2.57s2.82,1.34,3.36,2.84a16.22,16.22,0,0,1-.31,11.52c-1.45,3.25-4.61,6-8.29,6.24s-7.56-2.82-7.4-6.79c.08-1.93-2.92-1.92-3,0Z" transform="translate(-200.01 -72.16)"/><path class="cls-1" d="M607.78,285.91c3.91-.56,6.81-3.46,9.65-5.94s6.52-4.92,10.38-2.51a10.46,10.46,0,0,1,4.24,6.3,14.79,14.79,0,0,1,.39,7.69c-1.43,4.94-7.93,6.8-12.45,5.78a12,12,0,0,1-9.17-11c-.1-1.92-3.1-1.93-3,0a15.15,15.15,0,0,0,8.77,13c5.35,2.35,12.26,1.35,16.37-2.95a10.81,10.81,0,0,0,2.77-8.3,19.44,19.44,0,0,0-2.59-9.27c-2.93-4.7-8.53-6.71-13.53-4.06-4.42,2.35-7.41,7.6-12.62,8.35-1.91.27-1.1,3.16.79,2.89Z" transform="translate(-200.01 -72.16)"/><path class="cls-1" d="M631.11,309.85c2.49-2.58,5.53-5.81,9.39-5.92s6.79,2.85,8.73,5.8a22.09,22.09,0,0,1,2.73,5.61c.46,1.48,1.37,4.88-.3,5.91s-4.07,1-5.89.9a13.61,13.61,0,0,1-5.73-1.74,13.79,13.79,0,0,1-6.78-10.21c-.22-1.89-3.23-1.92-3,0a17.09,17.09,0,0,0,7,12,16.62,16.62,0,0,0,14.69,2.19c5.84-2.07,3.34-9.74,1.27-13.77s-5.45-8.26-10.08-9.39c-5.77-1.4-10.42,2.67-14.14,6.51-1.34,1.39.77,3.52,2.12,2.12Z" transform="translate(-200.01 -72.16)"/><path class="cls-1" d="M652.93,337.81c1.63-2.21,4-5.39,7.16-4.9,2.83.45,4.51,3.55,5.63,5.87.83,1.73,1.53,3.53,2.28,5.29l1.22,2.9.24.58c0,.07.34.69.32.46,0,0,.14-.14,0,0a4.44,4.44,0,0,1-.93.52,36.91,36.91,0,0,1-5.49,2.45,5.13,5.13,0,0,1-2.67.43,4.68,4.68,0,0,1-2.1-1.23A20.93,20.93,0,0,1,652.41,340a1.5,1.5,0,0,0-2.89.8,23.77,23.77,0,0,0,6.92,11.57,6.87,6.87,0,0,0,6.24,2,28.61,28.61,0,0,0,7.3-3,5.68,5.68,0,0,0,2.41-1.77c.67-1.13.21-2.26-.25-3.35-1.06-2.49-2.1-5-3.16-7.48-1.45-3.38-3.51-7.15-7.17-8.48-4.95-1.8-8.84,2.46-11.47,6-1.15,1.55,1.45,3.05,2.59,1.51Z" transform="translate(-200.01 -72.16)"/><path class="cls-1" d="M668.55,362.78c2.25-2.34,5.23-5.16,8.62-3.21,3,1.73,4.62,5.34,5.84,8.43a47.78,47.78,0,0,1,2,6.18c.37,1.51.55,3.16-1.43,3.23-3.18.12-6.3-1.73-8.5-3.87a24.48,24.48,0,0,1-5.84-9.58c-.63-1.82-3.53-1-2.9.79a27.88,27.88,0,0,0,6.51,10.8c2.84,2.81,7.06,5.23,11.2,4.83a4.38,4.38,0,0,0,4.21-4.23c.14-2.39-.92-5-1.7-7.24-1.5-4.24-3.42-8.88-7.24-11.54a7.9,7.9,0,0,0-6.48-1.23c-2.58.68-4.6,2.65-6.39,4.52-1.34,1.39.78,3.52,2.12,2.12Z" transform="translate(-200.01 -72.16)"/><path class="cls-1" d="M686.82,390.75a36.17,36.17,0,0,1,4.41-2.81c1.18-.63,2.91-1.8,4.3-1.47,1.23.29,2.1,1.59,2.75,2.58a34.69,34.69,0,0,1,2.45,4.27c1.1,2.36,1.68,5.73-.42,7.75-1.81,1.74-4.8,1.15-6.72-.08-2.88-1.85-4.3-5.45-5.6-8.46a1.53,1.53,0,0,0-2.06-.54,1.55,1.55,0,0,0-.53,2.06c1.51,3.5,3.22,7.17,6.48,9.39,2.72,1.86,6.76,2.44,9.61.51,3.26-2.21,3.81-6.57,2.66-10.1a25.52,25.52,0,0,0-2.78-5.52,12.53,12.53,0,0,0-3.5-4.05c-2.12-1.42-4.37-.75-6.51.25a34.64,34.64,0,0,0-6.05,3.63,1.54,1.54,0,0,0-.54,2,1.51,1.51,0,0,0,2.05.54Z" transform="translate(-200.01 -72.16)"/><path class="cls-1" d="M703.26,414.78a6.26,6.26,0,0,1-.34-.55l-.12-.23c-.18-.36.07.27,0-.11,0-.17-.11-.33-.15-.49s-.05-.26-.08-.38c-.07-.32,0,.24,0-.11a9,9,0,0,1,0-1.16c0,.32,0,0,0-.05l.06-.32a6.32,6.32,0,0,1,.18-.62s.18-.44,0-.12l.11-.24a6.22,6.22,0,0,1,.32-.56c0-.07.09-.14.14-.21.22-.34-.12.13,0-.05a5.91,5.91,0,0,1,.48-.52l.2-.16.1-.08.45-.26s.43-.19.11-.06l.24-.09a5.69,5.69,0,0,1,.68-.18c.09,0,.37,0,0,0l.25,0h.65l.25,0c.4,0-.17-.07.05,0s.47.1.7.16l.61.22c-.3-.12.2.11.28.15s.34.2.5.31c0,0,.33.24.16.11s.16.14.19.17a5.14,5.14,0,0,1,.4.41s.28.37.09.1c0,.07.1.14.14.21a6.22,6.22,0,0,1,.32.56s.08.24,0,0a4.26,4.26,0,0,1,.15.47,2.2,2.2,0,0,1,0,1.05c-.08.29.13-.31-.06.16-.07.17-.1.18,0,.09a1.66,1.66,0,0,1-.26.27l-.17.15c.1-.08.08-.07-.07,0a34.18,34.18,0,0,1-3.54,1.6l-4.2,1.78a1.5,1.5,0,0,0,1.52,2.59l4.38-1.86a16.71,16.71,0,0,0,3.76-1.81c2.52-1.92,2-5.39.07-7.54a7.5,7.5,0,0,0-6-2.42,6.68,6.68,0,0,0-5.53,3.68,7.36,7.36,0,0,0,.33,7.4,1.54,1.54,0,0,0,2.05.54,1.51,1.51,0,0,0,.54-2.05Z" transform="translate(-200.01 -72.16)"/><path class="cls-1" d="M621.49,256l4.79,6,2.33,2.93a17.73,17.73,0,0,0,2.33,2.71c1.84,1.56,4,1.18,6.12.48a22.13,22.13,0,0,0,5.15-2.33c3.15-2.05,5.32-5.36,4.66-9.24s-3.84-6.88-7.38-8.18c-5-1.82-10.51-.18-15.21,1.63-1.79.69-1,3.59.79,2.9,3.57-1.38,7.44-2.69,11.31-2.19a8.91,8.91,0,0,1,7.19,5.15c1.12,2.76-.16,5.44-2.49,7.07a16.8,16.8,0,0,1-4.06,2,17.42,17.42,0,0,1-2.33.72,2.14,2.14,0,0,1-2.28-.8c-1.53-1.69-2.87-3.58-4.28-5.36l-4.52-5.68c-1.2-1.51-3.31.62-2.12,2.12Z" transform="translate(-200.01 -72.16)"/><path class="cls-1" d="M639.7,283.12c2,3.6,4.55,7.57,8.5,9.3,4.33,1.9,9.39.09,12.92-2.7a9.72,9.72,0,0,0,3.61-5.22,9.25,9.25,0,0,0-1.46-7.05,13.35,13.35,0,0,0-23.35,1.47c-.82,1.73,1.76,3.26,2.59,1.51a10.79,10.79,0,0,1,7.91-6.05,10.58,10.58,0,0,1,9.36,3.42,7.47,7.47,0,0,1,2.16,5.18,6,6,0,0,1-2.19,4c-2.51,2.29-6.78,4.15-10.12,2.82s-5.59-5.11-7.34-8.18a1.5,1.5,0,0,0-2.59,1.51Z" transform="translate(-200.01 -72.16)"/><path class="cls-1" d="M658.64,307.37l3.72,8.13c1,2.3,1.92,5,3.7,6.87,3.47,3.64,9.11,1.58,12-1.74A13.27,13.27,0,0,0,680.64,308a40.15,40.15,0,0,0-3.67-7.29c-1.21-2.11-2.14-4.62-4.92-4.74-5.21-.24-10.32,3-13,7.35-1,1.66,1.58,3.16,2.59,1.52a12.39,12.39,0,0,1,8.54-5.75c.67-.11,1.87-.35,2.41.12a4.75,4.75,0,0,1,.71,1.19l.93,1.62a50.75,50.75,0,0,1,3.11,5.76,10.4,10.4,0,0,1-1,10.22c-1.86,2.6-6.26,5.07-8.62,1.7a39,39,0,0,1-3.06-6.34l-3.42-7.46c-.8-1.76-3.39-.23-2.59,1.51Z" transform="translate(-200.01 -72.16)"/><path class="cls-1" d="M676.3,334.36c-.3.16-.29-.13.1.3a3.08,3.08,0,0,1,.32.48,14.49,14.49,0,0,1,.8,1.8l1.68,4a33.46,33.46,0,0,0,3.39,7c2.8,3.83,8,5.71,11.84,2.18,3.22-3,4.15-8.24,3.74-12.41a12.82,12.82,0,0,0-7.71-10.79,12.58,12.58,0,0,0-14,3.19c-1.3,1.43.82,3.56,2.12,2.12A9.63,9.63,0,0,1,689,329.53a9.92,9.92,0,0,1,6.22,9.39c.07,3.2-.63,7.93-3.78,9.66-4.23,2.31-7.26-3.43-8.55-6.47-1.07-2.52-2.09-5.06-3.17-7.57-.84-2-2.68-4-5-2.77-1.69.92-.18,3.51,1.52,2.59Z" transform="translate(-200.01 -72.16)"/><path class="cls-1" d="M693,365.23q2.12,4.2,4.36,8.35c1.2,2.22,2.31,5.06,4.26,6.75,4.51,3.89,9.74-2,11.75-5.74a16.13,16.13,0,0,0,.8-14.09,13.7,13.7,0,0,0-10.34-8.15,12.22,12.22,0,0,0-12.48,6.41c-.83,1.73,1.75,3.25,2.59,1.51a9.16,9.16,0,0,1,8.16-5,10.18,10.18,0,0,1,8.65,5.19,12.58,12.58,0,0,1,.7,11.21c-.87,2.22-5.11,9.31-8.09,6.21a14.64,14.64,0,0,1-1.9-3c-.67-1.19-1.32-2.39-2-3.6-1.34-2.48-2.63-5-3.9-7.5-.86-1.72-3.45-.21-2.59,1.52Z" transform="translate(-200.01 -72.16)"/><path class="cls-1" d="M709.38,389c.86,2.29,1.67,4.6,2.62,6.84a14.78,14.78,0,0,0,3.51,5.35c3.25,2.89,8,3.26,11-.2,5.4-6.26,3.89-18.44-5-20.59a8.79,8.79,0,0,0-10.32,5.44c-.65,1.82,2.25,2.6,2.89.79a5.76,5.76,0,0,1,6.06-3.46,7.84,7.84,0,0,1,6.09,5.51,11.66,11.66,0,0,1-1.45,9.66,4.61,4.61,0,0,1-3.25,2.2,5.48,5.48,0,0,1-4.15-1.68,13.19,13.19,0,0,1-2.85-4.65c-.81-2-1.52-4-2.27-6-.68-1.79-3.58-1-2.9.8Z" transform="translate(-200.01 -72.16)"/><path class="cls-1" d="M575.64,284.54c2.18,2.36,2.54,5.93,5.27,7.87,1.8,1.27,3.94,1,6,.71a16.81,16.81,0,0,0,6.23-2,7.6,7.6,0,0,0,3.54-4.8c.43-2.27-.56-4.31-1.93-6.06-2.37-3-5.57-6.25-9.72-5.93-3.88.3-7.62,3.09-8.31,7a1.54,1.54,0,0,0,1,1.85,1.51,1.51,0,0,0,1.84-1.05,6,6,0,0,1,4.9-4.76c3.12-.62,5.33,1.8,7.22,3.92,1,1.09,2.18,2.48,2.06,4.05a4.48,4.48,0,0,1-2.4,3.29,15,15,0,0,1-5.12,1.49c-1.4.24-2.89.5-4-.55a10.82,10.82,0,0,1-2-3.33,15.63,15.63,0,0,0-2.45-3.9c-1.32-1.42-3.44.7-2.13,2.12Z" transform="translate(-200.01 -72.16)"/><path class="cls-1" d="M593.49,304.94a24.61,24.61,0,0,0,7.72,12.38,10.18,10.18,0,0,0,6.55,2.59,6.84,6.84,0,0,0,5.7-3c2.4-3.77.87-9.49-1.44-12.94s-6.4-6-10.81-5.39-8.44,4.27-8.4,8.91a1.5,1.5,0,0,0,3,0c0-2.88,2.38-5.05,5-5.78,3.1-.85,6.07.61,8,3s3.36,6.32,2.54,9.44A3.6,3.6,0,0,1,608,316.9a6.83,6.83,0,0,1-4.71-1.7,21.62,21.62,0,0,1-7-11.06,1.5,1.5,0,0,0-2.89.8Z" transform="translate(-200.01 -72.16)"/><path class="cls-1" d="M616.18,335.27l4,8.24c1,2.16,2,4.49,3.6,6.28,3,3.31,8,2.92,11.22.14,3.58-3.08,3.81-8.48,2.14-12.6a19.81,19.81,0,0,0-4.13-6.19,32.34,32.34,0,0,0-5.51-4.81,5.7,5.7,0,0,0-7.14.65c-2.11,1.88-2.68,4.74-3.08,7.4a1.56,1.56,0,0,0,1,1.85,1.52,1.52,0,0,0,1.85-1.05c.27-1.84.5-4,1.72-5.49a2.9,2.9,0,0,1,4.23-.67,24.39,24.39,0,0,1,7.9,8.63c1.5,3.08,1.81,7.45-.92,10-2.31,2.12-5.71,2.14-7.63-.46a37.33,37.33,0,0,1-3.21-6.18l-3.47-7.22c-.84-1.74-3.42-.22-2.59,1.52Z" transform="translate(-200.01 -72.16)"/><path class="cls-1" d="M634.21,361.66A43.59,43.59,0,0,0,643,372.82a11.23,11.23,0,0,0,5.74,3.13,5.2,5.2,0,0,0,5.41-2.75c2.22-4.09.79-9.09-1.51-12.79a32.41,32.41,0,0,0-4.37-5.46,14.55,14.55,0,0,0-5.35-3.84,6,6,0,0,0-6.26,1.18,4.73,4.73,0,0,0-1.12,5.89c1,1.64,3.6.14,2.6-1.52-.61-1,.27-2.09,1.15-2.6a3.77,3.77,0,0,1,3.84.45,22.72,22.72,0,0,1,6.92,7.41c1.68,2.72,3,6.32,1.66,9.46-1.63,3.74-5.8.1-7.54-1.58a41.14,41.14,0,0,1-7.36-9.65c-.94-1.69-3.53-.18-2.59,1.51Z" transform="translate(-200.01 -72.16)"/><path class="cls-1" d="M657.81,377.35a6,6,0,0,0-1.58,5.4,13,13,0,0,0,2.94,5.51,60.19,60.19,0,0,0,9.2,9.74c1.59,1.31,3.73,2,5.33.29s1.56-4,1.19-6a26.31,26.31,0,0,0-2.3-6.28,42.23,42.23,0,0,0-3.31-5.77c-1.28-1.87-2.83-4-5.16-4.54a4.66,4.66,0,0,0-5.23,2,1.5,1.5,0,0,0,2.59,1.51,1.82,1.82,0,0,1,2.42-.42,8.74,8.74,0,0,1,3,3.25,39.2,39.2,0,0,1,4.51,8.84,7.68,7.68,0,0,1,.57,4.4c-.13.45-.28,1.07-.78,1s-1.36-1-1.75-1.35a65.83,65.83,0,0,1-6.78-7.09c-1.57-1.91-5.3-5.91-2.73-8.39,1.39-1.34-.73-3.46-2.12-2.12Z" transform="translate(-200.01 -72.16)"/><path class="cls-1" d="M675.7,403.32a5.55,5.55,0,0,0-4,4.49c-.46,2.48.54,4.87,1.76,7,2.22,3.85,5.24,7.64,9.45,9.39,1.92.81,4.61,1.53,6.27-.18s1.34-5,1.23-7.19c-.22-4.62-.93-10.25-4.23-13.79a7.54,7.54,0,0,0-6-2.44,5.89,5.89,0,0,0-5.17,3.3,1.55,1.55,0,0,0,.54,2.05,1.5,1.5,0,0,0,2-.53c1-2.42,4.33-2.24,6.05-.68,2.57,2.35,3.23,6.45,3.6,9.74a32.52,32.52,0,0,1,.17,6.16c0,.46-.08,1.17-.55,1.39s-1.73-.19-2.3-.39c-3.09-1.06-5.46-3.69-7.24-6.33a14.67,14.67,0,0,1-2.67-5.43c-.25-1.48.28-3.28,1.89-3.65,1.88-.43,1.09-3.33-.8-2.89Z" transform="translate(-200.01 -72.16)"/><path class="cls-1" d="M656.81,247.93c-4.4,2.84-4.26,8.59-1.87,12.71s6.68,7.76,11.3,8.73a7.1,7.1,0,0,0,6.71-1.94,9.85,9.85,0,0,0,2.63-5.71,12.34,12.34,0,0,0-4.83-11.05c-4.1-3.12-9.73-3.54-14.55-2.06-1.84.56-1.06,3.46.79,2.89a14,14,0,0,1,10.2.48,9.64,9.64,0,0,1,5.4,7.36c.37,2.73-.84,6.76-4,7.21-1.93.27-4-.86-5.56-1.84a17,17,0,0,1-4.26-3.8c-2.19-2.75-4.17-8-.41-10.39,1.61-1,.11-3.64-1.52-2.59Z" transform="translate(-200.01 -72.16)"/><path class="cls-1" d="M670.47,280.54q1.89,2.91,3.84,5.78a34.28,34.28,0,0,0,3.7,5,6,6,0,0,0,5.1,1.94,6.83,6.83,0,0,0,4.58-3.08,13.3,13.3,0,0,0,1.8-5.83,17,17,0,0,0-.11-5.14c-.6-3.42-2.85-6.51-6.41-7.2-4.94-1-9,2.18-12.54,5.19-1.47,1.26.66,3.37,2.12,2.12,2.37-2,5.05-4.37,8.33-4.48a5.21,5.21,0,0,1,5.4,4.23,14.17,14.17,0,0,1-.49,8.25,4.52,4.52,0,0,1-2.72,2.89c-1.3.4-2.36-.37-3.21-1.3a38.5,38.5,0,0,1-3.24-4.54c-1.21-1.77-2.39-3.56-3.56-5.35-1-1.61-3.64-.11-2.59,1.51Z" transform="translate(-200.01 -72.16)"/><path class="cls-1" d="M684.71,304.48a53,53,0,0,0,7.41,13c1.22,1.57,2.9,4.37,5.16,4.34,2.06,0,4.07-2.27,5.44-3.6,3.17-3,5.8-7.32,4-11.8a13.08,13.08,0,0,0-3.92-5,28.89,28.89,0,0,0-5.71-4c-4.83-2.37-10.18-.24-12.85,4.27a1.5,1.5,0,0,0,2.59,1.51c1.67-2.81,5-4.68,8.22-3.42a20.31,20.31,0,0,1,4.71,3,14.6,14.6,0,0,1,3.62,3.65c1.92,3.08.43,6.24-1.8,8.66-.61.65-1.25,1.27-1.91,1.85a11.51,11.51,0,0,1-2.11,1.72c-.4.2-.31.16-.64-.11a7.18,7.18,0,0,1-.86-1c-.68-.77-1.33-1.57-2-2.38a49,49,0,0,1-6.52-11.53c-.71-1.77-3.61-1-2.9.8Z" transform="translate(-200.01 -72.16)"/><path class="cls-1" d="M704.52,332.67,709.1,340a26.05,26.05,0,0,0,4.21,5.77,6.64,6.64,0,0,0,6.12,1.75,8.41,8.41,0,0,0,4.93-4.1c4.16-7.19.2-18.36-8.7-19a10,10,0,0,0-10.18,6.13,1.5,1.5,0,0,0,1,1.84,1.52,1.52,0,0,0,1.85-1c1-2.54,3.77-3.89,6.35-3.95a7.7,7.7,0,0,1,7,4.3,11.15,11.15,0,0,1,.52,9.18,6.58,6.58,0,0,1-3,3.55,3.59,3.59,0,0,1-4-1,26.86,26.86,0,0,1-3.73-5.29l-4.38-7c-1-1.63-3.62-.13-2.59,1.51Z" transform="translate(-200.01 -72.16)"/><path class="cls-1" d="M720.56,360.66a44.79,44.79,0,0,0,7.09,10.52c1.35,1.5,2.91,3.52,5.19,3.06,1.79-.37,3.61-1.92,4.94-3.11,2.84-2.56,4.61-6.18,3.78-10a9.53,9.53,0,0,0-7-7.27,9.79,9.79,0,0,0-10.38,4.6,1.5,1.5,0,0,0,2.59,1.51,6.77,6.77,0,0,1,6.29-3.31,6.37,6.37,0,0,1,5.44,4.53c.87,2.79-.32,5.4-2.31,7.38a12.21,12.21,0,0,1-3.69,2.69c-.56.21-.82-.19-1.21-.57-.62-.63-1.23-1.28-1.81-1.94a42.25,42.25,0,0,1-6.31-9.56c-.84-1.74-3.43-.22-2.59,1.51Z" transform="translate(-200.01 -72.16)"/><path class="cls-1" d="M641.76,237.66a15.64,15.64,0,0,0,4.47,4.93,6.89,6.89,0,0,0,6.56.35,9.6,9.6,0,0,0,4.51-4.52c.59-1.19,1.06-2.58.29-3.82a3.46,3.46,0,0,0-2.93-1.41,19.32,19.32,0,0,0-4.13.59c-1.51.29-3,.65-4.5,1.07a1.5,1.5,0,0,0,.8,2.89c1.32-.37,2.65-.69,4-1a20.6,20.6,0,0,1,3.57-.58c.08,0,.59,0,.45,0a1.92,1.92,0,0,1,.32.09.16.16,0,0,1-.13-.09c.12.12.14.14,0,.05s-.08-.25-.07-.15-.18.55-.21.63a7.57,7.57,0,0,1-1.66,2.37,4.37,4.37,0,0,1-4.8,1.23c-1.77-.78-3-2.62-4-4.18s-3.66-.1-2.59,1.51Z" transform="translate(-200.01 -72.16)"/><path class="cls-1" d="M667,239.64a18.24,18.24,0,0,0,3.31,6.17,6.5,6.5,0,0,0,6.48,2.17,6.14,6.14,0,0,0,.91-11.6,6.81,6.81,0,0,0-4.54-.34,26,26,0,0,1-4.26,1.17,1.5,1.5,0,0,0,0,3,13.71,13.71,0,0,0,3.58-.83,8.46,8.46,0,0,1,2.94-.59c.31,0,.15,0,.08,0l.38.08.3.1c.25.08-.15-.08.08,0a3.68,3.68,0,0,1,1.07.71,2.83,2.83,0,0,1,.65.8s.28.54.2.35a5,5,0,0,1,.22.75c.07.3,0,.15,0,.07,0,.13,0,.27,0,.4s0,.21,0,.32,0-.19,0,.07a2.81,2.81,0,0,1-.47,1.17,3.6,3.6,0,0,1-.69.78c-.21.19-.12.11-.06.06l-.33.22-.27.16c-.06,0-.32.16-.15.08a2.76,2.76,0,0,1-1.13.25h-.32s-.29,0-.05,0a5.49,5.49,0,0,1-.7-.17l-.27-.1c.07,0,.21.11,0,0l-.49-.28a4,4,0,0,1-.81-.69,6.8,6.8,0,0,1-.5-.57c.13.17,0,0,0-.06l-.27-.37c-.29-.44-.55-.9-.8-1.37a19,19,0,0,1-1.13-2.7,1.56,1.56,0,0,0-1.85-1.05,1.52,1.52,0,0,0-1,1.85Z" transform="translate(-200.01 -72.16)"/><path class="cls-1" d="M679.54,258.09c2.57.8,3.86,4.07,5.22,6.25,1.75,2.82,4.32,5.33,7.94,4.54,4.5-1,7.27-6.36,7.61-10.59a9.44,9.44,0,0,0-18.4-3.72c-.63,1.83,2.26,2.61,2.89.8a6.54,6.54,0,0,1,7.53-4.21,6.7,6.7,0,0,1,4.92,7.64c-.44,2.79-2.86,7.67-6.25,7.23-2.15-.28-3.4-2.74-4.47-4.58-1.51-2.59-3.16-5.31-6.19-6.25-1.85-.58-2.64,2.32-.8,2.89Z" transform="translate(-200.01 -72.16)"/><path class="cls-1" d="M697,277.78l4.65,6.72,2.33,3.36a14,14,0,0,0,2.12,2.78c1.95,1.66,4.51.57,6.45-.54a11.73,11.73,0,0,0,4.76-5,12.74,12.74,0,0,0-.49-12.32,11.29,11.29,0,0,0-10.8-5.09,10.14,10.14,0,0,0-8.56,9.07c-.17,1.92,2.83,1.91,3,0a7.11,7.11,0,0,1,5.2-5.95,8.1,8.1,0,0,1,8.14,2.89,9.56,9.56,0,0,1,1.23,9.17,8.68,8.68,0,0,1-3.08,4.06,12.12,12.12,0,0,1-2.32,1.26c-.78.31-1.32.5-1.9-.19-1.46-1.75-2.65-3.83-4-5.71l-4.19-6c-1.09-1.58-3.69-.08-2.59,1.51Z" transform="translate(-200.01 -72.16)"/><path class="cls-1" d="M709.9,303.38l5,7.34c1.54,2.27,3,4.66,4.68,6.82,2.84,3.6,8,2.39,10.65-.82a11.68,11.68,0,0,0,1.58-11.7,25.23,25.23,0,0,0-3.83-6.35c-1.38-1.74-2.93-4-4.94-5.08-2.5-1.3-5.37.1-7.56,1.41a21.34,21.34,0,0,0-6.1,5.53c-1.17,1.54,1.43,3,2.59,1.52a17.2,17.2,0,0,1,4.21-3.95c1.27-.85,3.6-2.48,5.21-2a5,5,0,0,1,1.91,1.63c.65.74,1.3,1.49,1.93,2.25a26.11,26.11,0,0,1,3.2,4.74c1.53,3,1.85,6.46,0,9.4a5.54,5.54,0,0,1-3,2.44c-1.87.55-3-.29-4.05-1.79l-8.81-12.94c-1.08-1.59-3.68-.09-2.59,1.51Z" transform="translate(-200.01 -72.16)"/><path class="cls-1" d="M731.29,331q2.3,5.19,4.93,10.2c.78,1.48,2,2.88,3.85,2.45,1.53-.35,2.83-1.92,3.8-3.07,2-2.32,3.45-5.26,3.07-8.37a7.46,7.46,0,0,0-4.89-6.46c-3.84-1.2-7.57,1.46-10.23,3.93-1.42,1.31.7,3.43,2.12,2.12,1.7-1.57,3.95-3.47,6.42-3.33,2,.12,3.19,1.83,3.55,3.64a7.58,7.58,0,0,1-1.8,5.9,12.58,12.58,0,0,1-2.41,2.53l-.28.17c-.22.14,0,0,0,0a.82.82,0,0,1-.17-.2,18.77,18.77,0,0,0-.95-1.76q-2.37-4.57-4.46-9.29a1.51,1.51,0,0,0-2-.54,1.53,1.53,0,0,0-.54,2.05Z" transform="translate(-200.01 -72.16)"/><path class="cls-1" d="M748.21,356.06a1.21,1.21,0,0,1,1-.71c-.09,0-.28-.06.09,0-.14,0,0-.07,0,0l.07,0-.16-.09c-.17-.14.19.13,0,0a.8.8,0,0,1-.13-.13c.19.19.06.09,0,0s-.14-.27-.21-.4a11.58,11.58,0,0,1-.92-2.45,10.62,10.62,0,0,1-.36-2.49,12.34,12.34,0,0,1,0-1.36l0-.35c0-.18,0,0,0,0l.06-.29s.13-.37.07-.25.19-.4.08-.12c0,0-.14.11-.15.07a1.73,1.73,0,0,1,.31-.08c-.22,0,.27,0,.33,0s.35,0,.18,0,.21,0,.24.05a7.19,7.19,0,0,1,1,.3,7.38,7.38,0,0,1,.94.55c.14.1,0,0,0,0l.23.19.43.42c.05.06.09.12.14.17s-.1-.15,0,.05a5.5,5.5,0,0,1,.36.57c0,.06.06.13.1.2.11.22-.06-.18,0,.05a4.58,4.58,0,0,1,.15.49,2.61,2.61,0,0,1,.06.27c0-.06,0-.29,0,0a5.24,5.24,0,0,1,0,.56,2.45,2.45,0,0,1,0,.27c0,.29,0-.08,0,.09s-.08.36-.13.53l-.09.27c-.06.15.09-.16,0,.08s-.17.33-.27.49l-.15.23c.15-.22,0,0-.06.07a6,6,0,0,1-.44.43c.2-.18-.17.11-.25.16l-.23.13c-.28.15.17-.06-.15.06a1.5,1.5,0,0,0,.79,2.89,6.16,6.16,0,0,0,4-5.29,6.62,6.62,0,0,0-3.06-6c-1.92-1.32-5.46-2.19-6.9.22a7.09,7.09,0,0,0-.63,3.83,14.56,14.56,0,0,0,.67,4,8.05,8.05,0,0,0,2,3.72c1.29,1.07,3.27,1.15,3.9-.68a1.5,1.5,0,1,0-2.89-.8Z" transform="translate(-200.01 -72.16)"/><path class="cls-1" d="M743.78,383.53a16.36,16.36,0,0,1-2.37-3.83,4.87,4.87,0,0,1-.38-2c0-.07,0-.41,0-.3s.06-.24.08-.31.15-.47.07-.27a2.88,2.88,0,0,1,.24-.46c.07-.13.15-.25.23-.38s-.12.14,0,0l.15-.16c.1-.11.2-.21.31-.31s.19-.15.07-.06.11-.07.14-.08a3.5,3.5,0,0,1,.42-.24c-.23.1.07,0,.16,0s.38,0,.13,0c.11,0,.56.06.28,0,.14,0,.28.07.41.12-.22-.08.07.06.14.1s.2.14.08,0,.08.09.11.11.3.37.17.18c.08.12.14.24.22.36s0-.08.07.17a2.64,2.64,0,0,1,.14.48c0,.07,0,.14,0,.21,0-.16,0-.09,0,0a5.42,5.42,0,0,1,0,.57s0-.2,0,0,0,.21-.06.32a4.21,4.21,0,0,1-.36,1,7.14,7.14,0,0,1-1.39,1.84c-1.36,1.37.76,3.5,2.12,2.12a8.41,8.41,0,0,0,2.7-5.38,5.19,5.19,0,0,0-2.57-4.74,4.6,4.6,0,0,0-5.35,1,6.25,6.25,0,0,0-1.7,5.5c.35,2.25,1.72,4.19,3.05,6a1.54,1.54,0,0,0,2,.54,1.52,1.52,0,0,0,.54-2.06Z" transform="translate(-200.01 -72.16)"/><path class="cls-1" d="M569.6,296.43c-3.18,2.39-6.55,5.79-6,10.12a11.24,11.24,0,0,0,2.9,5.74c1.52,1.82,3.1,3.66,4.76,5.34,1.47,1.49,3.33,2.93,5.48,3.14a5.23,5.23,0,0,0,4.84-2.57,52.91,52.91,0,0,0,3.38-6.24,8.73,8.73,0,0,0,.88-6.46c-1.5-5.11-6.67-7.17-11.27-8.7-1.83-.61-2.62,2.29-.79,2.89,3.12,1,6.7,2.18,8.51,5.16a5.17,5.17,0,0,1,.51,4.63,41.81,41.81,0,0,1-2.56,5c-.6,1.12-1.28,3.06-2.72,3.32s-2.85-1-3.77-1.91c-1.32-1.25-2.47-2.69-3.68-4.05a16.37,16.37,0,0,1-3.14-4.26c-1.47-3.5,1.63-6.61,4.2-8.54a1.55,1.55,0,0,0,.54-2,1.5,1.5,0,0,0-2-.54Z" transform="translate(-200.01 -72.16)"/><path class="cls-1" d="M594,321.58a5.6,5.6,0,0,0-6.53.61,7.49,7.49,0,0,0-2.52,7.13,20.85,20.85,0,0,0,3.21,8,26.48,26.48,0,0,0,5,6c3.29,2.89,10.37,7.06,14.15,2.82,4-4.52,1.86-11.63-.68-16.27a49.33,49.33,0,0,0-2.7-4.31,22.66,22.66,0,0,0-3-3.79c-2.21-2-5.55-2.46-7.52.1a1.52,1.52,0,0,0,.54,2,1.53,1.53,0,0,0,2-.54c.39-.5,1.35-.36,1.84-.15a6.11,6.11,0,0,1,2.26,2.17,56.64,56.64,0,0,1,3.69,5.62c2,3.53,3.79,8.21,1.85,12.16-1.85,3.78-7.48.37-9.72-1.41a24.62,24.62,0,0,1-6.91-9.21c-.9-2-1.81-4.7-.72-6.79.75-1.46,2.67-2.56,4.18-1.58s3.13-1.55,1.52-2.59Z" transform="translate(-200.01 -72.16)"/><path class="cls-1" d="M614.55,352.24c-4.83-.77-8.69,3.34-8.69,8,0,5.3,3.88,9.34,7.68,12.52,3.34,2.79,8.76,5.74,12.48,1.85,1.51-1.59,2.09-3.73,3.22-5.56a7.72,7.72,0,0,0,1.41-3.18,5.35,5.35,0,0,0-1.46-3.73A46.14,46.14,0,0,0,617,350.75c-1.63-1.05-3.14,1.55-1.52,2.59a43,43,0,0,1,8.79,7.47c.66.74,1.31,1.5,1.92,2.28s1.53,1.62,1.52,2.46-.76,1.55-1.13,2.17c-.47.79-.84,1.62-1.23,2.44-.66,1.39-1.44,3-3.1,3.31s-3.46-.63-4.83-1.52a27.81,27.81,0,0,1-4.37-3.66,14.87,14.87,0,0,1-3.41-4.61,7.07,7.07,0,0,1-.14-6.06,4.39,4.39,0,0,1,4.29-2.48c1.88.3,2.7-2.59.79-2.9Z" transform="translate(-200.01 -72.16)"/><path class="cls-1" d="M634.78,376.3c-4.48,0-7.08,4.81-6.27,8.82.93,4.66,5.31,8.09,9,10.55a34.25,34.25,0,0,0,3.09,1.82,10.2,10.2,0,0,0,3.82,1.44c2.39.16,4-1.65,4.59-3.78a16.58,16.58,0,0,0,.24-6.62,17.76,17.76,0,0,0-2.14-6.73c-2.57-4.48-7.65-7.34-12.83-6.35-1.89.37-1.09,3.26.8,2.9,3.26-.63,6.61,1.11,8.58,3.65,2.2,2.82,2.87,6.56,2.76,10.05,0,1.09-.07,3-1.11,3.72-.68.45-1.59-.08-2.23-.38-.86-.42-1.71-.87-2.53-1.36-3.11-1.82-6.5-4.21-8.33-7.4a5.63,5.63,0,0,1-.64-4.8,3.51,3.51,0,0,1,3.15-2.53,1.5,1.5,0,0,0,0-3Z" transform="translate(-200.01 -72.16)"/><path class="cls-1" d="M658.4,402.06c-2.56-2.78-7.35-2.42-9.85.26-2.9,3.12-2.61,8.09-.34,11.47a15.74,15.74,0,0,0,4.58,4.36,14.69,14.69,0,0,0,6,2.43c4.22.49,7.37-2.89,7.88-6.86.6-4.76-2.86-8.71-6.53-11.22a1.51,1.51,0,0,0-2,.54,1.53,1.53,0,0,0,.54,2c2.33,1.6,4.74,4,5.09,6.92.26,2.24-.94,5.11-3.37,5.57-1.64.31-3.34-.48-4.74-1.24a15,15,0,0,1-3.8-2.8c-1.94-2-3.16-5.12-2-7.84,1-2.38,4.46-3.62,6.39-1.52,1.31,1.42,3.43-.7,2.13-2.12Z" transform="translate(-200.01 -72.16)"/><path class="cls-1" d="M668.29,428.48c-.49-.46-1-.93-1.4-1.43-.11-.14-.11-.14,0,0l-.15-.22a3.35,3.35,0,0,1-.27-.45l-.12-.23c.06.14.06.16,0,.06a3.73,3.73,0,0,1-.14-.44,1.18,1.18,0,0,1,0-.2c0,.23,0,.26,0,.09s0-.39,0-.42c0,.2,0,.25,0,.13l0-.15c0-.09.06-.35.13-.4-.09.19-.1.22,0,.07l.1-.18.11-.17c-.12.16-.15.19-.07.11l.1-.11c.12-.1.09-.09-.08.05l.16-.11q.23-.11-.09,0a.6.6,0,0,1,.19-.06c.16,0,.13,0-.1,0,.07-.05.43,0,.14,0,.07,0,.56.19.29.07a4.67,4.67,0,0,1,.49.27c.16.1.31.21.46.32s.37.27.15.1c.3.23.59.48.87.73a16.22,16.22,0,0,1,1.5,1.49c.22.24.43.5.64.75s.12.15,0,0c0,.08.11.15.17.23l.33.46.89-2.21a6.88,6.88,0,0,1-1,.32l-.43.1-.29,0c.13,0,.14,0,0,0-.32,0-.63,0-1,0-.15,0-.29,0-.44,0s-.19,0,0,0l-.29-.05a1.5,1.5,0,1,0-.79,2.89,8.78,8.78,0,0,0,5-.4,1.54,1.54,0,0,0,1-.86,1.42,1.42,0,0,0-.07-1.34,20.82,20.82,0,0,0-2.77-3.23,10.21,10.21,0,0,0-3.69-2.52A3.46,3.46,0,0,0,664,423a4.43,4.43,0,0,0-.56,3.73,9.1,9.1,0,0,0,2.78,3.85,1.53,1.53,0,0,0,2.12,0,1.51,1.51,0,0,0,0-2.12Z" transform="translate(-200.01 -72.16)"/><path class="cls-1" d="M553.84,310.82a6.72,6.72,0,0,1-1,11.1l2.21.9a24.4,24.4,0,0,1,.24-11.08c.48-1.87-2.41-2.67-2.89-.8a28,28,0,0,0-.25,12.68,1.52,1.52,0,0,0,2.21.89A9.74,9.74,0,0,0,556,308.7a1.54,1.54,0,0,0-2.12,0,1.5,1.5,0,0,0,0,2.12Z" transform="translate(-200.01 -72.16)"/><path class="cls-1" d="M562,332.93c1-2.46,2.77-6.11,6-5.79a7.91,7.91,0,0,1,4.3,2.39,25.74,25.74,0,0,1,3.56,4.1c1.74,2.49,3.65,6.5.68,8.88-2.38,1.91-5.72,1.25-7.94-.56-3.4-2.77-4.54-7.23-5.6-11.29a1.51,1.51,0,0,0-2.9.8c1.2,4.56,2.61,9.47,6.38,12.62,3.21,2.67,7.88,3.62,11.48,1.1a7.24,7.24,0,0,0,3.11-5.35,11,11,0,0,0-1.83-6.49,27.55,27.55,0,0,0-4.37-5.49,12.25,12.25,0,0,0-5.57-3.51,7.13,7.13,0,0,0-6.58,1.84,16.62,16.62,0,0,0-3.61,6,1.5,1.5,0,0,0,1.05,1.84,1.52,1.52,0,0,0,1.84-1.05Z" transform="translate(-200.01 -72.16)"/><path class="cls-1" d="M579.7,358.86c2.61-3,7.17-7.73,11.06-3.73a55.82,55.82,0,0,1,8.66,12.48,5.44,5.44,0,0,1,1,2.88,3.88,3.88,0,0,1-1.71,2.51,8,8,0,0,1-5.19,1.41,12.94,12.94,0,0,1-9.66-5.72c-3-4.33-4-9.63-4.75-14.73-.3-1.9-3.19-1.1-2.9.8.85,5.46,2,11.19,5.29,15.77a16,16,0,0,0,12.35,6.89c4.59.09,11-3.34,9.31-8.81a19.3,19.3,0,0,0-1.9-3.87c-.8-1.42-1.66-2.8-2.56-4.16a60.21,60.21,0,0,0-5.54-7.28A7.7,7.7,0,0,0,585,351c-3.1.95-5.32,3.38-7.37,5.76-1.25,1.45.86,3.58,2.12,2.12Z" transform="translate(-200.01 -72.16)"/><path class="cls-1" d="M602.73,387c1.63-2.25,4.18-5.67,7.39-4.92,1.84.43,3.42,1.91,4.8,3.13a44.14,44.14,0,0,1,4.14,4.18,22.27,22.27,0,0,1,3.36,4.62c.28.58.58,1.3,0,1.76a6.5,6.5,0,0,1-2.39.88,13,13,0,0,1-16.09-11.11,1.54,1.54,0,0,0-1.5-1.5,1.51,1.51,0,0,0-1.5,1.5,16.47,16.47,0,0,0,6.31,11.3,16.22,16.22,0,0,0,13.4,2.75c2-.48,4.49-1.31,5-3.59s-1.22-4.56-2.52-6.28a46,46,0,0,0-5.09-5.71,22.64,22.64,0,0,0-5.76-4.32c-5.22-2.37-9.34,1.89-12.16,5.79-1.13,1.57,1.47,3.07,2.59,1.52Z" transform="translate(-200.01 -72.16)"/><path class="cls-1" d="M622.06,409.94c4.61-2.64,11.1-2.07,14.81,1.91a4.6,4.6,0,0,1,1.42,3.51,2.45,2.45,0,0,1-2,2.27,7.28,7.28,0,0,1-3.68-.53,36.6,36.6,0,0,1-3.77-1.58c-2.69-1.26-5.32-2.85-6.69-5.59-.87-1.73-3.46-.21-2.6,1.51,1.58,3.13,4.57,5.15,7.65,6.61s6.64,3.29,10,2.45c3.81-.95,4.9-5.31,3.34-8.55s-5.11-5.3-8.43-6.14a15.69,15.69,0,0,0-11.58,1.54,1.5,1.5,0,0,0,1.51,2.59Z" transform="translate(-200.01 -72.16)"/><path class="cls-1" d="M640.3,428.38a2.74,2.74,0,0,1,1.74-1.25,4.56,4.56,0,0,1,2.56.07c2.2.66,3.83,2.64,5.3,4.3l.66-2.51a20.36,20.36,0,0,1-12.19-1.82,1.55,1.55,0,0,0-2,.54,1.51,1.51,0,0,0,.54,2.05,23.72,23.72,0,0,0,14.5,2.12c1.19-.2,1.33-1.75.66-2.5-1.93-2.18-4.17-4.59-7.15-5.21-2.68-.56-5.7.22-7.16,2.69a1.5,1.5,0,0,0,2.59,1.52Z" transform="translate(-200.01 -72.16)"/><path class="cls-1" d="M621.09,243.27a7.67,7.67,0,0,0,8.34-3.05,1.44,1.44,0,0,0,.07-1.34,1.58,1.58,0,0,0-1-.87,6.38,6.38,0,0,0-5.63.64,1.5,1.5,0,0,0,1.52,2.59l.45-.27a1.55,1.55,0,0,0,.29-.14c-.07.06-.25.1-.06,0l.51-.15.31-.06c.28-.06-.22,0,0,0l.53,0h.27s.36,0,.11,0,.1,0,.12,0a1.22,1.22,0,0,1,.26.06,3.54,3.54,0,0,1,.55.18l-.89-2.21-.14.2c-.1.15.24-.29,0-.05a4.12,4.12,0,0,1-.28.31c-.1.1-.2.2-.31.29l-.18.16c-.14.13.24-.17.09-.07a8.78,8.78,0,0,1-.76.48l-.38.19c-.17.08.31-.12.05,0l-.22.09a7.44,7.44,0,0,1-.81.22l-.23,0c-.21,0,0,0,.11,0-.15,0-.31,0-.46,0a6,6,0,0,1-.85,0c-.32,0,.26,0,.08,0l-.24,0-.45-.12a1.53,1.53,0,0,0-1.85,1,1.54,1.54,0,0,0,1.05,1.85Z" transform="translate(-200.01 -72.16)"/><path class="cls-1" d="M562.9,293.65l2.25-3.34a1.5,1.5,0,0,0-.54-2.05,1.47,1.47,0,0,0-1.16-.15,1.61,1.61,0,0,0-.89.69l-2.25,3.34a1.5,1.5,0,0,0,.54,2.05,1.54,1.54,0,0,0,1.15.15,1.67,1.67,0,0,0,.9-.69Z" transform="translate(-200.01 -72.16)"/><path class="cls-1" d="M574.71,272.06l0,0,.15.36a.83.83,0,0,1,0-.15l.05.39v-.18l-.05.4a.7.7,0,0,1,.06-.19l-.16.35.12-.2-.23.31a.77.77,0,0,1,.18-.18l-.31.23.21-.12-.36.16a.66.66,0,0,1,.2-.06l-.4.05h.17l-.4-.05.15,0-.36-.15.05,0a1.12,1.12,0,0,0,.56.18,1.08,1.08,0,0,0,.59,0,1,1,0,0,0,.51-.27,1,1,0,0,0,.39-.42l.15-.35a1.55,1.55,0,0,0,0-.8l-.15-.36a1.4,1.4,0,0,0-.54-.54l0,0a2.78,2.78,0,0,0-.4-.16l-.09,0-.44-.06h-.14l-.43.06h-.05l-.09,0a2.5,2.5,0,0,0-.53.23,1.84,1.84,0,0,0-.22.17l-.23.18-.07.07c-.1.12-.2.25-.29.38a1,1,0,0,0-.1.17,3.2,3.2,0,0,0-.17.43.54.54,0,0,0,0,.1,2.35,2.35,0,0,0-.06.6,3.11,3.11,0,0,0,.08.49,2.62,2.62,0,0,0,.19.46,1.18,1.18,0,0,0,.38.42,1.26,1.26,0,0,0,.51.27,1.22,1.22,0,0,0,.6,0,1.12,1.12,0,0,0,.56-.18l.3-.24a1.44,1.44,0,0,0,.39-.66l0-.4a1.57,1.57,0,0,0-.2-.76Z" transform="translate(-200.01 -72.16)"/><path class="cls-1" d="M711.16,248.45c-2.67-.77-5,1.56-5.42,4.08-.42,2.83,1.54,5.16,3.62,6.82s5.15,4,8,2.34c2.27-1.32,2.58-4.39,1.88-6.68a12,12,0,0,0-5.59-6.83,1.5,1.5,0,0,0-1.51,2.59,8.19,8.19,0,0,1,2.21,1.71,8.44,8.44,0,0,1,1.55,2.23,4.72,4.72,0,0,1,.23.49q.12.3.21.6a4.85,4.85,0,0,1,.16.63s.06.34,0,.16,0,.2,0,.24c0,.22,0,.43,0,.65s0,.24,0,.36c0-.07.06-.26,0,0s-.09.36-.14.54,0,.08,0,0a3,3,0,0,1-.19.35c-.12.23-.05.07,0,0L716,259c-.25.29.13-.06-.06.06a1.12,1.12,0,0,1-.24.13,1.53,1.53,0,0,1-.9,0,8.36,8.36,0,0,1-2.61-1.43,19.23,19.23,0,0,1-2.14-1.81,5.12,5.12,0,0,1-1.34-2.15,2.84,2.84,0,0,1-.06-.31c.05.31,0-.11,0-.16s0-.19,0-.28c0,.26,0-.08,0-.17a2.68,2.68,0,0,1,.07-.27c0-.06.18-.43.06-.18a3.76,3.76,0,0,1,.36-.61c0,.06-.17.17,0,0l.24-.25c.06,0,.3-.2.07,0a2.61,2.61,0,0,1,.28-.17c.19-.1-.31.05.06,0,0,0,.38-.07.17-.05s.19,0,.19,0c-.27,0,0,0,.13,0a1.5,1.5,0,0,0,.8-2.9Z" transform="translate(-200.01 -72.16)"/><path class="cls-1" d="M722.55,276.72a14,14,0,0,0,4.42,9.95c3.14,2.67,7.23.77,9.34-2.23a10.44,10.44,0,0,0,.88-9.83c-1.27-3.18-4-6.69-7.49-7.51a5,5,0,0,0-5.16,1.57,4.14,4.14,0,0,0-.49,5c1.1,1.58,3.7.08,2.59-1.51a1.28,1.28,0,0,1,.4-1.74,2.33,2.33,0,0,1,2.48-.2c2.23.89,4,3.32,4.89,5.49a7.64,7.64,0,0,1-.28,6.6c-.93,1.64-3.3,3.72-5.15,2.18a10.84,10.84,0,0,1-3.43-7.73c-.07-1.92-3.07-1.93-3,0Z" transform="translate(-200.01 -72.16)"/><path class="cls-1" d="M734.75,300.42a55.07,55.07,0,0,0,6.3,11.33c1.11,1.52,2.46,3.33,4.54,3.31s3.4-2,4.26-3.64a16.67,16.67,0,0,0,1.45-10.74c-.58-3.35-2.07-7.4-5.16-9.22-3.41-2-8.41.24-7.82,4.53a1.52,1.52,0,0,0,1.85,1.05,1.55,1.55,0,0,0,1.05-1.85c-.15-1,1.55-1.62,2.31-1.54,1.47.14,2.53,1.6,3.18,2.78a15.73,15.73,0,0,1,1.77,9.68,11.49,11.49,0,0,1-1.7,4.6c-.31.48-.8,1.44-1.44,1.3s-1.42-1.39-1.81-1.93a51.74,51.74,0,0,1-5.89-10.46,1.56,1.56,0,0,0-1.84-1.05,1.51,1.51,0,0,0-1,1.85Z" transform="translate(-200.01 -72.16)"/><path class="cls-1" d="M750.7,324.55a9.48,9.48,0,0,0,4.44,6,1.52,1.52,0,0,0,2.2-.9,12.2,12.2,0,0,0-1.05-11.07,3.39,3.39,0,0,0-2.59-1.9,2.19,2.19,0,0,0-2,1.2,6.08,6.08,0,0,0-.45,1.88c0,.3-.14.59-.19.88s0,.14,0-.06a1.62,1.62,0,0,1-.1.18c-.18.19.23-.2-.09.07a1.52,1.52,0,0,0,0,2.12,1.54,1.54,0,0,0,2.13,0c.94-.8,1-2,1.21-3.17,0-.21.12-.41.15-.62s0-.06-.07.17c.08-.14,0-.1-.11.11.08-.08.07-.07,0,0a.76.76,0,0,1-.32.17c-.27,0-.32,0-.15,0a.49.49,0,0,1-.4-.11s.08.08.15.17a9.24,9.24,0,0,1,1,9.12l2.2-.9a6.45,6.45,0,0,1-3.06-4.24,1.5,1.5,0,0,0-1.84-1,1.52,1.52,0,0,0-1,1.84Z" transform="translate(-200.01 -72.16)"/><path class="cls-1" d="M696.93,242.88a1,1,0,0,1,.26-.16l-.35.15a1.89,1.89,0,0,1,.34-.09l-.4.05a2.41,2.41,0,0,1,.38,0l-.4-.05a1.58,1.58,0,0,1,.36.09l-.36-.15a1.75,1.75,0,0,1,.27.16l-.31-.24,0,0a1.14,1.14,0,0,0,.48.31,1.08,1.08,0,0,0,.58.13,1.06,1.06,0,0,0,.58-.13,1,1,0,0,0,.48-.31,1.46,1.46,0,0,0,.44-1.06l-.05-.4a1.49,1.49,0,0,0-.39-.66,2.81,2.81,0,0,0-.48-.35,2.7,2.7,0,0,0-.55-.24l-.23-.07a4.07,4.07,0,0,0-.61-.07h-.23a4.17,4.17,0,0,0-.6.1,3.35,3.35,0,0,0-.55.23,1,1,0,0,0-.22.13,1.18,1.18,0,0,0-.42.38,1.13,1.13,0,0,0-.26.51,1,1,0,0,0,0,.6,1.12,1.12,0,0,0,.18.56,1.5,1.5,0,0,0,.89.69l.4.05a1.54,1.54,0,0,0,.76-.2Z" transform="translate(-200.01 -72.16)"/><path class="cls-1" d="M555.41,355.94c.8-1.67,2.3-4.87,4.67-4.12s3.58,4,4.64,5.93l2.58,4.77c.27.49.93,1.27.83,1.86a2.57,2.57,0,0,1-1,1.25,5.21,5.21,0,0,1-5.83.1c-2.42-1.58-3.15-4.73-2.82-7.43a1.5,1.5,0,0,0-1.5-1.5,1.54,1.54,0,0,0-1.5,1.5,10.59,10.59,0,0,0,3.53,9.45,8.32,8.32,0,0,0,9.26.73c1.49-.91,2.92-2.54,2.87-4.38a6.62,6.62,0,0,0-1.1-2.81l-1.72-3.17c-1-1.8-1.87-3.69-3-5.39a9.43,9.43,0,0,0-3.48-3.42,5.37,5.37,0,0,0-5.48.4,11.8,11.8,0,0,0-3.54,4.71,1.55,1.55,0,0,0,.53,2.06,1.53,1.53,0,0,0,2.06-.54Z" transform="translate(-200.01 -72.16)"/><path class="cls-1" d="M547.44,335.08l.21.13c.22.15.08,0,0,0,.1,0,.3.25.38.33l.31.32s.16.15.16.19-.19-.25,0,0a5.63,5.63,0,0,1,.49.81l.11.23c.08.17-.11-.3,0,0s.11.31.16.47.08.29.11.44a2,2,0,0,1,.05.24c0,.06.06.35,0,.1s0,.07,0,.1,0,.17,0,.25v.45c0,.09,0,.17,0,.25,0,.33,0,0,0-.05a4.19,4.19,0,0,0-.1.49,3,3,0,0,1-.12.43,2.25,2.25,0,0,1-.08.24c-.1.28.13-.29,0,0h2.59c.15.33,0,0,0-.08a1.51,1.51,0,0,1-.08-.34s0,.33,0,0v-.35c0-.33,0,0,0,0a2.37,2.37,0,0,1,.08-.34c0-.08.12-.43,0-.08a1.14,1.14,0,0,1,.16-.31,1.5,1.5,0,1,0-2.59-1.52,4.94,4.94,0,0,0-.15,4.55,1.51,1.51,0,0,0,2.59,0,7.55,7.55,0,0,0-2.71-9.46,1.51,1.51,0,0,0-2.05.53,1.54,1.54,0,0,0,.53,2.06Z" transform="translate(-200.01 -72.16)"/><path class="cls-1" d="M572,382c1.43-2.75,4.89-3.26,7.57-2.18a13.74,13.74,0,0,1,7,7.33c1.15,2.84,1,6.49-1.45,8.62-1.22,1.06-2.71,1.4-3.82,0a33.49,33.49,0,0,1-3-5,137,137,0,0,1-6.06-12.35,1.51,1.51,0,0,0-2.05-.54,1.54,1.54,0,0,0-.54,2.06,136.55,136.55,0,0,0,6.71,13.49c1.09,1.92,2.15,4.32,4.07,5.55s4.43.63,6.18-.69c3.4-2.58,4.33-7.29,3.09-11.24a16.77,16.77,0,0,0-8.6-9.88c-4.08-1.84-9.53-1-11.76,3.23-.9,1.71,1.69,3.23,2.59,1.51Z" transform="translate(-200.01 -72.16)"/><path class="cls-1" d="M598.77,406.78c.1-.93,1.31-1.45,2.1-1.55,1.41-.17,2.77.7,3.86,1.48a28.23,28.23,0,0,1,3.55,3,6.18,6.18,0,0,1,2.05,3.82c.1,1.56-.85,2.51-2.13,3.23a8.39,8.39,0,0,1-4.42,1.26c-2.36-.14-3.65-2.28-4.68-4.14-1.35-2.45-2.56-5-4.89-6.64a1.52,1.52,0,0,0-2.06.54,1.54,1.54,0,0,0,.54,2.05c2.3,1.66,3.21,4.75,4.7,7.05a9.84,9.84,0,0,0,3,3.15,7.61,7.61,0,0,0,5.55.78,12,12,0,0,0,5.53-2.75,6,6,0,0,0,1.69-5.63,9.75,9.75,0,0,0-3-5.05,30.1,30.1,0,0,0-4.67-3.75,7.34,7.34,0,0,0-6.15-1.1,5,5,0,0,0-3.6,4.26,1.5,1.5,0,0,0,1.5,1.5,1.54,1.54,0,0,0,1.5-1.5Z" transform="translate(-200.01 -72.16)"/><path class="cls-1" d="M619.08,428.15a2.06,2.06,0,0,1-.23-.41c.12.27,0,0,0-.12s-.07-.3,0-.08,0,0,0-.08,0-.34,0-.51c0,.3,0,.05,0-.11s.09-.25.13-.38c-.1.32,0-.08.1-.18s.19-.3.29-.46-.17.15,0,0,.08-.09.12-.13.23-.23.35-.34.22-.17,0,0l.19-.14c.14-.09.28-.16.42-.24s0,0,0,0l.23-.08.4-.1c.21,0-.21,0,0,0l.29,0,.66,0c-.27,0,.16.05.24.06a4,4,0,0,1,.49.15l.27.1,0,0c.2.1.4.2.59.32l.44.29c.24.16.11.08,0,0l.24.19a8.53,8.53,0,0,1,.85.85c.07.08.13.16.2.23s-.14-.19,0,.06.21.3.3.45.12.19.17.29,0-.14,0,.1,0,0,0,0c.09.42-.1-.05.06-.06,0,0-.09.16-.1.17-.12.19.15-.13,0,0s-.24.21-.11.11-.06,0-.07,0l-.49.26-.09,0-.38.14a5.81,5.81,0,0,1-2.53.3,6.93,6.93,0,0,1-2.32-.66,1.5,1.5,0,1,0-1.51,2.59,9.43,9.43,0,0,0,6.93.73,5.61,5.61,0,0,0,3.06-1.88,3.26,3.26,0,0,0-.1-3.76,9,9,0,0,0-5.2-4,5.76,5.76,0,0,0-5.75,1.56,5,5,0,0,0-.87,6.08,1.5,1.5,0,0,0,2.59-1.52Z" transform="translate(-200.01 -72.16)"/><path class="cls-1" d="M555.4,379.87l2.39-1.92c.35-.28.73-.55,1.06-.85s.27,0-.07-.11l-.12-.07q-.21-.14-.06,0s.07.08.09.1a22.31,22.31,0,0,1,1.41,2.41c.47.84.91,1.69,1.34,2.55a27.39,27.39,0,0,1,2.17,5c0-.14,0,0,0,0,.21.06-.15.05,0,0,0,0,.51-.43.5-.39s-.27-.05-.3-.06l-.66-.22a17.59,17.59,0,0,1-2.18-1,18.27,18.27,0,0,1-4.59-3.47c-1.35-1.39-3.47.74-2.12,2.12a20.84,20.84,0,0,0,5.47,4.08c1.8.91,5.25,2.73,6.57.2a4,4,0,0,0-.29-3.38c-.49-1.18-1-2.36-1.55-3.51s-1.09-2.21-1.69-3.28a17.2,17.2,0,0,0-2-3.2,2.58,2.58,0,0,0-1.91-.92,3.44,3.44,0,0,0-2.12.92c-1.18.93-2.35,1.89-3.52,2.83a1.51,1.51,0,0,0,0,2.12,1.54,1.54,0,0,0,2.12,0Z" transform="translate(-200.01 -72.16)"/><path class="cls-1" d="M570.7,403.41c0-.79-.11-1.9.49-2.53a2.1,2.1,0,0,1,1.67-.49c1.75.13,3,1.75,3.95,3.06a129,129,0,0,1,7.89,11.76l1.69-2.2a31.66,31.66,0,0,1-12.67-8.74c-1.28-1.45-3.39.68-2.12,2.12a34.71,34.71,0,0,0,14,9.51c1.27.47,2.3-1.14,1.69-2.2-1.48-2.57-3.11-5-4.81-7.46a50.67,50.67,0,0,0-4.86-6.5,6.71,6.71,0,0,0-6.34-2.2,4.56,4.56,0,0,0-2.78,1.93,7.17,7.17,0,0,0-.8,3.94,1.5,1.5,0,0,0,3,0Z" transform="translate(-200.01 -72.16)"/><path class="cls-1" d="M743.06,276.57a1.5,1.5,0,0,0,0-3,1.5,1.5,0,0,0,0,3Z" transform="translate(-200.01 -72.16)"/><path class="cls-3" d="M434.7,187.6c1.81-2.57,3.91-5.64,7.22-6.27,2.93-.55,4.85,1.22,5.26,4,.65,4.46-.88,10.92,4.72,12.75,4.84,1.58,8.69-3.15,13.3-3.24,2.71-.06,3.53,2.5,3.55,4.79,0,2.85-.77,5.58-.34,8.43.37,2.49,1.62,5,4.18,5.84,3.22,1,6.28-1.31,9.14-2.44,2.12-.84,5.65-2.17,7.43,0,1.47,1.81.71,4.63.37,6.69-.39,2.38-.81,5,.42,7.22a6.34,6.34,0,0,0,5.71,3,29.71,29.71,0,0,0,6.66-1.22c1.41-.33,3.67-1,4.88.14,1.6,1.51.51,4.53.2,6.35-.39,2.27-.54,4.83,1.55,6.34,3,2.17,5.9-.42,8.76-1.33a6.39,6.39,0,0,1,6.77,2.54,5.58,5.58,0,0,1,1.12,3.52c-.05,1.93,2.95,1.93,3,0,.14-5.81-6.22-10.79-11.84-8.9-1.51.51-6.36,3.86-6.62.52-.19-2.47,1-4.88.82-7.38a5.41,5.41,0,0,0-4-5.07c-2.18-.52-4.5.14-6.61.66-1.9.48-4.32,1.31-6.26.6-2.22-.82-2.07-3.36-1.8-5.3.36-2.61,1.16-5.39.39-8a6.33,6.33,0,0,0-6-4.55c-3-.1-6,1.29-8.69,2.56-1.38.65-3.21,1.79-4.77,1a3.93,3.93,0,0,1-1.74-2.88c-1.06-5,2.79-12.54-3.28-15.55-4.93-2.44-9.18,2.45-13.89,2.86-2.38.21-3.54-1.59-3.8-3.74-.31-2.62.07-5.28-.55-7.87a6.86,6.86,0,0,0-5.92-5.43c-3.35-.42-6.41,1.26-8.66,3.64a37,37,0,0,0-3.22,4.14c-1.11,1.58,1.49,3.08,2.59,1.51Z" transform="translate(-200.01 -72.16)"/><path class="cls-3" d="M672,212.66c-2.05-2-4.37-4.06-5.32-6.82-.73-2.12-.64-4.82,1.22-6.33s4.68-1.81,6.69-3.35a8.81,8.81,0,0,0,3.32-6.17,9.7,9.7,0,0,0-2.41-7c-1.15-1.5-3.82-4.46-2.23-6.49.65-.83,1.93-1,2.89-1.19a11.77,11.77,0,0,0,3.27-1,6.87,6.87,0,0,0,3.3-5.39,14.69,14.69,0,0,0-.88-6.5c-.89-2.53-2.24-5-2.52-7.66-.56-5.37,4.91-6,8.47-8.19a7.62,7.62,0,0,0,3.71-4.78,10.52,10.52,0,0,0-.54-5.55c-.65-1.94-1.57-3.76-2.24-5.69-.47-1.37-1-3-.24-4.41,1-1.88,3.67-2.21,5.5-2.85,2.23-.77,4.33-2,4.84-4.54.67-3.2-1.8-5.76-2.34-8.75a8.73,8.73,0,0,1,2.46-7.63,1.51,1.51,0,0,0-2.13-2.13,11.82,11.82,0,0,0-3.34,6.87c-.36,2.85.53,5.2,1.66,7.77.5,1.14,1.2,2.63.55,3.85a3.61,3.61,0,0,1-1.95,1.47c-2,.79-4.1,1.09-5.85,2.31-3.71,2.57-2.91,6.83-1.44,10.44,1.24,3.05,3.94,7.7.71,10.42-1.59,1.34-3.75,1.94-5.59,2.85a9.14,9.14,0,0,0-4.73,4.63c-2.11,5.33,2.11,10.16,2.86,15.25.27,1.86.21,4.29-1.52,5.46-2,1.33-4.64.81-6.55,2.41s-2.09,4.55-1.13,6.86c1,2.5,3.49,4.24,4.25,6.85a5.87,5.87,0,0,1-3.06,6.78c-2.6,1.34-5.47,1.8-7.19,4.42a9.27,9.27,0,0,0-.6,8.1c1.18,3.14,3.6,5.54,6,7.81,1.4,1.34,3.52-.78,2.12-2.12Z" transform="translate(-200.01 -72.16)"/><path class="cls-3" d="M719.38,226.51c-3.18-2-4.14-6.32-3-9.79a7.42,7.42,0,0,1,3.5-4.24c2.37-1.36,5-2.19,6.76-4.35a10.59,10.59,0,0,0,2.48-6.67c0-2.55-1-4.91-1.64-7.33-.53-2.16-.42-4.38,1.78-5.47,1.66-.82,3.64-.93,5.43-1.28A10.72,10.72,0,0,0,740,185a8,8,0,0,0,2.31-6.08c-.06-4.41-2.65-8.41-2.25-12.85.15-1.62.74-3.37,2.41-4,1.16-.41,2.43-.29,3.59-.73a6.54,6.54,0,0,0,2.44-1.64c2.76-3.05,2.6-7.85,1.85-11.62-.82-4.1-2.3-10.65,3.16-12,2.76-.7,5.53-.8,7.62-3a8.48,8.48,0,0,0,2.19-7.18c-.27-1.9-3.16-1.09-2.89.8a5.3,5.3,0,0,1-3.07,5.43c-2.37,1-5.08.7-7.31,2.17-4,2.61-3.8,7.82-3.11,12,.57,3.44,2,8.31-.56,11.33-1.53,1.76-4.2,1-6.09,2.22a7,7,0,0,0-3,4.64,15.29,15.29,0,0,0,.15,6.21c.5,2.31,1.46,4.49,1.78,6.84.27,2,.14,4.27-1.59,5.58-1.57,1.18-3.76,1.37-5.64,1.7a12.07,12.07,0,0,0-5.4,2,6.62,6.62,0,0,0-2.46,5.89c.21,2.65,1.47,5.05,1.84,7.67a7.5,7.5,0,0,1-2.44,6.63c-2.18,1.92-5.23,2.48-7.38,4.5a10.54,10.54,0,0,0-3,5.75,11.52,11.52,0,0,0,4.73,11.89c1.63,1.05,3.14-1.55,1.52-2.59Z" transform="translate(-200.01 -72.16)"/><path class="cls-3" d="M538,246.11a23.38,23.38,0,0,1-7.19,8.15c-.59.42-1.29,1.11-.94,1.74a1.44,1.44,0,0,0,.69.54l20.28,9.85c-1.28-7.74-5.95-14.43-10.5-20.82" transform="translate(-200.01 -72.16)"/><path class="cls-3" d="M536.65,245.35a22.8,22.8,0,0,1-5.45,6.71c-1,.86-2.54,1.57-2.9,3-.47,1.86,1.21,2.67,2.58,3.33L550,267.69a1.52,1.52,0,0,0,2.2-1.7c-1.36-8-6.06-14.73-10.65-21.17-1.11-1.56-3.71-.07-2.59,1.51,4.45,6.25,9,12.74,10.35,20.46l2.2-1.69-17.08-8.3-2.07-1a6.12,6.12,0,0,0-1.12-.55l-.27-.14c0,.63.19.81.41.55.45-.11,1.14-.86,1.51-1.15.53-.43,1.05-.87,1.55-1.35a25.06,25.06,0,0,0,4.77-6.29c.91-1.7-1.67-3.21-2.59-1.51Z" transform="translate(-200.01 -72.16)"/><path class="cls-3" d="M706.4,73.64a65.78,65.78,0,0,1-12.33,15.18c-.68.62-1.39,1.71-.71,2.33a1.68,1.68,0,0,0,.88.32l12.5,2a2.26,2.26,0,0,0,1.29,0c.88-.39.91-1.61.8-2.56l-1.76-15.32" transform="translate(-200.01 -72.16)"/><path class="cls-3" d="M705.1,72.88a64.73,64.73,0,0,1-6.69,9.33q-1.85,2.15-3.89,4.13c-1.24,1.2-3,2.45-2.91,4.39.15,2.33,3.06,2.32,4.77,2.59l6.45,1,3.12.5a4.36,4.36,0,0,0,2.94-.19c1.5-.87,1.57-2.67,1.4-4.2-.56-5-1.15-9.94-1.72-14.92a1.56,1.56,0,0,0-1.5-1.5,1.5,1.5,0,0,0-1.5,1.5l1.26,11a34.64,34.64,0,0,1,.55,5.06c0,.16-.06.54-.06.54.19-.2-.45-.17-.57-.19-.91-.13-1.82-.29-2.74-.43l-5.47-.88-2.73-.43a4.4,4.4,0,0,0-1.17-.19l-.32-.06.25.68s.19-.37.22-.41a12.89,12.89,0,0,1,1.6-1.53c.58-.56,1.15-1.12,1.71-1.7,1.11-1.16,2.19-2.35,3.22-3.59a69.11,69.11,0,0,0,6.37-9,1.5,1.5,0,0,0-2.59-1.52Z" transform="translate(-200.01 -72.16)"/><path class="cls-3" d="M771,101.91q-7.72,6.28-15,13.1c-.27.26-.57.58-.51.95s.59.63,1,.74q7.18,1.81,14.47,3.21a1,1,0,0,0,1.35-1.2l-.18-3.32L771.41,102" transform="translate(-200.01 -72.16)"/><path class="cls-3" d="M769.91,100.84q-4.8,3.91-9.41,8-2.25,2-4.46,4a7.64,7.64,0,0,0-1.86,2,2.15,2.15,0,0,0,.81,2.75,7.82,7.82,0,0,0,2.46.81c1,.26,2.06.5,3.09.74,2.06.49,4.13.94,6.2,1.37l2.94.59a4.34,4.34,0,0,0,2.91,0c1.75-.92,1.16-3.39,1.08-5L772.91,102c-.11-1.92-3.11-1.93-3,0l.45,8.43.22,4.22.11,2a8.23,8.23,0,0,0,.11,2V119q1-.47.54-.48c-.07-.12-.92-.18-1-.21l-2.08-.41c-1.38-.28-2.76-.58-4.14-.88l-4-.91-2-.5c-.38-.1-1.26-.17-1.49-.46l.39.66v-.07l-.21.76c.32-.68,1.22-1.27,1.77-1.78s1.18-1.09,1.78-1.62q1.9-1.74,3.84-3.43Q768,106.21,772,103a1.52,1.52,0,0,0,0-2.13,1.54,1.54,0,0,0-2.12,0Z" transform="translate(-200.01 -72.16)"/><path class="cls-3" d="M549.82,175.92h2.74l2.7,7.14h0l2.74-7.14h2.57l-4.5,10.9h-1.92Z" transform="translate(-200.01 -72.16)"/><path class="cls-3" d="M563.91,175.92h2.4v10.9h-2.4Z" transform="translate(-200.01 -72.16)"/><path class="cls-3" d="M576.09,178.58a1.74,1.74,0,0,0-.79-.55,2.81,2.81,0,0,0-.95-.17,2.48,2.48,0,0,0-.54.06,1.79,1.79,0,0,0-.52.19,1.16,1.16,0,0,0-.41.35.86.86,0,0,0-.15.52.85.85,0,0,0,.37.75,3.36,3.36,0,0,0,.93.45c.38.12.78.25,1.21.37a5.2,5.2,0,0,1,1.21.52,3,3,0,0,1,.93.91,2.75,2.75,0,0,1,.37,1.53,3.44,3.44,0,0,1-.34,1.58,3.16,3.16,0,0,1-.91,1.13,3.91,3.91,0,0,1-1.34.66,6.08,6.08,0,0,1-1.61.22,5.7,5.7,0,0,1-2-.33,4.91,4.91,0,0,1-1.7-1l1.71-1.88a2.64,2.64,0,0,0,.93.76,2.7,2.7,0,0,0,1.17.27,2.44,2.44,0,0,0,.59-.07,2.17,2.17,0,0,0,.54-.21,1.16,1.16,0,0,0,.38-.35.9.9,0,0,0,.15-.51A.93.93,0,0,0,575,183a3.37,3.37,0,0,0-1-.48c-.38-.14-.79-.27-1.23-.4a6.19,6.19,0,0,1-1.23-.54,3,3,0,0,1-.95-.9,2.55,2.55,0,0,1-.37-1.46,3.27,3.27,0,0,1,.34-1.54,3.33,3.33,0,0,1,.93-1.11,4,4,0,0,1,1.33-.67,5.38,5.38,0,0,1,1.55-.22,6.3,6.3,0,0,1,1.79.26,4.11,4.11,0,0,1,1.56.88Z" transform="translate(-200.01 -72.16)"/><path class="cls-3" d="M581.71,175.92h2.4v10.9h-2.4Z" transform="translate(-200.01 -72.16)"/><path class="cls-3" d="M588.5,175.92h4.06a9.92,9.92,0,0,1,1.43.1,3.76,3.76,0,0,1,1.28.4,2.56,2.56,0,0,1,.93.83,2.64,2.64,0,0,1,.35,1.44,2.27,2.27,0,0,1-.52,1.53,2.72,2.72,0,0,1-1.36.87v0a3,3,0,0,1,1,.3,2.66,2.66,0,0,1,.75.57,2.38,2.38,0,0,1,.49.81,2.93,2.93,0,0,1,.17,1,2.65,2.65,0,0,1-.37,1.44,3,3,0,0,1-1,.94,4.3,4.3,0,0,1-1.31.5,6.66,6.66,0,0,1-1.46.16H588.5Zm2.4,4.35h1.74a2.42,2.42,0,0,0,.54-.06,1.53,1.53,0,0,0,.49-.2,1,1,0,0,0,.35-.37,1.18,1.18,0,0,0,.13-.55,1,1,0,0,0-.15-.56,1,1,0,0,0-.38-.35,1.87,1.87,0,0,0-.52-.18,3.77,3.77,0,0,0-.57-.05H590.9Zm0,4.52h2.15a2.22,2.22,0,0,0,.57-.07,1.45,1.45,0,0,0,.51-.21,1.21,1.21,0,0,0,.38-.4,1.16,1.16,0,0,0,.15-.6,1,1,0,0,0-.2-.63,1.15,1.15,0,0,0-.48-.36,2.66,2.66,0,0,0-.63-.17,4.88,4.88,0,0,0-.64,0H590.9Z" transform="translate(-200.01 -72.16)"/><path class="cls-3" d="M600.77,175.92h2.4v8.68h4.45v2.22h-6.85Z" transform="translate(-200.01 -72.16)"/><path class="cls-3" d="M611.24,175.92h7.4v2.21h-5v2h4.73v2.21h-4.73v2.22h5.28v2.22h-7.68Z" transform="translate(-200.01 -72.16)"/><path class="cls-3" d="M558.9,193.92h2.4v8.68h4.45v2.22H558.9Z" transform="translate(-200.01 -72.16)"/><path class="cls-3" d="M569.24,193.92h2.4v10.9h-2.4Z" transform="translate(-200.01 -72.16)"/><path class="cls-3" d="M585.9,204.05a8.56,8.56,0,0,1-2.22.8,11.5,11.5,0,0,1-2.35.25,6.92,6.92,0,0,1-2.36-.4,5.24,5.24,0,0,1-3.09-3,6.21,6.21,0,0,1-.43-2.37,6.14,6.14,0,0,1,.43-2.37,5.28,5.28,0,0,1,1.23-1.81A5.35,5.35,0,0,1,579,194a6.68,6.68,0,0,1,2.36-.4,8.79,8.79,0,0,1,2.41.31,4.75,4.75,0,0,1,1.93,1.09L584,196.89a3.32,3.32,0,0,0-1.11-.77,3.87,3.87,0,0,0-1.54-.26,3.49,3.49,0,0,0-1.4.26,3.18,3.18,0,0,0-1.07.73,3.24,3.24,0,0,0-.68,1.12,4,4,0,0,0-.24,1.4,4,4,0,0,0,.24,1.41,3.34,3.34,0,0,0,.68,1.1,3.21,3.21,0,0,0,1.07.74,3.68,3.68,0,0,0,1.4.26,4.5,4.5,0,0,0,1.35-.18,5.36,5.36,0,0,0,.91-.36v-1.77h-2v-2.22h4.26Z" transform="translate(-200.01 -72.16)"/><path class="cls-3" d="M590.21,193.92h2.4V198h4.67v-4.06h2.4v10.9h-2.4v-4.71h-4.67v4.71h-2.4Z" transform="translate(-200.01 -72.16)"/><path class="cls-3" d="M606.21,196H603.1v-2.12h8.62V196h-3.11v8.78h-2.4Z" transform="translate(-200.01 -72.16)"/></svg>