<svg id="Layer_3" data-name="Layer 3" xmlns="http://www.w3.org/2000/svg" viewBox="0 0 329.44 292.27"><defs><style>.cls-1{fill:#2b2b2b;}.cls-2{fill:#fff;}.cls-3{fill:#ed1e79;}</style></defs><path class="cls-1" d="M63.32,107.66c-3-1.24-2.36-6,0-8.26s5.76-3.3,7.93-5.77,3.12-6.46,6.23-7.76c2.07-.86,4.41-.21,6.63.15C99,88.44,113.45,77,128.44,78.79a7.62,7.62,0,0,1,3.7,1.23c1.47,1.09,2.11,2.94,2.87,4.61a24.74,24.74,0,0,0,17.74,13.81c8.12,1.48,16.49-1.22,24.69-.33,7.23.79,13.95,4.33,21.18,5.08a23.27,23.27,0,0,1,5.6.86,14.27,14.27,0,0,1,4.73,3.28A58.17,58.17,0,0,1,220.17,122c7.32,13.58,9.44,30.34,20.45,41.15,2.55,2.5,5.54,4.63,7.56,7.58,1,1.49,1.79,3.19,3.13,4.4,2.67,2.43,6.74,2.27,10.32,1.79a105.57,105.57,0,0,0,18.5-4.25c2.61,3.52.82,8.54-1.44,12.3-6.9,11.53-17.23,20.54-25.88,30.82s-15.95,23-14.77,36.37c.56,6.39,3,13.19.09,18.92-3.82,7.61-15.85,10.73-15.59,19.24.1,3.24,2.19,6.47,1.14,9.54s-4.9,4.4-7.16,6.89c-1.62,1.78-2.38,4.15-3.26,6.38a52.49,52.49,0,0,1-36.44,31.38c-5.54,1.27-13.39,0-13.85-5.68-.12-1.52.39-3,.45-4.53.09-2.41-.94-4.71-1.94-6.91q-9.06-19.73-18.13-39.46c-1.65-3.59-3.32-7.28-3.57-11.22-.53-8.34,5.37-16.32,3.93-24.55-.31-1.77-1-3.64-.28-5.32.52-1.29,1.76-2.23,2.17-3.56.61-2-.84-4-2.21-5.61C138,231.3,132.1,224.36,131.78,216c-.15-3.77.88-7.58.23-11.3s-4-7.46-7.69-6.49c-1.17.31-2.31,1.08-3.49.84-1.48-.31-2.16-2-3-3.18-3.53-4.83-10.94-3.27-16.73-1.73a95.88,95.88,0,0,1-24,3.2,34.35,34.35,0,0,1-10.6-1.25c-6.77-2.16-11.92-7.57-16.75-12.78-6.46-7-13.38-15.19-12.44-24.64.45-4.52,2.71-9,1.69-13.4-.45-2-1.53-3.78-1.5-5.77A10.66,10.66,0,0,1,39,135c5.39-10.59,12.15-22.3,23.72-24.93" transform="translate(-35.76 -54.16)"/><path class="cls-1" d="M64.08,106.37c-1.44-.67-1.46-2.22-1.06-3.6.56-1.9,2.1-3,3.72-4A26.18,26.18,0,0,0,72.06,95a26,26,0,0,0,3.2-4.79C76.3,88.5,77.5,87,79.65,87c2.32-.09,4.66.71,7,.86a41.56,41.56,0,0,0,13.43-1.74c8.67-2.35,17.31-6.4,26.49-5.93,2.33.12,4.64.37,5.9,2.56,1.05,1.84,1.73,3.84,2.88,5.63A26.48,26.48,0,0,0,144.42,97a27,27,0,0,0,13,3.44c5.3.11,10.55-.89,15.84-1s10.1,1.36,15.07,2.89a65.79,65.79,0,0,0,7.57,2c2.46.44,5.11.3,7.5,1.05s4.16,2.64,5.85,4.34a54.91,54.91,0,0,1,4.91,5.65,62,62,0,0,1,7.07,12.16c3.55,8,5.89,16.45,9.74,24.3a47.48,47.48,0,0,0,7,10.64c3.1,3.5,7.18,6.06,9.67,10.08,1.15,1.86,2.3,3.7,4.26,4.8a12.41,12.41,0,0,0,6.13,1.37c5,0,10.09-1.23,14.88-2.4q3.88-1,7.69-2.2l-1.69-.69c2.71,3.91-.21,8.91-2.4,12.34a94.86,94.86,0,0,1-8.95,11.63c-6.43,7.3-13.49,14.07-19.34,21.87-5.69,7.59-10.3,16.3-11.47,25.82-.6,4.89.18,9.57.9,14.4.65,4.38.88,9-1.93,12.74-3.93,5.2-11.14,7.7-13.8,13.91a9.81,9.81,0,0,0-.76,4.84c.24,2.35,1.37,4.61,1.38,7,0,2.07-1.41,3.38-3,4.52a22.58,22.58,0,0,0-4.45,3.69,21.62,21.62,0,0,0-3,6,48.44,48.44,0,0,1-2.66,5.76,50.44,50.44,0,0,1-7.34,10.19,51.15,51.15,0,0,1-20.7,13.57c-3.51,1.2-7.2,2.21-10.94,1.65-3.23-.49-6.28-2.15-5.9-5.83a30,30,0,0,0,.42-3.65,12.11,12.11,0,0,0-.69-3.68,76.16,76.16,0,0,0-3.23-7.35q-3.54-7.69-7.07-15.4T146.87,292c-2.15-4.67-5-9.59-5.54-14.8-.46-4.69,1.3-9.23,2.59-13.65a38.54,38.54,0,0,0,1.43-6.71,23.64,23.64,0,0,0-.53-6.86,4.14,4.14,0,0,1,.38-3.2,15.59,15.59,0,0,0,1.74-2.73c.83-2.17-.11-4.37-1.41-6.12-2.75-3.69-6-6.94-8.42-10.88a22.43,22.43,0,0,1-3.77-13.2c.25-4.75,1.28-9.76-1.82-13.86a8.17,8.17,0,0,0-4.8-3.25,6.42,6.42,0,0,0-2.76.08c-.89.23-2.18,1.16-3.09.68-.71-.37-1.13-1.42-1.57-2a9.74,9.74,0,0,0-2-2.18,10.3,10.3,0,0,0-5-2c-4-.52-8,.5-11.82,1.5a93.35,93.35,0,0,1-15.75,2.73c-5.19.44-10.76.81-15.89-.35-4.68-1-8.64-3.75-12.13-6.95a113.59,113.59,0,0,1-9.59-10.15c-2.94-3.47-5.77-7.3-7.26-11.65a18.56,18.56,0,0,1-1.07-6.48,38.59,38.59,0,0,1,1.37-7.37,18.07,18.07,0,0,0,.44-7.24c-.46-2.48-2.06-4.72-1.26-7.3a35.62,35.62,0,0,1,3-6.07c1-1.85,2-3.68,3.15-5.46a44.6,44.6,0,0,1,7.71-9.59,22.54,22.54,0,0,1,10-5.39c1.88-.45,1.08-3.34-.8-2.89C54,110.61,48,117,43.47,124a90.86,90.86,0,0,0-6.39,11.55,9.22,9.22,0,0,0-.52,7.06,25.89,25.89,0,0,1,1.1,3.54,12.12,12.12,0,0,1-.11,4c-.44,2.57-1.27,5.06-1.62,7.66a20.1,20.1,0,0,0,.27,6.83A31.72,31.72,0,0,0,42.38,177a114.2,114.2,0,0,0,9.33,10.58C55,191,58.64,194.25,63,196.3c4.77,2.27,10,2.65,15.18,2.56a98.66,98.66,0,0,0,16.45-1.68c4.62-.87,9.17-2.55,13.86-3a12.1,12.1,0,0,1,5.51.54c1.91.76,2.7,2.29,3.86,3.84a4.43,4.43,0,0,0,5.38,1.65,5.61,5.61,0,0,1,2.89-.61,4.85,4.85,0,0,1,2.57,1.56c3.65,3.88,1.52,9.88,1.65,14.59a25.91,25.91,0,0,0,4.33,12.93,60,60,0,0,0,4.22,5.8,67.92,67.92,0,0,1,4.59,5.6,3.12,3.12,0,0,1,.59,3.07c-.46,1-1.32,1.72-1.79,2.69-1.13,2.34-.19,4.69.12,7.1.61,4.76-1.28,9.45-2.58,13.94-1.38,4.76-2.06,9.48-.66,14.33,1.48,5.15,4.17,10,6.39,14.87q7.25,15.76,14.48,31.52c1.22,2.65,2.24,5.09,1.8,8.05-.3,2-.49,3.94.44,5.83,1.54,3.15,5.21,4.42,8.46,4.79,3.93.45,7.79-.52,11.49-1.79a53.1,53.1,0,0,0,11.64-5.66,54.69,54.69,0,0,0,17.62-18.46,51.28,51.28,0,0,0,2.86-5.81c.89-2.12,1.52-4.45,2.91-6.31,2.31-3.09,6.66-4.11,8-8.05,1.41-4.28-2.22-8.4-.66-12.63,1.1-3,4-5.11,6.39-7,2.75-2.18,5.6-4.31,7.63-7.22,2.75-4,2.78-8.78,2.17-13.38-.66-4.94-1.6-9.7-1-14.71a42.64,42.64,0,0,1,4.45-14c4.53-9,11.26-16.41,18.06-23.7,3.44-3.69,6.9-7.36,10.13-11.24a68.92,68.92,0,0,0,8.51-12.13c1.94-3.77,3.24-8.57.62-12.35a1.55,1.55,0,0,0-1.69-.69,106.24,106.24,0,0,1-16,3.88c-4.4.71-9.83,1.66-12.67-2.65a34,34,0,0,0-4.24-5.66c-1.74-1.73-3.67-3.25-5.4-5A41.74,41.74,0,0,1,233.94,151c-4.07-8-6.44-16.8-10.1-25a60.86,60.86,0,0,0-12.13-18.08,23.4,23.4,0,0,0-5.67-4.69c-2.32-1.2-4.83-1.24-7.37-1.52A44.24,44.24,0,0,1,191,100c-5-1.48-9.95-3.23-15.22-3.51-5.47-.29-10.89.76-16.34.9a25.17,25.17,0,0,1-13.61-3.12A23.32,23.32,0,0,1,136.88,85c-1-2-1.64-4.22-3.33-5.73s-4.09-1.87-6.32-2c-9.45-.7-18.38,3.35-27.29,5.83a39.37,39.37,0,0,1-13.67,1.77c-2.4-.19-4.8-1-7.22-.78a7.33,7.33,0,0,0-5.12,2.93c-1.18,1.5-2,3.25-3,4.83-1.31,1.92-3.33,3-5.26,4.18-3.33,2-6.33,5-5.7,9.27A4.78,4.78,0,0,0,62.62,109C64.31,109.76,65.83,107.18,64.08,106.37Z" transform="translate(-35.76 -54.16)"/><path class="cls-1" d="M272.89,258.26a46.47,46.47,0,0,1-14.31,12.11c-1.65.9-3.42,1.75-4.54,3.26s-1.26,3.94.24,5.07c.8.61,2,.81,2.4,1.73a3,3,0,0,1-.52,2.54A25.26,25.26,0,0,0,255,303.29c.58,1.55,1.55,3.22,3.18,3.52a4.5,4.5,0,0,0,3.31-1.05,13.42,13.42,0,0,0,4.93-6.67,54.65,54.65,0,0,0,1.34-7.24c1.1-5.91,4.17-11.23,6.31-16.84s3.31-12.12.62-17.49" transform="translate(-35.76 -54.16)"/><path class="cls-1" d="M271.83,257.2a44.62,44.62,0,0,1-14.18,12,13.66,13.66,0,0,0-4.78,3.55,5.85,5.85,0,0,0-1,4.75c.41,1.74,1.62,2.44,3,3.28.85.49.06,1.34-.28,2a26.28,26.28,0,0,0-2.55,9A25.67,25.67,0,0,0,253.66,304a6.82,6.82,0,0,0,3.26,4c1.88.83,3.88.12,5.45-1a15.37,15.37,0,0,0,6-9.68c.43-2.25.6-4.54,1.16-6.77a46,46,0,0,1,2.2-6.36c3.59-8.58,8.65-18.1,4.19-27.37-.84-1.74-3.43-.22-2.59,1.51,3.43,7.12-.17,15.19-3.08,21.8a53.5,53.5,0,0,0-3.95,11.16c-.72,3.7-.74,7.5-3.06,10.67a9,9,0,0,1-4,3.33c-1.71.52-2.55-1.44-3-2.75a23.87,23.87,0,0,1-1.2-11,24.27,24.27,0,0,1,1.29-5.3c.59-1.63,1.92-3.33,2-5.09s-1.15-2.58-2.48-3.28a2,2,0,0,1-.75-3.09c.94-1.65,3-2.44,4.62-3.32A45.67,45.67,0,0,0,265,268a48.42,48.42,0,0,0,9-8.72C275.14,257.82,273,255.69,271.83,257.2Z" transform="translate(-35.76 -54.16)"/><path class="cls-1" d="M217.66,57.29l-17,6.54c-2.36.91-4.79,1.86-6.6,3.63s-2.85,4.58-1.81,6.89c1.32,2.94,5.08,3.69,8.29,4.05,5.06.57,10.23,1.14,15.21.06,2.71-.59,5.74-1.61,8.1-.15,2.94,1.82,2.73,6.21,1.42,9.41a23.1,23.1,0,0,1-9.46,11c-1.22.73-2.6,1.43-3.21,2.72-1.23,2.6,1.39,5.29,3.71,7L221,111.8c4.46,3.25,9,6.62,11.95,11.3,2.3,3.68,3.44,8,5.58,11.76,1.86,3.3,4.43,6.14,6.51,9.31,3.62,5.52,5.66,11.91,7.51,18.25.57,2,1.2,4,2.78,5.33,2.63,2.16,6.66,1.11,9.47-.82s5.11-4.64,8.24-6c4.21-1.79,9.54-.94,13-3.95.94-.82,1.66-1.88,2.63-2.65,1.75-1.39,4.09-1.72,6.16-2.55,6.48-2.6,9.72-9.7,12.35-16.17a4.59,4.59,0,0,0,.49-2.13c-.3-3.21-5.84-2.66-7.42-5.46-1-1.86-.21-5-2.21-5.74-1.81-.71-3.22,1.54-4.39,3.09-3.52,4.68-11,4.6-15.83,1.27s-7.49-8.92-9.59-14.38c-.57-1.48-1.06-3.31-.05-4.53.78-.94,2.13-1.12,3.19-1.71,2.39-1.33,3-4.66,2.13-7.26s-2.72-4.71-4.35-6.9-3.09-4.76-2.87-7.49c.15-1.85,1.07-3.53,1.67-5.29a15.58,15.58,0,0,0-2.19-14.23,14.28,14.28,0,0,0-13.2-5.46c-2.87.44-5.51,1.78-8.33,2.47C235.6,64,226.87,59.75,219,55.65" transform="translate(-35.76 -54.16)"/><path class="cls-1" d="M217.26,55.84l-11.93,4.59c-3.46,1.33-7.35,2.41-10.46,4.49-2.72,1.82-4.88,4.85-4.45,8.26.4,3.15,3,5.07,5.85,5.94A46.68,46.68,0,0,0,207,80.5a37.51,37.51,0,0,0,6.18-.12c1.89-.21,3.7-.68,5.56-1,1.58-.32,3.51-.57,4.8.63a4.58,4.58,0,0,1,1.15,3.54c-.07,3.1-1.75,6.12-3.58,8.53a21.86,21.86,0,0,1-3.51,3.62c-1.28,1-2.73,1.79-4.09,2.72a5.39,5.39,0,0,0-1.35,8.13c2.2,3,5.76,4.94,8.7,7.09a53.36,53.36,0,0,1,8.37,7.14c2.54,2.82,4.05,6.16,5.5,9.62a45.61,45.61,0,0,0,5.5,9.8,58.28,58.28,0,0,1,6.15,9.56,75.51,75.51,0,0,1,4.05,11c.95,3.14,1.64,6.91,4.68,8.75,2.8,1.7,6.38,1,9.13-.47,3.11-1.63,5.34-4.51,8.41-6.21,2.91-1.61,6.37-1.52,9.52-2.31a11.75,11.75,0,0,0,4.43-2.06c1.39-1.09,2.32-2.67,3.92-3.51s3.24-1.09,4.82-1.74a16.08,16.08,0,0,0,4-2.36,23.89,23.89,0,0,0,5.78-7.24c.78-1.4,1.46-2.85,2.11-4.32a23.2,23.2,0,0,0,1.82-4.7c.54-2.92-1.74-4.42-4.12-5.33a10.83,10.83,0,0,1-2.87-1.31c-.93-.74-.94-2-1.09-3.1a5.07,5.07,0,0,0-1.44-3.31,3.49,3.49,0,0,0-4-.35,11,11,0,0,0-3.05,3.22,7.71,7.71,0,0,1-3.08,2.43c-5.88,2.52-12-1.21-15.32-6a40.8,40.8,0,0,1-4.54-9.11,5.74,5.74,0,0,1-.51-2.15c0-1,.68-1.23,1.48-1.55a7.07,7.07,0,0,0,3.58-2.61c1.74-2.61,1.38-6,.1-8.7-1.57-3.31-4.58-5.74-6-9.15-1.48-3.69,1-6.77,1.67-10.34a17.46,17.46,0,0,0-1.16-10,15.81,15.81,0,0,0-15.89-9.31c-3.84.44-7.26,2.47-11.09,2.94a25.59,25.59,0,0,1-11.36-1.58,78,78,0,0,1-10.65-4.86c-1.71-.89-3.23,1.7-1.51,2.59,6.53,3.41,13.56,7,21.1,7,3.85,0,7.19-1.29,10.8-2.41a12.91,12.91,0,0,1,9.41.37,13.54,13.54,0,0,1,7.05,16.24,52.87,52.87,0,0,0-1.72,5,9.3,9.3,0,0,0,.39,5c1.2,3.3,3.72,5.7,5.54,8.63,1.32,2.13,2.57,6,0,7.79-1.27.9-2.85,1-3.89,2.27a5,5,0,0,0-.68,4.4,35.21,35.21,0,0,0,3.89,9,23.78,23.78,0,0,0,6.22,7.31c4.32,3.26,10.9,4.27,15.65,1.31a10.92,10.92,0,0,0,3-2.79c.37-.49,1.71-2.76,2.53-2.27.66.39.59,2.4.7,3.05a5.4,5.4,0,0,0,1.6,3.15c1.66,1.52,4,1.58,5.77,2.89,1,.79.21,2.09-.19,3.06-.58,1.41-1.19,2.82-1.86,4.19a26.55,26.55,0,0,1-5,7.45,13.72,13.72,0,0,1-3.52,2.52c-1.45.72-3.06,1-4.56,1.63a10.9,10.9,0,0,0-4.21,2.91,8.78,8.78,0,0,1-3.79,2.68c-3,1-6.19.91-9.15,2-3.25,1.15-5.62,3.57-8.28,5.65-2.15,1.68-5.69,3.64-8.37,2-1.36-.84-1.95-2.47-2.4-3.92-.53-1.71-1-3.44-1.55-5.15a70.13,70.13,0,0,0-4-10.19,63.16,63.16,0,0,0-6.12-9.32,44.55,44.55,0,0,1-5.27-9.53,36,36,0,0,0-5.13-9.21,43.93,43.93,0,0,0-7.61-6.93c-2.9-2.2-6.2-4.11-8.84-6.62-.94-.89-2.37-2.38-1.8-3.81s2.39-2,3.48-2.67c5.08-3.33,9.72-9.1,10.26-15.34.23-2.72-.62-5.64-3-7.14-3-1.86-6.57-.52-9.72.1a40.63,40.63,0,0,1-12,.05c-2.71-.28-6.39-.32-8.5-2.31-2.53-2.39-.19-6,2.11-7.44,3.08-2,6.87-3,10.27-4.34l11.24-4.33C219.84,58,219.06,55.14,217.26,55.84Z" transform="translate(-35.76 -54.16)"/><path class="cls-2" d="M146.11,275.59c-18.87-2.62-18.29,30.22,1.09,27.69,14.11-1.85,14-24.49,0-27.49A10.78,10.78,0,0,0,146.11,275.59Z" transform="translate(-35.76 -54.16)"/><path class="cls-2" d="M146.11,274.09a12.83,12.83,0,0,0-13.76,7.44,18.63,18.63,0,0,0,.63,16.19c3,5.5,8.92,8,15,6.95,6.9-1.14,11-7.44,11.23-14.12.25-7.83-4.72-15.19-12.71-16.4-1.89-.29-2.7,2.6-.8,2.89a12.3,12.3,0,0,1,10.45,11.41c.49,5.2-1.69,11.07-7,12.85a11.16,11.16,0,0,1-12.88-3.94,15.49,15.49,0,0,1-1.78-13.06,10.83,10.83,0,0,1,3.8-5.6,10.69,10.69,0,0,1,7.82-1.6c.81.11,1.49-.77,1.5-1.5A1.53,1.53,0,0,0,146.11,274.09Z" transform="translate(-35.76 -54.16)"/><path class="cls-2" d="M365.13,254.24h-2.58v4.3c0,.26,0,.53,0,.8a2.29,2.29,0,0,0,.13.7,1.1,1.1,0,0,0,1.2.68,3.88,3.88,0,0,0,.67-.06,2.18,2.18,0,0,0,.62-.22v1.64a2.32,2.32,0,0,1-.85.24,5.71,5.71,0,0,1-.77.08,4,4,0,0,1-1.63-.28,2.23,2.23,0,0,1-.84-.76,2.71,2.71,0,0,1-.32-1c0-.39,0-.78,0-1.16v-4.94h-2.08v-1.56h2.08V250h1.8v2.66h2.58Zm-12.48-1.56h1.8v1.46h0a2.33,2.33,0,0,1,.48-.68,2.79,2.79,0,0,1,.66-.54,3.46,3.46,0,0,1,.82-.34,2.74,2.74,0,0,1,.88-.14,2.49,2.49,0,0,1,.8.12l-.08,1.94a3.13,3.13,0,0,0-.44-.1,2.12,2.12,0,0,0-.44,0,2.63,2.63,0,0,0-2,.74,3.28,3.28,0,0,0-.7,2.3v4.76h-1.8Zm-4.07,4a3.47,3.47,0,0,0-.2-1.1,2.17,2.17,0,0,0-.5-.86,2.08,2.08,0,0,0-.86-.58,2.86,2.86,0,0,0-1.18-.22,3,3,0,0,0-2.14.9,3.08,3.08,0,0,0-.6.9,2.54,2.54,0,0,0-.2,1Zm-5.68,1.44a2.58,2.58,0,0,0,.26,1.14,3.14,3.14,0,0,0,.72.86,3.35,3.35,0,0,0,1,.56,3.78,3.78,0,0,0,1.2.2,2.76,2.76,0,0,0,1.46-.38,5.27,5.27,0,0,0,1.14-1l1.36,1a5,5,0,0,1-4.2,1.94,5.33,5.33,0,0,1-2-.38,4.76,4.76,0,0,1-1.54-1,5.07,5.07,0,0,1-1-1.58,5.64,5.64,0,0,1-.34-2,5.22,5.22,0,0,1,.36-2,4.78,4.78,0,0,1,1-1.58,4.55,4.55,0,0,1,1.56-1.06,4.86,4.86,0,0,1,2-.38,4.53,4.53,0,0,1,2.12.44,4,4,0,0,1,1.44,1.16,4.31,4.31,0,0,1,.8,1.6,6.37,6.37,0,0,1,.26,1.8v.64Zm-5.21-3a2.46,2.46,0,0,0-.8-.66,2.09,2.09,0,0,0-1.14-.28,2.17,2.17,0,0,0-1.12.28.85.85,0,0,0-.46.78.94.94,0,0,0,.26.68,2.53,2.53,0,0,0,.64.42,5.29,5.29,0,0,0,.8.24l.72.14a6.51,6.51,0,0,1,1.08.34,2.63,2.63,0,0,1,.88.52,2,2,0,0,1,.58.78,2.51,2.51,0,0,1,.22,1.12,2.67,2.67,0,0,1-.34,1.38,2.86,2.86,0,0,1-.88.92,3.74,3.74,0,0,1-1.24.52,6.35,6.35,0,0,1-1.38.16,5.6,5.6,0,0,1-2.08-.36,3.8,3.8,0,0,1-1.58-1.32l1.36-1.12a6.22,6.22,0,0,0,1,.78,2.49,2.49,0,0,0,1.32.34,3.82,3.82,0,0,0,.68-.06,2.79,2.79,0,0,0,.62-.22,1.39,1.39,0,0,0,.44-.38.88.88,0,0,0,.18-.54.86.86,0,0,0-.26-.66,1.48,1.48,0,0,0-.6-.4,2.79,2.79,0,0,0-.74-.24c-.25-.07-.48-.12-.68-.16-.38-.1-.75-.2-1.1-.32a3.49,3.49,0,0,1-.92-.48,2.36,2.36,0,0,1-.64-.76,2.46,2.46,0,0,1-.24-1.14,2.58,2.58,0,0,1,.3-1.28,2.92,2.92,0,0,1,.82-.92,4,4,0,0,1,1.16-.54,5,5,0,0,1,1.32-.18,4.79,4.79,0,0,1,1.84.36,2.87,2.87,0,0,1,1.4,1.2Zm-9.11,1.58a3.47,3.47,0,0,0-.2-1.1,2.17,2.17,0,0,0-.5-.86,2.08,2.08,0,0,0-.86-.58,2.86,2.86,0,0,0-1.18-.22,3,3,0,0,0-2.14.9,3.08,3.08,0,0,0-.6.9,2.54,2.54,0,0,0-.2,1Zm-5.68,1.44a2.58,2.58,0,0,0,.26,1.14,3.14,3.14,0,0,0,.72.86,3.35,3.35,0,0,0,1,.56,3.78,3.78,0,0,0,1.2.2,2.76,2.76,0,0,0,1.46-.38,5.27,5.27,0,0,0,1.14-1l1.36,1a5,5,0,0,1-4.2,1.94,5.33,5.33,0,0,1-2-.38,4.76,4.76,0,0,1-1.54-1,5.07,5.07,0,0,1-1-1.58,5.64,5.64,0,0,1-.34-2,5.22,5.22,0,0,1,.36-2,4.78,4.78,0,0,1,1-1.58,4.55,4.55,0,0,1,1.56-1.06,4.86,4.86,0,0,1,2-.38,4.53,4.53,0,0,1,2.12.44,4,4,0,0,1,1.44,1.16,4.31,4.31,0,0,1,.8,1.6,6.37,6.37,0,0,1,.26,1.8v.64Zm-9,2.64a3.35,3.35,0,0,0,1.3-.24,3.06,3.06,0,0,0,1-.68,3,3,0,0,0,.62-1,3.92,3.92,0,0,0,.22-1.34,3.73,3.73,0,0,0-.22-1.32,2.7,2.7,0,0,0-.62-1,2.54,2.54,0,0,0-1-.68,3,3,0,0,0-1.3-.26,3.05,3.05,0,0,0-1.3.26,2.7,2.7,0,0,0-1,.68,3,3,0,0,0-.62,1,4,4,0,0,0-.22,1.32,4.18,4.18,0,0,0,.22,1.34,3.38,3.38,0,0,0,.62,1,3.3,3.3,0,0,0,1,.68A3.38,3.38,0,0,0,313.89,260.72Zm4.92,1.44H317V260.8h0a3.39,3.39,0,0,1-1.44,1.18,4.35,4.35,0,0,1-1.86.42,5.17,5.17,0,0,1-2-.38,4.78,4.78,0,0,1-1.52-1.06,5.07,5.07,0,0,1-1-1.58,5.82,5.82,0,0,1,0-3.92,4.65,4.65,0,0,1,1-1.58,4.48,4.48,0,0,1,1.52-1.06,5,5,0,0,1,2-.38,4.23,4.23,0,0,1,1.92.44A3.17,3.17,0,0,1,317,254h0v-7h1.8Zm-26.18-9.48h1.8v1.46h0a2.57,2.57,0,0,1,1.18-1.22,3.85,3.85,0,0,1,1.94-.48,3.74,3.74,0,0,1,1.3.22,2.58,2.58,0,0,1,1.1.64,2.93,2.93,0,0,1,.76,1.14,4.16,4.16,0,0,1,.28,1.62v6.1h-1.8v-5.6a3.06,3.06,0,0,0-.18-1.12,1.91,1.91,0,0,0-.48-.76,1.63,1.63,0,0,0-.7-.42,2.14,2.14,0,0,0-.8-.14,3,3,0,0,0-1,.18,2.09,2.09,0,0,0-.84.58,2.66,2.66,0,0,0-.56,1,4.59,4.59,0,0,0-.2,1.42v4.88h-1.8Zm-5.25,4.92a10.15,10.15,0,0,0-1.32.08,4.72,4.72,0,0,0-1.22.26,2.42,2.42,0,0,0-.9.56,1.3,1.3,0,0,0-.34.92,1.32,1.32,0,0,0,.54,1.18,2.78,2.78,0,0,0,1.5.36,3,3,0,0,0,1.26-.24,2.57,2.57,0,0,0,.84-.66,2.4,2.4,0,0,0,.46-.88,3.41,3.41,0,0,0,.14-1v-.6Zm-5.08-3.76a4.83,4.83,0,0,1,1.76-1,5.91,5.91,0,0,1,2-.36,5.18,5.18,0,0,1,1.78.26,3.3,3.3,0,0,1,1.24.7,2.53,2.53,0,0,1,.7,1,2.93,2.93,0,0,1,.24,1.18v4.84c0,.33,0,.64,0,.92s0,.54.06.8h-1.6q-.06-.72-.06-1.44h0A3.5,3.5,0,0,1,287,262a4.5,4.5,0,0,1-1.9.38,4.36,4.36,0,0,1-1.26-.18,3.22,3.22,0,0,1-1.06-.54,2.59,2.59,0,0,1-1-2.12,2.82,2.82,0,0,1,.4-1.54,3.09,3.09,0,0,1,1.12-1,5,5,0,0,1,1.66-.56,11.06,11.06,0,0,1,2-.18h1.32v-.4a1.84,1.84,0,0,0-.14-.72,2,2,0,0,0-1.12-1.1,2.52,2.52,0,0,0-1-.18,3.71,3.71,0,0,0-.92.1,3.25,3.25,0,0,0-.7.26,2.59,2.59,0,0,0-.58.34l-.5.38Zm-5.12-4.56a1.22,1.22,0,0,1,.38-.92,1.26,1.26,0,0,1,.94-.4,1.22,1.22,0,0,1,.92.4,1.24,1.24,0,0,1,.4.92,1.32,1.32,0,0,1-.4.94,1.28,1.28,0,0,1-.92.38,1.32,1.32,0,0,1-.94-.38A1.3,1.3,0,0,1,277.18,249.28Zm.42,3.4h1.8v9.48h-1.8Zm-7.45,8a3.38,3.38,0,0,0,1.3-.24,2.84,2.84,0,0,0,1.6-1.72,3.92,3.92,0,0,0,.22-1.34,3.73,3.73,0,0,0-.22-1.32,2.83,2.83,0,0,0-.62-1,2.62,2.62,0,0,0-1-.68,3.38,3.38,0,0,0-2.6,0,2.62,2.62,0,0,0-1,.68,2.83,2.83,0,0,0-.62,1,3.73,3.73,0,0,0-.22,1.32,3.92,3.92,0,0,0,.22,1.34,2.84,2.84,0,0,0,1.6,1.72A3.38,3.38,0,0,0,270.15,260.72ZM265.23,247H267v7h0a3.17,3.17,0,0,1,1.38-1.16,4.23,4.23,0,0,1,1.92-.44,4.86,4.86,0,0,1,2,.38,4.13,4.13,0,0,1,1.52,1.06,4.4,4.4,0,0,1,1,1.58,5.82,5.82,0,0,1,0,3.92,4.77,4.77,0,0,1-1,1.58,4.38,4.38,0,0,1-1.52,1.06,5,5,0,0,1-2,.38,4.47,4.47,0,0,1-1.88-.42,3.51,3.51,0,0,1-1.42-1.18h0v1.36h-1.8Zm-5.08,2.24a1.22,1.22,0,0,1,.38-.92,1.26,1.26,0,0,1,.94-.4,1.22,1.22,0,0,1,.92.4,1.24,1.24,0,0,1,.4.92,1.32,1.32,0,0,1-.4.94,1.28,1.28,0,0,1-.92.38,1.32,1.32,0,0,1-.94-.38A1.3,1.3,0,0,1,260.15,249.28Zm.42,3.4h1.8v9.48h-1.8Zm-17.18,0h1.68v1.48h0a1.55,1.55,0,0,1,.3-.5,3.52,3.52,0,0,1,.64-.56,3.77,3.77,0,0,1,.92-.46,3.25,3.25,0,0,1,1.18-.2,3.29,3.29,0,0,1,1.78.44,3.18,3.18,0,0,1,1.18,1.32,3,3,0,0,1,1.3-1.32,3.56,3.56,0,0,1,1.7-.44,3.89,3.89,0,0,1,1.8.36,2.79,2.79,0,0,1,1.1,1,3.27,3.27,0,0,1,.54,1.34,7,7,0,0,1,.16,1.54v5.52h-1.8v-5.28a5.85,5.85,0,0,0-.08-1,2.17,2.17,0,0,0-.28-.88,1.44,1.44,0,0,0-.62-.6,2,2,0,0,0-1.06-.24,2.11,2.11,0,0,0-1.86.8,3.53,3.53,0,0,0-.56,2.06v5.18h-1.8v-5a7.83,7.83,0,0,0-.08-1.24,2.41,2.41,0,0,0-.28-1,1.33,1.33,0,0,0-.6-.64,1.93,1.93,0,0,0-1-.24,2.24,2.24,0,0,0-.94.2,2.09,2.09,0,0,0-.78.56,3,3,0,0,0-.54,1,4.28,4.28,0,0,0-.2,1.38v4.92h-1.8Zm-5.25,4.92a10.15,10.15,0,0,0-1.32.08,4.72,4.72,0,0,0-1.22.26,2.42,2.42,0,0,0-.9.56,1.3,1.3,0,0,0-.34.92,1.32,1.32,0,0,0,.54,1.18,2.78,2.78,0,0,0,1.5.36,3,3,0,0,0,1.26-.24,2.57,2.57,0,0,0,.84-.66,2.4,2.4,0,0,0,.46-.88,3.41,3.41,0,0,0,.14-1v-.6Zm-5.08-3.76a4.83,4.83,0,0,1,1.76-1,5.91,5.91,0,0,1,2-.36,5.18,5.18,0,0,1,1.78.26,3.3,3.3,0,0,1,1.24.7,2.53,2.53,0,0,1,.7,1,2.93,2.93,0,0,1,.24,1.18v4.84c0,.33,0,.64,0,.92s0,.54.06.8h-1.6q-.06-.72-.06-1.44h0a3.5,3.5,0,0,1-1.42,1.3,4.5,4.5,0,0,1-1.9.38,4.36,4.36,0,0,1-1.26-.18,3.22,3.22,0,0,1-1.06-.54,2.59,2.59,0,0,1-1-2.12A2.82,2.82,0,0,1,233,258a3.09,3.09,0,0,1,1.12-1,5,5,0,0,1,1.66-.56,11.06,11.06,0,0,1,2-.18h1.32v-.4a1.84,1.84,0,0,0-.14-.72,2,2,0,0,0-1.12-1.1,2.52,2.52,0,0,0-1-.18,3.71,3.71,0,0,0-.92.1,3.25,3.25,0,0,0-.7.26,2.59,2.59,0,0,0-.58.34l-.5.38ZM217.57,248h2.52l7.8,11.64h0V248h1.92v14.16h-2.44l-7.88-11.64h0v11.64h-1.92Z" transform="translate(-35.76 -54.16)"/><path class="cls-3" d="M209.47,258.16h-4.92v-1.68h4.92Zm-15.86-.26c-.23,0-.51,0-.86,0a3.65,3.65,0,0,0-1,.16,2.19,2.19,0,0,0-.8.42,1,1,0,0,0-.32.78.86.86,0,0,0,.46.8,2,2,0,0,0,1,.26,2.94,2.94,0,0,0,.84-.12,2.65,2.65,0,0,0,.74-.34,1.67,1.67,0,0,0,.5-.56,1.61,1.61,0,0,0,.2-.8v-.64Zm.74,3h0a2.82,2.82,0,0,1-1.34,1.12,4.65,4.65,0,0,1-1.74.34,4.54,4.54,0,0,1-1.32-.2,3.27,3.27,0,0,1-1.1-.56,2.89,2.89,0,0,1-.76-.94,2.86,2.86,0,0,1-.28-1.3,3,3,0,0,1,.3-1.42,2.78,2.78,0,0,1,.84-1,3.93,3.93,0,0,1,1.22-.58,7.3,7.3,0,0,1,1.4-.32A12.14,12.14,0,0,1,193,256c.49,0,.95,0,1.36,0a1.49,1.49,0,0,0-.58-1.26,2,2,0,0,0-1.34-.48,2.84,2.84,0,0,0-1.36.32,3.59,3.59,0,0,0-1.08.84l-1.6-1.64a5.31,5.31,0,0,1,2-1.16,6.78,6.78,0,0,1,2.32-.4,5.75,5.75,0,0,1,2.16.34,3,3,0,0,1,1.36,1,3.55,3.55,0,0,1,.72,1.58,10.32,10.32,0,0,1,.2,2.14v4.94h-2.76Zm-11.49-11.56a1.63,1.63,0,0,1,.5-1.22,1.67,1.67,0,0,1,1.24-.52,1.63,1.63,0,0,1,1.22.52,1.65,1.65,0,0,1,.52,1.22,1.72,1.72,0,0,1-.52,1.24,1.68,1.68,0,0,1-1.22.5,1.73,1.73,0,0,1-1.24-.5A1.71,1.71,0,0,1,182.86,249.38Zm.24,3.06h3v9.72h-3Zm-9.6,4.86a2.53,2.53,0,0,0,.62,1.78,2.33,2.33,0,0,0,1.78.68,2.28,2.28,0,0,0,1.76-.68,2.54,2.54,0,0,0,.64-1.78,2.5,2.5,0,0,0-.64-1.78,2.25,2.25,0,0,0-1.76-.68,2.29,2.29,0,0,0-1.78.68A2.49,2.49,0,0,0,173.5,257.3ZM170.74,247h3v6.44h0a2.62,2.62,0,0,1,1.32-1,5,5,0,0,1,1.76-.3,3.81,3.81,0,0,1,1.86.44,4.22,4.22,0,0,1,1.38,1.14,5.17,5.17,0,0,1,.88,1.66,6.11,6.11,0,0,1,0,4,4.93,4.93,0,0,1-1,1.6,4.69,4.69,0,0,1-1.5,1,5.14,5.14,0,0,1-2,.36,3.41,3.41,0,0,1-1-.14,5.16,5.16,0,0,1-.86-.36,4.54,4.54,0,0,1-.68-.48,4.15,4.15,0,0,1-.46-.54h0v1.28h-2.76Zm-5.68,2.34a1.67,1.67,0,0,1,.5-1.22,1.69,1.69,0,0,1,1.24-.52,1.78,1.78,0,0,1,1.74,1.74,1.69,1.69,0,0,1-.52,1.24,1.67,1.67,0,0,1-1.22.5,1.71,1.71,0,0,1-1.74-1.74Zm.24,3.06h3v9.72h-3Zm-17.44,0h2.88v1.32h0a2.24,2.24,0,0,1,.4-.56,2.57,2.57,0,0,1,.62-.5,3.48,3.48,0,0,1,1.82-.5,3.74,3.74,0,0,1,1.8.42,2.68,2.68,0,0,1,1.2,1.32,3.22,3.22,0,0,1,1.26-1.34,3.74,3.74,0,0,1,1.82-.4,3.52,3.52,0,0,1,1.64.34,2.47,2.47,0,0,1,1.06.9,3.46,3.46,0,0,1,.56,1.34,7,7,0,0,1,.18,1.64v5.74h-3V256.5a2.13,2.13,0,0,0-.3-1.16,1.06,1.06,0,0,0-1-.5,1.94,1.94,0,0,0-.88.18,1.39,1.39,0,0,0-.56.46,2.35,2.35,0,0,0-.3.7,4.44,4.44,0,0,0-.08.84v5.14h-3V257c0-.18,0-.39,0-.64a2.36,2.36,0,0,0-.14-.72,1.29,1.29,0,0,0-.4-.58,1.1,1.1,0,0,0-.78-.24,1.74,1.74,0,0,0-.94.22,1.37,1.37,0,0,0-.56.56,2.23,2.23,0,0,0-.24.78,6.77,6.77,0,0,0-.06.92v4.84h-3Zm-5.38,5.46c-.23,0-.52,0-.86,0a3.59,3.59,0,0,0-1,.16,2.11,2.11,0,0,0-.8.42.94.94,0,0,0-.32.78.86.86,0,0,0,.46.8,1.92,1.92,0,0,0,1,.26,2.94,2.94,0,0,0,.84-.12,2.79,2.79,0,0,0,.74-.34,1.67,1.67,0,0,0,.5-.56,1.61,1.61,0,0,0,.2-.8v-.64Zm.74,3h0a2.86,2.86,0,0,1-1.34,1.12,4.65,4.65,0,0,1-1.74.34,4.44,4.44,0,0,1-1.32-.2,3.18,3.18,0,0,1-1.1-.56,2.77,2.77,0,0,1-.76-.94,2.86,2.86,0,0,1-.28-1.3,3,3,0,0,1,.3-1.42,2.78,2.78,0,0,1,.84-1,3.82,3.82,0,0,1,1.22-.58,7.3,7.3,0,0,1,1.4-.32,12.14,12.14,0,0,1,1.46-.12c.49,0,.94,0,1.36,0a1.52,1.52,0,0,0-.58-1.26,2,2,0,0,0-1.34-.48,2.81,2.81,0,0,0-1.36.32,3.59,3.59,0,0,0-1.08.84l-1.6-1.64a5.31,5.31,0,0,1,2-1.16,6.74,6.74,0,0,1,2.32-.4,5.75,5.75,0,0,1,2.16.34,3,3,0,0,1,1.36,1,3.78,3.78,0,0,1,.72,1.58,10.32,10.32,0,0,1,.2,2.14v4.94h-2.76Zm-22-12.94h4.24l6,9.84h0V248h3.12v14.16h-4.08l-6.18-10.08h0v10.08h-3.12Z" transform="translate(-35.76 -54.16)"/></svg>