<svg id="Layer_1" data-name="Layer 1" xmlns="http://www.w3.org/2000/svg" viewBox="0 0 373.22 319.22"><defs><style>.cls-1{fill:#fff;}.cls-2{fill:#ed1e79;}</style></defs><polygon class="cls-1" points="138.38 145.01 140.29 145.01 140.29 157.28 146.74 157.28 146.74 159.07 138.38 159.07 138.38 145.01"/><rect class="cls-1" x="150.67" y="145.01" width="1.91" height="14.06"/><polygon class="cls-1" points="158.18 145.01 167.02 145.01 167.02 146.8 160.09 146.8 160.09 151.21 166.54 151.21 166.54 153 160.09 153 160.09 159.08 158.18 159.08 158.18 145.01"/><polygon class="cls-1" points="171.56 145.01 180.63 145.01 180.63 146.8 173.46 146.8 173.46 150.99 180.13 150.99 180.13 152.78 173.46 152.78 173.46 157.29 181 157.29 181 159.08 171.57 159.08 171.57 145.01 171.56 145.01"/><path class="cls-1" d="M266.42,238.58a3.93,3.93,0,0,0-1.51-1.19A4.48,4.48,0,0,0,263,237a5,5,0,0,0-3.8,1.67,5.48,5.48,0,0,0-1.06,1.82,6.57,6.57,0,0,0-.38,2.23,6.2,6.2,0,0,0,.36,2.11,5.39,5.39,0,0,0,1,1.75,4.85,4.85,0,0,0,1.65,1.19,5.33,5.33,0,0,0,2.2.44,4.41,4.41,0,0,0,2.13-.5,4.47,4.47,0,0,0,1.55-1.39l1.61,1.21a6.9,6.9,0,0,1-.56.63,6,6,0,0,1-1.05.81,7.27,7.27,0,0,1-1.58.71,7.49,7.49,0,0,1-5.14-.32,7.24,7.24,0,0,1-2.28-1.67,7.45,7.45,0,0,1-1.94-5,8.18,8.18,0,0,1,.54-3,7.19,7.19,0,0,1,1.5-2.38,6.64,6.64,0,0,1,2.31-1.56,7.75,7.75,0,0,1,3-.56,7.22,7.22,0,0,1,2.73.54,5.09,5.09,0,0,1,2.19,1.65Z" transform="translate(-63.44 -90.53)"/><rect class="cls-1" x="209.16" y="145.01" width="1.91" height="14.06"/><path class="cls-1" d="M289.89,238.58a3.93,3.93,0,0,0-1.51-1.19,4.48,4.48,0,0,0-1.89-.42,5,5,0,0,0-3.8,1.67,5.48,5.48,0,0,0-1.06,1.82,6.57,6.57,0,0,0-.38,2.23,6.2,6.2,0,0,0,.36,2.11,5.39,5.39,0,0,0,1,1.75,4.85,4.85,0,0,0,1.65,1.19,5.33,5.33,0,0,0,2.2.44,4.34,4.34,0,0,0,2.12-.5,4.47,4.47,0,0,0,1.55-1.39l1.61,1.21a6.9,6.9,0,0,1-.56.63,5.32,5.32,0,0,1-1,.81,7.27,7.27,0,0,1-1.58.71,7.49,7.49,0,0,1-5.14-.32,7.24,7.24,0,0,1-2.28-1.67,7.45,7.45,0,0,1-1.94-5,8.18,8.18,0,0,1,.54-3,7.19,7.19,0,0,1,1.5-2.38,6.64,6.64,0,0,1,2.31-1.56,7.75,7.75,0,0,1,3-.56,7.22,7.22,0,0,1,2.73.54,5.18,5.18,0,0,1,2.2,1.65Z" transform="translate(-63.44 -90.53)"/><polygon class="cls-1" points="232.63 145.01 234.54 145.01 234.54 157.28 240.99 157.28 240.99 159.07 232.63 159.07 232.63 145.01"/><polygon class="cls-1" points="244.92 145.01 254 145.01 254 146.8 246.83 146.8 246.83 150.99 253.5 150.99 253.5 152.78 246.83 152.78 246.83 157.29 254.36 157.29 254.36 159.08 244.93 159.08 244.93 145.01 244.92 145.01"/><polygon class="cls-1" points="331.66 74.25 338.25 74.25 338.25 75.55 333.04 75.55 333.04 78.59 337.88 78.59 337.88 79.89 333.04 79.89 333.04 83.16 338.5 83.16 338.5 84.46 331.65 84.46 331.65 74.25 331.66 74.25"/><path class="cls-1" d="M414.05,169.28v5a4.46,4.46,0,0,1-.85.4,10.34,10.34,0,0,1-1,.3,9,9,0,0,1-1,.18,8.74,8.74,0,0,1-1,.06,5.77,5.77,0,0,1-2.31-.43,5.14,5.14,0,0,1-1.72-1.17,5,5,0,0,1-1.07-1.71,5.66,5.66,0,0,1-.37-2.06,5.48,5.48,0,0,1,.4-2.12,5.14,5.14,0,0,1,1.1-1.7,5,5,0,0,1,1.68-1.13,5.57,5.57,0,0,1,2.15-.41,6.53,6.53,0,0,1,2.31.35,4.27,4.27,0,0,1,1.5,1l-1,1a3.54,3.54,0,0,0-1.34-.84,4.61,4.61,0,0,0-1.49-.24,3.89,3.89,0,0,0-1.59.32,3.94,3.94,0,0,0-1.21.87,3.84,3.84,0,0,0-.78,1.29,4.6,4.6,0,0,0-.27,1.58,4.27,4.27,0,0,0,.3,1.61,3.79,3.79,0,0,0,.84,1.29,3.85,3.85,0,0,0,2.82,1.17,6.89,6.89,0,0,0,1.39-.14,3.68,3.68,0,0,0,1.12-.4v-2.84H410.4v-1.3h3.65Z" transform="translate(-63.44 -90.53)"/><path class="cls-1" d="M426.71,169.28v5a4.46,4.46,0,0,1-.85.4,10.34,10.34,0,0,1-1,.3,9,9,0,0,1-1,.18,8.74,8.74,0,0,1-1,.06,5.77,5.77,0,0,1-2.31-.43,5.14,5.14,0,0,1-1.72-1.17,5,5,0,0,1-1.07-1.71,5.66,5.66,0,0,1-.37-2.06,5.48,5.48,0,0,1,.4-2.12,5.14,5.14,0,0,1,1.1-1.7,5,5,0,0,1,1.68-1.13,5.57,5.57,0,0,1,2.15-.41,6.53,6.53,0,0,1,2.31.35,4.27,4.27,0,0,1,1.5,1l-1,1a3.54,3.54,0,0,0-1.34-.84,4.61,4.61,0,0,0-1.49-.24,3.89,3.89,0,0,0-1.59.32,3.94,3.94,0,0,0-1.21.87,3.84,3.84,0,0,0-.78,1.29,4.6,4.6,0,0,0-.27,1.58,4.27,4.27,0,0,0,.3,1.61,3.79,3.79,0,0,0,.84,1.29,3.85,3.85,0,0,0,2.82,1.17,6.89,6.89,0,0,0,1.39-.14,3.68,3.68,0,0,0,1.12-.4v-2.84h-2.26v-1.3h3.65Z" transform="translate(-63.44 -90.53)"/><path class="cls-1" d="M431,172.86a2.26,2.26,0,0,0,1,.83,2.84,2.84,0,0,0,1.2.27,2.56,2.56,0,0,0,.71-.11,2.24,2.24,0,0,0,.66-.32A1.62,1.62,0,0,0,435,173a1.38,1.38,0,0,0,.19-.74,1.11,1.11,0,0,0-.38-.9,3.18,3.18,0,0,0-.93-.52c-.37-.14-.77-.27-1.21-.4a4.9,4.9,0,0,1-1.21-.54,3,3,0,0,1-.93-.93,2.91,2.91,0,0,1-.37-1.58,2.63,2.63,0,0,1,.19-.95,2.6,2.6,0,0,1,.61-.92,3.42,3.42,0,0,1,1.08-.7,4,4,0,0,1,1.58-.28,5.63,5.63,0,0,1,1.6.23,2.71,2.71,0,0,1,1.34.94l-1.12,1a1.81,1.81,0,0,0-.74-.65,2.39,2.39,0,0,0-1.08-.25,2.65,2.65,0,0,0-1,.15,1.61,1.61,0,0,0-.61.39,1.41,1.41,0,0,0-.32.51,1.61,1.61,0,0,0-.09.5,1.28,1.28,0,0,0,.38,1,2.85,2.85,0,0,0,.93.56c.37.14.77.27,1.21.39a5.65,5.65,0,0,1,1.21.48,2.87,2.87,0,0,1,.93.84,2.45,2.45,0,0,1,.37,1.45,3,3,0,0,1-.28,1.33,2.88,2.88,0,0,1-.76,1,3.3,3.3,0,0,1-1.12.62,4.43,4.43,0,0,1-1.38.22,5.08,5.08,0,0,1-1.86-.35,3.07,3.07,0,0,1-1.4-1.07Z" transform="translate(-63.44 -90.53)"/><polygon class="cls-1" points="283.11 293.94 284.49 293.94 284.49 302.85 289.18 302.85 289.18 304.15 283.11 304.15 283.11 293.94"/><path class="cls-1" d="M361.16,391l-1.9-4.69h0L357.3,391Zm-2.48-6.48h1.25l4.37,10.21h-1.62l-1-2.52H356.8l-1,2.52h-1.61Z" transform="translate(-63.44 -90.53)"/><path class="cls-1" d="M368.45,389h1.82a5.29,5.29,0,0,0,.8-.06,2.06,2.06,0,0,0,.71-.24,1.33,1.33,0,0,0,.5-.5,1.63,1.63,0,0,0,.19-.84,1.58,1.58,0,0,0-.19-.84,1.27,1.27,0,0,0-.5-.5,2.2,2.2,0,0,0-.71-.24,5.29,5.29,0,0,0-.8-.06h-1.82Zm-1.38-4.5h3.59a4.22,4.22,0,0,1,1.62.27,2.68,2.68,0,0,1,1,.68,2.15,2.15,0,0,1,.51.92,3.48,3.48,0,0,1,.14,1,2.7,2.7,0,0,1-.17.94,2.66,2.66,0,0,1-.5.82,2.86,2.86,0,0,1-.79.62,2.74,2.74,0,0,1-1.05.31l2.9,4.66h-1.73l-2.6-4.5h-1.54v4.5h-1.38Z" transform="translate(-63.44 -90.53)"/><polygon class="cls-1" points="312.48 293.94 314.08 293.94 317.08 302.25 317.11 302.25 320.22 293.94 321.73 293.94 317.71 304.15 316.41 304.15 312.48 293.94"/><path class="cls-1" d="M392.86,391l-1.9-4.69h0L389,391Zm-2.48-6.48h1.25L396,394.68h-1.62l-1-2.52H388.5l-1,2.52h-1.61Z" transform="translate(-63.44 -90.53)"/><path class="cls-1" d="M79.87,367.76h1.82a5.29,5.29,0,0,0,.8-.06,2.06,2.06,0,0,0,.71-.24,1.33,1.33,0,0,0,.5-.5,1.74,1.74,0,0,0,.19-.84,1.58,1.58,0,0,0-.19-.84,1.33,1.33,0,0,0-.5-.5,2.2,2.2,0,0,0-.71-.24,5.39,5.39,0,0,0-.8-.06H79.87Zm-1.39-4.49h3.59a4.22,4.22,0,0,1,1.62.27,2.68,2.68,0,0,1,1,.68,2.39,2.39,0,0,1,.51.92,3.48,3.48,0,0,1,.14,1,3.87,3.87,0,0,1-.14,1,2.39,2.39,0,0,1-.51.92,2.89,2.89,0,0,1-1,.68,4.15,4.15,0,0,1-1.62.27H79.86v4.5H78.48Z" transform="translate(-63.44 -90.53)"/><path class="cls-1" d="M89.67,363.27v6.26a3.85,3.85,0,0,0,.13,1,3,3,0,0,0,.43,1,2.46,2.46,0,0,0,.79.71,2.85,2.85,0,0,0,2.42,0,2.26,2.26,0,0,0,.79-.71,2.73,2.73,0,0,0,.43-1,3.85,3.85,0,0,0,.13-1v-6.26h1.38v6.47a4.18,4.18,0,0,1-.3,1.62,3.67,3.67,0,0,1-.84,1.26,3.62,3.62,0,0,1-1.25.82,4.34,4.34,0,0,1-3.12,0,3.67,3.67,0,0,1-1.25-.82,4,4,0,0,1-.84-1.26,4.21,4.21,0,0,1-.3-1.62v-6.47Z" transform="translate(-63.44 -90.53)"/><path class="cls-1" d="M101.45,367.76h1.82a5.29,5.29,0,0,0,.8-.06,2.06,2.06,0,0,0,.71-.24,1.33,1.33,0,0,0,.5-.5,1.63,1.63,0,0,0,.19-.84,1.58,1.58,0,0,0-.19-.84,1.33,1.33,0,0,0-.5-.5,2.2,2.2,0,0,0-.71-.24,5.39,5.39,0,0,0-.8-.06h-1.82Zm-1.38-4.49h3.59a4.22,4.22,0,0,1,1.62.27,2.68,2.68,0,0,1,1,.68,2.39,2.39,0,0,1,.51.92,3.48,3.48,0,0,1,.14,1,3.87,3.87,0,0,1-.14,1,2.39,2.39,0,0,1-.51.92,2.89,2.89,0,0,1-1,.68,4.15,4.15,0,0,1-1.62.27h-2.21v4.5h-1.38Z" transform="translate(-63.44 -90.53)"/><path class="cls-1" d="M114.68,369.74l-1.9-4.69h0l-1.93,4.69Zm-2.48-6.47h1.25l4.37,10.21H116.2l-1-2.52h-4.86l-1,2.52H107.7Z" transform="translate(-63.44 -90.53)"/><path class="cls-1" d="M70.42,162.77l-1.9-4.69h0l-1.93,4.69Zm-2.48-6.47h1.25l4.37,10.21H72l-1-2.52H66.06l-1,2.52H63.44Z" transform="translate(-63.44 -90.53)"/><path class="cls-1" d="M77.49,165.21h1.74A5.71,5.71,0,0,0,80.9,165a4.3,4.3,0,0,0,1.38-.71,3.45,3.45,0,0,0,.94-1.19,3.8,3.8,0,0,0,.35-1.67,4.78,4.78,0,0,0-.16-1.15,3.6,3.6,0,0,0-.6-1.25,3.51,3.51,0,0,0-1.22-1,4.37,4.37,0,0,0-2-.41H77.49ZM76.1,156.3h3.56a6.43,6.43,0,0,1,1.9.25,4.83,4.83,0,0,1,1.41.66,4,4,0,0,1,1,.94,5.1,5.1,0,0,1,.63,1.1,6.16,6.16,0,0,1,.33,1.12,5.69,5.69,0,0,1,.1,1,5.17,5.17,0,0,1-.36,1.9,4.86,4.86,0,0,1-1.07,1.63,5.28,5.28,0,0,1-1.75,1.15,6.26,6.26,0,0,1-2.42.43H76.09V156.3Z" transform="translate(-63.44 -90.53)"/><path class="cls-1" d="M89.66,156.3v6.26a3.85,3.85,0,0,0,.13,1,3,3,0,0,0,.43.95,2.46,2.46,0,0,0,.79.71,2.85,2.85,0,0,0,2.42,0,2.26,2.26,0,0,0,.79-.71,2.73,2.73,0,0,0,.43-.95,3.85,3.85,0,0,0,.13-1V156.3h1.38v6.47a4.18,4.18,0,0,1-.3,1.62,3.67,3.67,0,0,1-.84,1.26,3.62,3.62,0,0,1-1.25.82,4.34,4.34,0,0,1-3.12,0,3.67,3.67,0,0,1-1.25-.82,4,4,0,0,1-.84-1.26,4.21,4.21,0,0,1-.3-1.62V156.3Z" transform="translate(-63.44 -90.53)"/><polygon class="cls-1" points="36.61 65.77 38 65.77 38 74.68 42.69 74.68 42.69 75.98 36.62 75.98 36.62 65.77 36.61 65.77"/><polygon class="cls-1" points="46.35 67.07 43.06 67.07 43.06 65.77 51.02 65.77 51.02 67.07 47.73 67.07 47.73 75.98 46.35 75.98 46.35 67.07"/><path class="cls-2" d="M129.46,158.05q7.44-5.24,15.12-10.09c4.36-2.76,9.21-6,14.49-6.49a8.56,8.56,0,0,1,6.24,1.49c2,1.64,3,4.45,4.15,6.73a131.26,131.26,0,0,1,6.81,16.25c3.2,9.73,4.34,21.62-2.5,30.16a13.79,13.79,0,0,1-5.69,4.45c-2.71,1-5.43.42-8.12-.33-4.76-1.32-9.71-3-13.48-6.31-4.64-4.08-6.75-10.45-9-16q-3.84-9.51-6.95-19.29c-.5-1.55-3-.89-2.45.68q3,9.38,6.65,18.53c1.18,2.94,2.39,5.89,3.71,8.77a29.66,29.66,0,0,0,4.6,7.48c3.6,4.06,8.75,6.32,13.83,7.9,2.75.86,5.73,1.85,8.64,1.7a12.76,12.76,0,0,0,7.25-2.94c9.11-7.23,9.86-20.52,7.29-31a100.27,100.27,0,0,0-6.47-17.32,88.51,88.51,0,0,0-4.13-8.41,9.92,9.92,0,0,0-5.76-4.72c-6-1.74-12.28,1.56-17.25,4.52-6.24,3.73-12.29,7.83-18.23,12C126.84,156.79,128.11,159,129.46,158.05Z" transform="translate(-63.44 -90.53)"/><path class="cls-2" d="M122,132.79a35.74,35.74,0,0,0-1.15,13.53,26.39,26.39,0,0,0,1.23,6.16c.59,1.64,1.65,3.18,3.51,3.4a8,8,0,0,0,2.94-.43c1-.26,2-.54,3-.89a13,13,0,0,0,4.85-2.9c2.62-2.6,3.82-6.57,7.52-7.95a30.48,30.48,0,0,1,6-1.23,65.34,65.34,0,0,0,6.64-1.42c3.59-1,8.2-2.24,7.85-6.87a12.58,12.58,0,0,0-1.87-5.21,33.31,33.31,0,0,0-3.06-4.56c-2.3-2.82-5.5-4.71-9.23-4.07a17.36,17.36,0,0,0-6,2.65,43,43,0,0,1-6.52,3.42c-5,2-10.1,3.84-15.15,5.75-1.52.57-.86,3,.68,2.45L135.4,130c1.85-.7,3.7-1.39,5.5-2.22a50.53,50.53,0,0,0,4.92-2.78c2.8-1.71,6-3.25,9.07-1.34,2.65,1.63,4.49,4.75,5.88,7.45.66,1.28,1.45,3.05.91,4.5-.6,1.62-2.66,2.05-4.12,2.49a110.75,110.75,0,0,1-11.69,2.44,13.61,13.61,0,0,0-4.8,1.72,13,13,0,0,0-3.45,3.51,32.75,32.75,0,0,1-2.94,4,10.84,10.84,0,0,1-4.48,2.58c-.92.3-1.87.55-2.81.79s-1.71.48-2.33-.33a6.49,6.49,0,0,1-.9-2.38,33.13,33.13,0,0,1-.64-3.27,33.62,33.62,0,0,1,1-13.68A1.28,1.28,0,0,0,122,132.79Z" transform="translate(-63.44 -90.53)"/><path class="cls-2" d="M127.14,131.49c-.36-1.29-1-2.45-1.45-3.73a3.24,3.24,0,0,1,.92-3.52,17.72,17.72,0,0,1,6.8-4.17c1.28-.48,2.58-.87,3.9-1.23a25.11,25.11,0,0,1,4.15-1c2.66-.26,3.91,2.56,4.82,4.59.67,1.49,2.86.2,2.2-1.28-1.2-2.68-3-5.69-6.27-5.86a16,16,0,0,0-4.92.94,48.24,48.24,0,0,0-4.87,1.53,19.2,19.2,0,0,0-8,5.21,5.52,5.52,0,0,0-1.36,4.56c.28,1.64,1.24,3.06,1.68,4.66A1.27,1.27,0,0,0,127.14,131.49Z" transform="translate(-63.44 -90.53)"/><path class="cls-2" d="M141.27,115.68l.45-1.41-.89.89a3,3,0,0,1,.41-.09c.17,0,0,0-.09,0l.21,0a5.21,5.21,0,0,1,.79,0c.28,0-.21,0-.05,0l.21,0,.41.1.36.12c.25.09,0,0,0,0s.17.08.19.09a5.9,5.9,0,0,1,.69.4l.14.1c-.24-.12-.11-.08,0,0l.31.28a3.33,3.33,0,0,1,.25.28s.13.22.06.07,0,0,.05.07a4.33,4.33,0,0,1,.4.73,1.28,1.28,0,0,0,1.74.46,1.32,1.32,0,0,0,.46-1.74,6.11,6.11,0,0,0-3.74-3.22,5.74,5.74,0,0,0-2.4-.26c-.79.09-1.57.2-1.88,1.06-.17.46-.3.94-.45,1.41a1.26,1.26,0,1,0,2.43.67Z" transform="translate(-63.44 -90.53)"/><path class="cls-2" d="M128.55,121.24a2.48,2.48,0,0,0-1.41-2.26,3.17,3.17,0,0,0-2.83,0,4.4,4.4,0,0,0-1.86,2,6.91,6.91,0,0,0-.83,2.49A2.32,2.32,0,0,0,123.2,126a1.28,1.28,0,1,0,.68-2.46l-.08,0c-.09-.08.19.12.19.08s-.06,0-.06,0,.2.15.16.13l-.07-.07s.16.26.13.16l0-.06c-.08-.13.08.15.07.17s0-.13,0-.15a.22.22,0,0,1,0-.08c0-.1,0,.2,0,.2s0-.36,0-.4c0-.21-.06.31,0,.1l0-.18c0-.13.07-.27.11-.4a3.65,3.65,0,0,1,.14-.35s-.12.27-.06.14l0-.1.12-.26a6,6,0,0,1,.44-.78,1,1,0,0,1,.08-.11c.07-.11-.1.13-.09.12l.14-.16.14-.15s.25-.21.08-.08.06,0,.1-.06a1.45,1.45,0,0,0,.18-.1s-.28.1-.18.07l.08,0,.19,0c.1,0-.2,0-.2,0h.36c.11,0-.2,0-.2,0l.19,0a.85.85,0,0,1,.19.06s-.27-.14-.18-.07l.12.06c.05,0,.24.17.05,0s0,0,0,0l0,.06c.08.07-.15-.24-.11-.14a.75.75,0,0,0,.09.15c-.2-.32-.09-.26-.08-.16a.36.36,0,0,0,0,.1s0-.3,0-.21a.66.66,0,0,0,0,.14,1.28,1.28,0,0,0,1.27,1.27A1.26,1.26,0,0,0,128.55,121.24Z" transform="translate(-63.44 -90.53)"/><path class="cls-2" d="M128.66,120.35a3.13,3.13,0,0,1,.58-2.92,7.46,7.46,0,0,1,3.14-2.16c2.1-.89,5.35-1.51,6.71.9a1.27,1.27,0,0,0,2.2-1.28,5.93,5.93,0,0,0-4.17-2.84,10.56,10.56,0,0,0-6,1,9.21,9.21,0,0,0-4.2,3.29,5.53,5.53,0,0,0-.44,5.27,1.29,1.29,0,0,0,1.74.46A1.32,1.32,0,0,0,128.66,120.35Z" transform="translate(-63.44 -90.53)"/><path class="cls-2" d="M135.62,113.09a2.4,2.4,0,0,0,.07-.6,3.62,3.62,0,0,0-.06-.46l0-.15a2.51,2.51,0,0,0-.6-1,3.23,3.23,0,0,0-.45-.38,1.4,1.4,0,0,0-.26-.16,2.91,2.91,0,0,0-1.16-.32H133a2.67,2.67,0,0,0-.47.07l-.16.05a3.49,3.49,0,0,0-.44.2,1.27,1.27,0,0,0-.58.76,1,1,0,0,0,0,.51,1,1,0,0,0,.15.47,1.27,1.27,0,0,0,1.74.45l.12-.06-.3.13a.9.9,0,0,1,.27-.07l-.34,0a1.31,1.31,0,0,1,.28,0l-.34,0a1.89,1.89,0,0,1,.34.09l-.3-.13a1.75,1.75,0,0,1,.35.2l-.26-.2a1.48,1.48,0,0,1,.25.25l-.2-.26a1.61,1.61,0,0,1,.17.28l-.13-.3a1,1,0,0,1,.08.29c0-.11,0-.23-.05-.34a1.13,1.13,0,0,1,0,.26c0-.11,0-.23.05-.34a.29.29,0,0,1,0,.09,1.34,1.34,0,0,0,.13,1,1.27,1.27,0,0,0,.76.58,1.29,1.29,0,0,0,1-.13A1.13,1.13,0,0,0,135.62,113.09Z" transform="translate(-63.44 -90.53)"/><path class="cls-2" d="M129.72,115.24a4,4,0,0,1-.23-.89c0,.11,0,.23,0,.34a4.44,4.44,0,0,1,0-1c0,.11,0,.23,0,.34a4.27,4.27,0,0,1,.27-1l-.13.3c.06-.13.12-.26.19-.39a1.27,1.27,0,1,0-2.2-1.28,5.38,5.38,0,0,0-.66,2.24,4.72,4.72,0,0,0,.3,2,1.43,1.43,0,0,0,.58.76,1.29,1.29,0,0,0,1,.13,1.3,1.3,0,0,0,.76-.58A1.24,1.24,0,0,0,129.72,115.24Z" transform="translate(-63.44 -90.53)"/><path class="cls-2" d="M144.67,115.28A39.52,39.52,0,0,0,148.19,105c.62-3.29,1.11-7,.4-10.33a5.73,5.73,0,0,0-2.2-3.66,2.41,2.41,0,0,0-3.51.66,2.62,2.62,0,0,0-.11,1.87c.18.7.47.92.1,1.56-.86,1.5-.07,3,0,4.54A61.43,61.43,0,0,1,142,112.9c-.3,1.6,2.15,2.29,2.45.68a74.13,74.13,0,0,0,1-12.28,16.56,16.56,0,0,0-.11-2.9c-.12-.74-.46-1.45-.14-2.15a3.13,3.13,0,0,0,.48-2,5.69,5.69,0,0,0-.24-.9c-.06-.16-.11-.32-.16-.48s-.15-.18-.32.23c0,0,.65.66.72.79a3.74,3.74,0,0,1,.36.85,9,9,0,0,1,.34,2.53A33.3,33.3,0,0,1,146,103a36.73,36.73,0,0,1-3.48,11C141.74,115.46,143.93,116.75,144.67,115.28Z" transform="translate(-63.44 -90.53)"/><path class="cls-2" d="M123.75,122a4.88,4.88,0,0,0-2.79-1.36,9.09,9.09,0,0,1-3-1.08,34.39,34.39,0,0,1-5.4-4.31,16.21,16.21,0,0,1-3.94-5.07,9.67,9.67,0,0,1-.49-1.4,2.71,2.71,0,0,0-.16-.72s0-.08,0-.12l-.26.36c0,.07-.12,0-.12.06a7.53,7.53,0,0,0,.5.87,7.48,7.48,0,0,0,.85,1.48,6.33,6.33,0,0,1,1,1.41c.22.58.08,1.19.41,1.76a2.36,2.36,0,0,0,3.24.78l-1.54-.2a55,55,0,0,0,5.81,5c.68.5,1.76.9,2,1.74.34,1,.83,1.75,2,1.87a1.28,1.28,0,0,0,1.27-1.27,1.31,1.31,0,0,0-1.27-1.27l-.16,0,.64.17c.13.06-.08-.37-.13-.51a3.23,3.23,0,0,0-.65-1.12,15.91,15.91,0,0,0-2.56-1.88,52.58,52.58,0,0,1-5.18-4.49,1.3,1.3,0,0,0-1.54-.2,1.3,1.3,0,0,1,.23.15,2.76,2.76,0,0,0-.06-.8,4.27,4.27,0,0,0-.85-1.75,13.17,13.17,0,0,1-1-1.35c-.29-.52-.45-1.09-.78-1.58a2.69,2.69,0,0,0-3-1.2c-1.46.44-1.55,1.92-1.27,3.19,1.09,4.87,5.33,8.3,9.07,11.21a14.61,14.61,0,0,0,3.86,2.33c1,.39,2.64.29,3.42,1.16C123.05,125,124.85,123.21,123.75,122Z" transform="translate(-63.44 -90.53)"/><path class="cls-2" d="M159.86,127.47a1.27,1.27,0,0,0,0-2.54A1.27,1.27,0,0,0,159.86,127.47Z" transform="translate(-63.44 -90.53)"/><path class="cls-2" d="M160.65,127.46a.54.54,0,0,1-.35,0c.21,0,0,0,.08,0a5.14,5.14,0,0,1,.55.35l.24.18c.17.13-.23-.18.07.06l.47.38a10.12,10.12,0,0,1,1,.89l.2.22c0,.06.17.21.06.06a3.84,3.84,0,0,1,.35.54l.14.26c.12.23,0-.1,0,0s.11.34.15.52,0,.32,0,.13,0,.09,0,.13,0,.36,0,.54.06-.23,0,0,0,.19-.07.28l-.06.18c.07-.27,0,0,0,0a2.12,2.12,0,0,0-.12.2c-.05.12.16-.15,0,0s-.13.13-.2.2c.15-.14.07,0,0,0a1.27,1.27,0,1,0,1.28,2.2c2-1.27,2.26-4.06,1.13-6a9.25,9.25,0,0,0-2.29-2.5c-1.11-.88-2.34-1.91-3.81-1.15a1.28,1.28,0,0,0-.46,1.74A1.26,1.26,0,0,0,160.65,127.46Z" transform="translate(-63.44 -90.53)"/><path class="cls-2" d="M122.33,140.86c-1.41-.88-2.76.42-3.23,1.7a8.9,8.9,0,0,0-.49,3.32,10,10,0,0,0,2.51,6.29,1.27,1.27,0,0,0,1.8-1.8,7.59,7.59,0,0,1-1.18-1.86c0,.07-.1-.27-.13-.35s-.13-.4-.19-.61-.09-.36-.13-.55a2.33,2.33,0,0,1-.05-.28s0-.31,0-.15a10.55,10.55,0,0,1-.06-1.13c0-.21,0-.42,0-.63,0,0,0-.26,0-.18a1.08,1.08,0,0,0,0-.18,7.91,7.91,0,0,1,.3-1.16s.07-.2,0-.06a.75.75,0,0,1,.07-.12c-.06.06-.06,0,0,0l.09-.09c.06,0,.06-.06,0,0-.27,0-.35.27-.69.06a1.27,1.27,0,1,0,1.28-2.2Z" transform="translate(-63.44 -90.53)"/><path class="cls-2" d="M163.63,127.62q-.16-4.31-.34-8.6c0-1.39-.12-2.77-.16-4.16,0-.9-.14-2.8,1.2-2.71a1.28,1.28,0,0,0,.9-2.17q-.22.78.15.57a1.13,1.13,0,0,1,.24-.08,5.08,5.08,0,0,0,.74-.2,10.32,10.32,0,0,0,1.54-.62,11.93,11.93,0,0,0,2.61-1.78,23.74,23.74,0,0,0,4.33-5.49c.65-1,1.27-2.09,1.95-3.11a5,5,0,0,1,.51-.7c.11-.12.65-.39.29-.43s-.24.43-.34.75c-.6,1.73-1,3.76,1.11,4.58V101a27.08,27.08,0,0,0-9.26,6c-.69.64-1.36,1.3-2,2a8.08,8.08,0,0,0-1.72,2,2.06,2.06,0,0,0,.23,2.31,3.16,3.16,0,0,0,.73.58l.39.2c.4.26.37,0-.11-.75l1.23-.93a2.45,2.45,0,0,0-2.36,2.17,5.66,5.66,0,0,0,0,1.79,3.54,3.54,0,0,1,0,.65,1,1,0,0,1,0,.38c-.07.14-.05.14,0,0a1.29,1.29,0,0,0-.89.89l-2,9.77c-.32,1.6,2.13,2.28,2.45.68L167,118.9l-.89.89a2.6,2.6,0,0,0,1.84-2.45,8.71,8.71,0,0,0-.07-1.53,2.84,2.84,0,0,1,0-.65c.1-.55.24-.27-.1-.26A1.34,1.34,0,0,0,169,114a1.56,1.56,0,0,0-.35-1.63c-.08-.08-1.13-.88-1.28-.8.12.51.27.59.46.25.16-.17.33-.33.5-.5l.75-.74c.59-.58,1.18-1.15,1.78-1.71a24.1,24.1,0,0,1,8.14-5.35,1.28,1.28,0,0,0,0-2.45c.41.16.17.17.23-.24a4,4,0,0,1,.21-.67,6.33,6.33,0,0,0,.46-1.65,2.42,2.42,0,0,0-1.46-2.64c-2.79-1-4.64,3.34-5.74,5.12-1.49,2.41-3.14,4.89-5.69,6.3-1.07.59-2.5.63-3.43,1.43a2.12,2.12,0,0,0-.21,3.12l.9-2.17a3.44,3.44,0,0,0-3.27,2c-.73,1.48-.48,3.27-.42,4.86.15,3.71.29,7.42.44,11.12C161.15,129.25,163.69,129.26,163.63,127.62Z" transform="translate(-63.44 -90.53)"/><path class="cls-2" d="M120.69,142.78a51.28,51.28,0,0,0-8.17-7.69,6.26,6.26,0,0,0-4.72-1.65c-2,.25-4,.84-5.94,1.27a12.1,12.1,0,0,1-2.74.41c-.94,0-1.87-.21-2.8-.28a33.5,33.5,0,0,0-6.25.23c-1.52.16-2.95,1-2.4,2.8s2.43,1.86,4,1.58L90,138.22l-.15,2.21a1.28,1.28,0,0,0,2.17.9,4.4,4.4,0,0,1,2.84-1.52c1.28-.13,2.56.16,3.85,0,2.44-.25,5-1.25,7.4-.57-.19-.71-.37-1.42-.56-2.13a5.05,5.05,0,0,0-1.48,2.41,1.29,1.29,0,0,0,.89,1.57q2.42.33,4.86.54l-1.23-.93a6.87,6.87,0,0,0,4.26,4,9.67,9.67,0,0,1,4.88,3.45c.93,1.34,3.14.06,2.2-1.28a11.37,11.37,0,0,0-4.14-3.71c-1.74-.88-3.93-1.12-4.75-3.14a1.34,1.34,0,0,0-1.23-.93c-1.4-.12-2.79-.26-4.18-.45l.89,1.57a2.5,2.5,0,0,1,.82-1.29,1.29,1.29,0,0,0-.56-2.13c-3-.83-5.81.42-8.81.54a22.56,22.56,0,0,0-4.27.09,6.86,6.86,0,0,0-3.49,2.1l2.17.9.15-2.21A1.29,1.29,0,0,0,91,137c-.11,0-.83,0-.9.05.09.08.06.18-.09.31-.23.32-.12.4.3.24a9.9,9.9,0,0,0,2.29-.2,24.69,24.69,0,0,1,4.55.07,13.37,13.37,0,0,0,4.14,0c1.39-.26,2.77-.6,4.15-.91s2.84-.94,4.1-.38a15.11,15.11,0,0,1,3.22,2.35,50.46,50.46,0,0,1,6.14,6.09C120,145.83,121.75,144,120.69,142.78Z" transform="translate(-63.44 -90.53)"/><path class="cls-2" d="M132.66,165.84c-3.27,1.63-6.69,3.43-8.62,6.68a8.17,8.17,0,0,0-.71,7.71,6.52,6.52,0,0,1,.69,2.58c-.07,1-.62,1.81-.69,2.79a7.64,7.64,0,0,0,.44,2.84,10.67,10.67,0,0,1,.89,2.62c0,.79-.92,1.76-1.35,2.38a38.89,38.89,0,0,1-3.91,4.69A7.18,7.18,0,0,0,117,202.6l.63-1.1a7.84,7.84,0,0,0-3.21,3.84c-.39.94.72,1.78,1.57,1.57l3-.77-1.61-1.23a4,4,0,0,0,1.86,3.2,1.28,1.28,0,0,0,1.91-1.1,10.93,10.93,0,0,1,3.65-8.19c2-1.89,4.29-3.65,5.15-6.37,1.07-3.39-.59-7.07-1.26-10.38a26.83,26.83,0,0,1-.77-5.41c0-1.85,1.76-2,3.2-2.45a4.88,4.88,0,0,0,3.49-2.63,3,3,0,0,0-1.13-3.77c-1.39-.88-2.67,1.32-1.28,2.2.23.15.09.62,0,.81a2.82,2.82,0,0,1-1.72.93,9.09,9.09,0,0,0-3.75,1.6,4.58,4.58,0,0,0-1.28,4,50,50,0,0,0,.78,5.17c.33,1.65.77,3.27,1.16,4.9a7.5,7.5,0,0,1,0,4.73c-1,2.38-3.5,3.88-5.21,5.71A13.14,13.14,0,0,0,118.6,207l1.91-1.1a1.24,1.24,0,0,1-.6-1,1.3,1.3,0,0,0-1.61-1.23l-3,.77,1.57,1.57a4.93,4.93,0,0,1,1.16-1.66c.49-.47,1.25-.72,1.46-1.42a5.14,5.14,0,0,1,.72-1.89,19.18,19.18,0,0,1,1.5-1.63,41.8,41.8,0,0,0,3.15-3.76c.84-1.14,2.06-2.53,2.32-4s-.66-2.93-1.05-4.27A4,4,0,0,1,126,185a9.15,9.15,0,0,0,.54-2.24c.06-1.57-.77-2.92-1.16-4.39a5.78,5.78,0,0,1,.59-4.17c1.63-3.11,4.95-4.71,7.95-6.21C135.41,167.31,134.13,165.11,132.66,165.84Z" transform="translate(-63.44 -90.53)"/><path class="cls-2" d="M138,185.91l-2.6,5.7c-.77,1.69-1.44,3.28-1.06,5.17a29.29,29.29,0,0,0,2.07,5.38q1.16,2.73,2.37,5.45c.79,1.76,1.74,3.5,2.41,5.31s.08,3.68-.5,5.49a78.53,78.53,0,0,1-4.41,11,1.29,1.29,0,0,0,1.44,1.87,5.76,5.76,0,0,0,4.07-3.75l-2.33.3A4.57,4.57,0,0,0,142,229.9a1.28,1.28,0,0,0,1.61-1.23,17.17,17.17,0,0,1,2.05-10.74c.83-1.45,2-2.84,1.77-4.61s-1.75-3.43-2.63-5a49.24,49.24,0,0,1-4.49-10.54c-.26-.88-.4-1.81-.71-2.67,0-.13,0-.26,0-.38l-.33.18c.17.21,1,.21,1.2.2,1.65-.07,2.51-1.67,3-3,.55-1.54-1.9-2.21-2.45-.68a2.66,2.66,0,0,1-.46.94c-.32.34-.17.17-.61.12a2.36,2.36,0,0,0-2.2.47c-1.1,1.09-.61,2.79-.28,4.09A51.87,51.87,0,0,0,141.69,208c.89,1.7,2.09,3.26,2.95,5s-1.12,3.41-1.78,4.78a19.41,19.41,0,0,0-1.81,10.92l1.61-1.23a1.88,1.88,0,0,1-1-.95,1.29,1.29,0,0,0-2.33.3,3.11,3.11,0,0,1-2.29,2l1.44,1.87a83.16,83.16,0,0,0,4.43-10.81,15.72,15.72,0,0,0,1.16-5.48,13.86,13.86,0,0,0-1.73-5c-1.7-3.68-3.34-7.4-4.86-11.16a7.7,7.7,0,0,1-.72-2.41,6.13,6.13,0,0,1,.85-2.84l2.6-5.7C140.85,185.71,138.65,184.42,138,185.91Z" transform="translate(-63.44 -90.53)"/><path class="cls-2" d="M178.92,169.9l4.8,1.62a11,11,0,0,1,3.7,1.65c1.66,1.4,1.59,4.2,4.11,4.68l-.93-1.23c-.21,2.89,1.3,5.37,2.57,7.84a19.2,19.2,0,0,1,1.45,4,6.67,6.67,0,0,0,1.9,3.4c1.93,1.75,4.56,2.25,7,2.79,2.13.47,5,1.25,5.63,3.63l.89-1.57-1.21.18a1.27,1.27,0,0,0-.93,1.23L208,201l2.37-.64a12.25,12.25,0,0,0-6.62-6.06,32.44,32.44,0,0,0-5.12-1.63c-.82-.2-1.68-.34-2.48-.61s-1-.77-1.21-1.61a42.71,42.71,0,0,0-8.28-18.2,1.29,1.29,0,0,0-2,.26,3,3,0,0,1-3.74.85c-1.45-.75-2.74,1.44-1.28,2.2a5.63,5.63,0,0,0,7.22-1.76l-2,.26a37.38,37.38,0,0,1,6.82,13.46c.4,1.47.54,3.08,1.06,4.52a4,4,0,0,0,3,2.57c1.72.47,3.48.8,5.18,1.36,3,1,5.9,2.66,7.22,5.69.51,1.18,2.41.55,2.37-.64l-.09-2.83-.93,1.23,1.21-.18a1.29,1.29,0,0,0,.89-1.57c-.67-2.46-2.75-3.89-5-4.73s-4.93-.91-7.14-2.07a4.2,4.2,0,0,1-2.25-2.53,29.24,29.24,0,0,0-1.26-3.95c-1.13-2.5-3-4.87-2.8-7.74a1.28,1.28,0,0,0-.93-1.23c-.89-.17-1.2-1.36-1.57-2.08a6.54,6.54,0,0,0-2.42-2.69,17.47,17.47,0,0,0-3.63-1.5l-5-1.69C178,166.92,177.37,169.37,178.92,169.9Z" transform="translate(-63.44 -90.53)"/><path class="cls-2" d="M172,151.54a17.44,17.44,0,0,1,5.79-1.19,6.88,6.88,0,0,1,4.44,1.91,44.12,44.12,0,0,1,3.66,4l3.88,4.4a2.78,2.78,0,0,1,.69,1c.1.41,0,.85.1,1.27A2.19,2.19,0,0,0,192,164.2a6.88,6.88,0,0,0,2.12.2c1,0,2,0,3,.09a86.25,86.25,0,0,1,12,1.42l-.3-2.33a5.12,5.12,0,0,0-3,5l1.27-1.27c-1.13-.09-2.19-1.46-3.18-2a11.45,11.45,0,0,0-3.61-1.1c-2.54-.37-5.19.11-7.7-.37a5.42,5.42,0,0,1-3.18-2.18c-1-1.19-2-2.39-3-3.6-2-2.42-4-4.84-5.94-7.29a1.28,1.28,0,0,0-1.54-.2l-6,3.27c-1.44.79-.15,3,1.28,2.2l6-3.27-1.54-.2q3.07,3.83,6.21,7.6c1.86,2.25,3.69,5.29,6.7,6,2.67.67,5.5.09,8.21.47a8.46,8.46,0,0,1,3.68,1.32c1.2.83,2.09,1.68,3.61,1.8a1.28,1.28,0,0,0,1.27-1.27,2.72,2.72,0,0,1,1.77-2.85,1.29,1.29,0,0,0-.3-2.33,92.07,92.07,0,0,0-12-1.48c-1.08-.06-2.17-.1-3.25-.12a6,6,0,0,1-1.47,0q-.31-.06,0,.06c0-.11,0-.22,0-.32.16-.81-.61-1.79-1.08-2.36-.63-.76-1.3-1.49-2-2.23-1.31-1.49-2.62-3-3.94-4.47a17.9,17.9,0,0,0-3.7-3.36c-3.45-2.18-7.38-1.23-11-.06C169.8,149.59,170.46,152,172,151.54Z" transform="translate(-63.44 -90.53)"/><path class="cls-2" d="M156.31,162.67c-.74-1.66-1.49-3.31-2.23-5a26.55,26.55,0,0,1-1.88-4.86,4.43,4.43,0,0,1,.82-4.09,8.19,8.19,0,0,1,3.32-2c1.5-.55,3.07-1.26,4.56-.36a9.57,9.57,0,0,1,2.94,3.16,59.85,59.85,0,0,1,4.48,9,81.15,81.15,0,0,1,3.33,9.71,29.09,29.09,0,0,1,1.25,10.36,16.3,16.3,0,0,1-1,4.41,13.65,13.65,0,0,1-1,2c-.23.37-.79,1.5-1.27,1.6s-1.16-.8-1.46-1.12c-.52-.55-1-1.13-1.49-1.73a30.55,30.55,0,0,1-2.32-3.52c-3.27-5.7-5.16-12.09-8.66-17.67-.87-1.38-3.07-.11-2.2,1.28,3.65,5.81,5.54,12.5,9.07,18.37a32,32,0,0,0,2.92,4.09c1,1.16,2.28,2.81,3.95,2.87s2.84-1.58,3.65-2.89a16.08,16.08,0,0,0,2-5,26.3,26.3,0,0,0-.38-11.64,74.63,74.63,0,0,0-3.79-11.67,55.66,55.66,0,0,0-5.18-10.39,11.48,11.48,0,0,0-3.64-3.6c-1.78-1-3.47-.76-5.34-.16-3.52,1.13-7.08,3.1-7.2,7.25a14,14,0,0,0,1.56,5.89c1,2.28,2,4.55,3.07,6.83C154.79,165.45,157,164.15,156.31,162.67Z" transform="translate(-63.44 -90.53)"/><path class="cls-2" d="M147.13,154.73a6.38,6.38,0,0,0-7.16-3c-3,.72-5.06,3.52-5.77,6.39-.9,3.62.14,7.41,1.4,10.81a68.49,68.49,0,0,0,5,10.33c1.75,3.06,3.53,6.25,6.36,8.45a36.15,36.15,0,0,0,9.83,5.23c1.49.54,3.64,1.41,5,.16,1.12-1,.91-2.6.61-3.94a73.77,73.77,0,0,0-3.49-10.95c-1.59-4-3.43-7.86-5.36-11.68s-3.75-7.94-6.3-11.42c-1-1.31-3.17,0-2.2,1.28a63.26,63.26,0,0,1,4.78,8.45c1.5,2.9,3,5.82,4.35,8.78s2.64,6,3.71,9.09c.47,1.35.9,2.71,1.28,4.09.21.75.41,1.51.59,2.26.1.4.6,1.65.34,2.06s-3.47-1-4-1.17a47.54,47.54,0,0,1-4.51-2.27,17.61,17.61,0,0,1-6.7-6.15c-3.35-5.25-6.59-11.08-8-17.18-.72-3-.72-6.67,1.71-9,1.81-1.74,5.12-1.81,6.38.62C145.69,157.47,147.88,156.18,147.13,154.73Z" transform="translate(-63.44 -90.53)"/><path class="cls-2" d="M338.94,128.76c-4.55-1.86-9.56,1.68-12.39,5a17.68,17.68,0,0,0-4.25,13.35,14.71,14.71,0,0,0,2.44,6.94,5.4,5.4,0,0,0,6.14,2c4.24-1.26,6.66-5.33,8.13-9.22,2-5.33,3.46-11.24,1.3-16.74-.59-1.51-3.05-.85-2.45.68,1.7,4.32.87,8.46-.43,12.76-.95,3.17-2.21,6.66-4.88,8.79-1.23,1-3.29,2-4.84,1.16s-2.32-3.58-2.67-5.26a14.92,14.92,0,0,1,2.42-11.45c2.16-3.16,6.69-7.24,10.82-5.55C339.78,131.84,340.44,129.38,338.94,128.76Z" transform="translate(-63.44 -90.53)"/><path class="cls-2" d="M350.58,151.12c-5.41-1.54-10.16,2-13.25,6.11s-5.25,9.38-4.09,14.65a10.29,10.29,0,0,0,3.84,6.2c2.22,1.58,5,1.28,7.35.23,4.65-2.06,7.47-6.68,9-11.34.95-2.86,2-6.21,1.66-9.25a6.36,6.36,0,0,0-4.41-5.78,1.27,1.27,0,0,0-.68,2.45c4.38,1.16,2.15,8,1.31,10.83-1.11,3.78-3,7.63-6.35,9.88-1.6,1.07-3.84,2.1-5.77,1.28-1.76-.74-2.84-2.77-3.34-4.51-1.18-4.16.33-8.4,2.62-11.88,2.45-3.73,6.53-7.82,11.42-6.42A1.27,1.27,0,0,0,350.58,151.12Z" transform="translate(-63.44 -90.53)"/><path class="cls-2" d="M364.58,159.07a11.4,11.4,0,0,0-3.59,6.64,41.87,41.87,0,0,0-.93,7.88c-.1,5.3,1.88,10.42,7.16,12.38a10.22,10.22,0,0,0,12.21-4.06,10.76,10.76,0,0,0,1.63-6.92c-.33-2.84-2-5.28-3.48-7.64q-1.47-2.31-3.08-4.55a20.7,20.7,0,0,0-2.9-3.56c-2.09-1.83-5.6-2.31-7.23.39a1.27,1.27,0,0,0,2.2,1.28c1.24-2,3.79.58,4.61,1.63,1.51,1.94,2.89,4,4.22,6.08s2.79,4.06,3.13,6.41a8.22,8.22,0,0,1-1,5.09,7.65,7.65,0,0,1-9.36,3.47c-4.19-1.42-5.59-5.61-5.57-9.68a38.37,38.37,0,0,1,.78-7.24,9.52,9.52,0,0,1,3-5.83C367.65,159.84,365.84,158.05,364.58,159.07Z" transform="translate(-63.44 -90.53)"/><path class="cls-2" d="M373.63,132.79c-4.84.39-6.73,5.35-6.6,9.61a16.48,16.48,0,0,0,4.69,11.06c2.65,2.65,7.57,5.22,11.17,2.88,3.87-2.52,2.53-7.93,1.09-11.45a26.67,26.67,0,0,0-9.17-11.54c-1.33-1-2.61,1.25-1.28,2.2a23.74,23.74,0,0,1,6.9,7.78,23.2,23.2,0,0,1,2,4.91,7.59,7.59,0,0,1,.18,4.52c-1.26,3.51-6,1.46-8-.11a13.57,13.57,0,0,1-4.76-7.88c-.65-3.07-.45-9.08,3.78-9.42C375.25,135.2,375.27,132.66,373.63,132.79Z" transform="translate(-63.44 -90.53)"/><path class="cls-2" d="M355.59,118.69c-4.68,0-7.42,4.17-8.56,8.23-1.2,4.26-1.4,9.21,1.43,12.88,2.19,2.84,7.32,5.31,10.18,1.95,2.47-2.91,3.47-7.25,3.4-11a18.84,18.84,0,0,0-4.66-12.14c-1.09-1.23-2.88.58-1.8,1.8a16.47,16.47,0,0,1,2.71,16.9c-.57,1.36-1.36,3.31-3,3.45a5.46,5.46,0,0,1-4-1.62c-2.59-2.45-2.9-6.22-2.27-9.55s2.3-8.39,6.58-8.37A1.27,1.27,0,0,0,355.59,118.69Z" transform="translate(-63.44 -90.53)"/><path class="cls-2" d="M303.16,367.77a1.76,1.76,0,0,0-.81-1.94,2.21,2.21,0,0,0-2.09,0,5.66,5.66,0,0,0-2,1.41,4.48,4.48,0,0,0-.71,5.11,4.84,4.84,0,0,0,4.37,2.64c1.93,0,4.51-1.21,4.14-3.51a6.33,6.33,0,0,0-1.44-2.54c-.25-.34-.5-.68-.72-1.05l-.12-.22-.08-.15a3,3,0,0,1-.2-.67A1.29,1.29,0,0,0,302,366a1.3,1.3,0,0,0-.89,1.57A9.32,9.32,0,0,0,303,371q.26.35.48.72l.11.19c.16.26,0-.11,0,.05.05.45.07-.37,0,0,0,.18.13-.28,0,0s0,0,0,0a.53.53,0,0,1-.13.13c-.19.2,0,0,0,0s-.33.21-.36.22l-.22.11c.16-.06.11-.05,0,0a3.45,3.45,0,0,1-.43.12l-.2,0c.21,0,.15,0,0,0l-.45,0h-.25c-.27,0,.23.06-.06,0-.13,0-.26,0-.39-.09l-.19-.06c-.3-.08.15.08,0,0s-.27-.13-.39-.21l-.17-.11c-.21-.14.16.17,0,0s-.18-.17-.26-.26a1.74,1.74,0,0,1-.12-.14c.14.25.05.06,0,0a3.35,3.35,0,0,1-.21-.36.67.67,0,0,0-.08-.17c.06.15.08.18,0,.09s0-.09,0-.13-.06-.24-.09-.36c-.08-.29,0,.21,0,0s0-.12,0-.18a2.77,2.77,0,0,1,0-.41c0-.18.05,0,0,.06a2.14,2.14,0,0,0,.06-.27l.06-.18c.09-.29-.12.22,0,0a4.36,4.36,0,0,1,.24-.41c.12-.19,0,0,0,0a1.24,1.24,0,0,1,.18-.21,3.51,3.51,0,0,1,.34-.33s.26-.19.09-.08l.1-.07q.22-.15.45-.27l.17-.09.13-.06c-.11.05-.13.06,0,0s-.08,0-.13,0a.81.81,0,0,1-.57-1,1.3,1.3,0,0,0,.89,1.57A1.37,1.37,0,0,0,303.16,367.77Z" transform="translate(-63.44 -90.53)"/><path class="cls-2" d="M303.56,367.09a4.05,4.05,0,0,1,1.11-2.41,15.36,15.36,0,0,1,2.07-2.12c1.26-1.06,3.17-1.9,4.79-1.13.25.12.42.2.48.43a2.68,2.68,0,0,1,0,.69c0,.31,0,.61,0,.92a11,11,0,0,0,.7,3.36,18.85,18.85,0,0,1,1.18,2.78c.18.84-.21,1.25-1,1.5a10,10,0,0,1-6.91-.27,1.29,1.29,0,0,0-1.57.89,1.31,1.31,0,0,0,.89,1.57,12.26,12.26,0,0,0,8.17.3,3.91,3.91,0,0,0,2.87-2.61,5.68,5.68,0,0,0-.78-3.93,9,9,0,0,1-1-3.7c-.06-1.35.22-2.66-1-3.63-2.13-1.74-5.28-1.28-7.44.14a14.51,14.51,0,0,0-3.18,2.93,7,7,0,0,0-1.92,4.3C301,368.72,303.52,368.72,303.56,367.09Z" transform="translate(-63.44 -90.53)"/><path class="cls-2" d="M314.61,361.65a8.86,8.86,0,0,1,4.3-4.32,8.15,8.15,0,0,1,2.82-.76,6,6,0,0,1,1.46,0c.51.1.66.38.88.83A43,43,0,0,1,327,365a4.06,4.06,0,0,1,0,3.19,3.56,3.56,0,0,1-1.94,1.39,15.45,15.45,0,0,1-8.37,0c-1.59-.37-2.27,2.08-.68,2.45,4.66,1.09,14.73,1.32,13.79-6a22.94,22.94,0,0,0-1.36-4.79c-.58-1.59-1.23-3.16-1.95-4.69a3.75,3.75,0,0,0-3.2-2.46,10,10,0,0,0-4,.45,11.26,11.26,0,0,0-6.82,5.87,1.3,1.3,0,0,0,.46,1.74A1.29,1.29,0,0,0,314.61,361.65Z" transform="translate(-63.44 -90.53)"/><path class="cls-2" d="M326.85,356.57c.22-1.23,1.35-1.67,2.45-1.92,1.29-.29,2.63-.44,3.94-.63.48-.07,1-.21,1.41.11a4.55,4.55,0,0,1,1,1.58,19.83,19.83,0,0,1,1.29,3.68,34.07,34.07,0,0,1,.89,3.85,3.3,3.3,0,0,1-.91,3.16c-2,1.77-5,1-7.31.51-1.59-.37-2.27,2.09-.68,2.45,2.75.63,5.65,1.17,8.29-.13a5.79,5.79,0,0,0,3.1-6.39,29.8,29.8,0,0,0-2.36-8.17,6,6,0,0,0-2.2-2.87c-1.29-.73-2.83-.29-4.2-.08-2.72.41-6.57.81-7.16,4.17a1.31,1.31,0,0,0,.89,1.57A1.29,1.29,0,0,0,326.85,356.57Z" transform="translate(-63.44 -90.53)"/><path class="cls-2" d="M338.76,355.18a6,6,0,0,1,5.1-2.93c1,0,2,.15,2.47,1.13a12,12,0,0,1,1,3.82c.24,2.2.16,5.2-1.27,7a3.68,3.68,0,0,1-3,1.2c-.64,0-2.28.23-2.66-.42a1.27,1.27,0,0,0-2.2,1.28,3.74,3.74,0,0,0,3.09,1.64,11.34,11.34,0,0,0,3.81-.22c2.67-.69,4-3.13,4.51-5.67a16.35,16.35,0,0,0-.54-8.55,5,5,0,0,0-2.37-3.24,7,7,0,0,0-3.52-.53,8.6,8.6,0,0,0-6.64,4.16A1.28,1.28,0,0,0,338.76,355.18Z" transform="translate(-63.44 -90.53)"/><path class="cls-2" d="M348.16,353.26a8.65,8.65,0,0,1,7.34-1.71c2.57.72,3.06,4.29,3.06,6.54a7.67,7.67,0,0,1-.89,4.05,5.31,5.31,0,0,1-2.59,2c-1.8.72-4.61,1.28-6.06-.39-1.08-1.24-2.87.57-1.8,1.8,1.62,1.87,4.29,2,6.57,1.59,2.44-.46,5-1.69,6.22-3.94,1.4-2.54,1.35-5.91.66-8.65s-2.12-5-5-5.55a11.19,11.19,0,0,0-8.81,2.08,1.32,1.32,0,0,0-.46,1.74A1.28,1.28,0,0,0,348.16,353.26Z" transform="translate(-63.44 -90.53)"/><path class="cls-2" d="M358.64,352.29l3.84-.61c1-.16,2.27-.48,3.24,0,1.92,1,1.75,3.95,1.5,5.73a14.55,14.55,0,0,1-1,3.49,6,6,0,0,1-1.74,2.6c-1.8,1.33-4.14.71-5.86-.4-1.38-.89-2.66,1.31-1.28,2.2a8.17,8.17,0,0,0,6.57,1.25c2.38-.66,3.74-2.52,4.65-4.71,1.55-3.73,2.61-10.76-2.22-12.62a7.64,7.64,0,0,0-4-.09l-4.43.7a1.29,1.29,0,0,0-.89,1.57A1.32,1.32,0,0,0,358.64,352.29Z" transform="translate(-63.44 -90.53)"/><path class="cls-2" d="M368.61,352.7a18.19,18.19,0,0,1,6.64-.74c.9.07,1.74.15,2.22,1a7.21,7.21,0,0,1,.71,2.7,10.67,10.67,0,0,1-.94,5.87,3.27,3.27,0,0,1-1.72,1.73,9.25,9.25,0,0,1-2.82.4c-1.85.1-4.1.19-5.56-1.16-1.2-1.11-3,.68-1.8,1.8,1.8,1.67,4.23,2,6.6,1.94,2.59-.07,5.26-.26,6.93-2.51a12,12,0,0,0,1.9-7.45c-.13-2.46-.74-5.6-3.36-6.51a12.48,12.48,0,0,0-4.64-.37,20.49,20.49,0,0,0-4.84.86A1.27,1.27,0,0,0,368.61,352.7Z" transform="translate(-63.44 -90.53)"/><path class="cls-2" d="M379,353.3a21,21,0,0,1,3.45-.35,19.71,19.71,0,0,1,3.26,0,3.86,3.86,0,0,1,3.43,3,7.1,7.1,0,0,1-1,5.17,19,19,0,0,1-1.72,2.55,3.23,3.23,0,0,1-2.13,1.46,7.39,7.39,0,0,1-3.19-.68c-.65-.24-1.72-.54-2-1.28-.5-1.55-3-.89-2.45.68a4.19,4.19,0,0,0,2.38,2.5,14,14,0,0,0,3.66,1.2,5.43,5.43,0,0,0,4-.65,10.88,10.88,0,0,0,2.66-2.95c1.49-2.12,2.69-4.7,2.43-7.35a6.66,6.66,0,0,0-3.92-5.74,10.87,10.87,0,0,0-4.39-.55,29.13,29.13,0,0,0-5.19.48C376.72,351.18,377.4,353.63,379,353.3Z" transform="translate(-63.44 -90.53)"/><path class="cls-2" d="M390.24,355a21.11,21.11,0,0,1,4.28-.12,6.85,6.85,0,0,1,3.28.75c.88.62.83,1.93.83,2.89a11.2,11.2,0,0,1-.6,3.72,6.68,6.68,0,0,1-4.53,4.34,4.38,4.38,0,0,1-4.88-2.14c-.75-1.45-2.95-.17-2.2,1.28a6.8,6.8,0,0,0,5.39,3.48,7.94,7.94,0,0,0,6.28-2.42,10.94,10.94,0,0,0,3-6.68c.27-2.36.18-5.35-2.09-6.72a9.31,9.31,0,0,0-3.95-1,21.59,21.59,0,0,0-4.82.08,1.31,1.31,0,0,0-1.27,1.27A1.28,1.28,0,0,0,390.24,355Z" transform="translate(-63.44 -90.53)"/><path class="cls-2" d="M400.49,357.73c2.3-.36,5-.41,6.9,1.19s1.73,3.79.94,5.78-2.42,3.94-4.78,4.25c-1.82.25-4.21-.06-5.36-1.67a1.31,1.31,0,0,0-1.74-.46,1.29,1.29,0,0,0-.46,1.74c2.78,3.85,9.39,4,12.53.54a11,11,0,0,0,2.87-6.49,6.79,6.79,0,0,0-2.95-6.08c-2.52-1.77-5.71-1.72-8.63-1.26a1.29,1.29,0,0,0-.89,1.57A1.32,1.32,0,0,0,400.49,357.73Z" transform="translate(-63.44 -90.53)"/><path class="cls-2" d="M410.33,360.72a7.46,7.46,0,0,1,5.3-.26,3.41,3.41,0,0,1,1.68,1.13,3.45,3.45,0,0,1,.44,2.42,7.77,7.77,0,0,1-5.54,6.57c-1.34.35-3.21.27-4-1s-3.09-.09-2.2,1.28c2.64,4.06,8.49,2.45,11.34-.44,3-3.06,4.86-9.57.07-12a9.92,9.92,0,0,0-8.34.07,1.29,1.29,0,0,0-.46,1.74A1.31,1.31,0,0,0,410.33,360.72Z" transform="translate(-63.44 -90.53)"/><path class="cls-2" d="M420,364.09a6.57,6.57,0,0,1,4.55,1.44,1.78,1.78,0,0,1,.78,1.58,3.8,3.8,0,0,1-.94,2c-1,1.26-2.22,2.6-3.87,2.89a4.23,4.23,0,0,1-2.2-.21,2.5,2.5,0,0,1-1.44-1.1,1.31,1.31,0,0,0-1.57-.89,1.29,1.29,0,0,0-.89,1.57,5.43,5.43,0,0,0,4.55,3.17,6.88,6.88,0,0,0,5.3-1.64,10.33,10.33,0,0,0,3.39-4.56,4.45,4.45,0,0,0-2-5.09,9.19,9.19,0,0,0-6.38-1.6,1.28,1.28,0,0,0-.89,1.57A1.33,1.33,0,0,0,420,364.09Z" transform="translate(-63.44 -90.53)"/><path class="cls-2" d="M426,369.14l.36.23h0l.16.14a6.63,6.63,0,0,1,.52.54c.19.21-.08-.14.06.08l.24.36a6.11,6.11,0,0,1,.35.67c-.12-.27,0,.15.07.2l.1.31c0,.15.07.3.11.44s0,.16,0,0a1.94,1.94,0,0,1,0,.24c0,.12,0,.24,0,.36s0,.16,0,0a1.55,1.55,0,0,1-.05.23c0,.06-.14.33,0,.14,0,.06-.28.4-.09.17l-.25.26.05,0-.17.12c-.05,0-.45.22-.17.11l-.3.1a3,3,0,0,1-.41.09c.32-.05-.1,0-.18,0H426q-.24,0-.06,0l-.26-.05a11.65,11.65,0,0,1-1.74-.53c-.13,0-.13,0,0,0l-.19-.09-.27-.15c-.12-.08-.11-.08,0,0l-.15-.14c-.09-.11-.09-.1,0,0a.76.76,0,0,1-.09-.18,1.28,1.28,0,0,0-1.74-.46,1.3,1.3,0,0,0-.46,1.74c.56,1.15,1.88,1.62,3,2a6.09,6.09,0,0,0,3.84.14,3.82,3.82,0,0,0,2.57-2.69,6,6,0,0,0-.59-3.77,6.46,6.46,0,0,0-2.57-2.83,1.28,1.28,0,0,0-1.74.46A1.31,1.31,0,0,0,426,369.14Z" transform="translate(-63.44 -90.53)"/><path class="cls-2" d="M308.79,373c-.27.8-.55,1.59-.81,2.4a3.53,3.53,0,0,0,.14,2.65A14.31,14.31,0,0,0,310.8,382a1.29,1.29,0,0,0,2-.26,2.89,2.89,0,0,0,.05-2.67,4.21,4.21,0,0,1-.16-.61s0-.21,0-.08c0-.12,0-.24,0-.35a2.61,2.61,0,0,1,.16-1.05,3.77,3.77,0,0,1,.43-.85c.21-.33.44-.64.65-1a4.4,4.4,0,0,0,.82-2.47,1.27,1.27,0,0,0-2.54,0v.25c0-.13,0-.08,0,0a2,2,0,0,1-.07.23c-.11.35.06-.09,0,.09a9.61,9.61,0,0,1-.53.87,8.44,8.44,0,0,0-1.16,2.15,5.88,5.88,0,0,0-.16,2.7,6.55,6.55,0,0,0,.29,1.05,2.8,2.8,0,0,1,.09.31s.06.27,0,.14.07.14,0,0,.15-.29,0-.05l2-.26a13,13,0,0,1-2.16-3.12c-.18-.36,0,.13-.1-.24a.66.66,0,0,1-.05-.2,5.4,5.4,0,0,1,.23-.8c.24-.7.48-1.41.71-2.11a1.27,1.27,0,0,0-2.45-.7Z" transform="translate(-63.44 -90.53)"/><path class="cls-2" d="M318.43,372.4a3.71,3.71,0,0,1,.29.27c0,.05.26.31.12.12a4.61,4.61,0,0,1,.46.77l.07.15c.09.18-.06-.18,0,0s.09.25.14.38.17.55.24.82a15.16,15.16,0,0,0,1.17,3.54,3.22,3.22,0,0,0,1.47,1.49,1.77,1.77,0,0,0,2.3-.69,3.65,3.65,0,0,0,0-2.46c0-.16-.05-.31-.08-.47l0-.2c0,.18,0,0,0-.07a8.35,8.35,0,0,1,0-1c0-.22,0,.16,0-.06s.05-.22.08-.33a4,4,0,0,1,.16-.45c-.07.19.08-.18.11-.25s.19-.42.27-.64a3.7,3.7,0,0,0,.24-2.34,1.28,1.28,0,0,0-1.57-.89,1.3,1.3,0,0,0-.89,1.57c.06.25,0-.14,0,.11s0-.13,0,.11-.05.22-.09.33-.17.44-.09.25a10.36,10.36,0,0,0-.64,1.59,8.81,8.81,0,0,0,.13,3.82c0,.13,0,.27.07.4,0,0,0-.15,0,0s0-.07,0-.06a3.83,3.83,0,0,0,.29-.28.43.43,0,0,1,.5-.28c.45,0,.18,0,.12,0s.22.08.08,0,.13.12,0,0,.11.17,0,0l-.1-.15a2.38,2.38,0,0,1-.18-.3,3.18,3.18,0,0,1-.16-.32s-.08-.19,0-.07l-.05-.12c-.36-1-.52-2-.81-2.92a6.53,6.53,0,0,0-1.83-3.15,1.27,1.27,0,1,0-1.79,1.81Z" transform="translate(-63.44 -90.53)"/><path class="cls-2" d="M331.23,370.55c-.11-.14.08.11.11.15l.22.31c.15.23.3.47.43.71s.24.45.35.68c0,.06.14.31.12.25s0,.08,0,.08l.09.24a18.87,18.87,0,0,0,1,3,2.34,2.34,0,0,0,1.64,1.21A1.69,1.69,0,0,0,337,376a3.49,3.49,0,0,0,0-1.67s0-.22,0-.11,0-.13,0-.11c0-.14,0-.28-.05-.43,0-.31-.05-.62-.07-.93a19.06,19.06,0,0,1,0-2c0-.33,0-.67.06-1,0-.17,0-.33.05-.5l0-.21c0-.26,0,.3,0-.16a1.32,1.32,0,0,0-.89-1.57,1.29,1.29,0,0,0-1.57.89,23.42,23.42,0,0,0-.26,4.18,18.85,18.85,0,0,0,.17,2c0,.25.07.51.11.76.06.42,0-.22,0,.06s.07-.12,0,.08a.77.77,0,0,1,.38-.47c.36-.2.65-.2.87,0l0,0c-.1-.11-.09-.1,0,0,0,0-.18-.37-.13-.22s-.06-.22-.07-.26l-.09-.37a13.73,13.73,0,0,0-.49-1.66,13.39,13.39,0,0,0-2-3.49,1.28,1.28,0,0,0-1.8,0A1.33,1.33,0,0,0,331.23,370.55Z" transform="translate(-63.44 -90.53)"/><path class="cls-2" d="M301.4,366.53a8,8,0,0,0-1.15-3.06,1.27,1.27,0,0,0-.76-.58,1.27,1.27,0,0,0-1.43,1.87,6.73,6.73,0,0,1,.54,1l-.13-.3a7.27,7.27,0,0,1,.48,1.73,1.27,1.27,0,0,0,.58.76,1.29,1.29,0,0,0,1,.13,1.3,1.3,0,0,0,.76-.58l.13-.3A1.38,1.38,0,0,0,301.4,366.53Z" transform="translate(-63.44 -90.53)"/><path class="cls-2" d="M299.89,366.78l-2.24-2.36a1.31,1.31,0,0,0-.9-.37,1.32,1.32,0,0,0-.9.37,1.26,1.26,0,0,0-.37.9,1.37,1.37,0,0,0,.37.9l2.24,2.36a1.31,1.31,0,0,0,.9.37,1.32,1.32,0,0,0,.9-.37,1.26,1.26,0,0,0,.37-.9A1.31,1.31,0,0,0,299.89,366.78Z" transform="translate(-63.44 -90.53)"/><path class="cls-2" d="M132.09,312.88c-3.23.86-5.09,4-5.4,7.17-.41,4.16,1.81,8.11,3.17,11.89.77,2.14,1.46,4.32,2.06,6.52.51,1.87.78,3.84,1.45,5.66a4.93,4.93,0,0,0,2.94,3.31c.23.07.83,0,1,.16s.2,1,.23,1.21c.15,1.05.35,2.1.58,3.14a43.19,43.19,0,0,0,5.27,13,1.29,1.29,0,0,0,2.2,0,5.21,5.21,0,0,0,.54-3.54c-.1-1.54-.14-3.09-.12-4.64.05-3,.17-5.94,1.78-8.58a36.69,36.69,0,0,0,3.5-7.45c.77-2.29,1.21-5-.35-7.1-1-1.29-3.19,0-2.2,1.28,1.44,1.91.38,4.43-.37,6.42a28.74,28.74,0,0,1-1.51,3.46c-.63,1.17-1.43,2.23-2,3.43-1.17,2.4-1.29,5.11-1.37,7.74,0,1.34,0,2.69,0,4,0,1,.52,2.77-.12,3.67h2.2A41,41,0,0,1,141,353.1a54.22,54.22,0,0,1-1.1-5.48,3,3,0,0,0-1-2c-.65-.53-1.43-.36-2.1-.75-1.1-.63-1.33-2.48-1.58-3.59-.44-2-1-3.91-1.53-5.83s-1.28-4-2-5.9-1.48-3.57-2-5.44c-.85-3.07-.69-7.78,3.09-8.79A1.29,1.29,0,0,0,132.09,312.88Z" transform="translate(-63.44 -90.53)"/><path class="cls-2" d="M147.83,346.58a27.73,27.73,0,0,0,14.35-3.66c.92-.53,2-1.09,2.25-2.22s-.45-2.69-.78-3.85l-.54-1.89a3.38,3.38,0,0,1-.22-.76c.05-.28.19-.32.42-.56a3,3,0,0,0,.64-2.85,3,3,0,0,0-.64-1.14c-.35-.37-.78-.5-1-.94a14,14,0,0,1-.37-1.61,16.46,16.46,0,0,0-.7-1.93,24.25,24.25,0,0,0-3.84-6c-3.13-3.7-7-7.4-11.5-9.28-5.12-2.13-11.11-1.33-14.71,3.14-1,1.26.77,3.08,1.8,1.8,2.79-3.47,7.09-4.29,11.21-2.88s7.36,4.62,10.22,7.7a26.84,26.84,0,0,1,3.71,4.91,14.8,14.8,0,0,1,1.26,2.85,14.9,14.9,0,0,0,.76,2.75c.24.45,1.43,1,1.37,1.51,0,.31-.62.65-.81.9a2.25,2.25,0,0,0-.44,1.48,13.78,13.78,0,0,0,.79,3.06c.15.54,1,2.58.75,3s-1.18.71-1.58.93-1.09.56-1.65.81a24.14,24.14,0,0,1-3.49,1.24,25.26,25.26,0,0,1-7.29.9A1.28,1.28,0,0,0,147.83,346.58Z" transform="translate(-63.44 -90.53)"/><path class="cls-2" d="M131,314.57q2.36,4.31,4.9,8.5c1.5,2.46,3,5.11,5.62,6.52a14.85,14.85,0,0,0,8,1.38c1.61-.11,3.21-.34,4.81-.5,1.34-.13,2.93-.43,4.09.42,1.32,1,2.59-1.24,1.28-2.2-2.2-1.61-5.5-.75-8-.48-2.76.31-5.72.57-8.35-.54s-4-3.74-5.41-6.07q-2.49-4.11-4.79-8.33C132.43,311.84,130.23,313.13,131,314.57Z" transform="translate(-63.44 -90.53)"/><path class="cls-2" d="M152.26,332.46a21.64,21.64,0,0,1,1.63,5.39c.38,2,.7,4,1,5.95a1.29,1.29,0,0,0,1.57.89,1.3,1.3,0,0,0,.89-1.57c-.69-4-1.12-8.23-2.92-11.95a1.28,1.28,0,0,0-2.21,1.29Z" transform="translate(-63.44 -90.53)"/><path class="cls-2" d="M143.91,331.14a9.13,9.13,0,0,0-5.33.18,4.73,4.73,0,0,0-2.92,3.74,18.91,18.91,0,0,0,.41,5.35l.87,6.1a1.29,1.29,0,0,0,1.57.89,1.31,1.31,0,0,0,.89-1.57l-.69-4.85a44.39,44.39,0,0,1-.58-4.45,2.68,2.68,0,0,1,1.22-2.77,6,6,0,0,1,3.9-.17,1.27,1.27,0,1,0,.66-2.45Z" transform="translate(-63.44 -90.53)"/><path class="cls-2" d="M134,318.27a3.37,3.37,0,0,0-1.77,1.6c-.39.59-.77,1.18-1.11,1.79a9.72,9.72,0,0,0-1.32,4.35,1.28,1.28,0,0,0,1.27,1.27A1.29,1.29,0,0,0,132.3,326c0-.15,0-.3,0-.45s0-.15,0,0a1.7,1.7,0,0,1,0-.22,6.38,6.38,0,0,1,.22-.86c0-.14.09-.28.15-.42l.08-.21c-.06.13,0,.13,0,0s.26-.54.4-.81c.29-.54.61-1.05.94-1.56l.48-.72q.12-.17,0,0a.8.8,0,0,1,.13-.13c.1-.09.09-.08-.05,0,.12-.07.1-.06-.06,0a1.27,1.27,0,1,0-.67-2.44Z" transform="translate(-63.44 -90.53)"/><path class="cls-2" d="M133.58,329.33a6.88,6.88,0,0,0,.58,1.19,7.07,7.07,0,0,0,.81,1.06,6.56,6.56,0,0,0,1.88,1.43,1.39,1.39,0,0,0,1,.13,1.27,1.27,0,0,0,.31-2.32,5.4,5.4,0,0,1-.91-.58l.26.2a5.73,5.73,0,0,1-1-1l.2.26a5.54,5.54,0,0,1-.7-1.2l.13.3s0-.08-.05-.13a1.43,1.43,0,0,0-.58-.76,1.29,1.29,0,0,0-1-.13,1.3,1.3,0,0,0-.76.58A1.18,1.18,0,0,0,133.58,329.33Z" transform="translate(-63.44 -90.53)"/><path class="cls-2" d="M162,342.24c2.35,1.13,2.89,3.75,2.88,6.15a4.7,4.7,0,0,1-.8,3.3,6.53,6.53,0,0,1-2.79,1.61c-5.27,1.83-10.95,1.8-16.46,1.8a1.27,1.27,0,0,0,0,2.54,86,86,0,0,0,10.28-.41c3.06-.37,6.48-.91,9.18-2.5s3.31-4.46,3.1-7.51c-.2-2.88-1.36-5.85-4.11-7.18C161.84,339.33,160.55,341.52,162,342.24Z" transform="translate(-63.44 -90.53)"/><path class="cls-2" d="M164.35,354c2.33.46,1.92,4.64,1.64,6.37a6,6,0,0,1-1.39,3.2,7,7,0,0,1-3.34,1.71,39.55,39.55,0,0,1-8.71,1.45,13.89,13.89,0,0,1-4-.12c-1-.26-2.27-1.08-1.93-2.31a1.27,1.27,0,0,0-2.45-.68,4.21,4.21,0,0,0,1.42,4.3,7.48,7.48,0,0,0,5,1.41,39.06,39.06,0,0,0,12-1.8,8.49,8.49,0,0,0,4.4-2.89,9.26,9.26,0,0,0,1.56-4.41c.36-3,.25-7.94-3.53-8.69C163.43,351.21,162.74,353.66,164.35,354Z" transform="translate(-63.44 -90.53)"/><path class="cls-2" d="M163.83,365.94c.81,2.45,1.4,5.71.47,8.21-1,2.77-5.24,1.8-7.4,1.46-2.9-.45-5.87-.76-8.73-1.38-1.15-.25-2.16-.72-2.22-2s1-2.42,1.92-3.22c1.26-1.05-.55-2.84-1.8-1.8-2.47,2.05-4,6.23-.91,8.52,1.41,1,3.26,1.14,4.93,1.4l6.14,1c3.23.5,7.67,1.3,9.87-1.87a9.06,9.06,0,0,0,1.14-5.09,18.14,18.14,0,0,0-1-5.84C165.77,363.71,163.31,364.38,163.83,365.94Z" transform="translate(-63.44 -90.53)"/><path class="cls-2" d="M145.38,373.73a8.12,8.12,0,0,0-3.28,8.09,3.56,3.56,0,0,0,2.91,3c2,.48,4,.86,6,1.26s3.89.84,5.86,1.13a5.78,5.78,0,0,0,4.64-.94c2.79-2.25,2-5.91,3.33-8.85.67-1.48-1.52-2.78-2.2-1.28a15,15,0,0,0-1,3.9,9.4,9.4,0,0,1-1,3.45,2.76,2.76,0,0,1-2.88,1.29,43.2,43.2,0,0,1-4.49-.83l-4.44-.91-2.31-.5c-.56-.12-1.39-.12-1.7-.66a4.52,4.52,0,0,1,0-3.24,5.38,5.38,0,0,1,1.91-2.73C148,375,146.7,372.76,145.38,373.73Z" transform="translate(-63.44 -90.53)"/><path class="cls-2" d="M144.52,382.24a7.21,7.21,0,0,0-3.61,5.59,15.37,15.37,0,0,0,.45,4c.25,1.41.35,2.59,2,2.92,1.29.26,2.62.32,3.9.65s2.33,1.19,3.63,1.41c2.46.42,4.88-1.17,6.4-3a10.94,10.94,0,0,0,2.63-7.27,1.27,1.27,0,0,0-2.54,0,8.32,8.32,0,0,1-2.22,5.84,6.19,6.19,0,0,1-2.8,1.84c-1.29.34-2.31-.55-3.46-1a16.11,16.11,0,0,0-3.71-.77,5.94,5.94,0,0,0-1.16-.18l-.29-.06c.33.47.42.48.28,0a9.94,9.94,0,0,0-.39-2.22,5.94,5.94,0,0,1,.12-3.29,4.65,4.65,0,0,1,2.06-2.31A1.28,1.28,0,0,0,144.52,382.24Z" transform="translate(-63.44 -90.53)"/><path class="cls-2" d="M142.35,392.38a49.33,49.33,0,0,0-4.11,3.53,7.33,7.33,0,0,0-1.74,4.46c-.33,2.87-1,6.75,1.31,9a1.29,1.29,0,0,0,2-.26c.82-1.47.79-3.15,1.45-4.66.57-1.32,1.94-1.83,3.2-2.26a13.71,13.71,0,0,0,4.16-1.92,7,7,0,0,0,2.57-4.29,1.31,1.31,0,0,0-.89-1.57,1.29,1.29,0,0,0-1.57.89,4.7,4.7,0,0,1-2.43,3.45c-1.24.67-2.65,1-4,1.52a6.18,6.18,0,0,0-3.31,2.89c-.71,1.48-.65,3.23-1.45,4.66l2-.26a4.12,4.12,0,0,1-.86-3,32.65,32.65,0,0,1,.29-4.19,4.5,4.5,0,0,1,1.47-3.12c1.18-1.05,2.42-2.05,3.63-3.07S143.59,391.33,142.35,392.38Z" transform="translate(-63.44 -90.53)"/><path class="cls-1" d="M185.85,129q5.46-3.26,11.17-6.08a1.28,1.28,0,0,0,.46-1.74,1.3,1.3,0,0,0-1.74-.46q-5.7,2.82-11.17,6.08A1.27,1.27,0,0,0,185.85,129Z" transform="translate(-63.44 -90.53)"/><path class="cls-1" d="M214.76,115.92l12.07-4.16c1.54-.53.88-3-.68-2.45l-12.07,4.16C212.55,114,213.21,116.46,214.76,115.92Z" transform="translate(-63.44 -90.53)"/><path class="cls-1" d="M245.8,109.89a71.23,71.23,0,0,1,12.73-.3,1.27,1.27,0,0,0,0-2.54,69.44,69.44,0,0,0-12.73.3,1.31,1.31,0,0,0-1.27,1.27A1.27,1.27,0,0,0,245.8,109.89Z" transform="translate(-63.44 -90.53)"/><path class="cls-1" d="M278.92,111.91a80.75,80.75,0,0,1,12.31,1.44,1.32,1.32,0,0,0,1.57-.89,1.3,1.3,0,0,0-.89-1.57,84.51,84.51,0,0,0-13-1.53C277.29,109.3,277.29,111.85,278.92,111.91Z" transform="translate(-63.44 -90.53)"/><path class="cls-1" d="M313,117.61q-7.38-5.79-14.75-11.59a1.9,1.9,0,0,0-.67-.39c-.75-.2-1.4.52-1.84,1.16a126.34,126.34,0,0,0-6.84,11.11,1.33,1.33,0,0,0-.24.93c.15.57.91.67,1.5.65l23.06-.85" transform="translate(-63.44 -90.53)"/><path class="cls-1" d="M313.91,116.71l-10.82-8.5-2.62-2.06a8.76,8.76,0,0,0-2.42-1.7c-2-.6-3.13,1.3-4.06,2.67-1.22,1.8-2.39,3.64-3.51,5.5-.51.85-1,1.7-1.5,2.56a11.91,11.91,0,0,0-1.53,3c-.44,2,1.6,2.61,3.16,2.56,2.38-.07,4.75-.18,7.13-.26l15.51-.57c1.63-.06,1.64-2.61,0-2.54-7.62.28-15.23.64-22.85.84a1.85,1.85,0,0,0-.47,0h-.1c-.24,0-.17.07.19.35a5.92,5.92,0,0,0,.57-1q.68-1.22,1.38-2.4,1.39-2.39,2.91-4.71c.47-.72.94-1.43,1.42-2.14.21-.31.41-.63.64-.93a1.32,1.32,0,0,1,.29-.33c.35-.16,0-.07.32.08a14.46,14.46,0,0,1,2.11,1.65l2.29,1.8,10.16,8C313.39,119.51,315.2,117.72,313.91,116.71Z" transform="translate(-63.44 -90.53)"/><path class="cls-1" d="M384.14,196.59a128,128,0,0,1,4.46,15c.37,1.59,2.82.92,2.45-.68a127.43,127.43,0,0,0-4.46-15A1.32,1.32,0,0,0,385,195,1.29,1.29,0,0,0,384.14,196.59Z" transform="translate(-63.44 -90.53)"/><path class="cls-1" d="M391.54,225.74a99.89,99.89,0,0,1,1.68,14.32c.07,1.63,2.62,1.64,2.54,0a103.53,103.53,0,0,0-1.77-15C393.69,223.45,391.24,224.13,391.54,225.74Z" transform="translate(-63.44 -90.53)"/><path class="cls-1" d="M393,256.35,389.86,270c-.37,1.59,2.08,2.27,2.45.68L395.49,257C395.86,255.43,393.41,254.75,393,256.35Z" transform="translate(-63.44 -90.53)"/><path class="cls-1" d="M388,283.52a97.86,97.86,0,0,1-5.7,12.56c-.78,1.44,1.42,2.73,2.2,1.28a101.9,101.9,0,0,0,6-13.17,1.3,1.3,0,0,0-.89-1.57A1.32,1.32,0,0,0,388,283.52Z" transform="translate(-63.44 -90.53)"/><path class="cls-1" d="M376.05,308.34c-.6,1.23-1.27,2.43-2,3.6-.36.58-.74,1.16-1.13,1.72-.2.28-.39.56-.6.84s-.2.28-.31.41a1.56,1.56,0,0,1-.16.2c-.09.12-.1.14,0,.05a1.3,1.3,0,0,0,0,1.8,1.29,1.29,0,0,0,1.8,0,42.65,42.65,0,0,0,4.62-7.33,1.3,1.3,0,0,0-.46-1.74A1.27,1.27,0,0,0,376.05,308.34Z" transform="translate(-63.44 -90.53)"/><path class="cls-1" d="M365.18,315.93a39.53,39.53,0,0,1-2.94,15.9l14.16-10.74a1.7,1.7,0,0,0,.63-.7,1.59,1.59,0,0,0-.45-1.4,12.9,12.9,0,0,0-8-4.73,2.63,2.63,0,0,0-1.55.1,1,1,0,0,0-.55,1.3" transform="translate(-63.44 -90.53)"/><path class="cls-1" d="M363.91,315.93A39,39,0,0,1,361,331.5a1.29,1.29,0,0,0,1.87,1.44l8.89-6.74,4.17-3.16c1.25-1,2.87-1.88,2.28-3.71a8.33,8.33,0,0,0-2.84-3.34,14.33,14.33,0,0,0-3.6-2.12,9.57,9.57,0,0,0-4.26-.92,2.42,2.42,0,0,0-2.27,3.06c.54,1.53,3,.87,2.45-.68.13.36-.41,0,.08.14.17,0,.54,0,.72.07a11.68,11.68,0,0,1,4.22,1.66,11.65,11.65,0,0,1,2.34,2c.15.17.31.33.45.51s.2.53.37.21c-.24.46-1.09.85-1.5,1.17l-12.78,9.69,1.87,1.44a41.07,41.07,0,0,0,3-16.24A1.28,1.28,0,0,0,363.91,315.93Z" transform="translate(-63.44 -90.53)"/><path class="cls-1" d="M290.77,375.93a61.54,61.54,0,0,1-8.7,1.67,1.31,1.31,0,0,0-1.27,1.27,1.28,1.28,0,0,0,1.27,1.27,63.53,63.53,0,0,0,9.38-1.76A1.27,1.27,0,0,0,290.77,375.93Z" transform="translate(-63.44 -90.53)"/><path class="cls-1" d="M261.06,380.08a52.35,52.35,0,0,1-7.82.19,1.28,1.28,0,0,0-1.27,1.27,1.29,1.29,0,0,0,1.27,1.27,52.35,52.35,0,0,0,7.82-.19,1.27,1.27,0,0,0,0-2.54Z" transform="translate(-63.44 -90.53)"/><path class="cls-1" d="M238.57,378a31,31,0,0,1-10.17-1.85,1.29,1.29,0,0,0-1.57.89,1.31,1.31,0,0,0,.89,1.57,33.11,33.11,0,0,0,10.85,1.94A1.28,1.28,0,0,0,238.57,378Z" transform="translate(-63.44 -90.53)"/><path class="cls-1" d="M216,374.38a99.62,99.62,0,0,1-14.68-4.82,1.3,1.3,0,0,0-1.57.89,1.31,1.31,0,0,0,.89,1.57,100.81,100.81,0,0,0,14.68,4.82C216.87,377.22,217.55,374.77,216,374.38Z" transform="translate(-63.44 -90.53)"/><path class="cls-1" d="M130.49,296.69q-2.13-6.62-4.25-13.24c-.5-1.55-3-.89-2.45.68q2.13,6.62,4.25,13.24C128.54,298.91,131,298.25,130.49,296.69Z" transform="translate(-63.44 -90.53)"/><path class="cls-1" d="M123,272.3a45.08,45.08,0,0,1-2.36-10.18,1.31,1.31,0,0,0-1.27-1.27,1.27,1.27,0,0,0-1.27,1.27A47.6,47.6,0,0,0,120.58,273a1.31,1.31,0,0,0,1.57.89A1.29,1.29,0,0,0,123,272.3Z" transform="translate(-63.44 -90.53)"/><path class="cls-1" d="M119,249.39a29.27,29.27,0,0,1-.43-8.46,1.28,1.28,0,0,0-1.27-1.27,1.3,1.3,0,0,0-1.27,1.27,31.86,31.86,0,0,0,.52,9.14,1.27,1.27,0,1,0,2.45-.68Z" transform="translate(-63.44 -90.53)"/><path class="cls-1" d="M189.12,362.86a142.11,142.11,0,0,1,9,16.27,87.06,87.06,0,0,0,8.71-16.26l-13.42-.39a5.2,5.2,0,0,1-2.62-.55" transform="translate(-63.44 -90.53)"/><path class="cls-1" d="M188,363.5a142.11,142.11,0,0,1,9,16.27,1.29,1.29,0,0,0,2.2,0A89.59,89.59,0,0,0,208,363.2c.33-.8-.49-1.59-1.23-1.61l-8.12-.24-3.88-.11a7.46,7.46,0,0,1-3.39-.42,1.27,1.27,0,0,0-1.28,2.2,7.25,7.25,0,0,0,3.44.73l4.41.13,8.83.26-1.23-1.61a86.38,86.38,0,0,1-8.58,16h2.2a142.11,142.11,0,0,0-9-16.27C189.34,360.84,187.14,362.11,188,363.5Z" transform="translate(-63.44 -90.53)"/><path class="cls-1" d="M119.91,226.28a23,23,0,0,0-7.53,8.25,3.94,3.94,0,0,0-.57,3.28c.53,1.25,2.06,1.67,3.39,1.94l5.18,1a3.86,3.86,0,0,0,1.62.09,2.76,2.76,0,0,0,1.83-2.8,11.36,11.36,0,0,0-.92-3.48,18.64,18.64,0,0,1-1-7.59" transform="translate(-63.44 -90.53)"/><path class="cls-1" d="M119.27,225.18a25.19,25.19,0,0,0-6.33,6.07c-1.57,2.14-3.91,5.64-1.63,8.08a6.29,6.29,0,0,0,3.36,1.6c1.6.34,3.22.65,4.83,1s3.12.56,4.35-.66a4.55,4.55,0,0,0,1.21-3.68c-.19-1.76-1-3.37-1.45-5.09a18,18,0,0,1-.41-5.47c.12-1.63-2.43-1.63-2.54,0a20,20,0,0,0,1,7.93c.37,1.07,2,5-.59,4.68-1.36-.18-2.71-.54-4-.81a14.44,14.44,0,0,1-3.19-.78,1.4,1.4,0,0,1-.76-2,13.74,13.74,0,0,1,1.77-3.09,21.61,21.61,0,0,1,5.69-5.55C121.91,226.47,120.63,224.27,119.27,225.18Z" transform="translate(-63.44 -90.53)"/></svg>