<svg id="Layer_1" data-name="Layer 1" xmlns="http://www.w3.org/2000/svg" viewBox="0 0 301.92 320.24"><defs><style>.cls-1{fill:#fff;}.cls-2{fill:#ed1e79;}</style></defs><path class="cls-1" d="M326.62,376.14h1.68v1.48h0a1.67,1.67,0,0,1,.3-.5,3.21,3.21,0,0,1,.64-.56,3.6,3.6,0,0,1,.92-.46,3.44,3.44,0,0,1,1.18-.2,3.38,3.38,0,0,1,1.78.44,3.25,3.25,0,0,1,1.18,1.32,3,3,0,0,1,1.3-1.32,3.68,3.68,0,0,1,1.7-.44,4,4,0,0,1,1.8.36,2.86,2.86,0,0,1,1.1,1,3.32,3.32,0,0,1,.54,1.34,7.06,7.06,0,0,1,.16,1.54v5.52h-1.8v-5.28a7,7,0,0,0-.08-1,2.22,2.22,0,0,0-.28-.88,1.63,1.63,0,0,0-.62-.6,2.05,2.05,0,0,0-1.06-.24,2.11,2.11,0,0,0-1.86.8,3.53,3.53,0,0,0-.56,2.06v5.18h-1.8v-5a9.34,9.34,0,0,0-.08-1.24,2.51,2.51,0,0,0-.28-1,1.38,1.38,0,0,0-.6-.64,1.93,1.93,0,0,0-1-.24,2.41,2.41,0,0,0-.94.2,2.21,2.21,0,0,0-.78.56,2.63,2.63,0,0,0-.54,1,4.37,4.37,0,0,0-.2,1.38v4.92h-1.8Zm-2.87,2.52a3.33,3.33,0,0,0-1.06-.78,2.74,2.74,0,0,0-1.3-.28,2.86,2.86,0,0,0-1.3.28,2.62,2.62,0,0,0-.92.74,3.68,3.68,0,0,0-.56,1.08,4.36,4.36,0,0,0-.18,1.26,3.79,3.79,0,0,0,.22,1.26,3.28,3.28,0,0,0,.62,1,3,3,0,0,0,1,.7,3.22,3.22,0,0,0,1.26.24,3,3,0,0,0,1.3-.26,3.39,3.39,0,0,0,1-.8l1.28,1.28a4,4,0,0,1-1.64,1.12,5.83,5.83,0,0,1-4,0,4.69,4.69,0,0,1-1.56-1,4.59,4.59,0,0,1-1-1.56,5.85,5.85,0,0,1,0-4,4.84,4.84,0,0,1,1-1.58,4.59,4.59,0,0,1,1.56-1,5.41,5.41,0,0,1,2-.38,5.25,5.25,0,0,1,2,.38,4.18,4.18,0,0,1,1.66,1.12Zm-15.4-5.4h-5.74l-.06,3.54a2.85,2.85,0,0,1,.4-.12l.52-.1.54-.06.44,0a4.48,4.48,0,0,1,1.8.34,4,4,0,0,1,1.4,1,4.08,4.08,0,0,1,.88,1.48,5.26,5.26,0,0,1,.32,1.9,4.43,4.43,0,0,1-.4,1.92,4.24,4.24,0,0,1-1.06,1.48,5,5,0,0,1-1.58,1,5.8,5.8,0,0,1-1.94.32,4.78,4.78,0,0,1-2.6-.74,4.11,4.11,0,0,1-1.66-2.12l1.94-.66a3,3,0,0,0,1,1.42,3.11,3.11,0,0,0,2.66.22,2.42,2.42,0,0,0,.88-.56,2.53,2.53,0,0,0,.6-.92,3.16,3.16,0,0,0,.22-1.22,2.78,2.78,0,0,0-1-2.32,3.7,3.7,0,0,0-2.46-.78,6.41,6.41,0,0,0-1.38.2,6.69,6.69,0,0,0-1.54.54l.16-7.46h7.6Zm-12.2,12.48a1.32,1.32,0,0,1-.94-.38,1.3,1.3,0,0,1-.38-.94,1.22,1.22,0,0,1,.38-.92,1.26,1.26,0,0,1,.94-.4,1.22,1.22,0,0,1,.92.4,1.24,1.24,0,0,1,.4.92,1.32,1.32,0,0,1-.4.94A1.28,1.28,0,0,1,296.15,385.74Zm-8.5-12.08-2.6,2.4-1.12-1.34,3.94-3.26h1.7v14.16h-1.92Zm-6.1,8h-4.92v-1.68h4.92Zm-11.34-8-2.6,2.4-1.12-1.34,3.94-3.26h1.7v14.16h-1.92Z" transform="translate(-73.81 -65.62)"/><path class="cls-1" d="M342.86,334.59h7.77v1.53h-6.14v3.58h5.72v1.53h-5.72v3.86h6.45v1.53h-8.08Zm-3,5.3v5.93a5.81,5.81,0,0,1-1,.48,11.26,11.26,0,0,1-1.17.34,9.88,9.88,0,0,1-1.23.22c-.41,0-.79.07-1.15.07a7,7,0,0,1-2.74-.51,5.9,5.9,0,0,1-3.28-3.39,7.05,7.05,0,0,1,0-4.93,6.37,6.37,0,0,1,1.29-2,5.94,5.94,0,0,1,2-1.33,6.39,6.39,0,0,1,2.54-.49,7.47,7.47,0,0,1,2.72.42,5.05,5.05,0,0,1,1.76,1.14l-1.15,1.24a4.27,4.27,0,0,0-1.58-1,5.4,5.4,0,0,0-1.75-.29,4.31,4.31,0,0,0-1.87.39,4.24,4.24,0,0,0-1.43,1,4.38,4.38,0,0,0-.92,1.53,5.45,5.45,0,0,0,0,3.76,4.71,4.71,0,0,0,1,1.51,4.51,4.51,0,0,0,3.33,1.38,7.7,7.7,0,0,0,1.63-.16,4.81,4.81,0,0,0,1.33-.47v-3.35h-2.67v-1.53Zm-23.78-5.3h2.14l6.63,9.89h0v-9.89h1.63v12h-2.08l-6.69-9.89h0v9.89H316.1Zm-5.27,7.63-2.25-5.53h0l-2.28,5.53Zm-2.93-7.63h1.48l5.15,12h-1.9l-1.21-3h-5.73l-1.19,3h-1.9Zm-12.53,5.3h2.14a5.86,5.86,0,0,0,.94-.07,2.63,2.63,0,0,0,.83-.29,1.43,1.43,0,0,0,.59-.58,2,2,0,0,0,.23-1,1.84,1.84,0,0,0-.23-1,1.42,1.42,0,0,0-.59-.6,2.19,2.19,0,0,0-.83-.27,4.91,4.91,0,0,0-.94-.09h-2.14Zm-1.63-5.3H298a4.71,4.71,0,0,1,1.9.32,3,3,0,0,1,1.18.8,2.56,2.56,0,0,1,.61,1.09,4.27,4.27,0,0,1,.17,1.15,3.24,3.24,0,0,1-3,3.18l3.42,5.49h-2l-3.06-5.3h-1.82v5.3h-1.63Zm-15.13,0h7.77v1.53h-6.13v3.58H286v1.53h-5.71v3.86h6.44v1.53h-8.08Zm-11.08,10.5,6.85-9h-6.64v-1.53h8.68v1.53l-6.81,9h6.92v1.53h-9Zm-3.72-10.5h1.63v12h-1.63Zm-9.09,9.52a2.64,2.64,0,0,0,1.12,1,3.41,3.41,0,0,0,1.43.31,3,3,0,0,0,.83-.12,2.49,2.49,0,0,0,.76-.39,2.05,2.05,0,0,0,.58-.63,1.66,1.66,0,0,0,.22-.87,1.26,1.26,0,0,0-.44-1.05,3.31,3.31,0,0,0-1.1-.61c-.43-.17-.91-.33-1.43-.48a6,6,0,0,1-1.43-.65,3.62,3.62,0,0,1-1.09-1.08,3.52,3.52,0,0,1-.44-1.87,3.07,3.07,0,0,1,1-2.21,3.82,3.82,0,0,1,1.26-.82,4.59,4.59,0,0,1,1.87-.34,6.54,6.54,0,0,1,1.89.27,3.24,3.24,0,0,1,1.58,1.11l-1.33,1.2a2.17,2.17,0,0,0-.87-.76,2.73,2.73,0,0,0-1.27-.29,3,3,0,0,0-1.14.19,1.79,1.79,0,0,0-.71.46,1.6,1.6,0,0,0-.39.59,2,2,0,0,0-.11.6,1.49,1.49,0,0,0,.45,1.17,3.4,3.4,0,0,0,1.08.66c.45.17.92.32,1.43.46a5.87,5.87,0,0,1,1.43.58,3.13,3.13,0,0,1,1.1,1,2.84,2.84,0,0,1,.45,1.7,3.65,3.65,0,0,1-.34,1.57,3.44,3.44,0,0,1-.89,1.17,3.85,3.85,0,0,1-1.32.73,5.17,5.17,0,0,1-1.64.26,6,6,0,0,1-2.19-.41,3.59,3.59,0,0,1-1.65-1.26Z" transform="translate(-73.81 -65.62)"/><path class="cls-2" d="M371.31,210l.66,58.71.66,58.71c.08,7.09.72,15.11-2.56,21.66a13.08,13.08,0,0,1-7.38,6.67c-4,1.4-8.34,1.27-12.52,1.32l-58.7.7-58.7.7-7.24.09a1.5,1.5,0,0,0,0,3l59.94-.72,59.94-.72c8-.1,17.8,1,24-5.09,5.09-5,6.05-12.65,6.22-19.4.24-9.46-.15-19-.26-28.44q-.17-15-.34-30-.33-29.85-.67-59.7,0-3.75-.08-7.49A1.5,1.5,0,0,0,371.31,210Z" transform="translate(-73.81 -65.62)"/><path class="cls-2" d="M373.64,193.21v-8.93a1.5,1.5,0,1,0-3,0v8.93a1.5,1.5,0,1,0,3,0Z" transform="translate(-73.81 -65.62)"/><path class="cls-2" d="M372.78,157.48a24.57,24.57,0,0,1,1-10.77,1.5,1.5,0,1,0-2.9-.8,26.69,26.69,0,0,0-1.11,11.57,1.55,1.55,0,0,0,1.5,1.5A1.51,1.51,0,0,0,372.78,157.48Z" transform="translate(-73.81 -65.62)"/><path class="cls-2" d="M372.75,114v-6.7a1.5,1.5,0,0,0-3,0V114a1.5,1.5,0,0,0,3,0Z" transform="translate(-73.81 -65.62)"/><path class="cls-2" d="M373.87,81.58V67.07a1.5,1.5,0,0,0-3,0V81.58A1.5,1.5,0,0,0,373.87,81.58Z" transform="translate(-73.81 -65.62)"/><path class="cls-2" d="M203.12,357.92h-7.81a1.5,1.5,0,0,0,0,3h7.81a1.5,1.5,0,0,0,0-3Z" transform="translate(-73.81 -65.62)"/><path class="cls-2" d="M83.12,356.92H75.31a1.5,1.5,0,0,0,0,3h7.81a1.5,1.5,0,0,0,0-3Z" transform="translate(-73.81 -65.62)"/><path class="cls-2" d="M178.56,357.8H167.4a1.5,1.5,0,0,0,0,3h11.16A1.5,1.5,0,0,0,178.56,357.8Z" transform="translate(-73.81 -65.62)"/><path class="cls-2" d="M145.07,357.68h-13.4a1.5,1.5,0,0,0,0,3h13.4A1.5,1.5,0,0,0,145.07,357.68Z" transform="translate(-73.81 -65.62)"/><path class="cls-2" d="M111.58,356.45H96a1.5,1.5,0,0,0,0,3h15.63A1.5,1.5,0,0,0,111.58,356.45Z" transform="translate(-73.81 -65.62)"/></svg>