<svg id="Layer_1" data-name="Layer 1" xmlns="http://www.w3.org/2000/svg" viewBox="0 0 777.89 443.48"><defs><style>.cls-1{fill:#fff;}.cls-2,.cls-3{font-size:20.93px;}.cls-2,.cls-3,.cls-4{fill:#ff0;}.cls-2{font-family:Avenir-Medium, Avenir;font-weight:500;}.cls-3{font-family:Avenir-Black, Avenir;font-weight:800;}</style></defs><path class="cls-1" d="M468.67,260.8c1.43.4.58,2.76-.26,3.39-1.91,1.42-3.47-1.78-3.54-3.23-.14-2.74,2.32-4.52,4.69-5.25a13,13,0,0,1,8.67.36c6.39,2.73,4.86,10.49.3,14.19a23.59,23.59,0,0,1-8.95,4.08,28.86,28.86,0,0,1-11.2,1.05c-5.74-.75-12-4.84-12.32-11.15-.31-5.93,4.57-10.44,9.33-13.1,5.59-3.13,12.31-4.49,18.66-4.72a42.43,42.43,0,0,1,19.28,3.66c11.09,5.17,19.51,16.34,19.95,28.77.49,13.62-9.14,25.33-19.5,33-21.69,16.11-54.32,21.7-77.43,5.39C406.23,310.12,399,299.06,398,286.56a37.77,37.77,0,0,1,2.83-17.95,35.46,35.46,0,0,1,11.79-14.32c5.33-3.91,11.36-6.76,17.38-9.42,6.61-2.92,13.22-5.86,19.93-8.54,13.92-5.57,28.47-9.72,43.6-8.42a111.54,111.54,0,0,1,22.63,4.75,194.22,194.22,0,0,1,20.66,7.46c12.47,5.4,24,12.59,33.45,22.47a94.44,94.44,0,0,1,25.9,66.77c-.75,28.48-15.45,54.55-33.39,75.83-9.46,11.23-20,21.51-30.64,31.57-9.84,9.29-19.9,18.49-27.94,29.45A80.58,80.58,0,0,0,494.63,483c-.74,1.78,2.16,2.56,2.89.8,5.62-13.53,15.62-24.59,26-34.7,11.09-10.83,22.63-21.16,33.19-32.53s20.45-23.85,28-37.59c7.28-13.26,12.47-27.75,14-42.84A93.58,93.58,0,0,0,594.29,297a98.33,98.33,0,0,0-19.78-34.29c-9.63-10.81-21.72-18.81-34.9-24.67a196.5,196.5,0,0,0-22.41-8.24,112.87,112.87,0,0,0-24.39-5c-16.26-1.25-31.89,3.68-46.73,9.83-7,2.91-14.07,5.93-21,9.12-6.32,2.92-12.54,6.26-17.75,10.93C397.05,264,393.12,278,395.67,291.43c2.52,13.23,11.61,24.28,23.1,30.95,12.94,7.52,28.35,9.11,42.92,6.48,14.73-2.66,29.12-9.44,40-19.75A49.31,49.31,0,0,0,514,291.67a32.06,32.06,0,0,0,1.22-20c-3.47-13.24-14.35-23.3-27.43-26.77a48.92,48.92,0,0,0-21.5-.64c-6.5,1.21-13,3.63-17.89,8.23-4.55,4.3-6.84,10.58-4.13,16.52,2.93,6.46,10.14,9.51,16.89,9.52a37,37,0,0,0,11.43-2,22.93,22.93,0,0,0,9-5c4.57-4.44,5.88-12.51.37-16.78-4.76-3.7-13.11-3.68-17.61.49a7.48,7.48,0,0,0-2.06,7.85c.84,2.47,3.06,4.62,5.83,4.3,4.49-.51,6.26-8.2,1.39-9.53a1.5,1.5,0,0,0-.8,2.89Z" transform="translate(-111.39 -139.92)"/><path class="cls-1" d="M518.85,454.8A42.28,42.28,0,0,1,549,457.85c1.72.87,3.24-1.71,1.52-2.59a45.57,45.57,0,0,0-32.45-3.36,1.51,1.51,0,0,0,.8,2.9Z" transform="translate(-111.39 -139.92)"/><path class="cls-1" d="M505.59,472a35.93,35.93,0,0,1,22.09,5,1.5,1.5,0,0,0,1.52-2.59A38.65,38.65,0,0,0,505.59,469c-1.9.19-1.92,3.19,0,3Z" transform="translate(-111.39 -139.92)"/><path class="cls-1" d="M468.07,500c26.76-5.5,53.37,7.38,78.28,15.35,25.19,8.07,51,14.61,77.36,17.28,24.95,2.53,51.2,1.72,75.3-5.79,19.7-6.14,38.63-18.36,43.65-39.6,1.48-6.26,1.93-12.72,2.38-19.12.48-6.74.87-13.5,1.1-20.25a298.65,298.65,0,0,0-1.2-42.3,208.36,208.36,0,0,0-16.49-61.7c-16.68-37.94-44.05-70.71-76.94-95.7a265.6,265.6,0,0,0-122.12-51.08c-47-6.86-96.13-1.27-139.33,19.06a210.55,210.55,0,0,0-92.33,85.44,191.87,191.87,0,0,0-22,58.37c-4.51,23.15-5,47.88,1.86,70.6,3.68,12.19,9.25,23.73,15.51,34.79a334,334,0,0,0,20.14,31.88c7.28,10,15.73,18.94,26,25.91,10,6.76,21,11.75,32.29,15.91,46.93,17.34,100.75,19.53,145.87-4.36A135.93,135.93,0,0,0,545,515.42c1.43-1.3-.7-3.42-2.13-2.12-36.61,33.17-88.61,41.88-136,32.62A223.13,223.13,0,0,1,370,535.31c-11.2-4.27-22.14-9.52-31.87-16.58-10.34-7.5-18.52-17.25-25.66-27.76a366,366,0,0,1-19.24-31.53c-5.92-10.95-11-22.4-14.11-34.48a134,134,0,0,1-3.52-38.65,179.12,179.12,0,0,1,13.25-59.75c15.65-38.54,43.86-71.92,78.73-94.49C406.36,207,453.07,196,499,197.42a263.89,263.89,0,0,1,127.49,37.4c35.07,21.12,65.44,50.51,86.52,85.69A213.71,213.71,0,0,1,736.52,376c6.4,24.37,7.54,49.59,6.52,74.66-.28,6.73-.69,13.46-1.19,20.18-.48,6.36-1.08,12.77-3,18.9-3.09,10.06-10,18.17-18.66,24-8.45,5.71-18.13,9.42-28,11.92a176.89,176.89,0,0,1-37.41,5.11c-26.06.91-52-3.15-77.24-9.5-12.52-3.16-24.88-6.89-37.13-10.95S516,501.58,503.39,498.6c-11.86-2.79-24.09-3.93-36.12-1.46-1.89.38-1.09,3.28.8,2.89Z" transform="translate(-111.39 -139.92)"/><text class="cls-2" transform="translate(391.62 426.91)">60°</text><text class="cls-2" transform="translate(393.15 287.51)">56°</text><text class="cls-2" transform="translate(6.48 58.89)">95%</text><text class="cls-2" transform="translate(693 55.68)">43°</text><text class="cls-3" transform="translate(734.35 51.72) scale(0.7)">AIR</text><text class="cls-3" transform="translate(187.43 15.82) scale(0.7)">SOLAR<tspan x="-29.82" y="25.86">RADIATION</tspan></text><text class="cls-2" transform="translate(575.26 420.91)">65°</text><text class="cls-2" transform="translate(206.26 420.91)">65°</text><path class="cls-4" d="M272.29,531.93q98.23-3.06,196.5-5.5,97.76-2.41,195.53-4.2,55.15-1,110.31-1.81a1.5,1.5,0,0,0,0-3q-98.28,1.44-196.55,3.51-97.77,2.05-195.52,4.76-55.14,1.51-110.27,3.24c-1.93.06-1.94,3.06,0,3Z" transform="translate(-111.39 -139.92)"/><path class="cls-4" d="M540.21,488.52a101.81,101.81,0,0,0,22.65-3,40.78,40.78,0,0,1-11.27-20,120,120,0,0,0-14.67,20.77" transform="translate(-111.39 -139.92)"/><path class="cls-4" d="M540.21,490a105.43,105.43,0,0,0,23-3,1.5,1.5,0,0,0,.66-2.5A39.88,39.88,0,0,1,553,465.1a1.5,1.5,0,0,0-2.5-.66,124,124,0,0,0-14.9,21.07,1.5,1.5,0,0,0,2.59,1.51,120.07,120.07,0,0,1,14.43-20.46l-2.51-.66a42.73,42.73,0,0,0,11.66,20.7l.66-2.51A101.17,101.17,0,0,1,540.21,487c-1.93,0-1.94,3,0,3Z" transform="translate(-111.39 -139.92)"/><path class="cls-4" d="M448.12,491.18a57.49,57.49,0,0,0,19-1.62c.6-.16,1.32-.45,1.39-1.07a1.73,1.73,0,0,0-.24-.87l-10.42-20.81a69.34,69.34,0,0,0-10.93,20.52" transform="translate(-111.39 -139.92)"/><path class="cls-4" d="M448.12,492.68a59,59,0,0,0,12.53-.35,60.47,60.47,0,0,0,6-1.1c1.46-.35,3.33-.92,3.4-2.74a5,5,0,0,0-.77-2.27l-1.41-2.82L465,477.76l-5.86-11.71a1.52,1.52,0,0,0-2.59,0,71.69,71.69,0,0,0-11.09,20.88c-.62,1.83,2.28,2.62,2.89.8a69.48,69.48,0,0,1,10.79-20.17h-2.59l9.76,19.52c.15.3.3.89.54,1.08s.17.29.17-.14l-.54.15c-.83.22-1.67.4-2.51.57-1.7.35-3.41.63-5.14.81a58.39,58.39,0,0,1-10.74.13c-1.93-.15-1.92,2.85,0,3Z" transform="translate(-111.39 -139.92)"/><path class="cls-4" d="M506.81,237.85a47.27,47.27,0,0,1,22.85-4.11q-3.61-13.28-7.44-26.48a75.62,75.62,0,0,0-17,29.46" transform="translate(-111.39 -139.92)"/><path class="cls-4" d="M507.56,239.14a46.35,46.35,0,0,1,22.1-3.9,1.52,1.52,0,0,0,1.45-1.9q-3.61-13.28-7.44-26.48a1.51,1.51,0,0,0-2.51-.66,78,78,0,0,0-17.36,30.12c-.57,1.85,2.33,2.64,2.89.8a74.66,74.66,0,0,1,16.59-28.8l-2.51-.66q3.83,13.2,7.45,26.47l1.44-1.89a49.54,49.54,0,0,0-23.61,4.31c-1.76.79-.24,3.38,1.51,2.59Z" transform="translate(-111.39 -139.92)"/><path class="cls-4" d="M814.2,227.4A38.29,38.29,0,0,0,799,218.18c-1.36-.44-15-2.3-15-3.67.46,8.09-.89,15.14,1.81,23.22A142.22,142.22,0,0,1,814.2,227.4Z" transform="translate(-111.39 -139.92)"/><path class="cls-4" d="M815.26,226.33c-4.85-4.76-11.23-8.82-18-10-2.5-.44-5-.86-7.49-1.39-1.12-.23-2.24-.48-3.33-.8l-.68-.21-.33-.12a2.35,2.35,0,0,1-.39-.21c.06-.16.47,1,.4.54-.29-1.66-3-1.28-2.95.4.42,8-.65,15.9,1.86,23.62a1.54,1.54,0,0,0,2.21.9,142.17,142.17,0,0,1,28.05-10.19c1.87-.46,1.08-3.36-.8-2.89A145.94,145.94,0,0,0,785,236.44l2.21.89c-2.43-7.45-1.36-15.14-1.76-22.82l-3,.4c.31,1.76,3.4,2.2,4.75,2.53,2.62.62,5.28,1.07,7.93,1.54a28.28,28.28,0,0,1,6.93,2,37.25,37.25,0,0,1,11,7.49C814.52,229.81,816.64,227.69,815.26,226.33Z" transform="translate(-111.39 -139.92)"/><path class="cls-4" d="M750.1,170.24l21,13a294.44,294.44,0,0,1,12.62-27.88A86.94,86.94,0,0,0,752,167.61" transform="translate(-111.39 -139.92)"/><path class="cls-4" d="M749.35,171.54l21,13a1.52,1.52,0,0,0,2.21-.89,295.66,295.66,0,0,1,12.46-27.52,1.52,1.52,0,0,0-1.69-2.2,88.73,88.73,0,0,0-32.13,12.43c-1.62,1-.12,3.63,1.52,2.59a86.58,86.58,0,0,1,31.41-12.13l-1.7-2.2A303.23,303.23,0,0,0,769.7,182.8l2.21-.9-21-13c-1.65-1-3.16,1.57-1.51,2.59Z" transform="translate(-111.39 -139.92)"/><path class="cls-4" d="M172.07,284.06c-.37-.13.31-.68.36-.29a86.45,86.45,0,0,1,.37,16.56,66.34,66.34,0,0,0-30.44.7,142.51,142.51,0,0,1,30.44-19.52" transform="translate(-111.39 -139.92)"/><path class="cls-4" d="M173.13,283l-.11-.09.39,1.45-1,.78-1.29-.74c-.2-.35,0,.21,0,.34,0,.32.07.64.1,1,.07.72.13,1.45.18,2.18.1,1.38.16,2.77.19,4.15.06,2.76,0,5.53-.21,8.29l1.9-1.45a68.83,68.83,0,0,0-31.24.7l1.46,2.51a142.46,142.46,0,0,1,30.14-19.28c1.74-.83.22-3.42-1.51-2.6A146.09,146.09,0,0,0,141.3,300c-1.2,1,.1,2.86,1.46,2.51a65.51,65.51,0,0,1,29.64-.7,1.52,1.52,0,0,0,1.9-1.44,88.28,88.28,0,0,0-.05-13.41c-.12-1.42.19-4.68-1.89-4.78a1.76,1.76,0,0,0-1.35,3c1.44,1.27,3.57-.84,2.12-2.12Z" transform="translate(-111.39 -139.92)"/><path class="cls-4" d="M233.41,227l6.69,2.82a1.49,1.49,0,0,0,1.15-.15,1.55,1.55,0,0,0,.69-.9,1.52,1.52,0,0,0-.15-1.16,1.77,1.77,0,0,0-.9-.69l-6.68-2.81a1.48,1.48,0,0,0-1.16.15,1.53,1.53,0,0,0-.69.89,1.56,1.56,0,0,0,.15,1.16,1.82,1.82,0,0,0,.9.69Z" transform="translate(-111.39 -139.92)"/><path class="cls-4" d="M259.09,238.09l6.69,2.27a1.51,1.51,0,0,0,1.84-1.05,1.53,1.53,0,0,0-1-1.84l-6.69-2.27a1.51,1.51,0,0,0-1.84,1.05,1.53,1.53,0,0,0,1,1.84Z" transform="translate(-111.39 -139.92)"/><path class="cls-4" d="M279.35,249.76a59.25,59.25,0,0,0,9.85,5.17,1.51,1.51,0,0,0,1.85-1.05A1.55,1.55,0,0,0,290,252a57,57,0,0,1-9.13-4.87,1.5,1.5,0,0,0-2.05.54,1.53,1.53,0,0,0,.53,2Z" transform="translate(-111.39 -139.92)"/><path class="cls-4" d="M302,254.43a37.88,37.88,0,0,1-2.79-4.5,33.09,33.09,0,0,1-2-4.67,1.52,1.52,0,0,0-1.84-1,1.5,1.5,0,0,0-1.05,1.84,38,38,0,0,0,5.11,9.88,1.55,1.55,0,0,0,2.06.54,1.51,1.51,0,0,0,.53-2.05Z" transform="translate(-111.39 -139.92)"/><path class="cls-4" d="M287.25,226.7c-2.43-3.53-4.73-7.15-6.87-10.86a1.5,1.5,0,1,0-2.59,1.52c2.14,3.7,4.44,7.33,6.86,10.86a1.55,1.55,0,0,0,2.06.54,1.53,1.53,0,0,0,.54-2.06Z" transform="translate(-111.39 -139.92)"/><path class="cls-4" d="M268.09,191.28l-3.95-6.67a1.52,1.52,0,0,0-2.05-.54,1.54,1.54,0,0,0-.54,2.06l3.95,6.67a1.5,1.5,0,1,0,2.59-1.52Z" transform="translate(-111.39 -139.92)"/><path class="cls-4" d="M257,172.84l-2.84-4.43a1.5,1.5,0,0,0-2.59,1.51l2.84,4.43a1.54,1.54,0,0,0,2.06.54,1.51,1.51,0,0,0,.53-2Z" transform="translate(-111.39 -139.92)"/><path class="cls-4" d="M181.88,296.29l4.46.56a1.5,1.5,0,0,0,1.06-.44,1.52,1.52,0,0,0,.44-1.06,1.46,1.46,0,0,0-.44-1.06l-.3-.24a1.54,1.54,0,0,0-.76-.2l-4.46-.56a1.46,1.46,0,0,0-1.06.44,1.5,1.5,0,0,0,0,2.12l.3.23a1.48,1.48,0,0,0,.76.21Z" transform="translate(-111.39 -139.92)"/><path class="cls-4" d="M202,298.52a30.2,30.2,0,0,1,8.53.51,1.55,1.55,0,0,0,1.85-1,1.53,1.53,0,0,0-1-1.85,33.6,33.6,0,0,0-9.33-.61,1.5,1.5,0,0,0,0,3Z" transform="translate(-111.39 -139.92)"/><path class="cls-4" d="M226.53,303a29.82,29.82,0,0,1,4.12,0c.68,0,1.35.1,2,.19l.24,0,.48.08,1.11.21a1.5,1.5,0,1,0,.8-2.89,31.87,31.87,0,0,0-8.77-.61,1.5,1.5,0,1,0,0,3Z" transform="translate(-111.39 -139.92)"/><path class="cls-4" d="M254.6,306.84l4.46,1.12a1.5,1.5,0,1,0,.8-2.9L255.39,304a1.5,1.5,0,1,0-.79,2.89Z" transform="translate(-111.39 -139.92)"/><path class="cls-4" d="M278.58,311.36l2.23.56a1.61,1.61,0,0,0,1.16-.15,1.52,1.52,0,0,0,.69-.9,1.5,1.5,0,0,0-1.05-1.84l-2.23-.56a1.5,1.5,0,0,0-.8,2.89Z" transform="translate(-111.39 -139.92)"/><path class="cls-4" d="M177,205.63a49.68,49.68,0,0,1,8.19,2.6,1.5,1.5,0,0,0,1.85-1,1.55,1.55,0,0,0-1.05-1.85,48.13,48.13,0,0,0-8.19-2.6,1.5,1.5,0,0,0-.8,2.89Z" transform="translate(-111.39 -139.92)"/><path class="cls-4" d="M199.34,212.31a46.08,46.08,0,0,1,12.66,3.6,1.55,1.55,0,0,0,2.05-.54,1.5,1.5,0,0,0-.54-2.05,48.67,48.67,0,0,0-13.37-3.9,1.56,1.56,0,0,0-1.85,1,1.51,1.51,0,0,0,1.05,1.85Z" transform="translate(-111.39 -139.92)"/><path class="cls-4" d="M520,240.69l-.08,0h.8l-.06,0,.66.39,0-.06.38.66-.52,1.23-.76.21h.1l-.76-.2c-.66-.3-.21-.71-.32-.38a3.94,3.94,0,0,0,0,.91V245l0,3.24,0,6.49a1.5,1.5,0,0,0,3,0l.06-10.77a8,8,0,0,0-.12-2.39,2,2,0,0,0-2.29-1.41c-2.1.58-1.29,4.21.82,3.4a1.54,1.54,0,0,0,1.05-1.85,1.52,1.52,0,0,0-1.85-1.05Z" transform="translate(-111.39 -139.92)"/><path class="cls-4" d="M520.47,273.18v11.17a1.5,1.5,0,0,0,3,0V273.18a1.5,1.5,0,0,0-3,0Z" transform="translate(-111.39 -139.92)"/><path class="cls-4" d="M519.35,304.44v7.81a1.5,1.5,0,0,0,3,0v-7.81a1.51,1.51,0,0,0-1.5-1.5,1.53,1.53,0,0,0-1.5,1.5Z" transform="translate(-111.39 -139.92)"/><path class="cls-4" d="M519.35,328.44v7.81a1.5,1.5,0,0,0,3,0v-7.81a1.51,1.51,0,0,0-1.5-1.5,1.53,1.53,0,0,0-1.5,1.5Z" transform="translate(-111.39 -139.92)"/><path class="cls-4" d="M518.24,355.79v8.37a1.5,1.5,0,1,0,3,0v-8.37a1.5,1.5,0,1,0-3,0Z" transform="translate(-111.39 -139.92)"/><path class="cls-4" d="M517.12,385.37v12.28a1.5,1.5,0,0,0,3,0V385.37a1.5,1.5,0,0,0-3,0Z" transform="translate(-111.39 -139.92)"/><path class="cls-4" d="M711.3,278.16l4.84-4.46a1.51,1.51,0,0,0,0-2.12,1.53,1.53,0,0,0-2.12,0L709.18,276a1.51,1.51,0,0,0,0,2.12,1.53,1.53,0,0,0,2.12,0Z" transform="translate(-111.39 -139.92)"/><path class="cls-4" d="M728.05,263.29l4.84-4.09a1.52,1.52,0,0,0,.44-1.06,1.5,1.5,0,0,0-.44-1.06,1.53,1.53,0,0,0-2.12,0l-4.84,4.09a1.52,1.52,0,0,0-.44,1.06,1.5,1.5,0,0,0,2.56,1.06Z" transform="translate(-111.39 -139.92)"/><path class="cls-4" d="M746,248.26l7.8-5.23a1.5,1.5,0,0,0-1.51-2.59l-7.8,5.23a1.5,1.5,0,1,0,1.51,2.59Z" transform="translate(-111.39 -139.92)"/><path class="cls-4" d="M764.22,235.62a50.39,50.39,0,0,0,8.55-4.84,1.5,1.5,0,1,0-1.51-2.59A51.17,51.17,0,0,1,762.7,233a1.51,1.51,0,0,0-.54,2.05,1.55,1.55,0,0,0,2.06.54Z" transform="translate(-111.39 -139.92)"/><path class="cls-4" d="M682.29,245.8a48,48,0,0,1,7.44-7.44,1.51,1.51,0,0,0,0-2.12,1.54,1.54,0,0,0-2.12,0,48,48,0,0,0-7.44,7.44,1.53,1.53,0,0,0,0,2.12,1.51,1.51,0,0,0,2.12,0Z" transform="translate(-111.39 -139.92)"/><path class="cls-4" d="M698.66,230.92a52.94,52.94,0,0,1,7.07-7.44,1.52,1.52,0,0,0,0-2.13,1.54,1.54,0,0,0-2.12,0,53.57,53.57,0,0,0-7.07,7.45,1.63,1.63,0,0,0-.44,1.06,1.5,1.5,0,0,0,2.56,1.06Z" transform="translate(-111.39 -139.92)"/><path class="cls-4" d="M716.89,213.06l6.33-6.7a1.5,1.5,0,1,0-2.12-2.12l-6.33,6.7a1.5,1.5,0,1,0,2.12,2.12Z" transform="translate(-111.39 -139.92)"/><path class="cls-4" d="M736.62,194.84l4.78-4.53a1.51,1.51,0,0,0,0-2.12,1.53,1.53,0,0,0-2.12,0l-4.78,4.53a1.5,1.5,0,1,0,2.12,2.12Z" transform="translate(-111.39 -139.92)"/><path class="cls-4" d="M750.38,181.8l3.35-3a1.52,1.52,0,0,0,.44-1.06,1.59,1.59,0,0,0-.44-1.07,1.51,1.51,0,0,0-1.06-.43,1.62,1.62,0,0,0-1.06.43l-3.35,3a1.52,1.52,0,0,0-.44,1.06,1.5,1.5,0,0,0,.44,1.06,1.46,1.46,0,0,0,1.06.44,1.63,1.63,0,0,0,1.06-.44Z" transform="translate(-111.39 -139.92)"/><path class="cls-4" d="M376.67,571.73c.46,0,.92,0,1.39.06l.69.07.37,0-.19,0,.21,0a20.79,20.79,0,0,1,2.71.6,1.52,1.52,0,0,0,1.85-1,1.54,1.54,0,0,0-1.05-1.85,22.42,22.42,0,0,0-6-.89,1.51,1.51,0,0,0-1.5,1.5,1.53,1.53,0,0,0,1.5,1.5Z" transform="translate(-111.39 -139.92)"/><path class="cls-4" d="M396.61,569.19l7.81-2.24a1.5,1.5,0,1,0-.8-2.89l-7.81,2.24a1.5,1.5,0,0,0,.8,2.89Z" transform="translate(-111.39 -139.92)"/><path class="cls-4" d="M421.26,554.55l3.07-2.52a1.48,1.48,0,0,0,.44-1.06,1.5,1.5,0,0,0-1.5-1.5l-.4.06a1.57,1.57,0,0,0-.66.38l-3.07,2.51a1.52,1.52,0,0,0-.44,1.07,1.58,1.58,0,0,0,.44,1.06,1.56,1.56,0,0,0,1.06.44l.4-.06a1.45,1.45,0,0,0,.66-.38Z" transform="translate(-111.39 -139.92)"/><path class="cls-4" d="M436,540.25l3.38-4.72a1.45,1.45,0,0,0,.15-1.15,1.5,1.5,0,0,0-1.84-1,1.71,1.71,0,0,0-.9.69l-3.38,4.72a1.45,1.45,0,0,0-.15,1.15,1.5,1.5,0,0,0,1.84,1.05,1.66,1.66,0,0,0,.9-.69Z" transform="translate(-111.39 -139.92)"/><path class="cls-4" d="M450.1,517.6a23.38,23.38,0,0,1,.91-3c.09-.23.18-.47.28-.69l.06-.13.13-.3c.23-.48.47-1,.72-1.42a1.5,1.5,0,1,0-2.59-1.52,25.61,25.61,0,0,0-2.4,6.21,1.5,1.5,0,1,0,2.89.8Z" transform="translate(-111.39 -139.92)"/><path class="cls-4" d="M456.81,500l1.12-3.07a1.5,1.5,0,0,0-.15-1.15,1.52,1.52,0,0,0-.9-.69,1.49,1.49,0,0,0-1.15.15,1.64,1.64,0,0,0-.69.9l-1.12,3.07a1.5,1.5,0,0,0,.15,1.15,1.52,1.52,0,0,0,.9.69,1.49,1.49,0,0,0,1.15-.15,1.64,1.64,0,0,0,.69-.9Z" transform="translate(-111.39 -139.92)"/><path class="cls-4" d="M550.76,495l1.11,2.79a1.14,1.14,0,0,0,.27.51,1.31,1.31,0,0,0,.42.39,1.52,1.52,0,0,0,1.16.15,1.5,1.5,0,0,0,.89-.69,1.48,1.48,0,0,0,.16-1.16l-1.12-2.79a1.26,1.26,0,0,0-.27-.51,1,1,0,0,0-.42-.38,1.52,1.52,0,0,0-1.16-.15,1.49,1.49,0,0,0-.89.68,1.44,1.44,0,0,0-.15,1.16Z" transform="translate(-111.39 -139.92)"/><path class="cls-4" d="M555.5,508.67l1.4,3.35a1,1,0,0,0,.26.51,1.08,1.08,0,0,0,.43.39,1.49,1.49,0,0,0,1.15.15,1.55,1.55,0,0,0,.9-.69,1.46,1.46,0,0,0,.15-1.15l-1.4-3.35a1,1,0,0,0-.26-.51,1.15,1.15,0,0,0-.43-.39,1.49,1.49,0,0,0-1.15-.15,1.55,1.55,0,0,0-.9.69,1.46,1.46,0,0,0-.15,1.15Z" transform="translate(-111.39 -139.92)"/><path class="cls-4" d="M566.26,530.24a28.32,28.32,0,0,0,2.79,4.47,1.66,1.66,0,0,0,.89.69,1.5,1.5,0,0,0,1.85-1,1.47,1.47,0,0,0-.15-1.16,28.23,28.23,0,0,1-2.79-4.46,1.5,1.5,0,1,0-2.59,1.51Z" transform="translate(-111.39 -139.92)"/><path class="cls-4" d="M586,546.17l4.46,3.91a1.56,1.56,0,0,0,1.06.44,1.5,1.5,0,0,0,1.06-.44,1.52,1.52,0,0,0,0-2.12l-4.46-3.91a1.61,1.61,0,0,0-1.06-.44,1.54,1.54,0,0,0-1.06.44,1.52,1.52,0,0,0,0,2.12Z" transform="translate(-111.39 -139.92)"/><path class="cls-4" d="M609.48,559.27l5.3,2.8a1.5,1.5,0,1,0,1.51-2.59l-5.3-2.8a1.5,1.5,0,0,0-1.51,2.59Z" transform="translate(-111.39 -139.92)"/><path class="cls-4" d="M636.92,567.49l5.86.84a1.67,1.67,0,0,0,1.16-.15,1.59,1.59,0,0,0,.69-.9,1.61,1.61,0,0,0-.15-1.16,1.51,1.51,0,0,0-.9-.69l-5.86-.83a1.67,1.67,0,0,0-1.16.15,1.53,1.53,0,0,0-.69.89,1.56,1.56,0,0,0,.15,1.16,1.45,1.45,0,0,0,.9.69Z" transform="translate(-111.39 -139.92)"/><path class="cls-4" d="M663.55,568.66a47.54,47.54,0,0,0,7.82-.28,1.54,1.54,0,0,0,1.5-1.5c0-.73-.67-1.6-1.5-1.5a47.54,47.54,0,0,1-7.82.28,1.52,1.52,0,0,0-1.5,1.5,1.54,1.54,0,0,0,1.5,1.5Z" transform="translate(-111.39 -139.92)"/><path class="cls-4" d="M363.15,570l1.4.56a1.22,1.22,0,0,0,.6,0,1.09,1.09,0,0,0,.55-.18,1.15,1.15,0,0,0,.43-.39,1,1,0,0,0,.26-.51l.06-.4a1.42,1.42,0,0,0-.21-.75l-.23-.31a1.57,1.57,0,0,0-.66-.38l-1.4-.56a1.22,1.22,0,0,0-.6,0,1.09,1.09,0,0,0-.55.18,1.08,1.08,0,0,0-.43.39,1,1,0,0,0-.26.51l-.06.4a1.42,1.42,0,0,0,.21.75l.23.31a1.57,1.57,0,0,0,.66.38Z" transform="translate(-111.39 -139.92)"/><path class="cls-1" d="M468.67,260.8c1.43.4.58,2.76-.26,3.39-1.91,1.42-3.47-1.78-3.54-3.23-.14-2.74,2.32-4.52,4.69-5.25a13,13,0,0,1,8.67.36c6.39,2.73,4.86,10.49.3,14.19a23.59,23.59,0,0,1-8.95,4.08,28.86,28.86,0,0,1-11.2,1.05c-5.74-.75-12-4.84-12.32-11.15-.31-5.93,4.57-10.44,9.33-13.1,5.59-3.13,12.31-4.49,18.66-4.72a42.43,42.43,0,0,1,19.28,3.66c11.09,5.17,19.51,16.34,19.95,28.77.49,13.62-9.14,25.33-19.5,33-21.69,16.11-54.32,21.7-77.43,5.39C406.23,310.12,399,299.06,398,286.56a37.77,37.77,0,0,1,2.83-17.95,35.46,35.46,0,0,1,11.79-14.32c5.33-3.91,11.36-6.76,17.38-9.42,6.61-2.92,13.22-5.86,19.93-8.54,13.92-5.57,28.47-9.72,43.6-8.42a111.54,111.54,0,0,1,22.63,4.75,194.22,194.22,0,0,1,20.66,7.46c12.47,5.4,24,12.59,33.45,22.47a94.44,94.44,0,0,1,25.9,66.77c-.75,28.48-15.45,54.55-33.39,75.83-9.46,11.23-20,21.51-30.64,31.57-9.84,9.29-19.9,18.49-27.94,29.45A80.58,80.58,0,0,0,494.63,483c-.74,1.78,2.16,2.56,2.89.8,5.62-13.53,15.62-24.59,26-34.7,11.09-10.83,22.63-21.16,33.19-32.53s20.45-23.85,28-37.59c7.28-13.26,12.47-27.75,14-42.84A93.58,93.58,0,0,0,594.29,297a98.33,98.33,0,0,0-19.78-34.29c-9.63-10.81-21.72-18.81-34.9-24.67a196.5,196.5,0,0,0-22.41-8.24,112.87,112.87,0,0,0-24.39-5c-16.26-1.25-31.89,3.68-46.73,9.83-7,2.91-14.07,5.93-21,9.12-6.32,2.92-12.54,6.26-17.75,10.93C397.05,264,393.12,278,395.67,291.43c2.52,13.23,11.61,24.28,23.1,30.95,12.94,7.52,28.35,9.11,42.92,6.48,14.73-2.66,29.12-9.44,40-19.75A49.31,49.31,0,0,0,514,291.67a32.06,32.06,0,0,0,1.22-20c-3.47-13.24-14.35-23.3-27.43-26.77a48.92,48.92,0,0,0-21.5-.64c-6.5,1.21-13,3.63-17.89,8.23-4.55,4.3-6.84,10.58-4.13,16.52,2.93,6.46,10.14,9.51,16.89,9.52a37,37,0,0,0,11.43-2,22.93,22.93,0,0,0,9-5c4.57-4.44,5.88-12.51.37-16.78-4.76-3.7-13.11-3.68-17.61.49a7.48,7.48,0,0,0-2.06,7.85c.84,2.47,3.06,4.62,5.83,4.3,4.49-.51,6.26-8.2,1.39-9.53a1.5,1.5,0,0,0-.8,2.89Z" transform="translate(-111.39 -139.92)"/><path class="cls-1" d="M518.85,454.8A42.28,42.28,0,0,1,549,457.85c1.72.87,3.24-1.71,1.52-2.59a45.57,45.57,0,0,0-32.45-3.36,1.51,1.51,0,0,0,.8,2.9Z" transform="translate(-111.39 -139.92)"/><path class="cls-1" d="M505.59,472a35.93,35.93,0,0,1,22.09,5,1.5,1.5,0,0,0,1.52-2.59A38.65,38.65,0,0,0,505.59,469c-1.9.19-1.92,3.19,0,3Z" transform="translate(-111.39 -139.92)"/><path class="cls-1" d="M468.07,500c26.76-5.5,53.37,7.38,78.28,15.35,25.19,8.07,51,14.61,77.36,17.28,24.95,2.53,51.2,1.72,75.3-5.79,19.7-6.14,38.63-18.36,43.65-39.6,1.48-6.26,1.93-12.72,2.38-19.12.48-6.74.87-13.5,1.1-20.25a298.65,298.65,0,0,0-1.2-42.3,208.36,208.36,0,0,0-16.49-61.7c-16.68-37.94-44.05-70.71-76.94-95.7a265.6,265.6,0,0,0-122.12-51.08c-47-6.86-96.13-1.27-139.33,19.06a210.55,210.55,0,0,0-92.33,85.44,191.87,191.87,0,0,0-22,58.37c-4.51,23.15-5,47.88,1.86,70.6,3.68,12.19,9.25,23.73,15.51,34.79a334,334,0,0,0,20.14,31.88c7.28,10,15.73,18.94,26,25.91,10,6.76,21,11.75,32.29,15.91,46.93,17.34,100.75,19.53,145.87-4.36A135.93,135.93,0,0,0,545,515.42c1.43-1.3-.7-3.42-2.13-2.12-36.61,33.17-88.61,41.88-136,32.62A223.13,223.13,0,0,1,370,535.31c-11.2-4.27-22.14-9.52-31.87-16.58-10.34-7.5-18.52-17.25-25.66-27.76a366,366,0,0,1-19.24-31.53c-5.92-10.95-11-22.4-14.11-34.48a134,134,0,0,1-3.52-38.65,179.12,179.12,0,0,1,13.25-59.75c15.65-38.54,43.86-71.92,78.73-94.49C406.36,207,453.07,196,499,197.42a263.89,263.89,0,0,1,127.49,37.4c35.07,21.12,65.44,50.51,86.52,85.69A213.71,213.71,0,0,1,736.52,376c6.4,24.37,7.54,49.59,6.52,74.66-.28,6.73-.69,13.46-1.19,20.18-.48,6.36-1.08,12.77-3,18.9-3.09,10.06-10,18.17-18.66,24-8.45,5.71-18.13,9.42-28,11.92a176.89,176.89,0,0,1-37.41,5.11c-26.06.91-52-3.15-77.24-9.5-12.52-3.16-24.88-6.89-37.13-10.95S516,501.58,503.39,498.6c-11.86-2.79-24.09-3.93-36.12-1.46-1.89.38-1.09,3.28.8,2.89Z" transform="translate(-111.39 -139.92)"/><text class="cls-2" transform="translate(391.62 426.91)">60°</text><text class="cls-2" transform="translate(393.15 287.51)">56°</text><text class="cls-2" transform="translate(6.48 58.89)">95%</text><text class="cls-2" transform="translate(693 55.68)">43°</text><text class="cls-3" transform="translate(734.35 51.72) scale(0.7)">AIR</text><text class="cls-3" transform="translate(187.43 15.82) scale(0.7)">SOLAR<tspan x="-29.82" y="25.86">RADIATION</tspan></text><text class="cls-2" transform="translate(575.26 420.91)">65°</text><text class="cls-2" transform="translate(206.26 420.91)">65°</text><path class="cls-4" d="M272.29,531.93q98.23-3.06,196.5-5.5,97.76-2.41,195.53-4.2,55.15-1,110.31-1.81a1.5,1.5,0,0,0,0-3q-98.28,1.44-196.55,3.51-97.77,2.05-195.52,4.76-55.14,1.51-110.27,3.24c-1.93.06-1.94,3.06,0,3Z" transform="translate(-111.39 -139.92)"/><path class="cls-4" d="M540.21,488.52a101.81,101.81,0,0,0,22.65-3,40.78,40.78,0,0,1-11.27-20,120,120,0,0,0-14.67,20.77" transform="translate(-111.39 -139.92)"/><path class="cls-4" d="M540.21,490a105.43,105.43,0,0,0,23-3,1.5,1.5,0,0,0,.66-2.5A39.88,39.88,0,0,1,553,465.1a1.5,1.5,0,0,0-2.5-.66,124,124,0,0,0-14.9,21.07,1.5,1.5,0,0,0,2.59,1.51,120.07,120.07,0,0,1,14.43-20.46l-2.51-.66a42.73,42.73,0,0,0,11.66,20.7l.66-2.51A101.17,101.17,0,0,1,540.21,487c-1.93,0-1.94,3,0,3Z" transform="translate(-111.39 -139.92)"/><path class="cls-4" d="M448.12,491.18a57.49,57.49,0,0,0,19-1.62c.6-.16,1.32-.45,1.39-1.07a1.73,1.73,0,0,0-.24-.87l-10.42-20.81a69.34,69.34,0,0,0-10.93,20.52" transform="translate(-111.39 -139.92)"/><path class="cls-4" d="M448.12,492.68a59,59,0,0,0,12.53-.35,60.47,60.47,0,0,0,6-1.1c1.46-.35,3.33-.92,3.4-2.74a5,5,0,0,0-.77-2.27l-1.41-2.82L465,477.76l-5.86-11.71a1.52,1.52,0,0,0-2.59,0,71.69,71.69,0,0,0-11.09,20.88c-.62,1.83,2.28,2.62,2.89.8a69.48,69.48,0,0,1,10.79-20.17h-2.59l9.76,19.52c.15.3.3.89.54,1.08s.17.29.17-.14l-.54.15c-.83.22-1.67.4-2.51.57-1.7.35-3.41.63-5.14.81a58.39,58.39,0,0,1-10.74.13c-1.93-.15-1.92,2.85,0,3Z" transform="translate(-111.39 -139.92)"/><path class="cls-4" d="M506.81,237.85a47.27,47.27,0,0,1,22.85-4.11q-3.61-13.28-7.44-26.48a75.62,75.62,0,0,0-17,29.46" transform="translate(-111.39 -139.92)"/><path class="cls-4" d="M507.56,239.14a46.35,46.35,0,0,1,22.1-3.9,1.52,1.52,0,0,0,1.45-1.9q-3.61-13.28-7.44-26.48a1.51,1.51,0,0,0-2.51-.66,78,78,0,0,0-17.36,30.12c-.57,1.85,2.33,2.64,2.89.8a74.66,74.66,0,0,1,16.59-28.8l-2.51-.66q3.83,13.2,7.45,26.47l1.44-1.89a49.54,49.54,0,0,0-23.61,4.31c-1.76.79-.24,3.38,1.51,2.59Z" transform="translate(-111.39 -139.92)"/><path class="cls-4" d="M814.2,227.4A38.29,38.29,0,0,0,799,218.18c-1.36-.44-15-2.3-15-3.67.46,8.09-.89,15.14,1.81,23.22A142.22,142.22,0,0,1,814.2,227.4Z" transform="translate(-111.39 -139.92)"/><path class="cls-4" d="M815.26,226.33c-4.85-4.76-11.23-8.82-18-10-2.5-.44-5-.86-7.49-1.39-1.12-.23-2.24-.48-3.33-.8l-.68-.21-.33-.12a2.35,2.35,0,0,1-.39-.21c.06-.16.47,1,.4.54-.29-1.66-3-1.28-2.95.4.42,8-.65,15.9,1.86,23.62a1.54,1.54,0,0,0,2.21.9,142.17,142.17,0,0,1,28.05-10.19c1.87-.46,1.08-3.36-.8-2.89A145.94,145.94,0,0,0,785,236.44l2.21.89c-2.43-7.45-1.36-15.14-1.76-22.82l-3,.4c.31,1.76,3.4,2.2,4.75,2.53,2.62.62,5.28,1.07,7.93,1.54a28.28,28.28,0,0,1,6.93,2,37.25,37.25,0,0,1,11,7.49C814.52,229.81,816.64,227.69,815.26,226.33Z" transform="translate(-111.39 -139.92)"/><path class="cls-4" d="M750.1,170.24l21,13a294.44,294.44,0,0,1,12.62-27.88A86.94,86.94,0,0,0,752,167.61" transform="translate(-111.39 -139.92)"/><path class="cls-4" d="M749.35,171.54l21,13a1.52,1.52,0,0,0,2.21-.89,295.66,295.66,0,0,1,12.46-27.52,1.52,1.52,0,0,0-1.69-2.2,88.73,88.73,0,0,0-32.13,12.43c-1.62,1-.12,3.63,1.52,2.59a86.58,86.58,0,0,1,31.41-12.13l-1.7-2.2A303.23,303.23,0,0,0,769.7,182.8l2.21-.9-21-13c-1.65-1-3.16,1.57-1.51,2.59Z" transform="translate(-111.39 -139.92)"/><path class="cls-4" d="M172.07,284.06c-.37-.13.31-.68.36-.29a86.45,86.45,0,0,1,.37,16.56,66.34,66.34,0,0,0-30.44.7,142.51,142.51,0,0,1,30.44-19.52" transform="translate(-111.39 -139.92)"/><path class="cls-4" d="M173.13,283l-.11-.09.39,1.45-1,.78-1.29-.74c-.2-.35,0,.21,0,.34,0,.32.07.64.1,1,.07.72.13,1.45.18,2.18.1,1.38.16,2.77.19,4.15.06,2.76,0,5.53-.21,8.29l1.9-1.45a68.83,68.83,0,0,0-31.24.7l1.46,2.51a142.46,142.46,0,0,1,30.14-19.28c1.74-.83.22-3.42-1.51-2.6A146.09,146.09,0,0,0,141.3,300c-1.2,1,.1,2.86,1.46,2.51a65.51,65.51,0,0,1,29.64-.7,1.52,1.52,0,0,0,1.9-1.44,88.28,88.28,0,0,0-.05-13.41c-.12-1.42.19-4.68-1.89-4.78a1.76,1.76,0,0,0-1.35,3c1.44,1.27,3.57-.84,2.12-2.12Z" transform="translate(-111.39 -139.92)"/><path class="cls-4" d="M233.41,227l6.69,2.82a1.49,1.49,0,0,0,1.15-.15,1.55,1.55,0,0,0,.69-.9,1.52,1.52,0,0,0-.15-1.16,1.77,1.77,0,0,0-.9-.69l-6.68-2.81a1.48,1.48,0,0,0-1.16.15,1.53,1.53,0,0,0-.69.89,1.56,1.56,0,0,0,.15,1.16,1.82,1.82,0,0,0,.9.69Z" transform="translate(-111.39 -139.92)"/><path class="cls-4" d="M259.09,238.09l6.69,2.27a1.51,1.51,0,0,0,1.84-1.05,1.53,1.53,0,0,0-1-1.84l-6.69-2.27a1.51,1.51,0,0,0-1.84,1.05,1.53,1.53,0,0,0,1,1.84Z" transform="translate(-111.39 -139.92)"/><path class="cls-4" d="M279.35,249.76a59.25,59.25,0,0,0,9.85,5.17,1.51,1.51,0,0,0,1.85-1.05A1.55,1.55,0,0,0,290,252a57,57,0,0,1-9.13-4.87,1.5,1.5,0,0,0-2.05.54,1.53,1.53,0,0,0,.53,2Z" transform="translate(-111.39 -139.92)"/><path class="cls-4" d="M302,254.43a37.88,37.88,0,0,1-2.79-4.5,33.09,33.09,0,0,1-2-4.67,1.52,1.52,0,0,0-1.84-1,1.5,1.5,0,0,0-1.05,1.84,38,38,0,0,0,5.11,9.88,1.55,1.55,0,0,0,2.06.54,1.51,1.51,0,0,0,.53-2.05Z" transform="translate(-111.39 -139.92)"/><path class="cls-4" d="M287.25,226.7c-2.43-3.53-4.73-7.15-6.87-10.86a1.5,1.5,0,1,0-2.59,1.52c2.14,3.7,4.44,7.33,6.86,10.86a1.55,1.55,0,0,0,2.06.54,1.53,1.53,0,0,0,.54-2.06Z" transform="translate(-111.39 -139.92)"/><path class="cls-4" d="M268.09,191.28l-3.95-6.67a1.52,1.52,0,0,0-2.05-.54,1.54,1.54,0,0,0-.54,2.06l3.95,6.67a1.5,1.5,0,1,0,2.59-1.52Z" transform="translate(-111.39 -139.92)"/><path class="cls-4" d="M257,172.84l-2.84-4.43a1.5,1.5,0,0,0-2.59,1.51l2.84,4.43a1.54,1.54,0,0,0,2.06.54,1.51,1.51,0,0,0,.53-2Z" transform="translate(-111.39 -139.92)"/><path class="cls-4" d="M181.88,296.29l4.46.56a1.5,1.5,0,0,0,1.06-.44,1.52,1.52,0,0,0,.44-1.06,1.46,1.46,0,0,0-.44-1.06l-.3-.24a1.54,1.54,0,0,0-.76-.2l-4.46-.56a1.46,1.46,0,0,0-1.06.44,1.5,1.5,0,0,0,0,2.12l.3.23a1.48,1.48,0,0,0,.76.21Z" transform="translate(-111.39 -139.92)"/><path class="cls-4" d="M202,298.52a30.2,30.2,0,0,1,8.53.51,1.55,1.55,0,0,0,1.85-1,1.53,1.53,0,0,0-1-1.85,33.6,33.6,0,0,0-9.33-.61,1.5,1.5,0,0,0,0,3Z" transform="translate(-111.39 -139.92)"/><path class="cls-4" d="M226.53,303a29.82,29.82,0,0,1,4.12,0c.68,0,1.35.1,2,.19l.24,0,.48.08,1.11.21a1.5,1.5,0,1,0,.8-2.89,31.87,31.87,0,0,0-8.77-.61,1.5,1.5,0,1,0,0,3Z" transform="translate(-111.39 -139.92)"/><path class="cls-4" d="M254.6,306.84l4.46,1.12a1.5,1.5,0,1,0,.8-2.9L255.39,304a1.5,1.5,0,1,0-.79,2.89Z" transform="translate(-111.39 -139.92)"/><path class="cls-4" d="M278.58,311.36l2.23.56a1.61,1.61,0,0,0,1.16-.15,1.52,1.52,0,0,0,.69-.9,1.5,1.5,0,0,0-1.05-1.84l-2.23-.56a1.5,1.5,0,0,0-.8,2.89Z" transform="translate(-111.39 -139.92)"/><path class="cls-4" d="M177,205.63a49.68,49.68,0,0,1,8.19,2.6,1.5,1.5,0,0,0,1.85-1,1.55,1.55,0,0,0-1.05-1.85,48.13,48.13,0,0,0-8.19-2.6,1.5,1.5,0,0,0-.8,2.89Z" transform="translate(-111.39 -139.92)"/><path class="cls-4" d="M199.34,212.31a46.08,46.08,0,0,1,12.66,3.6,1.55,1.55,0,0,0,2.05-.54,1.5,1.5,0,0,0-.54-2.05,48.67,48.67,0,0,0-13.37-3.9,1.56,1.56,0,0,0-1.85,1,1.51,1.51,0,0,0,1.05,1.85Z" transform="translate(-111.39 -139.92)"/><path class="cls-4" d="M520,240.69l-.08,0h.8l-.06,0,.66.39,0-.06.38.66-.52,1.23-.76.21h.1l-.76-.2c-.66-.3-.21-.71-.32-.38a3.94,3.94,0,0,0,0,.91V245l0,3.24,0,6.49a1.5,1.5,0,0,0,3,0l.06-10.77a8,8,0,0,0-.12-2.39,2,2,0,0,0-2.29-1.41c-2.1.58-1.29,4.21.82,3.4a1.54,1.54,0,0,0,1.05-1.85,1.52,1.52,0,0,0-1.85-1.05Z" transform="translate(-111.39 -139.92)"/><path class="cls-4" d="M520.47,273.18v11.17a1.5,1.5,0,0,0,3,0V273.18a1.5,1.5,0,0,0-3,0Z" transform="translate(-111.39 -139.92)"/><path class="cls-4" d="M519.35,304.44v7.81a1.5,1.5,0,0,0,3,0v-7.81a1.51,1.51,0,0,0-1.5-1.5,1.53,1.53,0,0,0-1.5,1.5Z" transform="translate(-111.39 -139.92)"/><path class="cls-4" d="M519.35,328.44v7.81a1.5,1.5,0,0,0,3,0v-7.81a1.51,1.51,0,0,0-1.5-1.5,1.53,1.53,0,0,0-1.5,1.5Z" transform="translate(-111.39 -139.92)"/><path class="cls-4" d="M518.24,355.79v8.37a1.5,1.5,0,1,0,3,0v-8.37a1.5,1.5,0,1,0-3,0Z" transform="translate(-111.39 -139.92)"/><path class="cls-4" d="M517.12,385.37v12.28a1.5,1.5,0,0,0,3,0V385.37a1.5,1.5,0,0,0-3,0Z" transform="translate(-111.39 -139.92)"/><path class="cls-4" d="M711.3,278.16l4.84-4.46a1.51,1.51,0,0,0,0-2.12,1.53,1.53,0,0,0-2.12,0L709.18,276a1.51,1.51,0,0,0,0,2.12,1.53,1.53,0,0,0,2.12,0Z" transform="translate(-111.39 -139.92)"/><path class="cls-4" d="M728.05,263.29l4.84-4.09a1.52,1.52,0,0,0,.44-1.06,1.5,1.5,0,0,0-.44-1.06,1.53,1.53,0,0,0-2.12,0l-4.84,4.09a1.52,1.52,0,0,0-.44,1.06,1.5,1.5,0,0,0,2.56,1.06Z" transform="translate(-111.39 -139.92)"/><path class="cls-4" d="M746,248.26l7.8-5.23a1.5,1.5,0,0,0-1.51-2.59l-7.8,5.23a1.5,1.5,0,1,0,1.51,2.59Z" transform="translate(-111.39 -139.92)"/><path class="cls-4" d="M764.22,235.62a50.39,50.39,0,0,0,8.55-4.84,1.5,1.5,0,1,0-1.51-2.59A51.17,51.17,0,0,1,762.7,233a1.51,1.51,0,0,0-.54,2.05,1.55,1.55,0,0,0,2.06.54Z" transform="translate(-111.39 -139.92)"/><path class="cls-4" d="M682.29,245.8a48,48,0,0,1,7.44-7.44,1.51,1.51,0,0,0,0-2.12,1.54,1.54,0,0,0-2.12,0,48,48,0,0,0-7.44,7.44,1.53,1.53,0,0,0,0,2.12,1.51,1.51,0,0,0,2.12,0Z" transform="translate(-111.39 -139.92)"/><path class="cls-4" d="M698.66,230.92a52.94,52.94,0,0,1,7.07-7.44,1.52,1.52,0,0,0,0-2.13,1.54,1.54,0,0,0-2.12,0,53.57,53.57,0,0,0-7.07,7.45,1.63,1.63,0,0,0-.44,1.06,1.5,1.5,0,0,0,2.56,1.06Z" transform="translate(-111.39 -139.92)"/><path class="cls-4" d="M716.89,213.06l6.33-6.7a1.5,1.5,0,1,0-2.12-2.12l-6.33,6.7a1.5,1.5,0,1,0,2.12,2.12Z" transform="translate(-111.39 -139.92)"/><path class="cls-4" d="M736.62,194.84l4.78-4.53a1.51,1.51,0,0,0,0-2.12,1.53,1.53,0,0,0-2.12,0l-4.78,4.53a1.5,1.5,0,1,0,2.12,2.12Z" transform="translate(-111.39 -139.92)"/><path class="cls-4" d="M750.38,181.8l3.35-3a1.52,1.52,0,0,0,.44-1.06,1.59,1.59,0,0,0-.44-1.07,1.51,1.51,0,0,0-1.06-.43,1.62,1.62,0,0,0-1.06.43l-3.35,3a1.52,1.52,0,0,0-.44,1.06,1.5,1.5,0,0,0,.44,1.06,1.46,1.46,0,0,0,1.06.44,1.63,1.63,0,0,0,1.06-.44Z" transform="translate(-111.39 -139.92)"/><path class="cls-4" d="M376.67,571.73c.46,0,.92,0,1.39.06l.69.07.37,0-.19,0,.21,0a20.79,20.79,0,0,1,2.71.6,1.52,1.52,0,0,0,1.85-1,1.54,1.54,0,0,0-1.05-1.85,22.42,22.42,0,0,0-6-.89,1.51,1.51,0,0,0-1.5,1.5,1.53,1.53,0,0,0,1.5,1.5Z" transform="translate(-111.39 -139.92)"/><path class="cls-4" d="M396.61,569.19l7.81-2.24a1.5,1.5,0,1,0-.8-2.89l-7.81,2.24a1.5,1.5,0,0,0,.8,2.89Z" transform="translate(-111.39 -139.92)"/><path class="cls-4" d="M421.26,554.55l3.07-2.52a1.48,1.48,0,0,0,.44-1.06,1.5,1.5,0,0,0-1.5-1.5l-.4.06a1.57,1.57,0,0,0-.66.38l-3.07,2.51a1.52,1.52,0,0,0-.44,1.07,1.58,1.58,0,0,0,.44,1.06,1.56,1.56,0,0,0,1.06.44l.4-.06a1.45,1.45,0,0,0,.66-.38Z" transform="translate(-111.39 -139.92)"/><path class="cls-4" d="M436,540.25l3.38-4.72a1.45,1.45,0,0,0,.15-1.15,1.5,1.5,0,0,0-1.84-1,1.71,1.71,0,0,0-.9.69l-3.38,4.72a1.45,1.45,0,0,0-.15,1.15,1.5,1.5,0,0,0,1.84,1.05,1.66,1.66,0,0,0,.9-.69Z" transform="translate(-111.39 -139.92)"/><path class="cls-4" d="M450.1,517.6a23.38,23.38,0,0,1,.91-3c.09-.23.18-.47.28-.69l.06-.13.13-.3c.23-.48.47-1,.72-1.42a1.5,1.5,0,1,0-2.59-1.52,25.61,25.61,0,0,0-2.4,6.21,1.5,1.5,0,1,0,2.89.8Z" transform="translate(-111.39 -139.92)"/><path class="cls-4" d="M456.81,500l1.12-3.07a1.5,1.5,0,0,0-.15-1.15,1.52,1.52,0,0,0-.9-.69,1.49,1.49,0,0,0-1.15.15,1.64,1.64,0,0,0-.69.9l-1.12,3.07a1.5,1.5,0,0,0,.15,1.15,1.52,1.52,0,0,0,.9.69,1.49,1.49,0,0,0,1.15-.15,1.64,1.64,0,0,0,.69-.9Z" transform="translate(-111.39 -139.92)"/><path class="cls-4" d="M550.76,495l1.11,2.79a1.14,1.14,0,0,0,.27.51,1.31,1.31,0,0,0,.42.39,1.52,1.52,0,0,0,1.16.15,1.5,1.5,0,0,0,.89-.69,1.48,1.48,0,0,0,.16-1.16l-1.12-2.79a1.26,1.26,0,0,0-.27-.51,1,1,0,0,0-.42-.38,1.52,1.52,0,0,0-1.16-.15,1.49,1.49,0,0,0-.89.68,1.44,1.44,0,0,0-.15,1.16Z" transform="translate(-111.39 -139.92)"/><path class="cls-4" d="M555.5,508.67l1.4,3.35a1,1,0,0,0,.26.51,1.08,1.08,0,0,0,.43.39,1.49,1.49,0,0,0,1.15.15,1.55,1.55,0,0,0,.9-.69,1.46,1.46,0,0,0,.15-1.15l-1.4-3.35a1,1,0,0,0-.26-.51,1.15,1.15,0,0,0-.43-.39,1.49,1.49,0,0,0-1.15-.15,1.55,1.55,0,0,0-.9.69,1.46,1.46,0,0,0-.15,1.15Z" transform="translate(-111.39 -139.92)"/><path class="cls-4" d="M566.26,530.24a28.32,28.32,0,0,0,2.79,4.47,1.66,1.66,0,0,0,.89.69,1.5,1.5,0,0,0,1.85-1,1.47,1.47,0,0,0-.15-1.16,28.23,28.23,0,0,1-2.79-4.46,1.5,1.5,0,1,0-2.59,1.51Z" transform="translate(-111.39 -139.92)"/><path class="cls-4" d="M586,546.17l4.46,3.91a1.56,1.56,0,0,0,1.06.44,1.5,1.5,0,0,0,1.06-.44,1.52,1.52,0,0,0,0-2.12l-4.46-3.91a1.61,1.61,0,0,0-1.06-.44,1.54,1.54,0,0,0-1.06.44,1.52,1.52,0,0,0,0,2.12Z" transform="translate(-111.39 -139.92)"/><path class="cls-4" d="M609.48,559.27l5.3,2.8a1.5,1.5,0,1,0,1.51-2.59l-5.3-2.8a1.5,1.5,0,0,0-1.51,2.59Z" transform="translate(-111.39 -139.92)"/><path class="cls-4" d="M636.92,567.49l5.86.84a1.67,1.67,0,0,0,1.16-.15,1.59,1.59,0,0,0,.69-.9,1.61,1.61,0,0,0-.15-1.16,1.51,1.51,0,0,0-.9-.69l-5.86-.83a1.67,1.67,0,0,0-1.16.15,1.53,1.53,0,0,0-.69.89,1.56,1.56,0,0,0,.15,1.16,1.45,1.45,0,0,0,.9.69Z" transform="translate(-111.39 -139.92)"/><path class="cls-4" d="M663.55,568.66a47.54,47.54,0,0,0,7.82-.28,1.54,1.54,0,0,0,1.5-1.5c0-.73-.67-1.6-1.5-1.5a47.54,47.54,0,0,1-7.82.28,1.52,1.52,0,0,0-1.5,1.5,1.54,1.54,0,0,0,1.5,1.5Z" transform="translate(-111.39 -139.92)"/><path class="cls-4" d="M363.15,570l1.4.56a1.22,1.22,0,0,0,.6,0,1.09,1.09,0,0,0,.55-.18,1.15,1.15,0,0,0,.43-.39,1,1,0,0,0,.26-.51l.06-.4a1.42,1.42,0,0,0-.21-.75l-.23-.31a1.57,1.57,0,0,0-.66-.38l-1.4-.56a1.22,1.22,0,0,0-.6,0,1.09,1.09,0,0,0-.55.18,1.08,1.08,0,0,0-.43.39,1,1,0,0,0-.26.51l-.06.4a1.42,1.42,0,0,0,.21.75l.23.31a1.57,1.57,0,0,0,.66.38Z" transform="translate(-111.39 -139.92)"/></svg>