<svg id="Layer_3" data-name="Layer 3" xmlns="http://www.w3.org/2000/svg" viewBox="0 0 694.4 568.58"><defs><style>.cls-1{fill:#fff;}.cls-2{fill:#ed1e79;}</style></defs><path class="cls-1" d="M590,389.41a9.58,9.58,0,0,0-3.93,8.53,8.45,8.45,0,0,0,5.89,7.11,7.35,7.35,0,0,0,8.29-3,6.8,6.8,0,0,0-.37-8.44c-2.14-2.33-6.16-3.09-8.77-1.13a1.56,1.56,0,0,0-.54,2.06,1.51,1.51,0,0,0,2,.53,3.1,3.1,0,0,1,1.09-.57c.08,0,.66-.14.43-.11a4.82,4.82,0,0,1,.93,0s.29,0,.07,0l.31.06a6.45,6.45,0,0,1,.75.22l.08,0a5.85,5.85,0,0,1,.7.38s.37.26.21.13A3.58,3.58,0,0,1,598,400a4.32,4.32,0,0,1-4.66,2.32,5.45,5.45,0,0,1-4.2-3.95,6.47,6.47,0,0,1,2.35-6.36,1.54,1.54,0,0,0,.54-2.05,1.51,1.51,0,0,0-2-.54Z" transform="translate(-153.14 -75.71)"/><path class="cls-1" d="M608.2,361.16a34.31,34.31,0,0,0,10.32,4.25c3.63,1,7.26,1.9,10.84,3a82.81,82.81,0,0,1,19.78,9.08,55.16,55.16,0,0,1,9.61,7.89c1.34,1.4,3.46-.73,2.12-2.12-10.38-10.76-24.65-16.4-38.86-20.09-4.27-1.1-8.58-2.17-12.3-4.65-1.61-1.07-3.12,1.53-1.51,2.59Z" transform="translate(-153.14 -75.71)"/><path class="cls-1" d="M629.36,364.62a.79.79,0,0,1-.06-.22l0,.19a1.48,1.48,0,0,1,0-.21l0,.19.06-.2-.07.17c0-.05.14-.23.17-.28-.2.3,0,0,.06,0,.2-.23-.2.1.05-.05l.3-.17c-.3.17,0,0,.07,0a.9.9,0,0,1,.22-.06l-.17,0a1,1,0,0,1,.34,0c-.21,0-.23,0-.05,0l.12,0,.36.11c-.32-.12,0,0,.09.06l.31.19c.28.18-.13-.14.09.08l.33.3.26.28s.27.34.17.2.12.18.15.22l.21.32c.29.45.54.92.81,1.38a9.43,9.43,0,0,0,2.15,2.78,1.54,1.54,0,0,0,2.12,0,1.52,1.52,0,0,0,0-2.12,6.66,6.66,0,0,1-.76-.74c-.29-.32.15.23-.1-.12l-.3-.44c-.34-.53-.64-1.09-1-1.64a8.81,8.81,0,0,0-2.81-3.19,4.19,4.19,0,0,0-4.32-.15,3.46,3.46,0,0,0-1.74,3.92,1.53,1.53,0,0,0,1.85,1,1.51,1.51,0,0,0,1.05-1.84Z" transform="translate(-153.14 -75.71)"/><path class="cls-1" d="M590,404.56a41.86,41.86,0,0,0,32.81,14.1l-1.3-.75c4,6.75,11.68,10,18.55,12.94a143,143,0,0,0,25.06,8.31c3.12.69,7.36.61,8.54-3a1.49,1.49,0,0,0-.39-1.46,43,43,0,0,1-12.76-20.33,1.51,1.51,0,0,0-2.9.8,46,46,0,0,0,13.54,21.65l-.39-1.46c-.43,1.34-2.46,1.23-3.57,1.13a38.58,38.58,0,0,1-6.43-1.54c-4.84-1.34-9.62-2.91-14.3-4.71a113.78,113.78,0,0,1-13.12-5.82c-3.65-2-7.1-4.38-9.23-8a1.49,1.49,0,0,0-1.3-.74,38.93,38.93,0,0,1-30.69-13.22c-1.27-1.45-3.39.68-2.12,2.12Z" transform="translate(-153.14 -75.71)"/><path class="cls-1" d="M661.27,407.82c0-1.12-.09-3.44,1.35-3.88,1.17-.35,2.1,1.8,2.43,2.66,1,2.75.36,5.27-1.1,7.69a5.36,5.36,0,0,0-1,4c.35,1.45,1.52,2.46,2.55,3.45,2.62,2.54,5.24,5.09,7.87,7.61.93.88,2,1.8,3.36,1.49s2.33-1.89,2.92-3.07a18.05,18.05,0,0,0,1.6-8.36c-.07-5.56-.43-11.67-4.61-15.79-4-3.94-9.69-5.57-13.6-9.62-1.34-1.39-3.46.74-2.12,2.12,3.45,3.57,8.15,5.31,12,8.27a11.43,11.43,0,0,1,4.2,5.54,32.67,32.67,0,0,1,1.08,8.87c.07,2.76-.09,5.7-1.55,8.13-.12.19-.32.65-.53.77s.31.26-.31-.13a13.91,13.91,0,0,1-1.79-1.73l-3.93-3.8c-1.16-1.12-2.37-2.21-3.49-3.37-.48-.49-.91-.92-.72-1.64a8.78,8.78,0,0,1,1.11-2,10.9,10.9,0,0,0,1.28-7.76c-.5-2.57-2.38-6.37-5.45-6.34-3.68,0-4.57,4-4.61,6.94a1.5,1.5,0,0,0,3,0Z" transform="translate(-153.14 -75.71)"/><path class="cls-1" d="M680.41,423.24c2.83-.16,4,4.11,5.73,5.69a3.37,3.37,0,0,0,4.24.24c1.37-.85,2.22-1.82,3.72-.53,1.32,1.14,1.74,3,2.4,4.54a10.35,10.35,0,0,0,3.26,4.23,37.84,37.84,0,0,1,4.1,3.12,16.94,16.94,0,0,1,2.42,3.52c1.63,2.86,3.29,5.8,6.62,6.86a1.5,1.5,0,0,0,1.84-1c1.68-8.27-5.35-15.45-10.89-20.57-6.1-5.64-13-10.27-19.94-14.85-1.61-1.07-3.11,1.52-1.51,2.59,6.33,4.2,12.69,8.42,18.36,13.5a55.8,55.8,0,0,1,7.79,8.25c2.16,2.93,4.06,6.53,3.3,10.28L713.7,448c-2.7-.86-3.92-3.94-5.24-6.19a16.6,16.6,0,0,0-2.73-3.67c-1.3-1.24-2.91-2.09-4.3-3.22-2.84-2.33-2.72-6.48-5.63-8.76a4.9,4.9,0,0,0-4.65-1,8.5,8.5,0,0,0-1.88,1.12c-.67.46-.88.71-1.44,0-2.09-2.49-3.54-6.31-7.42-6.1-1.92.11-1.93,3.11,0,3Z" transform="translate(-153.14 -75.71)"/><path class="cls-1" d="M682.3,425.9l-1.12,5a1.5,1.5,0,0,0,2.9.8l1.11-5a1.5,1.5,0,1,0-2.89-.8Z" transform="translate(-153.14 -75.71)"/><path class="cls-1" d="M670.73,437.61a29.62,29.62,0,0,1,8.78,10.25,7.68,7.68,0,0,1,1.13,2.82c0,.8-1,.7-1.59.62a6.58,6.58,0,0,1-4.43-3.51c-1.34-2.44-1.48-5.37-1.6-8.1-.08-1.92-3.08-1.93-3,0,.14,3.21.4,6.51,1.9,9.4a9.58,9.58,0,0,0,6.26,5.08,5.19,5.19,0,0,0,4-.57,3.69,3.69,0,0,0,1.26-4.05,16.34,16.34,0,0,0-1.76-3.91,30.55,30.55,0,0,0-2.4-3.68,33.52,33.52,0,0,0-7.08-6.94,1.5,1.5,0,0,0-2,.53,1.54,1.54,0,0,0,.54,2.06Z" transform="translate(-153.14 -75.71)"/><path class="cls-1" d="M644.2,435l5,9.5,2.5,4.75c.68,1.3,1.29,2.78,2.55,3.65a7.91,7.91,0,0,0,3.94,1,14.46,14.46,0,0,1,4.33.84c1.83.75,4.09,3.42,2.16,5.26a1.52,1.52,0,0,0,.66,2.51l10,2.59,4.79,1.24a23.74,23.74,0,0,1,3.87,1.11c.89.4,1.85,1.09,1.6,2.2a3.22,3.22,0,0,1-2.58,2.23c-2.92.5-6.18-1.57-8.72-2.75-10.47-4.84-21.22-10.66-27.81-20.48a29.82,29.82,0,0,1-5.44-17.36c0-1.93-3-1.93-3,0-.36,13.44,8.67,24.74,19.26,32a117.87,117.87,0,0,0,18,9.63c3,1.35,6.57,2.95,9.8,1.41,2.51-1.19,4.35-4.23,3-6.93-1.55-3.21-6.16-3.65-9.19-4.43l-12.92-3.33.66,2.5c2-1.93,1.94-5.13.43-7.36-1.84-2.72-5.16-3.47-8.23-3.79-1.63-.17-3,0-3.85-1.6s-1.79-3.39-2.68-5.09l-5.68-10.79c-.9-1.71-3.49-.2-2.59,1.51Z" transform="translate(-153.14 -75.71)"/><path class="cls-1" d="M649.44,376.29c11.88-6.85,23.8-13.66,36.27-19.39a163.91,163.91,0,0,1,38.77-12.55c13.94-2.56,28.12-3.92,41.54-8.69,13.11-4.66,25.32-11.55,37.52-18.16q21.76-11.79,43.26-24.09a1.5,1.5,0,0,0-1.51-2.6q-19.15,11-38.53,21.52c-12.3,6.71-24.58,13.81-37.63,19a118.48,118.48,0,0,1-20.22,5.88c-7,1.39-14,2.36-21,3.54a164.14,164.14,0,0,0-20.44,4.62,175.09,175.09,0,0,0-18.68,6.92c-14.13,6.11-27.53,13.75-40.84,21.44a1.5,1.5,0,0,0,1.51,2.59Z" transform="translate(-153.14 -75.71)"/><path class="cls-1" d="M606.33,359.44c5.6-3.2,9.95-8.22,15.73-11.14a14.76,14.76,0,0,1,9.31-1.73c3.15.63,5.75,2.72,8.25,4.62q17.83,13.5,35.66,27l20.21,15.3a1.5,1.5,0,0,0,2.2-.9c.76-4.12-1.64-7.5-4.05-10.61a99,99,0,0,0-7.84-8.92,151.1,151.1,0,0,0-18-15.27c-6.44-4.75-13.12-9.16-19.81-13.54s-13.54-8.34-21.79-7.43c-8.65,1-16.41,5.72-25.11,6.35-1.91.15-1.93,3.15,0,3,7.38-.54,14-3.84,21.14-5.6a23.6,23.6,0,0,1,10.7-.48,33.3,33.3,0,0,1,10.44,4.74c6.42,4,12.73,8.28,18.92,12.66A171.76,171.76,0,0,1,680,371.64a109.07,109.07,0,0,1,8.82,9.17c1.34,1.58,2.67,3.19,3.85,4.89s2.52,3.87,2.11,6.11l2.21-.9L660.16,363l-18.63-14.1c-2.63-2-5.31-4.12-8.56-5a15.86,15.86,0,0,0-9.34.52c-7.29,2.55-12.24,8.7-18.81,12.46a1.5,1.5,0,0,0,1.51,2.59Z" transform="translate(-153.14 -75.71)"/><path class="cls-1" d="M692.89,382.24a257.74,257.74,0,0,0,30.23,3.31c9.11.45,18.68.71,27.38-2.45,2.4-.87,4.63-2.07,6.94-3.15s4.81-2,7.36-1.28a1.5,1.5,0,0,0,.8-2.89c-4.46-1.21-8.55,1-12.45,2.94a39.71,39.71,0,0,1-13.3,3.69c-9.54,1-19.39.18-28.9-.75q-8.67-.86-17.26-2.31c-1.89-.32-2.7,2.57-.8,2.89Z" transform="translate(-153.14 -75.71)"/><path class="cls-1" d="M756.12,384.09a31,31,0,0,1,16,1.15c1.83.63,2.62-2.27.8-2.89a34.07,34.07,0,0,0-17.6-1.15c-1.89.37-1.09,3.26.8,2.89Z" transform="translate(-153.14 -75.71)"/><path class="cls-1" d="M602.43,354.25a24.64,24.64,0,0,0-3-18.44,35.27,35.27,0,0,0-14.14-12.91,74.86,74.86,0,0,0-19.48-6.63,141.19,141.19,0,0,0-22.34-2.76c-8.67-.42-17.35-.23-26,.11-1.93.08-1.94,3.08,0,3,14.38-.57,28.93-.76,43.16,1.7,12.22,2.11,26.4,5.88,34.33,16.2,4.1,5.32,6.32,12.3,4.63,18.94-.48,1.87,2.41,2.67,2.89.79Z" transform="translate(-153.14 -75.71)"/><path class="cls-1" d="M590.72,326c13.85-9.4,28.49-18.59,45-22.48a66,66,0,0,1,14.06-1.77v-3a57,57,0,0,0-44,23.05c-2.57,3.52-5.07,8-9.53,9.27-1.84.54-1.06,3.44.8,2.89,3.93-1.16,6.62-4.18,9-7.38a74.79,74.79,0,0,1,7.93-9.65,54.11,54.11,0,0,1,21.74-12.86,52.21,52.21,0,0,1,14-2.32c1.93-.05,1.94-3,0-3-17.36.29-33.49,7.65-48.06,16.55-4.23,2.59-8.38,5.32-12.48,8.11-1.59,1.08-.09,3.68,1.51,2.59Z" transform="translate(-153.14 -75.71)"/><path class="cls-1" d="M518.54,313.51c-3.13-.24-3.36-4.53-2.48-6.7,1.4-3.47,4.48-5.94,6.27-9.18,1.52-2.75,2.83-7.7-.57-9.69-1.56-.92-3.66-1.08-5.42-1.32a43.93,43.93,0,0,0-20,1.83c-1.83.6-1,3.5.8,2.89a41.53,41.53,0,0,1,18.36-1.83c1,.12,2,.29,3,.5.75.15,1.81.24,2.22,1,.8,1.41-.16,3.69-.83,4.95a32.16,32.16,0,0,1-3.31,4.65c-2.07,2.62-4.28,5.74-4,9.27.29,3.33,2.47,6.39,6,6.66,1.92.15,1.91-2.85,0-3Z" transform="translate(-153.14 -75.71)"/><path class="cls-1" d="M307.48,312.78A28.6,28.6,0,0,0,303,324.69a27.53,27.53,0,0,0,1.75,12,42.27,42.27,0,0,0,6.25,12,67.7,67.7,0,0,0,9.45,9.7,202.26,202.26,0,0,0,46,30.05,205.35,205.35,0,0,0,29,11.15c1.85.55,2.64-2.34.79-2.9A200.22,200.22,0,0,1,348,374.93a198,198,0,0,1-21.48-15.38c-6.55-5.4-13.38-11.21-17-19.08-1.9-4.14-3.55-8.67-3.61-13.28s1.73-9,4.16-12.9c1-1.64-1.58-3.15-2.59-1.51Z" transform="translate(-153.14 -75.71)"/><path class="cls-1" d="M494,291.18c-8-2.45-15.78-5.76-23.85-8.09a1.5,1.5,0,0,0-.79,2.89c8.06,2.34,15.81,5.65,23.84,8.09,1.85.56,2.64-2.33.8-2.89Z" transform="translate(-153.14 -75.71)"/><path class="cls-1" d="M472.43,366.2A96.51,96.51,0,0,1,419.05,384a92.36,92.36,0,0,1-16.2-1c-1.89-.28-2.71,2.61-.8,2.9a99.8,99.8,0,0,0,57.56-8.63,95.33,95.33,0,0,0,14.33-8.44c1.56-1.11.07-3.71-1.51-2.59Z" transform="translate(-153.14 -75.71)"/><path class="cls-1" d="M387.27,396.71c-14.07,8.34-30,12.35-45.71,16.53-7.87,2.1-15.73,4.26-23.39,7.05-3.7,1.35-7.34,2.85-10.9,4.54-2.82,1.35-7.6,3-8.39,6.44-.91,4,4.26,5.85,7.27,6.38,4.05.71,8.17.07,12.15-.81a259.13,259.13,0,0,0,26.63-7.48c8.66-2.92,17.14-6.31,25.52-10S387,412,395.51,409c15.57-5.48,33.14-8.43,49-2.34a42.57,42.57,0,0,1,5.47,2.57l-.54-2.05a175.3,175.3,0,0,1-28.08,31.09c-4.74,4.14-9.65,8.15-13.88,12.83a48.49,48.49,0,0,0-5.62,7.45c-1.33,2.21-3.52,5.49-1.57,7.95,1.62,2,4.64,1.7,6.87,1.12a66.54,66.54,0,0,0,8.58-2.89,90.31,90.31,0,0,0,16.16-8.8c10.31-7,19.42-15.55,28.51-24,5.33-5,10.57-10.44,16.72-14.41,6-3.85,13.86-6.1,20.39-2.19l-.31-2.36a268.5,268.5,0,0,0-22.94,30.15c-1.48,2.26-3.82,5.08-2.38,7.91,1.09,2.15,3.79,3.29,6,3.87,5.08,1.32,10.57-.1,15-2.74,9.83-5.86,14-17.35,22-25.06a25.57,25.57,0,0,1,6.52-4.69,21.45,21.45,0,0,1,9-1.91c3.11-.07,6.22.12,9.34.06s6.06-.28,9.07-.63A97.59,97.59,0,0,0,587.09,407a1.5,1.5,0,0,0-1.51-2.59,94.85,94.85,0,0,1-32.17,11.83,93.82,93.82,0,0,1-17.23,1.3c-5.67-.08-11.25-.24-16.46,2.36-9.63,4.8-14.28,15.08-20.9,23-3.33,4-7.32,7.42-12.4,8.86a14.89,14.89,0,0,1-7.32.38,10.82,10.82,0,0,1-3.39-1.34c-1.39-.88-1.48-1.87-.67-3.28A167.57,167.57,0,0,1,486.41,431c4.09-5.48,8.42-10.77,12.92-15.91a1.51,1.51,0,0,0-.3-2.35c-5.24-3.14-11.82-3.05-17.41-.89-6,2.33-11,6.61-15.71,10.91-9,8.2-17.68,16.82-27.2,24.45s-19.8,14.06-31.47,17.31a9.94,9.94,0,0,1-3.37.57c-1.87-.15-1.33-1.45-.65-2.78a40.08,40.08,0,0,1,5-7.5c4-4.77,8.78-8.8,13.48-12.86A183.55,183.55,0,0,0,452,408.7a1.51,1.51,0,0,0-.54-2.05c-14-7.73-30.81-7.6-46-3.81-17,4.25-32.57,12.72-48.83,19.07q-12.45,4.86-25.32,8.5c-4.36,1.23-8.74,2.37-13.15,3.38-3.79.86-7.86,1.67-11.74.88-1.15-.24-4.56-.95-4.7-2.49s3-2.73,4-3.27A109.21,109.21,0,0,1,316.74,424a230,230,0,0,1,22.37-7c17-4.59,34.4-8.66,49.68-17.71a1.5,1.5,0,0,0-1.52-2.59Z" transform="translate(-153.14 -75.71)"/><path class="cls-1" d="M398.65,462.53c-22.89,13.66-45.4,28-67.28,43.26-4.84,3.38-9.72,7.22-11.61,13.05a1.51,1.51,0,0,0,.69,1.69c5.45,2.69,11.58,1.66,17-.58a84.62,84.62,0,0,0,16.61-9.8c11.17-8,22.07-16.35,33.08-24.54l19.14-14.24c1.53-1.14,0-3.75-1.51-2.59l-32.71,24.33q-7.87,5.86-15.76,11.72a126.68,126.68,0,0,1-15.87,10.4C335,518.1,328,520.9,322,517.94l.69,1.7c1.61-5,6-8.28,10.08-11.15,5.28-3.69,10.62-7.28,16-10.86q16.08-10.72,32.49-20.95,9.44-5.87,19-11.56a1.5,1.5,0,0,0-1.52-2.59Z" transform="translate(-153.14 -75.71)"/><path class="cls-1" d="M477.9,366.76c9.76-11.61,15.35-27.41,28.45-35.93,1.62-1.05.12-3.65-1.51-2.59-13.46,8.75-19.06,24.51-29.06,36.39-1.23,1.47.88,3.61,2.12,2.13Z" transform="translate(-153.14 -75.71)"/><path class="cls-1" d="M501.19,376.43,525,384.3c3.84,1.27,7.66,2.6,11.53,3.79a30.59,30.59,0,0,0,10.8,1.72c6.91-.45,11.68-5.25,14.36-11.34,2.82-6.41,3.33-13.82,7.29-19.72a20.35,20.35,0,0,1,18.22-8.66c1.93.14,1.92-2.86,0-3A23.46,23.46,0,0,0,570.07,353c-5.38,4.79-7.1,11.62-9,18.28-1.66,5.78-4.26,12.79-10.54,14.89-3.51,1.18-7.29.6-10.78-.32-3.82-1-7.56-2.36-11.3-3.6L502,373.54c-1.84-.61-2.63,2.29-.8,2.89Z" transform="translate(-153.14 -75.71)"/><path class="cls-1" d="M524.83,396A86,86,0,0,0,547,397.64c1.92-.1,1.93-3.1,0-3a82.4,82.4,0,0,1-21.37-1.57c-1.89-.39-2.69,2.5-.8,2.89Z" transform="translate(-153.14 -75.71)"/><path class="cls-1" d="M507.55,409.55v2.24a1.58,1.58,0,0,0,.44,1.06,1.5,1.5,0,0,0,2.12,0,1.58,1.58,0,0,0,.44-1.06v-2.24a1.58,1.58,0,0,0-.44-1.06,1.56,1.56,0,0,0-1.06-.44,1.54,1.54,0,0,0-1.06.44,1.58,1.58,0,0,0-.44,1.06Z" transform="translate(-153.14 -75.71)"/><path class="cls-1" d="M466.45,404.89l-.56,1.12a1.09,1.09,0,0,0-.18.55,1.22,1.22,0,0,0,0,.6,1.14,1.14,0,0,0,.27.51,1.21,1.21,0,0,0,.42.39l.36.15a1.55,1.55,0,0,0,.8,0l.35-.15a1.47,1.47,0,0,0,.54-.54l.56-1.12a1.09,1.09,0,0,0,.18-.55,1.22,1.22,0,0,0,0-.6,1,1,0,0,0-.27-.51,1.06,1.06,0,0,0-.42-.39l-.36-.15a1.51,1.51,0,0,0-.79,0l-.36.15a1.4,1.4,0,0,0-.54.54Z" transform="translate(-153.14 -75.71)"/><path class="cls-1" d="M618.29,408.22a23.78,23.78,0,0,1,25.37,5.14,1.5,1.5,0,0,0,2.13-2.12,26.76,26.76,0,0,0-28.3-5.92c-1.77.71-1,3.61.8,2.9Z" transform="translate(-153.14 -75.71)"/><path class="cls-1" d="M650.43,389.46l-.56,8.37a1.5,1.5,0,0,0,1.5,1.5,1.53,1.53,0,0,0,1.5-1.5l.56-8.37a1.52,1.52,0,0,0-1.5-1.5,1.54,1.54,0,0,0-1.5,1.5Z" transform="translate(-153.14 -75.71)"/><path class="cls-1" d="M477.4,453.23c-4.74,24.7,1.32,49.61.29,74.44a91.83,91.83,0,0,1-3.12,20.79,1.51,1.51,0,0,0,2.51,1.46c2.91-3.1,7.82-.23,10.13,2.23,3,3.22,5.35,7.25,9.54,9.11a1.5,1.5,0,0,0,1.51-2.59c-11.77-7.37-13-22.76-12.05-35.25.56-7.66,1.5-15.28,1.94-23q.68-11.82.48-23.67-.22-13.07-1.51-26.09c-.19-1.9-3.19-1.92-3,0A321.62,321.62,0,0,1,485.23,499c-.42,8-1.37,16-2,24-.56,7.29-.58,14.79,1.6,21.84,2.05,6.63,5.94,12.74,11.91,16.48l1.51-2.59c-4.75-2.1-6.79-7.26-10.77-10.31-3.52-2.7-9.09-4.22-12.53-.56l2.5,1.46c6.78-24.27,1.14-49.45,1.07-74.12A109.88,109.88,0,0,1,480.29,454c.36-1.88-2.53-2.69-2.89-.8Z" transform="translate(-153.14 -75.71)"/><path class="cls-1" d="M477.85,552.34a22,22,0,0,1-.5,16A1.49,1.49,0,0,0,478,570a3.3,3.3,0,0,0,4.44-1l-2.8-.75c-.5,5.83-2.33,11.43-3.79,17.07a51.75,51.75,0,0,0-1.82,17.37c.23,2.91.57,5.9,0,8.79a20,20,0,0,1-2.26,5.86c-2.13,3.78-5,7.05-7.68,10.47-3,3.85-5.7,8-6.52,12.9-.21,1.31,1.44,2.73,2.51,1.46l5.95-7.11,3-3.55c.56-.66,1.46-2.15,2.49-2s1.73,1.46,2.21,2.2c.83,1.29,1.63,2.6,2.45,3.9l5.05,8,2.59-1.52c-6.37-9.3-5.37-21.14-3.55-31.71,2.15-12.54,5.15-25,6.47-37.65.73-7,.63-14.22-1.6-21-.6-1.82-3.5-1-2.89.8,4.08,12.37.86,25.93-1.37,38.36-1.13,6.3-2.46,12.56-3.54,18.88A77.86,77.86,0,0,0,476,626.34a32.82,32.82,0,0,0,5.28,17.27c1.07,1.57,3.63.14,2.59-1.52L478,632.85c-1.45-2.3-3-5.8-6-6.32s-5.1,2.85-6.8,4.88L458,640l2.51,1.46c1.47-8.84,9.2-14.72,13.56-22.08a23.57,23.57,0,0,0,3.21-14.12,69.08,69.08,0,0,1-.34-9.09,51.43,51.43,0,0,1,1.52-8.8c1.57-6.37,3.67-12.6,4.23-19.17.14-1.64-2-1.83-2.79-.76-.09.11-.27,0-.34,0l.69,1.69a24.59,24.59,0,0,0,.51-17.57c-.64-1.81-3.54-1-2.9.8Z" transform="translate(-153.14 -75.71)"/><path class="cls-1" d="M320.47,518.87c-16.29,9.64-32.43,19.67-47.12,31.67A174.12,174.12,0,0,0,253,570c-6.37,7.2-11.58,15.17-17.18,22.94a83,83,0,0,1-10.64,12.36c-3.81,3.56-7.83,6.93-10.66,11.38-.84,1.31.78,2.74,2.05,2.05l6.84-3.74-2.05-2.06a25.57,25.57,0,0,0-3.64,11.74c-.09,1.54,2.06,2,2.8.76,5.76-9.53,11.23-19.24,17.28-28.58a191.61,191.61,0,0,1,18.15-23.91,186.14,186.14,0,0,1,44-36,182.88,182.88,0,0,1,29-13.81c1.8-.66,1-3.56-.79-2.89a188.11,188.11,0,0,0-90.36,71.15c-7.11,10.53-13.31,21.64-19.87,32.5l2.79.76a22.3,22.3,0,0,1,3.23-10.22,1.51,1.51,0,0,0-2-2L215,616.1l2.06,2c2.46-3.86,5.94-6.85,9.28-9.92a80.92,80.92,0,0,0,9.54-10.47c5.83-7.6,10.8-15.79,17-23.13,12.05-14.29,26.78-26,42.24-36.43,8.76-5.89,17.79-11.37,26.87-16.74a1.5,1.5,0,0,0-1.52-2.59Z" transform="translate(-153.14 -75.71)"/><path class="cls-1" d="M303.53,429.85c-2.22-.34-3.72.88-5.82,1.25a10.87,10.87,0,0,1-6-1.17c-3.81-1.66-7.39-3.73-11.31-5.18a65.83,65.83,0,0,0-25.14-3.93l1.06,2.56a18.44,18.44,0,0,0,4.94-7.22c.45-1.17-.85-2-1.85-1.84a31.12,31.12,0,0,0-15.15,7.16c-1.74,1.51-4.74,3.9-3.39,6.53,1.19,2.32,4.16,2.64,6.44,3l20.47,3.18c6.22,1,12.46,2.18,18.74,2.69s12.72,0,17.88-3.75c1.55-1.12.06-3.72-1.51-2.59-8.45,6.1-20.26,2.93-29.68,1.47l-18.28-2.83c-2.92-.46-5.86-.84-8.77-1.36-.7-.13-2-.32-2.47-1s1.18-1.85,1.66-2.31a28.2,28.2,0,0,1,14.86-7.33l-1.85-1.84a15.31,15.31,0,0,1-4.16,5.89,1.52,1.52,0,0,0,1.06,2.56,63.35,63.35,0,0,1,24.76,4c3.92,1.48,7.48,3.67,11.35,5.22a13.41,13.41,0,0,0,5.75,1.15,9.23,9.23,0,0,0,2.65-.52c.91-.32,2-1.06,3-.9,1.89.29,2.7-2.6.79-2.9Z" transform="translate(-153.14 -75.71)"/><path class="cls-1" d="M248.64,421.08a148.75,148.75,0,0,0-43.59-2.67,188,188,0,0,0-21.37,3.23,77.53,77.53,0,0,0-16.61,5.05c-5.57,2.56-10.59,6.35-13.72,11.7a1.5,1.5,0,0,0,2.59,1.52c5.48-9.37,16.79-12.84,26.77-15A162.26,162.26,0,0,1,224.33,421a145.36,145.36,0,0,1,23.51,3c1.88.4,2.69-2.49.8-2.89Z" transform="translate(-153.14 -75.71)"/><path class="cls-1" d="M596.5,372a130.84,130.84,0,0,0-7.26,14,1.56,1.56,0,0,0,.54,2.06,1.52,1.52,0,0,0,2.05-.54,132,132,0,0,1,7.26-14A1.5,1.5,0,0,0,596.5,372Z" transform="translate(-153.14 -75.71)"/><path class="cls-1" d="M578.6,370.82a84.7,84.7,0,0,1-16.45,18.73c-1.47,1.25.66,3.36,2.12,2.12a87.4,87.4,0,0,0,16.92-19.33c1-1.63-1.54-3.14-2.59-1.52Z" transform="translate(-153.14 -75.71)"/><path class="cls-1" d="M655.9,384.85a4.26,4.26,0,0,1,1.42,2.16,3.62,3.62,0,0,1,.12,1.46,17,17,0,0,1-.25,1.72,6.87,6.87,0,0,0,.18,3.57,4,4,0,0,0,2.6,2.56c1.86.54,2.65-2.35.8-2.9a.53.53,0,0,1-.25-.12c.12.11-.14-.15-.16-.18.1.13,0,0,0-.05l-.12-.22c0,.12-.09-.25-.08-.25s0-.2-.08-.29l0-.16c0,.13,0,.13,0,0a24.31,24.31,0,0,1,.4-3.61,7.16,7.16,0,0,0-3-6.31,1.51,1.51,0,0,0-2,.54,1.52,1.52,0,0,0,.54,2.05Z" transform="translate(-153.14 -75.71)"/><path class="cls-2" d="M435,200.41c-11.7-12.62-29.25-16.94-45.9-17.41A137,137,0,0,0,362.84,185a116.24,116.24,0,0,0-25.52,7.11c-16.52,6.85-30.71,18.31-39,34.36a79.12,79.12,0,0,0-6.64,53c3.95,18.11,13.8,34.85,27.1,47.68a80.79,80.79,0,0,0,22.73,15.75,73.56,73.56,0,0,0,29.3,6.09,151.61,151.61,0,0,0,30.77-3.11A110.27,110.27,0,0,0,430,336.56,78.7,78.7,0,0,0,465.55,300a76.84,76.84,0,0,0,5.85-49.78,80.42,80.42,0,0,0-25.83-43.05,77.13,77.13,0,0,0-10.09-7.31,1.5,1.5,0,0,0-1.51,2.59,76.36,76.36,0,0,1,31,37,73.53,73.53,0,0,1,2.15,48.28,77,77,0,0,1-27.68,39.57C424,338.62,404.7,343.12,386,345.12c-10,1.08-20.31,1.31-30.24-.78a67.41,67.41,0,0,1-25-11.18,92.9,92.9,0,0,1-32.39-42,78.92,78.92,0,0,1-2.15-51.76,69.18,69.18,0,0,1,12.1-22.9,70.36,70.36,0,0,1,19.3-16.36c14.79-8.64,32-12.6,49-13.86,16-1.18,33.36.09,47.26,8.74a44.23,44.23,0,0,1,9,7.48c1.32,1.42,3.43-.71,2.12-2.12Z" transform="translate(-153.14 -75.71)"/><path class="cls-1" d="M312.15,248.53a5.56,5.56,0,0,0,.09,5.91,5.65,5.65,0,0,0,5.32,2.78,7,7,0,0,0,5.47-3.86,6.29,6.29,0,0,0,.56-3.93,4.35,4.35,0,0,0-2.22-2.88,6.08,6.08,0,0,0-4-.53,13.41,13.41,0,0,0-4.05,1.81,1.5,1.5,0,0,0,1.51,2.6c.44-.26.87-.52,1.32-.76.22-.12.45-.22.67-.33,0,0,.27-.12.06,0l.42-.16a5.9,5.9,0,0,1,.72-.2s.45-.08.24,0l.19,0a3.25,3.25,0,0,1,.54,0c.09,0,.35.06,0,0l.35.07.29.09c.08,0,.33.14,0,0a5.21,5.21,0,0,1,.52.28c.07,0,.18.17,0,0a2.09,2.09,0,0,0,.22.2c.06.06.22.27,0,0,.07.1.13.2.19.3.18.28,0-.17,0,.07s.08.24.1.37c0-.22,0,0,0,.06s0,.31,0,.46a3,3,0,0,1,0,.31c0-.28,0,0,0,.06a4.67,4.67,0,0,1-.18.64c-.12.37.1-.18,0,0s-.08.19-.13.28-.2.35-.31.52a1.43,1.43,0,0,0-.14.2c.18-.26,0,0,0,0s-.3.32-.46.48l-.23.19c-.17.16.29-.18,0,0-.16.1-.3.2-.46.29a4.44,4.44,0,0,1-.49.24c.34-.15,0,0-.08,0l-.34.1-.24.05c-.37.1.32,0-.07,0l-.53,0-.3,0c.32,0,.12,0,0,0s-.52-.07-.61-.18c.09.1.24.11.08,0l-.28-.14-.18-.11s-.3-.22-.1-.07-.07-.07-.09-.08l-.15-.14-.22-.23c-.06-.07-.25-.34,0,0a5.72,5.72,0,0,1-.32-.48l-.13-.23-.06-.15c-.05-.1,0-.06,0,.12a1.69,1.69,0,0,1-.18-.55l-.06-.25a.77.77,0,0,1,0-.15c0-.12,0-.07,0,.14a2.46,2.46,0,0,1,0-.61s0-.21,0-.21c0,.23,0,.27,0,.1l0-.1a2.45,2.45,0,0,1,.08-.29l0-.1c0-.15,0-.13,0,.07,0-.14.23-.43.31-.54a1.51,1.51,0,0,0-.54-2,1.53,1.53,0,0,0-2.05.54Z" transform="translate(-153.14 -75.71)"/><path class="cls-1" d="M341.19,232.12a7.28,7.28,0,0,0,4,5.41,7.39,7.39,0,0,0,7.09-.49,6.52,6.52,0,0,0,2.91-5.41,5.07,5.07,0,0,0-3.55-5c-2.76-.82-5.62.81-7.77,2.37a1.54,1.54,0,0,0-.54,2.05,1.52,1.52,0,0,0,2.05.54A17.54,17.54,0,0,1,348,230a5.48,5.48,0,0,1,1-.39,4.74,4.74,0,0,1,.65-.16c.31-.06.11,0,0,0l.43,0,.36,0c.25,0-.32-.1.09,0a5,5,0,0,1,.55.17c-.22-.09,0,0,0,0a1.61,1.61,0,0,0,.31.19c.18.09-.24-.23,0,0a2.61,2.61,0,0,0,.24.23c.05,0,.16.23,0-.05a1.88,1.88,0,0,1,.12.18l.12.19.07.12c-.12-.21,0,.09,0,.13l.06.21.06.21c0,.18,0,.3,0,.05a7.08,7.08,0,0,1,0,1c0-.39,0,.12-.05.23s-.12.41-.19.62-.12.25,0,0a2,2,0,0,0-.1.21c-.08.16-.17.31-.26.46l-.17.24s.2-.23,0,0-.27.27-.41.41-.06.06,0,0l-.3.2q-.28.18-.57.33c-.26.13-.11.05-.05,0l-.34.12a5.71,5.71,0,0,1-.71.19c-.06,0-.38.06-.1,0l-.29,0c-.22,0-.44,0-.66,0l-.37,0c.07,0,.26.05,0,0a6.22,6.22,0,0,1-.71-.19l-.27-.09c.27.1-.1-.06-.15-.08a7.23,7.23,0,0,1-.66-.4c-.21-.15.25.22-.08-.06l-.26-.24a4.6,4.6,0,0,1-.52-.56l0,0c-.08-.11-.16-.23-.23-.35s-.23-.4-.33-.61c.11.23,0,0,0,0s-.09-.27-.13-.4a5.68,5.68,0,0,1-.17-.82,1.51,1.51,0,0,0-1.84-1,1.55,1.55,0,0,0-1.05,1.85Z" transform="translate(-153.14 -75.71)"/><path class="cls-1" d="M343.86,260a8.57,8.57,0,0,0,7.67,9.35,4.77,4.77,0,0,0,5.3-4.09,6.23,6.23,0,0,0-3.59-6,6.37,6.37,0,0,0-7.59,1.75,1.56,1.56,0,0,0,0,2.12,1.51,1.51,0,0,0,2.12,0c.14-.17.28-.34.44-.5l.21-.19c.2-.18-.27.17.1-.09.17-.1.33-.21.5-.3l.27-.13c-.25.11.17-.06.18-.07l.57-.15c.29-.06.11,0,0,0,.12,0,.24,0,.36,0a4.85,4.85,0,0,1,.66,0c-.07,0-.25,0,0,0l.35.08c.11,0,.23.07.34.12-.06,0-.23-.12,0,0s.34.18.5.28l.24.16c-.21-.15,0,0,.08.08s.31.3.46.46c.3.31-.08-.13.07.08l.16.24a3.86,3.86,0,0,1,.3.57c-.1-.24.07.22.1.31a2.46,2.46,0,0,1,.07.29c.09.41,0-.18,0,.24,0,.06,0,.62,0,.41a2.36,2.36,0,0,1-.1.38c-.07.25.09-.14,0,.09s-.11.19-.18.29c.05-.07.18-.17,0,0l-.18.17c.18-.17,0,0-.11.07s-.5.23-.22.13c-.16.05-.33.11-.5.15l-.26.05c.31-.06,0,0-.06,0a5.15,5.15,0,0,1-.68,0h-.13c.22,0-.2,0-.2,0a5,5,0,0,1-.52-.14,4.56,4.56,0,0,1-.52-.18c.25.1,0,0,0,0l-.37-.18c-.18-.1-.35-.21-.52-.32l-.22-.16c-.19-.14.16.13,0,0a9.88,9.88,0,0,1-.92-.91s-.18-.22,0,0a3.43,3.43,0,0,1-.24-.33c-.13-.19-.25-.39-.36-.59s-.21-.4-.3-.61c0,.06.08.25,0,0l-.14-.39a5.66,5.66,0,0,1-.15-.59l-.06-.34c0,.22,0,.06,0-.07a6.84,6.84,0,0,1,0-1.43,1.5,1.5,0,0,0-1.5-1.5,1.54,1.54,0,0,0-1.5,1.5Z" transform="translate(-153.14 -75.71)"/><path class="cls-1" d="M321.71,278.92a6,6,0,0,0,.32,5.83,5.48,5.48,0,0,0,5.17,2.68,6.19,6.19,0,0,0,4.93-3.44,5.42,5.42,0,0,0-1.19-6.27,4.6,4.6,0,0,0-3.81-1.07,4.19,4.19,0,0,0-2.95,2,1.5,1.5,0,1,0,2.59,1.51c0-.07.11-.15.14-.22s-.23.21,0,0l.15-.14c.22-.22-.18.06,0,0a1.71,1.71,0,0,0,.23-.13c.23-.15,0,0-.07,0a1.56,1.56,0,0,1,.61-.17s-.39,0-.08,0H328a2.44,2.44,0,0,0,.27,0c.19,0-.35-.09,0,0l.21.06s.33.14.12,0,.11.07.12.08l.29.19c-.3-.21.13.15.2.23s.15.22,0,0c0,.07.09.13.13.19a4.19,4.19,0,0,1,.27.51c-.13-.29,0-.1,0,0s.07.22.1.33a2,2,0,0,1,.07.35s0-.34,0-.05,0,.38,0,.57,0,0,0-.08a1,1,0,0,1-.05.21,2.5,2.5,0,0,1-.07.26c0,.1-.08.47,0,.09a2,2,0,0,1-.49.83c.23-.19.11-.13,0-.06l-.22.24c-.11.11-.26.31-.4.36.28-.11.11-.07,0,0l-.23.14a2.71,2.71,0,0,1-.37.21l-.1.05.06,0a1,1,0,0,1-.2.08l-.57.15h-.18a4.69,4.69,0,0,1-.53,0c-.23,0,0,0,.08,0a.86.86,0,0,1-.21,0l-.31-.09-.09,0,.08,0c-.07,0-.35-.18-.41-.21l-.21-.14c-.17-.11,0,0,.07,0-.09,0-.32-.28-.38-.34l-.13-.15-.1-.11.08.1c-.11-.06-.25-.37-.31-.47l-.12-.23a.83.83,0,0,0-.07-.13c0-.11,0-.07.05.12a3.23,3.23,0,0,1-.29-1.08s0,.4,0,.1c0-.11,0-.21,0-.31a2.09,2.09,0,0,1,0-.25.76.76,0,0,1,0-.15c0-.17,0-.14,0,.1a2.77,2.77,0,0,1,.11-.49c0-.08.07-.17.08-.24s0-.07,0,.12a1.54,1.54,0,0,1,.08-.19,1.5,1.5,0,1,0-2.59-1.51Z" transform="translate(-153.14 -75.71)"/><path class="cls-1" d="M333.25,310.94a8.31,8.31,0,0,0-.58,6.11,5.1,5.1,0,0,0,4.05,3.85,4.85,4.85,0,0,0,4.76-2.3,5.39,5.39,0,0,0-.24-5.63,6.12,6.12,0,0,0-5.6-2.55,1.53,1.53,0,0,0-1.5,1.5,1.51,1.51,0,0,0,1.5,1.5,6.41,6.41,0,0,1,1,0c.17,0,.09.08-.08,0a.85.85,0,0,0,.22,0,4.58,4.58,0,0,1,.53.14l.2.07c.34.11-.2-.11,0,0l.43.23a2.25,2.25,0,0,0,.36.24s-.21-.18,0,0l.24.22a2.89,2.89,0,0,1,.29.32c-.22-.35.06.13.1.2l.12.24c.08.16.08,0,0-.06.09.08.13.4.16.53a.65.65,0,0,0,0,.21c-.08-.08,0-.28,0-.08a4,4,0,0,1,0,.49c0,.06,0,.23,0,.27s.08-.37,0-.07-.09.35-.14.52-.05,0,0-.06a1.72,1.72,0,0,0-.09.19l-.11.19s-.24.28-.07.1,0,0,0,0l-.17.17-.15.13s.3-.2,0,0l-.34.2c-.23.12.05,0,.09,0a.73.73,0,0,0-.19.07l-.42.11c-.21.05.39,0,.06,0h-.48c-.2,0,0-.09.11,0-.07-.06-.29-.06-.38-.08l-.18-.06c0-.05.31.17.05,0l-.21-.12c-.25-.13.11.12,0,0l-.36-.34c-.13-.15-.05,0,0,0a.7.7,0,0,1-.13-.19c-.09-.14-.18-.28-.26-.43a2,2,0,0,0-.1-.21c0-.1,0-.07.05.1a.52.52,0,0,1-.06-.16,8,8,0,0,1-.31-1.19c0-.22,0,.26,0,0s0-.24,0-.37,0-.41,0-.62,0-.16,0-.25,0-.12,0-.18c0,.17,0,.2,0,.09a6,6,0,0,1,.13-.61,5.76,5.76,0,0,1,.18-.59s.1-.3,0-.11.12-.24.14-.28a1.54,1.54,0,0,0-.54-2.05,1.52,1.52,0,0,0-2.05.54Z" transform="translate(-153.14 -75.71)"/><path class="cls-1" d="M363.13,305.19a8.9,8.9,0,0,0,4.62,3.43,6.08,6.08,0,0,0,5.37-.9,5.47,5.47,0,0,0,2.28-5.14,5.41,5.41,0,0,0-3.53-4.06,6.87,6.87,0,0,0-6.41,1.16,1.54,1.54,0,0,0-.54,2.05,1.52,1.52,0,0,0,2.05.54,6.14,6.14,0,0,1,.93-.6l.42-.21c-.16.07.31-.1.38-.12a3.53,3.53,0,0,1,.54-.13l.23,0s-.19,0,0,0a4.87,4.87,0,0,1,.54,0h.24c.16,0-.12,0,.12,0l.39.1.25.09,0,0a3.3,3.3,0,0,1,.41.23l.17.11c.2.13-.23-.22.08.05a3.83,3.83,0,0,1,.29.28l.18.2,0,0,.24.39s.11.22,0,.06,0,.11,0,.14a3.69,3.69,0,0,1,.11.45c-.05-.28,0,.09,0,.19s0,.13,0,.2.06-.25,0-.08a4.07,4.07,0,0,1-.13.5c0,.05-.12.29,0,.13s0,0,0,.06-.15.27-.24.4l-.11.16s.14-.17,0,0-.24.26-.37.38l-.16.14c.19-.17,0,0,0,0l-.34.22-.24.13-.07,0-.07,0-.32.1c-.08,0-.51.09-.2.06l-.43,0a4.34,4.34,0,0,1-.51,0c-.17,0,0,0,.05,0l-.36-.07a4.43,4.43,0,0,1-.49-.13l-.27-.09c-.09,0-.19-.08,0,0a6.39,6.39,0,0,1-1-.58l-.18-.13c-.22-.15.24.22-.11-.08l-.38-.35c-.14-.14-.28-.28-.41-.43l-.14-.16c-.31-.36.15.21-.13-.17a1.53,1.53,0,0,0-2.05-.53,1.51,1.51,0,0,0-.54,2.05Z" transform="translate(-153.14 -75.71)"/><path class="cls-1" d="M377.94,276.7a7.87,7.87,0,0,0,4.35,3.35,5.55,5.55,0,0,0,5.33-.87c1.58-1.44,1.38-4.05.22-5.68a5.45,5.45,0,0,0-4.81-2.4,5.61,5.61,0,0,0-4.79,3.76,1.52,1.52,0,0,0,1.05,1.85,1.54,1.54,0,0,0,1.85-1,1.72,1.72,0,0,1,.07-.21s-.15.29,0,.05l.23-.39s.13-.18,0,0,0,0,.06-.06.24-.24.36-.36.22-.17,0,0l.18-.13a3.79,3.79,0,0,1,.34-.2l.2-.1c.19-.1-.25.08,0,0s.31-.11.48-.15l.22,0s-.29,0-.12,0,.3,0,.45,0h.23c.17,0-.12,0-.12,0s.49.13.54.14.21.08,0,0,0,0,.08,0l.34.19.19.13c-.25-.15-.11-.09,0,0s.25.23.37.35l.15.17c.14.15-.14-.21,0,0s.14.22.21.33a1.86,1.86,0,0,1,.1.2c.14.26,0,0,0,0a1.33,1.33,0,0,1,.14.48c0,.05.06.29,0,.09s0,0,0,.06,0,.6,0,.29l-.06.26c0,.07-.11.25,0,0l-.12.22c-.12.2,0,0,0,0s-.12.12-.15.15c-.2.21,0-.06.06,0l-.37.21s.34-.11.05,0l-.21.07a1.32,1.32,0,0,1-.43.09c.3,0,.17,0,.06,0H384l-.18,0c-.23,0,.25.05,0,0s-.36-.07-.53-.12a4.48,4.48,0,0,1-.52-.16s-.29-.11-.1,0-.15-.07-.15-.08a6.68,6.68,0,0,1-.93-.55l0,0-.13-.11-.39-.38c-.12-.13-.24-.27-.35-.41.19.24.05.07,0,0s-.14-.2-.2-.3a1.5,1.5,0,0,0-2.59,1.51Z" transform="translate(-153.14 -75.71)"/><path class="cls-1" d="M346.47,289.72a8.47,8.47,0,0,0,2.57,2.19,4.31,4.31,0,0,0,3.51.27,3.5,3.5,0,0,0,2.36-2.58,3.37,3.37,0,0,0-.29-2.05,3.71,3.71,0,0,0-1.19-1.33,5.29,5.29,0,0,0-3.27-.94,1.5,1.5,0,0,0,0,3h.49c.16,0,.35.12,0,0a2.38,2.38,0,0,0,.26.05l.49.14.11.05c.17.05-.31-.15-.15-.06a2.53,2.53,0,0,1,.23.12l.22.13s.08,0,.09.06-.26-.24-.16-.12.13.11.18.17.24.28.07.06,0,0,0,.07c.14.27,0-.11,0-.11a.86.86,0,0,1,.06.23c.06.14-.06-.25,0-.23a.71.71,0,0,1,0,.15.57.57,0,0,1,0,.14s.08-.36,0-.21a.8.8,0,0,0-.05.21c0,.16.08-.24.08-.19s0,.1-.06.12-.21.3,0,.09,0,0-.08.06l-.08.07c-.1.11.16-.12.16-.12a4.17,4.17,0,0,0-.46.26s.36-.12.14-.06l-.11,0-.22.06c-.33.08.3,0,.06,0h-.42c-.17,0,.24,0,.21,0a.93.93,0,0,1-.24-.05l-.31-.09c-.32-.12.19.1,0,0s-.43-.25-.64-.38c0,0-.16-.13,0,0s0,0,0,0l-.28-.24a14.54,14.54,0,0,1-1-1.07,1.5,1.5,0,0,0-2.12,0,1.53,1.53,0,0,0,0,2.12Z" transform="translate(-153.14 -75.71)"/><path class="cls-1" d="M383,235.06a9.32,9.32,0,0,0,2.44,5,6.16,6.16,0,0,0,4.59,2.25,3.36,3.36,0,0,0,2.41-1,3.15,3.15,0,0,0,.43-3.46,7.71,7.71,0,0,0-1.86-2.28,8.61,8.61,0,0,0-2.5-1.73,4.29,4.29,0,0,0-3.17-.13,3.48,3.48,0,0,0-2.32,2.42,1.5,1.5,0,1,0,2.89.8c0-.07.05-.15.06-.22s-.19.3,0,.08a.85.85,0,0,0,.09-.15c0,.2-.2.22-.07.11l.13-.12c0,.13-.28.17-.05,0l.19-.12c.24-.14-.31.09,0,0l.36-.1c.3-.09-.28,0-.08,0h.42c.18,0,0,.08-.12,0a2.09,2.09,0,0,0,.52.14c.35.09-.18-.11,0,0l.26.13.4.24.19.14c.32.21-.15-.14,0,0l.49.43c.25.23.5.46.73.69l.37.39a1.3,1.3,0,0,1,.15.18c-.16-.3,0,0,.05.08a2,2,0,0,1,.14.25c0,.05.11.27.05.07s0,.11,0,.13,0,.28,0-.08c0,.3,0-.08,0-.08s-.16.33,0,.11,0,0,0,0c-.11.23.24-.23.05-.06,0,0-.1.07-.11.1s.32-.2.12-.11.31-.06,0,0l-.19.05c-.13,0-.17,0,.16,0-.13,0-.28,0-.41,0h-.18c-.3,0,.29.07.1,0s-.26-.05-.39-.09l-.38-.13c-.19-.05.34.18.08,0l-.2-.1-.34-.22a.75.75,0,0,1-.18-.13c.21.24.07.06,0,0a8.73,8.73,0,0,1-.76-.73,2.36,2.36,0,0,1-.36-.42c.14.29.06.08,0,0l-.19-.27a9.19,9.19,0,0,1-.57-1,1.59,1.59,0,0,1-.09-.2c.07.17.08.21,0,.1l-.06-.15-.18-.53a8,8,0,0,1-.25-1.2,1.5,1.5,0,0,0-.69-.89,1.52,1.52,0,0,0-1.16-.15,1.54,1.54,0,0,0-1,1.84Z" transform="translate(-153.14 -75.71)"/><path class="cls-1" d="M418.59,219a3.65,3.65,0,0,0-2.25,2.21,4,4,0,0,0,0,2.72,6.17,6.17,0,0,0,10.34,1.19,4.66,4.66,0,0,0,.1-5,4,4,0,0,0-3.19-1.8,7.62,7.62,0,0,0-3.46.79,1.63,1.63,0,0,0-.89.68,1.5,1.5,0,0,0,1.69,2.21c.36-.15.72-.3,1.08-.42.17,0,.33-.11.5-.15l.31-.07c.05,0,.44-.06.24,0h.41c.11,0,.24-.06,0,0a.68.68,0,0,1,.23.05l.24.07c-.28-.09-.07,0,0,0s.16.12.19.11-.27-.24-.06,0l.15.16c.13.12-.05.06-.07-.1,0,.08.14.22.18.3s.17.29,0,.06,0,0,0,.07a3.13,3.13,0,0,0,.1.44s0-.38,0-.13a1.09,1.09,0,0,1,0,.18v.18c0,.06-.06.32,0,.07s0,.18-.06.25a1.21,1.21,0,0,1-.05.18l0,.13c0,.1,0,.06.06-.15-.06,0-.13.26-.17.32s-.21.25,0,.07-.06.06-.08.08-.31.25-.31.29.23-.15,0,0l-.27.17-.24.13c-.05,0-.26.09-.06,0l-.12,0-.21.06-.42.1c-.35.08.25,0,0,0l-.33,0h-.49l-.22,0c-.28,0,0,0,.07,0a1.86,1.86,0,0,0-.48-.1,4.48,4.48,0,0,1-.52-.16c-.11,0-.32,0,0,0a1.86,1.86,0,0,1-.2-.1c-.13-.07-.26-.14-.38-.22l-.23-.15c-.18-.12.25.24,0,0s-.35-.26-.38-.39c0,0,.19.29,0,0l-.17-.27c-.11-.18,0,0,0,.06a1.07,1.07,0,0,1-.08-.27,1.49,1.49,0,0,0,0-.18c0,.23,0,.28,0,.17a.61.61,0,0,0,0-.14,1.15,1.15,0,0,1,0-.19c0-.36.05,0,0,0a3.81,3.81,0,0,0,.13-.45c.05.11-.16.3,0,.07l.12-.2c.15-.25-.19.14,0,.06s.3-.23.08-.1,0,0,0,0l.12-.06-.1,0a1.5,1.5,0,0,0-.8-2.89Z" transform="translate(-153.14 -75.71)"/><path class="cls-1" d="M437.63,251.43a3.69,3.69,0,0,0-.78,3.36,5.09,5.09,0,0,0,1.71,2.62,6.45,6.45,0,0,0,6.72.73,5.7,5.7,0,0,0,3.35-5.44,5.24,5.24,0,0,0-4-4.92,9.44,9.44,0,0,0-7,1.61,1.5,1.5,0,0,0,1.51,2.59,9.49,9.49,0,0,1,1.07-.61,4,4,0,0,1,.51-.24c-.31.11-.11.05,0,0l.42-.16a8.34,8.34,0,0,1,1.09-.29.91.91,0,0,1,.32-.06c-.22,0-.22,0-.07,0s.43,0,.65,0l.57,0c.23,0-.37-.08,0,0l.31.06c.08,0,.45.08.48.16s-.28-.14-.08,0l.36.19.21.14c.18.1-.25-.24,0,0,0,0,.32.38.37.38l-.1-.14.12.18.1.18a.94.94,0,0,1,.15.28c-.09-.2-.1-.22,0-.07l0,.1c.06.19.1.38.14.57s0-.38,0,0c0,.1,0,.21,0,.31a1.62,1.62,0,0,1,0,.54c.11-.27,0-.2,0-.09s-.07.28-.11.42-.06.17-.08.25.17-.32,0,0c-.09.16-.17.32-.26.47l-.06.09,0-.05s-.12.14-.14.16a2.65,2.65,0,0,1-.49.46c.32-.2,0,0-.06,0l-.24.14-.25.13c-.32.19.3-.09-.05,0l-.54.17-.22,0-.22.05h-1.07l.17,0-.22,0-.22,0-.33-.09-.2-.07.17.07c-.12,0-.43-.22-.53-.29l-.09-.06c-.13-.09-.11-.07.06,0-.08,0-.17-.14-.23-.2a1.79,1.79,0,0,1-.42-.45c.14.32.06.07,0,0a2.26,2.26,0,0,1-.16-.26c-.16-.31,0,0,0,0l-.11-.31a.78.78,0,0,0-.05-.23c0,.25,0,.29,0,.12v-.13a1.77,1.77,0,0,0,0-.23c0,.25,0,.3,0,.14l0-.13c0-.17-.18.31,0,.06.06-.09.3-.42,0-.09a1.53,1.53,0,0,0,0-2.12,1.51,1.51,0,0,0-2.12,0Z" transform="translate(-153.14 -75.71)"/><path class="cls-1" d="M405.15,257.45a8.35,8.35,0,0,0,2.78,4.12,6.81,6.81,0,0,0,4.85,1.67,3.9,3.9,0,0,0,3.7-3.74,5,5,0,0,0-2.09-4.33,7.81,7.81,0,0,0-5.88-1,1.51,1.51,0,0,0-1.05,1.85,1.53,1.53,0,0,0,1.84,1c.31,0,0,0,0,0a1.29,1.29,0,0,1,.23,0l.48,0a8.51,8.51,0,0,1,1,0c.39,0-.14,0,.13,0s.31,0,.46.09a3.22,3.22,0,0,1,.44.14.83.83,0,0,1,.22.08c-.3-.17-.06,0,0,0s.27.15.4.23l.08.05c-.15-.1,0,0,.07.06a3.7,3.7,0,0,1,.28.28s.1.1.09.11l-.08-.11.08.13c.07.11.13.23.19.34s-.05-.08,0-.08a1.89,1.89,0,0,0,.06.18c0,.11.06.23.09.34s0,.21,0,0,0-.14,0,0v.1c0,.13,0,.25,0,.38s0-.08,0-.11a1.35,1.35,0,0,0,0,.18,2.07,2.07,0,0,0-.11.36s.18-.32,0-.1a1.32,1.32,0,0,0-.12.2c-.07.16.21-.19.06-.08a.9.9,0,0,0-.09.1s-.12.13-.14.13.21-.13,0,0l-.19.11c-.26.16,0,0,.06,0l-.48.13c-.2.06.28,0,.07,0h-.23c-.15,0-.3,0-.45,0s.27.05.06,0l-.17,0a5.12,5.12,0,0,1-.56-.15L411,260c-.1,0-.21,0,0,0a1.42,1.42,0,0,1-.35-.17,8.63,8.63,0,0,1-.82-.51c-.25-.17,0,0,0,0s-.18-.15-.22-.18l-.37-.35c-.13-.13-.26-.27-.38-.41a1.77,1.77,0,0,1-.14-.17c0,.07.15.19,0,0a8.46,8.46,0,0,1-.55-.91,2,2,0,0,1-.1-.21c-.05-.1-.18-.24,0,0a2,2,0,0,1-.19-.53,1.5,1.5,0,1,0-2.89.8Z" transform="translate(-153.14 -75.71)"/><path class="cls-1" d="M415.7,286.81c.73,1.74,1.55,3.64,3.32,4.56a4,4,0,0,0,5.47-1.3c1.75-3.07-.3-6.92-3.22-8.35a6.61,6.61,0,0,0-5.24-.41,1.53,1.53,0,0,0-1,1.85,1.5,1.5,0,0,0,1.84,1,4.55,4.55,0,0,1,.8-.23,1,1,0,0,0,.18,0c-.23.1-.27,0-.12,0l.46,0,.41,0c.06,0,.27,0,0,0h.07a5.7,5.7,0,0,1,.81.22l.17.06c.25.09-.08,0-.1,0a1.91,1.91,0,0,0,.38.18,7.25,7.25,0,0,1,.75.47c.18.12-.08,0-.08-.06l.14.12.31.28.29.31s.1.14.11.14l-.09-.12a.76.76,0,0,1,.08.11,5.15,5.15,0,0,1,.4.67c0,.06.05.12.08.17s-.12-.36,0-.06c.05.14.1.29.14.44s.05.24.08.36,0-.1,0-.13,0,.15,0,.19a3.53,3.53,0,0,1,0,.46.78.78,0,0,1,0,.27c.07-.08.05-.3,0,0s-.08.31-.13.46-.07,0,0-.07a1.5,1.5,0,0,0-.09.18,1.74,1.74,0,0,1-.11.18c.08,0,.2-.23,0,0,0,0-.14.17-.19.17s.24-.15,0,0l-.05,0c-.15.07-.12.06.07,0l-.19.06a1.3,1.3,0,0,0-.21,0c.21-.1.25,0,.09,0h-.21c-.34,0,.24.06,0,0l-.52-.13c-.2-.05.24.12.05,0l-.29-.15-.18-.11-.14-.09c.15.11.18.13.1.06s-.28-.26-.41-.41-.2-.22-.07-.07-.1-.13-.12-.17a8.61,8.61,0,0,1-.58-1c-.09-.18-.17-.36-.25-.54l-.09-.21c-.16-.36.06.15-.06-.13a1.67,1.67,0,0,0-.69-.9,1.49,1.49,0,0,0-1.15-.15,1.51,1.51,0,0,0-1.05,1.85Z" transform="translate(-153.14 -75.71)"/><path class="cls-1" d="M440.89,279.77c1.7,1.74,3.76,3.46,6.24,3.87s5.16-.29,6.51-2.51a6,6,0,0,0-.08-5.95,5.39,5.39,0,0,0-5.46-2.64,6.35,6.35,0,0,0-5.28,4.6,1.5,1.5,0,0,0,2.9.8c0-.19.11-.36.16-.54s-.17.28,0,0l.12-.22a3.83,3.83,0,0,1,.28-.42c-.19.24.18-.18.26-.26l.24-.22c.16-.15-.19.13,0,0s.32-.22.48-.31a4.78,4.78,0,0,1,.45-.23c-.26.12-.06,0,0,0l.36-.12.3-.07c.05,0,.32-.06.11,0s.17,0,.18,0h.25c.12,0,.54,0,.22,0,.2,0,.4.09.6.14.38.1-.15-.08.05,0l.21.11c.09,0,.5.35.23.12l.34.31.16.18c.22.23-.11-.2,0,.06s.19.29.28.45l.12.26c0-.05-.09-.29,0,0s.1.3.14.45l.06.23c0,.16,0,.32,0,.06,0,.18,0,.35,0,.53s-.08.62,0,.23c0,.15-.06.3-.1.45l-.07.22c-.08.32.13-.2,0,.06s-.21.31-.26.45.22-.22,0,0l-.16.17-.21.2c.17-.15,0,0,0,0a3.85,3.85,0,0,1-.62.36c.22-.11,0,0,0,0l-.34.1-.35.08c-.05,0-.3,0,0,0a5.83,5.83,0,0,1-1.32,0c.26,0,0,0,0,0l-.43-.1a6.18,6.18,0,0,1-.73-.23c.19.07-.12-.06-.16-.08l-.36-.18a7,7,0,0,1-.69-.41,14.75,14.75,0,0,1-2.41-2.08,1.5,1.5,0,0,0-2.12,2.12Z" transform="translate(-153.14 -75.71)"/><path class="cls-1" d="M421.65,317.23a9.48,9.48,0,0,0,5,2.72c1.92.36,4.56.37,6-1.17s.94-4.11-.33-5.7a7.24,7.24,0,0,0-4.51-2.47,7.8,7.8,0,0,0-5.86,1.3,1.54,1.54,0,0,0-.53,2.06,1.51,1.51,0,0,0,2.05.53,7,7,0,0,1,.81-.52c.09,0,.51-.21.19-.1l.46-.16a7.51,7.51,0,0,1,.94-.21c-.38.06.12,0,.21,0h.54l.43,0,.24,0c-.33,0-.11,0,0,0a7,7,0,0,1,1,.26l.22.08c.21.07-.22-.11,0,0l.43.22.36.21.2.14c.33.22-.21-.2.08.06l.31.29c.06.06.12.11.17.17s.19.24.08.09,0,.06.06.09l.13.21.09.17c0,.07.14.4.05.09a4.75,4.75,0,0,1,.14.46c0,.08,0,.16.05.24s0-.26,0-.11a1.77,1.77,0,0,0,0,.23c0,.08-.07.27,0,.08s0,0,0,.08-.08.13,0,0a2,2,0,0,1-.12.19c.05-.07.2-.19,0,0s-.21.12,0,0l-.24.14c.23-.13-.14,0-.23.06a4.29,4.29,0,0,1-.6.13c-.3.06-.07,0,0,0l-.27,0a4.87,4.87,0,0,1-.54,0H428l-.27,0c-.29,0,.1,0-.07,0a9.39,9.39,0,0,1-1.19-.29l-.58-.2h0l-.3-.15c-.37-.19-.7-.42-1-.64-.19-.12.16.14,0,0l-.26-.22c-.17-.15-.33-.31-.49-.47a1.51,1.51,0,0,0-2.12,0,1.53,1.53,0,0,0,0,2.12Z" transform="translate(-153.14 -75.71)"/><path class="cls-1" d="M390.48,321a7.74,7.74,0,0,0,3.14,3.77,5,5,0,0,0,4.93,0,3.92,3.92,0,0,0,1.91-4.55,5.86,5.86,0,0,0-4.25-3.7,4.76,4.76,0,0,0-3.37.44,4,4,0,0,0-1.93,2.48,1.5,1.5,0,1,0,2.89.79,1.33,1.33,0,0,0,.05-.19c.07-.27,0,.06,0,.07a1,1,0,0,0,.1-.18c.12-.25-.05,0-.06.05s.21-.22.29-.3,0-.06-.06,0c0-.05.17-.11.22-.14l.18-.1c.17-.1-.26.08-.07,0l.4-.12c.17,0-.13,0-.12,0a1,1,0,0,1,.25,0h.34a1.22,1.22,0,0,1,.49.12l.23.08c-.05,0-.26-.13,0,0a2.89,2.89,0,0,1,.85.5c-.2-.22-.1-.08,0,0l.17.15c.11.1.21.21.31.32s0,0,0,0a1,1,0,0,1,.13.18l.11.19c0,.05.13.33.06.12s.06.24.07.28c.07.2,0-.28,0-.07v.22c0,.37.08-.22,0,0,0,.06,0,.12-.05.18a.56.56,0,0,1,0,.12c0,.11,0,.06.07-.15a1.14,1.14,0,0,0-.18.3s.24-.28.07-.1l-.12.14c-.06.05-.32.23-.12.12s0,0,0,0l-.2.12a1.29,1.29,0,0,0-.16.09c-.22.12.06,0,.1,0s-.28.1-.35.12a2,2,0,0,0-.37.09s.39,0,.12,0h-.61c-.2,0,.31.07.12,0l-.18,0c-.12,0-.23-.08-.35-.12-.28-.09.06,0,.06,0s-.26-.13-.28-.15-.27-.17-.4-.25.2.17.05,0l-.21-.18-.34-.34a2.09,2.09,0,0,1-.14-.17c-.21-.24,0,0,0,0s-.52-.79-.57-.87a9,9,0,0,1-.45-.94A1.52,1.52,0,0,0,391,319a1.56,1.56,0,0,0-.53,2.06Z" transform="translate(-153.14 -75.71)"/><path class="cls-1" d="M360.66,328a6.09,6.09,0,0,0,1.6,6.4,8.35,8.35,0,0,0,7.09,1.92c2.34-.35,4.57-1.67,5-4.17a5.77,5.77,0,0,0-2.44-5.75,7.39,7.39,0,0,0-7.69.14,1.5,1.5,0,0,0,1.51,2.59,6.45,6.45,0,0,1,.58-.31s.31-.14.15-.08.13,0,.17,0a5.79,5.79,0,0,1,.63-.19l.28-.06c.32-.07-.17,0,.18,0a7.49,7.49,0,0,1,1.16,0c-.27,0,.21,0,.31.06a4.11,4.11,0,0,1,.68.21c-.23-.1,0,0,0,0l.31.17.24.16c.2.13-.15-.14,0,0l.39.39c.06.05.14.22,0,0a3.28,3.28,0,0,1,.2.31,3.55,3.55,0,0,1,.23.43c-.13-.29,0,.1.06.21s.07.32.11.48c-.08-.33,0-.08,0,0s0,.2,0,.3a1.93,1.93,0,0,1,0,.24s-.05.4,0,.16-.07.26-.08.32-.06.19-.1.28.15-.27,0,0c0,.07-.07.14-.11.2s-.28.33-.05.08a3.15,3.15,0,0,1-1.91.93l-.38.07c-.25,0,.2,0-.06,0l-.7.05h-.63l-.31,0c-.48,0,.26.06-.21,0a4.85,4.85,0,0,1-2.2-.86c-.4-.27.11.1-.09-.07l-.25-.24-.19-.2c0-.05-.25-.33-.11-.13a5.05,5.05,0,0,1-.36-.58l-.13-.25c.13.27,0-.12-.05-.15-.07-.22-.12-.44-.17-.66,0,.06,0,.29,0,0,0-.13,0-.27,0-.4s0-.18,0-.27c0-.28,0,.09,0-.07s.13-.48.22-.71a1.49,1.49,0,0,0-1-1.84,1.55,1.55,0,0,0-1.85,1Z" transform="translate(-153.14 -75.71)"/><path class="cls-1" d="M386.5,217.93a6.65,6.65,0,0,0,3.67,3.28,6.32,6.32,0,0,0,5-.28,6.64,6.64,0,0,0,3.28-3.67,4.82,4.82,0,0,0-.88-5,3.66,3.66,0,0,0-2.62-1,3.29,3.29,0,0,0-2.67,1.43,1.5,1.5,0,0,0,.53,2.05,1.55,1.55,0,0,0,2.06-.54c-.13.15-.13.17,0,0-.17.12-.18.13,0,0s.12-.07-.06,0l.21-.06c-.22,0-.24,0-.07,0h.23c.17,0,.15,0-.06,0l.22.06c.16.06.14.05,0,0l.2.11c.14.09.12.08,0,0l.18.18c-.2-.23.09.2.12.26-.13-.28,0,.08,0,.15l.06.26c0-.17,0-.17,0,0s0,.37,0,.56c0-.33-.05.21-.07.28a5,5,0,0,1-.16.51c.12-.3-.11.19-.14.24a5,5,0,0,1-.29.45c.18-.25-.15.17-.19.21a3.51,3.51,0,0,1-.34.33l-.15.13c.12-.09.12-.09,0,0s-.3.2-.46.29-.54.25-.24.13a3.39,3.39,0,0,1-.51.17,4.87,4.87,0,0,1-.52.12c.35-.06-.2,0-.27,0l-.54,0c.35,0-.12,0-.19-.05a3.74,3.74,0,0,1-.45-.12l-.25-.1c.15.07.14.07,0,0s-.32-.16-.47-.25-.49-.35-.25-.16a4.9,4.9,0,0,1-.76-.75c.2.24-.11-.2-.14-.25a3,3,0,0,1-.25-.47,1.5,1.5,0,0,0-2-.54,1.53,1.53,0,0,0-.54,2.05Z" transform="translate(-153.14 -75.71)"/><path class="cls-1" d="M360.11,199.9a4.75,4.75,0,0,0-1.12,4.79,4.54,4.54,0,0,0,4,3.31,5.09,5.09,0,0,0,4.61-2.66,4.49,4.49,0,0,0-.82-5.31,5,5,0,0,0-5.74-1,1.51,1.51,0,0,0-.53,2,1.54,1.54,0,0,0,2.05.54c.14-.07.28-.05-.09,0l.21-.07.21-.06c.14,0,.34,0-.11,0l.36,0h.22c.39,0-.3-.06,0,0l.39.09c.15,0,.54.25.09,0l.77.45c-.37-.23-.17-.13-.08-.05l.16.15c.06,0,.11.11.16.16s.17.29-.05-.08c.06.11.14.2.2.31l.1.19c.12.22-.14-.39,0,0,0,.12.07.23.1.35s0,.29,0-.11a1.69,1.69,0,0,0,0,.23v.24c0,.29.08-.38,0-.09a3.6,3.6,0,0,1-.12.44c-.08.28.17-.33,0-.07,0,.06-.07.13-.11.2a2.3,2.3,0,0,1-.21.33c-.16.24.25-.27.05-.06l-.16.17-.17.17-.12.1q-.18.15.12-.09c-.11.06-.21.15-.32.22l-.21.11c-.12.06-.33.1.07,0-.14,0-.29.11-.44.14l-.15,0c-.39.08.29,0,0,0H363c-.29,0,.39.09.1,0l-.15,0a2,2,0,0,1-.23-.06c-.15-.06-.24-.17.09,0-.13-.09-.28-.15-.41-.24s-.12-.16.14.11l-.16-.14a3.85,3.85,0,0,1-.27-.3c.33.35.07.1,0,0s-.15-.29-.22-.43c.21.4.09.22.05.1l-.09-.27c0-.14,0-.27-.08-.41.1.46,0,.26,0,.12a2.62,2.62,0,0,1,0-.28c0-.14,0-.27,0-.41,0,.47,0,.26,0,.12l.06-.26c0-.07.05-.13.07-.2.08-.25-.17.34-.05.11s.15-.28.24-.41-.25.28-.06.08l.19-.2a1.51,1.51,0,0,0,0-2.12,1.53,1.53,0,0,0-2.12,0Z" transform="translate(-153.14 -75.71)"/><path class="cls-1" d="M321.13,216.86l1.15,3a1.54,1.54,0,0,0,1.84,1,6.17,6.17,0,0,0,4.51-7.51,1.51,1.51,0,0,0-2.2-.89A5.53,5.53,0,0,0,324,217a1.5,1.5,0,0,0,1.5,1.5A1.54,1.54,0,0,0,327,217a1.7,1.7,0,0,1,0-.22c0-.25,0,0,0,.1a2.1,2.1,0,0,1,.09-.42c0-.12.08-.25.12-.37s-.15.31,0,.08a1.74,1.74,0,0,1,.1-.19,2.63,2.63,0,0,1,.2-.33s.19-.27,0-.06,0,0,0-.05l.31-.31.13-.11c-.25.26-.15.11,0,0l-2.2-.9c0,.15.07.29.1.44s0-.39,0-.1c0,.07,0,.15,0,.22a2.81,2.81,0,0,1,0,.41,1.64,1.64,0,0,0,0,.22c0,.19.07-.39,0-.14a5.35,5.35,0,0,1-.24.87c0,.12-.18.3,0-.08,0,0-.05.11-.08.17a3.84,3.84,0,0,1-.22.39c-.07.12-.15.23-.23.35s.24-.28.05-.07l-.14.17c-.1.11-.21.22-.32.32l-.14.12c-.24.21.2-.14.07-.05s-.48.3-.74.44.35-.13.09,0l-.22.07a3.39,3.39,0,0,1-.43.11l1.84,1.05L324,216.06a1.66,1.66,0,0,0-.68-.9,1.62,1.62,0,0,0-1.16-.15,1.52,1.52,0,0,0-1.05,1.85Z" transform="translate(-153.14 -75.71)"/><path class="cls-2" d="M497,219.6a28.51,28.51,0,0,1,6,12L485.59,234a2.11,2.11,0,0,1-1,0c-1.37-.45-.67-2.54.31-3.59a40.84,40.84,0,0,1,10.78-8.29" transform="translate(-153.14 -75.71)"/><path class="cls-2" d="M496,220.66A27.34,27.34,0,0,1,501.6,232l1-1.85-9.45,1.3-4.73.65-2.37.32-1.12.11s.54.29.34.36c0,0,.2-.76.25-.86a5.17,5.17,0,0,1,1.05-1.28,38.85,38.85,0,0,1,9.82-7.37c1.7-.91.18-3.5-1.52-2.59a43.21,43.21,0,0,0-8.36,5.86c-1.84,1.65-4.93,4.13-4.13,7,.52,1.85,2.33,2,3.93,1.74l5.45-.75,11.64-1.6a1.52,1.52,0,0,0,1.05-1.84,30.83,30.83,0,0,0-6.43-12.66c-1.24-1.47-3.36.66-2.12,2.13Z" transform="translate(-153.14 -75.71)"/><path class="cls-2" d="M512,224.37l11.69-1.85a1.52,1.52,0,0,0,1.05-1.85,1.55,1.55,0,0,0-1.85-1l-11.69,1.85a1.53,1.53,0,0,0-1.05,1.85,1.56,1.56,0,0,0,1.85,1.05Z" transform="translate(-153.14 -75.71)"/><path class="cls-2" d="M541.25,220.89l7.54-1.65a1.5,1.5,0,0,0-.8-2.9L540.45,218a1.51,1.51,0,0,0-1.05,1.84,1.53,1.53,0,0,0,1.85,1Z" transform="translate(-153.14 -75.71)"/><path class="cls-2" d="M565.54,216.77a17.81,17.81,0,0,1,1.77-.49l1-.19.42-.06.24,0a19.47,19.47,0,0,1,3.74,0,1.5,1.5,0,0,0,1.5-1.5,1.54,1.54,0,0,0-1.5-1.5,20,20,0,0,0-7.94.9,1.5,1.5,0,1,0,.8,2.89Z" transform="translate(-153.14 -75.71)"/><path class="cls-2" d="M456.72,179.25,454,196.43a59.73,59.73,0,0,0,13.08-12.11,2.74,2.74,0,0,0,.79-1.74c0-.85-.82-1.45-1.56-1.88a17.36,17.36,0,0,0-6.65-2.2" transform="translate(-153.14 -75.71)"/><path class="cls-2" d="M455.27,178.86,452.54,196c-.18,1.16,1,2.51,2.2,1.69a61.27,61.27,0,0,0,12.39-11.12,8.4,8.4,0,0,0,2.17-3.34,3.45,3.45,0,0,0-1.59-3.42,17.29,17.29,0,0,0-8.06-2.84,1.51,1.51,0,0,0-1.5,1.5,1.54,1.54,0,0,0,1.5,1.5,14.18,14.18,0,0,1,6.23,2.2c.2.14.47.36.46.52,0,.31-.55.82-.73,1-.72.89-1.48,1.76-2.25,2.61a58.39,58.39,0,0,1-10.13,8.77l2.2,1.7,2.74-17.18a1.55,1.55,0,0,0-1.05-1.84,1.51,1.51,0,0,0-1.85,1.05Z" transform="translate(-153.14 -75.71)"/><path class="cls-2" d="M472.82,170.11l0-.29c0-.22-.05.27,0,.06l.09-.52c.07-.33.16-.67.26-1,.06-.17.11-.33.17-.49l.11-.27c.07-.19,0,0,0,0,0-.13.19-.41.25-.52s.16-.31.24-.46a10.07,10.07,0,0,1,.56-.88c0-.06.09-.12.13-.19l.11-.13-.09.12c0-.12.25-.31.33-.4a8.5,8.5,0,0,1,.73-.74,4.4,4.4,0,0,1,.39-.35.75.75,0,0,1,.17-.14c-.13.1-.16.12-.07.06l.14-.11a1.5,1.5,0,1,0-1.52-2.59,12.28,12.28,0,0,0-5,8.8,1.5,1.5,0,0,0,1.5,1.5,1.54,1.54,0,0,0,1.5-1.5Z" transform="translate(-153.14 -75.71)"/><path class="cls-2" d="M483.66,147.5l3.32-5a1.5,1.5,0,0,0-.54-2.05,1.53,1.53,0,0,0-2.05.53l-3.32,5a1.5,1.5,0,0,0,.53,2.05,1.54,1.54,0,0,0,2.06-.53Z" transform="translate(-153.14 -75.71)"/><path class="cls-2" d="M495,126l3.35-3.35a1.54,1.54,0,0,0,.44-1.06,1.58,1.58,0,0,0-.44-1.06,1.56,1.56,0,0,0-1.06-.44,1.59,1.59,0,0,0-1.06.44l-3.35,3.35a1.56,1.56,0,0,0-.44,1.06,1.5,1.5,0,0,0,.44,1.06,1.46,1.46,0,0,0,1.06.44A1.52,1.52,0,0,0,495,126Z" transform="translate(-153.14 -75.71)"/><path class="cls-2" d="M506.92,107.18l2.53-3.33a1.51,1.51,0,0,0,.15-1.16,1.49,1.49,0,0,0-.69-.89,1.46,1.46,0,0,0-1.15-.15l-.36.15a1.4,1.4,0,0,0-.54.54l-2.53,3.33a1.52,1.52,0,0,0-.15,1.16,1.49,1.49,0,0,0,.69.89,1.46,1.46,0,0,0,1.15.15l.36-.15a1.4,1.4,0,0,0,.54-.54Z" transform="translate(-153.14 -75.71)"/><path class="cls-2" d="M391.93,161.73a37.74,37.74,0,0,0,3.26,12.39,61,61,0,0,0,9.13-12.8l-8.3-2.09" transform="translate(-153.14 -75.71)"/><path class="cls-2" d="M390.43,161.73a40.45,40.45,0,0,0,3.47,13.14,1.5,1.5,0,0,0,2.35.31,63.79,63.79,0,0,0,9.37-13.11,1.51,1.51,0,0,0-.9-2.2l-8.3-2.09c-1.87-.47-2.67,2.42-.79,2.9l8.3,2.08-.9-2.2a60.69,60.69,0,0,1-8.9,12.5l2.36.3a36.13,36.13,0,0,1-3.06-11.63,1.54,1.54,0,0,0-1.5-1.5,1.51,1.51,0,0,0-1.5,1.5Z" transform="translate(-153.14 -75.71)"/><path class="cls-2" d="M405.15,150.45l2.21-9.28a1.5,1.5,0,0,0-1-1.84,1.53,1.53,0,0,0-1.85,1l-2.21,9.28a1.5,1.5,0,1,0,2.89.8Z" transform="translate(-153.14 -75.71)"/><path class="cls-2" d="M410.9,124.91a10.15,10.15,0,0,1,0-1.56c0-.17,0-.13,0,.11a.58.58,0,0,1,0-.19A2.5,2.5,0,0,1,411,123c0-.26.11-.51.18-.76s.17-.49.26-.73-.15.31,0,0a3.78,3.78,0,0,1,.17-.35,7.52,7.52,0,0,1,.83-1.32,1.5,1.5,0,0,0-.54-2,1.47,1.47,0,0,0-1.16-.15,1.73,1.73,0,0,0-.89.69,9.8,9.8,0,0,0-1.93,6.6,1.5,1.5,0,0,0,3,0Z" transform="translate(-153.14 -75.71)"/><path class="cls-2" d="M416.73,101l1.67-5a1.52,1.52,0,0,0-1-1.85,1.54,1.54,0,0,0-1.84,1l-1.68,5a1.52,1.52,0,0,0,1.05,1.84,1.54,1.54,0,0,0,1.85-1Z" transform="translate(-153.14 -75.71)"/><path class="cls-2" d="M423.47,81.78l.86-4.18a1.56,1.56,0,0,0-.15-1.16,1.5,1.5,0,0,0-2.74.36L420.58,81a1.58,1.58,0,0,0,.15,1.15,1.49,1.49,0,0,0,.89.69,1.52,1.52,0,0,0,1.85-1Z" transform="translate(-153.14 -75.71)"/><path class="cls-2" d="M334.13,168.55l9.28-3.72a44.94,44.94,0,0,1,2.91,9.13,20.9,20.9,0,0,1-13.92-7.2" transform="translate(-153.14 -75.71)"/><path class="cls-2" d="M334.52,170l9.29-3.72-1.69-.69a44.1,44.1,0,0,1,2.75,8.76l1.45-1.89a19.52,19.52,0,0,1-12.86-6.76,1.52,1.52,0,0,0-2.12,0,1.54,1.54,0,0,0,0,2.13,22.57,22.57,0,0,0,15,7.63,1.52,1.52,0,0,0,1.44-1.9,47,47,0,0,0-3.05-9.48,1.49,1.49,0,0,0-1.7-.69l-9.28,3.72a1.55,1.55,0,0,0-1.05,1.84,1.51,1.51,0,0,0,1.84,1.05Z" transform="translate(-153.14 -75.71)"/><path class="cls-2" d="M335.4,155.1a36,36,0,0,1-2.37-4c-.34-.66-.65-1.34-.95-2-.07-.17-.08-.18,0-.05,0-.1-.07-.19-.11-.28s-.15-.37-.22-.55c-.14-.37-.28-.75-.41-1.12a1.54,1.54,0,0,0-1.85-1.05,1.51,1.51,0,0,0-1,1.84,36.28,36.28,0,0,0,4.39,8.7,1.55,1.55,0,0,0,2.06.54,1.51,1.51,0,0,0,.53-2.05Z" transform="translate(-153.14 -75.71)"/><path class="cls-2" d="M324.65,134.1l-1.7-3.33a1.5,1.5,0,0,0-.89-.69,1.5,1.5,0,0,0-1.85,1,1.65,1.65,0,0,0,.15,1.15l1.7,3.34a1.59,1.59,0,0,0,.9.69,1.5,1.5,0,0,0,1.85-1.05,1.62,1.62,0,0,0-.16-1.16Z" transform="translate(-153.14 -75.71)"/><path class="cls-2" d="M317.91,115.72l-3.42-7.5a1.5,1.5,0,0,0-2.05-.54,1.54,1.54,0,0,0-.54,2l3.42,7.5a1.5,1.5,0,0,0,2.05.54,1.54,1.54,0,0,0,.54-2Z" transform="translate(-153.14 -75.71)"/><path class="cls-2" d="M308.78,91.83l-1.69-4.18a1.63,1.63,0,0,0-.69-.9,1.5,1.5,0,0,0-2,.54,1.48,1.48,0,0,0-.15,1.16l1.69,4.18a1.63,1.63,0,0,0,.69.9,1.59,1.59,0,0,0,1.15.15,1.53,1.53,0,0,0,.9-.69,1.44,1.44,0,0,0,.15-1.16Z" transform="translate(-153.14 -75.71)"/><path class="cls-2" d="M287.62,201.7a40.2,40.2,0,0,1,6.33-8.29,1.55,1.55,0,0,1,1.18-.62c.47.05.79.5,1,.91l6.24,10.21-12.73-2.71" transform="translate(-153.14 -75.71)"/><path class="cls-2" d="M288.91,202.46a39.14,39.14,0,0,1,3.06-4.57c.57-.72,1.16-1.42,1.78-2.09.32-.36.65-.71,1-1.05.07-.07.45-.35.45-.44s.08-.11-.19-.08-.26-.09-.25,0,.5.8.59.95l.84,1.37,1.6,2.62,3.35,5.47,1.69-2.2-12.73-2.7a1.53,1.53,0,0,0-1.85,1,1.51,1.51,0,0,0,1,1.85l12.73,2.7a1.52,1.52,0,0,0,1.7-2.2l-3.89-6.35-1.9-3.11c-.59-1-1.18-2.08-2.39-2.35s-2.27.62-3.1,1.48-1.48,1.6-2.17,2.44a43.57,43.57,0,0,0-3.94,5.68,1.5,1.5,0,0,0,2.59,1.52Z" transform="translate(-153.14 -75.71)"/><path class="cls-2" d="M282.57,189.57a25.72,25.72,0,0,1-4.5-1.9c-.74-.39-1.46-.82-2.16-1.28s-1.44-1-1.94-1.38a1.54,1.54,0,0,0-2.12,0,1.52,1.52,0,0,0,0,2.12,31.28,31.28,0,0,0,9.93,5.33,1.51,1.51,0,0,0,1.84-1.05,1.52,1.52,0,0,0-1.05-1.84Z" transform="translate(-153.14 -75.71)"/><path class="cls-2" d="M253.29,176.94l-8.39-2.47a1.52,1.52,0,0,0-1.84,1.05,1.54,1.54,0,0,0,1.05,1.85l8.38,2.46a1.5,1.5,0,1,0,.8-2.89Z" transform="translate(-153.14 -75.71)"/><path class="cls-2" d="M224.75,171.33a21.79,21.79,0,0,0-10.82-.25,1.5,1.5,0,1,0,.8,2.9,18.47,18.47,0,0,1,9.22.25,1.5,1.5,0,1,0,.8-2.9Z" transform="translate(-153.14 -75.71)"/><path class="cls-2" d="M199.28,172a21.69,21.69,0,0,0-9.12,1.9,1.49,1.49,0,0,0-.54,2.05,1.54,1.54,0,0,0,2,.54q.26-.1.06,0l.29-.12.43-.16c.34-.13.68-.24,1-.35a18.18,18.18,0,0,1,1.93-.49q.49-.1,1-.18l.23,0c-.15,0-.13,0,0,0l.46,0a19.32,19.32,0,0,1,2.15-.08,1.51,1.51,0,0,0,1.5-1.5,1.53,1.53,0,0,0-1.5-1.5Z" transform="translate(-153.14 -75.71)"/><path class="cls-2" d="M249.93,271.56l-3.35.84a1.5,1.5,0,0,0,.8,2.89l3.35-.84a1.5,1.5,0,0,0,.89-.69,1.49,1.49,0,0,0-1.69-2.2Z" transform="translate(-153.14 -75.71)"/><path class="cls-2" d="M229.85,280.76a15.91,15.91,0,0,0-8.17,3.85,1.51,1.51,0,0,0,0,2.12,1.54,1.54,0,0,0,2.13,0l.38-.32.19-.16c.12-.09.1-.08,0,0,.27-.19.54-.39.82-.57a15.15,15.15,0,0,1,1.81-1l.23-.1c.2-.1-.23.09,0,0l.47-.19c.31-.11.63-.22.95-.31a15.32,15.32,0,0,1,2-.44,1.5,1.5,0,0,0,1.05-1.84,1.55,1.55,0,0,0-1.84-1.05Z" transform="translate(-153.14 -75.71)"/><path class="cls-2" d="M202.68,291.83l-7.53,4.2a1.5,1.5,0,0,0,1.52,2.59l7.52-4.2a1.5,1.5,0,0,0,.54-2.05,1.53,1.53,0,0,0-2-.54Z" transform="translate(-153.14 -75.71)"/><path class="cls-2" d="M271,324.17l-3.35,2.23a1.61,1.61,0,0,0-.69.89,1.5,1.5,0,0,0,1.05,1.85,1.49,1.49,0,0,0,1.15-.15l3.35-2.23a1.55,1.55,0,0,0,.69-.9,1.5,1.5,0,0,0-1.05-1.85,1.49,1.49,0,0,0-1.15.16Z" transform="translate(-153.14 -75.71)"/><path class="cls-2" d="M254.46,338.87l-3.91,3.9a1.5,1.5,0,0,0,2.12,2.12l3.91-3.9a1.51,1.51,0,0,0,0-2.12,1.53,1.53,0,0,0-2.12,0Z" transform="translate(-153.14 -75.71)"/><path class="cls-2" d="M236.68,357.37l-3.91,3.35a1.52,1.52,0,0,0-.44,1.06,1.5,1.5,0,0,0,1.5,1.5,1.7,1.7,0,0,0,1.06-.44l3.91-3.35a1.48,1.48,0,0,0,.44-1.06,1.58,1.58,0,0,0-.44-1.06,1.56,1.56,0,0,0-1.06-.44,1.66,1.66,0,0,0-1.06.44Z" transform="translate(-153.14 -75.71)"/><path class="cls-2" d="M281.8,321.54a28.61,28.61,0,0,1-4.47-4.92,28.08,28.08,0,0,1,10.48-5,20.48,20.48,0,0,1-5.37,8.32" transform="translate(-153.14 -75.71)"/><path class="cls-2" d="M282.86,320.48a28.85,28.85,0,0,1-4.24-4.61l-.54,2.05a26.94,26.94,0,0,1,10.13-4.86l-1.84-1.85a19.06,19.06,0,0,1-2,4.13,18.31,18.31,0,0,1-3,3.52,1.53,1.53,0,0,0,0,2.13,1.55,1.55,0,0,0,2.13,0,22.35,22.35,0,0,0,5.76-9,1.51,1.51,0,0,0-1.85-1.84,29.26,29.26,0,0,0-10.84,5.16,1.52,1.52,0,0,0-.54,2.05,31.15,31.15,0,0,0,4.71,5.22,1.53,1.53,0,0,0,2.12,0,1.51,1.51,0,0,0,0-2.12Z" transform="translate(-153.14 -75.71)"/><path class="cls-2" d="M261.65,265.54l1.5,9.12a2.74,2.74,0,0,0,.63,1.58c.84.81,2.22.26,3.23-.33l10.43-6.05a1.83,1.83,0,0,0,.91-.89c.26-.87-.8-1.51-1.67-1.77a60.31,60.31,0,0,0-13.38-2.45" transform="translate(-153.14 -75.71)"/><path class="cls-2" d="M260.2,265.94l.86,5.21.43,2.61a11.39,11.39,0,0,0,.53,2.45,3.13,3.13,0,0,0,3.71,1.83A14.86,14.86,0,0,0,270,275.9l4.51-2.62a32.15,32.15,0,0,0,4.34-2.6,2.51,2.51,0,0,0,.21-3.81c-1.12-1.09-2.84-1.38-4.29-1.76a63.72,63.72,0,0,0-11.49-1.86c-1.93-.13-1.92,2.87,0,3a58.93,58.93,0,0,1,7.92,1.1c1.34.28,2.68.61,4,1a7.82,7.82,0,0,1,1.42.45s.29.21.32.21,0-.6,0-.58-.18.09-.18.09a7,7,0,0,0-1.64.95l-1.83,1.07-3.66,2.12c-1.2.7-2.38,1.43-3.59,2.08a4.56,4.56,0,0,1-1.06.41c-.2.06-.29-.09-.15,0a1.18,1.18,0,0,1-.17-.55c-.66-3.13-1.06-6.33-1.58-9.48a1.51,1.51,0,0,0-1.84-1,1.53,1.53,0,0,0-1.05,1.84Z" transform="translate(-153.14 -75.71)"/></svg>